# File produced by Open Asset Import Library (http://www.assimp.sf.net)
# (assimp v4.1.908865877)

mtllib naturePack_020.mtl

# 10 vertex positions
v  0.01677298545837402 0.3400000035762787 0.1344540119171143
v  -0.5 0 -0.1012750267982483
v  0 0 0.5
v  -0.1884779930114746 0.3400000035762787 -0.1123700141906738
v  -0.1216880083084106 0.3400000035762787 -0.2054330110549927
v  0.1614289879798889 0.3400000035762787 -0.1046770215034485
v  0.1948710083961487 0.3400000035762787 -0.0436440110206604
v  0.5 0 0
v  0.3325859904289246 0 -0.3055379986763
v  -0.2138420045375824 0 -0.5

# 30 UV coordinates
vt 1.94293999671936 25.42340087890625 0
vt -18.2012996673584 8.88694953918457 0
vt 12.58629989624023 8.88694953918457 0
vt -10.69540023803711 25.42340087890625 0
vt 20.34539985656738 14.39159965515137 0
vt 14.89420032501221 27.77289962768555 0
vt 12.26469993591309 24.10910034179688 0
vt 26.04050064086914 23.80620002746582 0
vt 27.35709953308105 21.40329933166504 0
vt 24.56270027160645 8.363579750061035 0
vt 41.75830078125 -8.172860145568848 0
vt 34.47880172729492 8.363579750061035 0
vt 13.91940021514893 -8.172860145568848 0
vt -19.68499946594238 0 0
vt -32.77899932861328 31.7140998840332 0
vt -39.37009811401367 19.68499946594238 0
vt -11.26599979400635 39.37009811401367 0
vt 0 23.67230033874512 0
vt -26.73789978027344 8.432270050048828 0
vt -38.55410003662109 -8.104169845581055 0
vt -19.23200035095215 -8.104169845581055 0
vt -31.24769973754883 8.432270050048828 0
vt -4.72035026550293 -7.459740161895752 0
vt -20.24860000610352 -23.99620056152344 0
vt 2.586050033569336 -23.99620056152344 0
vt -16.55150032043457 -7.459740161895752 0
vt 5.624509811401367 -9.290140151977539 0
vt 12.06149959564209 -25.82659912109375 0
vt 8.364419937133789 -9.290140151977539 0
vt -1.654929995536804 -25.82659912109375 0

# 7 vertex normals
vn -0.6223959922790527 0.5871549844741821 0.5175639986991882
vn 0 1 0
vn 0.5723850131034851 0.5871549844741821 0.5723850131034851
vn 0 -1 0
vn -0.6576390266418457 0.5871549844741821 -0.4719749987125397
vn 0.2714009881019592 0.5871549844741821 -0.7626209855079651
vn 0.7098940014839172 0.5871549844741821 -0.3889729976654053

# Mesh 'Mesh1 Group1 Model' with 2 faces
g Mesh1 Group1 Model
usemtl Wood
f  1/1/1 2/2/1 3/3/1
f  2/2/1 1/1/1 4/4/1

# Mesh 'Green_leafs' with 3 faces
g Green_leafs
usemtl Green_leafs
f  1/5/2 5/6/2 4/7/2
f  5/6/2 1/5/2 6/8/2
f  6/8/2 1/5/2 7/9/2

# Mesh 'Wood' with 11 faces
g Wood
usemtl Wood
f  1/10/3 8/11/3 7/12/3
f  8/11/3 1/10/3 3/13/3
f  3/14/4 9/15/4 8/16/4
f  3/14/4 10/17/4 9/15/4
f  10/17/4 3/14/4 2/18/4
f  4/19/5 10/20/5 2/21/5
f  10/20/5 4/19/5 5/22/5
f  5/23/6 9/24/6 10/25/6
f  9/24/6 5/23/6 6/26/6
f  7/27/7 9/28/7 6/29/7
f  9/28/7 7/27/7 8/30/7

