# File produced by Open Asset Import Library (http://www.assimp.sf.net)
# (assimp v4.1.908865877)

mtllib naturePack_106.mtl

# 18 vertex positions
v  -0.3899999856948853 2.200000047683716 -1.5
v  0.3900000154972076 5.414339948572303e-16 -1.5
v  -0.3899999856948853 5.350352432758753e-16 -1.5
v  0.3900000154972076 2.200000047683716 -1.5
v  -0.2438289821147919 2.200000047683716 -0.8871901035308838
v  -0.02734088152647018 2.200000047683716 0.2250800132751465
v  -0.3899999856948853 2.200000047683716 -0.4243199825286865
v  -0.3899999856948853 7.219119931429737e-16 -0.4243199825286865
v  -0.2438289821147919 5.414339948572303e-16 -0.8871901035308838
v  -0.02734088152647018 7.219119931429737e-16 0.2250800132751465
v  0.3900000154972076 5.414339948572303e-16 1.5
v  -0.271049976348877 0 1.128136038780212
v  -0.3899999856948853 5.350352432758753e-16 1.5
v  -0.3899999856948853 2.200000047683716 1.5
v  0.3900000154972076 2.200000047683716 1.5
v  -0.271049976348877 2.200000047683716 1.128136038780212
v  -0.3899999856948853 2.200000047683716 0.7989689707756042
v  -0.3899999856948853 7.219119931429737e-16 0.7989689707756042

# 54 UV coordinates
vt 11.02359962463379 86.61419677734375 0
vt -19.68499946594238 0 0
vt 11.02359962463379 -2.519200128400621e-16 0
vt -19.68499946594238 86.61419677734375 0
vt -5.268869876861572 93.98390197753906 0
vt 19.68499946594238 118.1100006103516 0
vt -11.02359962463379 118.1100006103516 0
vt 3.254290103912354 50.19359970092773 0
vt -11.02359962463379 75.76039886474609 0
vt -88.03489685058594 86.61419677734375 0
vt -68.92430114746094 7.089589959069715e-15 0
vt -68.92430114746094 86.61419677734375 0
vt -88.03489685058594 -1.584109933734784e-17 0
vt -117.4449996948242 86.61419677734375 0
vt -92.64170074462891 0 0
vt -92.64170074462891 86.61419677734375 0
vt -117.4449996948242 -2.519200128400621e-16 0
vt -19.68499946594238 118.1100006103516 0
vt 5.268869876861572 93.98390197753906 0
vt 11.02359962463379 118.1100006103516 0
vt -3.254290103912354 50.19359970092773 0
vt -19.68499946594238 8.248620183872615e-34 0
vt 6.340549945831299 14.64029979705811 0
vt 11.02359962463379 -1.112290076693687e-32 0
vt 19.68499946594238 0 0
vt -11.02359962463379 86.61419677734375 0
vt -11.02359962463379 -2.519200128400621e-16 0
vt 19.68499946594238 86.61419677734375 0
vt 118.1100006103516 -2.503050121772238e-15 0
vt -2.13162998604949e-15 86.61419677734375 0
vt -2.13162998604949e-15 -2.503050121772238e-15 0
vt 118.1100006103516 86.61419677734375 0
vt 19.68499946594238 2.688129997120855e-15 0
vt -6.340549945831299 14.64029979705811 0
vt -11.02359962463379 2.688129997120855e-15 0
vt -12.01249980926514 86.61419677734375 0
vt 3.358540058135986 -2.162679990434346e-16 0
vt 3.358540058135986 86.61419677734375 0
vt -12.01249980926514 -2.128059996286697e-14 0
vt -29.70330047607422 86.61419677734375 0
vt -15.92379951477051 -2.131489971503309e-14 0
vt -15.92379951477051 86.61419677734375 0
vt -29.70330047607422 7.106790233613134e-15 0
vt -44.1697998046875 86.61419677734375 0
vt -17.4424991607666 7.105429898699844e-15 0
vt -17.4424991607666 86.61419677734375 0
vt -44.1697998046875 7.105429898699844e-15 0
vt -71.51979827880859 86.61419677734375 0
vt -42.23640060424805 7.105429898699844e-15 0
vt -42.23640060424805 86.61419677734375 0
vt -71.51979827880859 7.105429898699844e-15 0
vt 11.02359962463379 75.76039886474609 0
vt 11.02359962463379 27.59959983825684 0
vt -11.02359962463379 27.59959983825684 0

# 11 vertex normals
vn 0 0 -1
vn -4.828400142748812e-17 1 3.103559820730788e-17
vn -0.9535830020904541 4.753409933648225e-19 -0.3011299967765808
vn -0.972711980342865 0 0.232016995549202
vn -9.901699348117014e-19 -1 -4.231890093662527e-17
vn 0 0 1
vn 1 1.271549978550395e-16 -1.0828700146526e-16
vn -0.9524589776992798 -3.395530092415876e-18 -0.3046680092811584
vn -0.9404770135879517 -1.376510119976151e-18 0.3398570120334625
vn -0.8453530073165894 2.876090256617347e-32 -0.5342079997062683
vn -0.8730800151824951 -2.075490000820676e-32 0.4875760078430176

# Mesh 'Mesh1 Grey_Cliff Model' with 32 faces
g Mesh1 Grey_Cliff Model
usemtl Stone
f  1/1/1 2/2/1 3/3/1
f  2/2/1 1/1/1 4/4/1
f  5/5/2 4/6/2 1/7/2
f  4/6/2 5/5/2 6/8/2
f  6/8/2 5/5/2 7/9/2
f  5/10/3 8/11/3 7/12/3
f  8/11/3 5/10/3 9/13/3
f  1/14/4 9/15/4 5/16/4
f  9/15/4 1/14/4 3/17/4
f  2/18/5 9/19/5 3/20/5
f  9/19/5 2/18/5 10/21/5
f  11/22/5 10/21/5 2/18/5
f  11/22/5 12/23/5 10/21/5
f  12/23/5 11/22/5 13/24/5
f  11/25/6 14/26/6 13/27/6
f  14/26/6 11/25/6 15/28/6
f  2/29/7 15/30/7 11/31/7
f  15/30/7 2/29/7 4/32/7
f  4/6/2 6/8/2 15/33/2
f  16/34/2 15/33/2 6/8/2
f  15/33/2 16/34/2 14/35/2
f  16/36/8 13/37/8 14/38/8
f  13/37/8 16/36/8 12/39/8
f  17/40/9 12/41/9 16/42/9
f  12/41/9 17/40/9 18/43/9
f  6/44/10 18/45/10 17/46/10
f  18/45/10 6/44/10 10/47/10
f  7/48/11 10/49/11 6/50/11
f  10/49/11 7/48/11 8/51/11
f  10/21/5 8/52/5 9/19/5
f  10/21/5 12/23/5 18/53/5
f  6/8/2 17/54/2 16/34/2

