# File produced by Open Asset Import Library (http://www.assimp.sf.net)
# (assimp v4.1.908865877)

mtllib naturePack_023.mtl

# 42 vertex positions
v  -0.8484290838241577 7.219109872913488e-16 0.3819550275802612
v  -0.5804500579833984 0.2099999934434891 1.245176076889038
v  -1.087730050086975 0.2099999934434891 0.4896849989891052
v  -0.4527510404586792 7.219109872913488e-16 0.9712370634078979
v  -0.6493340730667114 7.219109872913488e-16 -0.06730496883392334
v  -0.4800660610198975 7.219109872913488e-16 -1.097644925117493
v  -0.6493340730667114 7.219109872913488e-16 -0.7293249368667603
v  -0.7921230792999268 7.219109872913488e-16 -0.9979349374771118
v  -0.8324800729751587 0.2099999934434891 -0.9350348711013794
v  -1.015543103218079 0.2099999934434891 -1.279404997825623
v  -1.015543103218079 0.4000000059604645 -1.279404997825623
v  -0.8324800729751587 0.4000000059604645 -0.9350348711013794
v  -0.8324800729751587 0.2099999934434891 -0.08629500865936279
v  -0.8324800729751587 0.4000000059604645 -0.08629500865936279
v  -1.087730050086975 0.4000000059604645 0.4896849989891052
v  -0.5804500579833984 0.4000000059604645 1.245176076889038
v  0.5984599590301514 0.4000000059604645 1.407235026359558
v  0.5984599590301514 0.2099999934434891 1.407235026359558
v  0.4667999744415283 0 1.09764301776886
v  -0.1669270396232605 7.219109872913488e-16 -0.8968049287796021
v  -0.2140090465545654 0.2099999934434891 -1.149755120277405
v  -0.6154700517654419 0.2099999934434891 -1.407235026359558
v  -0.6154700517654419 0.4000000059604645 -1.407235026359558
v  -0.7007240056991577 0.7200000286102295 -0.8827849626541138
v  -0.4246740341186523 0.7200000286102295 -0.9709950685501099
v  -0.5744110345840454 0.7200000286102295 -0.6451748609542847
v  -0.5744110345840454 0.7200000286102295 -0.05954492092132568
v  -0.7505330443382263 0.7200000286102295 0.3378850221633911
v  -0.4005100727081299 0.7200000286102295 0.8591710329055786
v  0.006219983100891113 0.7200000286102295 0.9150820374488831
v  0.5056999921798706 0.5600000023841858 1.189113020896912
v  0.5817400217056274 0.7200000286102295 0.7614160180091858
v  0.7505398988723755 0.7200000286102295 0.5518400073051453
v  1.087730050086975 0.4000000059604645 0.7997680306434631
v  1.087730050086975 0.2099999934434891 0.7997680306434631
v  0.8484300374984741 7.219109872913488e-16 0.6238190531730652
v  0.7226098775863647 7.219109872913488e-16 0.1487950086593628
v  0.9264298677444458 0.2099999934434891 0.1907650232315063
v  0.9264298677444458 0.4000000059604645 0.1907650232315063
v  -0.2140090465545654 0.4000000059604645 -1.149755120277405
v  -0.1476660370826721 0.7200000286102295 -0.7933350801467896
v  0.6392399072647095 0.7200000286102295 0.1316250562667847

# 146 UV coordinates
vt -28.2598991394043 -23.54389953613281 0
vt 5.836249828338623 -10.42479991912842 0
vt -29.99049949645996 -10.42479991912842 0
vt -0.314969003200531 -23.54389953613281 0
vt -17.25970077514648 58.05279922485352 0
vt -24.99920082092285 17.1653003692627 0
vt -9.421290397644043 40.36539840698242 0
vt -23.92379951477051 98.61730194091797 0
vt -17.25970077514648 84.11669921875 0
vt -11.63809967041016 94.69169616699219 0
vt -76.70819854736328 -7.560299873352051 0
vt -78.14900207519531 -16.21680068969727 0
vt -66.17259979248047 -16.21680068969727 0
vt -92.06259918212891 -7.560299873352051 0
vt -76.70819854736328 8.267720222473145 0
vt -92.06259918212891 15.7480001449585 0
vt -92.06259918212891 8.267720222473145 0
vt -76.70819854736328 15.7480001449585 0
vt -58.80020141601562 8.267720222473145 0
vt -92.21540069580078 15.7480001449585 0
vt -92.21540069580078 8.267720222473145 0
vt -58.80020141601562 15.7480001449585 0
vt -33.02619934082031 8.267720222473145 0
vt -57.82939910888672 15.7480001449585 0
vt -57.82939910888672 8.267720222473145 0
vt -33.02619934082031 15.7480001449585 0
vt 5.836249828338623 8.267720222473145 0
vt -29.99049949645996 15.7480001449585 0
vt -29.99049949645996 8.267720222473145 0
vt 5.836249828338623 15.7480001449585 0
vt 18.91670036315918 8.267720222473145 0
vt 65.76709747314453 15.7480001449585 0
vt 18.91670036315918 15.7480001449585 0
vt 65.76709747314453 8.267720222473145 0
vt 22.4286003112793 -16.50670051574707 0
vt 65.76709747314453 -2.449199914932251 0
vt 18.91670036315918 -2.449199914932251 0
vt 58.97200012207031 -16.50670051574707 0
vt -36.25209808349609 90.71040344238281 0
vt -61.20199966430664 12.18869972229004 0
vt 33.10229873657227 63.88869857788086 0
vt 25.39279937744141 74.97229766845703 0
vt 18.45619964599609 63.88869857788086 0
vt 44.1697998046875 74.97229766845703 0
vt -39.90679931640625 73.49199676513672 0
vt -51.43629837036133 89.09529876708984 0
vt -52.80440139770508 73.49199676513672 0
vt -34.90090179443359 89.09529876708984 0
vt -34.90090179443359 15.7480001449585 0
vt -51.43629837036133 8.267720222473145 0
vt -34.90090179443359 8.267720222473145 0
vt -51.43629837036133 15.7480001449585 0
vt -41.9547004699707 -51.44860076904297 0
vt -51.43629837036133 -73.95210266113281 0
vt -34.90090179443359 -73.95210266113281 0
vt -53.36410140991211 -51.44860076904297 0
vt 26.10460090637207 93.63099670410156 0
vt 15.23639965057373 90.15840148925781 0
vt 20.20940017700195 80.80359649658203 0
vt -72.45700073242188 42.62889862060547 0
vt -76.70819854736328 29.5221004486084 0
vt -61.86259841918945 42.62889862060547 0
vt -92.06259918212891 29.5221004486084 0
vt -58.80020141601562 18.5669002532959 0
vt -80.80359649658203 34.75170135498047 0
vt -92.21540069580078 18.5669002532959 0
vt -57.74710083007812 34.75170135498047 0
vt -57.82939910888672 3.532660007476807 0
vt -43.86890029907227 19.44219970703125 0
vt -60.98310089111328 19.44219970703125 0
vt -33.02619934082031 3.532660007476807 0
vt 5.836249828338623 25.52280044555664 0
vt -27.55179977416992 44.62070083618164 0
vt -29.99049949645996 25.52280044555664 0
vt -2.831369876861572 44.62070083618164 0
vt 65.76709747314453 16.84119987487793 0
vt 23.86540031433105 37.2218017578125 0
vt 18.91670036315918 16.84119987487793 0
vt 40.02870178222656 37.2218017578125 0
vt 60.97959899902344 27.0314998626709 0
vt 41.64149856567383 -31.48629951477051 0
vt 61.03030014038086 -10.7568998336792 0
vt 46.03870010375977 -21.1215991973877 0
vt 71.62480163574219 -10.7568998336792 0
vt 72.35019683837891 -31.48629951477051 0
vt 41.64149856567383 15.7480001449585 0
vt 72.35019683837891 8.267720222473145 0
vt 72.35019683837891 15.7480001449585 0
vt 41.64149856567383 8.267720222473145 0
vt 41.64149856567383 46.97819900512695 0
vt 71.83540344238281 32.66609954833984 0
vt 72.35019683837891 46.97819900512695 0
vt 47.88259887695312 32.66609954833984 0
vt -71.27339935302734 49.54470062255859 0
vt -76.22679901123047 30.84320068359375 0
vt 54.38619995117188 54.65689849853516 0
vt -8.447159767150879 44.97359848022461 0
vt 45.60010147094727 44.97359848022461 0
vt -14.90509986877441 54.65689849853516 0
vt 54.38619995117188 8.267720222473145 0
vt -14.90509986877441 15.7480001449585 0
vt -14.90509986877441 8.267720222473145 0
vt 54.38619995117188 15.7480001449585 0
vt 25.39279937744141 8.267720222473145 0
vt 44.1697998046875 15.7480001449585 0
vt 25.39279937744141 15.7480001449585 0
vt 44.1697998046875 8.267720222473145 0
vt 28.57469940185547 -37.29270172119141 0
vt 25.39279937744141 -53.63029861450195 0
vt 44.1697998046875 -53.63029861450195 0
vt 15.61849975585938 -37.29270172119141 0
vt 27.05590057373047 21.57729911804199 0
vt 37.01039886474609 86.63649749755859 0
vt 20.20940017700195 57.74710083007812 0
vt 13.27550029754639 42.10049819946289 0
vt 43.06869888305664 19.37610054016113 0
vt 67.99079895019531 50.22069931030273 0
vt 65.72709655761719 25.42600059509277 0
vt 70.06150054931641 17.72439956665039 0
vt 46.60940170288086 17.72439956665039 0
vt 62.82550048828125 0.9966760277748108 0
vt 72.37270355224609 33.67699813842773 0
vt 14.02429962158203 -27.9197998046875 0
vt 25.99290084838867 -44.21419906616211 0
vt 31.13850021362305 -27.9197998046875 0
vt 1.189710021018982 -44.21419906616211 0
vt 1.189710021018982 15.7480001449585 0
vt 25.99290084838867 8.267720222473145 0
vt 25.99290084838867 15.7480001449585 0
vt 1.189710021018982 8.267720222473145 0
vt 10.29809951782227 54.13710021972656 0
vt 25.99290084838867 65.18869781494141 0
vt 1.189710021018982 65.18869781494141 0
vt 29.64459991455078 54.13710021972656 0
vt 54.38619995117188 -31.18720054626465 0
vt -5.805260181427002 -16.72430038452148 0
vt -14.90509986877441 -31.18720054626465 0
vt 42.00579833984375 -16.72430038452148 0
vt -57.82939910888672 15.7234001159668 0
vt -40.72100067138672 4.957880020141602 0
vt -33.02619934082031 15.7234001159668 0
vt -60.06750106811523 4.957880020141602 0
vt -58.80020141601562 -0.3741399943828583 0
vt -84.11669921875 -11.34440040588379 0
vt -58.05279922485352 -11.34440040588379 0
vt -92.21540069580078 -0.3741399943828583 0

# 33 vertex normals
vn -0.5232040286064148 -0.7764279842376709 0.3513090014457703
vn -6.216179585274748e-17 -1 -1.120349965254072e-16
vn -0.8433279991149902 -0.2963399887084961 0.4483090043067932
vn -0.8829900026321411 1.79371013904827e-18 0.4693929851055145
vn -1 4.848619745642058e-17 0
vn -0.9142460227012634 7.973420241014228e-17 -0.4051589965820312
vn -0.8302099704742432 -8.460540617174051e-18 0.5574510097503662
vn -0.1361840069293976 -7.997039887097312e-17 0.9906839728355408
vn -0.0800945982336998 -0.8087630271911621 0.5826560258865356
vn 0.4027070105075836 -0.6660150289535522 -0.6278949975967407
vn -0.1612740010023117 -0.8480799794197083 -0.5047280192375183
vn -0.3043659925460815 9.799909148914198e-17 -0.9525550007820129
vn -0.1703969985246658 0.8285989761352539 -0.5332819819450378
vn 4.212950304613023e-17 1 9.522359613156115e-17
vn -0.8487449884414673 0.2757900059223175 0.4511890113353729
vn -0.7784079909324646 0.6277589797973633 -3.247520018433802e-17
vn -0.7239720225334167 0.6106780171394348 -0.320836991071701
vn -0.5476700067520142 0.751550018787384 0.3677369952201843
vn -0.08418329805135727 0.7860530018806458 0.6123999953269958
vn 0.4733229875564575 0.7941240072250366 0.3812260031700134
vn 0.7788040041923523 -9.257670419817517e-17 0.6272680163383484
vn 0.4498940110206604 -0.8162680268287659 0.3623560070991516
vn 0.6503120064735413 -0.5205879807472229 -0.5532469749450684
vn 0.7616609930992126 1.96949999856814e-17 -0.6479759812355042
vn 0.5398659706115723 4.738259624420948e-17 -0.8417509794235229
vn 0.4163079857826233 0.6366750001907349 -0.6491010189056396
vn 0.09714280068874359 0.9263870120048523 0.3638280034065247
vn 0.7474030256271362 0.6341919898986816 -0.1979620009660721
vn 0.9666669964790344 -2.449549800287982e-17 -0.2560369968414307
vn 0.7231659889221191 -0.663582980632782 -0.191541999578476
vn 0.6634699702262878 0.4911360144615173 -0.5644410252571106
vn -0.7021269798278809 -0.6404690146446228 -0.3111560046672821
vn -0.7536500096321106 -0.6572759747505188 -0

# Mesh 'Mesh1 Group1 Model' with 80 faces
g Mesh1 Group1 Model
usemtl Stone
f  1/1/1 2/2/1 3/3/1
f  2/2/1 1/1/1 4/4/1
f  5/5/2 4/6/2 1/7/2
f  4/6/2 5/5/2 6/8/2
f  7/9/2 6/8/2 5/5/2
f  6/8/2 7/9/2 8/10/2
f  9/11/3 8/12/3 7/13/3
f  8/12/3 9/11/3 10/14/3
f  9/15/4 11/16/4 10/17/4
f  11/16/4 9/15/4 12/18/4
f  13/19/5 12/20/5 9/21/5
f  12/20/5 13/19/5 14/22/5
f  3/23/6 14/24/6 13/25/6
f  14/24/6 3/23/6 15/26/6
f  2/27/7 15/28/7 3/29/7
f  15/28/7 2/27/7 16/30/7
f  2/31/8 17/32/8 16/33/8
f  17/32/8 2/31/8 18/34/8
f  4/35/9 18/36/9 2/37/9
f  18/36/9 4/35/9 19/38/9
f  4/6/2 20/39/2 19/40/2
f  4/6/2 6/8/2 20/39/2
f  6/41/10 21/42/10 20/43/10
f  21/42/10 6/41/10 22/44/10
f  8/45/11 22/46/11 6/47/11
f  22/46/11 8/45/11 10/48/11
f  11/49/12 22/50/12 10/51/12
f  22/50/12 11/49/12 23/52/12
f  24/53/13 23/54/13 11/55/13
f  23/54/13 24/53/13 25/56/13
f  25/57/14 24/58/14 26/59/14
f  24/60/15 12/61/15 26/62/15
f  12/61/15 24/60/15 11/63/15
f  14/64/16 26/65/16 12/66/16
f  26/65/16 14/64/16 27/67/16
f  14/68/17 28/69/17 27/70/17
f  28/69/17 14/68/17 15/71/17
f  16/72/18 28/73/18 15/74/18
f  28/73/18 16/72/18 29/75/18
f  17/76/19 29/77/19 16/78/19
f  29/77/19 17/76/19 30/79/19
f  30/79/19 17/76/19 31/80/19
f  17/81/20 32/82/20 31/83/20
f  32/82/20 17/81/20 33/84/20
f  33/84/20 17/81/20 34/85/20
f  17/86/21 35/87/21 34/88/21
f  35/87/21 17/86/21 18/89/21
f  18/90/22 36/91/22 35/92/22
f  36/91/22 18/90/22 19/93/22
f  19/40/2 37/94/2 36/95/2
f  19/40/2 20/39/2 37/94/2
f  21/96/23 37/97/23 20/98/23
f  37/97/23 21/96/23 38/99/23
f  21/100/24 39/101/24 38/102/24
f  39/101/24 21/100/24 40/103/24
f  21/104/25 23/105/25 40/106/25
f  23/105/25 21/104/25 22/107/25
f  25/108/26 40/109/26 23/110/26
f  40/109/26 25/108/26 41/111/26
f  25/57/14 29/112/14 41/113/14
f  26/59/14 29/112/14 25/57/14
f  27/114/14 29/112/14 26/59/14
f  29/112/14 27/114/14 28/115/14
f  41/113/14 29/112/14 30/116/14
f  41/113/14 30/116/14 42/117/14
f  42/117/14 30/116/14 32/118/14
f  32/119/27 30/120/27 31/121/27
f  42/117/14 32/118/14 33/122/14
f  33/123/28 39/124/28 42/125/28
f  39/124/28 33/123/28 34/126/28
f  34/127/29 38/128/29 39/129/29
f  38/128/29 34/127/29 35/130/29
f  36/131/30 38/132/30 35/133/30
f  38/132/30 36/131/30 37/134/30
f  40/135/31 42/136/31 39/137/31
f  42/136/31 40/135/31 41/138/31
f  13/139/32 1/140/32 3/141/32
f  1/140/32 13/139/32 5/142/32
f  13/143/33 7/144/33 5/145/33
f  7/144/33 13/143/33 9/146/33

