# File produced by Open Asset Import Library (http://www.assimp.sf.net)
# (assimp v4.1.908865877)

mtllib naturePack_004.mtl

# 9 vertex positions
v  1.5 0.300000011920929 1.5
v  -1.5 0 1.5
v  1.5 0 1.5
v  -1.5 0.300000011920929 1.5
v  0 0.6600000262260437 0
v  1.5 0.300000011920929 -1.5
v  -1.5 0.300000011920929 -1.5
v  1.5 0 -1.5
v  -1.5 0 -1.5

# 19 UV coordinates
vt 118.1100006103516 11.81099987030029 0
vt 0 0 0
vt 118.1100006103516 0 0
vt 0 11.81099987030029 0
vt 118.1100006103516 2.756370067596436 0
vt 59.05509948730469 63.48849868774414 0
vt 0 2.756370067596436 0
vt 118.1100006103516 -112.0930023193359 0
vt 59.05509948730469 -51.36040115356445 0
vt 0 -112.0930023193359 0
vt -118.1100006103516 -112.0930023193359 0
vt 8.021240544842654e-16 -112.0930023193359 0
vt -59.05509948730469 -51.36040115356445 0
vt -118.1100006103516 0 0
vt -118.1100006103516 11.81099987030029 0
vt -118.1100006103516 118.1100006103516 0
vt 0 118.1100006103516 0
vt -59.05509948730469 63.48849868774414 0
vt -118.1100006103516 2.756370067596436 0

# 9 vertex normals
vn 0 0 1
vn 1.584910003502761e-18 0.9723870158195496 0.2333730012178421
vn 0.2333730012178421 0.9723870158195496 0
vn 1.584910003502761e-18 0.9723870158195496 -0.2333730012178421
vn 0 0 -1
vn 0 -1 0
vn 1 0 0
vn -1 0 0
vn -0.2333730012178421 0.9723870158195496 0

# Mesh 'Mesh1 Plate_Grass Model' with 2 faces
g Mesh1 Plate_Grass Model
usemtl Wood
f  1/1/1 2/2/1 3/3/1
f  2/2/1 1/1/1 4/4/1

# Mesh 'Leafs' with 3 faces
g Leafs
usemtl Leafs
f  1/5/2 5/6/2 4/7/2
f  6/8/3 5/9/3 1/10/3
f  6/11/4 7/12/4 5/13/4

# Mesh 'Wood' with 8 faces
g Wood
usemtl Wood
f  8/14/5 7/4/5 6/15/5
f  7/4/5 8/14/5 9/2/5
f  8/16/6 2/2/6 9/17/6
f  2/2/6 8/16/6 3/14/6
f  8/3/7 1/4/7 3/2/7
f  1/4/7 8/3/7 6/1/7
f  2/2/8 7/15/8 9/14/8
f  7/15/8 2/2/8 4/4/8

# Mesh 'Leafs' with 1 faces
g Leafs
usemtl Leafs
f  5/18/9 7/19/9 4/7/9

