# File produced by Open Asset Import Library (http://www.assimp.sf.net)
# (assimp v4.1.908865877)

mtllib naturePack_098.mtl

# 6 vertex positions
v  0.3899999856948853 0 0.3899999856948853
v  -0.3899999856948853 0 0.3899999856948853
v  0.3899999856948853 0 -0.3899999856948853
v  0.3899999856948853 2.200000047683716 0.3899999856948853
v  -0.3899999856948853 2.200000047683716 0.3899999856948853
v  0.3899999856948853 2.200000047683716 -0.3899999856948853

# 9 UV coordinates
vt -30.70870018005371 0 0
vt 0 0 0
vt -30.70870018005371 30.70870018005371 0
vt 30.70870018005371 86.61419677734375 0
vt 30.70870018005371 0 0
vt 0 86.61419677734375 0
vt 30.70870018005371 30.70870018005371 0
vt -43.4286003112793 86.61419677734375 0
vt -43.4286003112793 0 0

# 5 vertex normals
vn 0 -1 0
vn 0 0 1
vn 0 1 0
vn -0.7071070075035095 0 -0.7071070075035095
vn 1 0 0

# Mesh 'Mesh1 Grey_Cliff_Corner_Green_Top Model' with 3 faces
g Mesh1 Grey_Cliff_Corner_Green_Top Model
usemtl Stone
f  1/1/1 2/2/1 3/3/1
f  4/4/2 2/2/2 1/5/2
f  2/2/2 4/4/2 5/6/2

# Mesh 'Leafs' with 1 faces
g Leafs
usemtl Leafs
f  6/7/3 5/2/3 4/5/3

# Mesh 'Stone' with 4 faces
g Stone
usemtl Stone
f  6/8/4 2/2/4 5/6/4
f  2/2/4 6/8/4 3/9/4
f  4/6/5 3/5/5 6/4/5
f  3/5/5 4/6/5 1/2/5

