# File produced by Open Asset Import Library (http://www.assimp.sf.net)
# (assimp v4.1.908865877)

mtllib naturePack_049.mtl

# 24 vertex positions
v  -1.298699975013733 9.02388932637533e-17 -0.1006499975919724
v  -1.5 9.02388932637533e-17 0.1006499975919724
v  -1.5 9.02388932637533e-17 -0.1006499975919724
v  -1.298699975013733 9.02388932637533e-17 0.1006499975919724
v  -1.298699975013733 0.9929909706115723 0.1006499975919724
v  -1.298699975013733 0.9929909706115723 -0.1006499975919724
v  -1.5 0.9929909706115723 -0.1006499975919724
v  -1.5 0.9929909706115723 0.1006499975919724
v  1.549999952316284 0.9929909706115723 0.1506499946117401
v  -1.549999952316284 0.9929909706115723 0.1506499946117401
v  -1.549999952316284 0.9929909706115723 -0.1506500095129013
v  1.549999952316284 0.9929909706115723 -0.1506500095129013
v  -1.549999952316284 1.112990021705627 -0.1506500095129013
v  1.549999952316284 1.112990021705627 -0.1506500095129013
v  1.549999952316284 1.112990021705627 0.1506499946117401
v  -1.549999952316284 1.112990021705627 0.1506499946117401
v  1.5 0.9929909706115723 0.1006499975919724
v  1.298699855804443 0.9929909706115723 0.1006499975919724
v  1.298699855804443 0.9929909706115723 -0.1006499975919724
v  1.5 0.9929909706115723 -0.1006499975919724
v  1.5 0 -0.1006499975919724
v  1.5 0 0.1006499975919724
v  1.298699855804443 0 0.1006499975919724
v  1.298699855804443 0 -0.1006499975919724

# 52 UV coordinates
vt -7.92519998550415 7.92519998550415 0
vt 0 1.136870003519419e-13 0
vt 0 7.92519998550415 0
vt -7.92519998550415 1.136870003519419e-13 0
vt 7.92519998550415 3.552710078910475e-15 0
vt 1.136870003519419e-13 39.09410095214844 0
vt 1.136870003519419e-13 3.552710078910475e-15 0
vt 7.92519998550415 39.09410095214844 0
vt -7.92519998550415 3.552710078910475e-15 0
vt 0 39.09410095214844 0
vt -7.92519998550415 39.09410095214844 0
vt 0 3.552710078910475e-15 0
vt -1.136870003519419e-13 3.552710078910475e-15 0
vt -1.136870003519419e-13 39.09410095214844 0
vt -120.0790023803711 -1.968500018119812 0
vt -2.458090155033066e-13 3.47860005774428e-13 0
vt -7.92519998550415 3.47860005774428e-13 0
vt 1.968500018119812 -1.968500018119812 0
vt -2.458090155033066e-13 7.92519998550415 0
vt 1.968500018119812 9.893699645996094 0
vt -120.0790023803711 9.893699645996094 0
vt 1.968500018119812 43.81859970092773 0
vt -120.0790023803711 39.09410095214844 0
vt 1.968500018119812 39.09410095214844 0
vt -120.0790023803711 43.81859970092773 0
vt -1.968500018119812 9.893699645996094 0
vt 120.0790023803711 -1.968500018119812 0
vt 120.0790023803711 9.893699645996094 0
vt -1.968500018119812 -1.968500018119812 0
vt -9.893699645996094 43.81859970092773 0
vt -9.893699645996094 39.09410095214844 0
vt 120.0790023803711 39.09410095214844 0
vt -1.968500018119812 43.81859970092773 0
vt -1.968500018119812 39.09410095214844 0
vt 120.0790023803711 43.81859970092773 0
vt 9.893699645996094 39.09410095214844 0
vt 9.893699645996094 43.81859970092773 0
vt -118.1100006103516 2.341730054224861e-13 0
vt -110.1849975585938 2.341730054224861e-13 0
vt -110.1849975585938 7.92519998550415 0
vt -118.1100006103516 7.92519998550415 0
vt 7.92519998550415 0 0
vt 0 0 0
vt 118.1100006103516 39.09410095214844 0
vt 110.1849975585938 0 0
vt 118.1100006103516 0 0
vt 110.1849975585938 39.09410095214844 0
vt -7.92519998550415 0 0
vt -110.1849975585938 39.09410095214844 0
vt -118.1100006103516 0 0
vt -110.1849975585938 0 0
vt -118.1100006103516 39.09410095214844 0

# 10 vertex normals
vn 0 -1 0
vn 1 0 0
vn 0 0 -1
vn -1 0 0
vn 0 0 1
vn 6.28762001164229e-15 -1 -5.989970092878287e-15
vn 9.314990727544992e-16 2.406369950579221e-14 -1
vn -6.112959700336085e-15 1 6.588970193836374e-15
vn -1 -3.850189752522409e-13 -2.423180211531738e-27
vn -4.657490069816576e-16 -1.203189972784e-14 1

# Mesh 'Mesh1 Group1 Model' with 44 faces
g Mesh1 Group1 Model
usemtl Wood
f  1/1/1 2/2/1 3/3/1
f  2/2/1 1/1/1 4/4/1
f  1/5/2 5/6/2 4/7/2
f  5/6/2 1/5/2 6/8/2
f  1/9/3 7/10/3 6/11/3
f  7/10/3 1/9/3 3/12/3
f  2/13/4 7/11/4 3/9/4
f  7/11/4 2/13/4 8/14/4
f  2/12/5 5/8/5 8/10/5
f  5/8/5 2/12/5 4/5/5
f  9/15/6 8/16/6 5/17/6
f  10/18/6 8/16/6 9/15/6
f  8/16/6 10/18/6 7/19/6
f  11/20/6 7/19/6 10/18/6
f  7/19/6 11/20/6 12/21/6
f  13/22/7 12/23/7 11/24/7
f  12/23/7 13/22/7 14/25/7
f  13/26/8 15/27/8 14/28/8
f  15/27/8 13/26/8 16/29/8
f  13/30/9 10/24/9 16/22/9
f  10/24/9 13/30/9 11/31/9
f  9/32/10 16/33/10 10/34/10
f  16/33/10 9/32/10 15/35/10
f  12/36/2 15/33/2 9/34/2
f  15/33/2 12/36/2 14/37/2
f  9/15/6 17/38/6 12/21/6
f  9/15/6 18/39/6 17/38/6
f  9/15/6 5/17/6 18/39/6
f  18/39/6 5/17/6 19/40/6
f  5/17/6 12/21/6 19/40/6
f  6/1/6 12/21/6 5/17/6
f  7/19/6 12/21/6 6/1/6
f  19/40/6 12/21/6 20/41/6
f  20/41/6 12/21/6 17/38/6
f  17/10/2 21/42/2 20/8/2
f  21/42/2 17/10/2 22/43/2
f  17/44/5 23/45/5 22/46/5
f  23/45/5 17/44/5 18/47/5
f  19/11/4 23/43/4 18/10/4
f  23/43/4 19/11/4 24/48/4
f  19/49/3 21/50/3 24/51/3
f  21/50/3 19/49/3 20/52/3
f  21/41/1 23/51/1 24/40/1
f  23/51/1 21/41/1 22/50/1

