# File produced by Open Asset Import Library (http://www.assimp.sf.net)
# (assimp v4.1.908865877)

mtllib naturePack_107.mtl

# 26 vertex positions
v  -1.303403973579407 1.142330020249068e-15 -1.299999952316284
v  0 2.480839967727661 1.299999952316284
v  -1.303403973579407 1.009330002058328e-17 1.299999952316284
v  0 2.480839967727661 -1.299999952316284
v  -0.75 1.166079977057131e-15 -1.299999952316284
v  0 2.005029916763306 -1.299999952316284
v  -0.75 3.383959820879729e-17 -1.5
v  0 2.005029916763306 -1.5
v  0 2.855030059814453 -1.5
v  -1.5 3.383959820879729e-17 -1.5
v  -1.5 3.383959820879729e-17 1.5
v  1.5 3.383959820879729e-17 1.5
v  1.303400039672852 0 1.299999952316284
v  1.303400039672852 1.132240057902256e-15 -1.299999952316284
v  0.75 1.166079977057131e-15 -1.299999952316284
v  0.75 3.383959820879729e-17 -1.5
v  1.5 3.383959820879729e-17 -1.5
v  0 2.855030059814453 1.5
v  -0.3261799812316895 2.234189987182617 0.7953789830207825
v  -0.2772400379180908 2.327340126037598 0.2046799659729004
v  -0.5336650013923645 1.839280009269714 0.106469988822937
v  -0.5333709716796875 1.839839935302734 -0.2867200374603271
v  -0.6045519709587097 1.704349994659424 -0.7522001266479492
v  -0.8210520148277283 1.292279958724976 -0.5991599559783936
v  -0.7498700022697449 1.427760004997253 -0.1336699724197388
v  -0.5826029777526855 1.746129989624023 0.6971740126609802

# 62 UV coordinates
vt 110.2360000610352 3.599900007247925 0
vt 7.874020099639893 113.9300003051758 0
vt 7.874020099639893 3.599900007247925 0
vt 110.2360000610352 113.9300003051758 0
vt 29.5275993347168 3.454740020534391e-13 0
vt 59.05509948730469 97.67070007324219 0
vt 7.739990234375 3.445389860998876e-13 0
vt 59.05509948730469 78.93810272216797 0
vt 118.1100006103516 10.34500026702881 0
vt 110.2360000610352 94.62490081787109 0
vt 110.2360000610352 10.34500026702881 0
vt 118.1100006103516 94.62490081787109 0
vt -29.5275993347168 7.598330059761793e-13 0
vt -59.05509948730469 112.4029998779297 0
vt -59.05509948730469 78.93810272216797 0
vt -8.951720319324251e-15 7.598330059761793e-13 0
vt -7.739990234375 110.2360000610352 0
vt 2.020870031328344e-33 118.1100006103516 0
vt -29.5275993347168 118.1100006103516 0
vt 2.020870031328344e-33 2.41470989941395e-31 0
vt -7.739990234375 7.874020099639893 0
vt -118.1100006103516 2.739429869478319e-31 0
vt -110.370002746582 7.874020099639893 0
vt -59.05509948730469 97.67070007324219 0
vt -110.370002746582 0 0
vt -7.739990234375 3.973750251716327e-16 0
vt -110.2360000610352 58.99689865112305 0
vt -7.874020099639893 -51.33359909057617 0
vt -7.874020099639893 58.99689865112305 0
vt -110.2360000610352 -51.33359909057617 0
vt 88.58270263671875 3.454740020534391e-13 0
vt 110.370002746582 3.441420054744321e-13 0
vt -110.2360000610352 53.24480056762695 0
vt -118.1100006103516 -31.03499984741211 0
vt -110.2360000610352 -31.03499984741211 0
vt -118.1100006103516 53.24480056762695 0
vt -118.1100006103516 7.598330059761793e-13 0
vt -88.58270263671875 7.598330059761793e-13 0
vt -2.005510168335113e-15 72.03839874267578 0
vt 118.1100006103516 -54.93349838256836 0
vt 118.1100006103516 72.03839874267578 0
vt -4.011020336670227e-15 -54.93349838256836 0
vt 59.05509948730469 112.4029998779297 0
vt 0 1.332270064769911e-15 0
vt 118.1100006103516 1.332270064769911e-15 0
vt 1.587929955712206e-14 126.9720001220703 0
vt -27.74099922180176 99.36129760742188 0
vt 0 1.179399993669178e-15 0
vt -118.1100006103516 126.9720001220703 0
vt -50.99700164794922 103.5039978027344 0
vt -54.86330032348633 81.79830169677734 0
vt -70.34329986572266 81.82319641113281 0
vt -88.66950225830078 75.79779815673828 0
vt -118.1100006103516 1.595040119678048e-14 0
vt -82.64409637451172 57.47159957885742 0
vt -64.31790161132812 63.49689865112305 0
vt -31.6072998046875 77.65570068359375 0
vt -118.1100006103516 118.1100006103516 0
vt -110.370002746582 110.2360000610352 0
vt -88.58270263671875 110.2360000610352 0
vt -88.58270263671875 118.1100006103516 0
vt -29.5275993347168 110.2360000610352 0

# 13 vertex normals
vn 0.8852559924125671 -0.4651040136814117 -3.758540090944895e-16
vn 2.615360073133258e-16 2.71749006489682e-15 1
vn 0.9366179704666138 -0.3503510057926178 -4.232550369079801e-15
vn -7.579119786622451e-17 -6.421979765867556e-15 -1
vn -1.516870055422058e-18 -1 -1.812480041743568e-16
vn 0 0 -1
vn -0.8852559924125671 -0.4651040136814117 -2.714499985653453e-16
vn -0.9366179704666138 -0.3503510057926178 5.511449840755285e-15
vn 0.8852559924125671 0.4651040136814117 -3.0063300336811e-17
vn -3.277319985822607e-18 3.043399967396542e-17 1
vn -0.8852559924125671 0.4651040136814117 2.380360046340413e-16
vn -0.8852559924125671 0.4651040136814117 1.517879997455052e-16
vn -0.8852559924125671 0.4651040136814117 -3.469450260676064e-18

# Mesh 'Mesh1 Tent Model' with 37 faces
g Mesh1 Tent Model
usemtl Green_Roof
f  1/1/1 2/2/1 3/3/1
f  2/2/1 1/1/1 4/4/1
f  5/5/2 4/6/2 1/7/2
f  4/6/2 5/5/2 6/8/2
f  7/9/3 6/10/3 5/11/3
f  6/10/3 7/9/3 8/12/3
f  7/13/4 9/14/4 8/15/4
f  9/14/4 7/13/4 10/16/4
f  1/17/5 10/18/5 7/19/5
f  10/18/5 1/17/5 11/20/5
f  3/21/5 11/20/5 1/17/5
f  11/20/5 3/21/5 12/22/5
f  12/22/5 3/21/5 13/23/5
f  2/24/6 13/25/6 3/26/6
f  4/27/7 13/28/7 2/29/7
f  13/28/7 4/27/7 14/30/7
f  4/6/2 15/31/2 14/32/2
f  15/31/2 4/6/2 6/8/2
f  6/33/8 16/34/8 15/35/8
f  16/34/8 6/33/8 8/36/8
f  8/15/4 17/37/4 16/38/4
f  17/37/4 8/15/4 9/14/4
f  18/39/9 17/40/9 9/41/9
f  17/40/9 18/39/9 12/42/9
f  18/43/10 11/44/10 12/45/10
f  18/46/11 19/47/11 11/48/11
f  19/47/11 18/46/11 9/49/11
f  19/47/11 9/49/11 20/50/11
f  20/50/11 9/49/11 21/51/11
f  21/51/11 9/49/11 22/52/11
f  22/52/11 9/49/11 23/53/11
f  23/53/11 9/49/11 10/54/11
f  10/54/11 24/55/11 23/53/11
f  10/54/11 25/56/11 24/55/11
f  10/54/11 26/57/11 25/56/11
f  11/48/11 26/57/11 10/54/11
f  26/57/11 11/48/11 19/47/11

# Mesh 'Leafs' with 2 faces
g Leafs
usemtl Leafs
f  20/50/12 26/57/12 19/47/12
f  26/57/12 20/50/12 21/51/12

# Mesh 'Green_Roof' with 2 faces
g Green_Roof
usemtl Green_Roof
f  25/56/11 26/57/11 21/51/11
f  21/51/11 22/52/11 25/56/11

# Mesh 'Leafs' with 2 faces
g Leafs
usemtl Leafs
f  22/52/13 24/55/13 25/56/13
f  24/55/13 22/52/13 23/53/13

# Mesh 'Green_Roof' with 5 faces
g Green_Roof
usemtl Green_Roof
f  12/22/5 13/23/5 17/58/5
f  14/59/5 17/58/5 13/23/5
f  15/60/5 17/58/5 14/59/5
f  17/58/5 15/60/5 16/61/5
f  1/17/5 7/19/5 5/62/5

