# File produced by Open Asset Import Library (http://www.assimp.sf.net)
# (assimp v4.1.908865877)

mtllib naturePack_034.mtl

# 27 vertex positions
v  1.966953277587891e-06 0 -0.6800000071525574
v  -0.5888950228691101 0 0.3400000035762787
v  -0.5888950228691101 0 -0.3399999737739563
v  1.966953277587891e-06 0 0.6800000071525574
v  0.5888950228691101 0 -0.3399999737739563
v  1.966953277587891e-06 1.059999942779541 -0.5848000645637512
v  0.5064550042152405 1.059999942779541 -0.2924000024795532
v  0.5064550042152405 1.059999942779541 0
v  -0.04884999990463257 1.059999942779541 -0.1674460172653198
v  -0.5064494013786316 1.059999942779541 -0.2924000024795532
v  -0.5064494013786316 1.059999942779541 0
v  -0.5064494013786316 1.059999942779541 0.2924000024795532
v  1.966953277587891e-06 1.059999942779541 0.5848000049591064
v  0.5064550042152405 1.059999942779541 0.2924000024795532
v  0.5888950228691101 0 0.3400000035762787
v  0.4355549216270447 1.480000019073486 0.2806790173053741
v  0.4355549216270447 1.480000019073486 0.02921497821807861
v  -0.04201000928878784 1.480000019073486 -0.1147890090942383
v  -0.4355460405349731 1.480000019073486 0.02921497821807861
v  -0.4355460405349731 1.480000019073486 0.2806790173053741
v  1.966953277587891e-06 1.480000019073486 0.5321429967880249
v  0.3818789720535278 2.170000076293945 0.268438994884491
v  0.02037400007247925 2.170000076293945 0.477154016494751
v  0.3818789720535278 2.170000076293945 0.05972301959991455
v  -0.01449704170227051 2.170000076293945 -0.05979901552200317
v  -0.1422120332717896 2.170000076293945 0.3832850158214569
v  -0.1958840191364288 1.480000019073486 0.419048011302948

# 92 UV coordinates
vt -23.18490028381348 53.54330062866211 0
vt 0 13.3858003616333 0
vt 0 40.15750122070312 0
vt -23.18490028381348 0 0
vt -46.36989974975586 40.15750122070312 0
vt 4.818900108337402 37.36370086669922 0
vt -20.07869911193848 -4.494669914245605 0
vt 6.692910194396973 -4.494669914245605 0
vt -18.2047004699707 37.36370086669922 0
vt 23.18490028381348 49.7952995300293 0
vt 43.12400054931641 26.77169990539551 0
vt 43.12400054931641 38.28350067138672 0
vt 21.26160049438477 33.36399841308594 0
vt 3.245889902114868 38.28350067138672 0
vt 3.245889902114868 26.77169990539551 0
vt -40.15750122070312 -3.812319959771524e-15 0
vt -26.77169990539551 41.85829925537109 0
vt -38.28350067138672 41.85829925537109 0
vt -15.25979995727539 41.85829925537109 0
vt -13.3858003616333 -1.27077007296421e-15 0
vt -6.692910194396973 0.898934006690979 0
vt 18.2047004699707 42.75730133056641 0
vt -4.818900108337402 42.75730133056641 0
vt 20.07869911193848 0.898934006690979 0
vt 20.07869911193848 -0.898934006690979 0
vt 44.97639846801758 40.95940017700195 0
vt 21.95280075073242 40.95940017700195 0
vt 46.85039901733398 -0.898934006690979 0
vt -46.36989974975586 13.3858003616333 0
vt 40.15750122070312 -3.595740079879761 0
vt 15.25979995727539 38.26259994506836 0
vt 13.3858003616333 -3.595740079879761 0
vt 26.77169990539551 38.26259994506836 0
vt 38.28350067138672 38.26259994506836 0
vt 26.77169990539551 33.97150039672852 0
vt 15.72130012512207 50.74089813232422 0
vt 15.25979995727539 33.97150039672852 0
vt 25.62150001525879 50.74089813232422 0
vt -33.55879974365234 37.09429931640625 0
vt -11.58040046691895 53.73929977416992 0
vt -31.21820068359375 53.73929977416992 0
vt -10.72410011291504 37.09429931640625 0
vt -31.43199920654297 38.47750091552734 0
vt -14.47420024871826 55.13819885253906 0
vt -30.97249984741211 55.13819885253906 0
vt -12.2480001449585 38.47750091552734 0
vt -26.77169990539551 41.69029998779297 0
vt -15.72130012512207 58.45970153808594 0
vt -25.62150001525879 58.45970153808594 0
vt -15.25979995727539 41.69029998779297 0
vt -4.818900108337402 43.0900993347168 0
vt 17.16819953918457 59.72280120849609 0
vt -2.632149934768677 59.72280120849609 0
vt 18.2047004699707 43.0900993347168 0
vt 21.95280075073242 40.58750152587891 0
vt 42.78960037231445 57.22010040283203 0
vt 22.98929977416992 57.22010040283203 0
vt 44.97639846801758 40.58750152587891 0
vt 41.20059967041016 85.03250122070312 0
vt 22.98929977416992 57.82720184326172 0
vt 42.78960037231445 57.82720184326172 0
vt 24.76630020141602 85.03250122070312 0
vt 38.21939849853516 24.4202995300293 0
vt 23.98690032958984 7.986080169677734 0
vt 38.21939849853516 16.20319938659668 0
vt 22.61409950256348 29.12599945068359 0
vt 17.58589935302734 11.68169975280762 0
vt -36.03010177612305 58.88639831542969 0
vt -16.09539985656738 86.10130310058594 0
vt -34.24990081787109 86.10130310058594 0
vt -14.15729999542236 58.88639831542969 0
vt 6.037360191345215 25.62150001525879 0
vt 15.472900390625 10.27369976043701 0
vt 21.53089904785156 31.2908992767334 0
vt 6.037360191345215 15.72130012512207 0
vt 8.263030052185059 59.72280120849609 0
vt 16.78030014038086 86.7135009765625 0
vt 8.263030052185059 59.45299911499023 0
vt 17.16819953918457 59.45299911499023 0
vt 9.388999938964844 86.7135009765625 0
vt -13.24250030517578 83.029296875 0
vt -31.21820068359375 55.80699920654297 0
vt -11.58040046691895 55.80699920654297 0
vt -29.54190063476562 83.029296875 0
vt 16.20319938659668 82.21179962158203 0
vt 25.62150001525879 54.96440124511719 0
vt 24.4202995300293 82.21179962158203 0
vt 15.72130012512207 54.96440124511719 0
vt -21.95280075073242 39.1614990234375 0
vt -46.85039901733398 -2.696799993515015 0
vt -20.07869911193848 -2.696799993515015 0
vt -44.97639846801758 39.1614990234375 0

# 25 vertex normals
vn 0 -1 0
vn 0.4984939992427826 0.07754469662904739 -0.8634179830551147
vn 0 1 0
vn -0.9969890117645264 0.07754469662904739 -1.220569924191355e-15
vn -0.9925150275230408 0.1221259981393814 -6.180169964755701e-16
vn -0.4984939992427826 0.07754469662904739 0.8634179830551147
vn -0.497844010591507 0.09275460243225098 0.8622919917106628
vn 0.4984939992427826 0.07754469662904739 0.8634179830551147
vn 0.497844010591507 0.09275460243225098 0.8622919917106628
vn 0.9969890117645264 0.07754469662904739 -1.139520082745141e-18
vn 0.9925150275230408 0.1221259981393814 -4.130789845808642e-18
vn 0.9925140142440796 0.122129000723362 -1.006199950620428e-17
vn 0.2867980003356934 0.1145749986171722 -0.9511150121688843
vn 0.287537008523941 0.08964259922504425 -0.9535650014877319
vn -0.3410539925098419 0.122408002614975 -0.9320399761199951
vn -0.9860479831695557 0.1664620041847229 -1.422759918014068e-17
vn -0.4977039992809296 0.09572199732065201 0.8620489835739136
vn -0.4970790147781372 0.1079429984092712 0.8609650135040283
vn 0.4983530044555664 0.08108890056610107 0.8631730079650879
vn 0.4992659986019135 0.05417599901556969 0.8647540211677551
vn -0.9591320157051086 0.06027739867568016 -0.2764630019664764
vn -0.4982540011405945 0.08348669856786728 0.8630020022392273
vn 0.288096010684967 0.06465370208024979 -0.9554169774055481
vn 0.9969879984855652 0.07755120098590851 -1.298999967177967e-17
vn -0.4984939992427826 0.07754469662904739 -0.8634179830551147

# Mesh 'Mesh1 Tall_Rock_2 Model' with 5 faces
g Mesh1 Tall_Rock_2 Model
usemtl Wood
f  1/1/1 2/2/1 3/3/1
f  2/2/1 1/1/1 4/4/1
f  4/4/1 1/1/1 5/5/1
f  6/6/2 5/7/2 1/8/2
f  5/7/2 6/6/2 7/9/2

# Mesh 'Green_leafs' with 4 faces
g Green_leafs
usemtl Green_leafs
f  6/10/3 8/11/3 7/12/3
f  6/10/3 9/13/3 8/11/3
f  10/14/3 9/13/3 6/10/3
f  9/13/3 10/14/3 11/15/3

# Mesh 'Wood' with 25 faces
g Wood
usemtl Wood
f  3/16/4 11/17/5 10/18/4
f  3/16/4 12/19/5 11/17/5
f  12/19/5 3/16/4 2/20/4
f  2/21/6 13/22/7 12/23/7
f  13/22/7 2/21/6 4/24/6
f  4/25/8 14/26/9 13/27/9
f  14/26/9 4/25/8 15/28/8
f  4/4/1 5/5/1 15/29/1
f  5/30/10 14/31/11 15/32/10
f  14/31/11 5/30/10 8/33/11
f  8/33/11 5/30/10 7/34/10
f  8/35/11 16/36/12 14/37/11
f  16/36/12 8/35/11 17/38/12
f  8/39/13 18/40/14 17/41/14
f  18/40/14 8/39/13 9/42/13
f  9/43/15 19/44/15 18/45/15
f  19/44/15 9/43/15 11/46/15
f  11/47/5 20/48/16 19/49/16
f  20/48/16 11/47/5 12/50/5
f  12/51/7 21/52/17 20/53/18
f  21/52/17 12/51/7 13/54/7
f  13/55/9 16/56/19 21/57/19
f  16/56/19 13/55/9 14/58/9
f  22/59/20 21/60/19 16/61/19
f  21/60/19 22/59/20 23/62/20

# Mesh 'Green_leafs' with 3 faces
g Green_leafs
usemtl Green_leafs
f  24/63/3 23/64/3 22/65/3
f  25/66/3 23/64/3 24/63/3
f  23/64/3 25/66/3 26/67/3

# Mesh 'Wood' with 2 faces
g Wood
usemtl Wood
f  18/68/21 26/69/21 25/70/21
f  26/69/21 18/68/21 27/71/21

# Mesh 'Green_leafs' with 2 faces
g Green_leafs
usemtl Green_leafs
f  19/72/3 27/73/3 18/74/3
f  27/73/3 19/72/3 20/75/3

# Mesh 'Wood' with 9 faces
g Wood
usemtl Wood
f  20/53/18 21/52/17 27/76/17
f  23/77/22 27/78/17 21/79/17
f  27/78/17 23/77/22 26/80/22
f  25/81/23 17/82/14 18/83/14
f  17/82/14 25/81/23 24/84/23
f  22/85/24 17/86/12 24/87/24
f  17/86/12 22/85/24 16/88/12
f  10/89/25 1/90/25 3/91/25
f  1/90/25 10/89/25 6/92/25

