# File produced by Open Asset Import Library (http://www.assimp.sf.net)
# (assimp v4.1.908865877)

mtllib naturePack_054.mtl

# 32 vertex positions
v  0.1509358584880829 1.450000047683716 0.1275575011968613
v  0.02103185653686523 0 0.2025575041770935
v  0.1509358584880829 0 0.1275575011968613
v  0.02103185653686523 1.450000047683716 0.2025575041770935
v  0.02103185653686523 1.450000047683716 -0.09744250774383545
v  -0.1088721379637718 1.450000047683716 -0.02244248986244202
v  -0.1088721379637718 1.450000047683716 0.1275575011968613
v  -0.1088721379637718 0 0.1275575011968613
v  -0.1088721379637718 0 -0.02244248986244202
v  -0.08093583583831787 0.6349999904632568 -0.03857149183750153
v  0.02103185653686523 0 -0.09744250774383545
v  -0.006904140114784241 0.6349999904632568 -0.08131349086761475
v  -0.05180713534355164 0.6349999904632568 -0.1590875089168549
v  -0.1258384436368942 0.6349999904632568 -0.1163454949855804
v  -0.1084358394145966 0.7250000238418579 -0.08620250225067139
v  -0.08093583583831787 0.7250000238418579 -0.03857149183750153
v  -0.006904140114784241 0.7250000238418579 -0.08131349086761475
v  0.1509358584880829 0 -0.02244248986244202
v  0.1509358584880829 1.450000047683716 -0.02244248986244202
v  0.02103185653686523 1.509999990463257 0.1665575057268143
v  -0.07769513875246048 1.509999990463257 0.1095575019717216
v  -0.07769513875246048 1.509999990463257 -0.004442498087882996
v  0.02103185653686523 1.509999990463257 -0.06144249439239502
v  0.1197588741779327 1.509999990463257 0.1095575019717216
v  0.1197588741779327 1.509999990463257 -0.004442498087882996
v  -0.03440414369106293 0.7250000238418579 -0.1289444863796234
v  -0.03440414369106293 0.9750000238418579 -0.1289444863796234
v  -0.07690414041280746 0.9750000238418579 -0.2025575041770935
v  -0.07690414041280746 0.6851950287818909 -0.2025575041770935
v  -0.1509358435869217 0.6851950287818909 -0.1598154902458191
v  -0.1509358435869217 0.9750000238418579 -0.1598154902458191
v  -0.1084358394145966 0.9750000238418579 -0.08620250225067139

# 103 UV coordinates
vt 12.72130012512207 57.08660125732422 0
vt 6.81581974029541 0 0
vt 12.72130012512207 0 0
vt 6.81581974029541 57.08660125732422 0
vt 7.870230197906494 11.81099987030029 0
vt 7.870230197906494 0 0
vt 12.98460006713867 2.952759981155396 0
vt 2.75590991973877 8.858269691467285 0
vt 2.75590991973877 2.952759981155396 0
vt -8.858269691467285 57.08660125732422 0
vt -2.952759981155396 0 0
vt -2.952759981155396 57.08660125732422 0
vt -8.858269691467285 0 0
vt -8.085820198059082 25 0
vt -6.81581974029541 3.701399976242059e-17 0
vt -6.81581974029541 57.08660125732422 0
vt -12.72130012512207 3.701399976242059e-17 0
vt -11.4512996673584 25 0
vt -3.855760097503662 9.493269920349121 0
vt -5.002560138702393 14.23799991607666 0
vt -6.770370006561279 11.17599964141846 0
vt -2.087939977645874 12.55519962310791 0
vt -6.293529987335205 25 0
vt -8.458889961242676 28.54330062866211 0
vt -9.829170227050781 25 0
vt -6.293529987335205 28.54330062866211 0
vt -8.085820198059082 28.54330062866211 0
vt -11.4512996673584 28.54330062866211 0
vt -12.72130012512207 57.08660125732422 0
vt -0.9103059768676758 57.08660125732422 0
vt -6.81581974029541 -9.129039864098581e-18 0
vt -0.9103059768676758 -9.129039864098581e-18 0
vt 12.98460006713867 8.858269691467285 0
vt 2.952759981155396 57.08660125732422 0
vt 8.858269691467285 0 0
vt 8.858269691467285 57.08660125732422 0
vt 2.952759981155396 0 0
vt -7.870230197906494 0 0
vt -12.98460006713867 8.858269691467285 0
vt -12.98460006713867 2.952759981155396 0
vt -7.870230197906494 11.81099987030029 0
vt -2.75590991973877 2.952759981155396 0
vt -2.75590991973877 8.858269691467285 0
vt 0.9103059768676758 0 0
vt 0.9103059768676758 57.08660125732422 0
vt 6.107160091400146 55.1327018737793 0
vt 0.9103059768676758 52.47060012817383 0
vt 6.81581974029541 52.47060012817383 0
vt 1.618969917297363 55.1327018737793 0
vt 7.870230197906494 1.417320013046265 0
vt 3.98334002494812 8.149609565734863 0
vt 3.98334002494812 3.661419868469238 0
vt 7.870230197906494 10.39369964599609 0
vt 11.75710010528564 3.661419868469238 0
vt 6.81581974029541 48.84180068969727 0
vt 12.01270008087158 51.50379943847656 0
vt 7.524479866027832 51.50379943847656 0
vt 12.72130012512207 48.84180068969727 0
vt 8.858269691467285 44.6692008972168 0
vt 3.661419868469238 47.331298828125 0
vt 2.952759981155396 44.6692008972168 0
vt 8.149609565734863 47.331298828125 0
vt -6.81581974029541 44.1254997253418 0
vt -1.618969917297363 46.78760147094727 0
vt -6.107160091400146 46.78760147094727 0
vt -0.9103059768676758 44.1254997253418 0
vt -12.72130012512207 47.75429916381836 0
vt -7.524479866027832 50.41640090942383 0
vt -12.01270008087158 50.41640090942383 0
vt -6.81581974029541 47.75429916381836 0
vt -8.858269691467285 51.92689895629883 0
vt -3.661419868469238 54.5890007019043 0
vt -8.149609565734863 54.5890007019043 0
vt -2.952759981155396 51.92689895629883 0
vt 11.75710010528564 8.149609565734863 0
vt 9.829170227050781 25 0
vt 6.293529987335205 28.54330062866211 0
vt 6.293529987335205 25 0
vt 8.458889961242676 28.54330062866211 0
vt 8.458889961242676 38.38579940795898 0
vt 11.80529975891113 38.38579940795898 0
vt 11.80529975891113 26.97620010375977 0
vt -8.085820198059082 24.62789916992188 0
vt -11.4512996673584 27.42270088195801 0
vt -11.4512996673584 24.62789916992188 0
vt -8.085820198059082 27.42270088195801 0
vt -11.80529975891113 38.38579940795898 0
vt -11.80529975891113 26.97620010375977 0
vt -8.458889961242676 38.38579940795898 0
vt 8.085820198059082 28.54330062866211 0
vt 11.4512996673584 38.38579940795898 0
vt 8.085820198059082 38.38579940795898 0
vt 11.4512996673584 28.54330062866211 0
vt 3.855760097503662 9.493269920349121 0
vt 5.687699794769287 13.05130004882812 0
vt 2.773079872131348 11.36849975585938 0
vt 6.770370006561279 11.17599964141846 0
vt 4.014470100402832 15.94939994812012 0
vt 1.099849939346313 14.26659965515137 0
vt -11.4512996673584 26.97620010375977 0
vt -8.085820198059082 38.38579940795898 0
vt -11.4512996673584 38.38579940795898 0
vt -8.085820198059082 26.97620010375977 0

# 18 vertex normals
vn 0.5 0 0.8660249710083008
vn 0 1 0
vn -1 0 0
vn -0.5 -5.881270285273972e-18 -0.8660249710083008
vn 0 -1 0
vn -0.8660249710083008 -5.59592020142022e-15 0.5
vn 0.5 6.445349973982564e-19 -0.8660249710083008
vn 1 0 0
vn -0.5 0 0.8660249710083008
vn -0.4436779916286469 0.4610840082168579 0.7684730291366577
vn 0.4436779916286469 0.4610840082168579 0.7684730291366577
vn 0.8873569965362549 0.4610840082168579 6.78133005928629e-19
vn 0.4436779916286469 0.4610840082168579 -0.7684730291366577
vn -0.4436779916286469 0.4610840082168579 -0.7684730291366577
vn -0.8873569965362549 0.4610840082168579 -6.4842303579047e-18
vn 0.8660249710083008 -2.804789992061617e-16 -0.5
vn -0.3535529971122742 -0.7071070075035095 -0.6123719811439514
vn -0.5 -2.490279829542958e-15 -0.8660249710083008

# Mesh 'Mesh1 Group1 Model' with 64 faces
g Mesh1 Group1 Model
usemtl Green_leafs
f  1/1/1 2/2/1 3/3/1
f  2/2/1 1/1/1 4/4/1
f  5/5/2 4/6/2 1/7/2
f  6/8/2 4/6/2 5/5/2
f  4/6/2 6/8/2 7/9/2
f  6/10/3 8/11/3 7/12/3
f  8/11/3 6/10/3 9/13/3
f  10/14/4 9/15/4 6/16/4
f  9/15/4 10/14/4 11/17/4
f  11/17/4 10/14/4 12/18/4
f  10/19/5 13/20/5 12/21/5
f  13/20/5 10/19/5 14/22/5
f  10/23/6 15/24/6 14/25/6
f  15/24/6 10/23/6 16/26/6
f  10/14/4 6/16/4 16/27/4
f  16/27/4 6/16/4 17/28/4
f  5/29/4 17/28/4 6/16/4
f  5/29/4 12/18/4 17/28/4
f  12/18/4 5/29/4 11/17/4
f  5/30/7 18/31/7 11/32/7
f  18/31/7 5/30/7 19/16/7
f  5/5/2 1/7/2 19/33/2
f  1/34/8 18/35/8 19/36/8
f  18/35/8 1/34/8 3/37/8
f  2/38/5 18/39/5 3/40/5
f  2/38/5 11/41/5 18/39/5
f  8/42/5 11/41/5 2/38/5
f  11/41/5 8/42/5 9/43/5
f  4/4/9 8/44/9 2/2/9
f  8/44/9 4/4/9 7/45/9
f  20/46/10 7/47/10 4/48/10
f  7/47/10 20/46/10 21/49/10
f  20/50/2 22/51/2 21/52/2
f  22/51/2 20/50/2 23/53/2
f  23/53/2 20/50/2 24/54/2
f  4/55/11 24/56/11 20/57/11
f  24/56/11 4/55/11 1/58/11
f  19/59/12 24/60/12 1/61/12
f  24/60/12 19/59/12 25/62/12
f  19/63/13 23/64/13 25/65/13
f  23/64/13 19/63/13 5/66/13
f  5/67/14 22/68/14 23/69/14
f  22/68/14 5/67/14 6/70/14
f  6/71/15 21/72/15 22/73/15
f  21/72/15 6/71/15 7/74/15
f  23/53/2 24/54/2 25/75/2
f  13/76/16 17/77/16 12/78/16
f  17/77/16 13/76/16 26/79/16
f  26/79/16 13/76/16 27/80/16
f  27/80/16 13/76/16 28/81/16
f  28/81/16 13/76/16 29/82/16
f  14/83/17 29/84/17 13/85/17
f  29/84/17 14/83/17 30/86/17
f  14/25/6 31/87/6 30/88/6
f  15/24/6 31/87/6 14/25/6
f  31/87/6 15/24/6 32/89/6
f  15/90/1 27/91/1 32/92/1
f  27/91/1 15/90/1 26/93/1
f  16/94/2 26/95/2 15/96/2
f  26/95/2 16/94/2 17/97/2
f  28/98/2 32/96/2 27/95/2
f  32/96/2 28/98/2 31/99/2
f  29/100/18 31/101/18 28/102/18
f  31/101/18 29/100/18 30/103/18

