# File produced by Open Asset Import Library (http://www.assimp.sf.net)
# (assimp v4.1.908865877)

mtllib naturePack_078.mtl

# 57 vertex positions
v  0.3496645092964172 0.09000000357627869 0.1951615065336227
v  0.1951614618301392 0 0.3496645092964172
v  0.3496645092964172 0 0.1951615065336227
v  0.1951614618301392 0.09000000357627869 0.3496645092964172
v  0.2495024800300598 0.07477790117263794 0.0950005054473877
v  0.09499949216842651 0.06303760409355164 0.0950005054473877
v  0.09499949216842651 0.07477790117263794 0.2495035082101822
v  0.09499949216842651 0.107014998793602 0.0950005054473877
v  0.09499949216842651 0.1499999910593033 0.335000216960907
v  -5.066394805908203e-07 0.09000000357627869 5.066394805908203e-07
v  -0.0950005054473877 0.107014998793602 0.0950005054473877
v  -0.0950005054473877 0.1499999910593033 0.335000216960907
v  -0.0950005054473877 0.07477790117263794 0.2495035082101822
v  -0.0950005054473877 0 0.335000216960907
v  -0.0950005054473877 0 0.2495035082101822
v  -0.1951615065336227 0 0.3496645092964172
v  -0.1951615065336227 0.09000000357627869 0.3496645092964172
v  -0.0950005054473877 0.06303760409355164 0.0950005054473877
v  -0.2495035082101822 0.07477790117263794 0.0950005054473877
v  -0.3496645092964172 0.09000000357627869 0.1951615065336227
v  -0.2495035082101822 0 0.0950005054473877
v  -0.3496645092964172 0 0.1951615065336227
v  -0.1951615065336227 0 -0.3496645092964172
v  -0.2495035082101822 0 -0.09499949216842651
v  -0.3496645092964172 0 -0.1951614618301392
v  -0.3496645092964172 0.09000000357627869 -0.1951614618301392
v  -0.2495035082101822 0.07477790117263794 -0.09499949216842651
v  -0.335000216960907 0.1499999910593033 -0.09499949216842651
v  -0.335000216960907 0 -0.09499949216842651
v  -0.335000216960907 0 0.0950005054473877
v  -0.335000216960907 0.1499999910593033 0.0950005054473877
v  -0.0950005054473877 0.107014998793602 -0.09499949216842651
v  -0.0950005054473877 0.1499999910593033 -0.3349995017051697
v  0.09499949216842651 0.1499999910593033 -0.3349995017051697
v  0.09499949216842651 0.107014998793602 -0.09499949216842651
v  0.3349995017051697 0.1499999910593033 0.0950005054473877
v  0.2495024800300598 0 0.0950005054473877
v  0.3349995017051697 0 0.0950005054473877
v  0.3349995017051697 0 -0.09499949216842651
v  0.2495024800300598 0 -0.09499949216842651
v  0.1951614618301392 0 -0.3496645092964172
v  0.09499949216842651 0 0.2495035082101822
v  0.09499949216842651 0 -0.2495024800300598
v  0.09499949216842651 0 0.335000216960907
v  0.09499949216842651 0 -0.3349995017051697
v  -0.0950005054473877 0 -0.2495024800300598
v  -0.0950005054473877 0 -0.3349995017051697
v  -0.0950005054473877 0.07477790117263794 -0.2495024800300598
v  -0.0950005054473877 0.06303760409355164 -0.09499949216842651
v  -0.1951615065336227 0.09000000357627869 -0.3496645092964172
v  0.09499949216842651 0.07477790117263794 -0.2495024800300598
v  0.09499949216842651 0.06303760409355164 -0.09499949216842651
v  0.2495024800300598 0.07477790117263794 -0.09499949216842651
v  0.3349995017051697 0.1499999910593033 -0.09499949216842651
v  0.3496645092964172 0.09000000357627869 -0.1951614618301392
v  0.3496645092964172 0 -0.1951614618301392
v  0.1951614618301392 0.09000000357627869 -0.3496645092964172

# 126 UV coordinates
vt 23.76969909667969 4.07480001449585 0
vt 15.1673002243042 0.531495988368988 0
vt 23.76969909667969 0.531495988368988 0
vt 15.1673002243042 4.07480001449585 0
vt -23.76969909667969 9.907010078430176 0
vt -15.1673002243042 15.51589965820312 0
vt -23.76969909667969 15.51589965820312 0
vt -19.4685001373291 5.58105993270874 0
vt -15.1673002243042 9.907010078430176 0
vt 10.02620029449463 4.744679927825928 0
vt 3.94336986541748 3.475510120391846 0
vt 10.02620029449463 3.013289928436279 0
vt 0.577335000038147 6.437009811401367 0
vt -13.76630020141602 -12.83230018615723 0
vt -17.50650024414062 0.5665469765663147 0
vt -17.50650024414062 -9.03262996673584 0
vt -10.02620029449463 -9.03262996673584 0
vt -10.02620029449463 0.5665469765663147 0
vt -3.94336986541748 3.475510120391846 0
vt -0.577335000038147 6.437009811401367 0
vt -10.02620029449463 4.744679927825928 0
vt -0.577335000038147 0.531495988368988 0
vt -3.94336986541748 0.531495988368988 0
vt 9.87794017791748 3.475510120391846 0
vt 4.301179885864258 0.531495988368988 0
vt 9.87794017791748 0.531495988368988 0
vt 4.301179885864258 4.07480001449585 0
vt 3.942259851896779e-08 -13.77600002288818 0
vt -4.301179885864258 -3.841180086135864 0
vt -4.301179885864258 -9.450039863586426 0
vt 4.301179885864258 -9.450050354003906 0
vt 4.301179885864258 -3.841180086135864 0
vt -9.87794017791748 0.531495988368988 0
vt -4.301179885864258 4.07480001449585 0
vt -9.87794017791748 3.475510120391846 0
vt -4.301179885864258 0.531495988368988 0
vt -6.082789897918701 1.634959875818076e-11 0
vt 0 6.082789897918701 0
vt -3.94336986541748 10.02620029449463 0
vt -6.082789897918701 27.53260040283203 0
vt -3.943359851837158 17.50650024414062 0
vt -1.631409937696837e-11 21.44980049133301 0
vt -9.590559959411621 0.531495988368988 0
vt -15.1673002243042 4.07480001449585 0
vt -15.1673002243042 0.531495988368988 0
vt -9.590559959411621 3.475510120391846 0
vt -3.943359851837158 0.531495988368988 0
vt -3.943359851837158 3.475510120391846 0
vt -0.577335000038147 17.50650024414062 0
vt -0.577335000038147 10.02620029449463 0
vt 0.577335000038147 0.531495988368988 0
vt 3.94336986541748 0.531495988368988 0
vt -10.02620029449463 3.013289928436279 0
vt 10.02620029449463 -9.03262996673584 0
vt 17.50650024414062 0.5665469765663147 0
vt 10.02620029449463 0.5665469765663147 0
vt 17.50650024414062 -9.03262996673584 0
vt 13.76630020141602 -12.83230018615723 0
vt 13.76630020141602 14.26910018920898 0
vt 10.02620029449463 27.66790008544922 0
vt 10.02620029449463 18.06870079040527 0
vt 17.50650024414062 27.66790008544922 0
vt 17.50650024414062 18.06870079040527 0
vt -10.02620029449463 18.06870079040527 0
vt -17.50650024414062 18.06870079040527 0
vt -13.76630020141602 14.26910018920898 0
vt -10.02620029449463 27.66790008544922 0
vt 23.58930015563965 3.475510120391846 0
vt 26.95529937744141 6.437009811401367 0
vt 17.50650024414062 4.744679927825928 0
vt 23.58930015563965 0.531495988368988 0
vt 26.95529937744141 0.531495988368988 0
vt -23.58930015563965 10.02620029449463 0
vt -26.95529937744141 17.50650024414062 0
vt -26.95529937744141 10.02620029449463 0
vt -23.58930015563965 17.50650024414062 0
vt -21.44980049133301 27.53260040283203 0
vt -21.44980049133301 0 0
vt -17.50650024414062 3.94336986541748 0
vt -17.50650024414062 23.58930015563965 0
vt -17.50650024414062 0.577335000038147 0
vt -17.50650024414062 26.95529937744141 0
vt -10.02620029449463 0.577335000038147 0
vt -10.02620029449463 3.94336986541748 0
vt -10.02620029449463 23.58930015563965 0
vt -10.02620029449463 26.95529937744141 0
vt -23.58930015563965 3.475510120391846 0
vt -26.95529937744141 0.531495988368988 0
vt -23.58930015563965 0.531495988368988 0
vt -26.95529937744141 6.437009811401367 0
vt -17.50650024414062 3.013289928436279 0
vt -17.50650024414062 4.744679927825928 0
vt 23.76969909667969 15.51589965820312 0
vt 15.1673002243042 9.907010078430176 0
vt 19.4685001373291 5.58105993270874 0
vt 15.1673002243042 15.51589965820312 0
vt -23.76969909667969 0.531495988368988 0
vt -23.76969909667969 4.07480001449585 0
vt 9.590559959411621 3.475510120391846 0
vt 9.590559959411621 0.531495988368988 0
vt 23.76969909667969 9.907010078430176 0
vt -10.02620029449463 6.437009811401367 0
vt -17.50650024414062 0.531495988368988 0
vt -10.02620029449463 0.531495988368988 0
vt -17.50650024414062 6.437009811401367 0
vt 17.50650024414062 3.013289928436279 0
vt 29.0590991973877 0.531495988368988 0
vt 34.63579940795898 4.07480001449585 0
vt 29.0590991973877 3.475510120391846 0
vt 34.63579940795898 0.531495988368988 0
vt -27.53260040283203 21.44980049133301 0
vt -34.63579940795898 0.531495988368988 0
vt -29.0590991973877 3.475510120391846 0
vt -34.63579940795898 4.07480001449585 0
vt -29.0590991973877 0.531495988368988 0
vt -4.301179885864258 29.26409912109375 0
vt 4.301179885864258 29.26409912109375 0
vt -4.301179885864258 34.87290191650391 0
vt 3.938280102033787e-08 24.93810081481934 0
vt 4.301179885864258 34.87290191650391 0
vt 10.02620029449463 6.437009811401367 0
vt 17.50650024414062 0.531495988368988 0
vt 17.50650024414062 6.437009811401367 0
vt 10.02620029449463 0.531495988368988 0
vt -17.50650024414062 27.66790008544922 0
vt -27.53260040283203 6.082789897918701 0

# 38 vertex normals
vn 0.7071070075035095 0 0.7071070075035095
vn -0.07555259764194489 0.9942749738693237 -0.07555259764194489
vn 1 0 0
vn 8.111129798787648e-16 1 -4.018109896559627e-16
vn 7.233880009931235e-16 0.9843369722366333 -0.1762990057468414
vn -0.08884260058403015 0.9920759797096252 -0.08884260058403015
vn 0.08884260058403015 0.9920759797096252 -0.08884260058403015
vn -1 0 0
vn 0.7071070075035095 2.447930088004375e-15 0.7071070075035095
vn 0.07555259764194489 0.9942749738693237 -0.07555259764194489
vn -0.7071070075035095 0 -0.7071070075035095
vn 0 -1 0
vn -0.7071070075035095 0 0.7071070075035095
vn -0.7071070075035095 -3.114579788195994e-14 0.7071070075035095
vn 1.490079970523084e-08 2.710300025724052e-15 -1
vn -1.490079970523084e-08 -2.466690173720163e-15 1
vn 0.1762990057468414 0.9843369722366333 2.626989958898207e-09
vn 0.08884260058403015 0.9920759797096252 0.08884260058403015
vn 8.106710404385349e-16 1 -3.985610036466868e-16
vn 8.080600084390643e-16 1 -4.018109896559627e-16
vn 1.007429951647682e-16 0.9843369722366333 0.1762990057468414
vn -0.08884260058403015 0.9920759797096252 0.08884260058403015
vn 8.106710404385349e-16 1 -4.044970105410449e-16
vn -0.1762990057468414 0.9843369722366333 -2.626989958898207e-09
vn -1.490079970523084e-08 -8.009920478898192e-16 1
vn 0.07555259764194489 0.9942749738693237 0.07555259764194489
vn 0.7071070075035095 -1.85772007145642e-15 -0.7071070075035095
vn 0 0 -1
vn 1.490079970523084e-08 3.340130008379827e-15 -1
vn 0.7071070075035095 -1.238480012344574e-15 0.7071070075035095
vn 0.7071070075035095 0 -0.7071070075035095
vn -0.7071070075035095 9.946519858292958e-15 -0.7071070075035095
vn -0.07555259764194489 0.9942749738693237 0.07555259764194489
vn 1 0 1.490079970523084e-08
vn 0 0 1
vn -0.7071070075035095 -3.115540069448296e-15 0.7071070075035095
vn 0.7071070075035095 2.302789848997872e-14 -0.7071070075035095
vn -1 0 -1.490079970523084e-08

# Mesh 'Mesh1 Campfire Model' with 2 faces
g Mesh1 Campfire Model
usemtl Light_Wood
f  1/1/1 2/2/1 3/3/1
f  2/2/1 1/1/1 4/4/1

# Mesh 'Wood' with 19 faces
g Wood
usemtl Wood
f  5/5/2 4/6/2 1/7/2
f  6/8/2 4/6/2 5/5/2
f  4/6/2 6/8/2 7/9/2
f  8/10/3 7/11/3 6/12/3
f  7/11/3 8/10/3 9/13/3
f  10/14/4 9/15/5 8/16/6
f  11/17/7 9/15/5 10/14/4
f  9/15/5 11/17/7 12/18/5
f  13/19/8 12/20/8 11/21/8
f  12/20/8 13/19/8 14/22/8
f  14/22/8 13/19/8 15/23/8
f  13/24/9 16/25/9 15/26/9
f  16/25/9 13/24/9 17/27/9
f  18/28/10 17/29/10 13/30/10
f  19/31/10 17/29/10 18/28/10
f  17/29/10 19/31/10 20/32/10
f  21/33/11 20/34/11 19/35/11
f  20/34/11 21/33/11 22/36/11
f  16/37/12 22/38/12 21/39/12

# Mesh 'Light_Wood' with 2 faces
g Light_Wood
usemtl Light_Wood
f  16/25/13 20/34/13 22/36/13
f  20/34/13 16/25/13 17/27/13

# Mesh 'Wood' with 44 faces
g Wood
usemtl Wood
f  21/39/12 23/40/12 16/37/12
f  24/41/12 23/40/12 21/39/12
f  23/40/12 24/41/12 25/42/12
f  24/43/14 26/44/14 25/45/14
f  26/44/14 24/43/14 27/46/14
f  24/47/15 28/20/15 27/48/15
f  28/20/15 24/47/15 29/22/15
f  21/39/12 29/49/12 24/41/12
f  29/49/12 21/39/12 30/50/12
f  19/11/16 30/51/16 21/52/16
f  30/51/16 19/11/16 31/13/16
f  31/13/16 19/11/16 11/10/16
f  11/10/16 19/11/16 18/12/16
f  13/19/8 11/21/8 18/53/8
f  11/54/7 28/55/17 31/56/17
f  28/55/17 11/54/7 32/57/18
f  32/57/18 11/54/7 10/58/19
f  10/59/20 33/60/21 32/61/18
f  33/60/21 10/59/20 34/62/21
f  34/62/21 10/59/20 35/63/22
f  8/64/6 35/65/22 10/66/23
f  35/65/22 8/64/6 36/67/24
f  5/68/25 36/69/25 8/70/25
f  37/71/25 36/69/25 5/68/25
f  36/69/25 37/71/25 38/72/25
f  37/73/12 39/74/12 38/75/12
f  39/74/12 37/73/12 40/76/12
f  37/73/12 41/77/12 40/76/12
f  2/78/12 41/77/12 37/73/12
f  42/79/12 41/77/12 2/78/12
f  41/77/12 42/79/12 43/80/12
f  44/81/12 43/80/12 42/79/12
f  44/81/12 45/82/12 43/80/12
f  14/83/12 45/82/12 44/81/12
f  15/84/12 45/82/12 14/83/12
f  46/85/12 45/82/12 15/84/12
f  45/82/12 46/85/12 47/86/12
f  48/87/8 47/88/8 46/89/8
f  47/88/8 48/87/8 33/90/8
f  49/91/8 33/90/8 48/87/8
f  33/90/8 49/91/8 32/92/8
f  32/21/15 49/53/15 27/48/15
f  50/93/26 27/94/26 49/95/26
f  27/94/26 50/93/26 26/96/26

# Mesh 'Light_Wood' with 2 faces
g Light_Wood
usemtl Light_Wood
f  23/97/11 26/44/11 50/98/11
f  26/44/11 23/97/11 25/45/11

# Mesh 'Wood' with 6 faces
g Wood
usemtl Wood
f  48/99/27 23/2/27 50/4/27
f  23/2/27 48/99/27 46/100/27
f  15/84/12 23/40/12 46/85/12
f  16/37/12 23/40/12 15/84/12
f  50/93/26 49/95/26 48/101/26
f  27/48/15 28/20/15 32/21/15

# Mesh 'Light_Wood' with 2 faces
g Light_Wood
usemtl Light_Wood
f  33/102/28 45/103/28 47/104/28
f  45/103/28 33/102/28 34/105/28

# Mesh 'Wood' with 11 faces
g Wood
usemtl Wood
f  34/69/3 43/71/3 45/72/3
f  34/69/3 51/68/3 43/71/3
f  34/69/3 52/106/3 51/68/3
f  52/106/3 34/69/3 35/70/3
f  35/92/29 53/87/29 52/91/29
f  54/90/29 53/87/29 35/92/29
f  39/88/29 53/87/29 54/90/29
f  53/87/29 39/88/29 40/89/29
f  40/107/30 55/108/30 53/109/30
f  55/108/30 40/107/30 56/110/30
f  56/111/12 40/76/12 41/77/12

# Mesh 'Light_Wood' with 2 faces
g Light_Wood
usemtl Light_Wood
f  41/25/31 55/34/31 56/36/31
f  55/34/31 41/25/31 57/27/31

# Mesh 'Wood' with 5 faces
g Wood
usemtl Wood
f  41/112/32 51/113/32 57/114/32
f  51/113/32 41/112/32 43/115/32
f  51/116/33 53/117/33 57/118/33
f  53/117/33 51/116/33 52/119/33
f  57/118/33 53/117/33 55/120/33

# Mesh 'Light_Wood' with 2 faces
g Light_Wood
usemtl Light_Wood
f  36/121/34 39/122/34 54/123/34
f  39/122/34 36/121/34 38/124/34

# Mesh 'Wood' with 1 faces
g Wood
usemtl Wood
f  35/65/22 36/67/24 54/125/24

# Mesh 'Light_Wood' with 2 faces
g Light_Wood
usemtl Light_Wood
f  9/123/35 14/124/35 44/122/35
f  14/124/35 9/123/35 12/121/35

# Mesh 'Wood' with 8 faces
g Wood
usemtl Wood
f  42/52/3 9/13/3 44/51/3
f  9/13/3 42/52/3 7/11/3
f  2/2/36 7/99/36 42/100/36
f  7/99/36 2/2/36 4/4/36
f  2/78/12 37/73/12 3/126/12
f  37/43/37 1/44/37 3/45/37
f  1/44/37 37/43/37 5/46/37
f  8/70/25 6/106/25 5/68/25

# Mesh 'Light_Wood' with 2 faces
g Light_Wood
usemtl Light_Wood
f  28/105/38 30/104/38 31/102/38
f  30/104/38 28/105/38 29/103/38

