# File produced by Open Asset Import Library (http://www.assimp.sf.net)
# (assimp v4.1.908865877)

mtllib naturePack_129.mtl

# 33 vertex positions
v  -1.966953277587891e-06 2.816999912261963 -0.9099999666213989
v  0.7880849838256836 1.533499956130981 -0.4550000429153442
v  -1.966953277587891e-06 1.533499956130981 -0.9099999666213989
v  0.7880849838256836 2.816999912261963 -0.4550000429153442
v  -1.966953277587891e-06 4.508500099182129 -0.5277999639511108
v  0.4570850133895874 4.508500099182129 -0.2639000415802002
v  -1.966953277587891e-06 4.933499813079834 -5.960464477539062e-08
v  -0.4570899903774261 4.508500099182129 -0.2639000415802002
v  -0.7880849838256836 2.816999912261963 -0.4550000429153442
v  -0.7880849838256836 1.533499956130981 -0.4550000429153442
v  -0.4413279891014099 1.269999980926514 -0.2548000812530518
v  -1.966953277587891e-06 1.269999980926514 -0.509600043296814
v  0.4413249492645264 1.269999980926514 -0.2548000812530518
v  0.4413249492645264 1.269999980926514 0.2547999620437622
v  0.7880849838256836 1.533499956130981 0.4549999535083771
v  0.7880849838256836 2.816999912261963 0.4549999535083771
v  0.4570850133895874 4.508500099182129 0.2638999819755554
v  -1.966953277587891e-06 4.508500099182129 0.5277999639511108
v  -0.4570899903774261 4.508500099182129 0.2638999819755554
v  -0.7880849838256836 2.816999912261963 0.4549999535083771
v  -0.7880849838256836 1.533499956130981 0.4549999535083771
v  -0.4413279891014099 1.269999980926514 0.2547999620437622
v  -0.1142579913139343 1.269999980926514 -0.1142600774765015
v  0.1142539978027344 1.269999980926514 -0.1142600774765015
v  0.1142539978027344 1.269999980926514 0.114255964756012
v  -1.966953277587891e-06 1.269999980926514 0.5095999240875244
v  -0.1142579913139343 1.269999980926514 0.114255964756012
v  -0.1799319982528687 0 -0.1799300909042358
v  -0.1799319982528687 0 0.1799299716949463
v  0.1799290180206299 0 -0.1799300909042358
v  0.1799290180206299 0 0.1799299716949463
v  -1.966953277587891e-06 1.533499956130981 0.9099999666213989
v  -1.966953277587891e-06 2.816999912261963 0.9099999666213989

# 116 UV coordinates
vt 8.956689834594727 110.9059982299805 0
vt -26.8701000213623 60.37400054931641 0
vt 8.956689834594727 60.37400054931641 0
vt -26.8701000213623 110.9059982299805 0
vt 1.433069944381714 161.8029937744141 0
vt -26.8701000213623 93.94529724121094 0
vt 8.956689834594727 93.94529724121094 0
vt -19.34650039672852 161.8029937744141 0
vt -19.34650039672852 73.60310363769531 0
vt 1.433069944381714 73.60310363769531 0
vt -8.956689834594727 98.17569732666016 0
vt -55.17319869995117 96.32550048828125 0
vt -34.39369964599609 96.32550048828125 0
vt -44.78350067138672 120.8980026245117 0
vt -62.6968994140625 99.90370178222656 0
vt -34.39369964599609 167.7610015869141 0
vt -55.17319869995117 167.7610015869141 0
vt -26.8701000213623 99.90370178222656 0
vt -62.6968994140625 60.37400054931641 0
vt -62.6968994140625 110.9059982299805 0
vt -62.6968994140625 73.58370208740234 0
vt -34.75199890136719 56.4375 0
vt -26.8701000213623 73.58370208740234 0
vt -54.81499862670898 56.4375 0
vt 8.956689834594727 98.28730010986328 0
vt -18.98819923400879 81.14109802246094 0
vt 1.07480001449585 81.14109802246094 0
vt -26.8701000213623 98.28730010986328 0
vt 53.74020004272461 85.93550109863281 0
vt 25.7952995300293 68.78929901123047 0
vt 45.85829925537109 68.78929901123047 0
vt 17.91340065002441 85.93550109863281 0
vt 53.74020004272461 60.37400054931641 0
vt 17.91340065002441 110.9059982299805 0
vt 17.91340065002441 60.37400054931641 0
vt 53.74020004272461 110.9059982299805 0
vt 53.74020004272461 96.92449951171875 0
vt 25.4370002746582 164.7819976806641 0
vt 17.91340065002441 96.92449951171875 0
vt 46.21649932861328 164.7819976806641 0
vt 46.21649932861328 84.96430206298828 0
vt 35.82680130004883 109.5370025634766 0
vt 25.4370002746582 84.96430206298828 0
vt 55.17319869995117 119.0479965209961 0
vt 44.78350067138672 143.6199951171875 0
vt 34.39369964599609 119.0479965209961 0
vt 19.34650039672852 141.7700042724609 0
vt 8.956689834594727 166.3430023193359 0
vt -1.433069944381714 141.7700042724609 0
vt -35.82680130004883 154.9819946289062 0
vt -46.21649932861328 130.4089965820312 0
vt -25.4370002746582 130.4089965820312 0
vt -53.74020004272461 108.8410034179688 0
vt -25.4370002746582 176.6990051269531 0
vt -46.21649932861328 176.6990051269531 0
vt -17.91340065002441 108.8410034179688 0
vt -53.74020004272461 110.9059982299805 0
vt -17.91340065002441 60.37400054931641 0
vt -17.91340065002441 110.9059982299805 0
vt -53.74020004272461 60.37400054931641 0
vt -53.74020004272461 36.5281982421875 0
vt -25.7952995300293 19.38199996948242 0
vt -17.91340065002441 36.5281982421875 0
vt -45.85829925537109 19.38199996948242 0
vt -31.02689933776855 55.88980102539062 0
vt -13.65180015563965 25.7952995300293 0
vt -13.65180015563965 45.85829925537109 0
vt -26.52860069274902 40.32500076293945 0
vt -35.52519989013672 40.32500076293945 0
vt -48.40200042724609 45.85829925537109 0
vt -35.52519989013672 31.32850074768066 0
vt -48.40200042724609 25.7952995300293 0
vt -31.02689933776855 15.7637996673584 0
vt -26.52860069274902 31.32850074768066 0
vt -42.91059875488281 1.236500024795532 0
vt -31.32850074768066 51.30329895019531 0
vt -40.32500076293945 51.30329895019531 0
vt -28.74290084838867 1.236500024795532 0
vt -38.11080169677734 42.91059875488281 0
vt -23.94300079345703 28.74290084838867 0
vt -23.94300079345703 42.91059875488281 0
vt -38.11080169677734 28.74290084838867 0
vt 42.91059875488281 -1.968169927597046 0
vt 31.32850074768066 48.09859848022461 0
vt 28.74290084838867 -1.968169927597046 0
vt 40.32500076293945 48.09859848022461 0
vt -38.11080169677734 -2.216049909591675 0
vt -26.52860069274902 47.85079956054688 0
vt -35.52519989013672 47.85079956054688 0
vt -23.94300079345703 -2.216049909591675 0
vt 35.52519989013672 51.55120086669922 0
vt 23.94300079345703 1.484380006790161 0
vt 38.11080169677734 1.484380006790161 0
vt 26.52860069274902 51.55120086669922 0
vt 26.8701000213623 24.17639923095703 0
vt -1.07480001449585 7.030189990997314 0
vt 18.98819923400879 7.030189990997314 0
vt -8.956689834594727 24.17639923095703 0
vt 26.8701000213623 110.9059982299805 0
vt -8.956689834594727 60.37400054931641 0
vt 26.8701000213623 60.37400054931641 0
vt -8.956689834594727 110.9059982299805 0
vt 19.34650039672852 179.6779937744141 0
vt -8.956689834594727 111.8199996948242 0
vt 26.8701000213623 111.8199996948242 0
vt -1.433069944381714 179.6779937744141 0
vt 26.8701000213623 105.8619995117188 0
vt 55.17319869995117 173.7200012207031 0
vt 34.39369964599609 173.7200012207031 0
vt 62.6968994140625 105.8619995117188 0
vt 62.6968994140625 110.9059982299805 0
vt 62.6968994140625 60.37400054931641 0
vt 26.8701000213623 48.88010025024414 0
vt 54.81499862670898 31.73380088806152 0
vt 62.6968994140625 48.88010025024414 0
vt 34.75199890136719 31.73380088806152 0

# 35 vertex normals
vn 0.4976679980754852 0.09646949917078018 -0.861985981464386
vn 0.5 0 -0.8660249710083008
vn 0.490693986415863 0.1920389980077744 -0.8499060273170471
vn 0.3404670059680939 0.7323449850082397 -0.5897060036659241
vn -0.3404670059680939 0.7323449850082397 -0.5897060036659241
vn -0.4976679980754852 0.09646949917078018 -0.861985981464386
vn -0.490693986415863 0.1920389980077744 -0.8499060273170471
vn -0.5 0 -0.8660249710083008
vn -0.3025160133838654 -0.7962009906768799 -0.5239729881286621
vn 0.3025160133838654 -0.7962009906768799 -0.5239729881286621
vn 0.6050320267677307 -0.7962009906768799 4.382730035238205e-18
vn 1 0 0
vn 0.9953359961509705 0.09646949917078018 3.713980152588072e-18
vn 0.9813870191574097 0.1920389980077744 7.39332046266426e-18
vn 0.6809340119361877 0.7323449850082397 -5.134669720246981e-17
vn 0.3404670059680939 0.7323449850082397 0.5897060036659241
vn -0.3404670059680939 0.7323449850082397 0.5897060036659241
vn -0.6809340119361877 0.7323449850082397 -5.134669720246981e-17
vn -0.9953359961509705 0.09646949917078018 -6.934370218573298e-16
vn -0.9813870191574097 0.1920389980077744 -5.870970116481175e-16
vn -1 0 -7.933090355417491e-16
vn -0.6050320267677307 -0.7962009906768799 -3.681140073109369e-16
vn 0 -1 0
vn -0.998665988445282 0.05164330080151558 0
vn 0.998665988445282 0.05164330080151558 0
vn -1.528859893644407e-17 0.05164330080151558 -0.998665988445282
vn -1.528859893644407e-17 0.05164330080151558 0.998665988445282
vn -0.3025160133838654 -0.7962009906768799 0.5239729881286621
vn -0.4976679980754852 0.09646949917078018 0.861985981464386
vn -0.5 0 0.8660249710083008
vn -0.490693986415863 0.1920389980077744 0.8499060273170471
vn 0.4976679980754852 0.09646949917078018 0.861985981464386
vn 0.490693986415863 0.1920389980077744 0.8499060273170471
vn 0.5 0 0.8660249710083008
vn 0.3025160133838654 -0.7962009906768799 0.5239729881286621

# Mesh 'Mesh1 Oak_Green Model' with 40 faces
g Mesh1 Oak_Green Model
usemtl Green_leafs
f  1/1/1 2/2/2 3/3/2
f  2/2/2 1/1/1 4/4/1
f  5/5/3 4/6/1 1/7/1
f  4/6/1 5/5/3 6/8/3
f  6/9/4 5/10/4 7/11/4
f  5/12/5 8/13/5 7/14/5
f  1/15/6 8/16/7 5/17/7
f  8/16/7 1/15/6 9/18/6
f  3/19/8 9/4/6 1/20/6
f  9/4/6 3/19/8 10/2/8
f  3/21/9 11/22/9 10/23/9
f  11/22/9 3/21/9 12/24/9
f  3/25/10 13/26/10 12/27/10
f  13/26/10 3/25/10 2/28/10
f  2/29/11 14/30/11 13/31/11
f  14/30/11 2/29/11 15/32/11
f  2/33/12 16/34/13 15/35/12
f  16/34/13 2/33/12 4/36/13
f  4/37/13 17/38/14 16/39/13
f  17/38/14 4/37/13 6/40/14
f  6/41/15 7/42/15 17/43/15
f  17/44/16 7/45/16 18/46/16
f  18/47/17 7/48/17 19/49/17
f  7/50/18 8/51/18 19/52/18
f  9/53/19 19/54/20 8/55/20
f  19/54/20 9/53/19 20/56/19
f  9/57/19 21/58/21 20/59/19
f  21/58/21 9/57/19 10/60/21
f  10/61/22 22/62/22 21/63/22
f  22/62/22 10/61/22 11/64/22
f  12/65/23 22/66/23 11/67/23
f  22/66/23 12/65/23 23/68/23
f  23/68/23 12/65/23 24/69/23
f  24/69/23 12/65/23 13/70/23
f  24/69/23 13/70/23 25/71/23
f  14/72/23 25/71/23 13/70/23
f  26/73/23 25/71/23 14/72/23
f  26/73/23 27/74/23 25/71/23
f  22/66/23 27/74/23 26/73/23
f  27/74/23 22/66/23 23/68/23

# Mesh 'Wood' with 10 faces
g Wood
usemtl Wood
f  28/75/24 27/76/24 23/77/24
f  27/76/24 28/75/24 29/78/24
f  30/79/23 29/80/23 28/81/23
f  29/80/23 30/79/23 31/82/23
f  30/83/25 25/84/25 31/85/25
f  25/84/25 30/83/25 24/86/25
f  30/87/26 23/88/26 24/89/26
f  23/88/26 30/87/26 28/90/26
f  25/91/27 29/92/27 31/93/27
f  29/92/27 25/91/27 27/94/27

# Mesh 'Green_leafs' with 12 faces
g Green_leafs
usemtl Green_leafs
f  32/95/28 22/96/28 26/97/28
f  22/96/28 32/95/28 21/98/28
f  33/99/29 21/100/30 32/101/30
f  21/100/30 33/99/29 20/102/29
f  18/103/31 20/104/29 33/105/29
f  20/104/29 18/103/31 19/106/31
f  33/107/32 17/108/33 18/109/33
f  17/108/33 33/107/32 16/110/32
f  32/101/34 16/111/32 33/99/32
f  16/111/32 32/101/34 15/112/34
f  32/113/35 14/114/35 15/115/35
f  14/114/35 32/113/35 26/116/35

