# File produced by Open Asset Import Library (http://www.assimp.sf.net)
# (assimp v4.1.908865877)

mtllib naturePack_002.mtl

# 36 vertex positions
v  1.5 0 1.5
v  0.741300106048584 0.1500000059604645 1.5
v  -1.5 0 1.5
v  1.5 0.300000011920929 1.5
v  1.5 0 -1.5
v  1.5 0.300000011920929 -1.5
v  0.741300106048584 0.1500000059604645 -1.5
v  -0.7413020133972168 0.1500000059604645 -1.5
v  -1.5 0 -1.5
v  -1.5 0.300000011920929 -1.5
v  -1.5 0.300000011920929 1.5
v  -0.7413020133972168 0.1500000059604645 1.5
v  -0.6223520040512085 0.1500000059604645 1.128136038780212
v  -0.3786400556564331 0.1500000059604645 0.2250800132751465
v  -0.595130980014801 0.1500000059604645 -0.8871901035308838
v  -0.595130980014801 0.300000011920929 -0.8871901035308838
v  -0.7413020133972168 0.300000011920929 -1.5
v  -0.7413020133972168 0.300000011920929 1.5
v  -0.6223520040512085 0.300000011920929 1.128136038780212
v  -0.7413020133972168 0.1500000059604645 0.7989689707756042
v  -0.7413020133972168 0.300000011920929 0.7989689707756042
v  -0.3786400556564331 0.300000011920929 0.2250800132751465
v  -0.7413020133972168 0.1500000059604645 -0.4243199825286865
v  -0.7413020133972168 0.300000011920929 -0.4243199825286865
v  0.741300106048584 0.1500000059604645 0.7989689707756042
v  0.8602499961853027 0.1500000059604645 1.128136038780212
v  0.741300106048584 0.300000011920929 0.7989689707756042
v  0.8602499961853027 0.300000011920929 1.128136038780212
v  0.741300106048584 0.300000011920929 1.5
v  1.103960037231445 0.300000011920929 0.2250800132751465
v  0.887470006942749 0.300000011920929 -0.8871901035308838
v  0.741300106048584 0.300000011920929 -1.5
v  0.887470006942749 0.1500000059604645 -0.8871901035308838
v  0.741300106048584 0.1500000059604645 -0.4243199825286865
v  0.741300106048584 0.300000011920929 -0.4243199825286865
v  1.103960037231445 0.1500000059604645 0.2250800132751465

# 82 UV coordinates
vt 118.1100006103516 0 0
vt 88.24019622802734 5.905509948730469 0
vt 0 0 0
vt 118.1100006103516 11.81099987030029 0
vt 0 11.81099987030029 0
vt -118.1100006103516 -4.98089972045257e-11 0
vt -88.24019622802734 5.905509948730469 0
vt -118.1100006103516 11.81099987030029 0
vt -29.8700008392334 5.905509948730469 0
vt -4.387370241415445e-12 -4.98089972045257e-11 0
vt -4.387370241415445e-12 11.81099987030029 0
vt -118.1100006103516 0 0
vt 29.8700008392334 5.905509948730469 0
vt 88.24019622802734 0 0
vt 34.5531005859375 14.64029979705811 0
vt 29.8700008392334 0 0
vt 44.14789962768555 50.19359970092773 0
vt 88.24019622802734 118.1100006103516 0
vt 35.62469863891602 93.98390197753906 0
vt 29.8700008392334 118.1100006103516 0
vt 107.9570007324219 5.905509948730469 0
vt 83.15370178222656 11.81099987030029 0
vt 83.15370178222656 5.905509948730469 0
vt 107.9570007324219 11.81099987030029 0
vt -29.8700008392334 11.81099987030029 0
vt 0 118.1100006103516 0
vt 29.8700008392334 11.81099987030029 0
vt 24.47150039672852 5.905509948730469 0
vt 9.100429534912109 11.81099987030029 0
vt 9.100429534912109 5.905509948730469 0
vt 24.47150039672852 11.81099987030029 0
vt 15.80529975891113 5.905509948730469 0
vt 2.025759935379028 11.81099987030029 0
vt 2.025759935379028 5.905509948730469 0
vt 15.80529975891113 11.81099987030029 0
vt 66.0155029296875 5.905509948730469 0
vt 39.28820037841797 11.81099987030029 0
vt 39.28820037841797 5.905509948730469 0
vt 66.0155029296875 11.81099987030029 0
vt 51.58110046386719 5.905509948730469 0
vt 22.29759979248047 11.81099987030029 0
vt 22.29759979248047 5.905509948730469 0
vt 51.58110046386719 11.81099987030029 0
vt 100.3489990234375 5.905509948730469 0
vt 81.23860168457031 11.81099987030029 0
vt 81.23860168457031 5.905509948730469 0
vt 100.3489990234375 11.81099987030029 0
vt 29.8700008392334 75.76039886474609 0
vt 29.8700008392334 27.59959983825684 0
vt 88.24019622802734 27.59959983825684 0
vt 92.92330169677734 14.64029979705811 0
vt 17.81180000305176 5.905509948730469 0
vt 4.032259941101074 11.81099987030029 0
vt 4.032259941101074 5.905509948730469 0
vt 17.81180000305176 11.81099987030029 0
vt -26.88400077819824 5.905509948730469 0
vt -42.25500106811523 11.81099987030029 0
vt -42.25500106811523 5.905509948730469 0
vt -26.88400077819824 11.81099987030029 0
vt 88.24019622802734 11.81099987030029 0
vt 102.5179977416992 50.19359970092773 0
vt 118.1100006103516 118.1100006103516 0
vt 93.99500274658203 93.98390197753906 0
vt -88.24019622802734 11.81099987030029 0
vt -69.61080169677734 5.905509948730469 0
vt -94.41400146484375 11.81099987030029 0
vt -94.41400146484375 5.905509948730469 0
vt -69.61080169677734 11.81099987030029 0
vt -98.81569671630859 5.905509948730469 0
vt -117.9260025024414 11.81099987030029 0
vt -117.9260025024414 5.905509948730469 0
vt -98.81569671630859 11.81099987030029 0
vt 6.162330150604248 5.905509948730469 0
vt -23.1210994720459 11.81099987030029 0
vt -23.1210994720459 5.905509948730469 0
vt 6.162330150604248 11.81099987030029 0
vt -70.47010040283203 5.905509948730469 0
vt -97.19730377197266 11.81099987030029 0
vt -97.19730377197266 5.905509948730469 0
vt -70.47010040283203 11.81099987030029 0
vt 88.24019622802734 75.76039886474609 0
vt -118.1100006103516 118.1100006103516 0

# 18 vertex normals
vn 0 0 1
vn 1 0 0
vn -3.714639950887569e-14 4.217169690713674e-13 -1
vn -1 0 0
vn 0 1 0
vn 0.972711980342865 0 -0.232016995549202
vn 0.9524589776992798 0 0.3046680092811584
vn 0.9404770135879517 0 -0.3398570120334625
vn 0.8453530073165894 0 0.5342079997062683
vn 0.8730800151824951 0 -0.4875760078430176
vn 0.9535830020904541 0 0.3011299967765808
vn -0.9404770135879517 0 0.3398570120334625
vn -0.9524589776992798 0 -0.3046680092811584
vn -0.972711980342865 0 0.232016995549202
vn -0.9535830020904541 0 -0.3011299967765808
vn -0.8730800151824951 0 0.4875760078430176
vn -0.8453530073165894 0 -0.5342079997062683
vn 0 -1 0

# Mesh 'Mesh1 Plate_River_Dirt Model' with 12 faces
g Mesh1 Plate_River_Dirt Model
usemtl Wood
f  1/1/1 2/2/1 3/3/1
f  2/2/1 1/1/1 4/4/1
f  5/1/2 4/5/2 1/3/2
f  4/5/2 5/1/2 6/4/2
f  5/6/3 7/7/3 6/8/3
f  7/7/3 5/6/3 8/9/3
f  9/10/3 8/9/3 5/6/3
f  8/9/3 9/10/3 10/11/3
f  3/3/4 10/8/4 9/12/4
f  10/8/4 3/3/4 11/5/4
f  3/3/1 12/13/1 11/5/1
f  12/13/1 3/3/1 2/2/1

# Mesh 'Water' with 5 faces
g Water
usemtl Water
f  2/14/5 13/15/5 12/16/5
f  13/15/5 2/14/5 14/17/5
f  7/18/5 14/17/5 2/14/5
f  7/18/5 15/19/5 14/17/5
f  15/19/5 7/18/5 8/20/5

# Mesh 'Wood' with 3 faces
g Wood
usemtl Wood
f  8/21/6 16/22/6 15/23/6
f  16/22/6 8/21/6 17/24/6
f  8/9/3 10/11/3 17/25/3

# Mesh 'Leafs' with 2 faces
g Leafs
usemtl Leafs
f  10/26/5 18/16/5 17/20/5
f  18/16/5 10/26/5 11/3/5

# Mesh 'Wood' with 11 faces
g Wood
usemtl Wood
f  11/5/1 12/13/1 18/27/1
f  13/28/7 18/29/7 12/30/7
f  18/29/7 13/28/7 19/31/7
f  20/32/8 19/33/8 13/34/8
f  19/33/8 20/32/8 21/35/8
f  14/36/9 21/37/9 20/38/9
f  21/37/9 14/36/9 22/39/9
f  23/40/10 22/41/10 14/42/10
f  22/41/10 23/40/10 24/43/10
f  15/44/11 24/45/11 23/46/11
f  24/45/11 15/44/11 16/47/11

# Mesh 'Leafs' with 5 faces
g Leafs
usemtl Leafs
f  17/20/5 24/48/5 16/19/5
f  17/20/5 21/49/5 24/48/5
f  17/20/5 18/16/5 21/49/5
f  19/15/5 21/49/5 18/16/5
f  22/17/5 24/48/5 21/49/5

# Mesh 'Water' with 4 faces
g Water
usemtl Water
f  14/17/5 15/19/5 23/48/5
f  14/17/5 20/49/5 13/15/5
f  7/18/5 2/14/5 25/50/5
f  26/51/5 25/50/5 2/14/5

# Mesh 'Wood' with 5 faces
g Wood
usemtl Wood
f  26/52/12 27/53/12 25/54/12
f  27/53/12 26/52/12 28/55/12
f  2/56/13 28/57/13 26/58/13
f  28/57/13 2/56/13 29/59/13
f  2/2/1 4/4/1 29/60/1

# Mesh 'Leafs' with 5 faces
g Leafs
usemtl Leafs
f  4/1/5 28/51/5 29/14/5
f  28/51/5 4/1/5 30/61/5
f  6/62/5 30/61/5 4/1/5
f  6/62/5 31/63/5 30/61/5
f  31/63/5 6/62/5 32/18/5

# Mesh 'Wood' with 9 faces
g Wood
usemtl Wood
f  6/8/3 7/7/3 32/64/3
f  33/65/14 32/66/14 7/67/14
f  32/66/14 33/65/14 31/68/14
f  34/69/15 31/70/15 33/71/15
f  31/70/15 34/69/15 35/72/15
f  36/73/16 35/74/16 34/75/16
f  35/74/16 36/73/16 30/76/16
f  25/77/17 30/78/17 36/79/17
f  30/78/17 25/77/17 27/80/17

# Mesh 'Leafs' with 1 faces
g Leafs
usemtl Leafs
f  30/61/5 27/50/5 28/51/5

# Mesh 'Water' with 3 faces
g Water
usemtl Water
f  36/61/5 34/81/5 25/50/5
f  7/18/5 25/50/5 34/81/5
f  7/18/5 34/81/5 33/63/5

# Mesh 'Leafs' with 1 faces
g Leafs
usemtl Leafs
f  30/61/5 31/63/5 35/81/5

# Mesh 'Wood' with 2 faces
g Wood
usemtl Wood
f  5/82/18 3/3/18 9/26/18
f  3/3/18 5/82/18 1/12/18

