# File produced by Open Asset Import Library (http://www.assimp.sf.net)
# (assimp v4.1.908865877)

mtllib naturePack_079.mtl

# 30 vertex positions
v  0.3396555185317993 0.2099999934434891 0.1960999667644501
v  -5.066394805908203e-07 0 0.5299999713897705
v  0.4589934945106506 0 0.2649999856948853
v  -5.066394805908203e-07 0.2099999934434891 0.3921999931335449
v  0.3396555185317993 0.5899999737739563 0.1960999667644501
v  -5.066394805908203e-07 0.5899999737739563 0.3921999931335449
v  -5.066394805908203e-07 0.5899999737739563 0.2793319821357727
v  -0.2419084906578064 0.5899999737739563 0.139665961265564
v  -0.3396554887294769 0.5899999737739563 0.1960999667644501
v  -0.3396554887294769 0.5899999737739563 -0.1961000561714172
v  -0.2419084906578064 0.5899999737739563 -0.1396660208702087
v  -5.066394805908203e-07 0.5899999737739563 -0.3922000527381897
v  -5.066394805908203e-07 0.5899999737739563 -0.2793320417404175
v  -0.2419084906578064 0.5099999904632568 -0.1396660208702087
v  -5.066394805908203e-07 0.5099999904632568 -0.2793320417404175
v  -5.066394805908203e-07 0.5099999904632568 0.2793319821357727
v  -0.2419084906578064 0.5099999904632568 0.139665961265564
v  0.2419084906578064 0.5099999904632568 0.139665961265564
v  0.2419084906578064 0.5899999737739563 0.139665961265564
v  0.2419084906578064 0.5899999737739563 -0.1396660208702087
v  0.3396555185317993 0.5899999737739563 -0.1961000561714172
v  0.2419084906578064 0.5099999904632568 -0.1396660208702087
v  0.3396555185317993 0.2099999934434891 -0.1961000561714172
v  -5.066394805908203e-07 0.2099999934434891 -0.3922000527381897
v  0.4589934945106506 0 -0.26500004529953
v  -5.066394805908203e-07 0 -0.5299999713897705
v  -0.4589934945106506 0 0.2649999856948853
v  -0.4589934945106506 0 -0.26500004529953
v  -0.3396554887294769 0.2099999934434891 0.1960999667644501
v  -0.3396554887294769 0.2099999934434891 -0.1961000561714172

# 90 UV coordinates
vt 33.8031005859375 5.045360088348389 0
vt 15.6496000289917 -4.464089870452881 0
vt 36.51570129394531 -4.464089870452881 0
vt 18.3621997833252 5.045360088348389 0
vt 33.8031005859375 23.22830009460449 0
vt 18.3621997833252 8.267720222473145 0
vt 33.8031005859375 8.267720222473145 0
vt 18.3621997833252 23.22830009460449 0
vt 18.07060050964355 9.868829727172852 0
vt 18.07060050964355 5.42519998550415 0
vt 31.44289970397949 13.14570045471191 0
vt 8.546660423278809 15.36750030517578 0
vt 4.698359966278076 13.14570045471191 0
vt 4.698359966278076 28.58659934997559 0
vt 8.546660423278809 26.36479949951172 0
vt 18.07060050964355 36.30709838867188 0
vt 18.07060050964355 31.86350059509277 0
vt 20.58399963378906 20.07869911193848 0
vt 31.58130073547363 23.22830009460449 0
vt 20.58399963378906 23.22830009460449 0
vt 31.58130073547363 20.07869911193848 0
vt 26.36479949951172 20.07869911193848 0
vt 15.36750030517578 23.22830009460449 0
vt 15.36750030517578 20.07869911193848 0
vt 26.36479949951172 23.22830009460449 0
vt 0.2821199893951416 23.22830009460449 0
vt -10.71520042419434 20.07869911193848 0
vt 0.2821199893951416 20.07869911193848 0
vt -10.71520042419434 23.22830009460449 0
vt -20.58399963378906 23.22830009460449 0
vt -31.58130073547363 20.07869911193848 0
vt -20.58399963378906 20.07869911193848 0
vt -31.58130073547363 23.22830009460449 0
vt 27.59460067749023 15.36750030517578 0
vt 27.59460067749023 26.36479949951172 0
vt 31.44289970397949 28.58659934997559 0
vt -0.2821199893951416 20.07869911193848 0
vt 10.71520042419434 23.22830009460449 0
vt -0.2821199893951416 23.22830009460449 0
vt 10.71520042419434 20.07869911193848 0
vt -15.36750030517578 20.07869911193848 0
vt -26.36479949951172 23.22830009460449 0
vt -26.36479949951172 20.07869911193848 0
vt -15.36750030517578 23.22830009460449 0
vt -12.9370002746582 8.267720222473145 0
vt 2.503940105438232 23.22830009460449 0
vt -12.9370002746582 23.22830009460449 0
vt 2.503940105438232 8.267720222473145 0
vt -15.6496000289917 -22.32049942016602 0
vt 2.503940105438232 -12.81099987030029 0
vt -12.9370002746582 -12.81099987030029 0
vt 5.216539859771729 -22.32049942016602 0
vt -18.07060050964355 0 0
vt -18.07060050964355 41.7322998046875 0
vt -36.14120101928711 31.2992000579834 0
vt 0 10.4330997467041 0
vt 0 31.2992000579834 0
vt -13.14570045471191 9.50944995880127 0
vt -31.2992000579834 -3.734230113009799e-17 0
vt -10.4330997467041 -1.244739979562755e-17 0
vt -28.58659934997559 9.50944995880127 0
vt -13.14570045471191 8.267720222473145 0
vt -28.58659934997559 23.22830009460449 0
vt -28.58659934997559 8.267720222473145 0
vt -13.14570045471191 23.22830009460449 0
vt -2.503940105438232 8.267720222473145 0
vt 12.9370002746582 23.22830009460449 0
vt -2.503940105438232 23.22830009460449 0
vt 12.9370002746582 8.267720222473145 0
vt -5.216539859771729 4.464089870452881 0
vt 12.9370002746582 13.97350025177002 0
vt -2.503940105438232 13.97350025177002 0
vt 15.6496000289917 4.464089870452881 0
vt -18.3621997833252 23.22830009460449 0
vt -33.8031005859375 8.267720222473145 0
vt -18.3621997833252 8.267720222473145 0
vt -33.8031005859375 23.22830009460449 0
vt -36.51570129394531 -13.39229965209961 0
vt -18.3621997833252 -3.882830142974854 0
vt -33.8031005859375 -3.882830142974854 0
vt -15.6496000289917 -13.39229965209961 0
vt -36.14120101928711 10.4330997467041 0
vt 31.2992000579834 -17.85639953613281 0
vt 13.14570045471191 -8.346920013427734 0
vt 10.4330997467041 -17.85639953613281 0
vt 28.58659934997559 -8.346920013427734 0
vt 28.58659934997559 8.267720222473145 0
vt 13.14570045471191 23.22830009460449 0
vt 13.14570045471191 8.267720222473145 0
vt 28.58659934997559 23.22830009460449 0

# 17 vertex normals
vn 0.4347099959850311 0.4940719902515411 0.7529399991035461
vn 0.5 -2.255700073281608e-31 0.8660249710083008
vn 0 1 0
vn 0.5 0 0.8660249710083008
vn 1 0 0
vn 0.5 0 -0.8660249710083008
vn -0.5 0 -0.8660249710083008
vn -0.5 0 0.8660249710083008
vn -1 0 0
vn 0.5 -2.255700073281608e-31 -0.8660249710083008
vn 0.4347099959850311 0.4940719902515411 -0.7529399991035461
vn 0 -1 0
vn -0.8694210052490234 0.4940719902515411 -2.099460081685633e-18
vn -0.4347099959850311 0.4940719902515411 0.7529399991035461
vn -0.5 -1.374650018253188e-17 -0.8660249710083008
vn -0.4347099959850311 0.4940719902515411 -0.7529399991035461
vn 0.8694210052490234 0.4940719902515411 8.118330207496575e-18

# Mesh 'Mesh1 Group1 Model' with 11 faces
g Mesh1 Group1 Model
usemtl Wood
f  1/1/1 2/2/1 3/3/1
f  2/2/1 1/1/1 4/4/1
f  5/5/2 4/6/2 1/7/2
f  4/6/2 5/5/2 6/8/2
f  7/9/3 6/10/3 5/11/3
f  8/12/3 6/10/3 7/9/3
f  8/12/3 9/13/3 6/10/3
f  9/13/3 8/12/3 10/14/3
f  11/15/3 10/14/3 8/12/3
f  10/14/3 11/15/3 12/16/3
f  12/16/3 11/15/3 13/17/3

# Mesh 'Light_Wood' with 10 faces
g Light_Wood
usemtl Light_Wood
f  14/18/4 13/19/4 11/20/4
f  13/19/4 14/18/4 15/21/4
f  14/15/3 16/9/3 15/17/3
f  16/9/3 14/15/3 17/12/3
f  14/22/5 8/23/5 17/24/5
f  8/23/5 14/22/5 11/25/5
f  8/26/6 16/27/6 17/28/6
f  16/27/6 8/26/6 7/29/6
f  7/30/7 18/31/7 16/32/7
f  18/31/7 7/30/7 19/33/7

# Mesh 'Wood' with 5 faces
g Wood
usemtl Wood
f  7/9/3 5/11/3 19/34/3
f  19/34/3 5/11/3 20/35/3
f  21/36/3 20/35/3 5/11/3
f  12/16/3 20/35/3 21/36/3
f  12/16/3 13/17/3 20/35/3

# Mesh 'Light_Wood' with 6 faces
g Light_Wood
usemtl Light_Wood
f  15/37/8 20/38/8 13/39/8
f  20/38/8 15/37/8 22/40/8
f  15/17/3 18/34/3 22/35/3
f  15/17/3 16/9/3 18/34/3
f  18/41/9 20/42/9 22/43/9
f  20/42/9 18/41/9 19/44/9

# Mesh 'Wood' with 24 faces
g Wood
usemtl Wood
f  23/45/10 12/46/10 21/47/10
f  12/46/10 23/45/10 24/48/10
f  25/49/11 24/50/11 23/51/11
f  24/50/11 25/49/11 26/52/11
f  2/53/12 26/54/12 25/55/12
f  27/56/12 26/54/12 2/53/12
f  26/54/12 27/56/12 28/57/12
f  29/58/13 28/59/13 27/60/13
f  28/59/13 29/58/13 30/61/13
f  29/62/9 10/63/9 30/64/9
f  10/63/9 29/62/9 9/65/9
f  29/66/8 6/67/8 9/68/8
f  6/67/8 29/66/8 4/69/8
f  27/70/14 4/71/14 29/72/14
f  4/71/14 27/70/14 2/73/14
f  10/74/15 24/75/15 30/76/15
f  24/75/15 10/74/15 12/77/15
f  26/78/16 30/79/16 24/80/16
f  30/79/16 26/78/16 28/81/16
f  2/53/12 25/55/12 3/82/12
f  25/83/17 1/84/17 3/85/17
f  1/84/17 25/83/17 23/86/17
f  23/87/5 5/88/5 1/89/5
f  5/88/5 23/87/5 21/90/5

