# File produced by Open Asset Import Library (http://www.assimp.sf.net)
# (assimp v4.1.908865877)

mtllib naturePack_012.mtl

# 10 vertex positions
v  0.5952150225639343 0 0.1709420084953308
v  0.3851999640464783 0.1800000071525574 0.5575850009918213
v  0.3851999640464783 0 0.5575850009918213
v  0.5952150225639343 0.1800000071525574 0.1709420084953308
v  -0.1041910350322723 0 -0.5575850009918213
v  -0.1041910350322723 0.1800000071525574 -0.5575850009918213
v  -0.5952150225639343 0.1800000071525574 -0.50034499168396
v  -0.5952150225639343 0 -0.50034499168396
v  -0.3326810300350189 0 0.3080939948558807
v  -0.3326810300350189 0.1800000071525574 0.3080939948558807

# 29 UV coordinates
vt 35.74660110473633 0 0
vt 18.4237003326416 7.086609840393066 0
vt 18.4237003326416 0 0
vt 35.74660110473633 7.086609840393066 0
vt 18.28350067138672 0 0
vt -21.4768009185791 7.086609840393066 0
vt -21.4768009185791 0 0
vt 18.28350067138672 7.086609840393066 0
vt -24.28510093688965 0 0
vt -4.822549819946289 7.086609840393066 0
vt -24.28510093688965 7.086609840393066 0
vt -4.822549819946289 0 0
vt -19.33169937133789 43.90430068969727 0
vt -10.33600044250488 9.822469711303711 0
vt 0 41.65079879760742 0
vt -38.5989990234375 0 0
vt -46.86740112304688 15.22220039367676 0
vt 36.45989990234375 7.086609840393066 0
vt 6.538670063018799 0 0
vt 36.45989990234375 0 0
vt 6.538670063018799 7.086609840393066 0
vt 19.33169937133789 43.90430068969727 0
vt 10.33600044250488 9.822469711303711 0
vt 38.5989990234375 0 0
vt -39.61439895629883 7.086609840393066 0
vt -6.149819850921631 0 0
vt -6.149819850921631 7.086609840393066 0
vt -39.61439895629883 0 0
vt 46.86740112304688 15.22220039367676 0

# 7 vertex normals
vn 0.8787339925765991 0 0.477310985326767
vn 0.7213760018348694 0 -0.6925430297851562
vn -0.1157850027084351 0 -0.9932739734649658
vn 0 -1 0
vn -0.3282769918441772 0 0.9445809721946716
vn 0 1 0
vn -0.9511070251464844 0 0.3088630139827728

# Mesh 'Mesh1 Group1 Model' with 11 faces
g Mesh1 Group1 Model
usemtl Wood
f  1/1/1 2/2/1 3/3/1
f  2/2/1 1/1/1 4/4/1
f  5/5/2 4/6/2 1/7/2
f  4/6/2 5/5/2 6/8/2
f  5/9/3 7/10/3 6/11/3
f  7/10/3 5/9/3 8/12/3
f  5/13/4 9/14/4 8/15/4
f  9/14/4 5/13/4 3/16/4
f  3/16/4 5/13/4 1/17/4
f  2/18/5 9/19/5 3/20/5
f  9/19/5 2/18/5 10/21/5

# Mesh 'Green_leafs' with 2 faces
g Green_leafs
usemtl Green_leafs
f  6/22/6 10/23/6 2/24/6
f  10/23/6 6/22/6 7/15/6

# Mesh 'Wood' with 2 faces
g Wood
usemtl Wood
f  7/25/7 9/26/7 10/27/7
f  9/26/7 7/25/7 8/28/7

# Mesh 'Green_leafs' with 1 faces
g Green_leafs
usemtl Green_leafs
f  6/22/6 2/24/6 4/29/6

