# File produced by Open Asset Import Library (http://www.assimp.sf.net)
# (assimp v4.1.908865877)

mtllib naturePack_142.mtl

# 8 vertex positions
v  0.4600000083446503 0.2899999916553497 0.4600000083446503
v  0.4600000083446503 0.2899999916553497 -0.2509379684925079
v  -0.2552910149097443 0.2899999916553497 0.4600000083446503
v  0.4600000083446503 0 -0.3199999630451202
v  0.4600000083446503 0 0.4600000083446503
v  -0.3199999928474426 0 0.4600000083446503
v  -0.4600000083446503 0.2899999916553497 0.4600000083446503
v  0.4600000083446503 0.2899999916553497 -0.4600000083446503

# 21 UV coordinates
vt 36.22050094604492 0 0
vt 36.22050094604492 27.98970031738281 0
vt 8.059430122375488 -3.410610010558257e-13 0
vt -2.116569940147084e-12 11.4173002243042 0
vt 30.70870018005371 -5.25968981909819e-12 0
vt 27.98970031738281 11.4173002243042 0
vt -2.116569940147084e-12 -5.25968981909819e-12 0
vt 36.22050094604492 11.4173002243042 0
vt 5.511809825897217 1.089949943423875e-23 0
vt 36.22050094604492 7.162549679198113e-23 0
vt -4.954130104043908e-23 11.4173002243042 0
vt 8.059430122375488 11.4173002243042 0
vt 36.22050094604492 36.22050094604492 0
vt 0 5.553599941032772e-11 0
vt -47.32600021362305 -1.259099960327148 0
vt -3.927010105986284e-11 10.805100440979 0
vt -51.2234992980957 10.805100440979 0
vt -3.897439956665039 -1.259099960327148 0
vt -36.22050094604492 0 0
vt -5.511809825897217 0 0
vt -36.22050094604492 30.70870018005371 0

# 5 vertex normals
vn 0 1 0
vn 1 1.452129974426064e-13 -5.843569850011096e-14
vn -8.920579661238215e-13 2.216769953364284e-12 1
vn -0.6691910028457642 -0.323058009147644 -0.6691910028457642
vn 0 -1 0

# Mesh 'Mesh1 Grey_Cliff_Top_Corner Model' with 1 faces
g Mesh1 Grey_Cliff_Top_Corner Model
usemtl Leafs
f  1/1/1 2/2/1 3/3/1

# Mesh 'Stone' with 11 faces
g Stone
usemtl Stone
f  1/4/2 4/5/2 2/6/2
f  4/5/2 1/4/2 5/7/2
f  1/8/3 6/9/3 5/10/3
f  6/9/3 1/8/3 7/11/3
f  7/11/3 1/8/3 3/12/3
f  3/3/1 8/13/1 7/14/1
f  8/13/1 3/3/1 2/2/1
f  2/6/2 4/5/2 8/8/2
f  4/15/4 7/16/4 8/17/4
f  7/16/4 4/15/4 6/18/4
f  5/19/5 6/20/5 4/21/5

