# File produced by Open Asset Import Library (http://www.assimp.sf.net)
# (assimp v4.1.908865877)

mtllib naturePack_038.mtl

# 17 vertex positions
v  -0.07029300928115845 2.140000104904175 0.2530519962310791
v  -0.2472720146179199 1.430000066757202 0.03572899103164673
v  -0.126334011554718 1.430000066757202 0.2716220021247864
v  -0.1549490094184875 2.140000104904175 0.08792597055435181
v  0.2758910059928894 2.140000104904175 0.2383779883384705
v  0.1145709753036499 2.140000104904175 0.3315170109272003
v  0.1377559900283813 1.430000066757202 0.3837150037288666
v  -0.2105579972267151 0 0.4527049958705902
v  0.2295929789543152 0 0.6395249962806702
v  -0.08381903171539307 0 -0.6395249962806702
v  -0.6136850118637085 0 -0.3336080312728882
v  -0.3682100176811218 1.430000066757202 -0.2001650333404541
v  -0.05029100179672241 1.430000066757202 -0.3837149739265442
v  0.3682140111923218 1.430000066757202 0.2506600022315979
v  0.6136850118637085 0 0.4177669882774353
v  0.6136850118637085 0 0.05276697874069214
v  0.3682140111923218 1.430000066757202 0.03166002035140991

# 56 UV coordinates
vt -3.779710054397583 86.09649658203125 0
vt -14.57229995727539 58.04949951171875 0
vt -4.135690212249756 58.04949951171875 0
vt -11.08530044555664 86.09649658203125 0
vt 21.39340019226074 15.21549987792969 0
vt 35.02270126342773 15.79319953918457 0
vt 18.06049919128418 21.71649932861328 0
vt 28.67149925231934 12.12629985809326 0
vt 12.00279998779297 57.3567008972168 0
vt 21.65469932556152 85.35150146484375 0
vt 13.74810028076172 85.35150146484375 0
vt 23.29780006408691 57.3567008972168 0
vt 11.73589992523193 1.793149948120117 0
vt 23.29780006408691 58.63809967041016 0
vt 12.00279998779297 58.63809967041016 0
vt 30.56100082397461 1.793149948120117 0
vt -15.87110042572021 7.355130195617676 0
vt -20.86090087890625 50.35639953613281 0
vt -33.19990158081055 0 0
vt 0 38.31230163574219 0
vt -4.135690212249756 58.55419921875 0
vt -34.09289932250977 1.914269924163818 0
vt 0.6956049799919128 1.914269924163818 0
vt -14.57229995727539 58.55419921875 0
vt -25.0088005065918 58.55419921875 0
vt 14.42570018768311 23.77149963378906 0
vt 22.18090057373047 40.28509902954102 0
vt 9.664360046386719 33.05870056152344 0
vt 38.65739822387695 15.30959987640381 0
vt -9.891189575195312 83.52040100097656 0
vt -31.44879913330078 55.55780029296875 0
vt -5.782139778137207 55.55780029296875 0
vt -27.85790061950684 83.52040100097656 0
vt 38.22710037231445 83.67790222167969 0
vt 30.65640068054199 55.63589859008789 0
vt 41.13309860229492 55.63589859008789 0
vt 30.89340019226074 83.67790222167969 0
vt 28.75200080871582 -3.051810026168823 0
vt 41.13309860229492 54.22359848022461 0
vt 30.65640068054199 54.22359848022461 0
vt 46.21319961547852 -3.051810026168823 0
vt -48.32180023193359 23.10070037841797 0
vt -48.32180023193359 8.730620384216309 0
vt 12.6358003616333 51.10459899902344 0
vt -18.02330017089844 -5.537000179290771 0
vt 20.66740036010742 -5.537000179290771 0
vt -10.57859992980957 51.10459899902344 0
vt 38.65739822387695 23.93169975280762 0
vt 15.30959987640381 48.94729995727539 0
vt 23.10070037841797 -8.175370216369629 0
vt 23.93169975280762 48.94729995727539 0
vt 8.730620384216309 -8.175370216369629 0
vt -43.24420166015625 -5.453979969024658 0
vt -24.89889907836914 51.62160110473633 0
vt -39.35179901123047 51.62160110473633 0
vt -19.15620040893555 -5.453979969024658 0

# 12 vertex normals
vn -0.886879026889801 0.08189520239830017 0.4546850025653839
vn 0 1 0
vn -0.3901210129261017 0.05483299866318703 0.9191290140151978
vn -0.3869580030441284 0.1382369995117188 0.9116770029067993
vn 0 -1 0
vn -0.8845149874687195 0.1095200031995773 0.4534730017185211
vn 0.3295660018920898 0.02652920037508011 -0.9437599778175354
vn 0.4984079897403717 0.07974179834127426 0.8632680177688599
vn 0.4914779961109161 0.1838449984788895 0.8512639999389648
vn 0.7001910209655762 0.1097820028662682 -0.7054640054702759
vn 0.985584020614624 0.169185996055603 0
vn -0.4931989908218384 0.1643780022859573 -0.8542450070381165

# Mesh 'Mesh1 Group1 Model' with 2 faces
g Mesh1 Group1 Model
usemtl Wood
f  1/1/1 2/2/1 3/3/1
f  2/2/1 1/1/1 4/4/1

# Mesh 'Green_leafs' with 2 faces
g Green_leafs
usemtl Green_leafs
f  1/5/2 5/6/2 4/7/2
f  5/6/2 1/5/2 6/8/2

# Mesh 'Wood' with 9 faces
g Wood
usemtl Wood
f  3/9/3 6/10/3 1/11/3
f  6/10/3 3/9/3 7/12/3
f  8/13/4 7/14/4 3/15/4
f  7/14/4 8/13/4 9/16/4
f  8/17/5 10/18/5 9/19/5
f  10/18/5 8/17/5 11/20/5
f  3/21/6 11/22/6 8/23/6
f  11/22/6 3/21/6 2/24/6
f  11/22/6 2/24/6 12/25/6

# Mesh 'Green_leafs' with 2 faces
g Green_leafs
usemtl Green_leafs
f  2/26/2 13/27/2 12/28/2
f  13/27/2 2/26/2 14/29/2

# Mesh 'Wood' with 10 faces
g Wood
usemtl Wood
f  4/30/7 14/31/7 2/32/7
f  14/31/7 4/30/7 5/33/7
f  5/34/8 7/35/8 14/36/8
f  7/35/8 5/34/8 6/37/8
f  9/38/9 14/39/9 7/40/9
f  14/39/9 9/38/9 15/41/9
f  9/19/5 16/42/5 15/43/5
f  9/19/5 10/18/5 16/42/5
f  13/44/10 16/45/10 10/46/10
f  16/45/10 13/44/10 17/47/10

# Mesh 'Green_leafs' with 1 faces
g Green_leafs
usemtl Green_leafs
f  13/27/2 14/29/2 17/48/2

# Mesh 'Wood' with 4 faces
g Wood
usemtl Wood
f  14/49/11 16/50/11 17/51/11
f  16/50/11 14/49/11 15/52/11
f  10/53/12 12/54/12 13/55/12
f  12/54/12 10/53/12 11/56/12

