# File produced by Open Asset Import Library (http://www.assimp.sf.net)
# (assimp v4.1.908865877)

mtllib naturePack_133.mtl

# 21 vertex positions
v  -2.026557922363281e-06 1.589999914169312 0.4501409828662872
v  -0.3550940155982971 1.589999914169312 0.04011595249176025
v  -0.3550940155982971 1.589999914169312 0.2451279759407043
v  -0.07663702964782715 1.589999914169312 -0.1013080477714539
v  0.3550899624824524 1.589999914169312 0.04011595249176025
v  0.3550899624824524 1.589999914169312 0.2451279759407043
v  -2.026557922363281e-06 0.7400000095367432 0.5324999690055847
v  0.4611600041389465 0.7400000095367432 0.2662499845027924
v  -2.026557922363281e-06 0 0.7099999785423279
v  0.6148800253868103 0 0.3549999892711639
v  0.6148800253868103 0 -0.3550000786781311
v  -2.026557922363281e-06 0 -0.7099999785423279
v  -0.6148800253868103 0 0.3549999892711639
v  -0.6148800253868103 0 -0.3550000786781311
v  -0.4611600041389465 0.7400000095367432 0.2662499845027924
v  -0.4611600041389465 0.7400000095367432 0
v  -0.09952700138092041 0.7400000095367432 -0.183667004108429
v  0.4611600041389465 0.7400000095367432 0
v  0.4611600041389465 0.7400000095367432 -0.2662500143051147
v  -2.026557922363281e-06 0.7400000095367432 -0.5325000882148743
v  -0.4611600041389465 0.7400000095367432 -0.2662500143051147

# 68 UV coordinates
vt 24.20779991149902 10.23069953918457 0
vt 10.2278003692627 26.37339973449707 0
vt 10.2278003692627 18.30200004577637 0
vt 21.19070053100586 31.94120025634766 0
vt 38.18780136108398 26.37339973449707 0
vt 38.18780136108398 18.30200004577637 0
vt 24.45870018005371 28.52580070495605 0
vt 42.22259902954102 62.10800170898438 0
vt 26.07990074157715 62.10800170898438 0
vt 45.42319869995117 28.52580070495605 0
vt 20.964599609375 -2.461780071258545 0
vt 45.42319869995117 27.29400062561035 0
vt 24.45870018005371 27.29400062561035 0
vt 48.91730117797852 -2.461780071258545 0
vt -24.20779991149902 0 0
vt -48.41559982299805 41.92910003662109 0
vt -48.41559982299805 13.97640037536621 0
vt -24.20779991149902 55.90549850463867 0
vt 0 13.97640037536621 0
vt 0 41.92910003662109 0
vt -17.47050094604492 29.75580024719238 0
vt -41.92910003662109 -5.561900234824494e-17 0
vt -13.97640037536621 -1.853969998518574e-17 0
vt -27.95280075073242 29.75580024719238 0
vt -18.30200004577637 63.38309860229492 0
vt -27.95280075073242 29.65900039672852 0
vt -17.47050094604492 29.65900039672852 0
vt -26.37339973449707 63.38309860229492 0
vt -21.06170082092285 60.44380187988281 0
vt -34.02220153808594 26.8169994354248 0
vt -18.0536994934082 26.8169994354248 0
vt -33.35739898681641 60.44380187988281 0
vt -28.08029937744141 59.29850006103516 0
vt -8.328639984130859 25.71689987182617 0
vt -10.19449996948242 59.29850006103516 0
vt -31.55699920654297 25.71689987182617 0
vt 18.30200004577637 57.38809967041016 0
vt 27.95280075073242 23.66399955749512 0
vt 26.37339973449707 57.38809967041016 0
vt 17.47050094604492 23.66399955749512 0
vt 17.47050094604492 19.90869903564453 0
vt 41.92910003662109 -9.847109794616699 0
vt 27.95280075073242 19.90869903564453 0
vt 13.97640037536621 -9.847109794616699 0
vt 38.43500137329102 19.90869903564453 0
vt -20.964599609375 -12.30889987945557 0
vt 3.49409008026123 17.4468994140625 0
vt -17.47050094604492 17.4468994140625 0
vt 6.988190174102783 -12.30889987945557 0
vt -48.91730117797852 -7.385330200195312 0
vt -24.45870018005371 22.3705005645752 0
vt -45.42319869995117 22.3705005645752 0
vt -20.964599609375 -7.385330200195312 0
vt -38.43500137329102 29.75580024719238 0
vt 20.28949928283691 35.18370056152344 0
vt 6.051949977874756 38.43500137329102 0
vt 6.051949977874756 27.95280075073242 0
vt 24.20779991149902 48.91730117797852 0
vt 42.36360168457031 27.95280075073242 0
vt 42.36360168457031 38.43500137329102 0
vt -3.49409008026123 30.54999923706055 0
vt 15.84920024871826 64.1322021484375 0
vt -0.2934879958629608 64.1322021484375 0
vt 17.47050094604492 30.54999923706055 0
vt -6.988190174102783 2.461780071258545 0
vt 17.47050094604492 32.21760177612305 0
vt -3.49409008026123 32.21760177612305 0
vt 20.964599609375 2.461780071258545 0

# 19 vertex normals
vn 4.78850985401681e-17 1 8.179280481536953e-16
vn 0.4948059916496277 0.14376600086689 0.8570290207862854
vn 0.4982489943504333 0.08361809700727463 0.862991988658905
vn 0.4895490109920502 0.2033870071172714 0.8479239940643311
vn 0 -1 0
vn -0.9865040183067322 0.1637389957904816 -1.586789998919456e-17
vn -0.9790980219841003 0.2033870071172714 -6.385720591575148e-18
vn -0.9923040270805359 0.1238240003585815 -2.532429823507223e-17
vn -0.4506419897079468 0.09810899943113327 -0.8872969746589661
vn 0.3102149963378906 0.08340369910001755 -0.9470009803771973
vn 0.9923040270805359 0.1238240003585815 -9.208830533166059e-18
vn 0.9865040183067322 0.1637389957904816 -6.756640372362807e-18
vn 0.9790980219841003 0.2033870071172714 -4.293460289941176e-18
vn 0.4895490109920502 0.2033870071172714 -0.8479239940643311
vn -0.4895490109920502 0.2033870071172714 -0.8479239940643311
vn 6.07770028631051e-17 1 -7.676950106796853e-17
vn -0.4948059916496277 0.14376600086689 0.8570290207862854
vn -0.4982489943504333 0.08361809700727463 0.862991988658905
vn -0.4895490109920502 0.2033870071172714 0.8479239940643311

# Mesh 'Mesh1 Tall_Rock_1 Model' with 4 faces
g Mesh1 Tall_Rock_1 Model
usemtl Green_leafs
f  1/1/1 2/2/1 3/3/1
f  2/2/1 1/1/1 4/4/1
f  4/4/1 1/1/1 5/5/1
f  5/5/1 1/1/1 6/6/1

# Mesh 'Wood' with 26 faces
g Wood
usemtl Wood
f  7/7/2 6/8/3 1/9/3
f  6/8/3 7/7/2 8/10/2
f  9/11/4 8/12/2 7/13/2
f  8/12/2 9/11/4 10/14/4
f  9/15/5 11/16/5 10/17/5
f  9/15/5 12/18/5 11/16/5
f  13/19/5 12/18/5 9/15/5
f  12/18/5 13/19/5 14/20/5
f  15/21/6 14/22/7 13/23/7
f  14/22/7 15/21/6 16/24/6
f  3/25/8 16/26/6 15/27/6
f  16/26/6 3/25/8 2/28/8
f  2/29/9 17/30/9 16/31/9
f  17/30/9 2/29/9 4/32/9
f  5/33/10 17/34/10 4/35/10
f  17/34/10 5/33/10 18/36/10
f  6/37/11 18/38/12 5/39/11
f  18/38/12 6/37/11 8/40/12
f  8/41/12 11/42/13 18/43/12
f  11/42/13 8/41/12 10/44/13
f  18/43/12 11/42/13 19/45/13
f  11/46/14 20/47/14 19/48/14
f  20/47/14 11/46/14 12/49/14
f  12/50/15 21/51/15 20/52/15
f  21/51/15 12/50/15 14/53/15
f  14/22/7 16/24/6 21/54/7

# Mesh 'Green_leafs' with 4 faces
g Green_leafs
usemtl Green_leafs
f  17/55/16 21/56/16 16/57/16
f  21/56/16 17/55/16 20/58/16
f  20/58/16 17/55/16 18/59/16
f  20/58/16 18/59/16 19/60/16

# Mesh 'Wood' with 4 faces
g Wood
usemtl Wood
f  15/61/17 1/62/18 3/63/18
f  1/62/18 15/61/17 7/64/17
f  13/65/19 7/66/17 15/67/17
f  7/66/17 13/65/19 9/68/19

