# File produced by Open Asset Import Library (http://www.assimp.sf.net)
# (assimp v4.1.908865877)

mtllib naturePack_095.mtl

# 63 vertex positions
v  -1.303403973579407 1.142330020249068e-15 -1.299999952316284
v  -0.1499999761581421 2.195329904556274 1.299999952316284
v  -1.303403973579407 1.009330002058328e-17 1.299999952316284
v  -0.1499999761581421 2.195329904556274 1.200000047683716
v  0 2.480839967727661 1.200000047683716
v  -0.1499999761581421 2.195329904556274 -1.200000047683716
v  -0.1499999761581421 2.195329904556274 -1.299999952316284
v  -0.75 1.166079977057131e-15 -1.299999952316284
v  -0.1499999761581421 1.604019999504089 -1.299999952316284
v  -0.75 3.383959820879729e-17 -1.5
v  -0.1499999761581421 1.604019999504089 -1.5
v  -0.1499999761581421 2.569519996643066 -1.5
v  -1.5 3.383959820879729e-17 -1.5
v  -1.5 3.383959820879729e-17 1.5
v  -0.1499999761581421 6.767919641759458e-17 1.5
v  -0.1499999761581421 6.767919641759458e-17 1.299999952316284
v  -0.1499999761581421 6.767919641759458e-17 1.200000047683716
v  0.1499999761581421 6.767919641759458e-17 1.200000047683716
v  0.1499999761581421 2.195329904556274 1.200000047683716
v  0 2.480839967727661 -1.200000047683716
v  0.1499999761581421 2.195329904556274 -1.200000047683716
v  1.303400039672852 1.132240057902256e-15 -1.299999952316284
v  1.303400039672852 0 1.299999952316284
v  0.1499999761581421 2.195329904556274 1.299999952316284
v  0.1499999761581421 6.767919641759458e-17 1.299999952316284
v  0.1499999761581421 6.767919641759458e-17 1.5
v  1.5 3.383959820879729e-17 1.5
v  1.5 3.383959820879729e-17 -1.5
v  0.75 1.166079977057131e-15 -1.299999952316284
v  0.75 3.383959820879729e-17 -1.5
v  0.1499999761581421 1.604019999504089 -1.299999952316284
v  0.1499999761581421 1.604019999504089 -1.5
v  0.1499999761581421 6.767919641759458e-17 -1.5
v  0.1499999761581421 6.767919641759458e-17 -1.200000047683716
v  -0.1499999761581421 6.767919641759458e-17 -1.200000047683716
v  -0.1499999761581421 6.767919641759458e-17 -1.5
v  0 2.005029916763306 -1.5
v  0.1499999761581421 2.569519996643066 -1.5
v  0.1499999761581421 2.855030059814453 -1.5
v  -0.1499999761581421 2.855030059814453 -1.5
v  -0.1499999761581421 2.569519996643066 -1.200000047683716
v  -0.1499999761581421 2.855030059814453 -1.200000047683716
v  0 2.855030059814453 -1.200000047683716
v  -0.6045519709587097 1.704349994659424 -0.7522001266479492
v  -0.8210520148277283 1.292279958724976 -0.5991599559783936
v  -0.7498700022697449 1.427760004997253 -0.1336699724197388
v  -0.5826029777526855 1.746129989624023 0.6971740126609802
v  -0.1499999761581421 2.569519996643066 1.200000047683716
v  -0.1499999761581421 2.569519996643066 1.5
v  0.1499999761581421 2.569519996643066 1.5
v  0.1499999761581421 2.569519996643066 1.200000047683716
v  0 2.855030059814453 1.200000047683716
v  0.1499999761581421 2.569519996643066 -1.200000047683716
v  0.1499999761581421 2.855030059814453 -1.200000047683716
v  -0.3261799812316895 2.234189987182617 0.7953789830207825
v  -0.2772400379180908 2.327340126037598 0.2046799659729004
v  -0.5336650013923645 1.839280009269714 0.106469988822937
v  -0.5333709716796875 1.839839935302734 -0.2867200374603271
v  -0.1499999761581421 2.855030059814453 1.200000047683716
v  -0.1499999761581421 2.855030059814453 1.5
v  0.1499999761581421 2.855030059814453 1.5
v  0.1499999761581421 2.855030059814453 1.200000047683716
v  0.1499999761581421 2.195329904556274 -1.299999952316284

# 155 UV coordinates
vt 110.2360000610352 3.599900007247925 0
vt 7.874020099639893 101.2330017089844 0
vt 7.874020099639893 3.599900007247925 0
vt 11.81099987030029 101.2330017089844 0
vt 11.81099987030029 113.9300003051758 0
vt 106.2990036010742 101.2330017089844 0
vt 110.2360000610352 101.2330017089844 0
vt 29.5275993347168 -1.076289953021907e-14 0
vt 53.14960098266602 86.43049621582031 0
vt 7.739990234375 -1.169780028728975e-14 0
vt 53.14960098266602 63.1505012512207 0
vt 118.1100006103516 10.34500026702881 0
vt 110.2360000610352 77.76889801025391 0
vt 110.2360000610352 10.34500026702881 0
vt 118.1100006103516 77.76889801025391 0
vt -29.5275993347168 8.042830182235228e-13 0
vt -53.14960098266602 101.1620025634766 0
vt -53.14960098266602 63.1505012512207 0
vt -8.951720319324251e-15 8.042830182235228e-13 0
vt -7.739990234375 110.2360000610352 0
vt -9.562029997152303e-32 118.1100006103516 0
vt -29.5275993347168 118.1100006103516 0
vt -9.562029997152303e-32 2.510380093243193e-31 0
vt -7.739990234375 7.874020099639893 0
vt -53.14960098266602 -2.167220143297474e-31 0
vt -53.14960098266602 7.874020099639893 0
vt -53.14960098266602 86.43049621582031 0
vt -53.14960098266602 2.664540129539822e-15 0
vt -7.739990234375 3.973750251716327e-16 0
vt -11.81099987030029 86.43049621582031 0
vt -7.874020099639893 2.664540129539822e-15 0
vt -7.874020099639893 86.43049621582031 0
vt -11.81099987030029 2.664540129539822e-15 0
vt -64.96060180664062 2.664540129539822e-15 0
vt -64.96060180664062 86.43049621582031 0
vt -59.05509948730469 97.67070007324219 0
vt -106.2990036010742 58.99689865112305 0
vt -11.81099987030029 46.29970169067383 0
vt -11.81099987030029 58.99689865112305 0
vt -106.2990036010742 46.29970169067383 0
vt -110.2360000610352 -51.33359909057617 0
vt -7.874020099639893 -51.33359909057617 0
vt -7.874020099639893 46.29970169067383 0
vt -110.370002746582 0 0
vt -110.370002746582 7.874020099639893 0
vt -64.96060180664062 1.42956993158868e-30 0
vt -64.96060180664062 7.874020099639893 0
vt -118.1100006103516 1.935980138968122e-30 0
vt -118.1100006103516 118.1100006103516 0
vt -110.370002746582 110.2360000610352 0
vt -88.58270263671875 110.2360000610352 0
vt -88.58270263671875 118.1100006103516 0
vt -110.2360000610352 36.38890075683594 0
vt -118.1100006103516 -31.03499984741211 0
vt -110.2360000610352 -31.03499984741211 0
vt -118.1100006103516 36.38890075683594 0
vt 110.2360000610352 63.1505012512207 0
vt 118.1100006103516 2.664540129539822e-15 0
vt 118.1100006103516 63.1505012512207 0
vt 106.2990036010742 86.43049621582031 0
vt 106.2990036010742 2.664540129539822e-15 0
vt 64.96060180664062 86.43049621582031 0
vt 53.14960098266602 2.664540129539822e-15 0
vt 64.96060180664062 2.664540129539822e-15 0
vt 59.05509948730469 97.67070007324219 0
vt 106.2990036010742 113.9300003051758 0
vt -110.2360000610352 86.43049621582031 0
vt -106.2990036010742 2.664540129539822e-15 0
vt -106.2990036010742 86.43049621582031 0
vt -110.2360000610352 63.1505012512207 0
vt -118.1100006103516 2.664540129539822e-15 0
vt -118.1100006103516 63.1505012512207 0
vt -64.96060180664062 -1.56654999709056e-14 0
vt -53.14960098266602 -1.56654999709056e-14 0
vt -64.96060180664062 63.1505012512207 0
vt -59.05509948730469 78.93810272216797 0
vt -64.96060180664062 101.1620025634766 0
vt -64.96060180664062 112.4029998779297 0
vt -53.14960098266602 112.4029998779297 0
vt -106.2990036010742 101.1620025634766 0
vt -118.1100006103516 112.4029998779297 0
vt -118.1100006103516 101.1620025634766 0
vt -106.2990036010742 112.4029998779297 0
vt 53.14960098266602 112.4029998779297 0
vt 53.14960098266602 101.1620025634766 0
vt 59.05509948730469 112.4029998779297 0
vt -106.2990036010742 114.2750015258789 0
vt -88.66950225830078 75.79779815673828 0
vt -106.2990036010742 126.9720001220703 0
vt -118.1100006103516 3.11405970996638e-14 0
vt -82.64409637451172 57.47159957885742 0
vt -64.31790161132812 63.49689865112305 0
vt -31.6072998046875 77.65570068359375 0
vt 0 1.179399993669178e-15 0
vt -11.81099987030029 114.2750015258789 0
vt 2.898829993321778e-14 114.2750015258789 0
vt 0 1.332270064769911e-15 0
vt 64.96060180664062 101.1620025634766 0
vt -53.14960098266602 0 0
vt -64.96060180664062 11.81099987030029 0
vt -64.96060180664062 0 0
vt -53.14960098266602 11.81099987030029 0
vt 11.81099987030029 2.664540129539822e-15 0
vt 7.874020099639893 86.43049621582031 0
vt 7.874020099639893 2.664540129539822e-15 0
vt 11.81099987030029 86.43049621582031 0
vt 118.1100006103516 1.332270064769911e-15 0
vt 118.1100006103516 -54.93349838256836 0
vt 3.933950079348979e-15 59.34120178222656 0
vt 7.152629962652642e-15 -54.93349838256836 0
vt 11.81099987030029 59.34120178222656 0
vt 11.81099987030029 72.03839874267578 0
vt 106.2990036010742 59.34120178222656 0
vt 118.1100006103516 59.34120178222656 0
vt -118.1100006103516 8.042830182235228e-13 0
vt -88.58270263671875 8.042830182235228e-13 0
vt 118.1100006103516 101.1620025634766 0
vt 106.2990036010742 112.4029998779297 0
vt 106.2990036010742 101.1620025634766 0
vt 118.1100006103516 112.4029998779297 0
vt 64.96060180664062 118.1100006103516 0
vt 59.05509948730469 106.2990036010742 0
vt 64.96060180664062 106.2990036010742 0
vt 53.14960098266602 118.1100006103516 0
vt 53.14960098266602 106.2990036010742 0
vt 64.96060180664062 112.4029998779297 0
vt 106.2990036010742 72.03839874267578 0
vt -11.81099987030029 126.9720001220703 0
vt -27.74099922180176 99.36129760742188 0
vt -50.99700164794922 103.5039978027344 0
vt -54.86330032348633 81.79830169677734 0
vt -70.34329986572266 81.82319641113281 0
vt -59.05509948730469 112.4029998779297 0
vt 0 101.1620025634766 0
vt -11.81099987030029 112.4029998779297 0
vt -11.81099987030029 101.1620025634766 0
vt 0 112.4029998779297 0
vt 11.81099987030029 101.1620025634766 0
vt 11.81099987030029 112.4029998779297 0
vt 59.05509948730469 11.81099987030029 0
vt 64.96060180664062 4.508039788361264e-14 0
vt 64.96060180664062 11.81099987030029 0
vt 53.14960098266602 11.81099987030029 0
vt 53.14960098266602 4.508039788361264e-14 0
vt -118.1100006103516 114.2750015258789 0
vt -64.96060180664062 118.1100006103516 0
vt -53.14960098266602 106.2990036010742 0
vt -53.14960098266602 118.1100006103516 0
vt -64.96060180664062 106.2990036010742 0
vt 110.2360000610352 86.43049621582031 0
vt 88.58270263671875 1.353649993745404e-13 0
vt 64.96060180664062 63.1505012512207 0
vt 110.370002746582 1.340330027955333e-13 0
vt -110.2360000610352 46.29970169067383 0
vt -29.5275993347168 110.2360000610352 0

# 22 vertex normals
vn 0.8852559924125671 -0.4651040136814117 -4.392360286996507e-16
vn 2.302180069979143e-15 -5.140910301660326e-16 1
vn 0.9366179704666138 -0.3503510057926178 5.723460387508023e-16
vn -7.579119786622451e-17 -6.798319892464431e-15 -1
vn 7.177259563176429e-17 -1 -1.884290039173909e-16
vn 0 0 -1
vn -1 0 0
vn -0.8852559924125671 -0.4651040136814117 -5.485690298279861e-16
vn -7.552510378933355e-17 -1 -1.88829001991842e-16
vn -0.9366179704666138 -0.3503510057926178 1.764090108258114e-15
vn 1 0 0
vn 0 0 1
vn -4.812739985861738e-15 1.551939986357535e-16 -1
vn -7.882069918195816e-29 -1.011420019459731e-14 -1
vn -0.8852559924125671 0.4651040136814117 4.828269911433172e-16
vn 0 -1 0
vn 0.8852559924125671 0.4651040136814117 5.361020084810481e-17
vn 0 1 0
vn -0.8852559924125671 0.4651040136814117 -3.469450260676064e-18
vn -0.8852559924125671 0.4651040136814117 1.517879997455052e-16
vn 3.860420120755804e-30 1 4.010620272421327e-16
vn -8.146710370649131e-15 8.114980092928511e-16 1

# Mesh 'Mesh1 Tent_Poles Model' with 17 faces
g Mesh1 Tent_Poles Model
usemtl Green_Roof
f  1/1/1 2/2/1 3/3/1
f  2/2/1 1/1/1 4/4/1
f  4/4/1 1/1/1 5/5/1
f  5/5/1 1/1/1 6/6/1
f  6/6/1 1/1/1 7/7/1
f  8/8/2 7/9/2 1/10/2
f  7/9/2 8/8/2 9/11/2
f  10/12/3 9/13/3 8/14/3
f  9/13/3 10/12/3 11/15/3
f  10/16/4 12/17/4 11/18/4
f  12/17/4 10/16/4 13/19/4
f  1/20/5 13/21/5 10/22/5
f  13/21/5 1/20/5 14/23/5
f  3/24/5 14/23/5 1/20/5
f  14/23/5 3/24/5 15/25/5
f  15/25/5 3/24/5 16/26/5
f  2/27/6 16/28/6 3/29/6

# Mesh 'Wood' with 5 faces
g Wood
usemtl Wood
f  4/30/7 16/31/7 2/32/7
f  16/31/7 4/30/7 17/33/7
f  4/27/6 18/34/6 17/28/6
f  18/34/6 4/27/6 19/35/6
f  19/35/6 4/27/6 5/36/6

# Mesh 'Green_Roof' with 14 faces
g Green_Roof
usemtl Green_Roof
f  20/37/8 19/38/8 5/39/8
f  21/40/8 19/38/8 20/37/8
f  22/41/8 19/38/8 21/40/8
f  23/42/8 19/38/8 22/41/8
f  19/38/8 23/42/8 24/43/8
f  24/35/6 23/44/6 25/34/6
f  23/45/9 26/46/9 25/47/9
f  26/46/9 23/45/9 27/48/9
f  27/48/9 23/45/9 28/49/9
f  22/50/9 28/49/9 23/45/9
f  29/51/9 28/49/9 22/50/9
f  28/49/9 29/51/9 30/52/9
f  31/53/10 30/54/10 29/55/10
f  30/54/10 31/53/10 32/56/10

# Mesh 'Wood' with 6 faces
g Wood
usemtl Wood
f  31/57/11 33/58/11 32/59/11
f  21/60/11 33/58/11 31/57/11
f  33/58/11 21/60/11 34/61/11
f  21/62/12 35/63/12 34/64/12
f  35/63/12 21/62/12 6/9/12
f  6/9/12 21/62/12 20/65/12

# Mesh 'Green_Roof' with 1 faces
g Green_Roof
usemtl Green_Roof
f  20/66/1 5/5/1 6/6/1

# Mesh 'Wood' with 7 faces
g Wood
usemtl Wood
f  7/67/7 35/68/7 6/69/7
f  35/68/7 7/67/7 9/70/7
f  35/68/7 9/70/7 36/71/7
f  36/71/7 9/70/7 11/72/7
f  11/18/13 33/73/13 36/74/13
f  33/73/13 11/18/13 32/75/13
f  32/75/13 11/18/13 37/76/13

# Mesh 'Green_Roof' with 2 faces
g Green_Roof
usemtl Green_Roof
f  11/18/4 12/17/4 37/76/4
f  37/76/4 12/17/4 38/77/4

# Mesh 'Wood' with 5 faces
g Wood
usemtl Wood
f  12/17/14 39/78/14 38/77/14
f  39/78/14 12/17/14 40/79/14
f  41/80/7 40/81/7 12/82/7
f  40/81/7 41/80/7 42/83/7
f  42/84/12 41/85/12 43/86/12

# Mesh 'Green_Roof' with 9 faces
g Green_Roof
usemtl Green_Roof
f  41/87/15 44/88/15 43/89/15
f  13/90/15 44/88/15 41/87/15
f  13/90/15 45/91/15 44/88/15
f  13/90/15 46/92/15 45/91/15
f  13/90/15 47/93/15 46/92/15
f  14/94/15 47/93/15 13/90/15
f  14/94/15 48/95/15 47/93/15
f  48/95/15 14/94/15 49/96/15
f  49/85/12 14/97/12 15/63/12

# Mesh 'Wood' with 8 faces
g Wood
usemtl Wood
f  15/63/12 50/98/12 49/85/12
f  50/98/12 15/63/12 26/64/12
f  15/99/16 18/100/16 26/101/16
f  16/26/16 18/100/16 15/99/16
f  18/100/16 16/26/16 17/102/16
f  26/101/16 18/100/16 25/47/16
f  18/103/11 24/104/11 25/105/11
f  24/104/11 18/103/11 19/106/11

# Mesh 'Green_Roof' with 9 faces
g Green_Roof
usemtl Green_Roof
f  50/98/12 26/64/12 27/107/12
f  28/108/17 50/109/17 27/110/17
f  50/109/17 28/108/17 51/111/17
f  51/111/17 28/108/17 52/112/17
f  52/112/17 28/108/17 53/113/17
f  53/113/17 28/108/17 38/114/17
f  28/115/4 32/75/4 38/77/4
f  32/75/4 28/115/4 30/116/4
f  38/77/4 32/75/4 37/76/4

# Mesh 'Wood' with 6 faces
g Wood
usemtl Wood
f  38/117/11 54/118/11 53/119/11
f  54/118/11 38/117/11 39/120/11
f  39/121/18 43/122/18 54/123/18
f  40/124/18 43/122/18 39/121/18
f  43/122/18 40/124/18 42/125/18
f  43/86/12 53/98/12 54/126/12

# Mesh 'Green_Roof' with 7 faces
g Green_Roof
usemtl Green_Roof
f  43/127/17 52/112/17 53/113/17
f  43/89/15 48/95/15 52/128/15
f  48/95/15 43/89/15 55/129/15
f  55/129/15 43/89/15 56/130/15
f  56/130/15 43/89/15 57/131/15
f  57/131/15 43/89/15 58/132/15
f  58/132/15 43/89/15 44/88/15

# Mesh 'Leafs' with 2 faces
g Leafs
usemtl Leafs
f  45/91/19 58/132/19 44/88/19
f  58/132/19 45/91/19 46/92/19

# Mesh 'Green_Roof' with 2 faces
g Green_Roof
usemtl Green_Roof
f  57/131/15 58/132/15 46/92/15
f  46/92/15 47/93/15 57/131/15

# Mesh 'Leafs' with 2 faces
g Leafs
usemtl Leafs
f  47/93/20 56/130/20 57/131/20
f  56/130/20 47/93/20 55/129/20

# Mesh 'Green_Roof' with 1 faces
g Green_Roof
usemtl Green_Roof
f  47/93/15 48/95/15 55/129/15

# Mesh 'Wood' with 11 faces
g Wood
usemtl Wood
f  52/133/6 48/17/6 59/79/6
f  49/134/7 59/135/7 48/136/7
f  59/135/7 49/134/7 60/137/7
f  49/85/12 50/98/12 60/84/12
f  60/84/12 50/98/12 61/126/12
f  51/138/11 61/137/11 50/134/11
f  61/137/11 51/138/11 62/139/11
f  52/133/6 62/78/6 51/77/6
f  52/140/21 61/141/21 62/142/21
f  59/143/21 61/141/21 52/140/21
f  61/141/21 59/143/21 60/144/21

# Mesh 'Green_Roof' with 1 faces
g Green_Roof
usemtl Green_Roof
f  13/90/15 41/87/15 12/145/15

# Mesh 'Wood' with 3 faces
g Wood
usemtl Wood
f  33/146/16 35/147/16 36/148/16
f  35/147/16 33/146/16 34/149/16
f  21/60/11 31/57/11 63/150/11

# Mesh 'Green_Roof' with 4 faces
g Green_Roof
usemtl Green_Roof
f  29/151/22 63/62/22 31/152/22
f  63/62/22 29/151/22 22/153/22
f  22/41/8 21/40/8 63/154/8
f  1/20/5 10/22/5 8/155/5

