# File produced by Open Asset Import Library (http://www.assimp.sf.net)
# (assimp v4.1.908865877)

mtllib naturePack_156.mtl

# 42 vertex positions
v  -0.6100000143051147 3.880670070648193 -0.3056650161743164
v  0.6099998950958252 1.845720052719116 -0.6742650270462036
v  -0.6100000143051147 1.845720052719116 -0.6742650270462036
v  0.6099998950958252 3.880670070648193 -0.3056650161743164
v  -0.6100000143051147 3.880670070648193 -0.02506601810455322
v  0.6099998950958252 3.880670070648193 -0.02506601810455322
v  1.220000028610229 3.880670070648193 -0.3056650161743164
v  0.9149999618530273 3.880670070648193 -0.02506601810455322
v  1.220000028610229 3.880670070648193 0.3929300010204315
v  0.9272000789642334 5.269999980926514 -0.03228598833084106
v  0.9272000789642334 5.269999980926514 0.6559320092201233
v  1.220000028610229 3.880670070648193 0.8109250068664551
v  0.6779599189758301 5.269999980926514 0.8109250068664551
v  -1.220000028610229 3.880670070648193 0.8109250068664551
v  -1.220000028610229 0.2419909983873367 0.8109250068664551
v  1.220000028610229 0.2419909983873367 0.8109250068664551
v  -1.061400055885315 0 0.6782000064849854
v  1.061399936676025 0 0.6782000064849854
v  1.061399936676025 0 -0.671334981918335
v  -1.061400055885315 0 -0.671334981918335
v  -1.220000028610229 0.2419909983873367 -0.8109250068664551
v  1.220000028610229 0.2419909983873367 -0.8109250068664551
v  -1.220000028610229 1.126760005950928 -0.7355349063873291
v  1.220000028610229 1.126760005950928 -0.7355349063873291
v  1.220000028610229 1.20290994644165 -0.5894849300384521
v  -1.220000028610229 1.20290994644165 -0.5894849300384521
v  -1.220000028610229 3.880670070648193 0.3929300010204315
v  -0.9272000193595886 5.269999980926514 0.6559320092201233
v  -0.9272000193595886 5.269999980926514 -0.03228598833084106
v  -0.6779630184173584 5.269999980926514 0.8109250068664551
v  -0.6779630184173584 5.269999980926514 -0.1872789859771729
v  0.6779599189758301 5.269999980926514 -0.1872789859771729
v  -1.220000028610229 3.880670070648193 -0.3056650161743164
v  -0.9150000214576721 3.880670070648193 -0.02506601810455322
v  -1.220000028610229 1.845720052719116 -0.6742650270462036
v  -1.220000028610229 1.41332995891571 -0.5642149448394775
v  -1.220000028610229 1.541409969329834 -0.6249350309371948
v  -1.220000028610229 1.565119981765747 -0.6981749534606934
v  1.220000028610229 1.565119981765747 -0.6981749534606934
v  1.220000028610229 1.845720052719116 -0.6742650270462036
v  1.220000028610229 1.41332995891571 -0.5642149448394775
v  1.220000028610229 1.541409969329834 -0.6249350309371948

# 143 UV coordinates
vt -24.01569938659668 142.5010070800781 0
vt -72.04720306396484 61.08100128173828 0
vt -24.01569938659668 61.08100128173828 0
vt -72.04720306396484 142.5010070800781 0
vt -72.04720306396484 43.96030044555664 0
vt -24.01569938659668 32.91299819946289 0
vt -24.01569938659668 43.96030044555664 0
vt -72.04720306396484 32.91299819946289 0
vt 58.47209930419922 72.66629791259766 0
vt 43.96030044555664 152.7819976806641 0
vt 32.91299819946289 152.7819976806641 0
vt -96.06300354003906 43.96030044555664 0
vt -84.05509948730469 32.91299819946289 0
vt -96.06300354003906 16.45649909973145 0
vt 33.19729995727539 185.5879974365234 0
vt 16.45649909973145 129.6880035400391 0
vt 43.96030044555664 129.6880035400391 0
vt 6.102099895477295 185.5879974365234 0
vt -8.790060057934268e-16 129.6880035400391 0
vt 63.45399856567383 195.2489929199219 0
vt 81.57579803466797 139.4029998779297 0
vt 75.00910186767578 195.2489929199219 0
vt 0 152.7819976806641 0
vt 96.06300354003906 152.7819976806641 0
vt 74.722900390625 207.4799957275391 0
vt 0 9.527199745178223 0
vt 96.06300354003906 9.527199745178223 0
vt 6.24409008026123 -2.512840032577515 0
vt 96.06300354003906 8.353269577026367 0
vt 3.130940076737908e-32 8.353269577026367 0
vt 89.81890106201172 -2.512840032577515 0
vt -6.24409008026123 5.225399971008301 0
vt -89.81890106201172 58.35660171508789 0
vt -89.81890106201172 5.225399971008301 0
vt -6.24409008026123 58.35660171508789 0
vt -5.225399971008301 -3.422749996185303 0
vt -63.85229873657227 7.968309879302979 0
vt -58.35660171508789 -3.422749996185303 0
vt -1.136870003519419e-13 7.968309879302979 0
vt -96.06300354003906 63.85229873657227 0
vt 0 1.136870003519419e-13 0
vt 0 63.85229873657227 0
vt -96.06300354003906 1.136870003519419e-13 0
vt 5.225399971008301 49.23490142822266 0
vt 63.85229873657227 60.62599945068359 0
vt 1.138000013233692e-13 60.62599945068359 0
vt 58.35660171508789 49.23490142822266 0
vt -89.81890106201172 29.15900039672852 0
vt 8.95903025998117e-18 40.15760040283203 0
vt -96.06300354003906 40.15760040283203 0
vt -6.24409008026123 29.15900039672852 0
vt 3.600339969732358e-14 39.03120040893555 0
vt -96.06300354003906 4.071489810943604 0
vt 3.775860104183321e-14 4.071489810943604 0
vt -96.06300354003906 39.03120040893555 0
vt 1.081009942476528e-13 -33.47769927978516 0
vt -96.06300354003906 -26.99340057373047 0
vt -96.06300354003906 -33.47769927978516 0
vt 9.78923973132817e-14 -26.99340057373047 0
vt -63.85229873657227 9.527199745178223 0
vt -55.13430023193359 47.35850143432617 0
vt -60.88410186767578 44.36059951782227 0
vt -16.45649909973145 152.7819976806641 0
vt -1.136870003519419e-13 9.527199745178223 0
vt -6.102099895477295 205.3979949951172 0
vt -16.45649909973145 149.4989929199219 0
vt 0 149.4989929199219 0
vt -33.19729995727539 205.3979949951172 0
vt 21.34000015258789 0 0
vt 11.52760028839111 33.19729995727539 0
vt 11.52760028839111 6.102099895477295 0
vt 21.34000015258789 39.29940032958984 0
vt 74.722900390625 0 0
vt 21.34000015258789 207.4799957275391 0
vt 6.566649913787842 205.4859924316406 0
vt 1.776360015773803e-15 149.6390075683594 0
vt 18.12179946899414 205.4859924316406 0
vt 74.722900390625 39.29940032958984 0
vt 84.535400390625 6.102099895477295 0
vt 84.535400390625 33.19729995727539 0
vt -54.25559997558594 180.3459930419922 0
vt -58.36090087890625 123.568000793457 0
vt -42.70050048828125 180.3459930419922 0
vt -96.06300354003906 148.4980010986328 0
vt -21.34000015258789 203.3939971923828 0
vt -74.722900390625 203.3939971923828 0
vt -72.04720306396484 148.4980010986328 0
vt -24.01569938659668 148.4980010986328 0
vt -6.705100237319731e-17 148.4980010986328 0
vt -12.00790023803711 32.91299819946289 0
vt 0 43.96030044555664 0
vt 0 16.45649909973145 0
vt -47.23450088500977 59.24610137939453 0
vt -13.29380035400391 143.1029968261719 0
vt -33.66550064086914 143.1029968261719 0
vt -58.47209930419922 72.66629791259766 0
vt -54.13959884643555 55.64279937744141 0
vt -56.52980041503906 60.68529891967773 0
vt -59.41350173950195 61.61880111694336 0
vt 0 67.43939971923828 0
vt -96.06300354003906 56.35189819335938 0
vt 0 56.35189819335938 0
vt -96.06300354003906 67.43939971923828 0
vt -24.01569938659668 67.43939971923828 0
vt -12.00790023803711 135.5509948730469 0
vt -24.01569938659668 51.45709991455078 0
vt -9.384899744813678e-15 51.45709991455078 0
vt -24.01569938659668 135.5509948730469 0
vt -32.91299819946289 152.7819976806641 0
vt -43.96030044555664 152.7819976806641 0
vt -72.04720306396484 51.45709991455078 0
vt -72.04720306396484 135.5509948730469 0
vt -96.06300354003906 51.45709991455078 0
vt -84.05509948730469 135.5509948730469 0
vt -9.388779640197754 36.32799911499023 0
vt -22.95779991149902 120.1849975585938 0
vt -43.32949829101562 120.1849975585938 0
vt 54.13959884643555 55.64279937744141 0
vt 16.45649909973145 152.7819976806641 0
vt 56.52980041503906 60.68529891967773 0
vt -96.06300354003906 73.46970367431641 0
vt 0 79.05010223388672 0
vt -96.06300354003906 79.05010223388672 0
vt 0 73.46970367431641 0
vt -96.06300354003906 40.4473991394043 0
vt 4.276080154568852e-14 48.79119873046875 0
vt -96.06300354003906 48.79119873046875 0
vt 4.354649914316625e-14 40.4473991394043 0
vt 55.13430023193359 47.35850143432617 0
vt 63.85229873657227 9.527199745178223 0
vt 4.315609826964495e-13 9.527199745178223 0
vt 3.178740094495619e-13 152.7819976806641 0
vt 60.88410186767578 44.36059951782227 0
vt -2.829259940300361e-28 72.47190093994141 0
vt -96.06300354003906 75.50289916992188 0
vt -96.06300354003906 72.47190093994141 0
vt -2.97358985255647e-28 75.50289916992188 0
vt 59.41350173950195 61.61880111694336 0
vt -72.04720306396484 67.43939971923828 0
vt -43.96030044555664 149.4989929199219 0
vt -38.87519836425781 193.9510040283203 0
vt -23.21479988098145 137.1739959716797 0
vt -27.32010078430176 193.9510040283203 0

# 29 vertex normals
vn -1.482149997070273e-17 0.1782349944114685 -0.9839879870414734
vn 0 -1 0
vn 1 0 0
vn 0.9785060286521912 0.2062200009822845 -8.953631252123036e-18
vn 0.5172230005264282 0.2017920017242432 0.8317210078239441
vn 0 -6.186810173666583e-16 1
vn 2.429510109177966e-19 -0.4808900058269501 0.8767809867858887
vn -0.8363749980926514 -0.5481569766998291 1.783880131443843e-18
vn 0.8363749980926514 -0.5481569766998291 9.868299862933654e-19
vn 1.215379963692373e-19 -0.4996689856052399 -0.8662160038948059
vn 5.89206970719728e-16 0.08490390330553055 -0.9963889718055725
vn 8.20864976079622e-16 0.8867120146751404 -0.4623219966888428
vn -1 0 0
vn -0.9785060286521912 0.2062200009822845 -8.953631252123036e-18
vn 0 1 0
vn -0.5172230005264282 0.2017920017242432 0.8317210078239441
vn 0.508741021156311 0.2681919932365417 -0.8180810213088989
vn -1.519760121084742e-18 0.08490390330553055 -0.9963889718055725
vn -0.7717800140380859 0.2953329980373383 -0.5631470084190369
vn 0 0.08490390330553055 -0.9963889718055725
vn -1.529089949116371e-16 0.3039340078830719 -0.952692985534668
vn 0 0.3039340078830719 -0.952692985534668
vn 3.058190221446786e-16 0.3039340078830719 -0.952692985534668
vn 0.7717800140380859 0.2953329980373383 -0.5631470084190369
vn 1 -2.622849961969354e-16 3.309019970534834e-15
vn 0 -0.4283330142498016 -0.9036210179328918
vn 7.841930022656023e-16 0.1192229986190796 -0.9928669929504395
vn -1.541409943589191e-30 -0.9513930082321167 -0.3079800009727478
vn -0.508741021156311 0.2681919932365417 -0.8180810213088989

# Mesh 'Mesh1 Group1 Model' with 86 faces
g Mesh1 Group1 Model
usemtl Stone
f  1/1/1 2/2/1 3/3/1
f  2/2/1 1/1/1 4/4/1
f  4/5/2 5/6/2 1/7/2
f  5/6/2 4/5/2 6/8/2
f  2/9/3 4/10/3 6/11/3
f  7/12/2 6/8/2 4/5/2
f  6/8/2 7/12/2 8/13/2
f  8/13/2 7/12/2 9/14/2
f  10/15/4 9/16/4 7/17/4
f  11/18/4 9/16/4 10/15/4
f  9/16/4 11/18/4 12/19/4
f  13/20/5 12/21/5 11/22/5
f  14/23/6 12/24/6 13/25/6
f  15/26/6 12/24/6 14/23/6
f  12/24/6 15/26/6 16/27/6
f  17/28/7 16/29/7 15/30/7
f  16/29/7 17/28/7 18/31/7
f  17/32/2 19/33/2 18/34/2
f  19/33/2 17/32/2 20/35/2
f  17/36/8 21/37/8 20/38/8
f  21/37/8 17/36/8 15/39/8
f  22/40/2 15/41/2 21/42/2
f  15/41/2 22/40/2 16/43/2
f  18/44/9 22/45/9 16/46/9
f  22/45/9 18/44/9 19/47/9
f  19/48/10 21/49/10 22/50/10
f  21/49/10 19/48/10 20/51/10
f  23/52/11 22/53/11 21/54/11
f  22/53/11 23/52/11 24/55/11
f  23/56/12 25/57/12 24/58/12
f  25/57/12 23/56/12 26/59/12
f  21/60/13 26/61/13 23/62/13
f  21/60/13 27/63/13 26/61/13
f  15/64/13 27/63/13 21/60/13
f  27/63/13 15/64/13 14/23/13
f  28/65/14 27/66/14 14/67/14
f  27/66/14 28/65/14 29/68/14
f  30/69/15 29/70/15 28/71/15
f  29/70/15 30/69/15 31/72/15
f  31/72/15 30/69/15 13/73/15
f  14/23/6 13/25/6 30/74/6
f  28/75/16 14/76/16 30/77/16
f  31/72/15 13/73/15 32/78/15
f  32/78/15 13/73/15 11/79/15
f  32/78/15 11/79/15 10/80/15
f  10/81/17 7/82/17 32/83/17
f  7/84/18 31/85/18 32/86/18
f  4/87/18 31/85/18 7/84/18
f  1/88/18 31/85/18 4/87/18
f  31/85/18 1/88/18 33/89/18
f  34/90/2 33/91/2 1/7/2
f  33/91/2 34/90/2 27/92/2
f  35/93/19 27/94/19 34/95/19
f  35/96/13 36/97/13 27/63/13
f  36/97/13 35/96/13 37/98/13
f  37/98/13 35/96/13 38/99/13
f  35/100/20 39/101/20 38/102/20
f  39/101/20 35/100/20 40/103/20
f  40/103/20 35/100/20 3/104/20
f  34/105/21 3/106/21 35/107/21
f  3/106/21 34/105/21 5/108/21
f  34/90/2 1/7/2 5/6/2
f  3/96/13 5/109/13 1/110/13
f  5/108/22 2/111/22 3/106/22
f  2/111/22 5/108/22 6/112/22
f  6/112/23 40/113/23 2/111/23
f  40/113/23 6/112/23 8/114/23
f  40/115/24 8/116/24 9/117/24
f  41/118/25 40/9/25 9/119/25
f  40/9/25 41/118/25 42/120/25
f  41/121/26 37/122/26 42/123/26
f  37/122/26 41/121/26 36/124/26
f  25/125/27 36/126/27 41/127/27
f  36/126/27 25/125/27 26/128/27
f  26/61/13 27/63/13 36/97/13
f  9/119/25 25/129/25 41/118/25
f  9/119/25 22/130/25 25/129/25
f  9/119/25 16/131/25 22/130/25
f  16/131/25 9/119/25 12/132/25
f  25/129/25 22/130/25 24/133/25
f  37/134/28 39/135/28 42/136/28
f  39/135/28 37/134/28 38/137/28
f  40/9/25 42/120/25 39/138/25
f  40/103/20 3/104/20 2/139/20
f  27/66/14 29/68/14 33/140/14
f  31/141/29 33/142/29 29/143/29

