# File produced by Open Asset Import Library (http://www.assimp.sf.net)
# (assimp v4.1.908865877)

mtllib naturePack_114.mtl

# 29 vertex positions
v  -0.4130000472068787 1.095867991447449 -0.4129999876022339
v  0.5900000333786011 0.4958679974079132 -0.5900000333786011
v  -0.5900000333786011 0.4958679974079132 -0.5900000333786011
v  0.4129999876022339 1.095867991447449 -0.4129999876022339
v  0.5073999166488647 1.095867991447449 -0.5073999166488647
v  -0.5074000358581543 1.095867991447449 -0.5073999166488647
v  -0.5074000358581543 1.095867991447449 0.5074000358581543
v  -0.4130000472068787 1.095867991447449 0.4130000472068787
v  0.5073999166488647 1.095867991447449 0.5074000358581543
v  0.4129999876022339 1.095867991447449 0.4130000472068787
v  -0.5900000333786011 0.4958679974079132 0.5900000333786011
v  0.5900000333786011 0.4958679974079132 0.5900000333786011
v  -0.1966970264911652 0.4958679974079132 0.1966970264911652
v  -0.1966970264911652 0.4958679974079132 -0.196696937084198
v  0.196696937084198 0.4958679974079132 -0.196696937084198
v  0.196696937084198 0.4958679974079132 0.1966970264911652
v  -0.247838020324707 0 -0.2478379607200623
v  -0.247838020324707 0 0.247838020324707
v  0.2478379607200623 0 -0.2478379607200623
v  0.2478379607200623 0 0.247838020324707
v  0.3551799654960632 1.838907957077026 0.355180025100708
v  0.3551799654960632 1.838907957077026 -0.3551799654960632
v  -0.355180025100708 1.838907957077026 -0.3551799654960632
v  -0.355180025100708 1.838907957077026 0.355180025100708
v  0.4363600015640259 1.838907957077026 0.4363640546798706
v  -0.4363640546798706 1.838907957077026 0.4363640546798706
v  -0.4363640546798706 1.838907957077026 -0.4363600015640259
v  0.4363600015640259 1.838907957077026 -0.4363600015640259
v  -5.960464477539062e-08 3.158907890319824 5.960464477539062e-08

# 86 UV coordinates
vt -6.968500137329102 11.48379993438721 0
vt -46.45669937133789 -13.144700050354 0
vt 3.859610179793646e-16 -13.144700050354 0
vt -39.48820114135742 11.48379993438721 0
vt -6.968500137329102 39.48820114135742 0
vt -43.2047004699707 43.2047004699707 0
vt -39.48820114135742 39.48820114135742 0
vt -3.251970052719116 43.2047004699707 0
vt -3.251970052719116 3.251970052719116 0
vt -6.968500137329102 6.968500137329102 0
vt -43.2047004699707 3.251970052719116 0
vt -39.48820114135742 6.968500137329102 0
vt 0 0 0
vt 39.48820114135742 24.62849998474121 0
vt 6.968500137329102 24.62849998474121 0
vt 46.45669937133789 -1.092059991258064e-16 0
vt -15.48439979553223 15.48439979553223 0
vt -46.45669937133789 0 0
vt -15.48439979553223 30.97229957580566 0
vt 0 46.45669937133789 0
vt -46.45669937133789 46.45669937133789 0
vt -30.97229957580566 30.97229957580566 0
vt -30.97229957580566 15.48439979553223 0
vt -32.98580169677734 -18.03739929199219 0
vt -15.48439979553223 1.588549971580505 0
vt -30.97229957580566 1.588549971580505 0
vt -13.47089958190918 -18.03739929199219 0
vt -32.98580169677734 32.98580169677734 0
vt -13.47089958190918 13.47089958190918 0
vt -13.47089958190918 32.98580169677734 0
vt -32.98580169677734 13.47089958190918 0
vt 32.98580169677734 -22.80340003967285 0
vt 15.48439979553223 -3.177469968795776 0
vt 13.47089958190918 -22.80340003967285 0
vt 30.97229957580566 -3.177469968795776 0
vt -32.98580169677734 -22.80340003967285 0
vt -15.48439979553223 -3.177469968795776 0
vt -30.97229957580566 -3.177469968795776 0
vt -13.47089958190918 -22.80340003967285 0
vt 30.97229957580566 1.588549971580505 0
vt 13.47089958190918 -18.03739929199219 0
vt 32.98580169677734 -18.03739929199219 0
vt 15.48439979553223 1.588549971580505 0
vt 46.45669937133789 -13.144700050354 0
vt 6.968500137329102 11.48379993438721 0
vt 7.801340203823597e-17 -13.144700050354 0
vt 39.48820114135742 11.48379993438721 0
vt 43.2047004699707 14.47049999237061 0
vt 9.244879722595215 44.33160018920898 0
vt 3.251970052719116 14.47049999237061 0
vt 37.21179962158203 44.33160018920898 0
vt -43.2047004699707 14.47049999237061 0
vt -9.244879722595215 44.33160018920898 0
vt -37.21179962158203 44.33160018920898 0
vt -3.251970052719116 14.47049999237061 0
vt -43.2047004699707 23.79409980773926 0
vt -9.244879722595215 53.65520095825195 0
vt -37.21179962158203 53.65520095825195 0
vt -3.251970052719116 23.79409980773926 0
vt 3.251970052719116 23.79409980773926 0
vt 37.21179962158203 53.65520095825195 0
vt 9.244879722595215 53.65520095825195 0
vt 43.2047004699707 23.79409980773926 0
vt -40.40800094604492 6.048659801483154 0
vt -9.244879722595215 9.244879722595215 0
vt -37.21179962158203 9.244879722595215 0
vt -6.048659801483154 6.048659801483154 0
vt -9.244879722595215 37.21179962158203 0
vt -6.048659801483154 40.40800094604492 0
vt -40.40800094604492 40.40800094604492 0
vt -23.22830009460449 92.25499725341797 0
vt -40.40800094604492 37.52050018310547 0
vt -6.048659801483154 37.52050018310547 0
vt 40.40800094604492 37.52050018310547 0
vt 23.22830009460449 92.25499725341797 0
vt 6.048659801483154 37.52050018310547 0
vt 23.22830009460449 106.8369979858398 0
vt 6.048659801483154 52.10200119018555 0
vt 40.40800094604492 52.10200119018555 0
vt -40.40800094604492 52.10200119018555 0
vt -6.048659801483154 52.10200119018555 0
vt -23.22830009460449 106.8369979858398 0
vt -37.21179962158203 37.21179962158203 0
vt -6.968500137329102 24.62849998474121 0
vt -46.45669937133789 9.061759640051478e-17 0
vt -39.48820114135742 24.62849998474121 0

# 17 vertex normals
vn 7.968480649268307e-18 0.2829450070858002 -0.9591360092163086
vn 0 -1 0
vn 7.968480649268307e-18 0.2829450070858002 0.9591360092163086
vn -0.9947239756584167 0.1025910004973412 -5.808070591327316e-18
vn 0.9947239756584167 0.1025910004973412 6.089299902078887e-19
vn 9.370839646398857e-19 0.1025910004973412 -0.9947239756584167
vn 7.35408066876597e-18 0.1025910004973412 0.9947239756584167
vn 0.9591360092163086 0.2829450070858002 1.610650106406609e-18
vn 0.9796540141105652 0.2006929963827133 -1.443720095709733e-18
vn -3.998000474123973e-18 0.2006929963827133 -0.9796540141105652
vn -0.9796540141105652 0.2006929963827133 -1.443720095709733e-18
vn -3.998000474123973e-18 0.2006929963827133 0.9796540141105652
vn -2.059129981021936e-17 0.3138729929924011 -0.9494649767875671
vn 0.9494649767875671 0.3138729929924011 0
vn -2.059129981021936e-17 0.3138729929924011 0.9494649767875671
vn -0.9494649767875671 0.3138729929924011 0
vn -0.9591360092163086 0.2829450070858002 6.612140604746225e-18

# Mesh 'Mesh1 Tree Model' with 20 faces
g Mesh1 Tree Model
usemtl Leafs
f  1/1/1 2/2/1 3/3/1
f  2/2/1 1/1/1 4/4/1
f  1/5/2 5/6/2 4/7/2
f  1/5/2 6/8/2 5/6/2
f  6/8/2 1/5/2 7/9/2
f  8/10/2 7/9/2 1/5/2
f  7/9/2 8/10/2 9/11/2
f  9/11/2 8/10/2 10/12/2
f  11/13/3 10/14/3 8/15/3
f  10/14/3 11/13/3 12/16/3
f  11/13/2 13/17/2 12/18/2
f  13/17/2 11/13/2 14/19/2
f  3/20/2 14/19/2 11/13/2
f  14/19/2 3/20/2 2/21/2
f  14/19/2 2/21/2 15/22/2
f  15/22/2 2/21/2 16/23/2
f  12/18/2 16/23/2 2/21/2
f  12/18/2 13/17/2 16/23/2
f  13/17/2 15/22/2 16/23/2
f  15/22/2 13/17/2 14/19/2

# Mesh 'Wood' with 10 faces
g Wood
usemtl Wood
f  17/24/4 13/25/4 14/26/4
f  13/25/4 17/24/4 18/27/4
f  19/28/2 18/29/2 17/30/2
f  18/29/2 19/28/2 20/31/2
f  19/32/5 16/33/5 20/34/5
f  16/33/5 19/32/5 15/35/5
f  19/36/6 14/37/6 15/38/6
f  14/37/6 19/36/6 17/39/6
f  16/40/7 18/41/7 20/42/7
f  18/41/7 16/40/7 13/43/7

# Mesh 'Leafs' with 26 faces
g Leafs
usemtl Leafs
f  2/44/8 10/45/8 12/46/8
f  10/45/8 2/44/8 4/47/8
f  4/7/2 5/6/2 10/12/2
f  9/11/2 10/12/2 5/6/2
f  5/48/9 21/49/9 9/50/9
f  21/49/9 5/48/9 22/51/9
f  5/52/10 23/53/10 22/54/10
f  23/53/10 5/52/10 6/55/10
f  6/56/11 24/57/11 23/58/11
f  24/57/11 6/56/11 7/59/11
f  7/60/12 21/61/12 24/62/12
f  21/61/12 7/60/12 9/63/12
f  25/64/2 24/65/2 21/66/2
f  26/67/2 24/65/2 25/64/2
f  24/65/2 26/67/2 23/68/2
f  27/69/2 23/68/2 26/67/2
f  23/68/2 27/69/2 28/70/2
f  29/71/13 28/72/13 27/73/13
f  28/74/14 29/75/14 25/76/14
f  29/77/15 26/78/15 25/79/15
f  27/80/16 26/81/16 29/82/16
f  25/64/2 21/66/2 28/70/2
f  22/83/2 28/70/2 21/66/2
f  23/68/2 28/70/2 22/83/2
f  8/84/17 3/85/17 11/13/17
f  3/85/17 8/84/17 1/86/17

