# File produced by Open Asset Import Library (http://www.assimp.sf.net)
# (assimp v4.1.908865877)

mtllib naturePack_041.mtl

# 80 vertex positions
v  -0.125433474779129 0.239999994635582 -0.07078398764133453
v  -0.125433474779129 0 0.01461601257324219
v  -0.125433474779129 0.239999994635582 0.01461601257324219
v  -0.125433474779129 0 -0.07078398764133453
v  -0.04003347456455231 0 -0.07078398764133453
v  -0.04003347456455231 0.239999994635582 -0.07078398764133453
v  -0.04003347456455231 0.239999994635582 0.01461601257324219
v  -0.04003347456455231 0 0.01461601257324219
v  -0.3454334735870361 0.4799999892711639 -0.07078398764133453
v  -0.3454334735870361 0 0.01461601257324219
v  -0.3454334735870361 0.4799999892711639 0.01461601257324219
v  -0.3454334735870361 0 -0.07078398764133453
v  -0.2600334882736206 0 -0.07078398764133453
v  -0.2600334882736206 0.4799999892711639 -0.07078398764133453
v  -0.2600334882736206 0.4799999892711639 0.01461601257324219
v  -0.2600334882736206 0 0.01461601257324219
v  -0.1545311808586121 3.567290109971123e-16 -0.2751590013504028
v  -0.1545311808586121 0.2000000029802322 -0.1897589862346649
v  -0.1545311808586121 3.567290109971123e-16 -0.1897589862346649
v  -0.1545311808586121 0.2000000029802322 -0.2751590013504028
v  -0.2399314641952515 0.2000000029802322 -0.2751590013504028
v  -0.2399314641952515 3.567290109971123e-16 -0.2751590013504028
v  -0.2399314641952515 3.567290109971123e-16 -0.1897589862346649
v  -0.2399314641952515 0.2000000029802322 -0.1897589862346649
v  0.1993735134601593 3.609689932332713e-16 -0.1672169864177704
v  0.1993735134601593 0.1899999976158142 -0.08181698620319366
v  0.1993735134601593 3.609689932332713e-16 -0.08181698620319366
v  0.1993735134601593 0.1899999976158142 -0.1672169864177704
v  0.1139735281467438 0.1899999976158142 -0.1672169864177704
v  0.1139735281467438 3.609689932332713e-16 -0.1672169864177704
v  0.1139735281467438 3.609689932332713e-16 -0.08181698620319366
v  0.1139735281467438 0.1899999976158142 -0.08181698620319366
v  0.08471652865409851 3.609550171896416e-16 0.09737501293420792
v  0.08471652865409851 0.4799999892711639 0.182775005698204
v  0.08471652865409851 3.609550171896416e-16 0.182775005698204
v  0.08471652865409851 0.4799999892711639 0.09737501293420792
v  -0.0006834715604782104 0.4799999892711639 0.09737501293420792
v  -0.0006834715604782104 3.609550171896416e-16 0.09737501293420792
v  -0.0006834715604782104 3.609550171896416e-16 0.182775005698204
v  -0.0006834715604782104 0.4799999892711639 0.182775005698204
v  0.1028355211019516 0 -0.4360799789428711
v  0.1028355211019516 0.09000000357627869 -0.3506799936294556
v  0.1028355211019516 0 -0.3506799936294556
v  0.1028355211019516 0.09000000357627869 -0.4360799789428711
v  0.01743552088737488 0.09000000357627869 -0.4360799789428711
v  0.01743552088737488 0 -0.4360799789428711
v  0.01743552088737488 0 -0.3506799936294556
v  0.01743552088737488 0.09000000357627869 -0.3506799936294556
v  0.3993315398693085 0 0.1838470101356506
v  0.3993315398693085 0.09000000357627869 0.2692470252513885
v  0.3993315398693085 0 0.2692470252513885
v  0.3993315398693085 0.09000000357627869 0.1838470101356506
v  0.3139315247535706 0.09000000357627869 0.1838470101356506
v  0.3139315247535706 0 0.1838470101356506
v  0.3139315247535706 0 0.2692470252513885
v  0.3139315247535706 0.09000000357627869 0.2692470252513885
v  -0.1744755804538727 0.1400000005960464 0.350680023431778
v  -0.08907558023929596 0 0.350680023431778
v  -0.1744755804538727 0 0.350680023431778
v  -0.08907558023929596 0.1400000005960464 0.350680023431778
v  -0.08907558023929596 0.1400000005960464 0.4360800087451935
v  -0.1744755804538727 0.1400000005960464 0.4360800087451935
v  -0.1744755804538727 0 0.4360800087451935
v  -0.08907558023929596 0 0.4360800087451935
v  -0.4204094707965851 0 0.1587980091571808
v  -0.4204094707965851 0.09000000357627869 0.2441980093717575
v  -0.4204094707965851 0 0.2441980093717575
v  -0.4204094707965851 0.09000000357627869 0.1587980091571808
v  -0.505809485912323 0.09000000357627869 0.1587980091571808
v  -0.505809485912323 0 0.1587980091571808
v  -0.505809485912323 0 0.2441980093717575
v  -0.505809485912323 0.09000000357627869 0.2441980093717575
v  0.5058095455169678 0 -0.1516469866037369
v  0.5058095455169678 0.09000000357627869 -0.06624748557806015
v  0.5058095455169678 0 -0.06624748557806015
v  0.5058095455169678 0.09000000357627869 -0.1516469866037369
v  0.4204095304012299 0.09000000357627869 -0.1516469866037369
v  0.4204095304012299 0 -0.1516469866037369
v  0.4204095304012299 0 -0.06624748557806015
v  0.4204095304012299 0.09000000357627869 -0.06624748557806015

# 216 UV coordinates
vt -3.362200021743774 9.448820114135742 0
vt 0 0 0
vt 0 9.448820114135742 0
vt -3.362200021743774 0 0
vt 0 3.362200021743774 0
vt 3.362200021743774 0 0
vt 3.362200021743774 3.362200021743774 0
vt 3.362200021743774 9.448820114135742 0
vt -3.362200021743774 3.362200021743774 0
vt -3.362200021743774 18.8976001739502 0
vt 0 18.8976001739502 0
vt 8.661419868469238 18.8976001739502 0
vt 5.299210071563721 0 0
vt 8.661419868469238 0 0
vt 5.299210071563721 18.8976001739502 0
vt -8.661419868469238 3.362200021743774 0
vt -5.299210071563721 0 0
vt -5.299210071563721 3.362200021743774 0
vt -8.661419868469238 0 0
vt -5.299210071563721 18.8976001739502 0
vt -8.661419868469238 18.8976001739502 0
vt 5.299210071563721 3.362200021743774 0
vt 8.661419868469238 3.362200021743774 0
vt 3.362200021743774 18.8976001739502 0
vt 11.4084997177124 1.404449913842715e-14 0
vt 8.046270370483398 7.874020099639893 0
vt 8.046270370483398 1.404449913842715e-14 0
vt 11.4084997177124 7.874020099639893 0
vt 1.145580053329468 1.404449913842715e-14 0
vt 4.507780075073242 7.874020099639893 0
vt 1.145580053329468 7.874020099639893 0
vt 4.507780075073242 1.404449913842715e-14 0
vt 1.145580053329468 11.4084997177124 0
vt 4.507780075073242 8.046270370483398 0
vt 4.507780075073242 11.4084997177124 0
vt 1.145580053329468 8.046270370483398 0
vt -1.145580053329468 7.874020099639893 0
vt -4.507780075073242 1.404449913842715e-14 0
vt -1.145580053329468 1.404449913842715e-14 0
vt -4.507780075073242 7.874020099639893 0
vt -1.145580053329468 8.046270370483398 0
vt -4.507780075073242 11.4084997177124 0
vt -4.507780075073242 8.046270370483398 0
vt -1.145580053329468 11.4084997177124 0
vt -11.4084997177124 7.874020099639893 0
vt -8.046270370483398 1.404449913842715e-14 0
vt -8.046270370483398 7.874020099639893 0
vt -11.4084997177124 1.404449913842715e-14 0
vt 7.158780097961426 1.421139851035414e-14 0
vt 3.796570062637329 7.480309963226318 0
vt 3.796570062637329 1.421139851035414e-14 0
vt 7.158780097961426 7.480309963226318 0
vt -12.78769969940186 1.421139851035414e-14 0
vt -9.425470352172852 7.480309963226318 0
vt -12.78769969940186 7.480309963226318 0
vt -9.425470352172852 1.421139851035414e-14 0
vt -12.78769969940186 7.158780097961426 0
vt -9.425470352172852 3.796570062637329 0
vt -9.425470352172852 7.158780097961426 0
vt -12.78769969940186 3.796570062637329 0
vt 12.78769969940186 7.480309963226318 0
vt 9.425470352172852 1.421139851035414e-14 0
vt 12.78769969940186 1.421139851035414e-14 0
vt 9.425470352172852 7.480309963226318 0
vt 12.78769969940186 3.796570062637329 0
vt 9.425470352172852 7.158780097961426 0
vt 9.425470352172852 3.796570062637329 0
vt 12.78769969940186 7.158780097961426 0
vt -7.158780097961426 7.480309963226318 0
vt -3.796570062637329 1.421139851035414e-14 0
vt -3.796570062637329 7.480309963226318 0
vt -7.158780097961426 1.421139851035414e-14 0
vt -3.258229970932007 1.421079965806043e-14 0
vt -6.620429992675781 18.8976001739502 0
vt -6.620429992675781 1.421079965806043e-14 0
vt -3.258229970932007 18.8976001739502 0
vt -8.27361011505127 1.421079965806043e-14 0
vt -4.911409854888916 18.8976001739502 0
vt -8.27361011505127 18.8976001739502 0
vt -4.911409854888916 1.421079965806043e-14 0
vt -8.27361011505127 -3.258229970932007 0
vt -4.911409854888916 -6.620429992675781 0
vt -4.911409854888916 -3.258229970932007 0
vt -8.27361011505127 -6.620429992675781 0
vt 8.27361011505127 18.8976001739502 0
vt 4.911409854888916 1.421079965806043e-14 0
vt 8.27361011505127 1.421079965806043e-14 0
vt 4.911409854888916 18.8976001739502 0
vt 8.27361011505127 -6.620429992675781 0
vt 4.911409854888916 -3.258229970932007 0
vt 4.911409854888916 -6.620429992675781 0
vt 8.27361011505127 -3.258229970932007 0
vt 3.258229970932007 18.8976001739502 0
vt 6.620429992675781 1.421079965806043e-14 0
vt 6.620429992675781 18.8976001739502 0
vt 3.258229970932007 1.421079965806043e-14 0
vt 17.74390029907227 0 0
vt 14.38169956207275 3.543309926986694 0
vt 14.38169956207275 0 0
vt 17.74390029907227 3.543309926986694 0
vt -8.986980438232422 0 0
vt -5.624780178070068 3.543309926986694 0
vt -8.986980438232422 3.543309926986694 0
vt -5.624780178070068 0 0
vt -8.986980438232422 17.74390029907227 0
vt -5.624780178070068 14.38169956207275 0
vt -5.624780178070068 17.74390029907227 0
vt -8.986980438232422 14.38169956207275 0
vt 8.986980438232422 3.543309926986694 0
vt 5.624780178070068 0 0
vt 8.986980438232422 0 0
vt 5.624780178070068 3.543309926986694 0
vt 8.986980438232422 14.38169956207275 0
vt 5.624780178070068 17.74390029907227 0
vt 5.624780178070068 14.38169956207275 0
vt 8.986980438232422 17.74390029907227 0
vt -17.74390029907227 3.543309926986694 0
vt -14.38169956207275 0 0
vt -14.38169956207275 3.543309926986694 0
vt -17.74390029907227 0 0
vt -6.662650108337402 0 0
vt -10.02490043640137 3.543309926986694 0
vt -10.02490043640137 0 0
vt -6.662650108337402 3.543309926986694 0
vt -20.65999984741211 0 0
vt -17.29780006408691 3.543309926986694 0
vt -20.65999984741211 3.543309926986694 0
vt -17.29780006408691 0 0
vt -20.65999984741211 -6.662650108337402 0
vt -17.29780006408691 -10.02490043640137 0
vt -17.29780006408691 -6.662650108337402 0
vt -20.65999984741211 -10.02490043640137 0
vt 20.65999984741211 3.543309926986694 0
vt 17.29780006408691 0 0
vt 20.65999984741211 0 0
vt 17.29780006408691 3.543309926986694 0
vt 20.65999984741211 -10.02490043640137 0
vt 17.29780006408691 -6.662650108337402 0
vt 17.29780006408691 -10.02490043640137 0
vt 20.65999984741211 -6.662650108337402 0
vt 6.662650108337402 3.543309926986694 0
vt 10.02490043640137 0 0
vt 10.02490043640137 3.543309926986694 0
vt 6.662650108337402 0 0
vt 1.930789947509766 5.511809825897217 0
vt -1.431410074234009 0 0
vt 1.930789947509766 0 0
vt -1.431410074234009 5.511809825897217 0
vt -1.930789947509766 -13.23089981079102 0
vt 1.431410074234009 -16.59309959411621 0
vt 1.431410074234009 -13.23089981079102 0
vt -1.930789947509766 -16.59309959411621 0
vt 13.23089981079102 5.511809825897217 0
vt 16.59309959411621 0 0
vt 16.59309959411621 5.511809825897217 0
vt 13.23089981079102 0 0
vt -1.431410074234009 -13.23089981079102 0
vt 1.930789947509766 -16.59309959411621 0
vt 1.930789947509766 -13.23089981079102 0
vt -1.431410074234009 -16.59309959411621 0
vt -13.23089981079102 0 0
vt -16.59309959411621 5.511809825897217 0
vt -16.59309959411621 0 0
vt -13.23089981079102 5.511809825897217 0
vt 1.431410074234009 5.511809825897217 0
vt -1.930789947509766 0 0
vt 1.431410074234009 0 0
vt -1.930789947509766 5.511809825897217 0
vt -5.676469802856445 0 0
vt -9.038680076599121 3.543309926986694 0
vt -9.038680076599121 0 0
vt -5.676469802856445 3.543309926986694 0
vt 11.61320018768311 0 0
vt 14.9753999710083 3.543309926986694 0
vt 11.61320018768311 3.543309926986694 0
vt 14.9753999710083 0 0
vt 11.61320018768311 -5.676469802856445 0
vt 14.9753999710083 -9.038680076599121 0
vt 14.9753999710083 -5.676469802856445 0
vt 11.61320018768311 -9.038680076599121 0
vt -11.61320018768311 3.543309926986694 0
vt -14.9753999710083 0 0
vt -11.61320018768311 0 0
vt -14.9753999710083 3.543309926986694 0
vt -11.61320018768311 -9.038680076599121 0
vt -14.9753999710083 -5.676469802856445 0
vt -14.9753999710083 -9.038680076599121 0
vt -11.61320018768311 -5.676469802856445 0
vt 5.676469802856445 3.543309926986694 0
vt 9.038680076599121 0 0
vt 9.038680076599121 3.543309926986694 0
vt 5.676469802856445 0 0
vt 6.545809745788574 0 0
vt 3.183599948883057 3.543309926986694 0
vt 3.183599948883057 0 0
vt 6.545809745788574 3.543309926986694 0
vt -24.85210037231445 0 0
vt -21.48990058898926 3.543309926986694 0
vt -24.85210037231445 3.543309926986694 0
vt -21.48990058898926 0 0
vt -24.85210037231445 6.545809745788574 0
vt -21.48990058898926 3.183599948883057 0
vt -21.48990058898926 6.545809745788574 0
vt -24.85210037231445 3.183599948883057 0
vt 24.85210037231445 3.543309926986694 0
vt 21.48990058898926 0 0
vt 24.85210037231445 0 0
vt 21.48990058898926 3.543309926986694 0
vt 24.85210037231445 3.183599948883057 0
vt 21.48990058898926 6.545809745788574 0
vt 21.48990058898926 3.183599948883057 0
vt 24.85210037231445 6.545809745788574 0
vt -6.545809745788574 3.543309926986694 0
vt -3.183599948883057 0 0
vt -3.183599948883057 3.543309926986694 0
vt -6.545809745788574 0 0

# 6 vertex normals
vn -1 0 0
vn 0 0 -1
vn 0 1 0
vn 0 0 1
vn 0 -1 0
vn 1 0 0

# Mesh 'Mesh1 Group1 Model' with 12 faces
g Mesh1 Group1 Model
usemtl Green_leafs
f  1/1/1 2/2/1 3/3/1
f  2/2/1 1/1/1 4/4/1
f  1/3/2 5/4/2 4/2/2
f  5/4/2 1/3/2 6/1/2
f  1/5/3 7/6/3 6/7/3
f  7/6/3 1/5/3 3/2/3
f  2/2/4 7/8/4 3/3/4
f  7/8/4 2/2/4 8/6/4
f  2/2/5 5/9/5 8/4/5
f  5/9/5 2/2/5 4/5/5
f  5/6/6 7/3/6 8/2/6
f  7/3/6 5/6/6 6/8/6

# Mesh 'Mesh2 Group1 Model' with 12 faces
g Mesh2 Group1 Model
usemtl Green_leafs
f  9/10/1 10/2/1 11/11/1
f  10/2/1 9/10/1 12/4/1
f  9/12/2 13/13/2 12/14/2
f  13/13/2 9/12/2 14/15/2
f  9/16/3 15/17/3 14/18/3
f  15/17/3 9/16/3 11/19/3
f  10/19/4 15/20/4 11/21/4
f  15/20/4 10/19/4 16/17/4
f  10/14/5 13/22/5 16/13/5
f  13/22/5 10/14/5 12/23/5
f  13/6/6 15/11/6 16/2/6
f  15/11/6 13/6/6 14/24/6

# Mesh 'Mesh3 Group1 Model' with 12 faces
g Mesh3 Group1 Model
usemtl Green_leafs
f  17/25/6 18/26/6 19/27/6
f  18/26/6 17/25/6 20/28/6
f  17/29/2 21/30/2 20/31/2
f  21/30/2 17/29/2 22/32/2
f  17/33/5 23/34/5 22/35/5
f  23/34/5 17/33/5 19/36/5
f  18/37/4 23/38/4 19/39/4
f  23/38/4 18/37/4 24/40/4
f  18/41/3 21/42/3 24/43/3
f  21/42/3 18/41/3 20/44/3
f  21/45/1 23/46/1 24/47/1
f  23/46/1 21/45/1 22/48/1

# Mesh 'Mesh4 Group1 Model' with 12 faces
g Mesh4 Group1 Model
usemtl Green_leafs
f  25/49/6 26/50/6 27/51/6
f  26/50/6 25/49/6 28/52/6
f  25/53/2 29/54/2 28/55/2
f  29/54/2 25/53/2 30/56/2
f  25/57/5 31/58/5 30/59/5
f  31/58/5 25/57/5 27/60/5
f  26/61/4 31/62/4 27/63/4
f  31/62/4 26/61/4 32/64/4
f  26/65/3 29/66/3 32/67/3
f  29/66/3 26/65/3 28/68/3
f  29/69/1 31/70/1 32/71/1
f  31/70/1 29/69/1 30/72/1

# Mesh 'Mesh5 Group1 Model' with 12 faces
g Mesh5 Group1 Model
usemtl Green_leafs
f  33/73/6 34/74/6 35/75/6
f  34/74/6 33/73/6 36/76/6
f  33/77/2 37/78/2 36/79/2
f  37/78/2 33/77/2 38/80/2
f  33/81/5 39/82/5 38/83/5
f  39/82/5 33/81/5 35/84/5
f  34/85/4 39/86/4 35/87/4
f  39/86/4 34/85/4 40/88/4
f  34/89/3 37/90/3 40/91/3
f  37/90/3 34/89/3 36/92/3
f  37/93/1 39/94/1 40/95/1
f  39/94/1 37/93/1 38/96/1

# Mesh 'Mesh6 Group1 Model' with 12 faces
g Mesh6 Group1 Model
usemtl Green_leafs
f  41/97/6 42/98/6 43/99/6
f  42/98/6 41/97/6 44/100/6
f  41/101/2 45/102/2 44/103/2
f  45/102/2 41/101/2 46/104/2
f  41/105/5 47/106/5 46/107/5
f  47/106/5 41/105/5 43/108/5
f  42/109/4 47/110/4 43/111/4
f  47/110/4 42/109/4 48/112/4
f  42/113/3 45/114/3 48/115/3
f  45/114/3 42/113/3 44/116/3
f  45/117/1 47/118/1 48/119/1
f  47/118/1 45/117/1 46/120/1

# Mesh 'Mesh7 Group1 Model' with 12 faces
g Mesh7 Group1 Model
usemtl Green_leafs
f  49/121/6 50/122/6 51/123/6
f  50/122/6 49/121/6 52/124/6
f  49/125/2 53/126/2 52/127/2
f  53/126/2 49/125/2 54/128/2
f  49/129/5 55/130/5 54/131/5
f  55/130/5 49/129/5 51/132/5
f  50/133/4 55/134/4 51/135/4
f  55/134/4 50/133/4 56/136/4
f  50/137/3 53/138/3 56/139/3
f  53/138/3 50/137/3 52/140/3
f  53/141/1 55/142/1 56/143/1
f  55/142/1 53/141/1 54/144/1

# Mesh 'Mesh8 Group1 Model' with 12 faces
g Mesh8 Group1 Model
usemtl Green_leafs
f  57/145/2 58/146/2 59/147/2
f  58/146/2 57/145/2 60/148/2
f  57/149/3 61/150/3 60/151/3
f  61/150/3 57/149/3 62/152/3
f  57/153/1 63/154/1 62/155/1
f  63/154/1 57/153/1 59/156/1
f  58/157/5 63/158/5 59/159/5
f  63/158/5 58/157/5 64/160/5
f  58/161/6 61/162/6 64/163/6
f  61/162/6 58/161/6 60/164/6
f  61/165/4 63/166/4 64/167/4
f  63/166/4 61/165/4 62/168/4

# Mesh 'Mesh9 Group1 Model' with 12 faces
g Mesh9 Group1 Model
usemtl Green_leafs
f  65/169/6 66/170/6 67/171/6
f  66/170/6 65/169/6 68/172/6
f  65/173/2 69/174/2 68/175/2
f  69/174/2 65/173/2 70/176/2
f  65/177/5 71/178/5 70/179/5
f  71/178/5 65/177/5 67/180/5
f  66/181/4 71/182/4 67/183/4
f  71/182/4 66/181/4 72/184/4
f  66/185/3 69/186/3 72/187/3
f  69/186/3 66/185/3 68/188/3
f  69/189/1 71/190/1 72/191/1
f  71/190/1 69/189/1 70/192/1

# Mesh 'Mesh10 Group1 Model' with 12 faces
g Mesh10 Group1 Model
usemtl Green_leafs
f  73/193/6 74/194/6 75/195/6
f  74/194/6 73/193/6 76/196/6
f  73/197/2 77/198/2 76/199/2
f  77/198/2 73/197/2 78/200/2
f  73/201/5 79/202/5 78/203/5
f  79/202/5 73/201/5 75/204/5
f  74/205/4 79/206/4 75/207/4
f  79/206/4 74/205/4 80/208/4
f  74/209/3 77/210/3 80/211/3
f  77/210/3 74/209/3 76/212/3
f  77/213/1 79/214/1 80/215/1
f  79/214/1 77/213/1 78/216/1

