# File produced by Open Asset Import Library (http://www.assimp.sf.net)
# (assimp v4.1.908865877)

mtllib naturePack_163.mtl

# 51 vertex positions
v  0.2413150072097778 0 -0.1772379875183105
v  0.1538490056991577 2.514120101928711 0.1062660217285156
v  0.2413150072097778 0 0.1937299966812134
v  0.1538490056991577 2.514120101928711 -0.08977395296096802
v  -0.04219096899032593 2.514120101928711 -0.08977395296096802
v  -0.1296550035476685 0 -0.1772379875183105
v  -0.1296550035476685 0 0.1937299966812134
v  -0.04219096899032593 2.514120101928711 0.1062660217285156
v  0.1457750201225281 2.514120101928711 0.1062660217285156
v  0.6523150205612183 2.514120101928711 0.7839000225067139
v  -0.4784779846668243 2.514120101928711 0.7839000225067139
v  -0.5462909936904907 2.514120101928711 -0.7839000225067139
v  -0.655252993106842 2.514120101928711 0.6071250438690186
v  -0.655252993106842 2.514120101928711 -0.6306799650192261
v  -0.4410829842090607 3.216249942779541 0.5697300434112549
v  -0.4410829842090607 3.216249942779541 -0.4297299385070801
v  -0.6021039485931396 3.216249942779541 -0.5439499616622925
v  -0.6500449776649475 3.216249942779541 0.6839540004730225
v  -0.7725449800491333 3.216249942779541 0.5614540576934814
v  -0.7725449800491333 3.216249942779541 -0.4055500030517578
v  -0.3711209893226624 4.085770130157471 0.4997680187225342
v  -0.3711209893226624 4.085770130157471 -0.3597699403762817
v  -0.469353973865509 4.085770130157471 0.4715900123119354
v  -0.3429429829120636 4.085770130157471 0.5980000495910645
v  0.488415002822876 4.085770130157471 0.4997680187225342
v  0.5969150066375732 3.216249942779541 0.6839540004730225
v  0.5583750009536743 3.216249942779541 0.5697300434112549
v  0.7725449800491333 2.514120101928711 0.6636670231819153
v  0.7725449800491333 2.514120101928711 -0.6612899303436279
v  0.6499350070953369 2.514120101928711 -0.7839000225067139
v  -0.03411799669265747 2.514120101928711 -0.08977395296096802
v  0.5583750009536743 3.216249942779541 -0.4297299385070801
v  0.5969150066375732 3.216249942779541 -0.5439499616622925
v  0.488415002822876 4.085770130157471 -0.3597699403762817
v  -0.3215199708938599 4.085770130157471 -0.4579999446868896
v  -0.469353973865509 4.085770130157471 -0.3466600179672241
v  -0.2116389870643616 6.118420124053955 0.09930402040481567
v  -0.2116389870643616 6.118420124053955 0.03959602117538452
v  -0.2024149894714355 6.118420124053955 0.1085290312767029
v  -0.2008519768714905 6.118420124053955 0.03147101402282715
v  0.5969150066375732 4.085770130157471 -0.4579999446868896
v  -0.1338329911231995 6.118420124053955 0.03147101402282715
v  -0.14056795835495 6.118420124053955 0.1085290312767029
v  0.5046249628067017 4.085770130157471 0.5980000495910645
v  0.672605037689209 3.216249942779541 -0.4055500030517578
v  0.672605037689209 3.216249942779541 0.6082670092582703
v  0.7266449928283691 4.085770130157471 0.4715900123119354
v  0.7266449928283691 4.085770130157471 -0.3282699584960938
v  -0.1243659853935242 6.118420124053955 0.04093801975250244
v  -0.1243659853935242 6.118420124053955 0.09930402040481567
v  0.05582904815673828 2.514120101928711 0.008246004581451416

# 157 UV coordinates
vt 37.8400993347168 -1.387789964675903 0
vt 26.67849922180176 97.65339660644531 0
vt 23.23500061035156 -1.387789964675903 0
vt 34.39659881591797 97.65339660644531 0
vt -39.91569900512695 -1.315619945526123 0
vt -28.75410079956055 97.72550201416016 0
vt -36.47219848632812 97.72550201416016 0
vt -25.31060028076172 -1.315619945526123 0
vt -39.91569900512695 37.8400993347168 0
vt -25.31060028076172 23.23500061035156 0
vt -25.31060028076172 37.8400993347168 0
vt -39.91569900512695 23.23500061035156 0
vt 36.47219848632812 99.8489990234375 0
vt 25.31060028076172 0.8078359961509705 0
vt 39.91569900512695 0.8078359961509705 0
vt 28.75410079956055 99.8489990234375 0
vt 36.15430068969727 99.8489990234375 0
vt -56.0968017578125 0 0
vt -36.15430068969727 26.67849922180176 0
vt -36.47219848632812 26.67849922180176 0
vt -28.75410079956055 26.67849922180176 0
vt -11.57740020751953 0 0
vt -28.75410079956055 34.39659881591797 0
vt -8.907620429992676 61.72439956665039 0
vt -4.617780208587646 6.959660053253174 0
vt -4.617780208587646 55.69229888916016 0
vt -8.431890487670898 124.9219970703125 0
vt -55.69229888916016 96.02210235595703 0
vt -6.959660053253174 96.02210235595703 0
vt -47.78070068359375 124.9219970703125 0
vt -13.0496997833252 8.431890487670898 0
vt -6.71028995513916 52.2776985168457 0
vt -13.0496997833252 47.78070068359375 0
vt -4.82282018661499 3.934880018234253 0
vt 0 8.757699966430664 0
vt 0 46.8286018371582 0
vt -11.18630027770996 152.6690063476562 0
vt -46.8286018371582 114.963996887207 0
vt -8.757699966430664 114.963996887207 0
vt -45.02629852294922 152.6690063476562 0
vt -15.80410003662109 11.18630027770996 0
vt -11.93669986724854 12.29570007324219 0
vt -15.80410003662109 45.02629852294922 0
vt -16.91340065002441 7.318880081176758 0
vt -49.64410018920898 11.18630027770996 0
vt 4.82282018661499 124.6910018920898 0
vt 49.64410018920898 159.6829986572266 0
vt 15.80410003662109 159.6829986572266 0
vt 53.91569900512695 124.6910018920898 0
vt -53.91569900512695 3.934880018234253 0
vt -52.39849853515625 8.431890487670898 0
vt 11.57740020751953 94.67479705810547 0
vt 52.39849853515625 123.5749969482422 0
vt 13.0496997833252 123.5749969482422 0
vt 56.0968017578125 94.67479705810547 0
vt 43.01359939575195 111.7229995727539 0
vt 39.66640090942383 82.77960205078125 0
vt 46.36069869995117 82.77960205078125 0
vt -60.83039855957031 56.89720153808594 0
vt -60.83039855957031 4.733570098876953 0
vt -56.00320053100586 61.72439956665039 0
vt -36.47219848632812 34.39659881591797 0
vt -29.0718994140625 34.39659881591797 0
vt -13.0496997833252 91.53639984130859 0
vt -56.00320053100586 60.57580184936523 0
vt -8.907620429992676 60.57580184936523 0
vt -52.39849853515625 91.53639984130859 0
vt -53.91569900512695 52.2776985168457 0
vt -52.39849853515625 47.78070068359375 0
vt -15.80410003662109 148.0350036621094 0
vt -53.91569900512695 113.0419998168945 0
vt -6.71028995513916 113.0419998168945 0
vt -49.64410018920898 148.0350036621094 0
vt -17.75690078735352 48.89369964599609 0
vt -49.64410018920898 45.02629852294922 0
vt -11.93669986724854 44.51010131835938 0
vt -26.95260047912598 241.7469940185547 0
vt -44.51010131835938 161.0809936523438 0
vt -12.29570007324219 161.0809936523438 0
vt -29.30330085754395 241.7469940185547 0
vt -22.08289909362793 29.30330085754395 0
vt -22.44610023498535 26.58939933776855 0
vt -22.08289909362793 26.95260047912598 0
vt -22.50760078430176 29.62319946289062 0
vt -43.59920120239258 150.52099609375 0
vt -35.268798828125 232.6020050048828 0
vt -35.80049896240234 232.6020050048828 0
vt -36.31280136108398 150.52099609375 0
vt -22.50760078430176 227.2530059814453 0
vt -53.91569900512695 144.9400024414062 0
vt -17.75690078735352 144.9400024414062 0
vt -25.14620018005371 227.2530059814453 0
vt -24.88100051879883 26.58939933776855 0
vt -25.14620018005371 29.62319946289062 0
vt 16.91340065002441 158.1000061035156 0
vt 24.88100051879883 240.4140014648438 0
vt 22.44610023498535 240.4140014648438 0
vt 50.28210067749023 158.1000061035156 0
vt -50.28210067749023 7.318880081176758 0
vt -53.91569900512695 48.89369964599609 0
vt 11.18630027770996 147.0780029296875 0
vt 46.8286018371582 112.0849990844727 0
vt 45.02629852294922 147.0780029296875 0
vt 6.914669990539551 112.0849990844727 0
vt 43.01359939575195 150.1889953613281 0
vt 40.90650177001953 115 0
vt 45.12060165405273 115 0
vt -56.89550018310547 46.8286018371582 0
vt -56.89550018310547 6.914669990539551 0
vt 8.431890487670898 105.8270034790039 0
vt 56.89720153808594 76.927001953125 0
vt 47.78070068359375 105.8270034790039 0
vt 4.733570098876953 76.927001953125 0
vt 4.045499801635742 56.20949935913086 0
vt -3.265259981155396 86.50969696044922 0
vt -2.781149864196777 56.20949935913086 0
vt 19.99939918518066 108.9410018920898 0
vt 15.68659973144531 143.9290008544922 0
vt 13.78880023956299 108.9410018920898 0
vt -59.02330017089844 12.29570007324219 0
vt -59.02330017089844 43.78609848022461 0
vt 3.165729999542236 206.6009979248047 0
vt -10.77429962158203 119.6640014648438 0
vt -3.551090002059937 119.6640014648438 0
vt 2.638649940490723 206.6009979248047 0
vt -25.51889991760254 26.95260047912598 0
vt -25.51889991760254 29.2504997253418 0
vt 47.31740188598633 144.6730041503906 0
vt 35.51190185546875 229.8990020751953 0
vt 34.77790069580078 229.8990020751953 0
vt 57.3760986328125 144.6730041503906 0
vt 43.78609848022461 125.5830001831055 0
vt 26.95260047912598 212.3399963378906 0
vt 12.29570007324219 125.5830001831055 0
vt 29.2504997253418 212.3399963378906 0
vt -2.929800033569336 242.7209930419922 0
vt -0.2538560032844543 160.7960052490234 0
vt 6.784379959106445 160.7960052490234 0
vt -3.443379878997803 242.7209930419922 0
vt -40.65219879150391 144.7960052490234 0
vt -38.16400146484375 108.7269973754883 0
vt -29.51989936828613 108.7269973754883 0
vt -55.46379852294922 80.52220153808594 0
vt -48.06179809570312 80.52220153808594 0
vt -46.50120162963867 110.4449996948242 0
vt -32.61309814453125 30.53759956359863 0
vt -29.0718994140625 97.72550201416016 0
vt -37.8400993347168 0.8799999952316284 0
vt -26.67849922180176 99.92109680175781 0
vt -34.39659881591797 99.92109680175781 0
vt -23.23500061035156 0.8799999952316284 0
vt 3.265259981155396 126.4769973754883 0
vt -1.655960083007812 97.96040344238281 0
vt 8.186490058898926 97.96040344238281 0
vt 3.265259981155396 157.2619934082031 0
vt -6.192629814147949 120.681999206543 0
vt 0.6278640031814575 120.681999206543 0

# 30 vertex normals
vn 0.9993950128555298 0.0347680002450943 4.513920053208503e-18
vn -1.281439998108262e-17 0.0347680002450943 -0.9993950128555298
vn 0 -1 0
vn 0 0.0347680002450943 0.9993950128555298
vn -0.956492006778717 0.2917580008506775 8.258430615025294e-18
vn -0.9079160094261169 0.4191519916057587 4.122099899883466e-18
vn -1.296560032525119e-17 0.2072280049324036 0.9782930016517639
vn 9.942320533638268e-18 0.2917580008506775 0.956492006778717
vn 0.6753429770469666 0.2963530123233795 0.6753429770469666
vn -1.706370040684204e-17 0.4503700137138367 -0.8928419947624207
vn -9.564890427839509e-18 0.2072280049324036 -0.9782930016517639
vn -0.9920579791069031 0.125780001282692 -6.860139956845076e-16
vn -1.7890400989942e-15 -1 -3.009259880940984e-15
vn -0.5865539908409119 0.2223560065031052 -0.7787889838218689
vn -4.302549912994726e-16 0.2341119945049286 -0.9722099900245667
vn -4.420640070127368e-16 0.2341119945049286 0.9722099900245667
vn 0.9782930016517639 0.2072280049324036 0
vn 0.6878899931907654 0.2315489947795868 0.6878899931907654
vn 0.956492006778717 0.2917580008506775 0
vn 0.6450939774513245 0.4095219969749451 -0.6450939774513245
vn 0.8584619760513306 0.2065600007772446 -0.4694429934024811
vn 0.6508939862251282 0.390736997127533 -0.6508939862251282
vn 0.4645859897136688 0.3439599871635437 0.8159970045089722
vn 0.922419011592865 0.3861899971961975 2.549210241024045e-16
vn -0.6907129883766174 0.2140789926052094 0.6907129883766174
vn -0.5982900261878967 0.3149990141391754 -0.73676598072052
vn -0.7528390288352966 0.3828699886798859 -0.5353909730911255
vn -0.9993950128555298 0.0347680002450943 -1.991889999311634e-18
vn -0.6854509711265564 0.2455890029668808 0.6854509711265564
vn -0.6617339849472046 0.3524439930915833 0.6617339849472046

# Mesh 'Mesh1 Group1 Model' with 9 faces
g Mesh1 Group1 Model
usemtl Wood
f  1/1/1 2/2/1 3/3/1
f  2/2/1 1/1/1 4/4/1
f  1/5/2 5/6/2 4/7/2
f  5/6/2 1/5/2 6/8/2
f  1/9/3 7/10/3 6/11/3
f  7/10/3 1/9/3 3/12/3
f  2/13/4 7/14/4 3/15/4
f  7/14/4 2/13/4 8/16/4
f  8/16/4 2/13/4 9/17/4

# Mesh 'Leafs' with 43 faces
g Leafs
usemtl Leafs
f  10/18/3 9/19/3 2/20/3
f  10/18/3 8/21/3 9/19/3
f  11/22/3 8/21/3 10/18/3
f  8/21/3 11/22/3 5/23/3
f  11/22/3 12/24/3 5/23/3
f  13/25/3 12/24/3 11/22/3
f  12/24/3 13/25/3 14/26/3
f  15/27/5 14/28/5 13/29/5
f  14/28/5 15/27/5 16/30/5
f  15/31/3 17/32/3 16/33/3
f  18/34/3 17/32/3 15/31/3
f  19/35/3 17/32/3 18/34/3
f  17/32/3 19/35/3 20/36/3
f  21/37/6 20/38/6 19/39/6
f  20/38/6 21/37/6 22/40/6
f  21/41/3 23/42/3 22/43/3
f  23/42/3 21/41/3 24/44/3
f  24/44/3 21/41/3 25/45/3
f  18/46/7 25/47/7 21/48/7
f  25/47/7 18/46/7 26/49/7
f  18/34/3 15/31/3 26/50/3
f  26/50/3 15/31/3 27/51/3
f  11/52/8 27/53/8 15/54/8
f  27/53/8 11/52/8 10/55/8
f  27/56/9 10/57/9 28/58/9
f  10/18/3 29/59/3 28/60/3
f  10/18/3 30/61/3 29/59/3
f  10/18/3 2/20/3 30/61/3
f  4/62/3 30/61/3 2/20/3
f  31/63/3 30/61/3 4/62/3
f  5/23/3 30/61/3 31/63/3
f  5/23/3 12/24/3 30/61/3
f  16/64/10 30/65/10 12/66/10
f  30/65/10 16/64/10 32/67/10
f  16/33/3 33/68/3 32/69/3
f  33/68/3 16/33/3 17/32/3
f  22/70/11 33/71/11 17/72/11
f  33/71/11 22/70/11 34/73/11
f  22/43/3 35/74/3 34/75/3
f  22/43/3 36/76/3 35/74/3
f  36/76/3 22/43/3 23/42/3
f  37/77/12 36/78/12 23/79/12
f  36/78/12 37/77/12 38/80/12

# Mesh 'FrontColor' with 2 faces
g FrontColor
usemtl FrontColor
f  38/81/13 39/82/13 37/83/13
f  39/82/13 38/81/13 40/84/13

# Mesh 'Leafs' with 4 faces
g Leafs
usemtl Leafs
f  35/85/14 38/86/14 40/87/14
f  38/86/14 35/85/14 36/88/14
f  40/89/15 41/90/15 35/91/15
f  41/90/15 40/89/15 42/92/15

# Mesh 'FrontColor' with 2 faces
g FrontColor
usemtl FrontColor
f  43/93/13 40/84/13 42/94/13
f  39/82/13 40/84/13 43/93/13

# Mesh 'Leafs' with 21 faces
g Leafs
usemtl Leafs
f  24/95/16 43/96/16 39/97/16
f  43/96/16 24/95/16 44/98/16
f  24/44/3 25/45/3 44/99/3
f  25/45/3 41/100/3 44/99/3
f  34/75/3 41/100/3 25/45/3
f  34/75/3 35/74/3 41/100/3
f  25/101/17 45/102/17 34/103/17
f  45/102/17 25/101/17 46/104/17
f  25/105/18 26/106/18 46/107/18
f  26/50/3 45/108/3 46/109/3
f  26/50/3 33/68/3 45/108/3
f  26/50/3 27/51/3 33/68/3
f  32/69/3 33/68/3 27/51/3
f  27/110/19 29/111/19 32/112/19
f  29/111/19 27/110/19 28/113/19
f  30/114/20 32/115/20 29/116/20
f  33/117/21 34/118/21 45/119/21
f  44/99/3 41/100/3 47/120/3
f  47/120/3 41/100/3 48/121/3
f  42/122/22 48/123/22 41/124/22
f  48/123/22 42/122/22 49/125/22

# Mesh 'FrontColor' with 2 faces
g FrontColor
usemtl FrontColor
f  50/126/13 42/94/13 49/127/13
f  43/93/13 42/94/13 50/126/13

# Mesh 'Leafs' with 8 faces
g Leafs
usemtl Leafs
f  44/128/23 50/129/23 43/130/23
f  50/129/23 44/128/23 47/131/23
f  48/132/24 50/133/24 47/134/24
f  50/133/24 48/132/24 49/135/24
f  39/136/25 23/137/25 24/138/25
f  23/137/25 39/136/25 37/139/25
f  22/140/26 17/141/26 20/142/26
f  12/143/27 14/144/27 16/145/27

# Mesh 'Wood' with 1 faces
g Wood
usemtl Wood
f  51/146/3 5/23/3 31/63/3

# Mesh 'Leafs' with 3 faces
g Leafs
usemtl Leafs
f  51/146/3 8/21/3 5/23/3
f  8/21/3 51/146/3 9/19/3
f  2/20/3 9/19/3 51/146/3

# Mesh 'Wood' with 5 faces
g Wood
usemtl Wood
f  51/146/3 4/62/3 2/20/3
f  4/62/3 51/146/3 31/63/3
f  4/7/2 5/6/2 31/147/2
f  6/148/28 8/149/28 5/150/28
f  8/149/28 6/148/28 7/151/28

# Mesh 'Leafs' with 2 faces
g Leafs
usemtl Leafs
f  15/152/29 13/153/29 11/154/29
f  21/155/30 19/156/30 18/157/30

