# File produced by Open Asset Import Library (http://www.assimp.sf.net)
# (assimp v4.1.908865877)

mtllib naturePack_043.mtl

# 16 vertex positions
v  -0.6603620052337646 0.1800000071525574 0.4602130055427551
v  -0.2499979734420776 0.1800000071525574 -0.6242150068283081
v  -0.8148199915885925 0.1800000071525574 -0.00246196985244751
v  -0.4374269843101501 0.1800000071525574 0.5156769752502441
v  -0.6603620052337646 8.177269837078408e-16 0.4602130055427551
v  -0.4374269843101501 7.231679841850742e-16 0.5156769752502441
v  -0.2499979734420776 0 -0.6242150068283081
v  -0.8148199915885925 1.449219903797312e-15 -0.00246196985244751
v  0.5747399926185608 1.25632005318916e-18 -0.4190249443054199
v  0.5747399926185608 0.1800000071525574 -0.4190249443054199
v  0.3438799977302551 0.1800000071525574 0.6242150068283081
v  -0.2690280079841614 0.1800000071525574 0.4077790081501007
v  -0.2690280079841614 7.231679841850742e-16 0.4077790081501007
v  0.3438799977302551 7.231740192948234e-16 0.6242150068283081
v  0.8148199915885925 7.200469854117973e-16 0.1199160218238831
v  0.8148199915885925 0.1800000071525574 0.1199160218238831

# 48 UV coordinates
vt 6.081039905548096 6.456759929656982 0
vt 22.23710060119629 49.15069961547852 0
vt -2.224049962682643e-15 24.67230033874512 0
vt 14.85799980163574 4.273149967193604 0
vt 4.342299938201904 3.677709992013639e-14 0
vt 13.38679981231689 7.086609840393066 0
vt 4.342299938201904 7.086609840393066 0
vt 13.38679981231689 3.305429863739544e-14 0
vt -6.081039905548096 6.456759929656982 0
vt -22.23710060119629 49.15069961547852 0
vt -14.85799980163574 4.273149967193604 0
vt 1.790630055601941e-29 24.67230033874512 0
vt -4.198880195617676 3.58372999244988e-14 0
vt -23.40270042419434 7.086609840393066 0
vt -23.40270042419434 6.069909928418243e-14 0
vt -4.198880195617676 7.086609840393066 0
vt -51.33280181884766 7.086609840393066 0
vt -18.26199913024902 5.914309976007628e-14 0
vt -18.26199913024902 7.086609840393066 0
vt -51.33280181884766 2.087349856424114e-15 0
vt -9.712889671325684 7.086609840393066 0
vt -43.17259979248047 3.149630011553377e-14 0
vt -9.712889671325684 3.14469011540499e-14 0
vt -43.17259979248047 7.086609840393066 0
vt 45.61809921264648 -3.774260228352547e-15 0
vt 54.70709991455078 41.07260131835938 0
vt 21.48789978027344 8.521080017089844 0
vt 14.81569957733154 2.723809947122874e-14 0
vt 22.68969917297363 7.086609840393066 0
vt 14.81569957733154 7.086609840393066 0
vt 22.68969917297363 2.723809947122874e-14 0
vt -21.48789978027344 8.521080017089844 0
vt -45.61809921264648 -2.278860067351566e-29 0
vt -54.70709991455078 41.07260131835938 0
vt -64.15899658203125 19.85429954528809 0
vt 15.257399559021 3.361919846244649e-14 0
vt -7.97091007232666 7.086609840393066 0
vt -7.97091007232666 6.191800002407211e-14 0
vt 15.257399559021 7.086609840393066 0
vt 64.15899658203125 19.85429954528809 0
vt 31.13520050048828 7.086609840393066 0
vt 58.30059814453125 2.387640019236355e-14 0
vt 58.30059814453125 7.086609840393066 0
vt 31.13520050048828 2.399949949058802e-14 0
vt 17.4242992401123 7.086609840393066 0
vt 43.01490020751953 3.768710129668958e-14 0
vt 43.01490020751953 7.086609840393066 0
vt 17.4242992401123 3.768679975296035e-14 0

# 10 vertex normals
vn 3.138390212568579e-16 1 -5.325910238274546e-16
vn -0.2414290010929108 5.926060080579411e-16 0.9704189896583557
vn -3.138390212568579e-16 -1 5.325910238274546e-16
vn -0.9485399723052979 4.663380125173545e-16 0.3166579902172089
vn -0.740181028842926 -1.258210003724527e-16 -0.6724079847335815
vn 0.2414290010929108 -5.926060080579411e-16 -0.9704189896583557
vn 0.5394870042800903 2.79125996421821e-16 0.8419939875602722
vn 0.9134669899940491 -5.033989862124008e-16 -0.4069130122661591
vn 0.7308670282363892 1.341290039215883e-16 0.6825190186500549
vn -0.3329780101776123 6.066989951739174e-16 0.9429349899291992

# Mesh 'Mesh1 Group1 Model' with 28 faces
g Mesh1 Group1 Model
usemtl Stone
f  1/1/1 2/2/1 3/3/1
f  2/2/1 1/1/1 4/4/1
f  5/5/2 4/6/2 1/7/2
f  4/6/2 5/5/2 6/8/2
f  5/9/3 7/10/3 6/11/3
f  7/10/3 5/9/3 8/12/3
f  5/13/4 3/14/4 8/15/4
f  3/14/4 5/13/4 1/16/4
f  2/17/5 8/18/5 3/19/5
f  8/18/5 2/17/5 7/20/5
f  2/21/6 9/22/6 7/23/6
f  9/22/6 2/21/6 10/24/6
f  2/2/1 11/25/1 10/26/1
f  2/2/1 12/27/1 11/25/1
f  2/2/1 4/4/1 12/27/1
f  6/28/7 12/29/7 4/30/7
f  12/29/7 6/28/7 13/31/7
f  6/11/3 7/10/3 13/32/3
f  13/32/3 7/10/3 14/33/3
f  14/33/3 7/10/3 9/34/3
f  14/33/3 9/34/3 15/35/3
f  9/36/8 16/37/8 15/38/8
f  16/37/8 9/36/8 10/39/8
f  10/26/1 11/25/1 16/40/1
f  11/41/9 15/42/9 16/43/9
f  15/42/9 11/41/9 14/44/9
f  12/45/10 14/46/10 11/47/10
f  14/46/10 12/45/10 13/48/10

