# File produced by Open Asset Import Library (http://www.assimp.sf.net)
# (assimp v4.1.908865877)

mtllib naturePack_089.mtl

# 66 vertex positions
v  -0.6012649536132812 1.050099968910217 -0.3471400737762451
v  -5.006790161132812e-06 0.8396750092506409 -0.8136501312255859
v  -0.7046439647674561 0.8396750092506409 -0.4068300724029541
v  -5.006790161132812e-06 1.050099968910217 -0.6942800283432007
v  0.7046350240707397 0.8396750092506409 -0.4068300724029541
v  0.6012650728225708 1.050099968910217 -0.3471400737762451
v  0.6012650728225708 1.050099968910217 0.3471389412879944
v  0.7046350240707397 0.8396750092506409 0.4068249464035034
v  -5.006790161132812e-06 0.8396750092506409 0.8136509656906128
v  -5.006790161132812e-06 1.050099968910217 0.6942779421806335
v  -0.7046439647674561 0.8396750092506409 0.4068249464035034
v  -0.6012649536132812 1.050099968910217 0.3471389412879944
v  -0.8713970184326172 0.8396750092506409 -0.5031000375747681
v  -0.8713970184326172 0.8396750092506409 0.5030999779701233
v  -5.006790161132812e-06 0.8396750092506409 1.006199955940247
v  -1.117174983024597 0 0.6449999809265137
v  -5.006790161132812e-06 0 1.289999961853027
v  -1.117174983024597 0 -0.6449999809265137
v  -5.006790161132812e-06 0 -1.289999961853027
v  -5.006790161132812e-06 0.8396750092506409 -1.006200075149536
v  -0.532185971736908 1.768199920654297 -0.3072600364685059
v  -5.006790161132812e-06 1.768199920654297 -0.6145100593566895
v  -0.468986988067627 1.941190004348755 -0.2707700729370117
v  -5.006790161132812e-06 1.941190004348755 -0.5415400266647339
v  0.5321849584579468 1.768199920654297 -0.3072600364685059
v  0.4689849615097046 1.941190004348755 -0.2707700729370117
v  0.4689849615097046 1.941190004348755 0.2707699537277222
v  0.5321849584579468 1.768199920654297 0.3072559833526611
v  -5.006790161132812e-06 1.768199920654297 0.6145129799842834
v  -5.006790161132812e-06 1.941190004348755 0.5415369868278503
v  -0.532185971736908 1.768199920654297 0.3072559833526611
v  -0.468986988067627 1.941190004348755 0.2707699537277222
v  0.8713949918746948 0.8396750092506409 0.5030999779701233
v  1.117174983024597 0 0.6449999809265137
v  1.117174983024597 0 -0.6449999809265137
v  0.8713949918746948 0.8396750092506409 -0.5031000375747681
v  -5.006790161132812e-06 1.768199920654297 -0.7790999412536621
v  -0.6747229695320129 1.768199920654297 -0.3895499706268311
v  -0.6747229695320129 1.768199920654297 0.3895499706268311
v  -5.006790161132812e-06 1.768199920654297 0.7791009545326233
v  0.6747150421142578 1.768199920654297 0.3895499706268311
v  0.6747150421142578 1.768199920654297 -0.3895499706268311
v  -5.006790161132812e-06 2.83951997756958 -0.4516201019287109
v  0.391105055809021 2.83951997756958 -0.2258100509643555
v  -5.006790161132812e-06 2.83951997756958 -0.5570600032806396
v  -0.3911139965057373 2.83951997756958 -0.2258100509643555
v  -0.4824279546737671 2.83951997756958 -0.2785301208496094
v  -0.4824279546737671 2.83951997756958 0.2785300016403198
v  -0.3911139965057373 2.83951997756958 0.2258099317550659
v  -5.006790161132812e-06 2.83951997756958 0.4516159892082214
v  0.391105055809021 2.83951997756958 0.2258099317550659
v  0.4824250936508179 2.83951997756958 -0.2785301208496094
v  -5.006790161132812e-06 4.253339767456055 -0.07795000076293945
v  0.06750500202178955 4.253339767456055 -0.03898000717163086
v  0.06750500202178955 4.253339767456055 0.03898000717163086
v  -5.006790161132812e-06 4.253339767456055 0.07795000076293945
v  -0.06750500202178955 4.253339767456055 -0.03898000717163086
v  -0.06750500202178955 4.253339767456055 0.03898000717163086
v  -5.006790161132812e-06 2.83951997756958 0.5570569634437561
v  -5.006790161132812e-06 2.945199966430664 0.4193119406700134
v  -0.3631370067596436 2.945199966430664 0.2096599340438843
v  -0.3631370067596436 2.945199966430664 -0.2096600532531738
v  -5.006790161132812e-06 2.945199966430664 -0.4193100929260254
v  0.3631349802017212 2.945199966430664 -0.2096600532531738
v  0.3631349802017212 2.945199966430664 0.2096599340438843
v  0.4824250936508179 2.83951997756958 0.2785300016403198

# 180 UV coordinates
vt -49.81739807128906 16.97060012817383 0
vt -79.50099945068359 7.740439891815186 0
vt -47.46749877929688 7.740439891815186 0
vt -77.15110015869141 16.97060012817383 0
vt 0.9700390100479126 -2.424000024795532 0
vt -28.71360015869141 -11.65410041809082 0
vt 3.319900035858154 -11.65410041809082 0
vt -26.36370086669922 -2.424000024795532 0
vt 37.12049865722656 7.273290157318115 0
vt 66.80410003662109 -1.956850051879883 0
vt 64.45429992675781 7.273290157318115 0
vt 34.77069854736328 -1.956850051879883 0
vt 77.15110015869141 36.36520004272461 0
vt 47.46749877929688 27.13500022888184 0
vt 79.50099945068359 27.13500022888184 0
vt 49.81739807128906 36.36520004272461 0
vt 26.36370086669922 55.75970077514648 0
vt -3.319900035858154 46.52959823608398 0
vt 28.71360015869141 46.52959823608398 0
vt -0.9700390100479126 55.75970077514648 0
vt -37.12049865722656 46.06240081787109 0
vt -66.80410003662109 36.83229827880859 0
vt -34.77069854736328 36.83229827880859 0
vt -64.45429992675781 46.06240081787109 0
vt -16.24139976501465 34.77069854736328 0
vt -9.676300048828125 70.59449768066406 0
vt -16.24139976501465 66.80410003662109 0
vt -9.676300048828125 30.98030090332031 0
vt -43.98320007324219 11.17319965362549 0
vt -43.98320007324219 18.7539005279541 0
vt -12.69690036773682 9.697290420532227 0
vt 38.09059906005859 9.697290420532227 0
vt -2.131629901346195e-14 76.18109893798828 0
vt -43.98320007324219 0 0
vt 0 25.39369964599609 0
vt -43.98320007324219 101.5749969482422 0
vt -88.87799835205078 -29.09189987182617 0
vt -38.09059906005859 -29.09189987182617 0
vt -43.98320007324219 90.40160369873047 0
vt -43.98320007324219 82.82089996337891 0
vt -51.38750076293945 50.65140151977539 0
vt -83.29129791259766 11.73250007629395 0
vt -43.67720031738281 11.73250007629395 0
vt -75.58100128173828 50.65140151977539 0
vt -52.82410049438477 57.90250015258789 0
vt -74.14440155029297 57.90250015258789 0
vt -2.036679983139038 42.81000137329102 0
vt -24.79360008239746 35.55889892578125 0
vt -0.6001380085945129 35.55889892578125 0
vt -23.35700035095215 42.81000137329102 0
vt 40.12720108032227 50.35630035400391 0
vt 62.88410186767578 43.10520172119141 0
vt 61.44760131835938 50.35630035400391 0
vt 38.69070053100586 43.10520172119141 0
vt 74.14440155029297 72.99500274658203 0
vt 51.38750076293945 65.74400329589844 0
vt 75.58100128173828 65.74400329589844 0
vt 52.82410049438477 72.99500274658203 0
vt 23.35700035095215 88.08760070800781 0
vt 0.6001380085945129 80.83650207519531 0
vt 24.79360008239746 80.83650207519531 0
vt 2.036679983139038 88.08760070800781 0
vt -40.12720108032227 80.54129791259766 0
vt -62.88410186767578 73.29019927978516 0
vt -38.69070053100586 73.29019927978516 0
vt -61.44760131835938 80.54129791259766 0
vt -70.59449768066406 34.37120056152344 0
vt -30.98030090332031 34.37120056152344 0
vt -7.11023998260498 41.91749954223633 0
vt 32.50389862060547 41.91749954223633 0
vt 43.67720031738281 26.82500076293945 0
vt 83.29129791259766 26.82500076293945 0
vt -78.29010009765625 30.98030090332031 0
vt -71.72499847412109 34.77069854736328 0
vt 38.09059906005859 -9.697290420532227 0
vt 88.87799835205078 -9.697290420532227 0
vt -87.96640014648438 76.18109893798828 0
vt -87.96640014648438 25.39369964599609 0
vt -38.09059906005859 -48.48640060424805 0
vt 12.69690036773682 -48.48640060424805 0
vt -78.29010009765625 70.59449768066406 0
vt -71.72499847412109 66.80410003662109 0
vt -32.50389862060547 -3.360029935836792 0
vt 7.11023998260498 -3.360029935836792 0
vt -43.98320007324219 74.98079681396484 0
vt -43.98320007324219 81.46070098876953 0
vt -64.935302734375 62.88410186767578 0
vt -23.03109931945801 62.88410186767578 0
vt -17.41939926147461 66.12400054931641 0
vt -23.03109931945801 38.69070053100586 0
vt -17.41939926147461 35.45080184936523 0
vt -43.98320007324219 20.11409950256348 0
vt -43.98320007324219 26.5939998626709 0
vt -64.935302734375 38.69070053100586 0
vt -70.5469970703125 35.45080184936523 0
vt -70.5469970703125 66.12400054931641 0
vt -3.80676007270813 87.24520111083984 0
vt -28.03350067138672 43.61410140991211 0
vt 2.639780044555664 43.61410140991211 0
vt -21.58690071105957 87.24520111083984 0
vt -43.98320007324219 68.56759643554688 0
vt -43.98320007324219 72.71880340576172 0
vt -59.38130187988281 59.6775016784668 0
vt -28.5851001739502 59.6775016784668 0
vt -24.9901008605957 61.75310134887695 0
vt -24.9901008605957 39.82170104980469 0
vt -28.5851001739502 41.89730072021484 0
vt -66.12400054931641 71.75370025634766 0
vt -41.89730072021484 115.3850021362305 0
vt -59.6775016784668 115.3850021362305 0
vt -35.45080184936523 71.75370025634766 0
vt -2.639780044555664 77.38159942626953 0
vt 21.58690071105957 121.0130004882812 0
vt 3.80676007270813 121.0130004882812 0
vt 28.03350067138672 77.38159942626953 0
vt 48.14759826660156 66.12580108642578 0
vt 72.37429809570312 109.7570037841797 0
vt 54.59420013427734 109.7570037841797 0
vt 78.82089996337891 66.12580108642578 0
vt 66.12400054931641 49.24200057983398 0
vt 41.89730072021484 92.87319946289062 0
vt 35.45080184936523 49.24200057983398 0
vt 59.6775016784668 92.87319946289062 0
vt -62.97629928588867 61.75310134887695 0
vt -59.38130187988281 41.89730072021484 0
vt -11.1624002456665 141.3509979248047 0
vt -23.66250038146973 83.34159851074219 0
vt -1.731159925460815 83.34159851074219 0
vt -14.23130035400391 141.3509979248047 0
vt 43.98320007324219 53.85630035400391 0
vt 46.64089965820312 49.25299835205078 0
vt 46.64089965820312 52.3218994140625 0
vt 43.98320007324219 47.71849822998047 0
vt 41.32540130615234 52.3218994140625 0
vt 41.32540130615234 49.25299835205078 0
vt -61.75310134887695 114.3050003051758 0
vt -49.25299835205078 172.3150024414062 0
vt -52.3218994140625 172.3150024414062 0
vt -39.82170104980469 114.3050003051758 0
vt 1.731159925460815 120.4980010986328 0
vt 14.23130035400391 178.5079956054688 0
vt 11.1624002456665 178.5079956054688 0
vt 23.66250038146973 120.4980010986328 0
vt -43.98320007324219 28.85600090026855 0
vt -43.98320007324219 33.00719833374023 0
vt 20.95100021362305 125.3170013427734 0
vt 4.442679882049561 125.3170013427734 0
vt -42.53319931030273 119.6890029907227 0
vt -59.04159927368164 119.6890029907227 0
vt -55.23009872436523 102.8050003051758 0
vt -72.37429809570312 98.5010986328125 0
vt -54.59420013427734 98.5010986328125 0
vt -71.7384033203125 102.8050003051758 0
vt -4.442679882049561 91.54920196533203 0
vt -20.95100021362305 91.54920196533203 0
vt 42.53319931030273 97.17710113525391 0
vt 59.04159927368164 97.17710113525391 0
vt 71.7384033203125 114.0609970092773 0
vt 55.23009872436523 114.0609970092773 0
vt -62.97629928588867 39.82170104980469 0
vt 61.75310134887695 89.5343017578125 0
vt 49.25299835205078 147.5440063476562 0
vt 39.82170104980469 89.5343017578125 0
vt 52.3218994140625 147.5440063476562 0
vt 65.01869964599609 166.1219940185547 0
vt 52.51860046386719 108.1129989624023 0
vt 74.44989776611328 108.1129989624023 0
vt 61.94979858398438 166.1219940185547 0
vt -78.82089996337891 54.86989974975586 0
vt -48.14759826660156 54.86989974975586 0
vt -61.94979858398438 153.7369995117188 0
vt -74.44989776611328 95.72709655761719 0
vt -52.51860046386719 95.72709655761719 0
vt -65.01869964599609 153.7369995117188 0
vt 70.59449768066406 4.186230182647705 0
vt 30.98030090332031 4.186230182647705 0
vt 76.18109893798828 -38.78910064697266 0
vt 25.39369964599609 -38.78910064697266 0
vt -76.18109893798828 -4.968659693209941e-15 0
vt -25.39369964599609 -4.789390252121252e-15 0

# 32 vertex normals
vn -0.4487650096416473 0.4409539997577667 -0.7772830128669739
vn 0.4487650096416473 0.4409539997577667 -0.7772830128669739
vn 0.8975300192832947 0.4409539997577667 3.596350106399356e-18
vn 0.4487650096416473 0.4409539997577667 0.7772830128669739
vn -0.4487650096416473 0.4409539997577667 0.7772830128669739
vn -0.8975300192832947 0.4409539997577667 0
vn 0 -1 0
vn -0.4696420133113861 0.3431429862976074 -0.8134430050849915
vn 0.4696420133113861 0.3431429862976074 -0.8134430050849915
vn 0.939283013343811 0.3431429862976074 -7.898380401076888e-18
vn 0.4696420133113861 0.3431429862976074 0.8134430050849915
vn -0.4696420133113861 0.3431429862976074 0.8134430050849915
vn -0.939283013343811 0.3431429862976074 -4.689350171879974e-18
vn -0.939283013343811 0.3431429862976074 -4.926930191546984e-16
vn 0.48335000872612 0.2559120059013367 -0.8371869921684265
vn -0.96670001745224 0.2559120059013367 -1.064739896456442e-15
vn -0.48335000872612 0.2559120059013367 0.8371869921684265
vn 0.48335000872612 0.2559120059013367 0.8371869921684265
vn 0.96670001745224 0.2559120059013367 -7.755609953792521e-16
vn 0.4797660112380981 0.2815969884395599 -0.8309800028800964
vn 0 1 0
vn -0.9595329761505127 0.2815969884395599 -8.936959923185397e-17
vn -0.4797660112380981 0.2815969884395599 0.8309800028800964
vn -0.96670001745224 0.2559120059013367 -8.347920506170548e-16
vn -0.48335000872612 0.2559120059013367 -0.8371869921684265
vn 0.96670001745224 0.2559120059013367 -1.657569997668491e-15
vn 0.9595329761505127 0.2815969884395599 -3.375910030030608e-17
vn 0.4797660112380981 0.2815969884395599 0.8309800028800964
vn -0.4797660112380981 0.2815969884395599 -0.8309800028800964
vn 0.939283013343811 0.3431429862976074 2.102210043632065e-17
vn 0.8975300192832947 0.4409539997577667 -5.776880505560086e-18
vn -0.8975300192832947 0.4409539997577667 -3.83892007656798e-16

# Mesh 'Mesh1 Group1 Model' with 128 faces
g Mesh1 Group1 Model
usemtl Leafs
f  1/1/1 2/2/1 3/3/1
f  2/2/1 1/1/1 4/4/1
f  4/5/2 5/6/2 2/7/2
f  5/6/2 4/5/2 6/8/2
f  7/9/3 5/10/3 6/11/3
f  5/10/3 7/9/3 8/12/3
f  7/13/4 9/14/4 8/15/4
f  9/14/4 7/13/4 10/16/4
f  10/17/5 11/18/5 9/19/5
f  11/18/5 10/17/5 12/20/5
f  12/21/6 3/22/6 11/23/6
f  3/22/6 12/21/6 1/24/6
f  11/25/7 13/26/7 3/27/7
f  11/25/7 14/28/7 13/26/7
f  14/28/7 11/25/7 15/29/7
f  15/29/7 11/25/7 9/30/7
f  16/31/5 9/19/5 11/18/5
f  9/19/5 16/31/5 17/32/5
f  18/33/7 17/34/7 16/35/7
f  17/34/7 18/33/7 19/36/7
f  3/3/1 19/37/1 18/38/1
f  19/37/1 3/3/1 2/2/1
f  3/27/7 20/39/7 2/40/7
f  20/39/7 3/27/7 13/26/7
f  21/41/8 20/42/8 13/43/8
f  20/42/8 21/41/8 22/44/8
f  23/45/8 22/44/8 21/41/8
f  22/44/8 23/45/8 24/46/8
f  24/47/9 25/48/9 22/49/9
f  25/48/9 24/47/9 26/50/9
f  27/51/10 25/52/10 26/53/10
f  25/52/10 27/51/10 28/54/10
f  27/55/11 29/56/11 28/57/11
f  29/56/11 27/55/11 30/58/11
f  30/59/12 31/60/12 29/61/12
f  31/60/12 30/59/12 32/62/12
f  32/63/13 21/64/13 31/65/13
f  21/64/13 32/63/13 23/66/13
f  13/67/14 31/65/14 21/64/14
f  31/65/14 13/67/14 14/68/14
f  14/69/12 29/61/12 31/60/12
f  29/61/12 14/69/12 15/70/12
f  15/71/11 28/57/11 29/56/11
f  28/57/11 15/71/11 33/72/11
f  15/29/7 9/30/7 33/73/7
f  33/73/7 9/30/7 8/74/7
f  17/75/4 8/15/4 9/14/4
f  8/15/4 17/75/4 34/76/4
f  17/34/7 35/77/7 34/78/7
f  17/34/7 19/36/7 35/77/7
f  2/7/2 35/79/2 19/80/2
f  35/79/2 2/7/2 5/6/2
f  2/40/7 36/81/7 5/82/7
f  2/40/7 20/39/7 36/81/7
f  22/49/9 36/83/9 20/84/9
f  36/83/9 22/49/9 25/48/9
f  22/85/7 37/86/7 25/87/7
f  21/88/7 37/86/7 22/85/7
f  37/86/7 21/88/7 38/89/7
f  31/90/7 38/89/7 21/88/7
f  31/90/7 39/91/7 38/89/7
f  39/91/7 31/90/7 40/92/7
f  40/92/7 31/90/7 29/93/7
f  40/92/7 29/93/7 28/94/7
f  40/92/7 28/94/7 41/95/7
f  41/95/7 28/94/7 42/96/7
f  25/87/7 42/96/7 28/94/7
f  25/87/7 37/86/7 42/96/7
f  43/97/15 42/98/15 37/99/15
f  42/98/15 43/97/15 44/100/15
f  43/101/7 45/102/7 44/103/7
f  46/104/7 45/102/7 43/101/7
f  46/104/7 47/105/7 45/102/7
f  47/105/7 46/104/7 48/106/7
f  48/106/7 46/104/7 49/107/7
f  38/108/16 49/109/16 46/110/16
f  49/109/16 38/108/16 39/111/16
f  39/112/17 50/113/17 49/114/17
f  50/113/17 39/112/17 40/115/17
f  40/116/18 51/117/18 50/118/18
f  51/117/18 40/116/18 41/119/18
f  42/120/19 51/121/19 41/122/19
f  51/121/19 42/120/19 44/123/19
f  44/103/7 52/124/7 51/125/7
f  44/103/7 45/102/7 52/124/7
f  53/126/20 52/127/20 45/128/20
f  52/127/20 53/126/20 54/129/20
f  53/130/21 55/131/21 54/132/21
f  53/130/21 56/133/21 55/131/21
f  57/134/21 56/133/21 53/130/21
f  56/133/21 57/134/21 58/135/21
f  47/136/22 58/137/22 57/138/22
f  58/137/22 47/136/22 48/139/22
f  48/140/23 56/141/23 58/142/23
f  56/141/23 48/140/23 59/143/23
f  49/107/7 59/144/7 48/106/7
f  59/144/7 49/107/7 50/145/7
f  60/146/17 49/114/17 50/113/17
f  49/114/17 60/146/17 61/147/17
f  61/148/24 46/110/24 49/109/24
f  46/110/24 61/148/24 62/149/24
f  62/150/25 43/151/25 46/152/25
f  43/151/25 62/150/25 63/153/25
f  63/154/15 44/100/15 43/97/15
f  44/100/15 63/154/15 64/155/15
f  65/156/26 44/123/26 64/157/26
f  44/123/26 65/156/26 51/121/26
f  65/158/18 50/118/18 51/117/18
f  50/118/18 65/158/18 60/159/18
f  59/144/7 50/145/7 51/125/7
f  59/144/7 51/125/7 66/160/7
f  66/160/7 51/125/7 52/124/7
f  52/161/27 55/162/27 66/163/27
f  55/162/27 52/161/27 54/164/27
f  55/165/28 59/166/28 66/167/28
f  59/166/28 55/165/28 56/168/28
f  37/169/25 46/152/25 43/151/25
f  46/152/25 37/169/25 38/170/25
f  57/171/29 45/172/29 47/173/29
f  45/172/29 57/171/29 53/174/29
f  28/54/30 36/175/30 25/52/30
f  36/175/30 28/54/30 33/176/30
f  33/73/7 8/74/7 36/81/7
f  5/82/7 36/81/7 8/74/7
f  8/12/31 35/177/31 5/10/31
f  35/177/31 8/12/31 34/178/31
f  18/179/32 11/23/32 3/22/32
f  11/23/32 18/179/32 16/180/32

