# File produced by Open Asset Import Library (http://www.assimp.sf.net)
# (assimp v4.1.908865877)

mtllib naturePack_092.mtl

# 26 vertex positions
v  1.5 0.300000011920929 1.5
v  -1.5 0 1.5
v  1.5 0 1.5
v  -1.5 0.300000011920929 1.5
v  -0.6422910094261169 0.300000011920929 0.8006929755210876
v  -1.5 0.300000011920929 0.7413020133972168
v  -0.6422910094261169 0.1500000059604645 0.8006929755210876
v  -1.5 0.1500000059604645 0.7413020133972168
v  -0.9650949835777283 0.1500000059604645 -0.9133400917053223
v  -1.5 0.1500000059604645 -0.741300106048584
v  -0.9650949835777283 0.300000011920929 -0.9133400917053223
v  -1.5 0.300000011920929 -0.741300106048584
v  -1.5 0.300000011920929 -1.5
v  -0.7413020133972168 0.300000011920929 -1.5
v  -0.7413020133972168 0.1500000059604645 -1.5
v  0.741300106048584 0.1500000059604645 -1.5
v  0.3129199743270874 0.1500000059604645 -0.3283200263977051
v  0.08484005928039551 0.1500000059604645 0.4048399925231934
v  0.08484005928039551 0.300000011920929 0.4048399925231934
v  0.3129199743270874 0.300000011920929 -0.3283200263977051
v  0.8677101135253906 0.300000011920929 -0.8659100532531738
v  1.5 0.300000011920929 -1.5
v  0.741300106048584 0.300000011920929 -1.5
v  1.5 0 -1.5
v  -1.5 0 -1.5
v  0.8677101135253906 0.1500000059604645 -0.8659100532531738

# 59 UV coordinates
vt 118.1100006103516 11.81099987030029 0
vt 0 0 0
vt 118.1100006103516 0 0
vt 0 11.81099987030029 0
vt 33.76810073852539 27.53179931640625 0
vt -2.461869993767469e-17 1.312170105280465e-16 0
vt 118.1100006103516 1.312170105280465e-16 0
vt -2.387450046686945e-12 29.8700008392334 0
vt -31.78560066223145 5.905509948730469 0
vt 2.063369989395142 11.81099987030029 0
vt -31.78560066223145 11.81099987030029 0
vt 2.063369989395142 5.905509948730469 0
vt 21.05929946899414 95.01349639892578 0
vt -2.38717010568601e-12 29.8700008392334 0
vt -2.694349951481989e-11 88.24019622802734 0
vt 49.13919830322266 11.81099987030029 0
vt 27.01749992370605 5.905509948730469 0
vt 49.13919830322266 5.905509948730469 0
vt 27.01749992370605 11.81099987030029 0
vt -7.153610403289089e-16 118.1100006103516 0
vt -2.694449871554205e-11 88.24019622802734 0
vt 29.8700008392334 118.1100006103516 0
vt 96.27950286865234 11.81099987030029 0
vt 121 5.905509948730469 0
vt 121 11.81099987030029 0
vt 96.27950286865234 5.905509948730469 0
vt 88.24019622802734 118.1100006103516 0
vt 71.37490081787109 71.981201171875 0
vt 62.39530181884766 43.11650085449219 0
vt -42.82199859619141 11.81099987030029 0
vt -75.41649627685547 5.905509948730469 0
vt -42.82199859619141 5.905509948730469 0
vt -75.41649627685547 11.81099987030029 0
vt 93.21700286865234 93.14620208740234 0
vt 118.1100006103516 118.1100006103516 0
vt -118.1100006103516 11.81099987030029 0
vt -88.24019622802734 5.905509948730469 0
vt -88.24019622802734 11.81099987030029 0
vt -118.1100006103516 2.629270134946182e-10 0
vt -29.8700008392334 5.905509948730469 0
vt 8.435110588102794e-24 2.629270134946182e-10 0
vt 8.435110588102794e-24 11.81099987030029 0
vt -118.1100006103516 -4.403979692034132e-24 0
vt -29.8700008392334 11.81099987030029 0
vt -118.1100006103516 118.1100006103516 0
vt 0 118.1100006103516 0
vt -118.1100006103516 0 0
vt -73.1239013671875 5.905509948730469 0
vt -98.57920074462891 11.81099987030029 0
vt -98.57920074462891 5.905509948730469 0
vt -73.1239013671875 11.81099987030029 0
vt -101.3489990234375 5.905509948730469 0
vt -131.7630004882812 11.81099987030029 0
vt -131.7630004882812 5.905509948730469 0
vt -101.3489990234375 11.81099987030029 0
vt -59.70489883422852 5.905509948730469 0
vt -89.93409729003906 11.81099987030029 0
vt -89.93409729003906 5.905509948730469 0
vt -59.70489883422852 11.81099987030029 0

# 15 vertex normals
vn 0 0 1
vn 2.084379958733332e-18 1 1.110969985261904e-17
vn 0.06907840073108673 0 -0.9976109862327576
vn -4.338779695905609e-17 1 -2.409179912236822e-17
vn 0.306181013584137 -2.383849987519223e-17 0.951973021030426
vn 6.056729603421066e-17 1 6.405869966834388e-17
vn 0.9343270063400269 1.478119973125915e-17 0.3564180135726929
vn -0.4781410098075867 0 -0.8782830238342285
vn 7.141729721991255e-26 -2.226109921399377e-12 -1
vn -1 -4.515230149406552e-13 8.258060305455645e-14
vn 0 -1 0
vn 1 0 0
vn -0.9807019829750061 0 0.1955090016126633
vn -0.6958879828453064 3.361750310945895e-18 -0.7181500196456909
vn -0.9548619985580444 2.392740028434575e-17 -0.2970510125160217

# Mesh 'Mesh1 Plate_River_Corner Model' with 2 faces
g Mesh1 Plate_River_Corner Model
usemtl Stone
f  1/1/1 2/2/1 3/3/1
f  2/2/1 1/1/1 4/4/1

# Mesh 'Leafs' with 2 faces
g Leafs
usemtl Leafs
f  5/5/2 4/6/2 1/7/2
f  4/6/2 5/5/2 6/8/2

# Mesh 'Stone' with 2 faces
g Stone
usemtl Stone
f  7/9/3 6/10/3 5/11/3
f  6/10/3 7/9/3 8/12/3

# Mesh 'Water' with 2 faces
g Water
usemtl Water
f  9/13/4 8/14/4 7/5/4
f  8/14/4 9/13/4 10/15/4

# Mesh 'Stone' with 2 faces
g Stone
usemtl Stone
f  11/16/5 10/17/5 9/18/5
f  10/17/5 11/16/5 12/19/5

# Mesh 'Leafs' with 2 faces
g Leafs
usemtl Leafs
f  11/13/6 13/20/6 12/21/6
f  13/20/6 11/13/6 14/22/6

# Mesh 'Stone' with 2 faces
g Stone
usemtl Stone
f  11/23/7 15/24/7 14/25/7
f  15/24/7 11/23/7 9/26/7

# Mesh 'Water' with 4 faces
g Water
usemtl Water
f  9/13/4 7/5/4 15/22/4
f  15/22/4 7/5/4 16/27/4
f  16/27/4 7/5/4 17/28/4
f  17/28/4 7/5/4 18/29/4

# Mesh 'Stone' with 2 faces
g Stone
usemtl Stone
f  5/30/8 18/31/8 7/32/8
f  18/31/8 5/30/8 19/33/8

# Mesh 'Leafs' with 5 faces
g Leafs
usemtl Leafs
f  5/5/2 1/7/2 19/29/2
f  19/29/2 1/7/2 20/28/2
f  20/28/2 1/7/2 21/34/2
f  22/35/2 21/34/2 1/7/2
f  21/34/2 22/35/2 23/27/2

# Mesh 'Stone' with 22 faces
g Stone
usemtl Stone
f  22/36/9 16/37/9 23/38/9
f  24/39/9 16/37/9 22/36/9
f  16/37/9 24/39/9 15/40/9
f  25/41/9 15/40/9 24/39/9
f  15/40/9 25/41/9 13/42/9
f  25/43/10 10/37/10 13/36/10
f  25/43/10 8/40/10 10/37/10
f  2/2/10 8/40/10 25/43/10
f  2/2/10 6/44/10 8/40/10
f  6/44/10 2/2/10 4/4/10
f  24/45/11 2/2/11 25/46/11
f  2/2/11 24/45/11 3/47/11
f  24/3/12 1/4/12 3/2/12
f  1/4/12 24/3/12 22/1/12
f  13/36/10 10/37/10 12/38/10
f  15/40/9 13/42/9 14/44/9
f  26/48/13 23/49/13 16/50/13
f  23/49/13 26/48/13 21/51/13
f  17/52/14 21/53/14 26/54/14
f  21/53/14 17/52/14 20/55/14
f  18/56/15 20/57/15 17/58/15
f  20/57/15 18/56/15 19/59/15

# Mesh 'Water' with 1 faces
g Water
usemtl Water
f  16/27/4 17/28/4 26/34/4

