# File produced by Open Asset Import Library (http://www.assimp.sf.net)
# (assimp v4.1.908865877)

mtllib naturePack_017.mtl

# 12 vertex positions
v  0.5900000333786011 0 0
v  0.1887999773025513 0.6399999856948853 0.3270109891891479
v  0.2949999570846558 0 0.5109549760818481
v  0.3775999546051025 0.6399999856948853 0
v  0.1887999773025513 0.6399999856948853 -0.3270110487937927
v  0.2949999570846558 0 -0.5109549760818481
v  -0.2950000464916229 0 -0.5109549760818481
v  -0.2950000464916229 0 0.5109549760818481
v  -0.5900000333786011 0 0
v  -0.188800036907196 0.6399999856948853 0.3270109891891479
v  -0.3776000142097473 0.6399999856948853 0
v  -0.188800036907196 0.6399999856948853 -0.3270110487937927

# 36 UV coordinates
vt 40.64960098266602 -8.335089683532715 0
vt 21.6023998260498 17.88179969787598 0
vt 17.42130088806152 -8.335089683532715 0
vt 36.46849822998047 17.88179969787598 0
vt -5.807089805603027 -13.89179992675781 0
vt 13.24020004272461 12.32509994506836 0
vt -1.625980019569397 12.32509994506836 0
vt 17.42130088806152 -13.89179992675781 0
vt -34.84249877929688 0 0
vt -34.84249877929688 40.23270034790039 0
vt -46.45669937133789 20.11630058288574 0
vt -11.6141996383667 40.23270034790039 0
vt -11.6141996383667 0 0
vt 0 20.11630058288574 0
vt 1.625980019569397 28.99530029296875 0
vt -17.42130088806152 2.778359889984131 0
vt 5.807089805603027 2.778359889984131 0
vt -13.24020004272461 28.99530029296875 0
vt 15.7952995300293 7.241879940032959 0
vt 15.7952995300293 32.99079895019531 0
vt 8.362199783325195 20.11630058288574 0
vt 30.66139984130859 7.241879940032959 0
vt 11.6141996383667 6.471430184602973e-16 0
vt 30.66139984130859 26.21689987182617 0
vt 15.7952995300293 26.21689987182617 0
vt 34.84249877929688 1.941430008292958e-15 0
vt 30.66139984130859 32.99079895019531 0
vt 38.09450149536133 20.11630058288574 0
vt -34.84249877929688 -11.11349964141846 0
vt -15.7952995300293 15.10350036621094 0
vt -30.66139984130859 15.10350036621094 0
vt -11.6141996383667 -11.11349964141846 0
vt -17.42130088806152 -2.778359889984131 0
vt -36.46849822998047 23.43849945068359 0
vt -40.64960098266602 -2.778359889984131 0
vt -21.6023998260498 23.43849945068359 0

# 8 vertex normals
vn 0.8323299884796143 0.2762289941310883 0.4805459976196289
vn 0.8323299884796143 0.2762289941310883 -0.4805459976196289
vn 0 -1 0
vn -0.8323299884796143 0.2762289941310883 0.4805459976196289
vn 0 1 0
vn -1.938680009950578e-16 0.2762289941310883 0.9610919952392578
vn 3.790729989918519e-16 0.2762289941310883 -0.9610919952392578
vn -0.8323299884796143 0.2762289941310883 -0.4805459976196289

# Mesh 'Mesh1 Group1 Model' with 10 faces
g Mesh1 Group1 Model
usemtl Wood
f  1/1/1 2/2/1 3/3/1
f  2/2/1 1/1/1 4/4/1
f  1/5/2 5/6/2 4/7/2
f  5/6/2 1/5/2 6/8/2
f  3/9/3 6/10/3 1/11/3
f  3/9/3 7/12/3 6/10/3
f  8/13/3 7/12/3 3/9/3
f  7/12/3 8/13/3 9/14/3
f  10/15/4 9/16/4 8/17/4
f  9/16/4 10/15/4 11/18/4

# Mesh 'Green_leafs' with 2 faces
g Green_leafs
usemtl Green_leafs
f  10/19/5 12/20/5 11/21/5
f  12/20/5 10/19/5 2/22/5

# Mesh 'Wood' with 2 faces
g Wood
usemtl Wood
f  8/23/6 2/24/6 10/25/6
f  2/24/6 8/23/6 3/26/6

# Mesh 'Green_leafs' with 2 faces
g Green_leafs
usemtl Green_leafs
f  12/20/5 2/22/5 5/27/5
f  5/27/5 2/22/5 4/28/5

# Mesh 'Wood' with 4 faces
g Wood
usemtl Wood
f  6/29/7 12/30/7 5/31/7
f  12/30/7 6/29/7 7/32/7
f  9/33/8 12/34/8 7/35/8
f  12/34/8 9/33/8 11/36/8

