# File produced by Open Asset Import Library (http://www.assimp.sf.net)
# (assimp v4.1.908865877)

mtllib naturePack_068.mtl

# 33 vertex positions
v  -1.966953277587891e-06 5.081019878387451 -0.9099999666213989
v  0.7880849838256836 4.067049980163574 -0.4550000429153442
v  -1.966953277587891e-06 4.067049980163574 -0.9099999666213989
v  0.7880849838256836 5.081019878387451 -0.4550000429153442
v  -1.966953277587891e-06 6.417300224304199 -0.5277999639511108
v  0.4570850133895874 6.417300224304199 -0.2639000415802002
v  -1.966953277587891e-06 6.753049850463867 -5.960464477539062e-08
v  -0.4570899903774261 6.417300224304199 -0.2639000415802002
v  -0.7880849838256836 5.081019878387451 -0.4550000429153442
v  -0.7880849838256836 4.067049980163574 -0.4550000429153442
v  -0.4413279891014099 3.858890056610107 -0.2548000812530518
v  -1.966953277587891e-06 3.858890056610107 -0.509600043296814
v  0.4413249492645264 3.858890056610107 -0.2548000812530518
v  0.4413249492645264 3.858890056610107 0.2547999620437622
v  0.7880849838256836 4.067049980163574 0.4549999535083771
v  0.7880849838256836 5.081019878387451 0.4549999535083771
v  0.4570850133895874 6.417300224304199 0.2638999819755554
v  -1.966953277587891e-06 6.417300224304199 0.5277999639511108
v  -0.4570899903774261 6.417300224304199 0.2638999819755554
v  -0.7880849838256836 5.081019878387451 0.4549999535083771
v  -0.7880849838256836 4.067049980163574 0.4549999535083771
v  -0.4413279891014099 3.858890056610107 0.2547999620437622
v  -0.1142579913139343 3.858890056610107 -0.1142600774765015
v  0.1142539978027344 3.858890056610107 -0.1142600774765015
v  0.1142539978027344 3.858890056610107 0.114255964756012
v  -1.966953277587891e-06 3.858890056610107 0.5095999240875244
v  -0.1142579913139343 3.858890056610107 0.114255964756012
v  -0.1799319982528687 0 -0.1799300909042358
v  -0.1799319982528687 0 0.1799299716949463
v  0.1799290180206299 0 -0.1799300909042358
v  0.1799290180206299 0 0.1799299716949463
v  -1.966953277587891e-06 4.067049980163574 0.9099999666213989
v  -1.966953277587891e-06 5.081019878387451 0.9099999666213989

# 116 UV coordinates
vt 8.956689834594727 200.0399932861328 0
vt -26.8701000213623 160.1199951171875 0
vt 8.956689834594727 160.1199951171875 0
vt -26.8701000213623 200.0399932861328 0
vt 1.433069944381714 229.7220001220703 0
vt -26.8701000213623 175.5229949951172 0
vt 8.956689834594727 175.5229949951172 0
vt -19.34650039672852 229.7220001220703 0
vt -19.34650039672852 97.55560302734375 0
vt 1.433069944381714 97.55560302734375 0
vt -8.956689834594727 119.8840026855469 0
vt -55.17319869995117 122.5609970092773 0
vt -34.39369964599609 122.5609970092773 0
vt -44.78350067138672 144.8899993896484 0
vt -62.6968994140625 182.9819946289062 0
vt -34.39369964599609 237.1820068359375 0
vt -55.17319869995117 237.1820068359375 0
vt -26.8701000213623 182.9819946289062 0
vt -62.6968994140625 160.1199951171875 0
vt -62.6968994140625 200.0399932861328 0
vt -62.6968994140625 122.3160018920898 0
vt -34.75199890136719 106.3929977416992 0
vt -26.8701000213623 122.3160018920898 0
vt -54.81499862670898 106.3929977416992 0
vt 8.956689834594727 148.9170074462891 0
vt -18.98819923400879 132.9949951171875 0
vt 1.07480001449585 132.9949951171875 0
vt -26.8701000213623 148.9170074462891 0
vt 53.74020004272461 135.6170043945312 0
vt 25.7952995300293 119.6940002441406 0
vt 45.85829925537109 119.6940002441406 0
vt 17.91340065002441 135.6170043945312 0
vt 53.74020004272461 160.1199951171875 0
vt 17.91340065002441 200.0399932861328 0
vt 17.91340065002441 160.1199951171875 0
vt 53.74020004272461 200.0399932861328 0
vt 53.74020004272461 179.2519989013672 0
vt 25.4370002746582 233.4519958496094 0
vt 17.91340065002441 179.2519989013672 0
vt 46.21649932861328 233.4519958496094 0
vt 46.21649932861328 110.0589981079102 0
vt 35.82680130004883 132.3869934082031 0
vt 25.4370002746582 110.0589981079102 0
vt 55.17319869995117 147.5670013427734 0
vt 44.78350067138672 169.89599609375 0
vt 34.39369964599609 147.5670013427734 0
vt 19.34650039672852 172.572998046875 0
vt 8.956689834594727 194.9019927978516 0
vt -1.433069944381714 172.572998046875 0
vt -35.82680130004883 182.3990020751953 0
vt -46.21649932861328 160.0700073242188 0
vt -25.4370002746582 160.0700073242188 0
vt -53.74020004272461 194.1719970703125 0
vt -25.4370002746582 248.3719940185547 0
vt -46.21649932861328 248.3719940185547 0
vt -17.91340065002441 194.1719970703125 0
vt -53.74020004272461 200.0399932861328 0
vt -17.91340065002441 160.1199951171875 0
vt -17.91340065002441 200.0399932861328 0
vt -53.74020004272461 160.1199951171875 0
vt -45.85829925537109 66.4906005859375 0
vt -17.91340065002441 82.41349792480469 0
vt -53.74020004272461 82.41349792480469 0
vt -25.7952995300293 66.4906005859375 0
vt -31.02689933776855 55.88980102539062 0
vt -13.65180015563965 25.7952995300293 0
vt -13.65180015563965 45.85829925537109 0
vt -26.52860069274902 40.32500076293945 0
vt -35.52519989013672 40.32500076293945 0
vt -48.40200042724609 45.85829925537109 0
vt -35.52519989013672 31.32850074768066 0
vt -48.40200042724609 25.7952995300293 0
vt -31.02689933776855 15.7637996673584 0
vt -26.52860069274902 31.32850074768066 0
vt -42.91059875488281 0.4074279963970184 0
vt -31.32850074768066 152.35400390625 0
vt -40.32500076293945 152.35400390625 0
vt -28.74290084838867 0.4074279963970184 0
vt -38.11080169677734 42.91059875488281 0
vt -23.94300079345703 28.74290084838867 0
vt -23.94300079345703 42.91059875488281 0
vt -38.11080169677734 28.74290084838867 0
vt 42.91059875488281 -0.648514986038208 0
vt 31.32850074768066 151.2980041503906 0
vt 28.74290084838867 -0.648514986038208 0
vt 40.32500076293945 151.2980041503906 0
vt -38.11080169677734 -0.730193018913269 0
vt -26.52860069274902 151.2169952392578 0
vt -35.52519989013672 151.2169952392578 0
vt -23.94300079345703 -0.730193018913269 0
vt 35.52519989013672 152.4360046386719 0
vt 23.94300079345703 0.4891059994697571 0
vt 38.11080169677734 0.4891059994697571 0
vt 26.52860069274902 152.4360046386719 0
vt 26.8701000213623 69.11270141601562 0
vt -1.07480001449585 53.18980026245117 0
vt 18.98819923400879 53.18980026245117 0
vt -8.956689834594727 69.11270141601562 0
vt 26.8701000213623 200.0399932861328 0
vt -8.956689834594727 160.1199951171875 0
vt 26.8701000213623 160.1199951171875 0
vt -8.956689834594727 200.0399932861328 0
vt 19.34650039672852 252.1020050048828 0
vt -8.956689834594727 197.9019927978516 0
vt 26.8701000213623 197.9019927978516 0
vt -1.433069944381714 252.1020050048828 0
vt 26.8701000213623 190.4420013427734 0
vt 55.17319869995117 244.6419982910156 0
vt 34.39369964599609 244.6419982910156 0
vt 62.6968994140625 190.4420013427734 0
vt 62.6968994140625 200.0399932861328 0
vt 62.6968994140625 160.1199951171875 0
vt 26.8701000213623 95.71430206298828 0
vt 54.81499862670898 79.79139709472656 0
vt 62.6968994140625 95.71430206298828 0
vt 34.75199890136719 79.79139709472656 0

# 35 vertex normals
vn 0.4963200092315674 0.1211069971323013 -0.8596510291099548
vn 0.5 0 -0.8660249710083008
vn 0.4853329956531525 0.2404319941997528 -0.8406209945678711
vn 0.2959980070590973 0.8059409856796265 -0.5126839876174927
vn -0.2959980070590973 0.8059409856796265 -0.5126839876174927
vn -0.4963200092315674 0.1211069971323013 -0.8596510291099548
vn -0.4853329956531525 0.2404319941997528 -0.8406209945678711
vn -0.5 0 -0.8660249710083008
vn -0.2573490142822266 -0.857371985912323 -0.4457409977912903
vn 0.2573490142822266 -0.857371985912323 -0.4457409977912903
vn 0.5146980285644531 -0.857371985912323 1.923340094383292e-18
vn 1 0 0
vn 0.9926390051841736 0.1211069971323013 2.77915004832224e-18
vn 0.9706659913063049 0.2404319941997528 5.517390638679751e-18
vn 0.5919960141181946 0.8059409856796265 -2.138690032134634e-17
vn 0.2959980070590973 0.8059409856796265 0.5126839876174927
vn -0.2959980070590973 0.8059409856796265 0.5126839876174927
vn -0.5919960141181946 0.8059409856796265 2.666840221038312e-18
vn -0.9926390051841736 0.1211069971323013 -1.535860045235758e-15
vn -0.9706659913063049 0.2404319941997528 -1.28618999013162e-15
vn -1 0 -1.762909979604352e-15
vn -0.5146980285644531 -0.857371985912323 -6.862480414757458e-16
vn 0 -1 0
vn -0.9998549818992615 0.01701660081744194 -9.231940305119565e-18
vn 0.9998549818992615 0.01701660081744194 -9.231940305119565e-18
vn 1.736360052818743e-18 0.01701660081744194 -0.9998549818992615
vn 1.736360052818743e-18 0.01701660081744194 0.9998549818992615
vn -0.2573490142822266 -0.857371985912323 0.4457409977912903
vn -0.4963200092315674 0.1211069971323013 0.8596510291099548
vn -0.5 0 0.8660249710083008
vn -0.4853329956531525 0.2404319941997528 0.8406209945678711
vn 0.4963200092315674 0.1211069971323013 0.8596510291099548
vn 0.4853329956531525 0.2404319941997528 0.8406209945678711
vn 0.5 0 0.8660249710083008
vn 0.2573490142822266 -0.857371985912323 0.4457409977912903

# Mesh 'Mesh1 Oak_Dark Model' with 40 faces
g Mesh1 Oak_Dark Model
usemtl Fall_Leafs
f  1/1/1 2/2/2 3/3/2
f  2/2/2 1/1/1 4/4/1
f  5/5/3 4/6/1 1/7/1
f  4/6/1 5/5/3 6/8/3
f  6/9/4 5/10/4 7/11/4
f  5/12/5 8/13/5 7/14/5
f  1/15/6 8/16/7 5/17/7
f  8/16/7 1/15/6 9/18/6
f  3/19/8 9/4/6 1/20/6
f  9/4/6 3/19/8 10/2/8
f  3/21/9 11/22/9 10/23/9
f  11/22/9 3/21/9 12/24/9
f  3/25/10 13/26/10 12/27/10
f  13/26/10 3/25/10 2/28/10
f  2/29/11 14/30/11 13/31/11
f  14/30/11 2/29/11 15/32/11
f  2/33/12 16/34/13 15/35/12
f  16/34/13 2/33/12 4/36/13
f  4/37/13 17/38/14 16/39/13
f  17/38/14 4/37/13 6/40/14
f  6/41/15 7/42/15 17/43/15
f  17/44/16 7/45/16 18/46/16
f  18/47/17 7/48/17 19/49/17
f  7/50/18 8/51/18 19/52/18
f  9/53/19 19/54/20 8/55/20
f  19/54/20 9/53/19 20/56/19
f  9/57/19 21/58/21 20/59/19
f  21/58/21 9/57/19 10/60/21
f  11/61/22 21/62/22 10/63/22
f  21/62/22 11/61/22 22/64/22
f  12/65/23 22/66/23 11/67/23
f  22/66/23 12/65/23 23/68/23
f  23/68/23 12/65/23 24/69/23
f  24/69/23 12/65/23 13/70/23
f  24/69/23 13/70/23 25/71/23
f  14/72/23 25/71/23 13/70/23
f  26/73/23 25/71/23 14/72/23
f  26/73/23 27/74/23 25/71/23
f  22/66/23 27/74/23 26/73/23
f  27/74/23 22/66/23 23/68/23

# Mesh 'Wood' with 10 faces
g Wood
usemtl Wood
f  28/75/24 27/76/24 23/77/24
f  27/76/24 28/75/24 29/78/24
f  30/79/23 29/80/23 28/81/23
f  29/80/23 30/79/23 31/82/23
f  30/83/25 25/84/25 31/85/25
f  25/84/25 30/83/25 24/86/25
f  30/87/26 23/88/26 24/89/26
f  23/88/26 30/87/26 28/90/26
f  25/91/27 29/92/27 31/93/27
f  29/92/27 25/91/27 27/94/27

# Mesh 'Fall_Leafs' with 12 faces
g Fall_Leafs
usemtl Fall_Leafs
f  32/95/28 22/96/28 26/97/28
f  22/96/28 32/95/28 21/98/28
f  33/99/29 21/100/30 32/101/30
f  21/100/30 33/99/29 20/102/29
f  18/103/31 20/104/29 33/105/29
f  20/104/29 18/103/31 19/106/31
f  33/107/32 17/108/33 18/109/33
f  17/108/33 33/107/32 16/110/32
f  32/101/34 16/111/32 33/99/32
f  16/111/32 32/101/34 15/112/34
f  32/113/35 14/114/35 15/115/35
f  14/114/35 32/113/35 26/116/35

