# File produced by Open Asset Import Library (http://www.assimp.sf.net)
# (assimp v4.1.908865877)

mtllib naturePack_057.mtl

# 38 vertex positions
v  1.5 0 1.5
v  0.741300106048584 0.1500000059604645 1.5
v  -1.5 0 1.5
v  1.5 0.300000011920929 1.5
v  1.5 0 -1.5
v  1.5 0.300000011920929 -1.5
v  0.741300106048584 0.1500000059604645 -1.5
v  -0.7413020133972168 0.1500000059604645 -1.5
v  -1.5 0 -1.5
v  -1.5 0.300000011920929 -1.5
v  -1.5 0.1500000059604645 -0.741300106048584
v  -1.5 0.1500000059604645 0.7413020133972168
v  -1.5 0.300000011920929 0.7413020133972168
v  -1.5 0.300000011920929 1.5
v  -0.7413020133972168 0.1500000059604645 1.5
v  -0.6223520040512085 0.1500000059604645 1.128136038780212
v  -0.5637350082397461 0.1500000059604645 0.5179790258407593
v  -0.6109169721603394 0.1500000059604645 -0.9533700942993164
v  -0.6109169721603394 0.300000011920929 -0.9533700942993164
v  -0.7413020133972168 0.300000011920929 -1.5
v  -1.5 0.300000011920929 -0.741300106048584
v  -0.5637350082397461 0.300000011920929 0.5179790258407593
v  -0.7413020133972168 0.300000011920929 0.7989689707756042
v  -0.7413020133972168 0.300000011920929 1.5
v  -0.6223520040512085 0.300000011920929 1.128136038780212
v  -0.7413020133972168 0.1500000059604645 0.7989689707756042
v  0.741300106048584 0.1500000059604645 0.7989689707756042
v  0.8602499961853027 0.1500000059604645 1.128136038780212
v  0.741300106048584 0.300000011920929 0.7989689707756042
v  0.8602499961853027 0.300000011920929 1.128136038780212
v  0.741300106048584 0.300000011920929 1.5
v  1.103960037231445 0.300000011920929 0.2250800132751465
v  0.887470006942749 0.300000011920929 -0.8871901035308838
v  0.741300106048584 0.300000011920929 -1.5
v  0.887470006942749 0.1500000059604645 -0.8871901035308838
v  0.741300106048584 0.1500000059604645 -0.4243199825286865
v  0.741300106048584 0.300000011920929 -0.4243199825286865
v  1.103960037231445 0.1500000059604645 0.2250800132751465

# 83 UV coordinates
vt 118.1100006103516 0 0
vt 88.24019622802734 5.905509948730469 0
vt 0 0 0
vt 118.1100006103516 11.81099987030029 0
vt 0 11.81099987030029 0
vt -118.1100006103516 -4.98089972045257e-11 0
vt -88.24019622802734 5.905509948730469 0
vt -118.1100006103516 11.81099987030029 0
vt -29.8700008392334 5.905509948730469 0
vt -4.387370241415445e-12 -4.98089972045257e-11 0
vt -4.387370241415445e-12 11.81099987030029 0
vt -118.1100006103516 0 0
vt -29.8700008392334 11.81099987030029 0
vt 29.8700008392334 5.905509948730469 0
vt 88.24019622802734 0 0
vt 34.5531005859375 14.64029979705811 0
vt 29.8700008392334 0 0
vt 36.86080169677734 38.66230010986328 0
vt 88.24019622802734 118.1100006103516 0
vt 35.00329971313477 96.58940124511719 0
vt 29.8700008392334 118.1100006103516 0
vt 107.9570007324219 5.905509948730469 0
vt 85.83229827880859 11.81099987030029 0
vt 85.83229827880859 5.905509948730469 0
vt 107.9570007324219 11.81099987030029 0
vt 0 118.1100006103516 0
vt -1.955409965892496e-11 88.24019622802734 0
vt -88.24019622802734 11.81099987030029 0
vt 20.47319984436035 5.905509948730469 0
vt 56.45849990844727 11.81099987030029 0
vt 20.47319984436035 11.81099987030029 0
vt 56.45849990844727 5.905509948730469 0
vt 0 29.8700008392334 0
vt -6.930339813232422 11.81099987030029 0
vt -44.82529830932617 5.905509948730469 0
vt -6.930339813232422 5.905509948730469 0
vt -44.82529830932617 11.81099987030029 0
vt 29.8700008392334 27.59959983825684 0
vt 29.8700008392334 11.81099987030029 0
vt 24.47150039672852 5.905509948730469 0
vt 9.100429534912109 11.81099987030029 0
vt 9.100429534912109 5.905509948730469 0
vt 24.47150039672852 11.81099987030029 0
vt 15.80529975891113 5.905509948730469 0
vt 2.025759935379028 11.81099987030029 0
vt 2.025759935379028 5.905509948730469 0
vt 15.80529975891113 11.81099987030029 0
vt 52.37459945678711 5.905509948730469 0
vt 39.28820037841797 11.81099987030029 0
vt 39.28820037841797 5.905509948730469 0
vt 52.37459945678711 11.81099987030029 0
vt 88.24019622802734 27.59959983825684 0
vt 92.92330169677734 14.64029979705811 0
vt 17.81180000305176 5.905509948730469 0
vt 4.032259941101074 11.81099987030029 0
vt 4.032259941101074 5.905509948730469 0
vt 17.81180000305176 11.81099987030029 0
vt -26.88400077819824 5.905509948730469 0
vt -42.25500106811523 11.81099987030029 0
vt -42.25500106811523 5.905509948730469 0
vt -26.88400077819824 11.81099987030029 0
vt 88.24019622802734 11.81099987030029 0
vt 102.5179977416992 50.19359970092773 0
vt 118.1100006103516 118.1100006103516 0
vt 93.99500274658203 93.98390197753906 0
vt -69.61080169677734 5.905509948730469 0
vt -94.41400146484375 11.81099987030029 0
vt -94.41400146484375 5.905509948730469 0
vt -69.61080169677734 11.81099987030029 0
vt -98.81569671630859 5.905509948730469 0
vt -117.9260025024414 11.81099987030029 0
vt -117.9260025024414 5.905509948730469 0
vt -98.81569671630859 11.81099987030029 0
vt 6.162330150604248 5.905509948730469 0
vt -23.1210994720459 11.81099987030029 0
vt -23.1210994720459 5.905509948730469 0
vt 6.162330150604248 11.81099987030029 0
vt -70.47010040283203 5.905509948730469 0
vt -97.19730377197266 11.81099987030029 0
vt -97.19730377197266 5.905509948730469 0
vt -70.47010040283203 11.81099987030029 0
vt 88.24019622802734 75.76039886474609 0
vt -118.1100006103516 118.1100006103516 0

# 18 vertex normals
vn 0 0 1
vn 1 0 0
vn -3.714639950887569e-14 4.217169690713674e-13 -1
vn -1 0 0
vn 0 1 0
vn 0.972711980342865 0 -0.232016995549202
vn 0.232016995549202 0 0.972711980342865
vn -0.232016995549202 0 -0.972711980342865
vn 0.9524589776992798 0 0.3046680092811584
vn 0.9404770135879517 0 -0.3398570120334625
vn 0.8453530073165894 0 0.5342079997062683
vn -0.9404770135879517 0 0.3398570120334625
vn -0.9524589776992798 0 -0.3046680092811584
vn -0.972711980342865 0 0.232016995549202
vn -0.9535830020904541 0 -0.3011299967765808
vn -0.8730800151824951 0 0.4875760078430176
vn -0.8453530073165894 0 -0.5342079997062683
vn 0 -1 0

# Mesh 'Mesh1 Plate_River_Dirt Model' with 15 faces
g Mesh1 Plate_River_Dirt Model
usemtl Stone
f  1/1/1 2/2/1 3/3/1
f  2/2/1 1/1/1 4/4/1
f  5/1/2 4/5/2 1/3/2
f  4/5/2 5/1/2 6/4/2
f  5/6/3 7/7/3 6/8/3
f  7/7/3 5/6/3 8/9/3
f  9/10/3 8/9/3 5/6/3
f  8/9/3 9/10/3 10/11/3
f  9/12/4 11/7/4 10/8/4
f  9/12/4 12/9/4 11/7/4
f  3/3/4 12/9/4 9/12/4
f  3/3/4 13/13/4 12/9/4
f  13/13/4 3/3/4 14/5/4
f  3/3/1 15/14/1 14/5/1
f  15/14/1 3/3/1 2/2/1

# Mesh 'Water' with 5 faces
g Water
usemtl Water
f  2/15/5 16/16/5 15/17/5
f  16/16/5 2/15/5 17/18/5
f  7/19/5 17/18/5 2/15/5
f  7/19/5 18/20/5 17/18/5
f  18/20/5 7/19/5 8/21/5

# Mesh 'Stone' with 3 faces
g Stone
usemtl Stone
f  8/22/6 19/23/6 18/24/6
f  19/23/6 8/22/6 20/25/6
f  8/9/3 10/11/3 20/13/3

# Mesh 'Leafs' with 2 faces
g Leafs
usemtl Leafs
f  10/26/5 19/20/5 20/21/5
f  19/20/5 10/26/5 21/27/5

# Mesh 'Stone' with 3 faces
g Stone
usemtl Stone
f  10/8/4 11/7/4 21/28/4
f  11/29/7 19/30/7 21/31/7
f  19/30/7 11/29/7 18/32/7

# Mesh 'Water' with 2 faces
g Water
usemtl Water
f  12/33/5 18/20/5 11/27/5
f  18/20/5 12/33/5 17/18/5

# Mesh 'Stone' with 2 faces
g Stone
usemtl Stone
f  13/34/8 17/35/8 12/36/8
f  17/35/8 13/34/8 22/37/8

# Mesh 'Leafs' with 3 faces
g Leafs
usemtl Leafs
f  13/33/5 23/38/5 22/18/5
f  13/33/5 24/17/5 23/38/5
f  24/17/5 13/33/5 14/3/5

# Mesh 'Stone' with 7 faces
g Stone
usemtl Stone
f  14/5/1 15/14/1 24/39/1
f  16/40/9 24/41/9 15/42/9
f  24/41/9 16/40/9 25/43/9
f  26/44/10 25/45/10 16/46/10
f  25/45/10 26/44/10 23/47/10
f  17/48/11 23/49/11 26/50/11
f  23/49/11 17/48/11 22/51/11

# Mesh 'Water' with 1 faces
g Water
usemtl Water
f  17/18/5 26/38/5 16/16/5

# Mesh 'Leafs' with 1 faces
g Leafs
usemtl Leafs
f  25/16/5 23/38/5 24/17/5

# Mesh 'Water' with 2 faces
g Water
usemtl Water
f  7/19/5 2/15/5 27/52/5
f  28/53/5 27/52/5 2/15/5

# Mesh 'Stone' with 5 faces
g Stone
usemtl Stone
f  28/54/12 29/55/12 27/56/12
f  29/55/12 28/54/12 30/57/12
f  2/58/13 30/59/13 28/60/13
f  30/59/13 2/58/13 31/61/13
f  2/2/1 4/4/1 31/62/1

# Mesh 'Leafs' with 5 faces
g Leafs
usemtl Leafs
f  4/1/5 30/53/5 31/15/5
f  30/53/5 4/1/5 32/63/5
f  6/64/5 32/63/5 4/1/5
f  6/64/5 33/65/5 32/63/5
f  33/65/5 6/64/5 34/19/5

# Mesh 'Stone' with 9 faces
g Stone
usemtl Stone
f  6/8/3 7/7/3 34/28/3
f  35/66/14 34/67/14 7/68/14
f  34/67/14 35/66/14 33/69/14
f  36/70/15 33/71/15 35/72/15
f  33/71/15 36/70/15 37/73/15
f  38/74/16 37/75/16 36/76/16
f  37/75/16 38/74/16 32/77/16
f  27/78/17 32/79/17 38/80/17
f  32/79/17 27/78/17 29/81/17

# Mesh 'Leafs' with 1 faces
g Leafs
usemtl Leafs
f  32/63/5 29/52/5 30/53/5

# Mesh 'Water' with 3 faces
g Water
usemtl Water
f  38/63/5 36/82/5 27/52/5
f  7/19/5 27/52/5 36/82/5
f  7/19/5 36/82/5 35/65/5

# Mesh 'Leafs' with 1 faces
g Leafs
usemtl Leafs
f  32/63/5 33/65/5 37/82/5

# Mesh 'Stone' with 2 faces
g Stone
usemtl Stone
f  5/83/18 3/3/18 9/26/18
f  3/3/18 5/83/18 1/12/18

