# File produced by Open Asset Import Library (http://www.assimp.sf.net)
# (assimp v4.1.908865877)

mtllib naturePack_031.mtl

# 35 vertex positions
v  0.6373949646949768 0.5600000023841858 0.3679999709129333
v  -2.026557922363281e-06 0 0.9199999570846558
v  0.7967450022697449 0 0.4599999487400055
v  -2.026557922363281e-06 0.5600000023841858 0.7359999418258667
v  0.5354049801826477 0.9200000166893005 0.3238399624824524
v  -2.026557922363281e-06 0.9200000166893005 0.6329599618911743
v  0.3747850060462952 1.970000028610229 0.2911039590835571
v  -2.026557922363281e-06 1.970000028610229 0.507487952709198
v  0.1703159809112549 1.970000028610229 -0.07804906368255615
v  -0.02887701988220215 1.970000028610229 0.1676629781723022
v  -0.05484998226165771 1.970000028610229 0.02596396207809448
v  0.2433050274848938 0.9200000166893005 -0.2035200595855713
v  -0.07835698127746582 0.9200000166893005 -0.05493205785751343
v  0.2677050232887268 0.9200000166893005 -0.4489600658416748
v  -0.115460991859436 0.9200000166893005 -0.2573601007461548
v  0.3186950087547302 0.5600000023841858 -0.5520000457763672
v  -0.1374539732933044 0.5600000023841858 -0.3239001035690308
v  -2.026557922363281e-06 0.5600000023841858 -0.7360000610351562
v  -0.637395977973938 0.5600000023841858 -0.3680000305175781
v  -2.026557922363281e-06 0 -0.9199999570846558
v  -0.7967450022697449 0 -0.4600000381469727
v  -0.7967450022697449 0 0.4599999487400055
v  0.7967450022697449 0 -0.4600000381469727
v  0.6373949646949768 0.5600000023841858 -0.3680000305175781
v  0.5354049801826477 0.9200000166893005 -0.2944000959396362
v  0.5354049801826477 0.9200000166893005 0.02358394861221313
v  0.3747850060462952 1.970000028610229 0.08092492818832397
v  -0.637395977973938 0.5600000023841858 0.3679999709129333
v  -0.5354130268096924 0.9200000166893005 0.3238399624824524
v  -0.3747900128364563 1.970000028610229 0.2911039590835571
v  -0.3747900128364563 1.970000028610229 0.1676629781723022
v  -0.04125303030014038 0.9200000166893005 0.1474959850311279
v  -0.5354130268096924 0.9200000166893005 0.1474959850311279
v  -0.04910999536514282 0.5600000023841858 0.1580659747123718
v  -0.637395977973938 0.5600000023841858 0.1580659747123718

# 116 UV coordinates
vt 59.76380157470703 18.6299991607666 0
vt 27.1653995513916 -4.292479991912842 0
vt 63.38579940795898 -4.292479991912842 0
vt 30.78739929199219 18.6299991607666 0
vt 57.15589904785156 33.73770141601562 0
vt 30.78739929199219 19.13549995422363 0
vt 59.76380157470703 19.13549995422363 0
vt 32.81570053100586 33.73770141601562 0
vt 52.32379913330078 76.98040008544922 0
vt 32.81570053100586 35.42100143432617 0
vt 57.15589904785156 35.42100143432617 0
vt 35.28570175170898 76.98040008544922 0
vt 38.07329940795898 39.29330062866211 0
vt 31.36779975891113 16.2406005859375 0
vt 46.12329864501953 24.75970077514648 0
vt 30.23100090026855 29.61960029602051 0
vt 29.20849990844727 35.19829940795898 0
vt -55.72200012207031 34.28939819335938 0
vt -41.27669906616211 75.75789642333984 0
vt -51.04159927368164 75.75789642333984 0
vt -41.77220153808594 34.28939819335938 0
vt 41.90739822387695 53.89609909057617 0
vt 28.28300094604492 38.38309860229492 0
vt 40.94699859619141 44.23310089111328 0
vt 26.82220077514648 46.35269927978516 0
vt -65.19719696044922 15.55920028686523 0
vt -44.72119903564453 29.99300003051758 0
vt -61.58729934692383 29.99300003051758 0
vt -45.11849975585938 15.55920028686523 0
vt 31.36779975891113 65.1968994140625 0
vt 25.95639991760254 48.97259902954102 0
vt 43.91500091552734 57.95280075073242 0
vt 6.27357006072998 50.70869827270508 0
vt -63.38579940795898 -12.87740039825439 0
vt -30.78739929199219 10.04500007629395 0
vt -59.76380157470703 10.04500007629395 0
vt -27.1653995513916 -12.87740039825439 0
vt -31.36779975891113 72.44090270996094 0
vt 0 18.11020088195801 0
vt 0 54.3306999206543 0
vt -31.36779975891113 0 0
vt -62.73569869995117 54.3306999206543 0
vt 5.433070182800293 1.460039973258972 0
vt -27.1653995513916 -21.46240043640137 0
vt 9.055120468139648 -21.46240043640137 0
vt -23.54330062866211 1.460039973258972 0
vt -9.055120468139648 1.460039973258972 0
vt -9.344880104064941 13.97469997406006 0
vt -23.54330062866211 -0.9008679986000061 0
vt -9.055120468139648 -0.9008679986000061 0
vt -21.51499938964844 13.97469997406006 0
vt 52.44699859619141 35.29199981689453 0
vt 52.44699859619141 47.81100082397461 0
vt -5.939260005950928 69.45829772949219 0
vt -19.74279975891113 27.73349952697754 0
vt -5.175899982452393 27.73349952697754 0
vt -16.13610076904297 69.45829772949219 0
vt 46.12329864501953 33.03450012207031 0
vt 24.75970077514648 69.69259643554688 0
vt 35.29199981689453 27.87319946289062 0
vt 33.03450012207031 69.69259643554688 0
vt 23.47089958190918 27.87319946289062 0
vt 23.47089958190918 20.55410003662109 0
vt 50.70869827270508 5.823140144348145 0
vt 35.29199981689453 20.55410003662109 0
vt 21.7322998046875 5.823140144348145 0
vt 21.7322998046875 5.752520084381104 0
vt 54.3306999206543 -17.16990089416504 0
vt 50.70869827270508 5.752520084381104 0
vt 18.11020088195801 -17.16990089416504 0
vt -62.73569869995117 18.11020088195801 0
vt 47.81100082397461 20.55410003662109 0
vt 23.54330062866211 27.21489906311035 0
vt -9.055120468139648 4.292479991912842 0
vt 27.1653995513916 4.292479991912842 0
vt -5.433070182800293 27.21489906311035 0
vt 21.51499938964844 41.28459930419922 0
vt -5.433070182800293 26.6825008392334 0
vt 23.54330062866211 26.6825008392334 0
vt -2.825200080871582 41.28459930419922 0
vt 19.04500007629395 80.20929718017578 0
vt -2.825200080871582 38.65000152587891 0
vt 21.51499938964844 38.65000152587891 0
vt 2.006920099258423 80.20929718017578 0
vt 16.61240005493164 29.61960029602051 0
vt 16.61240005493164 24.75970077514648 0
vt -29.74379920959473 35.62979888916016 0
vt -16.61240005493164 76.97599792480469 0
vt -30.23100090026855 76.97599792480469 0
vt -10.28870010375977 35.62979888916016 0
vt -29.43449974060059 22.91819953918457 0
vt -10.28870010375977 37.09749984741211 0
vt -29.74379920959473 37.09749984741211 0
vt -6.27357006072998 22.91819953918457 0
vt 29.43449974060059 29.99740028381348 0
vt 6.27357006072998 29.99740028381348 0
vt -24.5526008605957 37.13690185546875 0
vt -43.49029922485352 22.95859909057617 0
vt -24.19899940490723 22.95859909057617 0
vt -32.65489959716797 37.13690185546875 0
vt -24.5526008605957 36.50170135498047 0
vt -29.35540008544922 77.84159851074219 0
vt -32.65489959716797 36.50170135498047 0
vt -23.68370056152344 77.84159851074219 0
vt -40.75730133056641 37.13690185546875 0
vt -54.3306999206543 3.034529944252013e-17 0
vt -29.99740028381348 22.92239952087402 0
vt -50.70869827270508 22.92239952087402 0
vt -21.7322998046875 22.92239952087402 0
vt -18.11020088195801 1.011510036562712e-17 0
vt -23.47089958190918 37.65340042114258 0
vt -30.41360092163086 37.65340042114258 0
vt -24.75970077514648 79.17919921875 0
vt -30.41360092163086 37.35979843139648 0
vt -23.47089958190918 37.35979843139648 0
vt -29.61960029602051 79.17919921875 0

# 34 vertex normals
vn 0.4831820130348206 0.257178008556366 0.8368960022926331
vn 0.480908989906311 0.2736870050430298 0.8329600095748901
vn 0.4925320148468018 0.1721870005130768 0.8530910015106201
vn 0.4973439872264862 0.1029379963874817 0.86142498254776
vn -8.629430218742065e-18 1 -3.252980006046693e-16
vn -0.4180440008640289 0.07908120006322861 -0.9049779772758484
vn -4.454320217692567e-16 1 7.873529910242325e-17
vn -0.4391719996929169 0.1891719996929169 -0.8782610297203064
vn -4.107789840722421e-17 1 -9.645299828005177e-17
vn -0.480908989906311 0.2736870050430298 -0.8329600095748901
vn 0 -1 0
vn 0.480908989906311 0.2736870050430298 -0.8329600095748901
vn 0.4787090122699738 0.2887040078639984 -0.8291490077972412
vn 0.47639200091362 0.3036499917507172 -0.8251349925994873
vn 0.6081169843673706 0.1357399970293045 -0.7821559906005859
vn 0.9885010123252869 0.1512160003185272 0
vn 0.9772049784660339 0.2122980058193207 -1.714340091322275e-18
vn 0.9619789719581604 0.2731240093708038 -2.821110232460064e-18
vn 0.9618189930915833 0.2736870050430298 -2.22017013488519e-18
vn 0.9621390104293823 0.2725610136985779 -3.422060256202289e-18
vn -0.4831820130348206 0.257178008556366 0.8368960022926331
vn -0.480908989906311 0.2736870050430298 0.8329600095748901
vn -0.4925320148468018 0.1721870005130768 0.8530910015106201
vn -0.4973439872264862 0.1029379963874817 0.86142498254776
vn 3.588430265624467e-18 -0.005075019784271717 -0.999987006187439
vn 3.774100053098732e-18 0.01920319907367229 -0.9998160004615784
vn 3.400640207445075e-18 -0.02935020066797733 -0.9995689988136292
vn -0.9834629893302917 0.01744190044701099 0.1802659928798676
vn -0.9832609891891479 0.02675260044634342 0.1802289932966232
vn -0.9835799932479858 0.008129729889333248 0.1802870035171509
vn -0.9618189930915833 0.2736870050430298 1.962849962751581e-18
vn -0.9619789719581604 0.2731240093708038 1.967519893617811e-17
vn -0.9772049784660339 0.2122980058193207 -3.288450114554814e-18
vn -0.9885010123252869 0.1512160003185272 -4.395170252624574e-17

# Mesh 'Mesh1 Tall_Rock_3 Model' with 66 faces
g Mesh1 Tall_Rock_3 Model
usemtl Stone
f  1/1/1 2/2/2 3/3/2
f  2/2/2 1/1/1 4/4/1
f  5/5/3 4/6/1 1/7/1
f  4/6/1 5/5/3 6/8/3
f  7/9/4 6/10/3 5/11/3
f  6/10/3 7/9/4 8/12/4
f  9/13/5 8/14/5 7/15/5
f  9/13/5 10/16/5 8/14/5
f  10/16/5 9/13/5 11/17/5
f  12/18/6 11/19/6 9/20/6
f  11/19/6 12/18/6 13/21/6
f  14/22/7 13/23/7 12/24/7
f  13/23/7 14/22/7 15/25/7
f  16/26/8 15/27/8 14/28/8
f  15/27/8 16/26/8 17/29/8
f  18/30/9 17/31/9 16/32/9
f  17/31/9 18/30/9 19/33/9
f  20/34/10 19/35/10 18/36/10
f  19/35/10 20/34/10 21/37/10
f  20/38/11 22/39/11 21/40/11
f  22/39/11 20/38/11 2/41/11
f  2/41/11 20/38/11 23/42/11
f  18/43/12 23/44/12 20/45/12
f  23/44/12 18/43/12 24/46/13
f  24/46/13 18/43/12 16/47/13
f  14/48/14 24/49/13 16/50/13
f  24/49/13 14/48/14 25/51/14
f  14/22/7 26/52/7 25/53/7
f  14/22/7 12/24/7 26/52/7
f  9/54/15 26/55/15 12/56/15
f  26/55/15 9/54/15 27/57/15
f  9/13/5 7/15/5 27/58/5
f  7/59/16 26/60/17 27/61/16
f  26/60/17 7/59/16 5/62/17
f  5/63/17 24/64/18 26/65/17
f  24/64/18 5/63/17 1/66/18
f  1/67/18 23/68/19 24/69/18
f  23/68/19 1/67/18 3/70/19
f  2/41/11 23/42/11 3/71/11
f  26/65/17 24/64/18 25/72/20
f  4/73/21 22/74/22 2/75/22
f  22/74/22 4/73/21 28/76/21
f  6/77/23 28/78/21 4/79/21
f  28/78/21 6/77/23 29/80/23
f  8/81/24 29/82/23 6/83/23
f  29/82/23 8/81/24 30/84/24
f  8/14/5 31/85/5 30/86/5
f  31/85/5 8/14/5 10/16/5
f  32/87/25 31/88/26 10/89/26
f  31/88/26 32/87/25 33/90/25
f  34/91/27 33/92/25 32/93/25
f  33/92/25 34/91/27 35/94/27
f  34/95/9 19/33/9 35/96/9
f  19/33/9 34/95/9 17/31/9
f  32/97/28 17/98/29 34/99/29
f  17/98/29 32/97/28 13/100/28
f  32/101/28 11/102/30 13/103/28
f  11/102/30 32/101/28 10/104/30
f  17/98/29 13/100/28 15/105/29
f  21/106/31 35/107/32 19/108/31
f  21/106/31 28/109/32 35/107/32
f  28/109/32 21/106/31 22/110/31
f  29/111/33 35/107/32 28/109/32
f  35/107/32 29/111/33 33/112/33
f  30/113/34 33/114/33 29/115/33
f  33/114/33 30/113/34 31/116/34

