# File produced by Open Asset Import Library (http://www.assimp.sf.net)
# (assimp v4.1.908865877)

mtllib naturePack_138.mtl

# 40 vertex positions
v  1.095000028610229 0.795199990272522 0.5875250101089478
v  0.7649999856948853 3.313559802434321e-17 0.465025007724762
v  1.095000028610229 3.313559802434321e-17 0.5875250101089478
v  0.7649999856948853 0.7099999785423279 0.465025007724762
v  0.7649999856948853 0.7099999785423279 -0.2349749803543091
v  1.095000028610229 0.795199990272522 -0.3574749827384949
v  1.095000028610229 0.6960530281066895 0.4680179953575134
v  1.095000028610229 0.09914679825305939 0.4680179953575134
v  1.095000028610229 3.313559802434321e-17 -0.3574749827384949
v  0.7649999856948853 3.313559802434321e-17 -0.2349749803543091
v  -0.6850000619888306 3.313559802434321e-17 0.433525025844574
v  -0.6850000619888306 3.313559802434321e-17 -0.2034749984741211
v  -1.095000028610229 0 0.5131499767303467
v  -1.095000028610229 0 -0.2831000089645386
v  -1.095000028610229 0.08763869851827621 0.4124540090560913
v  -1.095000028610229 0.6152610182762146 0.4124540090560913
v  -1.095000028610229 0.7028999924659729 0.5131499767303467
v  -1.095000028610229 0.7028999924659729 -0.2831000089645386
v  -0.6850000619888306 0.6389999985694885 0.433525025844574
v  -0.6850000619888306 0.6389999985694885 -0.2034749984741211
v  0.7649999856948853 0.6214759945869446 0.3765010237693787
v  0.7649999856948853 0.08852390199899673 0.3765010237693787
v  0.7649999856948853 0.08852390199899673 -0.1464509963989258
v  0.7649999856948853 0.6214759945869446 -0.1464509963989258
v  1.095000028610229 0.6960530281066895 -0.2379679679870605
v  1.095000028610229 0.09914679825305939 -0.2379679679870605
v  -0.6850000619888306 0.07967150211334229 -0.1229180097579956
v  -0.6850000619888306 0.07967150211334229 0.3529680073261261
v  -1.095000028610229 0.08763869851827621 -0.1824039816856384
v  -1.095000028610229 0.6152610182762146 -0.1824039816856384
v  -0.6850000619888306 0.559328019618988 -0.1229180097579956
v  -0.6850000619888306 0.559328019618988 0.3529680073261261
v  -0.2860080003738403 0.1540739983320236 -0.2121430039405823
v  0.06728994846343994 0.1540739983320236 -0.2198179960250854
v  0.06728994846343994 0.4740740060806274 -0.2198179960250854
v  -0.1721040010452271 0.2052740007638931 -0.5875250101089478
v  -0.1721040010452271 0.4228740036487579 -0.5875250101089478
v  -0.3760560154914856 0.4228740036487579 -0.5830949544906616
v  -0.3760560154914856 0.2052740007638931 -0.5830949544906616
v  -0.2860080003738403 0.4740740060806274 -0.2121430039405823

# 148 UV coordinates
vt 80.83100128173828 31.30710029602051 0
vt 66.97260284423828 1.132459968831187e-15 0
vt 80.83100128173828 1.132459968831187e-15 0
vt 66.97260284423828 27.95280075073242 0
vt -3.30060019834133e-16 91.30919647216797 0
vt -32.38190078735352 77.89109802246094 0
vt -4.822830200195312 77.89109802246094 0
vt -37.2047004699707 91.30919647216797 0
vt 0 31.30710029602051 0
vt 4.705009937286377 27.40369987487793 0
vt 37.2047004699707 31.30710029602051 0
vt 4.705009937286377 3.903419971466064 0
vt 0 8.02388974626431e-15 0
vt 37.2047004699707 8.02388974626431e-15 0
vt -73.22830200195312 4.822830200195312 0
vt -86.22049713134766 37.2047004699707 0
vt -86.22049713134766 -0 0
vt -73.22830200195312 32.38190078735352 0
vt -16.14170074462891 6.062990188598633 0
vt -16.14170074462891 31.14170074462891 0
vt 0 2.928149938583374 0
vt 0 34.2765998840332 0
vt -2.928149938583374 0 0
vt -6.892560005187988 3.450340032577515 0
vt -34.2765998840332 0 0
vt -6.892560005187988 24.222900390625 0
vt -2.928149938583374 27.6732006072998 0
vt -34.2765998840332 27.6732006072998 0
vt 6.062990188598633 -12.07509994506836 0
vt 34.2765998840332 4.261529922485352 0
vt 2.928149938583374 4.261529922485352 0
vt 31.14170074462891 -12.07509994506836 0
vt -4.822830200195312 74.50779724121094 0
vt -31.14170074462891 17.3528003692627 0
vt -6.062990188598633 17.3528003692627 0
vt -32.38190078735352 74.50779724121094 0
vt 4.822830200195312 27.95280075073242 0
vt 8.308030128479004 24.46759986877441 0
vt 32.38190078735352 27.95280075073242 0
vt 8.308030128479004 3.485189914703369 0
vt 4.822830200195312 1.304549958658949e-15 0
vt 32.38190078735352 1.304549958658949e-15 0
vt 28.89669990539551 3.485189914703369 0
vt 28.89669990539551 24.46759986877441 0
vt 32.49969863891602 90.14029693603516 0
vt 8.308030128479004 76.82050323486328 0
vt 28.89669990539551 76.82050323486328 0
vt 4.705009937286377 90.14029693603516 0
vt 32.49969863891602 27.40369987487793 0
vt 32.49969863891602 3.903419971466064 0
vt -28.89669990539551 73.30259704589844 0
vt -4.705009937286377 86.30139923095703 0
vt -32.49969863891602 86.30139923095703 0
vt -8.308030128479004 73.30259704589844 0
vt -27.97019958496094 16.16060066223145 0
vt -8.308030128479004 73.24829864501953 0
vt -28.89669990539551 73.24829864501953 0
vt -9.234519958496094 16.16060066223145 0
vt 30.31220054626465 0.06703460216522217 0
vt 9.234519958496094 -16.07769966125488 0
vt 27.97019958496094 -16.07769966125488 0
vt 6.892560005187988 0.06703460216522217 0
vt -30.31220054626465 3.450340032577515 0
vt -30.31220054626465 24.222900390625 0
vt -27.97019958496094 -13.01700019836426 0
vt -6.892560005187988 3.274199962615967 0
vt -30.31220054626465 3.274199962615967 0
vt -9.234519958496094 -13.01700019836426 0
vt 28.89669990539551 74.20890045166016 0
vt 9.234519958496094 17.06990051269531 0
vt 27.97019958496094 17.06990051269531 0
vt 8.308030128479004 74.20890045166016 0
vt -73.08390045166016 3.485189914703369 0
vt -15.98979949951172 22.02079963684082 0
vt -73.08390045166016 24.46759986877441 0
vt -15.98979949951172 3.136670112609863 0
vt -0.9896609783172607 3.450340032577515 0
vt -17.30039978027344 22.02079963684082 0
vt -17.30039978027344 3.136670112609863 0
vt -0.9896609783172607 24.222900390625 0
vt -9.234519958496094 3.136670112609863 0
vt -6.062990188598633 1.676330025447758e-29 0
vt -9.234519958496094 22.02079963684082 0
vt -31.14170074462891 1.676330025447758e-29 0
vt -27.97019958496094 3.136670112609863 0
vt -31.14170074462891 25.15749931335449 0
vt -27.97019958496094 22.02079963684082 0
vt -6.062990188598633 25.15749931335449 0
vt 0.5582380294799805 27.6732006072998 0
vt 17.00160026550293 1.304549958658949e-15 0
vt 17.00160026550293 25.15749931335449 0
vt 0.5582380294799805 0 0
vt 73.10630035400391 1.289370069452967e-15 0
vt 16.00620079040527 25.15749931335449 0
vt 16.00620079040527 1.289370069452967e-15 0
vt 73.10630035400391 27.95280075073242 0
vt 11.95839977264404 22.02079963684082 0
vt -4.352340221405029 3.450340032577515 0
vt 11.95839977264404 3.136670112609863 0
vt -4.352340221405029 24.222900390625 0
vt 73.68759918212891 3.485189914703369 0
vt 16.5935001373291 22.02079963684082 0
vt 16.5935001373291 3.136670112609863 0
vt 73.68759918212891 24.46759986877441 0
vt 91.76979827880859 3.903419971466064 0
vt 78.28739929199219 24.46759986877441 0
vt 78.28739929199219 3.485189914703369 0
vt 91.76979827880859 27.40369987487793 0
vt -9.908650398254395 1.304549958658949e-15 0
vt 6.534669876098633 27.6732006072998 0
vt -9.908650398254395 25.15749931335449 0
vt 6.534669876098633 0 0
vt -32.52629852294922 6.065889835357666 0
vt -16.81430053710938 1.268110071872477e-15 0
vt -16.81430053710938 25.15749931335449 0
vt -73.91439819335938 1.268110071872477e-15 0
vt -46.43889999389648 6.065889835357666 0
vt -73.91439819335938 27.95280075073242 0
vt -46.43889999389648 18.6643009185791 0
vt 18.94589996337891 8.081629753112793 0
vt 1.671509981155396 18.6643009185791 0
vt 1.671509981155396 6.065889835357666 0
vt 18.94589996337891 16.64859962463379 0
vt -37.3306999206543 8.081629753112793 0
vt -29.2992000579834 16.64859962463379 0
vt -37.3306999206543 16.64859962463379 0
vt -29.2992000579834 8.081629753112793 0
vt -37.3306999206543 46.13869857788086 0
vt -32.52629852294922 31.32279968261719 0
vt -29.2992000579834 46.13869857788086 0
vt -46.43889999389648 31.32279968261719 0
vt -23.08130073547363 6.065889835357666 0
vt -38.10990142822266 16.64859962463379 0
vt -38.10990142822266 8.081629753112793 0
vt -23.08130073547363 18.6643009185791 0
vt -32.52629852294922 18.6643009185791 0
vt -37.3306999206543 -42.77410125732422 0
vt -32.52629852294922 -27.95820045471191 0
vt -46.43889999389648 -27.95820045471191 0
vt -29.2992000579834 -42.77410125732422 0
vt -93.77850341796875 31.30710029602051 0
vt -79.92009735107422 1.318529919816026e-15 0
vt -79.92009735107422 27.95280075073242 0
vt -93.77850341796875 1.318529919816026e-15 0
vt -68.34490203857422 24.46759986877441 0
vt -81.82730102539062 3.903419971466064 0
vt -68.34490203857422 3.485189914703369 0
vt -81.82730102539062 27.40369987487793 0

# 33 vertex normals
vn -0.348008006811142 -5.735310543876233e-18 0.9374909996986389
vn -0.2499849945306778 0.9682499766349792 -9.56964940469868e-19
vn 1 -7.793210011018936e-17 0
vn -6.071839745019903e-31 -1 0
vn 2.749089846954507e-31 -1 0
vn 8.081849722685639e-17 -1 2.506880191056734e-33
vn -1 -7.347129870078686e-18 -0
vn 0.153995007276535 0.9880719780921936 4.436900439193078e-18
vn -0.04890689998865128 0.9988030195236206 0
vn 1 0 0
vn 0.2204319983720779 -0.9754019975662231 -4.353520219857427e-18
vn -0.03217380121350288 0.9994819760322571 2.902950034699989e-19
vn -0.006104980129748583 0.9999809861183167 -6.756480002721549e-19
vn 0.01942840032279491 0.9998109936714172 3.88299982830741e-19
vn -0.1351699978113174 -0.9908220171928406 -2.622770105953018e-18
vn 0.04282110184431076 -0.9990829825401306 5.486410243197802e-18
vn 0.01622739993035793 -2.101060055785464e-18 -0.9998679757118225
vn -0.1435839980840683 0 -0.9896379709243774
vn -1 -8.081849722685639e-17 -0
vn 0.1906449943780899 0 0.9816589951515198
vn -0.02171899937093258 -2.367460189503067e-18 0.9997640252113342
vn -0.1435839980840683 3.287390082599828e-18 0.9896379709243774
vn 0.01622739993035793 -1.400710012579426e-18 0.9998679757118225
vn 0.2672370076179504 7.846960372658754e-18 0.9636309742927551
vn 0.1906449943780899 0 -0.9816589951515198
vn -0.02171899937093258 1.183730094751533e-18 -0.9997640252113342
vn 0.8380489945411682 -3.927329802182137e-17 -0.5455939769744873
vn -0.02171899937093258 6.877449752028267e-31 -0.9997640252113342
vn -0.002954950090497732 -0.9907010197639465 -0.1360210031270981
vn -0.9717789888381958 -6.043410093043553e-18 0.2358939945697784
vn -0.002954950090497732 0.9907010197639465 -0.1360210031270981
vn -0.348008006811142 -2.867650102059288e-18 -0.9374909996986389
vn 0.2672370076179504 5.231310223828286e-18 -0.9636309742927551

# Mesh 'Mesh1 Fallen_Trunk Model' with 4 faces
g Mesh1 Fallen_Trunk Model
usemtl Wood
f  1/1/1 2/2/1 3/3/1
f  2/2/1 1/1/1 4/4/1
f  1/5/2 5/6/2 4/7/2
f  5/6/2 1/5/2 6/8/2

# Mesh 'Light_Wood' with 4 faces
g Light_Wood
usemtl Light_Wood
f  1/9/3 7/10/3 6/11/3
f  7/10/3 1/9/3 8/12/3
f  3/13/3 8/12/3 1/9/3
f  8/12/3 3/13/3 9/14/3

# Mesh 'Wood' with 6 faces
g Wood
usemtl Wood
f  2/15/4 9/16/4 3/17/4
f  9/16/4 2/15/4 10/18/4
f  11/19/5 10/18/5 2/15/5
f  10/18/5 11/19/5 12/20/5
f  13/21/6 12/20/6 11/19/6
f  12/20/6 13/21/6 14/22/6

# Mesh 'Light_Wood' with 4 faces
g Light_Wood
usemtl Light_Wood
f  13/23/7 15/24/7 14/25/7
f  15/24/7 13/23/7 16/26/7
f  17/27/7 16/26/7 13/23/7
f  16/26/7 17/27/7 18/28/7

# Mesh 'Wood' with 14 faces
g Wood
usemtl Wood
f  19/29/8 18/30/8 17/31/8
f  18/30/8 19/29/8 20/32/8
f  4/33/9 20/34/9 19/35/9
f  20/34/9 4/33/9 5/36/9
f  4/37/10 21/38/10 5/39/10
f  21/38/10 4/37/10 22/40/10
f  2/41/10 22/40/10 4/37/10
f  22/40/10 2/41/10 10/42/10
f  22/40/10 10/42/10 23/43/10
f  23/43/10 10/42/10 24/44/10
f  5/39/10 24/44/10 10/42/10
f  5/39/10 21/38/10 24/44/10
f  25/45/11 21/46/11 24/47/11
f  21/46/11 25/45/11 7/48/11

# Mesh 'Light_Wood' with 4 faces
g Light_Wood
usemtl Light_Wood
f  6/11/3 7/10/3 25/49/3
f  6/11/3 25/49/3 9/14/3
f  26/50/3 9/14/3 25/49/3
f  8/12/3 9/14/3 26/50/3

# Mesh 'Wood' with 6 faces
g Wood
usemtl Wood
f  23/51/12 8/52/12 26/53/12
f  8/52/12 23/51/12 22/54/12
f  27/55/13 22/56/13 23/57/13
f  22/56/13 27/55/13 28/58/13
f  29/59/14 28/60/14 27/61/14
f  28/60/14 29/59/14 15/62/14

# Mesh 'Light_Wood' with 4 faces
g Light_Wood
usemtl Light_Wood
f  14/25/7 15/24/7 29/63/7
f  14/25/7 29/63/7 18/28/7
f  30/64/7 18/28/7 29/63/7
f  16/26/7 18/28/7 30/64/7

# Mesh 'Wood' with 35 faces
g Wood
usemtl Wood
f  31/65/15 16/66/15 30/67/15
f  16/66/15 31/65/15 32/68/15
f  24/69/16 32/70/16 31/71/16
f  32/70/16 24/69/16 21/72/16
f  22/73/17 32/74/17 21/75/17
f  32/74/17 22/73/17 28/76/17
f  15/77/18 32/78/18 28/79/18
f  32/78/18 15/77/18 16/80/18
f  28/81/19 11/82/19 32/83/19
f  11/82/19 28/81/19 12/84/19
f  12/84/19 28/81/19 27/85/19
f  12/84/19 27/85/19 20/86/19
f  31/87/19 20/86/19 27/85/19
f  32/83/19 20/86/19 31/87/19
f  32/83/19 19/88/19 20/86/19
f  19/88/19 32/83/19 11/82/19
f  17/89/20 11/90/20 19/91/20
f  11/90/20 17/89/20 13/92/20
f  2/93/21 19/94/21 11/95/21
f  19/94/21 2/93/21 4/96/21
f  31/97/22 29/98/22 27/99/22
f  29/98/22 31/97/22 30/100/22
f  23/101/23 31/102/23 27/103/23
f  31/102/23 23/101/23 24/104/23
f  26/105/24 24/106/24 23/107/24
f  24/106/24 26/105/24 25/108/24
f  12/109/25 18/110/25 20/111/25
f  18/110/25 12/109/25 14/112/25
f  33/113/26 12/114/26 20/115/26
f  12/114/26 33/113/26 10/116/26
f  34/117/26 10/116/26 33/113/26
f  10/116/26 34/117/26 5/118/26
f  5/118/26 34/117/26 35/119/26
f  36/120/27 35/121/27 34/122/27
f  35/121/27 36/120/27 37/123/27

# Mesh 'Light_Wood' with 2 faces
g Light_Wood
usemtl Light_Wood
f  36/124/28 38/125/28 37/126/28
f  38/125/28 36/124/28 39/127/28

# Mesh 'Wood' with 13 faces
g Wood
usemtl Wood
f  36/128/29 33/129/29 39/130/29
f  33/129/29 36/128/29 34/131/29
f  33/132/30 38/133/30 39/134/30
f  38/133/30 33/132/30 40/135/30
f  33/113/26 20/115/26 40/136/26
f  40/136/26 20/115/26 35/119/26
f  5/118/26 35/119/26 20/115/26
f  37/137/31 40/138/31 35/139/31
f  40/138/31 37/137/31 38/140/31
f  6/141/32 10/142/32 5/143/32
f  10/142/32 6/141/32 9/144/32
f  21/145/33 8/146/33 22/147/33
f  8/146/33 21/145/33 7/148/33

