# File produced by Open Asset Import Library (http://www.assimp.sf.net)
# (assimp v4.1.908865877)

mtllib naturePack_071.mtl

# 27 vertex positions
v  -0.1748099327087402 0.9715499877929688 0.1748100519180298
v  -0.2752900123596191 0 -0.2752898931503296
v  -0.2752900123596191 0 0.2753000259399414
v  -0.1748099327087402 0.9715499877929688 -0.1748099327087402
v  -0.5888999700546265 0.9715499877929688 1.020006060600281
v  0.588900089263916 0.9715499877929688 1.020006060600281
v  0.1748099327087402 0.9715499877929688 0.1748100519180298
v  0.2752900123596191 0 0.2753000259399414
v  0.2752900123596191 0 -0.2752898931503296
v  0.1748099327087402 0.9715499877929688 -0.1748099327087402
v  0.588900089263916 0.9715499877929688 -1.019999861717224
v  -0.5888999700546265 0.9715499877929688 -1.019999861717224
v  -1.177799940109253 0.9715499877929688 0
v  -1.509999990463257 1.59154999256134 0
v  -0.7549999952316284 1.59154999256134 1.307700037956238
v  0.7549998760223389 1.59154999256134 1.307700037956238
v  1.509999990463257 1.59154999256134 0
v  1.177799940109253 0.9715499877929688 0
v  0.7549998760223389 1.59154999256134 -1.307700037956238
v  0.5813500881195068 3.771549940109253 -1.006929993629456
v  1.162699937820435 3.771549940109253 0
v  0 4.601550102233887 0
v  -0.5813499689102173 3.771549940109253 -1.006929993629456
v  -0.7549999952316284 1.59154999256134 -1.307700037956238
v  -1.162699937820435 3.771549940109253 0
v  -0.5813499689102173 3.771549940109253 1.006929039955139
v  0.5813500881195068 3.771549940109253 1.006929039955139

# 96 UV coordinates
vt -44.60179901123047 43.45489883422852 0
vt -62.3224983215332 5.000850200653076 0
vt -40.64590072631836 5.000850200653076 0
vt -58.36650085449219 43.45489883422852 0
vt -52.56650161743164 44.60179901123047 0
vt -36.26380157470703 11.32649993896484 0
vt -52.56650161743164 58.36650085449219 0
vt -82.63390350341797 11.32649993896484 0
vt -66.33119964599609 44.60179901123047 0
vt 48.61050033569336 4.181479930877686 0
vt 66.33119964599609 42.63550186157227 0
vt 52.56650161743164 42.63550186157227 0
vt 70.28720092773438 4.181479930877686 0
vt -48.61050033569336 40.64590072631836 0
vt -70.28720092773438 62.3224983215332 0
vt -70.28720092773438 40.64590072631836 0
vt -48.61050033569336 62.3224983215332 0
vt -52.56650161743164 32.04249954223633 0
vt -70.28720092773438 -6.411479949951172 0
vt -48.61050033569336 -6.411479949951172 0
vt -66.33119964599609 32.04249954223633 0
vt -82.63390350341797 91.64189910888672 0
vt -66.33119964599609 58.36650085449219 0
vt -36.26380157470703 91.64189910888672 0
vt -13.07870006561279 51.48419952392578 0
vt 8.322830200195312 19.09390068054199 0
vt -44.58660125732422 46.00320053100586 0
vt -38.04719924926758 19.09390068054199 0
vt 14.8621997833252 46.00320053100586 0
vt 36.26380157470703 29.92910003662109 0
vt 89.17320251464844 56.83840179443359 0
vt 29.72439956665039 56.83840179443359 0
vt 82.63390350341797 29.92910003662109 0
vt 51.12599945068359 62.43479919433594 0
vt 104.0350036621094 89.34410095214844 0
vt 44.58660125732422 89.34410095214844 0
vt 97.49610137939453 62.43479919433594 0
vt -105.8190002441406 51.48419952392578 0
vt 44.60179901123047 31.22319984436035 0
vt 62.3224983215332 -7.230850219726562 0
vt 58.36650085449219 31.22319984436035 0
vt 40.64590072631836 -7.230850219726562 0
vt 44.58660125732422 111.0149993896484 0
vt -8.322830200195312 84.10520172119141 0
vt 38.04719924926758 84.10520172119141 0
vt -14.8621997833252 111.0149993896484 0
vt 37.75 131.1199951171875 0
vt -14.8621997833252 44.48020172119141 0
vt 44.58660125732422 44.48020172119141 0
vt -8.025589942932129 131.1199951171875 0
vt -8.025589942932129 4.264510154724121 0
vt 37.75 4.264510154724121 0
vt 14.8621997833252 55.63909912109375 0
vt -82.33660125732422 24.12820053100586 0
vt -36.56100082397461 24.12820053100586 0
vt -59.44879913330078 75.50279998779297 0
vt -89.17320251464844 47.9984016418457 0
vt -36.56100082397461 134.6380004882812 0
vt -82.33660125732422 134.6380004882812 0
vt -29.72439956665039 47.9984016418457 0
vt -82.63390350341797 73.26999664306641 0
vt -29.72439956665039 100.1790008544922 0
vt -89.17320251464844 100.1790008544922 0
vt -36.26380157470703 73.26999664306641 0
vt -51.12599945068359 40.76430130004883 0
vt -104.0350036621094 67.67359924316406 0
vt -97.49610137939453 40.76430130004883 0
vt -44.58660125732422 67.67359924316406 0
vt -44.58660125732422 58.55319976806641 0
vt -97.19879913330078 145.1929931640625 0
vt -104.0350036621094 58.55319976806641 0
vt -51.42319869995117 145.1929931640625 0
vt -44.58660125732422 65.58969879150391 0
vt 8.025589942932129 152.2299957275391 0
vt -37.75 152.2299957275391 0
vt 14.8621997833252 65.58969879150391 0
vt 29.72439956665039 62.07149887084961 0
vt 82.33660125732422 148.7109985351562 0
vt 36.56100082397461 148.7109985351562 0
vt 89.17320251464844 62.07149887084961 0
vt 104.0350036621094 51.51670074462891 0
vt 51.42319869995117 138.156005859375 0
vt 44.58660125732422 51.51670074462891 0
vt 97.19879913330078 138.156005859375 0
vt 97.19879913330078 43.99190139770508 0
vt 74.31099700927734 95.36650085449219 0
vt 51.42319869995117 43.99190139770508 0
vt 82.33660125732422 103.5830001831055 0
vt 59.44879913330078 154.9579925537109 0
vt 36.56100082397461 103.5830001831055 0
vt -14.8621997833252 174.8209991455078 0
vt -37.75 123.4469985961914 0
vt 8.025589942932129 123.4469985961914 0
vt -74.31099700927734 135.093994140625 0
vt -97.19879913330078 83.71929931640625 0
vt -51.42319869995117 83.71929931640625 0

# 23 vertex normals
vn -0.9946939945220947 0.1028760001063347 0
vn 0 -1 0
vn -1.52277995070602e-17 0.1028760001063347 0.9946939945220947
vn -1.52277995070602e-17 0.1028760001063347 -0.9946939945220947
vn -0.7855719923973083 -0.4209150075912476 0.4535500109195709
vn -2.642970170840196e-16 -0.4209150075912476 0.9071000218391418
vn 0.7855719923973083 -0.4209150075912476 0.4535500109195709
vn 0.9946939945220947 0.1028760001063347 0
vn 0.7855719923973083 -0.4209150075912476 -0.4535500109195709
vn 0.857899010181427 0.1366740018129349 -0.4953080117702484
vn 0.5508409738540649 0.7716420292854309 -0.3180280029773712
vn 2.320459993892957e-17 0.7716420292854309 -0.6360570192337036
vn 4.813960381667719e-18 0.1366740018129349 -0.9906160235404968
vn 5.154719916550776e-18 -0.4209150075912476 -0.9071000218391418
vn -0.7855719923973083 -0.4209150075912476 -0.4535500109195709
vn -0.857899010181427 0.1366740018129349 -0.4953080117702484
vn -0.857899010181427 0.1366740018129349 0.4953080117702484
vn -5.329600125551022e-16 0.1366740018129349 0.9906160235404968
vn 0.857899010181427 0.1366740018129349 0.4953080117702484
vn 0.5508409738540649 0.7716420292854309 0.3180280029773712
vn -3.909090138803098e-16 0.7716420292854309 0.6360570192337036
vn -0.5508409738540649 0.7716420292854309 0.3180280029773712
vn -0.5508409738540649 0.7716420292854309 -0.3180280029773712

# Mesh 'Mesh1 Large_Oak_Dark Model' with 2 faces
g Mesh1 Large_Oak_Dark Model
usemtl Wood
f  1/1/1 2/2/1 3/3/1
f  2/2/1 1/1/1 4/4/1

# Mesh 'Leafs' with 3 faces
g Leafs
usemtl Leafs
f  1/5/2 5/6/2 4/7/2
f  5/6/2 1/5/2 6/8/2
f  6/8/2 1/5/2 7/9/2

# Mesh 'Wood' with 6 faces
g Wood
usemtl Wood
f  3/10/3 7/11/3 1/12/3
f  7/11/3 3/10/3 8/13/3
f  3/14/2 9/15/2 8/16/2
f  9/15/2 3/14/2 2/17/2
f  4/18/4 9/19/4 2/20/4
f  9/19/4 4/18/4 10/21/4

# Mesh 'Leafs' with 13 faces
g Leafs
usemtl Leafs
f  4/7/2 11/22/2 10/23/2
f  4/7/2 12/24/2 11/22/2
f  5/6/2 12/24/2 4/7/2
f  12/24/2 5/6/2 13/25/2
f  5/26/5 14/27/5 13/28/5
f  14/27/5 5/26/5 15/29/5
f  5/30/6 16/31/6 15/32/6
f  16/31/6 5/30/6 6/33/6
f  6/34/7 17/35/7 16/36/7
f  17/35/7 6/34/7 18/37/7
f  6/8/2 11/22/2 18/38/2
f  6/8/2 7/9/2 11/22/2
f  10/23/2 11/22/2 7/9/2

# Mesh 'Wood' with 2 faces
g Wood
usemtl Wood
f  7/39/8 9/40/8 10/41/8
f  9/40/8 7/39/8 8/42/8

# Mesh 'Leafs' with 24 faces
g Leafs
usemtl Leafs
f  19/43/9 18/44/9 11/45/9
f  18/44/9 19/43/9 17/46/9
f  20/47/10 17/48/10 19/49/10
f  17/48/10 20/47/10 21/50/10
f  21/51/11 20/52/11 22/53/11
f  20/54/12 23/55/12 22/56/12
f  19/57/13 23/58/13 20/59/13
f  23/58/13 19/57/13 24/60/13
f  11/61/14 24/62/14 19/63/14
f  24/62/14 11/61/14 12/64/14
f  13/65/15 24/66/15 12/67/15
f  24/66/15 13/65/15 14/68/15
f  14/69/16 23/70/16 24/71/16
f  23/70/16 14/69/16 25/72/16
f  14/73/17 26/74/17 25/75/17
f  26/74/17 14/73/17 15/76/17
f  15/77/18 27/78/18 26/79/18
f  27/78/18 15/77/18 16/80/18
f  17/81/19 27/82/19 16/83/19
f  27/82/19 17/81/19 21/84/19
f  21/85/20 22/86/20 27/87/20
f  27/88/21 22/89/21 26/90/21
f  22/91/22 25/92/22 26/93/22
f  22/94/23 23/95/23 25/96/23

