# File produced by Open Asset Import Library (http://www.assimp.sf.net)
# (assimp v4.1.908865877)

mtllib naturePack_108.mtl

# 20 vertex positions
v  0.4018450081348419 0 -0.4018450081348419
v  0.2998839914798737 0.2300000041723251 0.299884021282196
v  0.4018450081348419 0 0.4018450081348419
v  0.2998839914798737 0.2300000041723251 -0.2998839914798737
v  -0.299884021282196 0.2300000041723251 -0.2998839914798737
v  -0.4018450081348419 0 -0.4018450081348419
v  -0.4018450081348419 0 0.4018450081348419
v  -0.299884021282196 0.2300000041723251 0.299884021282196
v  0.2380029857158661 0.8299999833106995 0.2380040138959885
v  -0.2380040138959885 0.8299999833106995 0.2380040138959885
v  -0.1391850113868713 0.8299999833106995 0.1391850113868713
v  -0.2380040138959885 0.8299999833106995 -0.2380029857158661
v  -0.1391850113868713 0.8299999833106995 -0.1391839683055878
v  0.2380029857158661 0.8299999833106995 -0.2380029857158661
v  0.1391839683055878 0.8299999833106995 -0.1391839683055878
v  -0.1391850113868713 0.2300000041723251 -0.1391839683055878
v  0.1391839683055878 0.2300000041723251 -0.1391839683055878
v  0.1391839683055878 0.2300000041723251 0.1391850113868713
v  -0.1391850113868713 0.2300000041723251 0.1391850113868713
v  0.1391839683055878 0.8299999833106995 0.1391850113868713

# 50 UV coordinates
vt 31.64130020141602 -12.8233003616333 0
vt 4.014200210571289 -2.918280124664307 0
vt 2.335010167042213e-16 -12.8233003616333 0
vt 27.62709999084473 -2.918280124664307 0
vt -31.64130020141602 -12.8233003616333 0
vt -4.014200210571289 -2.918280124664307 0
vt -27.62709999084473 -2.918280124664307 0
vt 2.262310123272765e-16 -12.8233003616333 0
vt -31.64130020141602 31.64130020141602 0
vt 0 0 0
vt 0 31.64130020141602 0
vt -31.64130020141602 0 0
vt 27.62709999084473 9.904999732971191 0
vt 31.64130020141602 -3.323039953998669e-17 0
vt 4.014200210571289 9.904999732971191 0
vt 25.1909008026123 33.16650009155273 0
vt 4.014200210571289 9.419159889221191 0
vt 27.62709999084473 9.419159889221191 0
vt 6.45044994354248 33.16650009155273 0
vt 10.34099960327148 10.34099960327148 0
vt 6.45044994354248 6.45044994354248 0
vt 25.1909008026123 6.45044994354248 0
vt 6.45044994354248 25.1909008026123 0
vt 10.34099960327148 21.30039978027344 0
vt 25.1909008026123 25.1909008026123 0
vt 21.30039978027344 21.30039978027344 0
vt 10.34099960327148 9.055120468139648 0
vt 21.30039978027344 32.67720031738281 0
vt 10.34099960327148 32.67720031738281 0
vt 21.30039978027344 9.055120468139648 0
vt 21.30039978027344 10.34099960327148 0
vt -10.34099960327148 32.67720031738281 0
vt -21.30039978027344 9.055120468139648 0
vt -10.34099960327148 9.055120468139648 0
vt -21.30039978027344 32.67720031738281 0
vt 6.45044994354248 29.92040061950684 0
vt 27.62709999084473 6.173059940338135 0
vt 25.1909008026123 29.92040061950684 0
vt 4.014200210571289 6.173059940338135 0
vt -27.62709999084473 6.173059940338135 0
vt -6.45044994354248 29.92040061950684 0
vt -25.1909008026123 29.92040061950684 0
vt -4.014200210571289 6.173059940338135 0
vt -27.62709999084473 9.419159889221191 0
vt -6.45044994354248 33.16650009155273 0
vt -25.1909008026123 33.16650009155273 0
vt -4.014200210571289 9.419159889221191 0
vt -31.64130020141602 4.280469749293276e-17 0
vt -4.014200210571289 9.904999732971191 0
vt -27.62709999084473 9.904999732971191 0

# 18 vertex normals
vn 0.9141970276832581 0.4052700102329254 6.746430068471759e-18
vn 0.9663839936256409 0.2571029961109161 3.723620115446765e-18
vn 6.536370033455755e-18 0.4052700102329254 -0.9141970276832581
vn 3.783410384483323e-18 0.2571029961109161 -0.9663839936256409
vn 0 -1 0
vn 4.922310288564202e-18 0.2571029961109161 0.9663839936256409
vn 2.369060163602897e-18 0.4052700102329254 0.9141970276832581
vn 7.35408066876597e-18 0.1025910004973412 0.9947239756584167
vn 0 1 0
vn 0 0 1
vn 1 0 0
vn 0 0 -1
vn 0.9947239756584167 0.1025910004973412 6.089299902078887e-19
vn 9.370839646398857e-19 0.1025910004973412 -0.9947239756584167
vn -0.9663839936256409 0.2571029961109161 -1.395440044896851e-18
vn -0.9947239756584167 0.1025910004973412 -5.808070591327316e-18
vn -0.9141970276832581 0.4052700102329254 3.051630166337261e-18
vn -1 0 0

# Mesh 'Mesh1 Trunk Model' with 10 faces
g Mesh1 Trunk Model
usemtl Wood
f  1/1/1 2/2/2 3/3/1
f  2/2/2 1/1/1 4/4/2
f  1/5/3 5/6/4 4/7/4
f  5/6/4 1/5/3 6/8/3
f  1/9/5 7/10/5 6/11/5
f  7/10/5 1/9/5 3/12/5
f  2/13/6 7/10/7 3/14/7
f  7/10/7 2/13/6 8/15/6
f  9/16/8 8/17/6 2/18/6
f  8/17/6 9/16/8 10/19/8

# Mesh 'Light_Wood' with 5 faces
g Light_Wood
usemtl Light_Wood
f  11/20/9 10/21/9 9/22/9
f  10/21/9 11/20/9 12/23/9
f  13/24/9 12/23/9 11/20/9
f  12/23/9 13/24/9 14/25/9
f  14/25/9 13/24/9 15/26/9

# Mesh 'Wood' with 8 faces
g Wood
usemtl Wood
f  16/27/10 15/28/10 13/29/10
f  15/28/10 16/27/10 17/30/10
f  16/24/9 18/31/9 17/26/9
f  18/31/9 16/24/9 19/20/9
f  16/30/11 11/29/11 19/27/11
f  11/29/11 16/30/11 13/28/11
f  11/32/12 18/33/12 19/34/12
f  18/33/12 11/32/12 20/35/12

# Mesh 'Light_Wood' with 3 faces
g Light_Wood
usemtl Light_Wood
f  11/20/9 9/22/9 20/31/9
f  20/31/9 9/22/9 15/26/9
f  14/25/9 15/26/9 9/22/9

# Mesh 'Wood' with 10 faces
g Wood
usemtl Wood
f  9/36/13 4/37/2 14/38/13
f  4/37/2 9/36/13 2/39/2
f  4/40/4 12/41/14 14/42/14
f  12/41/14 4/40/4 5/43/4
f  5/44/15 10/45/16 12/46/16
f  10/45/16 5/44/15 8/47/15
f  6/48/17 8/49/15 5/50/15
f  8/49/15 6/48/17 7/10/17
f  15/35/18 18/34/18 20/32/18
f  18/34/18 15/35/18 17/33/18

