# File produced by Open Asset Import Library (http://www.assimp.sf.net)
# (assimp v4.1.908865877)

mtllib naturePack_174.mtl

# 32 vertex positions
v  -0.1793550252914429 1.327499985694885 0.7855100035667419
v  -0.832302987575531 1.327499985694885 -0.1981049776077271
v  -0.9354490041732788 1.327499985694885 0.1150050163269043
v  -0.3093349933624268 1.327499985694885 -0.5785050392150879
v  0.1104849576950073 1.327499985694885 -0.6457949876785278
v  0.4734249114990234 1.327499985694885 0.5615050196647644
v  -0.2910749912261963 0.5849999785423279 1.274765014648438
v  0.7682950496673584 0.5849999785423279 0.9112390279769897
v  -0.2328550815582275 3.158359914272606e-15 1.019811987876892
v  0.6146349906921387 0 0.7289910316467285
v  0.143435001373291 1.624300025808e-15 -0.8384149074554443
v  -0.4016050100326538 1.624300025808e-15 -0.7510650157928467
v  -1.080561995506287 1.624300025808e-15 -0.257194995880127
v  -1.214475989341736 1.624300025808e-15 0.1493149995803833
v  -1.518095016479492 0.5849999785423279 0.1866450309753418
v  -1.183310985565186 0.5849999785423279 -0.8296349048614502
v  -0.956233024597168 0.956250011920929 -0.6704349517822266
v  0.1792950630187988 0.5849999785423279 -1.048024892807007
v  -1.064980030059814 0.2924999892711639 -0.7466750144958496
v  0.7182950973510742 1.624300025808e-15 -1.019814968109131
v  0.8978650569915771 0.5849999785423279 -1.274765014648438
v  0.5532650947570801 1.327499985694885 -0.7855150699615479
v  0.6476249694824219 1.327499985694885 0.0937650203704834
v  1.050994873046875 0.5849999785423279 0.1521750688552856
v  0.8407950401306152 1.624300025808e-15 0.1217349767684937
v  1.027635097503662 1.624300025808e-15 -0.6741950511932373
v  1.518095016479492 0.5849999785423279 -0.5817949771881104
v  1.366284847259521 0.2924999892711639 -0.5236150026321411
v  1.027635097503662 1.624300025808e-15 -0.1718449592590332
v  0.7915349006652832 1.327499985694885 -0.1323649883270264
v  1.226774930953979 0.956250011920929 -0.4701449871063232
v  0.7566850185394287 1.327499985694885 -0.5582349300384521

# 104 UV coordinates
vt 52.70619964599609 19.26199913024902 0
vt 26.99970054626465 57.98709869384766 0
vt 22.93880081176758 45.6598014831543 0
vt 47.5890007019043 72.9635009765625 0
vt 64.11730194091797 75.61250305175781 0
vt 78.40609741210938 28.08110046386719 0
vt 45.69260025024414 12.16119956970215 0
vt 83.27570343017578 45.87300109863281 0
vt 56.10459899902344 45.87300109863281 0
vt 89.78700256347656 12.16119956970215 0
vt 51.11830139160156 2.461030006408691 0
vt 89.78700256347656 27.09869956970215 0
vt 45.69260025024414 27.09869956970215 0
vt 86.39389801025391 2.461030006408691 0
vt -50.59989929199219 10.03750038146973 0
vt -65.41470336914062 83.19629669189453 0
vt -83.96559906005859 21.4871997833252 0
vt -43.956298828125 79.75710296630859 0
vt -17.22570037841797 60.31349945068359 0
vt -11.95349979400635 44.30920028686523 0
vt 31.19829940795898 -14.99670028686523 0
vt -28.4237003326416 9.741920471191406 0
vt -20.45529937744141 -14.99670028686523 0
vt 36.1432991027832 9.741920471191406 0
vt 36.1432991027832 36.15670013427734 0
vt -13.132399559021 70.13970184326172 0
vt -28.4237003326416 36.15670013427734 0
vt 26.65380096435547 70.13970184326172 0
vt -50.54439926147461 46.87519836425781 0
vt -82.814697265625 10.93729972839355 0
vt -40.68870162963867 10.93729972839355 0
vt -63.52339935302734 46.87519836425781 0
vt -79.65850067138672 28.90620040893555 0
vt -81.404296875 9.021610260009766 0
vt -62.9370002746582 -14.09389972686768 0
vt -55.94440078735352 9.021610260009766 0
vt -75.27519989013672 16.59110069274902 0
vt -33.96110153198242 0.1154069975018501 0
vt -58.5359001159668 16.59110069274902 0
vt -80.456298828125 -16.36030006408691 0
vt -26.12560081481934 -16.36030006408691 0
vt -80.456298828125 47.71640014648438 0
vt -30.20870018005371 35.53799819946289 0
vt -26.12560081481934 47.71640014648438 0
vt -77.75640106201172 23.35960006713867 0
vt -56.02410125732422 23.35960006713867 0
vt -82.46279907226562 30.81800079345703 0
vt -49.40869903564453 30.81800079345703 0
vt -61.24039840698242 49.90610122680664 0
vt -62.67490005493164 1.073279976844788 0
vt -82.814697265625 26.55109977722168 0
vt -81.16999816894531 13.81219959259033 0
vt -45.82450103759766 1.073279976844788 0
vt -40.68870162963867 26.55109977722168 0
vt -91.24790191650391 42.55329895019531 0
vt -111.1500015258789 18.3484992980957 0
vt -87.41829681396484 18.3484992980957 0
vt -120.9130020141602 42.55329895019531 0
vt -83.89890289306641 23.76600074768066 0
vt -120.9130020141602 -8.77068042755127 0
vt -91.24790191650391 -8.77068042755127 0
vt -102.1780014038086 23.76600074768066 0
vt 81.54959869384766 81.11329650878906 0
vt 85.26450347900391 46.49589920043945 0
vt 53.68019866943359 15.94820022583008 0
vt 76.71849822998047 -17.22599983215332 0
vt 73.33070373535156 15.94820022583008 0
vt 44.82870101928711 -17.22599983215332 0
vt 49.44129943847656 23.8076000213623 0
vt 76.71849822998047 48.24639892578125 0
vt 44.82870101928711 48.24639892578125 0
vt 74.95310211181641 23.8076000213623 0
vt -88.04679870605469 90.33779907226562 0
vt -92.86969757080078 45.39469909667969 0
vt -100.2259979248047 76.73059844970703 0
vt 11.3577995300293 83.96150207519531 0
vt -9.667940139770508 58.0088005065918 0
vt 8.59352970123291 58.0088005065918 0
vt -25.25629997253418 83.96150207519531 0
vt -22.97710037231445 70.98519897460938 0
vt 125.8430023193359 41.22499847412109 0
vt 101.8600006103516 16.9640998840332 0
vt 120.7020034790039 29.09460067749023 0
vt 88.15910339355469 16.9640998840332 0
vt 91.59130096435547 41.22499847412109 0
vt 125.8430023193359 -6.977640151977539 0
vt 85.00479888916016 25.71220016479492 0
vt 91.59130096435547 -6.977640151977539 0
vt 95.55780029296875 25.71220016479492 0
vt 115.9769973754883 9.367300033569336 0
vt 11.3577995300293 -67.00240325927734 0
vt -20.88240051269531 -48.41830062866211 0
vt -25.25629997253418 -67.00240325927734 0
vt -5.955490112304688 -29.83419990539551 0
vt 6.053140163421631 -29.83419990539551 0
vt 89.55840301513672 72.16529846191406 0
vt 90.93039703369141 55.39889907836914 0
vt 59.65470123291016 -64.67269897460938 0
vt 64.62049865722656 -41.35919952392578 0
vt 47.79800033569336 -41.35919952392578 0
vt -100.2259979248047 56.95330047607422 0
vt 70.80239868164062 93.46749877929688 0
vt 56.95330047607422 75.84999847412109 0
vt 76.73059844970703 75.84999847412109 0

# 22 vertex normals
vn 2.300200024585818e-16 1 4.616020196986842e-17
vn 0.2814480066299438 0.4980930089950562 0.8201770186424255
vn 0.3034169971942902 -0.3551549911499023 0.8841969966888428
vn -2.043360047341409e-16 -1 4.986299988134569e-17
vn -0.6177049875259399 -0.3650400042533875 0.6965540051460266
vn -0.5707370042800903 0.5099520087242126 0.643589973449707
vn -0.7725710272789001 0.5816900134086609 -0.25450199842453
vn -0.3719440102577209 0.7747169733047485 -0.5113419890403748
vn -0.1403899937868118 0.4615150094032288 -0.8759530186653137
vn -0.1496410071849823 -0.3253610134124756 -0.9336739778518677
vn -0.3548769950866699 -0.7975190281867981 -0.4878779947757721
vn -0.8585950136184692 -0.4275699853897095 -0.2828400135040283
vn -0.2863349914550781 -0.307574987411499 -0.9074190258979797
vn -0.2703610062599182 0.4390929937362671 -0.856797993183136
vn 0.8257619738578796 0.4727939963340759 0.307543009519577
vn 0.8831549882888794 -0.3344410061836243 0.3289180099964142
vn 0.6612600088119507 -0.4609209895133972 -0.5918509960174561
vn 0.800894021987915 -0.314289003610611 0.5096979737281799
vn 0.754410982131958 0.447607010602951 0.4801160097122192
vn 0.5860360264778137 0.6176069974899292 -0.5245220065116882
vn 0.6248480081558228 0.7790700197219849 -0.05113299936056137
vn 0.6536549925804138 -0.7567930221557617 -1.484889950131294e-17

# Mesh 'Mesh1 Group1 Model' with 60 faces
g Mesh1 Group1 Model
usemtl Stone
f  1/1/1 2/2/1 3/3/1
f  2/2/1 1/1/1 4/4/1
f  4/4/1 1/1/1 5/5/1
f  5/5/1 1/1/1 6/6/1
f  7/7/2 6/8/2 1/9/2
f  6/8/2 7/7/2 8/10/2
f  9/11/3 8/12/3 7/13/3
f  8/12/3 9/11/3 10/14/3
f  9/15/4 11/16/4 10/17/4
f  9/15/4 12/18/4 11/16/4
f  9/15/4 13/19/4 12/18/4
f  13/19/4 9/15/4 14/20/4
f  9/21/5 15/22/5 14/23/5
f  15/22/5 9/21/5 7/24/5
f  7/25/6 3/26/6 15/27/6
f  3/26/6 7/25/6 1/28/6
f  3/29/7 16/30/7 15/31/7
f  16/30/7 3/29/7 2/32/7
f  16/30/7 2/32/7 17/33/7
f  4/34/8 17/35/8 2/36/8
f  5/37/9 17/38/9 4/39/9
f  18/40/9 17/38/9 5/37/9
f  17/38/9 18/40/9 16/41/9
f  18/42/10 19/43/10 16/44/10
f  11/45/10 19/43/10 18/42/10
f  19/43/10 11/45/10 12/46/10
f  12/47/11 13/48/11 19/49/11
f  13/50/12 16/51/12 19/52/12
f  14/53/12 16/51/12 13/50/12
f  16/51/12 14/53/12 15/54/12
f  18/55/13 20/56/13 11/57/13
f  20/56/13 18/55/13 21/58/13
f  5/59/14 21/60/14 18/61/14
f  21/60/14 5/59/14 22/62/14
f  5/5/1 6/6/1 22/63/1
f  22/63/1 6/6/1 23/64/1
f  6/65/15 24/66/15 23/67/15
f  24/66/15 6/65/15 8/68/15
f  10/69/16 24/70/16 8/71/16
f  24/70/16 10/69/16 25/72/16
f  10/17/4 20/73/4 25/74/4
f  10/17/4 11/16/4 20/73/4
f  25/74/4 20/73/4 26/75/4
f  21/76/17 26/77/17 20/78/17
f  27/79/17 26/77/17 21/76/17
f  26/77/17 27/79/17 28/80/17
f  27/81/18 29/82/18 28/83/18
f  27/81/18 25/84/18 29/82/18
f  25/84/18 27/81/18 24/85/18
f  27/86/19 23/87/19 24/88/19
f  23/87/19 27/86/19 30/89/19
f  30/89/19 27/86/19 31/90/19
f  21/91/20 31/92/20 27/93/20
f  21/91/20 32/94/20 31/92/20
f  32/94/20 21/91/20 22/95/20
f  22/63/1 23/64/1 32/96/1
f  32/96/1 23/64/1 30/97/1
f  31/98/21 32/99/21 30/100/21
f  25/74/4 26/75/4 29/101/4
f  28/102/22 29/103/22 26/104/22

