# File produced by Open Asset Import Library (http://www.assimp.sf.net)
# (assimp v4.1.908865877)

mtllib naturePack_137.mtl

# 24 vertex positions
v  -0.1132640242576599 0.6800000071525574 -0.1961794793605804
v  -0.279664009809494 0.3199999928474426 5.066394805908203e-07
v  -0.2265280187129974 0.6800000071525574 5.066394805908203e-07
v  -0.1398320198059082 0.3199999928474426 -0.2421965301036835
v  0.1398320198059082 0.3199999928474426 -0.2421965301036835
v  0.1132639646530151 0.6800000071525574 -0.1961794793605804
v  0.1132639646530151 0.6800000071525574 0.1961794942617416
v  -0.1132640242576599 0.6800000071525574 0.1961794942617416
v  -0.1398320198059082 0.3199999928474426 0.2421965003013611
v  -0.1960000097751617 0.3199999928474426 0.3394820094108582
v  -0.3920000195503235 0.3199999928474426 5.066394805908203e-07
v  -0.1960000097751617 0.3199999928474426 -0.3394815027713776
v  0.1959999799728394 0.3199999928474426 -0.3394815027713776
v  0.2796639800071716 0.3199999928474426 5.066394805908203e-07
v  0.226527988910675 0.6800000071525574 5.066394805908203e-07
v  0.1398320198059082 0.3199999928474426 0.2421965003013611
v  0.1959999799728394 0.3199999928474426 0.3394820094108582
v  -0.2450000047683716 0 0.4243524968624115
v  0.2450000047683716 0 0.4243524968624115
v  -0.2450000047683716 0 -0.4243524968624115
v  -0.4900000095367432 0 5.066394805908203e-07
v  0.2450000047683716 0 -0.4243524968624115
v  0.4900000095367432 0 5.066394805908203e-07
v  0.3920000195503235 0.3199999928474426 5.066394805908203e-07

# 72 UV coordinates
vt -28.57340049743652 26.63540077209473 0
vt -18.60899925231934 12.34689998626709 0
vt -19.65500068664551 26.63540077209473 0
vt -29.61940002441406 12.34689998626709 0
vt -14.83209991455078 23.45789909362793 0
vt -24.79649925231934 9.169400215148926 0
vt -13.78610038757324 9.169400215148926 0
vt -23.75060081481934 23.45789909362793 0
vt 14.83209991455078 24.43040084838867 0
vt 23.75060081481934 8.983200073242188 0
vt 23.75060081481934 24.43040084838867 0
vt 14.83209991455078 8.983200073242188 0
vt 10.37290000915527 16.70680046081543 0
vt -10.32800006866455 14.46520042419434 0
vt -0.3636179864406586 28.75379943847656 0
vt -9.282050132751465 28.75379943847656 0
vt 0.682371973991394 14.46520042419434 0
vt 8.280929565429688 16.70680046081543 0
vt 11.57480049133301 3.341360092163086 0
vt 13.78610038757324 7.17149019241333 0
vt 3.858269929885864 16.70680046081543 0
vt 11.57480049133301 30.07220077514648 0
vt 13.78610038757324 26.24209976196289 0
vt 27.00790023803711 30.07220077514648 0
vt 24.79649925231934 26.24209976196289 0
vt 30.30179977416992 16.70680046081543 0
vt 9.282050132751465 22.39879989624023 0
vt -0.682371973991394 8.110230445861816 0
vt 10.32800006866455 8.110230445861816 0
vt 0.3636179864406586 22.39879989624023 0
vt 28.20980072021484 16.70680046081543 0
vt 19.65500068664551 24.51709938049316 0
vt 29.61940002441406 10.22859954833984 0
vt 28.57340049743652 24.51709938049316 0
vt 18.60899925231934 10.22859954833984 0
vt 23.75060081481934 27.69459915161133 0
vt 13.78610038757324 13.4060001373291 0
vt 24.79649925231934 13.4060001373291 0
vt 14.83209991455078 27.69459915161133 0
vt 27.00790023803711 3.341360092163086 0
vt 24.79649925231934 7.17149019241333 0
vt 9.645669937133789 2.391030014497857e-15 0
vt 27.00790023803711 13.03400039672852 0
vt 11.57480049133301 13.03400039672852 0
vt 28.9370002746582 1.708500077083643e-15 0
vt -9.645669937133789 7.105429898699844e-15 0
vt -9.645669937133789 33.41360092163086 0
vt -28.9370002746582 0 0
vt 0 16.70680046081543 0
vt 2.893700122833252 15.17539978027344 0
vt -14.4685001373291 2.141449928283691 0
vt 4.822830200195312 2.141449928283691 0
vt -12.53940010070801 15.17539978027344 0
vt -31.8306999206543 10.89249992370605 0
vt -14.4685001373291 -2.141449928283691 0
vt -16.3976001739502 10.89249992370605 0
vt -33.75979995727539 -2.141449928283691 0
vt -11.57480049133301 4.468180179595947 0
vt -28.9370002746582 -8.565810203552246 0
vt -9.645669937133789 -8.565810203552246 0
vt -27.00790023803711 4.468180179595947 0
vt 12.53940010070801 2.326730012893677 0
vt -4.822830200195312 -10.70730018615723 0
vt 14.4685001373291 -10.70730018615723 0
vt -2.893700122833252 2.326730012893677 0
vt 34.72439956665039 16.70680046081543 0
vt 16.3976001739502 6.609640121459961 0
vt 33.75979995727539 -6.424359798431396 0
vt 31.8306999206543 6.609640121459961 0
vt 14.4685001373291 -6.424359798431396 0
vt -28.9370002746582 33.41360092163086 0
vt -38.58269882202148 16.70680046081543 0

# 14 vertex normals
vn -0.8590360283851624 0.1267939954996109 -0.4959650039672852
vn -9.662490295495254e-18 0.1267939954996109 -0.9919289946556091
vn 0 1 0
vn -0.8590360283851624 0.1267939954996109 0.4959650039672852
vn 0.8590360283851624 0.1267939954996109 -0.4959650039672852
vn 0.8590360283851624 0.1267939954996109 0.4959650039672852
vn -9.662490295495254e-18 0.1267939954996109 0.9919289946556091
vn -2.226150022056683e-16 0.2563570141792297 0.9665820002555847
vn 0 -1 0
vn -0.8370850086212158 0.2563570141792297 0.4832910001277924
vn -0.8370850086212158 0.2563570141792297 -0.4832910001277924
vn 4.442380229509834e-16 0.2563570141792297 -0.9665820002555847
vn 0.8370850086212158 0.2563570141792297 -0.4832910001277924
vn 0.8370850086212158 0.2563570141792297 0.4832910001277924

# Mesh 'Mesh1 Rock_3 Model' with 44 faces
g Mesh1 Rock_3 Model
usemtl Stone
f  1/1/1 2/2/1 3/3/1
f  2/2/1 1/1/1 4/4/1
f  1/5/2 5/6/2 4/7/2
f  5/6/2 1/5/2 6/8/2
f  1/9/3 7/10/3 6/11/3
f  1/9/3 8/12/3 7/10/3
f  8/12/3 1/9/3 3/13/3
f  2/14/4 8/15/4 3/16/4
f  8/15/4 2/14/4 9/17/4
f  2/18/3 10/19/3 9/20/3
f  10/19/3 2/18/3 11/21/3
f  2/18/3 12/22/3 11/21/3
f  12/22/3 2/18/3 4/23/3
f  12/22/3 4/23/3 13/24/3
f  13/24/3 4/23/3 5/25/3
f  13/24/3 5/25/3 14/26/3
f  6/27/5 14/28/5 5/29/5
f  14/28/5 6/27/5 15/30/5
f  6/11/3 7/10/3 15/31/3
f  7/32/6 14/33/6 15/34/6
f  14/33/6 7/32/6 16/35/6
f  7/36/7 9/37/7 16/38/7
f  9/37/7 7/36/7 8/39/7
f  9/20/3 17/40/3 16/41/3
f  9/20/3 10/19/3 17/40/3
f  18/42/8 17/43/8 10/44/8
f  17/43/8 18/42/8 19/45/8
f  18/46/9 20/47/9 19/48/9
f  20/47/9 18/46/9 21/49/9
f  10/50/10 21/51/10 18/52/10
f  21/51/10 10/50/10 11/53/10
f  12/54/11 21/55/11 11/56/11
f  21/55/11 12/54/11 20/57/11
f  12/58/12 22/59/12 20/60/12
f  22/59/12 12/58/12 13/61/12
f  13/62/13 23/63/13 22/64/13
f  23/63/13 13/62/13 24/65/13
f  13/24/3 14/26/3 24/66/3
f  14/26/3 17/40/3 24/66/3
f  16/41/3 17/40/3 14/26/3
f  17/67/14 23/68/14 24/69/14
f  23/68/14 17/67/14 19/70/14
f  19/48/9 22/71/9 23/72/9
f  19/48/9 20/47/9 22/71/9

