# File produced by Open Asset Import Library (http://www.assimp.sf.net)
# (assimp v4.1.908865877)

mtllib naturePack_110.mtl

# 14 vertex positions
v  -0.02809250354766846 0.1000000014901161 0.3087244927883148
v  -5.066394805908203e-07 0.1000000014901161 5.066394805908203e-07
v  -0.2814095020294189 0.1000000014901161 0.1300334930419922
v  0.2533174753189087 0.1000000014901161 0.178690493106842
v  -0.02809250354766846 0 0.3087244927883148
v  0.2533174753189087 0 0.178690493106842
v  -5.066394805908203e-07 0 5.066394805908203e-07
v  -0.2814095020294189 0 0.1300334930419922
v  -0.25331711769104 0 -0.178690493106842
v  -0.25331711769104 0.1000000014901161 -0.178690493106842
v  0.02809250354766846 0.1000000014901161 -0.3087244927883148
v  0.02809250354766846 0 -0.3087244927883148
v  0.2814095020294189 0 -0.1300334930419922
v  0.2814095020294189 0.1000000014901161 -0.1300334930419922

# 41 UV coordinates
vt 9.973110198974609 0 0
vt 11.07909965515137 12.15450000762939 0
vt 0 7.035079956054688 0
vt 21.05220031738281 5.119430065155029 0
vt 9.053319931030273 0 0
vt 21.25799942016602 3.937010049819946 0
vt 9.053319931030273 3.937010049819946 0
vt 21.25799942016602 0 0
vt -9.973110198974609 0 0
vt -11.07909965515137 12.15450000762939 0
vt -21.05220031738281 5.119430065155029 0
vt 8.149550437927246 3.937010049819946 0
vt -4.055180072784424 0 0
vt 8.149550437927246 0 0
vt -4.055180072784424 3.937010049819946 0
vt -2.950950145721436 3.937010049819946 0
vt -15.15569972991943 0 0
vt -2.950950145721436 0 0
vt -15.15569972991943 3.937010049819946 0
vt 2.047179937362671 3.937010049819946 0
vt -10.15750026702881 0 0
vt 2.047179937362671 0 0
vt -10.15750026702881 3.937010049819946 0
vt 12.18509960174561 24.30900001525879 0
vt 1.105999946594238 19.18959999084473 0
vt -21.25799942016602 0 0
vt -9.053319931030273 3.937010049819946 0
vt -21.25799942016602 3.937010049819946 0
vt -9.053319931030273 0 0
vt -12.18509960174561 24.30900001525879 0
vt -1.105999946594238 19.18959999084473 0
vt -22.15819931030273 17.27389907836914 0
vt 4.055180072784424 3.937010049819946 0
vt -8.149550437927246 0 0
vt 4.055180072784424 0 0
vt -8.149550437927246 3.937010049819946 0
vt 22.15819931030273 17.27389907836914 0
vt 7.006130218505859 3.937010049819946 0
vt 19.21089935302734 0 0
vt 19.21089935302734 3.937010049819946 0
vt 7.006130218505859 0 0

# 7 vertex normals
vn 0 1 0
vn 0.4194630086421967 0 0.9077720046043396
vn 0 -1 0
vn -0.5764229893684387 0 0.8171520233154297
vn -0.4194630086421967 0 -0.9077720046043396
vn 0.5764229893684387 0 -0.8171520233154297
vn 0.9958850145339966 0 0.09062069654464722

# Mesh 'Mesh1 Water_lily Model' with 24 faces
g Mesh1 Water_lily Model
usemtl Green_leafs
f  1/1/1 2/2/1 3/3/1
f  2/2/1 1/1/1 4/4/1
f  5/5/2 4/6/2 1/7/2
f  4/6/2 5/5/2 6/8/2
f  5/9/3 7/10/3 6/11/3
f  7/10/3 5/9/3 8/3/3
f  1/12/4 8/13/4 5/14/4
f  8/13/4 1/12/4 3/15/4
f  3/16/5 7/17/5 8/18/5
f  7/17/5 3/16/5 2/19/5
f  2/20/4 9/21/4 7/22/4
f  9/21/4 2/20/4 10/23/4
f  11/24/1 10/25/1 2/2/1
f  12/26/5 10/27/5 11/28/5
f  10/27/5 12/26/5 9/29/5
f  12/30/3 7/10/3 9/31/3
f  6/11/3 7/10/3 12/30/3
f  6/11/3 12/30/3 13/32/3
f  11/33/6 13/34/6 12/35/6
f  13/34/6 11/33/6 14/36/6
f  11/24/1 4/4/1 14/37/1
f  2/2/1 4/4/1 11/24/1
f  4/38/7 13/39/7 14/40/7
f  13/39/7 4/38/7 6/41/7

