# File produced by Open Asset Import Library (http://www.assimp.sf.net)
# (assimp v4.1.908865877)

mtllib naturePack_015.mtl

# 32 vertex positions
v  0.2986820340156555 0 -0.2986820340156555
v  0.6399999856948853 0.3600000143051147 0
v  0.4223999977111816 0 0
v  0.4525500535964966 0.3600000143051147 -0.4525500535964966
v  0 0.3600000143051147 -0.6399999856948853
v  0 0 -0.4223999977111816
v  0 0 0.4223999977111816
v  -0.2986819744110107 0 0.2986819744110107
v  -0.2986819744110107 0 -0.2986820340156555
v  -0.4223999977111816 0 0
v  -0.6399999856948853 0.3600000143051147 0
v  -0.4525479674339294 0.3600000143051147 0.4525479674339294
v  0 0.3600000143051147 0.6399999856948853
v  0.4525500535964966 0.3600000143051147 0.4525479674339294
v  0.2986820340156555 0 0.2986819744110107
v  0.4525500535964966 0.8700000047683716 0.4525479674339294
v  0.6399999856948853 0.8700000047683716 0
v  0.4525500535964966 0.8700000047683716 -0.4525500535964966
v  0 0.8700000047683716 -0.6399999856948853
v  -0.4525479674339294 0.8700000047683716 -0.4525500535964966
v  -0.4525479674339294 0.3600000143051147 -0.4525500535964966
v  -0.6399999856948853 0.8700000047683716 0
v  -0.4525479674339294 0.8700000047683716 0.4525479674339294
v  0 0.8700000047683716 0.6399999856948853
v  0.2760540246963501 1.240000009536743 0.2760539948940277
v  0 1.240000009536743 0.3903999924659729
v  0 1.240000009536743 -0.3904000520706177
v  -0.2760539948940277 1.240000009536743 -0.2760540246963501
v  -0.2760539948940277 1.240000009536743 0.2760539948940277
v  -0.3903999924659729 1.240000009536743 0
v  0.2760540246963501 1.240000009536743 -0.2760540246963501
v  0.3904000520706177 1.240000009536743 0

# 92 UV coordinates
vt 20.00040054321289 23.54210090637207 0
vt 3.994019985198975 39.7755012512207 0
vt 7.272439956665039 23.54210090637207 0
vt 23.27890014648438 39.7755012512207 0
vt -20.00040054321289 23.54210090637207 0
vt -3.994019985198975 39.7755012512207 0
vt -23.27890014648438 39.7755012512207 0
vt -7.272439956665039 23.54210090637207 0
vt -25.1968994140625 8.566929817199707 0
vt -25.1968994140625 41.82680130004883 0
vt -36.95600128173828 36.95600128173828 0
vt -13.43770027160645 13.43770027160645 0
vt -13.43770027160645 36.95600128173828 0
vt -8.566929817199707 25.1968994140625 0
vt -7.272439956665039 -8.560239791870117 0
vt -23.27890014648438 7.673200130462646 0
vt -20.00040054321289 -8.560239791870117 0
vt -3.994019985198975 7.673200130462646 0
vt 7.272439956665039 -8.560239791870117 0
vt 23.27890014648438 7.673200130462646 0
vt 3.994019985198975 7.673200130462646 0
vt 20.00040054321289 -8.560239791870117 0
vt 26.55730056762695 0.8423159718513489 0
vt 42.56370162963867 17.0757999420166 0
vt 23.27890014648438 17.0757999420166 0
vt 39.28530120849609 0.8423159718513489 0
vt -36.95600128173828 13.43770027160645 0
vt -41.82680130004883 25.1968994140625 0
vt 42.56370162963867 30.37299919128418 0
vt 26.55730056762695 14.13949966430664 0
vt 39.28530120849609 14.13949966430664 0
vt 23.27890014648438 30.37299919128418 0
vt 42.56370162963867 14.17319965362549 0
vt 23.27890014648438 34.25199890136719 0
vt 23.27890014648438 14.17319965362549 0
vt 42.56370162963867 34.25199890136719 0
vt 3.994019985198975 34.25199890136719 0
vt 3.994019985198975 14.17319965362549 0
vt -23.27890014648438 14.17319965362549 0
vt -3.994019985198975 34.25199890136719 0
vt -23.27890014648438 34.25199890136719 0
vt -3.994019985198975 14.17319965362549 0
vt -42.56370162963867 14.17319965362549 0
vt -42.56370162963867 34.25199890136719 0
vt -39.28530120849609 14.13949966430664 0
vt -23.27890014648438 30.37299919128418 0
vt -42.56370162963867 30.37299919128418 0
vt -26.55730056762695 14.13949966430664 0
vt -26.55730056762695 0.8423159718513489 0
vt -42.56370162963867 17.0757999420166 0
vt -39.28530120849609 0.8423159718513489 0
vt -23.27890014648438 17.0757999420166 0
vt 38.8031005859375 41.13290023803711 0
vt 23.27890014648438 23.96839904785156 0
vt 42.56370162963867 23.96839904785156 0
vt 27.03940010070801 41.13290023803711 0
vt 25.1968994140625 40.56689834594727 0
vt 25.1968994140625 9.826769828796387 0
vt 36.06510162353516 14.32859992980957 0
vt 14.32859992980957 36.06510162353516 0
vt 14.32859992980957 14.32859992980957 0
vt 9.826769828796387 25.1968994140625 0
vt -42.56370162963867 23.96839904785156 0
vt -27.03940010070801 41.13290023803711 0
vt -38.8031005859375 41.13290023803711 0
vt -23.27890014648438 23.96839904785156 0
vt -23.27890014648438 34.168701171875 0
vt -7.754559993743896 51.33309936523438 0
vt -19.5182991027832 51.33309936523438 0
vt -3.994019985198975 34.168701171875 0
vt 3.994019985198975 34.168701171875 0
vt 19.5182991027832 51.33309936523438 0
vt 7.754559993743896 51.33309936523438 0
vt 23.27890014648438 34.168701171875 0
vt -27.03940010070801 26.70750045776367 0
vt -42.56370162963867 9.54302978515625 0
vt -23.27890014648438 9.54302978515625 0
vt -38.8031005859375 26.70750045776367 0
vt -7.754559993743896 16.50720024108887 0
vt -23.27890014648438 -0.6572340130805969 0
vt -3.994019985198975 -0.6572340130805969 0
vt -19.5182991027832 16.50720024108887 0
vt 36.06510162353516 36.06510162353516 0
vt 40.56689834594727 25.1968994140625 0
vt 27.03940010070801 26.70750045776367 0
vt 42.56370162963867 9.54302978515625 0
vt 38.8031005859375 26.70750045776367 0
vt 23.27890014648438 9.54302978515625 0
vt 23.27890014648438 -0.6572340130805969 0
vt 7.754559993743896 16.50720024108887 0
vt 3.994019985198975 -0.6572340130805969 0
vt 19.5182991027832 16.50720024108887 0

# 26 vertex normals
vn 0.8066279888153076 -0.4875620007514954 -0.3341160118579865
vn 0.3341160118579865 -0.4875620007514954 -0.8066279888153076
vn 0 -1 0
vn -0.8066279888153076 -0.4875620007514954 0.3341160118579865
vn -0.3341160118579865 -0.4875620007514954 0.8066279888153076
vn 0.3341160118579865 -0.4875620007514954 0.8066279888153076
vn 0.8066279888153076 -0.4875620007514954 0.3341160118579865
vn 0.9238799810409546 0 0.3826830089092255
vn 0.9238799810409546 0 -0.3826830089092255
vn 0.3826830089092255 0 -0.9238799810409546
vn -0.3826830089092255 0 -0.9238799810409546
vn -0.3341160118579865 -0.4875620007514954 -0.8066279888153076
vn -0.8066279888153076 -0.4875620007514954 -0.3341160118579865
vn -0.9238799810409546 0 -0.3826830089092255
vn -0.9238799810409546 0 0.3826830089092255
vn -0.3826830089092255 0 0.9238799810409546
vn 0.3826830089092255 0 0.9238799810409546
vn 0.324770987033844 0.5289270281791687 0.7840660214424133
vn 0 1 0
vn -0.7840660214424133 0.5289270281791687 -0.324770987033844
vn -0.7840660214424133 0.5289270281791687 0.324770987033844
vn -0.324770987033844 0.5289270281791687 0.7840660214424133
vn -0.324770987033844 0.5289270281791687 -0.7840660214424133
vn 0.324770987033844 0.5289270281791687 -0.7840660214424133
vn 0.7840660214424133 0.5289270281791687 0.324770987033844
vn 0.7840660214424133 0.5289270281791687 -0.324770987033844

# Mesh 'Mesh1 Group1 Model' with 40 faces
g Mesh1 Group1 Model
usemtl Wood
f  1/1/1 2/2/1 3/3/1
f  2/2/1 1/1/1 4/4/1
f  1/5/2 5/6/2 4/7/2
f  5/6/2 1/5/2 6/8/2
f  7/9/3 6/10/3 1/11/3
f  8/12/3 6/10/3 7/9/3
f  8/12/3 9/13/3 6/10/3
f  9/13/3 8/12/3 10/14/3
f  8/15/4 11/16/4 10/17/4
f  11/16/4 8/15/4 12/18/4
f  8/19/5 13/20/5 12/21/5
f  13/20/5 8/19/5 7/22/5
f  7/23/6 14/24/6 13/25/6
f  14/24/6 7/23/6 15/26/6
f  7/9/3 1/11/3 15/27/3
f  15/27/3 1/11/3 3/28/3
f  2/29/7 15/30/7 3/31/7
f  15/30/7 2/29/7 14/32/7
f  2/33/8 16/34/8 14/35/8
f  16/34/8 2/33/8 17/36/8
f  4/35/9 17/37/9 2/38/9
f  17/37/9 4/35/9 18/34/9
f  4/39/10 19/40/10 18/41/10
f  19/40/10 4/39/10 5/42/10
f  5/43/11 20/41/11 19/44/11
f  20/41/11 5/43/11 21/39/11
f  6/45/12 21/46/12 5/47/12
f  21/46/12 6/45/12 9/48/12
f  10/49/13 21/50/13 9/51/13
f  21/50/13 10/49/13 11/52/13
f  11/39/14 20/44/14 21/43/14
f  20/44/14 11/39/14 22/41/14
f  12/42/15 22/41/15 11/39/15
f  22/41/15 12/42/15 23/40/15
f  12/38/16 24/34/16 23/37/16
f  24/34/16 12/38/16 13/35/16
f  13/35/17 16/36/17 24/34/17
f  16/36/17 13/35/17 14/33/17
f  25/53/18 24/54/18 16/55/18
f  24/54/18 25/53/18 26/56/18

# Mesh 'Green_leafs' with 4 faces
g Green_leafs
usemtl Green_leafs
f  27/57/19 26/58/19 25/59/19
f  28/60/19 26/58/19 27/57/19
f  28/60/19 29/61/19 26/58/19
f  29/61/19 28/60/19 30/62/19

# Mesh 'Wood' with 10 faces
g Wood
usemtl Wood
f  20/63/20 30/64/20 28/65/20
f  30/64/20 20/63/20 22/66/20
f  22/67/21 29/68/21 30/69/21
f  29/68/21 22/67/21 23/70/21
f  23/71/22 26/72/22 29/73/22
f  26/72/22 23/71/22 24/74/22
f  28/75/23 19/76/23 20/77/23
f  19/76/23 28/75/23 27/78/23
f  27/79/24 18/80/24 19/81/24
f  18/80/24 27/79/24 31/82/24

# Mesh 'Green_leafs' with 2 faces
g Green_leafs
usemtl Green_leafs
f  27/57/19 25/59/19 31/83/19
f  31/83/19 25/59/19 32/84/19

# Mesh 'Wood' with 4 faces
g Wood
usemtl Wood
f  25/85/25 17/86/25 32/87/25
f  17/86/25 25/85/25 16/88/25
f  18/89/26 32/90/26 17/91/26
f  32/90/26 18/89/26 31/92/26

