# File produced by Open Asset Import Library (http://www.assimp.sf.net)
# (assimp v4.1.908865877)

mtllib naturePack_149.mtl

# 38 vertex positions
v  0.1275079846382141 1.417320013046265 0.1275089979171753
v  -0.2008040547370911 0 0.2008009552955627
v  0.2007999420166016 0 0.2008009552955627
v  -0.1275110244750977 1.417320013046265 0.1275089979171753
v  -1.072883605957031e-06 1.417320013046265 0.360958993434906
v  -0.3126020431518555 1.417320013046265 0.1804789900779724
v  -0.1275110244750977 1.417320013046265 -0.1275150775909424
v  -1.072883605957031e-06 1.417320013046265 -0.3609650135040283
v  -0.3126020431518555 1.417320013046265 -0.1804850101470947
v  -0.5210020542144775 1.649169921875 -0.3008050918579102
v  -0.5210020542144775 1.649169921875 0.3007989525794983
v  -1.072883605957031e-06 1.649169921875 0.6015989780426025
v  0.3126000165939331 1.417320013046265 0.1804789900779724
v  0.5210000276565552 1.649169921875 0.3007989525794983
v  0.5210000276565552 1.649169921875 -0.3008050918579102
v  0.3126000165939331 1.417320013046265 -0.1804850101470947
v  0.1275079846382141 1.417320013046265 -0.1275150775909424
v  0.2007999420166016 0 -0.2008050680160522
v  -0.2008040547370911 0 -0.2008050680160522
v  -1.072883605957031e-06 1.649169921875 -0.6016049385070801
v  -1.072883605957031e-06 3.244920015335083 -0.9922549724578857
v  0.8593200445175171 3.244920015335083 -0.4961249828338623
v  -1.072883605957031e-06 7.86890983581543 -0.5410449504852295
v  0.4685499668121338 7.86890983581543 -0.2705249786376953
v  -1.072883605957031e-06 8.248869895935059 -0.2898950576782227
v  0.2510499954223633 8.248869895935059 -0.1449450254440308
v  0.2510499954223633 8.248869895935059 0.1449439525604248
v  -1.072883605957031e-06 8.248869895935059 0.2898889780044556
v  -0.2510530352592468 8.248869895935059 -0.1449450254440308
v  -0.2510530352592468 8.248869895935059 0.1449439525604248
v  -0.4685560464859009 7.86890983581543 -0.2705249786376953
v  -0.4685560464859009 7.86890983581543 0.270518958568573
v  -0.8593200445175171 3.244920015335083 -0.4961249828338623
v  -0.8593200445175171 3.244920015335083 0.4961269795894623
v  -1.072883605957031e-06 3.244920015335083 0.9922549724578857
v  0.8593200445175171 3.244920015335083 0.4961269795894623
v  0.4685499668121338 7.86890983581543 0.270518958568573
v  -1.072883605957031e-06 7.86890983581543 0.5410399436950684

# 132 UV coordinates
vt 38.85150146484375 57.48369979858398 0
vt 25.92580032348633 1.609179973602295 0
vt 41.73709869384766 1.609179973602295 0
vt 28.81139945983887 57.48369979858398 0
vt -33.83150100708008 24.85420036315918 0
vt -28.81139945983887 34.04510116577148 0
vt -38.85150146484375 34.04510116577148 0
vt -21.52429962158203 31.9596996307373 0
vt -28.81139945983887 44.08530044555664 0
vt -33.83150100708008 53.27619934082031 0
vt -21.52429962158203 46.17070007324219 0
vt -31.9596996307373 27.1107006072998 0
vt -50.90769958496094 39.38430023193359 0
vt -46.17070007324219 27.1107006072998 0
vt -27.22270011901855 39.38430023193359 0
vt 2.660789966583252 15.80270004272461 0
vt 21.60880088806152 28.07620048522949 0
vt -2.076220035552979 28.07620048522949 0
vt 16.87179946899414 15.80270004272461 0
vt 55.9370002746582 38.41880035400391 0
vt 36.98899841308594 50.69229888916016 0
vt 41.72600173950195 38.41880035400391 0
vt 60.67399978637695 50.69229888916016 0
vt 31.9596996307373 72.34279632568359 0
vt 50.90769958496094 84.61630249023438 0
vt 27.22270011901855 84.61630249023438 0
vt 46.17070007324219 72.34279632568359 0
vt -46.13859939575195 31.9596996307373 0
vt -46.13859939575195 46.17070007324219 0
vt -38.85150146484375 44.08530044555664 0
vt -41.73709869384766 -2.425729990005493 0
vt -28.81139945983887 53.44879913330078 0
vt -38.85150146484375 53.44879913330078 0
vt -25.92580032348633 -2.425729990005493 0
vt -41.73709869384766 46.97079849243164 0
vt -25.92580032348633 31.15959930419922 0
vt -25.92580032348633 46.97079849243164 0
vt -41.73709869384766 31.15959930419922 0
vt 46.97079849243164 -2.155440092086792 0
vt 34.04510116577148 53.71910095214844 0
vt 31.15959930419922 -2.155440092086792 0
vt 44.08530044555664 53.71910095214844 0
vt -34.04510116577148 57.2135009765625 0
vt -46.97079849243164 1.338899970054626 0
vt -31.15959930419922 1.338899970054626 0
vt -44.08530044555664 57.2135009765625 0
vt 2.076220035552979 95.92430114746094 0
vt -16.87179946899414 83.65080261230469 0
vt -2.660789966583252 83.65080261230469 0
vt -21.60880088806152 95.92430114746094 0
vt 9.766300201416016 142.5169982910156 0
vt -21.60880088806152 78.29550170898438 0
vt 2.076220035552979 78.29550170898438 0
vt -29.29890060424805 142.5169982910156 0
vt 0.8841069936752319 302.8729858398438 0
vt -29.29890060424805 120.177001953125 0
vt 9.766300201416016 120.177001953125 0
vt -20.41670036315918 302.8729858398438 0
vt -4.059810161590576 251.7250061035156 0
vt -20.41670036315918 234.4880065917969 0
vt 0.8841069936752319 234.4880065917969 0
vt -15.47280025482178 251.7250061035156 0
vt 33.83150100708008 50.47819900512695 0
vt 43.71540069580078 33.35869979858398 0
vt 43.71540069580078 44.77170181274414 0
vt 33.83150100708008 27.65220069885254 0
vt 23.94750022888184 44.77170181274414 0
vt 23.94750022888184 33.35869979858398 0
vt -49.71559906005859 276.5069885253906 0
vt -33.35869979858398 293.7430114746094 0
vt -44.77170181274414 293.7430114746094 0
vt -28.4148006439209 276.5069885253906 0
vt -58.59780120849609 127.2990036010742 0
vt -28.4148006439209 309.9949951171875 0
vt -49.71559906005859 309.9949951171875 0
vt -19.53260040283203 127.2990036010742 0
vt -58.59780120849609 124.9749984741211 0
vt -27.22270011901855 60.75370025634766 0
vt -19.53260040283203 124.9749984741211 0
vt -50.90769958496094 60.75370025634766 0
vt -29.29890060424805 135.5 0
vt -60.67399978637695 71.27880096435547 0
vt -36.98899841308594 71.27880096435547 0
vt -68.36409759521484 135.5 0
vt -38.18109893798828 305.7219848632812 0
vt -68.36409759521484 123.0260009765625 0
vt -29.29890060424805 123.0260009765625 0
vt -59.48189926147461 305.7219848632812 0
vt -43.125 268.5320129394531 0
vt -59.48189926147461 251.2960052490234 0
vt -38.18109893798828 251.2960052490234 0
vt -54.53799819946289 268.5320129394531 0
vt -60.67399978637695 73.30829620361328 0
vt -41.72600173950195 61.0348014831543 0
vt -36.98899841308594 73.30829620361328 0
vt -55.9370002746582 61.0348014831543 0
vt -2.076220035552979 57.24539947509766 0
vt 29.29890060424805 121.4670028686523 0
vt -9.766300201416016 121.4670028686523 0
vt 21.60880088806152 57.24539947509766 0
vt 36.98899841308594 64.26210021972656 0
vt 68.36409759521484 128.4830017089844 0
vt 29.29890060424805 128.4830017089844 0
vt 60.67399978637695 64.26210021972656 0
vt 27.22270011901855 74.78710174560547 0
vt 58.59780120849609 139.0079956054688 0
vt 19.53260040283203 139.0079956054688 0
vt 50.90769958496094 74.78710174560547 0
vt 58.59780120849609 121.6009979248047 0
vt 28.4148006439209 304.2969970703125 0
vt 19.53260040283203 121.6009979248047 0
vt 49.71559906005859 304.2969970703125 0
vt 49.71559906005859 242.8919982910156 0
vt 33.35869979858398 260.1279907226562 0
vt 28.4148006439209 242.8919982910156 0
vt 44.77170181274414 260.1279907226562 0
vt 54.53799819946289 285.3399963378906 0
vt 38.18109893798828 268.1029968261719 0
vt 59.48189926147461 268.1029968261719 0
vt 43.125 285.3399963378906 0
vt 15.47280025482178 302.1470031738281 0
vt -0.8841069936752319 284.9110107421875 0
vt 20.41670036315918 284.9110107421875 0
vt 4.059810161590576 302.1470031738281 0
vt -9.766300201416016 128.7239990234375 0
vt 20.41670036315918 311.4190063476562 0
vt -0.8841069936752319 311.4190063476562 0
vt 29.29890060424805 128.7239990234375 0
vt 29.29890060424805 125.875 0
vt 59.48189926147461 308.5700073242188 0
vt 38.18109893798828 308.5700073242188 0
vt 68.36409759521484 125.875 0

# 30 vertex normals
vn 6.760710100976568e-18 0.05164330080151558 0.998665988445282
vn 0 -1 0
vn -0.7437199950218201 -0.668491005897522 6.898540311314135e-18
vn -0.37185999751091 -0.668491005897522 0.6440799832344055
vn 0.37185999751091 -0.668491005897522 0.6440799832344055
vn 0.7437199950218201 -0.668491005897522 8.549610598353148e-18
vn 1.703720022835284e-18 0.05164330080151558 -0.998665988445282
vn 0.998665988445282 0.05164330080151558 4.960849874073967e-18
vn -0.998665988445282 0.05164330080151558 -5.153140415171106e-18
vn 0.37185999751091 -0.668491005897522 -0.6440799832344055
vn 0.4891279935836792 -0.2074020057916641 -0.8471940159797668
vn 0.4982239902019501 0.08420780301094055 -0.862949013710022
vn 0.4339320063591003 0.4968020021915436 -0.7515919804573059
vn 0 1 0
vn -0.8678640127182007 0.4968020021915436 -3.833630091114581e-17
vn -0.9964479804039001 0.08420780301094055 4.780439879960742e-17
vn -0.9782559871673584 -0.2074020057916641 -2.657860017436191e-17
vn -0.4891279935836792 -0.2074020057916641 -0.8471940159797668
vn -0.4982239902019501 0.08420780301094055 -0.862949013710022
vn -0.4339320063591003 0.4968020021915436 -0.7515919804573059
vn -0.37185999751091 -0.668491005897522 -0.6440799832344055
vn -0.4891279935836792 -0.2074020057916641 0.8471940159797668
vn 0.4891279935836792 -0.2074020057916641 0.8471940159797668
vn 0.9782559871673584 -0.2074020057916641 -2.180219792840716e-17
vn 0.9964479804039001 0.08420780301094055 1.449900044784178e-17
vn 0.8678640127182007 0.4968020021915436 1.559000039060125e-17
vn 0.4339320063591003 0.4968020021915436 0.7515919804573059
vn -0.4339320063591003 0.4968020021915436 0.7515919804573059
vn -0.4982239902019501 0.08420780301094055 0.862949013710022
vn 0.4982239902019501 0.08420780301094055 0.862949013710022

# Mesh 'Mesh1 Group1 Model' with 2 faces
g Mesh1 Group1 Model
usemtl Wood
f  1/1/1 2/2/1 3/3/1
f  2/2/1 1/1/1 4/4/1

# Mesh 'Fall_Leafs' with 18 faces
g Fall_Leafs
usemtl Fall_Leafs
f  5/5/2 4/6/2 1/7/2
f  6/8/2 4/6/2 5/5/2
f  4/6/2 6/8/2 7/9/2
f  6/8/2 8/10/2 7/9/2
f  8/10/2 6/8/2 9/11/2
f  6/12/3 10/13/3 9/14/3
f  10/13/3 6/12/3 11/15/3
f  6/16/4 12/17/4 11/18/4
f  12/17/4 6/16/4 5/19/4
f  13/20/5 12/21/5 5/22/5
f  12/21/5 13/20/5 14/23/5
f  13/24/6 15/25/6 14/26/6
f  15/25/6 13/24/6 16/27/6
f  13/28/2 1/7/2 16/29/2
f  5/5/2 1/7/2 13/28/2
f  17/30/2 16/29/2 1/7/2
f  17/30/2 8/10/2 16/29/2
f  7/9/2 8/10/2 17/30/2

# Mesh 'Wood' with 8 faces
g Wood
usemtl Wood
f  18/31/7 7/32/7 17/33/7
f  7/32/7 18/31/7 19/34/7
f  18/35/2 2/36/2 19/37/2
f  2/36/2 18/35/2 3/38/2
f  18/39/8 1/40/8 3/41/8
f  1/40/8 18/39/8 17/42/8
f  4/43/9 19/44/9 2/45/9
f  19/44/9 4/43/9 7/46/9

# Mesh 'Fall_Leafs' with 44 faces
g Fall_Leafs
usemtl Fall_Leafs
f  20/47/10 16/48/10 8/49/10
f  16/48/10 20/47/10 15/50/10
f  21/51/11 15/52/11 20/53/11
f  15/52/11 21/51/11 22/54/11
f  23/55/12 22/56/12 21/57/12
f  22/56/12 23/55/12 24/58/12
f  25/59/13 24/60/13 23/61/13
f  24/60/13 25/59/13 26/62/13
f  25/63/14 27/64/14 26/65/14
f  25/63/14 28/66/14 27/64/14
f  29/67/14 28/66/14 25/63/14
f  28/66/14 29/67/14 30/68/14
f  31/69/15 30/70/15 29/71/15
f  30/70/15 31/69/15 32/72/15
f  33/73/16 32/74/16 31/75/16
f  32/74/16 33/73/16 34/76/16
f  33/77/17 11/78/17 34/79/17
f  11/78/17 33/77/17 10/80/17
f  33/81/18 20/82/18 10/83/18
f  20/82/18 33/81/18 21/84/18
f  31/85/19 21/86/19 33/87/19
f  21/86/19 31/85/19 23/88/19
f  29/89/20 23/90/20 31/91/20
f  23/90/20 29/89/20 25/92/20
f  20/93/21 9/94/21 10/95/21
f  9/94/21 20/93/21 8/96/21
f  11/97/22 35/98/22 34/99/22
f  35/98/22 11/97/22 12/100/22
f  12/101/23 36/102/23 35/103/23
f  36/102/23 12/101/23 14/104/23
f  14/105/24 22/106/24 36/107/24
f  22/106/24 14/105/24 15/108/24
f  22/109/25 37/110/25 36/111/25
f  37/110/25 22/109/25 24/112/25
f  24/113/26 27/114/26 37/115/26
f  27/114/26 24/113/26 26/116/26
f  27/117/27 38/118/27 37/119/27
f  38/118/27 27/117/27 28/120/27
f  28/121/28 32/122/28 38/123/28
f  32/122/28 28/121/28 30/124/28
f  34/125/29 38/126/29 32/127/29
f  38/126/29 34/125/29 35/128/29
f  35/129/30 37/130/30 38/131/30
f  37/130/30 35/129/30 36/132/30

