# File produced by Open Asset Import Library (http://www.assimp.sf.net)
# (assimp v4.1.908865877)

mtllib naturePack_045.mtl

# 12 vertex positions
v  -0.3064700067043304 0 -0.4073400497436523
v  -0.3776710033416748 0 0.5953099727630615
v  -0.6870700120925903 0 -0.1315820217132568
v  0.3623299598693848 0 0.5953099727630615
v  0.239188015460968 0 -0.5953099727630615
v  -0.3064700067043304 0.1800000071525574 -0.4073400497436523
v  0.239188015460968 0.1800000071525574 -0.5953099727630615
v  0.3623299598693848 0.1800000071525574 0.5953099727630615
v  -0.3776710033416748 0.1800000071525574 0.5953099727630615
v  -0.6870700120925903 0.1800000071525574 -0.1315820217132568
v  0.6870700120925903 0 0.05545496940612793
v  0.6870700120925903 0.1800000071525574 0.05545496940612793

# 33 UV coordinates
vt -14.98419952392578 39.4744987487793 0
vt -12.1810998916626 0 0
vt 0 28.61779975891113 0
vt -41.31489944458008 0 0
vt -36.46689987182617 46.875 0
vt -27.02409934997559 7.086609840393066 0
vt -49.74570083618164 0 0
vt -27.02409934997559 0 0
vt -49.74570083618164 7.086609840393066 0
vt 14.98419952392578 39.4744987487793 0
vt 41.31489944458008 0 0
vt 36.46689987182617 46.875 0
vt 12.1810998916626 0 0
vt -35.29470062255859 0 0
vt -16.79080009460449 7.086609840393066 0
vt -35.29470062255859 7.086609840393066 0
vt -16.79080009460449 0 0
vt 4.770639896392822 0 0
vt -26.33169937133789 7.086609840393066 0
vt -26.33169937133789 0 0
vt 4.770639896392822 7.086609840393066 0
vt 41.31489944458008 7.086609840393066 0
vt 12.1810998916626 7.086609840393066 0
vt 46.09939956665039 0 0
vt 21.29630088806152 7.086609840393066 0
vt 21.29630088806152 0 0
vt 46.09939956665039 7.086609840393066 0
vt 17.93919944763184 0 0
vt -13.16320037841797 7.086609840393066 0
vt -13.16320037841797 0 0
vt 17.93919944763184 7.086609840393066 0
vt 54.09999847412109 21.25410079956055 0
vt -54.09999847412109 21.25410079956055 0

# 8 vertex normals
vn 0 -1 0
vn -0.3257020115852356 0 -0.9454720020294189
vn 0 1 0
vn -0.5867249965667725 0 -0.8097860217094421
vn -0.9201170206069946 0 0.3916440010070801
vn 0 0 1
vn 0.8569120168685913 0 0.5154619812965393
vn 0.8237590193748474 0 -0.5669389963150024

# Mesh 'Mesh1 Group1 Model' with 20 faces
g Mesh1 Group1 Model
usemtl Stone
f  1/1/1 2/2/1 3/3/1
f  2/2/1 1/1/1 4/4/1
f  4/4/1 1/1/1 5/5/1
f  6/6/2 5/7/2 1/8/2
f  5/7/2 6/6/2 7/9/2
f  6/10/3 8/11/3 7/12/3
f  6/10/3 9/13/3 8/11/3
f  9/13/3 6/10/3 10/3/3
f  1/14/4 10/15/4 6/16/4
f  10/15/4 1/14/4 3/17/4
f  2/18/5 10/19/5 3/20/5
f  10/19/5 2/18/5 9/21/5
f  2/13/6 8/22/6 9/23/6
f  8/22/6 2/13/6 4/11/6
f  11/24/7 8/25/7 4/26/7
f  8/25/7 11/24/7 12/27/7
f  5/28/8 12/29/8 11/30/8
f  12/29/8 5/28/8 7/31/8
f  7/12/3 8/11/3 12/32/3
f  4/4/1 5/5/1 11/33/1

