# File produced by Open Asset Import Library (http://www.assimp.sf.net)
# (assimp v4.1.908865877)

mtllib naturePack_166.mtl

# 51 vertex positions
v  0.1538490056991577 4.134119987487793 0.1062660217285156
v  -0.1296550035476685 0 0.1937299966812134
v  0.2413150072097778 0 0.1937299966812134
v  -0.04219096899032593 4.134119987487793 0.1062660217285156
v  0.1457750201225281 4.134119987487793 0.1062660217285156
v  0.6523150205612183 4.134119987487793 0.7839000225067139
v  -0.4784779846668243 4.134119987487793 0.7839000225067139
v  -0.04219096899032593 4.134119987487793 -0.08977395296096802
v  -0.5462909936904907 4.134119987487793 -0.7839000225067139
v  -0.655252993106842 4.134119987487793 0.6071250438690186
v  -0.655252993106842 4.134119987487793 -0.6306799650192261
v  -0.4410829842090607 4.836249828338623 0.5697300434112549
v  -0.4410829842090607 4.836249828338623 -0.4297299385070801
v  -0.6021039485931396 4.836249828338623 -0.5439499616622925
v  -0.6500449776649475 4.836249828338623 0.6839540004730225
v  -0.7725449800491333 4.836249828338623 0.5614540576934814
v  -0.7725449800491333 4.836249828338623 -0.4055500030517578
v  -0.3711209893226624 5.705770015716553 0.4997680187225342
v  -0.3711209893226624 5.705770015716553 -0.3597699403762817
v  -0.469353973865509 5.705770015716553 0.4715900123119354
v  -0.3429429829120636 5.705770015716553 0.5980000495910645
v  0.488415002822876 5.705770015716553 0.4997680187225342
v  0.5969150066375732 4.836249828338623 0.6839540004730225
v  0.5583750009536743 4.836249828338623 0.5697300434112549
v  0.7725449800491333 4.134119987487793 0.6636670231819153
v  0.7725449800491333 4.134119987487793 -0.6612899303436279
v  0.6499350070953369 4.134119987487793 -0.7839000225067139
v  0.1538490056991577 4.134119987487793 -0.08977395296096802
v  -0.03411799669265747 4.134119987487793 -0.08977395296096802
v  0.5583750009536743 4.836249828338623 -0.4297299385070801
v  0.5969150066375732 4.836249828338623 -0.5439499616622925
v  0.488415002822876 5.705770015716553 -0.3597699403762817
v  -0.3215199708938599 5.705770015716553 -0.4579999446868896
v  -0.469353973865509 5.705770015716553 -0.3466600179672241
v  -0.2116389870643616 7.738420009613037 0.09930402040481567
v  -0.2116389870643616 7.738420009613037 0.03959602117538452
v  -0.2024149894714355 7.738420009613037 0.1085290312767029
v  -0.2008519768714905 7.738420009613037 0.03147101402282715
v  0.5969150066375732 5.705770015716553 -0.4579999446868896
v  -0.1338329911231995 7.738420009613037 0.03147101402282715
v  -0.14056795835495 7.738420009613037 0.1085290312767029
v  0.5046249628067017 5.705770015716553 0.5980000495910645
v  0.672605037689209 4.836249828338623 -0.4055500030517578
v  0.672605037689209 4.836249828338623 0.6082670092582703
v  0.7266449928283691 5.705770015716553 0.4715900123119354
v  0.7266449928283691 5.705770015716553 -0.3282699584960938
v  -0.1243659853935242 7.738420009613037 0.04093801975250244
v  -0.1243659853935242 7.738420009613037 0.09930402040481567
v  0.2413150072097778 0 -0.1772379875183105
v  -0.1296550035476685 0 -0.1772379875183105
v  0.05582904815673828 4.134119987487793 0.008246004581451416

# 157 UV coordinates
vt 36.47219848632812 163.2890014648438 0
vt 25.31060028076172 0.4914639890193939 0
vt 39.91569900512695 0.4914639890193939 0
vt 28.75410079956055 163.2890014648438 0
vt 36.15430068969727 163.2890014648438 0
vt -56.0968017578125 0 0
vt -36.15430068969727 26.67849922180176 0
vt -36.47219848632812 26.67849922180176 0
vt -28.75410079956055 26.67849922180176 0
vt -11.57740020751953 0 0
vt -28.75410079956055 34.39659881591797 0
vt -8.907620429992676 61.72439956665039 0
vt -4.617780208587646 6.959660053253174 0
vt -4.617780208587646 55.69229888916016 0
vt -8.431890487670898 185.927001953125 0
vt -55.69229888916016 157.0269927978516 0
vt -6.959660053253174 157.0269927978516 0
vt -47.78070068359375 185.927001953125 0
vt -13.0496997833252 8.431890487670898 0
vt -6.71028995513916 52.2776985168457 0
vt -13.0496997833252 47.78070068359375 0
vt -4.82282018661499 3.934880018234253 0
vt 0 8.757699966430664 0
vt 0 46.8286018371582 0
vt -11.18630027770996 210.5760040283203 0
vt -46.8286018371582 172.8710021972656 0
vt -8.757699966430664 172.8710021972656 0
vt -45.02629852294922 210.5760040283203 0
vt -15.80410003662109 11.18630027770996 0
vt -11.93669986724854 12.29570007324219 0
vt -15.80410003662109 45.02629852294922 0
vt -16.91340065002441 7.318880081176758 0
vt -49.64410018920898 11.18630027770996 0
vt 4.82282018661499 187.0859985351562 0
vt 49.64410018920898 222.0780029296875 0
vt 15.80410003662109 222.0780029296875 0
vt 53.91569900512695 187.0859985351562 0
vt -53.91569900512695 3.934880018234253 0
vt -52.39849853515625 8.431890487670898 0
vt 11.57740020751953 155.6790008544922 0
vt 52.39849853515625 184.5800018310547 0
vt 13.0496997833252 184.5800018310547 0
vt 56.0968017578125 155.6790008544922 0
vt 43.01359939575195 172.6369934082031 0
vt 39.66640090942383 143.6940002441406 0
vt 46.36069869995117 143.6940002441406 0
vt -60.83039855957031 56.89720153808594 0
vt -60.83039855957031 4.733570098876953 0
vt -56.00320053100586 61.72439956665039 0
vt -36.47219848632812 34.39659881591797 0
vt -29.0718994140625 34.39659881591797 0
vt -13.0496997833252 148.4810028076172 0
vt -56.00320053100586 117.5210037231445 0
vt -8.907620429992676 117.5210037231445 0
vt -52.39849853515625 148.4810028076172 0
vt -53.91569900512695 52.2776985168457 0
vt -52.39849853515625 47.78070068359375 0
vt -15.80410003662109 210.4299926757812 0
vt -53.91569900512695 175.4369964599609 0
vt -6.71028995513916 175.4369964599609 0
vt -49.64410018920898 210.4299926757812 0
vt -17.75690078735352 48.89369964599609 0
vt -49.64410018920898 45.02629852294922 0
vt -11.93669986724854 44.51010131835938 0
vt -26.95260047912598 305.0199890136719 0
vt -44.51010131835938 224.35400390625 0
vt -12.29570007324219 224.35400390625 0
vt -29.30330085754395 305.0199890136719 0
vt -22.08289909362793 29.30330085754395 0
vt -22.44610023498535 26.58939933776855 0
vt -22.08289909362793 26.95260047912598 0
vt -22.50760078430176 29.62319946289062 0
vt -43.59920120239258 212.7039947509766 0
vt -35.268798828125 294.7850036621094 0
vt -35.80049896240234 294.7850036621094 0
vt -36.31280136108398 212.7039947509766 0
vt -22.50760078430176 289.260986328125 0
vt -53.91569900512695 206.9470062255859 0
vt -17.75690078735352 206.9470062255859 0
vt -25.14620018005371 289.260986328125 0
vt -24.88100051879883 26.58939933776855 0
vt -25.14620018005371 29.62319946289062 0
vt 16.91340065002441 220.1069946289062 0
vt 24.88100051879883 302.4209899902344 0
vt 22.44610023498535 302.4209899902344 0
vt 50.28210067749023 220.1069946289062 0
vt -50.28210067749023 7.318880081176758 0
vt -53.91569900512695 48.89369964599609 0
vt 11.18630027770996 209.4730072021484 0
vt 46.8286018371582 174.4799957275391 0
vt 45.02629852294922 209.4730072021484 0
vt 6.914669990539551 174.4799957275391 0
vt 43.01359939575195 212.2350006103516 0
vt 40.90650177001953 177.0460052490234 0
vt 45.12060165405273 177.0460052490234 0
vt -56.89550018310547 46.8286018371582 0
vt -56.89550018310547 6.914669990539551 0
vt 8.431890487670898 166.8320007324219 0
vt 56.89720153808594 137.9320068359375 0
vt 47.78070068359375 166.8320007324219 0
vt 4.733570098876953 137.9320068359375 0
vt 4.045499801635742 114.3960037231445 0
vt -3.265259981155396 144.6959991455078 0
vt -2.781149864196777 114.3960037231445 0
vt 19.99939918518066 171.3450012207031 0
vt 15.68659973144531 206.3329925537109 0
vt 13.78880023956299 171.3450012207031 0
vt -59.02330017089844 12.29570007324219 0
vt -59.02330017089844 43.78609848022461 0
vt 3.165729999542236 265.3099975585938 0
vt -10.77429962158203 178.3730010986328 0
vt -3.551090002059937 178.3730010986328 0
vt 2.638649940490723 265.3099975585938 0
vt -25.51889991760254 26.95260047912598 0
vt -25.51889991760254 29.2504997253418 0
vt 47.31740188598633 204.5610046386719 0
vt 35.51190185546875 289.7869873046875 0
vt 34.77790069580078 289.7869873046875 0
vt 57.3760986328125 204.5610046386719 0
vt 43.78609848022461 184.4149932861328 0
vt 26.95260047912598 271.1709899902344 0
vt 12.29570007324219 184.4149932861328 0
vt 29.2504997253418 271.1709899902344 0
vt -2.929800033569336 305.0220031738281 0
vt -0.2538560032844543 223.0970001220703 0
vt 6.784379959106445 223.0970001220703 0
vt -3.443379878997803 305.0220031738281 0
vt -40.65219879150391 205.3289947509766 0
vt -38.16400146484375 169.2599945068359 0
vt -29.51989936828613 169.2599945068359 0
vt -55.46379852294922 139.4420013427734 0
vt -48.06179809570312 139.4420013427734 0
vt -46.50120162963867 169.3650054931641 0
vt -36.47219848632812 161.9969940185547 0
vt -28.75410079956055 161.9969940185547 0
vt -29.0718994140625 161.9969940185547 0
vt -39.91569900512695 -0.800387978553772 0
vt -25.31060028076172 -0.800387978553772 0
vt -39.91569900512695 37.8400993347168 0
vt -25.31060028076172 23.23500061035156 0
vt -25.31060028076172 37.8400993347168 0
vt -39.91569900512695 23.23500061035156 0
vt 37.8400993347168 -0.8442909717559814 0
vt 26.67849922180176 161.9530029296875 0
vt 23.23500061035156 -0.8442909717559814 0
vt 34.39659881591797 161.9530029296875 0
vt -32.61309814453125 30.53759956359863 0
vt -37.8400993347168 0.5353670120239258 0
vt -26.67849922180176 163.3329925537109 0
vt -34.39659881591797 163.3329925537109 0
vt -23.23500061035156 0.5353670120239258 0
vt 3.265259981155396 188.3029937744141 0
vt -1.655960083007812 159.7870025634766 0
vt 8.186490058898926 159.7870025634766 0
vt 3.265259981155396 216.9490051269531 0
vt -6.192629814147949 180.3690032958984 0
vt 0.6278640031814575 180.3690032958984 0

# 30 vertex normals
vn -1.896399897167237e-17 0.02115190029144287 0.9997760057449341
vn 0 -1 0
vn -0.956492006778717 0.2917580008506775 8.258430615025294e-18
vn -0.9079160094261169 0.4191519916057587 4.122099899883466e-18
vn -1.296560032525119e-17 0.2072280049324036 0.9782930016517639
vn 9.942320533638268e-18 0.2917580008506775 0.956492006778717
vn 0.6753429770469666 0.2963530123233795 0.6753429770469666
vn -1.706370040684204e-17 0.4503700137138367 -0.8928419947624207
vn -9.564890427839509e-18 0.2072280049324036 -0.9782930016517639
vn -0.9920579791069031 0.125780001282692 -6.860139956845076e-16
vn -1.7890400989942e-15 -1 -3.009259880940984e-15
vn -0.5865539908409119 0.2223560065031052 -0.7787889838218689
vn -4.302549912994726e-16 0.2341119945049286 -0.9722099900245667
vn -4.420640070127368e-16 0.2341119945049286 0.9722099900245667
vn 0.9782930016517639 0.2072280049324036 0
vn 0.6878899931907654 0.2315489947795868 0.6878899931907654
vn 0.956492006778717 0.2917580008506775 0
vn 0.6450939774513245 0.4095219969749451 -0.6450939774513245
vn 0.8584619760513306 0.2065600007772446 -0.4694429934024811
vn 0.6508939862251282 0.390736997127533 -0.6508939862251282
vn 0.4645859897136688 0.3439599871635437 0.8159970045089722
vn 0.922419011592865 0.3861899971961975 2.549210241024045e-16
vn -0.6907129883766174 0.2140789926052094 0.6907129883766174
vn -0.5982900261878967 0.3149990141391754 -0.73676598072052
vn -0.7528390288352966 0.3828699886798859 -0.5353909730911255
vn 1.264270044697377e-17 0.02115190029144287 -0.9997760057449341
vn 0.9997760057449341 0.02115190029144287 3.049160205028177e-18
vn -0.9997760057449341 0.02115190029144287 -2.528809915710568e-17
vn -0.6854509711265564 0.2455890029668808 0.6854509711265564
vn -0.6617339849472046 0.3524439930915833 0.6617339849472046

# Mesh 'Mesh1 Group1 Model' with 3 faces
g Mesh1 Group1 Model
usemtl Wood
f  1/1/1 2/2/1 3/3/1
f  2/2/1 1/1/1 4/4/1
f  4/4/1 1/1/1 5/5/1

# Mesh 'Leafs' with 43 faces
g Leafs
usemtl Leafs
f  6/6/2 5/7/2 1/8/2
f  6/6/2 4/9/2 5/7/2
f  7/10/2 4/9/2 6/6/2
f  4/9/2 7/10/2 8/11/2
f  7/10/2 9/12/2 8/11/2
f  10/13/2 9/12/2 7/10/2
f  9/12/2 10/13/2 11/14/2
f  12/15/3 11/16/3 10/17/3
f  11/16/3 12/15/3 13/18/3
f  12/19/2 14/20/2 13/21/2
f  15/22/2 14/20/2 12/19/2
f  16/23/2 14/20/2 15/22/2
f  14/20/2 16/23/2 17/24/2
f  18/25/4 17/26/4 16/27/4
f  17/26/4 18/25/4 19/28/4
f  18/29/2 20/30/2 19/31/2
f  20/30/2 18/29/2 21/32/2
f  21/32/2 18/29/2 22/33/2
f  15/34/5 22/35/5 18/36/5
f  22/35/5 15/34/5 23/37/5
f  15/22/2 12/19/2 23/38/2
f  23/38/2 12/19/2 24/39/2
f  7/40/6 24/41/6 12/42/6
f  24/41/6 7/40/6 6/43/6
f  24/44/7 6/45/7 25/46/7
f  6/6/2 26/47/2 25/48/2
f  6/6/2 27/49/2 26/47/2
f  6/6/2 1/8/2 27/49/2
f  28/50/2 27/49/2 1/8/2
f  29/51/2 27/49/2 28/50/2
f  8/11/2 27/49/2 29/51/2
f  8/11/2 9/12/2 27/49/2
f  13/52/8 27/53/8 9/54/8
f  27/53/8 13/52/8 30/55/8
f  13/21/2 31/56/2 30/57/2
f  31/56/2 13/21/2 14/20/2
f  19/58/9 31/59/9 14/60/9
f  31/59/9 19/58/9 32/61/9
f  19/31/2 33/62/2 32/63/2
f  19/31/2 34/64/2 33/62/2
f  34/64/2 19/31/2 20/30/2
f  35/65/10 34/66/10 20/67/10
f  34/66/10 35/65/10 36/68/10

# Mesh 'FrontColor' with 2 faces
g FrontColor
usemtl FrontColor
f  36/69/11 37/70/11 35/71/11
f  37/70/11 36/69/11 38/72/11

# Mesh 'Leafs' with 4 faces
g Leafs
usemtl Leafs
f  33/73/12 36/74/12 38/75/12
f  36/74/12 33/73/12 34/76/12
f  38/77/13 39/78/13 33/79/13
f  39/78/13 38/77/13 40/80/13

# Mesh 'FrontColor' with 2 faces
g FrontColor
usemtl FrontColor
f  41/81/11 38/72/11 40/82/11
f  37/70/11 38/72/11 41/81/11

# Mesh 'Leafs' with 21 faces
g Leafs
usemtl Leafs
f  21/83/14 41/84/14 37/85/14
f  41/84/14 21/83/14 42/86/14
f  21/32/2 22/33/2 42/87/2
f  22/33/2 39/88/2 42/87/2
f  32/63/2 39/88/2 22/33/2
f  32/63/2 33/62/2 39/88/2
f  22/89/15 43/90/15 32/91/15
f  43/90/15 22/89/15 44/92/15
f  22/93/16 23/94/16 44/95/16
f  23/38/2 43/96/2 44/97/2
f  23/38/2 31/56/2 43/96/2
f  23/38/2 24/39/2 31/56/2
f  30/57/2 31/56/2 24/39/2
f  24/98/17 26/99/17 30/100/17
f  26/99/17 24/98/17 25/101/17
f  27/102/18 30/103/18 26/104/18
f  31/105/19 32/106/19 43/107/19
f  42/87/2 39/88/2 45/108/2
f  45/108/2 39/88/2 46/109/2
f  40/110/20 46/111/20 39/112/20
f  46/111/20 40/110/20 47/113/20

# Mesh 'FrontColor' with 2 faces
g FrontColor
usemtl FrontColor
f  48/114/11 40/82/11 47/115/11
f  41/81/11 40/82/11 48/114/11

# Mesh 'Leafs' with 8 faces
g Leafs
usemtl Leafs
f  42/116/21 48/117/21 41/118/21
f  48/117/21 42/116/21 45/119/21
f  46/120/22 48/121/22 45/122/22
f  48/121/22 46/120/22 47/123/22
f  37/124/23 20/125/23 21/126/23
f  20/125/23 37/124/23 35/127/23
f  19/128/24 14/129/24 17/130/24
f  9/131/25 11/132/25 13/133/25

# Mesh 'Wood' with 7 faces
g Wood
usemtl Wood
f  28/134/26 8/135/26 29/136/26
f  49/137/26 8/135/26 28/134/26
f  8/135/26 49/137/26 50/138/26
f  49/139/2 2/140/2 50/141/2
f  2/140/2 49/139/2 3/142/2
f  49/143/27 1/144/27 3/145/27
f  1/144/27 49/143/27 28/146/27

# Mesh 'Leafs' with 6 faces
g Leafs
usemtl Leafs
f  51/147/2 28/50/2 1/8/2
f  28/50/2 51/147/2 29/51/2
f  51/147/2 8/11/2 29/51/2
f  51/147/2 4/9/2 8/11/2
f  4/9/2 51/147/2 5/7/2
f  1/8/2 5/7/2 51/147/2

# Mesh 'Wood' with 2 faces
g Wood
usemtl Wood
f  50/148/28 4/149/28 8/150/28
f  4/149/28 50/148/28 2/151/28

# Mesh 'Leafs' with 2 faces
g Leafs
usemtl Leafs
f  12/152/29 10/153/29 7/154/29
f  18/155/30 16/156/30 15/157/30

