# File produced by Open Asset Import Library (http://www.assimp.sf.net)
# (assimp v4.1.908865877)

mtllib naturePack_113.mtl

# 15 vertex positions
v  0 0.7870000004768372 0
v  0 0.5358999967575073 0.2511000037193298
v  0.2174589931964874 0.5358999967575073 0.1255500018596649
v  -0.2174589931964874 0.5358999967575073 0.1255500018596649
v  -0.2174589931964874 0.5358999967575073 -0.1255500018596649
v  0 0.5358999967575073 -0.2511000037193298
v  -0.03934599459171295 0.5358999967575073 -0.03934600949287415
v  0.03934600949287415 0.5358999967575073 -0.03934600949287415
v  0.2174589931964874 0.5358999967575073 -0.1255500018596649
v  0.03934600949287415 0.5358999967575073 0.03934600949287415
v  -0.03934599459171295 0.5358999967575073 0.03934600949287415
v  -0.05872499942779541 0 -0.05872499942779541
v  -0.05872499942779541 0 0.05872499942779541
v  0.05872499942779541 0 -0.05872499942779541
v  0.05872499942779541 0 0.05872499942779541

# 48 UV coordinates
vt 12.3572998046875 26.22430038452148 0
vt 7.414370059967041 13.14649963378906 0
vt 17.30019950866699 13.14649963378906 0
vt 2.471460103988647 31.82900047302246 0
vt -2.471460103988647 18.75130081176758 0
vt 7.414370059967041 18.75130081176758 0
vt -14.82870006561279 15.94890022277832 0
vt -4.942910194396973 15.94890022277832 0
vt -9.885829925537109 29.0265998840332 0
vt -8.561380386352539 19.77169990539551 0
vt 0 4.942910194396973 0
vt 0 14.82870006561279 0
vt -7.012330055236816 11.43490028381348 0
vt -10.11040019989014 11.43490028381348 0
vt -17.12280082702637 14.82870006561279 0
vt -2.471460103988647 15.01480007171631 0
vt -7.414370059967041 1.93707001209259 0
vt 2.471460103988647 1.93707001209259 0
vt 14.82870006561279 4.739439964294434 0
vt 9.885829925537109 17.81719970703125 0
vt 4.942910194396973 4.739439964294434 0
vt -17.12280082702637 4.942910194396973 0
vt -10.11040019989014 8.336779594421387 0
vt -8.561380386352539 0 0
vt -7.012330055236816 8.336779594421387 0
vt -12.19779968261719 0.2258419990539551 0
vt -8.336779594421387 21.33810043334961 0
vt -11.43490028381348 21.33810043334961 0
vt -7.573820114135742 0.2258419990539551 0
vt -10.87339973449707 12.19779968261719 0
vt -6.249370098114014 7.573820114135742 0
vt -6.249370098114014 12.19779968261719 0
vt -10.87339973449707 7.573820114135742 0
vt 12.19779968261719 -0.3929469883441925 0
vt 8.336779594421387 20.71929931640625 0
vt 7.573820114135742 -0.3929469883441925 0
vt 11.43490028381348 20.71929931640625 0
vt -10.87339973449707 -0.4408110082149506 0
vt -7.012330055236816 20.67140007019043 0
vt -10.11040019989014 20.67140007019043 0
vt -6.249370098114014 -0.4408110082149506 0
vt 6.249370098114014 0.2737059891223907 0
vt 10.11040019989014 21.38590049743652 0
vt 7.012330055236816 21.38590049743652 0
vt 10.87339973449707 0.2737059891223907 0
vt -12.3572998046875 20.61949920654297 0
vt -17.30019950866699 7.541800022125244 0
vt -7.414370059967041 7.541800022125244 0

# 11 vertex normals
vn 0.3779639899730682 0.6546540260314941 0.6546540260314941
vn -0.3779639899730682 0.6546540260314941 0.6546540260314941
vn -0.7559289932250977 0.6546540260314941 3.640599885113696e-17
vn 0 -1 0
vn 0.3779639899730682 0.6546540260314941 -0.6546540260314941
vn 0.7559289932250977 0.6546540260314941 2.605029976945899e-17
vn -0.9993469715118408 0.03613840043544769 -1.417070094132076e-18
vn 0.9993469715118408 0.03613840043544769 -1.417070094132076e-18
vn -2.313590052110551e-19 0.03613840043544769 -0.9993469715118408
vn -2.313590052110551e-19 0.03613840043544769 0.9993469715118408
vn -0.3779639899730682 0.6546540260314941 -0.6546540260314941

# Mesh 'Mesh1 Mushroom_Tall Model' with 14 faces
g Mesh1 Mushroom_Tall Model
usemtl Wood
f  1/1/1 2/2/1 3/3/1
f  1/4/2 4/5/2 2/6/2
f  5/7/3 4/8/3 1/9/3
f  6/10/4 4/11/4 5/12/4
f  4/11/4 6/10/4 7/13/4
f  7/13/4 6/10/4 8/14/4
f  8/14/4 6/10/4 9/15/4
f  1/16/5 9/17/5 6/18/5
f  9/19/6 1/20/6 3/21/6
f  3/22/4 10/23/4 9/15/4
f  2/24/4 10/23/4 3/22/4
f  2/24/4 11/25/4 10/23/4
f  4/11/4 11/25/4 2/24/4
f  11/25/4 4/11/4 7/13/4

# Mesh 'FrontColor' with 8 faces
g FrontColor
usemtl FrontColor
f  12/26/7 11/27/7 7/28/7
f  11/27/7 12/26/7 13/29/7
f  14/30/4 13/31/4 12/32/4
f  13/31/4 14/30/4 15/33/4
f  14/34/8 10/35/8 15/36/8
f  10/35/8 14/34/8 8/37/8
f  14/38/9 7/39/9 8/40/9
f  7/39/9 14/38/9 12/41/9

# Mesh 'Wood' with 3 faces
g Wood
usemtl Wood
f  8/14/4 11/25/4 7/13/4
f  11/25/4 8/14/4 10/23/4
f  8/14/4 9/15/4 10/23/4

# Mesh 'FrontColor' with 2 faces
g FrontColor
usemtl FrontColor
f  13/42/10 10/43/10 11/44/10
f  10/43/10 13/42/10 15/45/10

# Mesh 'Wood' with 1 faces
g Wood
usemtl Wood
f  1/46/11 6/47/11 5/48/11

