# File produced by Open Asset Import Library (http://www.assimp.sf.net)
# (assimp v4.1.908865877)

mtllib naturePack_084.mtl

# 29 vertex positions
v  -0.3645324110984802 1.095867991447449 -0.3551499843597412
v  0.6384676694869995 0.4958679974079132 -0.6478500366210938
v  -0.5415323972702026 0.4958679974079132 -0.6478500366210938
v  0.4614676237106323 1.095867991447449 -0.3551499843597412
v  0.5558675527572632 1.095867991447449 -0.4495499134063721
v  -0.6384676098823547 1.095867991447449 -0.4495499134063721
v  -0.6384676098823547 1.095867991447449 0.565250039100647
v  -0.3645324110984802 1.095867991447449 0.4708500504493713
v  0.5558675527572632 1.095867991447449 0.565250039100647
v  0.4614676237106323 1.095867991447449 0.4708500504493713
v  -0.5415323972702026 0.4958679974079132 0.6478500366210938
v  0.6384676694869995 0.4958679974079132 0.6478500366210938
v  -0.1482293903827667 0.4958679974079132 0.2545470297336578
v  -0.1482293903827667 0.4958679974079132 -0.1388469338417053
v  0.2451645731925964 0.4958679974079132 -0.1388469338417053
v  0.2451645731925964 0.4958679974079132 0.2545470297336578
v  -0.1993703842163086 0 -0.1899879574775696
v  -0.1993703842163086 0 0.3056880235671997
v  0.2963055968284607 0 -0.1899879574775696
v  0.2963055968284607 0 0.3056880235671997
v  0.4036476016044617 1.838907957077026 0.4130300283432007
v  0.4036476016044617 1.838907957077026 -0.2973299622535706
v  -0.3067123889923096 1.838907957077026 -0.2973299622535706
v  -0.3067123889923096 1.838907957077026 0.4130300283432007
v  0.6005376577377319 1.838907957077026 0.4942140579223633
v  -0.3878964185714722 1.838907957077026 0.4942140579223633
v  -0.3878964185714722 1.838907957077026 -0.3785099983215332
v  0.6005376577377319 1.838907957077026 -0.3785099983215332
v  -0.1581443846225739 3.71262788772583 0.05785006284713745

# 86 UV coordinates
vt -6.968500137329102 3.916990041732788 0
vt -46.45669937133789 -22.36599922180176 0
vt -3.179009942251955e-16 -22.36599922180176 0
vt -39.48820114135742 3.916990041732788 0
vt -6.968500137329102 39.48820114135742 0
vt -43.2047004699707 43.2047004699707 0
vt -39.48820114135742 39.48820114135742 0
vt 3.816349983215332 43.2047004699707 0
vt 3.816349983215332 3.251970052719116 0
vt -6.968500137329102 6.968500137329102 0
vt -43.2047004699707 3.251970052719116 0
vt -39.48820114135742 6.968500137329102 0
vt 0 0 0
vt 39.48820114135742 24.62849998474121 0
vt 6.968500137329102 24.62849998474121 0
vt 46.45669937133789 -1.092059991258064e-16 0
vt -15.48439979553223 15.48439979553223 0
vt -46.45669937133789 0 0
vt -15.48439979553223 30.97229957580566 0
vt 0 51.01190185546875 0
vt -46.45669937133789 51.01190185546875 0
vt -30.97229957580566 30.97229957580566 0
vt -30.97229957580566 15.48439979553223 0
vt -32.98580169677734 -18.03739929199219 0
vt -15.48439979553223 1.588549971580505 0
vt -30.97229957580566 1.588549971580505 0
vt -13.47089958190918 -18.03739929199219 0
vt -32.98580169677734 32.98580169677734 0
vt -13.47089958190918 13.47089958190918 0
vt -13.47089958190918 32.98580169677734 0
vt -32.98580169677734 13.47089958190918 0
vt 32.98580169677734 -22.80340003967285 0
vt 15.48439979553223 -3.177469968795776 0
vt 13.47089958190918 -22.80340003967285 0
vt 30.97229957580566 -3.177469968795776 0
vt -32.98580169677734 -22.80340003967285 0
vt -15.48439979553223 -3.177469968795776 0
vt -30.97229957580566 -3.177469968795776 0
vt -13.47089958190918 -22.80340003967285 0
vt 30.97229957580566 1.588549971580505 0
vt 13.47089958190918 -18.03739929199219 0
vt 32.98580169677734 -18.03739929199219 0
vt 15.48439979553223 1.588549971580505 0
vt 51.01190185546875 -13.144700050354 0
vt 6.968500137329102 11.48379993438721 0
vt 7.721670137689429e-17 -13.144700050354 0
vt 39.48820114135742 11.48379993438721 0
vt 43.2047004699707 14.47049999237061 0
vt 9.244879722595215 44.33160018920898 0
vt 3.251970052719116 14.47049999237061 0
vt 37.21179962158203 44.33160018920898 0
vt -43.2047004699707 14.47049999237061 0
vt -9.244879722595215 44.33160018920898 0
vt -37.21179962158203 44.33160018920898 0
vt 3.816349983215332 14.47049999237061 0
vt -43.2047004699707 20.0137996673584 0
vt -9.244879722595215 52.05080032348633 0
vt -37.21179962158203 52.05080032348633 0
vt -3.251970052719116 20.0137996673584 0
vt -3.816349983215332 23.79409980773926 0
vt 37.21179962158203 53.65520095825195 0
vt 9.244879722595215 53.65520095825195 0
vt 43.2047004699707 23.79409980773926 0
vt -44.96319961547852 6.048659801483154 0
vt -9.244879722595215 9.244879722595215 0
vt -37.21179962158203 9.244879722595215 0
vt -6.048659801483154 6.048659801483154 0
vt -9.244879722595215 37.21179962158203 0
vt -6.048659801483154 40.40800094604492 0
vt -44.96319961547852 40.40800094604492 0
vt -15.0939998626709 118.0749969482422 0
vt -44.96319961547852 42.33229827880859 0
vt -6.048659801483154 42.33229827880859 0
vt 40.40800094604492 32.13539886474609 0
vt 23.22830009460449 111.7220001220703 0
vt 6.048659801483154 32.13539886474609 0
vt 15.0939998626709 128.6119995117188 0
vt 6.048659801483154 52.86949920654297 0
vt 44.96319961547852 52.86949920654297 0
vt -40.40800094604492 53.21870040893555 0
vt -6.048659801483154 53.21870040893555 0
vt -23.22830009460449 127.5400009155273 0
vt -37.21179962158203 37.21179962158203 0
vt -6.968500137329102 24.62849998474121 0
vt -51.01190185546875 1.199520017251563e-16 0
vt -39.48820114135742 24.62849998474121 0

# 17 vertex normals
vn -5.600959868785371e-18 0.4384469985961914 -0.8987569808959961
vn 0 -1 0
vn 7.968480649268307e-18 0.2829450070858002 0.9591360092163086
vn -0.9947239756584167 0.1025910004973412 -5.808070591327316e-18
vn 0.9947239756584167 0.1025910004973412 6.089299902078887e-19
vn 9.370839646398857e-19 0.1025910004973412 -0.9947239756584167
vn 7.35408066876597e-18 0.1025910004973412 0.9947239756584167
vn 0.9591360092163086 0.2829450070858002 1.594200068962344e-18
vn 0.9796540141105652 0.2006929963827133 -1.443720095709733e-18
vn -2.596380149280432e-18 0.2006929963827133 -0.9796540141105652
vn -0.9131190180778503 0.4076929986476898 2.169660005140864e-17
vn 5.192770224728215e-18 0.2006929963827133 0.9796540141105652
vn 1.925549907389728e-17 0.2268169969320297 -0.9739369750022888
vn 0.9269009828567505 0.3753069937229156 -4.485449737295347e-17
vn -3.851099814779456e-17 0.2268169969320297 0.9739369750022888
vn -0.9925659894943237 0.1217069998383522 7.001070589011002e-18
vn -0.9591360092163086 0.2829450070858002 7.971000241414143e-18

# Mesh 'Mesh1 Tree Model' with 20 faces
g Mesh1 Tree Model
usemtl Leafs
f  1/1/1 2/2/1 3/3/1
f  2/2/1 1/1/1 4/4/1
f  1/5/2 5/6/2 4/7/2
f  1/5/2 6/8/2 5/6/2
f  6/8/2 1/5/2 7/9/2
f  8/10/2 7/9/2 1/5/2
f  7/9/2 8/10/2 9/11/2
f  9/11/2 8/10/2 10/12/2
f  11/13/3 10/14/3 8/15/3
f  10/14/3 11/13/3 12/16/3
f  11/13/2 13/17/2 12/18/2
f  13/17/2 11/13/2 14/19/2
f  3/20/2 14/19/2 11/13/2
f  14/19/2 3/20/2 2/21/2
f  14/19/2 2/21/2 15/22/2
f  15/22/2 2/21/2 16/23/2
f  12/18/2 16/23/2 2/21/2
f  12/18/2 13/17/2 16/23/2
f  13/17/2 15/22/2 16/23/2
f  15/22/2 13/17/2 14/19/2

# Mesh 'Wood' with 10 faces
g Wood
usemtl Wood
f  17/24/4 13/25/4 14/26/4
f  13/25/4 17/24/4 18/27/4
f  19/28/2 18/29/2 17/30/2
f  18/29/2 19/28/2 20/31/2
f  19/32/5 16/33/5 20/34/5
f  16/33/5 19/32/5 15/35/5
f  19/36/6 14/37/6 15/38/6
f  14/37/6 19/36/6 17/39/6
f  16/40/7 18/41/7 20/42/7
f  18/41/7 16/40/7 13/43/7

# Mesh 'Leafs' with 26 faces
g Leafs
usemtl Leafs
f  2/44/8 10/45/8 12/46/8
f  10/45/8 2/44/8 4/47/8
f  4/7/2 5/6/2 10/12/2
f  9/11/2 10/12/2 5/6/2
f  5/48/9 21/49/9 9/50/9
f  21/49/9 5/48/9 22/51/9
f  5/52/10 23/53/10 22/54/10
f  23/53/10 5/52/10 6/55/10
f  6/56/11 24/57/11 23/58/11
f  24/57/11 6/56/11 7/59/11
f  7/60/12 21/61/12 24/62/12
f  21/61/12 7/60/12 9/63/12
f  25/64/2 24/65/2 21/66/2
f  26/67/2 24/65/2 25/64/2
f  24/65/2 26/67/2 23/68/2
f  27/69/2 23/68/2 26/67/2
f  23/68/2 27/69/2 28/70/2
f  29/71/13 28/72/13 27/73/13
f  28/74/14 29/75/14 25/76/14
f  29/77/15 26/78/15 25/79/15
f  27/80/16 26/81/16 29/82/16
f  25/64/2 21/66/2 28/70/2
f  22/83/2 28/70/2 21/66/2
f  23/68/2 28/70/2 22/83/2
f  8/84/17 3/85/17 11/13/17
f  3/85/17 8/84/17 1/86/17

