# File produced by Open Asset Import Library (http://www.assimp.sf.net)
# (assimp v4.1.908865877)

mtllib naturePack_144.mtl

# 34 vertex positions
v  1.5 0 1.5
v  0.741300106048584 0.1500000059604645 1.5
v  -1.5 0 1.5
v  1.5 0.300000011920929 1.5
v  1.5 0 -1.5
v  1.5 0.300000011920929 -1.5
v  -1.5 0.300000011920929 -1.5
v  -1.5 0 -1.5
v  -1.5 0.300000011920929 1.5
v  -0.7413020133972168 0.1500000059604645 1.5
v  -0.6223520040512085 0.1500000059604645 1.128136038780212
v  -0.3786400556564331 0.1500000059604645 0.2250800132751465
v  0.0730900764465332 0.1500000059604645 -1.193599939346313
v  0.741300106048584 0.1500000059604645 0.7989689707756042
v  0.8602499961853027 0.1500000059604645 1.128136038780212
v  0.741300106048584 0.300000011920929 0.7989689707756042
v  0.8602499961853027 0.300000011920929 1.128136038780212
v  0.741300106048584 0.300000011920929 1.5
v  1.103960037231445 0.300000011920929 0.2250800132751465
v  0.887470006942749 0.300000011920929 -0.8871901035308838
v  0.0730900764465332 0.300000011920929 -1.193599939346313
v  -0.595130980014801 0.300000011920929 -0.8871901035308838
v  -0.7413020133972168 0.300000011920929 -0.4243199825286865
v  -0.7413020133972168 0.300000011920929 0.7989689707756042
v  -0.7413020133972168 0.300000011920929 1.5
v  -0.6223520040512085 0.300000011920929 1.128136038780212
v  -0.7413020133972168 0.1500000059604645 0.7989689707756042
v  -0.3786400556564331 0.300000011920929 0.2250800132751465
v  -0.7413020133972168 0.1500000059604645 -0.4243199825286865
v  -0.595130980014801 0.1500000059604645 -0.8871901035308838
v  0.887470006942749 0.1500000059604645 -0.8871901035308838
v  0.741300106048584 0.1500000059604645 -0.4243199825286865
v  1.103960037231445 0.1500000059604645 0.2250800132751465
v  0.741300106048584 0.300000011920929 -0.4243199825286865

# 77 UV coordinates
vt 118.1100006103516 0 0
vt 88.24019622802734 5.905509948730469 0
vt 0 0 0
vt 118.1100006103516 11.81099987030029 0
vt 0 11.81099987030029 0
vt -118.1100006103516 -4.973800191154787e-11 0
vt -4.381110058071513e-12 11.81099987030029 0
vt -118.1100006103516 11.81099987030029 0
vt -4.381110058071513e-12 -4.973800191154787e-11 0
vt -118.1100006103516 118.1100006103516 0
vt 0 118.1100006103516 0
vt -118.1100006103516 0 0
vt 29.8700008392334 5.905509948730469 0
vt 88.24019622802734 -1.136870003519419e-13 0
vt 34.5531005859375 14.64029979705811 0
vt 29.8700008392334 0 0
vt 44.14789962768555 50.19359970092773 0
vt 61.93249893188477 106.0469970703125 0
vt 88.24019622802734 27.59959983825684 0
vt 92.92330169677734 14.64029979705811 0
vt 17.81180000305176 5.905509948730469 0
vt 4.032259941101074 11.81099987030029 0
vt 4.032259941101074 5.905509948730469 0
vt 17.81180000305176 11.81099987030029 0
vt -26.88400077819824 5.905509948730469 0
vt -42.25500106811523 11.81099987030029 0
vt -42.25500106811523 5.905509948730469 0
vt -26.88400077819824 11.81099987030029 0
vt 88.24019622802734 11.81099987030029 0
vt 102.5179977416992 50.19359970092773 0
vt 118.1100006103516 118.1100006103516 0
vt 93.99500274658203 93.98390197753906 0
vt 35.62469863891602 93.98390197753906 0
vt 29.8700008392334 75.76039886474609 0
vt 29.8700008392334 27.59959983825684 0
vt 29.8700008392334 11.81099987030029 0
vt 24.47150039672852 5.905509948730469 0
vt 9.100429534912109 11.81099987030029 0
vt 9.100429534912109 5.905509948730469 0
vt 24.47150039672852 11.81099987030029 0
vt 15.80529975891113 5.905509948730469 0
vt 2.025759935379028 11.81099987030029 0
vt 2.025759935379028 5.905509948730469 0
vt 15.80529975891113 11.81099987030029 0
vt 66.0155029296875 5.905509948730469 0
vt 39.28820037841797 11.81099987030029 0
vt 39.28820037841797 5.905509948730469 0
vt 66.0155029296875 11.81099987030029 0
vt 51.58110046386719 5.905509948730469 0
vt 22.29759979248047 11.81099987030029 0
vt 22.29759979248047 5.905509948730469 0
vt 51.58110046386719 11.81099987030029 0
vt 100.3489990234375 5.905509948730469 0
vt 81.23860168457031 11.81099987030029 0
vt 81.23860168457031 5.905509948730469 0
vt 100.3489990234375 11.81099987030029 0
vt 71.55609893798828 5.905509948730469 0
vt 100.4980010986328 11.81099987030029 0
vt 71.55609893798828 11.81099987030029 0
vt 100.4980010986328 5.905509948730469 0
vt 20.62220001220703 5.905509948730469 0
vt 54.87889862060547 11.81099987030029 0
vt 20.62220001220703 11.81099987030029 0
vt 54.87889862060547 5.905509948730469 0
vt 88.24019622802734 75.76039886474609 0
vt 6.162330150604248 5.905509948730469 0
vt -23.1210994720459 11.81099987030029 0
vt -23.1210994720459 5.905509948730469 0
vt 6.162330150604248 11.81099987030029 0
vt -70.47010040283203 5.905509948730469 0
vt -97.19730377197266 11.81099987030029 0
vt -97.19730377197266 5.905509948730469 0
vt -70.47010040283203 11.81099987030029 0
vt -117.9260025024414 11.81099987030029 0
vt -98.81569671630859 5.905509948730469 0
vt -98.81569671630859 11.81099987030029 0
vt -117.9260025024414 5.905509948730469 0

# 18 vertex normals
vn 0 0 1
vn 1 0 0
vn -3.709339896330009e-14 4.211150200252034e-13 -1
vn 0 -1 0
vn -1 0 0
vn 0 1 0
vn -0.9404770135879517 0 0.3398570120334625
vn -0.9524589776992798 0 -0.3046680092811584
vn 0.9524589776992798 0 0.3046680092811584
vn 0.9404770135879517 0 -0.3398570120334625
vn 0.8453530073165894 0 0.5342079997062683
vn 0.8730800151824951 0 -0.4875760078430176
vn 0.9535830020904541 0 0.3011299967765808
vn 0.416810005903244 0 0.9089940190315247
vn -0.3521400094032288 0 0.9359470009803772
vn -0.8730800151824951 0 0.4875760078430176
vn -0.8453530073165894 0 -0.5342079997062683
vn -0.9535830020904541 0 -0.3011299967765808

# Mesh 'Mesh1 Plate_River_Dirt Model' with 12 faces
g Mesh1 Plate_River_Dirt Model
usemtl Stone
f  1/1/1 2/2/1 3/3/1
f  2/2/1 1/1/1 4/4/1
f  5/1/2 4/5/2 1/3/2
f  4/5/2 5/1/2 6/4/2
f  5/6/3 7/7/3 6/8/3
f  7/7/3 5/6/3 8/9/3
f  5/10/4 3/3/4 8/11/4
f  3/3/4 5/10/4 1/12/4
f  3/3/5 7/8/5 8/12/5
f  7/8/5 3/3/5 9/5/5
f  3/3/1 10/13/1 9/5/1
f  10/13/1 3/3/1 2/2/1

# Mesh 'Water' with 5 faces
g Water
usemtl Water
f  2/14/6 11/15/6 10/16/6
f  11/15/6 2/14/6 12/17/6
f  12/17/6 2/14/6 13/18/6
f  13/18/6 2/14/6 14/19/6
f  15/20/6 14/19/6 2/14/6

# Mesh 'Stone' with 5 faces
g Stone
usemtl Stone
f  15/21/7 16/22/7 14/23/7
f  16/22/7 15/21/7 17/24/7
f  2/25/8 17/26/8 15/27/8
f  17/26/8 2/25/8 18/28/8
f  2/2/1 4/4/1 18/29/1

# Mesh 'Leafs' with 11 faces
g Leafs
usemtl Leafs
f  4/1/6 17/20/6 18/14/6
f  17/20/6 4/1/6 19/30/6
f  6/31/6 19/30/6 4/1/6
f  6/31/6 20/32/6 19/30/6
f  6/31/6 21/18/6 20/32/6
f  7/11/6 21/18/6 6/31/6
f  7/11/6 22/33/6 21/18/6
f  7/11/6 23/34/6 22/33/6
f  7/11/6 24/35/6 23/34/6
f  7/11/6 25/16/6 24/35/6
f  25/16/6 7/11/6 9/3/6

# Mesh 'Stone' with 13 faces
g Stone
usemtl Stone
f  9/5/1 10/13/1 25/36/1
f  11/37/9 25/38/9 10/39/9
f  25/38/9 11/37/9 26/40/9
f  27/41/10 26/42/10 11/43/10
f  26/42/10 27/41/10 24/44/10
f  12/45/11 24/46/11 27/47/11
f  24/46/11 12/45/11 28/48/11
f  29/49/12 28/50/12 12/51/12
f  28/50/12 29/49/12 23/52/12
f  30/53/13 23/54/13 29/55/13
f  23/54/13 30/53/13 22/56/13
f  30/57/14 21/58/14 22/59/14
f  21/58/14 30/57/14 13/60/14

# Mesh 'Water' with 2 faces
g Water
usemtl Water
f  30/33/6 12/17/6 13/18/6
f  12/17/6 30/33/6 29/34/6

# Mesh 'Stone' with 2 faces
g Stone
usemtl Stone
f  13/61/15 20/62/15 21/63/15
f  20/62/15 13/61/15 31/64/15

# Mesh 'Water' with 3 faces
g Water
usemtl Water
f  13/18/6 32/65/6 31/32/6
f  13/18/6 14/19/6 32/65/6
f  33/30/6 32/65/6 14/19/6

# Mesh 'Stone' with 4 faces
g Stone
usemtl Stone
f  33/66/16 34/67/16 32/68/16
f  34/67/16 33/66/16 19/69/16
f  14/70/17 19/71/17 33/72/17
f  19/71/17 14/70/17 16/73/17

# Mesh 'Leafs' with 2 faces
g Leafs
usemtl Leafs
f  19/30/6 16/19/6 17/20/6
f  19/30/6 20/32/6 34/65/6

# Mesh 'Stone' with 2 faces
g Stone
usemtl Stone
f  20/74/18 32/75/18 34/76/18
f  32/75/18 20/74/18 31/77/18

# Mesh 'Leafs' with 1 faces
g Leafs
usemtl Leafs
f  28/17/6 23/34/6 24/35/6

# Mesh 'Water' with 1 faces
g Water
usemtl Water
f  12/17/6 27/35/6 11/15/6

# Mesh 'Leafs' with 1 faces
g Leafs
usemtl Leafs
f  26/15/6 24/35/6 25/16/6

