# File produced by Open Asset Import Library (http://www.assimp.sf.net)
# (assimp v4.1.908865877)

mtllib naturePack_055.mtl

# 60 vertex positions
v  0.2868654727935791 1.867650032043457 -0.2175835072994232
v  0.2585934996604919 1.783050060272217 -0.09733748435974121
v  0.2135934829711914 1.783050060272217 -0.1752794981002808
v  0.3318654894828796 1.867650032043457 -0.1396404802799225
v  0.2868654727935791 2.223050117492676 -0.2175835072994232
v  0.3318654894828796 2.223050117492676 -0.1396404802799225
v  0.2409324645996094 2.223050117492676 -0.08714050054550171
v  0.1959324479103088 2.223050117492676 -0.1650834977626801
v  0.1959324479103088 1.893049955368042 -0.1650834977626801
v  0.1049994826316833 1.893049955368042 -0.1125834882259369
v  0.1049994826316833 1.783050060272217 -0.1125834882259369
v  0.1499994993209839 1.783050060272217 -0.03464049100875854
v  0.1499994993209839 1.893049955368042 -0.03464049100875854
v  0.2409324645996094 1.893049955368042 -0.08714050054550171
v  0.08499947190284729 2.319999933242798 -0.147224485874176
v  0.1699994802474976 2.319999933242798 5.066394805908203e-07
v  0.08499947190284729 0 -0.147224485874176
v  0.1699994802474976 0 5.066394805908203e-07
v  0.08499947190284729 2.319999933242798 0.1472245156764984
v  0.08499947190284729 0 0.1472245156764984
v  -0.08500054478645325 0 0.1472245156764984
v  -0.08500054478645325 2.319999933242798 0.1472245156764984
v  -0.08500054478645325 2.319999933242798 -0.147224485874176
v  -0.1700005233287811 2.319999933242798 5.066394805908203e-07
v  -0.06630054116249084 2.369999885559082 -0.1148344874382019
v  -0.1326005309820175 2.369999885559082 5.066394805908203e-07
v  -0.06630054116249084 2.369999885559082 0.1148355007171631
v  -0.1050005257129669 0.8415719866752625 0.1125835031270981
v  -0.1050005257129669 0.7297359704971313 0.1125835031270981
v  -0.1700005233287811 0 5.066394805908203e-07
v  -0.1500005275011063 0.7297359704971313 0.03464150428771973
v  -0.2253015339374542 0.7297359704971313 0.1820394992828369
v  -0.2703015208244324 0.7297359704971313 0.1040975004434586
v  -0.2868655323982239 0.800823986530304 0.2175835072994232
v  -0.331865519285202 0.800823986530304 0.1396415084600449
v  -0.331865519285202 1.501569986343384 0.1396415084600449
v  -0.2868655323982239 1.501569986343384 0.2175835072994232
v  -0.195932537317276 0.8415719866752625 0.1650834977626801
v  -0.1500005275011063 0.8415719866752625 0.03464150428771973
v  -0.2409325242042542 0.8415719866752625 0.0871414989233017
v  -0.1500005275011063 1.468600034713745 -0.03464049100875854
v  -0.1050005257129669 1.468600034713745 -0.1125834882259369
v  -0.1050005257129669 1.368600010871887 -0.1125834882259369
v  -0.08500054478645325 0 -0.147224485874176
v  -0.1500005275011063 1.368600010871887 -0.03464049100875854
v  -0.2456375360488892 1.368600010871887 -0.08985748887062073
v  -0.2972245216369629 1.428159952163696 -0.1196404993534088
v  -0.2236125320196152 1.468600034713745 -0.07714048027992249
v  -0.1786125302314758 1.468600034713745 -0.1550835072994232
v  -0.2522245347499847 1.428159952163696 -0.1975834965705872
v  -0.2006375342607498 1.368600010871887 -0.1677995026111603
v  -0.2972245216369629 2.018599987030029 -0.1196404993534088
v  -0.2522245347499847 2.018599987030029 -0.1975834965705872
v  -0.2236125320196152 2.018599987030029 -0.07714048027992249
v  -0.1786125302314758 2.018599987030029 -0.1550835072994232
v  0.06629946827888489 2.369999885559082 -0.1148344874382019
v  0.06629946827888489 2.369999885559082 0.1148355007171631
v  0.1325994729995728 2.369999885559082 5.066394805908203e-07
v  -0.2409325242042542 1.501569986343384 0.0871414989233017
v  -0.195932537317276 1.501569986343384 0.1650834977626801

# 186 UV coordinates
vt 3.44488000869751 73.93209838867188 0
vt -0.09842520207166672 69.22129821777344 0
vt 3.44488000869751 69.22129821777344 0
vt -0.09842520207166672 73.93209838867188 0
vt 3.44488000869751 87.52149963378906 0
vt -0.09842520207166672 73.52970123291016 0
vt 3.44488000869751 73.52970123291016 0
vt -0.09842520207166672 87.52149963378906 0
vt 25.14690017700195 18.49640083312988 0
vt 23.33849906921387 13.36079978942871 0
vt 26.91850090026855 15.42780017852783 0
vt 21.5669002532959 16.42939949035645 0
vt -31.02599906921387 87.52149963378906 0
vt -26.8922004699707 74.52940368652344 0
vt -26.8922004699707 87.52149963378906 0
vt -31.02599906921387 73.52970123291016 0
vt -22.75830078125 74.52940368652344 0
vt -27.69499969482422 70.19869995117188 0
vt -22.75830078125 70.19869995117188 0
vt -22.26210021972656 16.83090019226074 0
vt -19.75849914550781 11.29389953613281 0
vt -17.9867992401123 14.36250019073486 0
vt -24.03380012512207 13.76230049133301 0
vt 31.02599906921387 73.52970123291016 0
vt 22.75830078125 70.19869995117188 0
vt 27.69499969482422 70.19869995117188 0
vt 22.75830078125 74.52940368652344 0
vt 26.8922004699707 74.52940368652344 0
vt 31.02599906921387 87.52149963378906 0
vt 26.8922004699707 87.52149963378906 0
vt -3.44488000869751 87.52149963378906 0
vt 0.09842520207166672 74.52940368652344 0
vt 0.09842520207166672 87.52149963378906 0
vt -3.44488000869751 74.52940368652344 0
vt 19.75849914550781 11.29389953613281 0
vt 17.9867992401123 14.36250019073486 0
vt 5.019690036773682 91.33860015869141 0
vt -0.09842520207166672 74.52940368652344 0
vt 3.44488000869751 74.52940368652344 0
vt -1.673229932785034 91.33860015869141 0
vt -0.09842520207166672 70.19869995117188 0
vt 5.019690036773682 -2.011859950824205e-16 0
vt -1.673229932785034 -2.011859950824205e-16 0
vt 12.17969989776611 91.33860015869141 0
vt 18.87269973754883 2.50177996939805e-17 0
vt 18.87269973754883 91.33860015869141 0
vt 12.17969989776611 2.50177996939805e-17 0
vt 17.19939994812012 91.33860015869141 0
vt 10.50650024414062 0 0
vt 17.19939994812012 0 0
vt 10.50650024414062 91.33860015869141 0
vt 10.50650024414062 15.72630023956299 0
vt 10.50650024414062 4.133860111236572 0
vt 17.19939994812012 4.133860111236572 0
vt 7.160049915313721 9.930089950561523 0
vt -12.17969989776611 77.33149719238281 0
vt -18.13640022277832 79.677001953125 0
vt -18.87269973754883 77.33149719238281 0
vt -12.91600036621094 79.677001953125 0
vt -5.019690036773682 82.73030090332031 0
vt 0.9370080232620239 85.07579803466797 0
vt -4.283460140228271 85.07579803466797 0
vt 1.673229932785034 82.73030090332031 0
vt 0.09842520207166672 33.1328010559082 0
vt 1.673229932785034 91.33860015869141 0
vt -5.019690036773682 91.33860015869141 0
vt 1.673229932785034 -1.191509914528232e-17 0
vt 0.09842520207166672 28.72970008850098 0
vt -5.019690036773682 -1.191509914528232e-17 0
vt -3.44488000869751 28.72970008850098 0
vt -4.982830047607422 2.763190031051636 0
vt -7.947450160980225 8.566269874572754 0
vt -9.719110488891602 5.497680187225342 0
vt -3.211179971694946 5.831779956817627 0
vt 0.09842520207166672 20.24469947814941 0
vt -3.44488000869751 16.28669929504395 0
vt 0.09842520207166672 16.28669929504395 0
vt -3.44488000869751 20.24469947814941 0
vt 0.09842520207166672 31.52849960327148 0
vt -3.44488000869751 59.11700057983398 0
vt -3.44488000869751 31.52849960327148 0
vt 0.09842520207166672 59.11700057983398 0
vt 2.898119926452637 31.52849960327148 0
vt 7.031970024108887 33.1328010559082 0
vt 2.898119926452637 59.11700057983398 0
vt 11.16580009460449 33.1328010559082 0
vt 5.696859836578369 28.72970008850098 0
vt 11.16580009460449 28.72970008850098 0
vt 7.947450160980225 8.566269874572754 0
vt 6.139080047607422 3.430749893188477 0
vt 9.719110488891602 5.497680187225342 0
vt 4.367430210113525 6.499340057373047 0
vt -11.16580009460449 33.1328010559082 0
vt -2.898119926452637 31.52849960327148 0
vt -7.031970024108887 33.1328010559082 0
vt -11.16580009460449 28.72970008850098 0
vt -5.696859836578369 28.72970008850098 0
vt -3.44488000869751 33.1328010559082 0
vt -12.17969989776611 91.33860015869141 0
vt -13.75450038909912 57.81869888305664 0
vt -12.17969989776611 1.102120029519036e-16 0
vt -18.87269973754883 91.33860015869141 0
vt -17.29780006408691 57.81869888305664 0
vt -17.29780006408691 53.88169860839844 0
vt -18.87269973754883 1.102120029519036e-16 0
vt -13.75450038909912 53.88169860839844 0
vt 1.235739946365356 57.81869888305664 0
vt -3.111999988555908 53.88169860839844 0
vt 1.235739946365356 53.88169860839844 0
vt -5.457170009613037 56.22689819335938 0
vt -2.11070990562439 57.81869888305664 0
vt 7.947450160980225 11.29389953613281 0
vt 6.820990085601807 16.03569984436035 0
vt 5.049339771270752 12.96710014343262 0
vt 9.719110488891602 14.36250019073486 0
vt -1.235739946365356 57.81869888305664 0
vt 5.457170009613037 56.22689819335938 0
vt 2.11070990562439 57.81869888305664 0
vt -1.235739946365356 53.88169860839844 0
vt 3.111999988555908 53.88169860839844 0
vt -7.947450160980225 11.29389953613281 0
vt -5.953849792480469 16.53639984130859 0
vt -9.719110488891602 14.36250019073486 0
vt -4.182199954986572 13.46780014038086 0
vt -13.75450038909912 40.30059814453125 0
vt -17.29780006408691 43.6171989440918 0
vt -17.29780006408691 40.30059814453125 0
vt -13.75450038909912 43.6171989440918 0
vt -13.75450038909912 79.47229766845703 0
vt -17.29780006408691 56.22689819335938 0
vt -13.75450038909912 56.22689819335938 0
vt -17.29780006408691 79.47229766845703 0
vt 3.922869920730591 17.70899963378906 0
vt 2.151220083236694 14.64039993286133 0
vt 13.75450038909912 79.47229766845703 0
vt 17.29780006408691 57.81869888305664 0
vt 17.29780006408691 79.47229766845703 0
vt 13.75450038909912 57.81869888305664 0
vt -5.457170009613037 79.47229766845703 0
vt -2.11070990562439 79.47229766845703 0
vt 5.457170009613037 79.47229766845703 0
vt 2.11070990562439 79.47229766845703 0
vt -10.50650024414062 15.72630023956299 0
vt -10.50650024414062 4.133860111236572 0
vt -7.160049915313721 9.930089950561523 0
vt -17.19939994812012 4.133860111236572 0
vt -17.19939994812012 15.72630023956299 0
vt -10.50650024414062 91.33860015869141 0
vt -17.19939994812012 1.011119938185832e-17 0
vt -10.50650024414062 1.011119938185832e-17 0
vt -17.19939994812012 91.33860015869141 0
vt -11.24269962310791 70.45500183105469 0
vt -17.19939994812012 68.10959625244141 0
vt -10.50650024414062 68.10959625244141 0
vt -16.46319961547852 70.45500183105469 0
vt 11.24269962310791 14.45120048522949 0
vt 16.46319961547852 5.409029960632324 0
vt 16.46319961547852 14.45120048522949 0
vt 11.24269962310791 5.409029960632324 0
vt 8.632490158081055 9.930089950561523 0
vt 10.50650024414062 78.90720367431641 0
vt 16.46319961547852 81.25260162353516 0
vt 11.24269962310791 81.25260162353516 0
vt 17.19939994812012 78.90720367431641 0
vt 18.87269973754883 69.68520355224609 0
vt 12.91600036621094 72.03060150146484 0
vt 12.17969989776611 69.68520355224609 0
vt 18.13640022277832 72.03060150146484 0
vt 5.019690036773682 64.28639984130859 0
vt -0.9370080232620239 66.63179779052734 0
vt -1.673229932785034 64.28639984130859 0
vt 4.283460140228271 66.63179779052734 0
vt 19.07340049743652 9.930089950561523 0
vt 17.19939994812012 15.72630023956299 0
vt 20.54590034484863 9.930089950561523 0
vt 3.44488000869751 70.19869995117188 0
vt -20.54590034484863 9.930089950561523 0
vt -2.898119926452637 59.11700057983398 0
vt -7.031970024108887 59.11700057983398 0
vt 2.559060096740723 1.36381995677948 0
vt 0.7874019742012024 4.43241024017334 0
vt 7.031970024108887 59.11700057983398 0
vt 3.44488000869751 33.1328010559082 0
vt -0.09842520207166672 59.11700057983398 0
vt -0.09842520207166672 33.1328010559082 0
vt 3.44488000869751 59.11700057983398 0

# 26 vertex normals
vn 0.6123719811439514 -0.7071070075035095 -0.3535529971122742
vn 0.8660249710083008 0 -0.5
vn 0 1 0
vn -0.5 0 -0.8660249710083008
vn 0 -1 0
vn 0.5 -2.388910102789116e-15 0.8660249710083008
vn -0.8660249710083008 0 0.5
vn 0.8660249710083008 8.840100713050133e-18 -0.5
vn 0.8660249710083008 -1.950220155568816e-18 0.5
vn -1.863510024459683e-13 0 1
vn -0.7268480062484741 0.5436819791793823 -0.4196459949016571
vn -0.7268480062484741 0.5436819791793823 0.4196459949016571
vn -0.8660249710083008 -1.067100109923394e-18 0.5
vn -0.6123719811439514 -0.7071070075035095 0.3535529971122742
vn 0.5 0 0.8660249710083008
vn -0.8660249710083008 8.918669305480625e-17 -0.5
vn -0.5 -1.027720003859338e-15 0.8660249710083008
vn 0.5 2.232130074664298e-16 -0.8660249710083008
vn -0.6123719811439514 -0.7071070075035095 -0.3535529971122742
vn -0.8660249710083008 -2.811550109074095e-15 -0.5
vn 0.8660249710083008 0 0.5
vn 1.864619976433765e-13 -6.429489819712625e-19 -1
vn 1.543769994651056e-13 0.5436819791793823 -0.839290976524353
vn -1.559309864389291e-13 0.5436819791793823 0.839290976524353
vn 0.7268480062484741 0.5436819791793823 0.4196459949016571
vn 0.7268480062484741 0.5436819791793823 -0.4196459949016571

# Mesh 'Mesh1 Group1 Model' with 120 faces
g Mesh1 Group1 Model
usemtl Green_leafs
f  1/1/1 2/2/1 3/3/1
f  2/2/1 1/1/1 4/4/1
f  5/5/2 4/6/2 1/7/2
f  4/6/2 5/5/2 6/8/2
f  5/9/3 7/10/3 6/11/3
f  7/10/3 5/9/3 8/12/3
f  5/13/4 9/14/4 8/15/4
f  1/16/4 9/14/4 5/13/4
f  1/16/4 10/17/4 9/14/4
f  3/18/4 10/17/4 1/16/4
f  10/17/4 3/18/4 11/19/4
f  3/20/5 12/21/5 11/22/5
f  12/21/5 3/20/5 2/23/5
f  4/24/6 12/25/6 2/26/6
f  12/25/6 4/24/6 13/27/6
f  13/27/6 4/24/6 14/28/6
f  6/29/6 14/28/6 4/24/6
f  14/28/6 6/29/6 7/30/6
f  8/31/7 14/32/7 7/33/7
f  14/32/7 8/31/7 9/34/7
f  9/12/3 13/35/3 14/10/3
f  13/35/3 9/12/3 10/36/3
f  15/37/8 13/38/8 10/39/8
f  16/40/8 13/38/8 15/37/8
f  13/38/8 16/40/8 12/41/8
f  16/40/8 17/42/8 12/41/8
f  17/42/8 16/40/8 18/43/8
f  19/44/9 18/45/9 16/46/9
f  18/45/9 19/44/9 20/47/9
f  19/48/10 21/49/10 20/50/10
f  21/49/10 19/48/10 22/51/10
f  23/52/3 22/53/3 19/54/3
f  22/53/3 23/52/3 24/55/3
f  24/56/11 25/57/11 23/58/11
f  25/57/11 24/56/11 26/59/11
f  24/60/12 27/61/12 26/62/12
f  27/61/12 24/60/12 22/63/12
f  28/64/13 22/65/13 24/66/13
f  22/65/13 28/64/13 21/67/13
f  29/68/13 21/67/13 28/64/13
f  21/67/13 29/68/13 30/69/13
f  30/69/13 29/68/13 31/70/13
f  32/71/5 31/72/5 29/73/5
f  31/72/5 32/71/5 33/74/5
f  34/75/14 33/76/14 32/77/14
f  33/76/14 34/75/14 35/78/14
f  34/79/7 36/80/7 35/81/7
f  36/80/7 34/79/7 37/82/7
f  34/83/15 38/84/15 37/85/15
f  34/83/15 28/86/15 38/84/15
f  32/87/15 28/86/15 34/83/15
f  28/86/15 32/87/15 29/88/15
f  39/89/3 38/90/3 28/91/3
f  38/90/3 39/89/3 40/92/3
f  39/93/4 35/94/4 40/95/4
f  31/96/4 35/94/4 39/93/4
f  35/94/4 31/96/4 33/97/4
f  39/98/13 24/66/13 31/70/13
f  28/64/13 24/66/13 39/98/13
f  30/69/13 31/70/13 24/66/13
f  24/99/16 41/100/16 30/101/16
f  41/100/16 24/99/16 23/102/16
f  41/100/16 23/102/16 42/103/16
f  42/103/16 23/102/16 43/104/16
f  44/105/16 43/104/16 23/102/16
f  44/105/16 45/106/16 43/104/16
f  30/101/16 45/106/16 44/105/16
f  45/106/16 30/101/16 41/100/16
f  41/107/17 46/108/17 45/109/17
f  46/108/17 41/107/17 47/110/17
f  47/110/17 41/107/17 48/111/17
f  41/112/3 49/113/3 48/114/3
f  49/113/3 41/112/3 42/115/3
f  42/116/18 50/117/18 49/118/18
f  43/119/18 50/117/18 42/116/18
f  50/117/18 43/119/18 51/120/18
f  45/121/5 51/122/5 43/123/5
f  51/122/5 45/121/5 46/124/5
f  46/125/19 50/126/19 51/127/19
f  50/126/19 46/125/19 47/128/19
f  52/129/20 50/130/20 47/131/20
f  50/130/20 52/129/20 53/132/20
f  54/114/3 53/133/3 52/134/3
f  53/133/3 54/114/3 55/113/3
f  54/135/21 49/136/21 55/137/21
f  49/136/21 54/135/21 48/138/21
f  52/139/17 48/111/17 54/140/17
f  47/110/17 48/111/17 52/139/17
f  49/118/18 53/141/18 55/142/18
f  53/141/18 49/118/18 50/117/18
f  44/143/5 21/144/5 30/145/5
f  21/144/5 44/143/5 20/146/5
f  20/146/5 44/143/5 17/147/5
f  23/148/22 17/149/22 44/150/22
f  17/149/22 23/148/22 15/151/22
f  25/152/23 15/153/23 23/154/23
f  15/153/23 25/152/23 56/155/23
f  25/156/3 57/157/3 56/158/3
f  25/156/3 27/159/3 57/157/3
f  27/159/3 25/156/3 26/160/3
f  22/161/24 57/162/24 27/163/24
f  57/162/24 22/161/24 19/164/24
f  16/165/25 57/166/25 19/167/25
f  57/166/25 16/165/25 58/168/25
f  15/169/26 58/170/26 16/171/26
f  58/170/26 15/169/26 56/172/26
f  56/158/3 57/157/3 58/173/3
f  15/174/3 19/54/3 16/175/3
f  23/52/3 19/54/3 15/174/3
f  15/37/8 10/39/8 17/42/8
f  11/176/8 17/42/8 10/39/8
f  12/41/8 17/42/8 11/176/8
f  20/146/5 17/147/5 18/177/5
f  36/178/4 40/95/4 35/94/4
f  40/95/4 36/178/4 59/179/4
f  37/180/3 59/92/3 36/181/3
f  59/92/3 37/180/3 60/90/3
f  37/85/15 38/84/15 60/182/15
f  40/183/2 60/184/2 38/185/2
f  60/184/2 40/183/2 59/186/2

