# File produced by Open Asset Import Library (http://www.assimp.sf.net)
# (assimp v4.1.908865877)

mtllib naturePack_170.mtl

# 32 vertex positions
v  -5.066394805908203e-07 0.1700000017881393 0.3689999878406525
v  -0.2598077058792114 0 0.1499999910593033
v  -5.066394805908203e-07 0 0.2999999821186066
v  -0.3195635080337524 0.1700000017881393 0.1844999939203262
v  -5.066394805908203e-07 0.4199999868869781 0.332099974155426
v  -0.2876071929931641 0.4199999868869781 0.166049987077713
v  -0.1610605120658875 0.5400000214576721 0.09298798441886902
v  -5.066394805908203e-07 0.5400000214576721 0.1859759837388992
v  0.1610594987869263 0.5400000214576721 0.09298798441886902
v  0.2876064777374268 0.4199999868869781 0.166049987077713
v  0.3195635080337524 0.1700000017881393 0.1844999939203262
v  0.2598074674606323 0 0.1499999910593033
v  0.2598074674606323 0 -0.1500000059604645
v  -5.066394805908203e-07 0 -0.3000000417232513
v  -0.2598077058792114 0 -0.1500000059604645
v  -0.3195635080337524 0.1700000017881393 -0.1845000088214874
v  -0.2876071929931641 0.4199999868869781 -0.166049987077713
v  -0.1610605120658875 0.5400000214576721 -0.09298801422119141
v  -0.02520051598548889 0.5400000214576721 0.02204999327659607
v  0.02519950270652771 0.5400000214576721 0.02204999327659607
v  0.02519950270652771 0.5400000214576721 -0.02205002307891846
v  0.1610594987869263 0.5400000214576721 -0.09298801422119141
v  -5.066394805908203e-07 0.5400000214576721 -0.1859759986400604
v  -0.02520051598548889 0.5400000214576721 -0.02205002307891846
v  -0.03477650880813599 0.6200000047683716 -0.03042900562286377
v  -0.03477650880813599 0.6200000047683716 0.03042897582054138
v  0.0347754955291748 0.6200000047683716 0.03042897582054138
v  0.0347754955291748 0.6200000047683716 -0.03042900562286377
v  -5.066394805908203e-07 0.4199999868869781 -0.3321000039577484
v  -5.066394805908203e-07 0.1700000017881393 -0.3689999878406525
v  0.3195635080337524 0.1700000017881393 -0.1845000088214874
v  0.2876064777374268 0.4199999868869781 -0.166049987077713

# 108 UV coordinates
vt 10.89570045471191 4.228129863739014 0
vt -2.273620128631592 -2.866209983825684 0
vt 9.537400245666504 -2.866209983825684 0
vt -3.631890058517456 4.228129863739014 0
vt 10.1693000793457 17.35910034179688 0
vt -3.631890058517456 7.43651008605957 0
vt 10.89570045471191 7.43651008605957 0
vt -2.905509948730469 17.35910034179688 0
vt 10.1693000793457 16.85540008544922 0
vt -0.02905509993433952 23.72139930725098 0
vt -2.905509948730469 16.85540008544922 0
vt 7.292829990386963 23.72139930725098 0
vt 11.62199974060059 7.726089954376221 0
vt 21.82040023803711 14.59210014343262 0
vt 14.49849987030029 14.59210014343262 0
vt 24.6968994140625 7.726089954376221 0
vt 10.89570045471191 5.84128999710083 0
vt 24.6968994140625 15.76389980316162 0
vt 11.62199974060059 15.76389980316162 0
vt 25.4232006072998 5.84128999710083 0
vt 12.25389957427979 1.305909991264343 0
vt 25.4232006072998 8.400250434875488 0
vt 10.89570045471191 8.400250434875488 0
vt 24.06500053405762 1.305909991264343 0
vt -12.58119964599609 2.716539859771729 0
vt -22.80990028381348 20.4330997467041 0
vt -22.80990028381348 8.622050285339355 0
vt -12.58119964599609 26.33860015869141 0
vt -2.352590084075928 8.622050285339355 0
vt -2.352590084075928 20.4330997467041 0
vt -8.622050285339355 -0.7801529765129089 0
vt -21.79129981994629 6.314189910888672 0
vt -20.4330997467041 -0.7801529765129089 0
vt -7.263780117034912 6.314189910888672 0
vt -7.99015998840332 16.56150054931641 0
vt -21.79129981994629 6.638899803161621 0
vt -7.263780117034912 6.638899803161621 0
vt -21.06500053405762 16.56150054931641 0
vt -10.86660003662109 19.15679931640625 0
vt -21.06500053405762 12.29069995880127 0
vt -7.99015998840332 12.29069995880127 0
vt -18.18849945068359 19.15679931640625 0
vt 12.58119964599609 7.20566987991333 0
vt 6.24029016494751 18.18849945068359 0
vt 6.24029016494751 10.86660003662109 0
vt 11.5890998840332 13.65939998626709 0
vt 13.57340049743652 13.65939998626709 0
vt 18.92219924926758 10.86660003662109 0
vt 13.57340049743652 15.39570045471191 0
vt 18.92219924926758 18.18849945068359 0
vt 12.58119964599609 21.84939956665039 0
vt 11.5890998840332 15.39570045471191 0
vt -13.65939998626709 19.7318000793457 0
vt -15.72560024261475 22.90390014648438 0
vt -15.39570045471191 19.7318000793457 0
vt -13.32960033416748 22.90390014648438 0
vt 11.5890998840332 19.72130012512207 0
vt 13.95040035247803 22.88809967041016 0
vt 11.2121000289917 22.88809967041016 0
vt 13.57340049743652 19.72130012512207 0
vt 13.65939998626709 22.7224006652832 0
vt 15.72560024261475 25.89450073242188 0
vt 13.32960033416748 25.89450073242188 0
vt 15.39570045471191 22.7224006652832 0
vt -13.57340049743652 22.74790000915527 0
vt -11.2121000289917 25.91469955444336 0
vt -13.95040035247803 25.91469955444336 0
vt -11.5890998840332 22.74790000915527 0
vt 11.2121000289917 15.72560024261475 0
vt 13.95040035247803 13.32960033416748 0
vt 13.95040035247803 15.72560024261475 0
vt 11.2121000289917 13.32960033416748 0
vt -24.6968994140625 -1.403210043907166 0
vt -14.49849987030029 5.462800025939941 0
vt -21.82040023803711 5.462800025939941 0
vt -11.62199974060059 -1.403210043907166 0
vt -25.4232006072998 4.246059894561768 0
vt -11.62199974060059 14.16870021820068 0
vt -24.6968994140625 14.16870021820068 0
vt -10.89570045471191 4.246059894561768 0
vt -24.06500053405762 5.478030204772949 0
vt -10.89570045471191 12.57240009307861 0
vt -25.4232006072998 12.57240009307861 0
vt -12.25389957427979 5.478030204772949 0
vt 3.631890058517456 16.74449920654297 0
vt -9.537400245666504 9.650150299072266 0
vt 2.273620128631592 9.650150299072266 0
vt -10.89570045471191 16.74449920654297 0
vt 2.905509948730469 12.57340049743652 0
vt -10.89570045471191 2.650840044021606 0
vt 3.631890058517456 2.650840044021606 0
vt -10.1693000793457 12.57340049743652 0
vt 2.905509948730469 -10.53250026702881 0
vt -7.292829990386963 -3.666500091552734 0
vt -10.1693000793457 -10.53250026702881 0
vt 0.02905509993433952 -3.666500091552734 0
vt 18.18849945068359 0.8981509804725647 0
vt 7.99015998840332 -5.967860221862793 0
vt 21.06500053405762 -5.967860221862793 0
vt 10.86660003662109 0.8981509804725647 0
vt 7.99015998840332 13.37110042572021 0
vt 21.79129981994629 3.448450088500977 0
vt 21.06500053405762 13.37110042572021 0
vt 7.263780117034912 3.448450088500977 0
vt 8.622050285339355 7.564089775085449 0
vt 21.79129981994629 14.65839958190918 0
vt 7.263780117034912 14.65839958190918 0
vt 20.4330997467041 7.564089775085449 0

# 24 vertex normals
vn -0.4717069864273071 -0.3316150009632111 0.8170210123062134
vn -0.4959650039672852 0.1267939954996109 0.8590360283851624
vn -0.3440429866313934 0.7256280183792114 0.5959010124206543
vn 0.3440429866313934 0.7256280183792114 0.5959010124206543
vn 0.4959650039672852 0.1267939954996109 0.8590360283851624
vn 0.4717069864273071 -0.3316150009632111 0.8170210123062134
vn 0 -1 0
vn -0.9434149861335754 -0.3316150009632111 1.942709975992294e-18
vn -0.9919289946556091 0.1267939954996109 2.085160196846122e-18
vn -0.688086986541748 0.7256280183792114 -8.290490481206625e-18
vn 0 1 0
vn -0.9929119944572449 -0.1188519969582558 3.011730075515e-18
vn 5.406799899503861e-18 -0.1041679978370667 0.9945600032806396
vn 0.9929119944572449 -0.1188519969582558 3.011730075515e-18
vn 5.788690059767929e-19 -0.1041679978370667 -0.9945600032806396
vn -0.3440429866313934 0.7256280183792114 -0.5959010124206543
vn -0.4959650039672852 0.1267939954996109 -0.8590360283851624
vn -0.4717069864273071 -0.3316150009632111 -0.8170210123062134
vn 0.4717069864273071 -0.3316150009632111 -0.8170210123062134
vn 0.4959650039672852 0.1267939954996109 -0.8590360283851624
vn 0.3440429866313934 0.7256280183792114 -0.5959010124206543
vn 0.688086986541748 0.7256280183792114 -8.290490481206625e-18
vn 0.9919289946556091 0.1267939954996109 2.085160196846122e-18
vn 0.9434149861335754 -0.3316150009632111 -7.61849060592977e-18

# Mesh 'Mesh1 Group1 Model' with 32 faces
g Mesh1 Group1 Model
usemtl Fall_Leafs
f  1/1/1 2/2/1 3/3/1
f  2/2/1 1/1/1 4/4/1
f  5/5/2 4/6/2 1/7/2
f  4/6/2 5/5/2 6/8/2
f  5/9/3 7/10/3 6/11/3
f  7/10/3 5/9/3 8/12/3
f  5/13/4 9/14/4 8/15/4
f  9/14/4 5/13/4 10/16/4
f  1/17/5 10/18/5 5/19/5
f  10/18/5 1/17/5 11/20/5
f  3/21/6 11/22/6 1/23/6
f  11/22/6 3/21/6 12/24/6
f  3/25/7 13/26/7 12/27/7
f  3/25/7 14/28/7 13/26/7
f  2/29/7 14/28/7 3/25/7
f  14/28/7 2/29/7 15/30/7
f  2/31/8 16/32/8 15/33/8
f  16/32/8 2/31/8 4/34/8
f  6/35/9 16/36/9 4/37/9
f  16/36/9 6/35/9 17/38/9
f  7/39/10 17/40/10 6/41/10
f  17/40/10 7/39/10 18/42/10
f  8/43/11 18/44/11 7/45/11
f  18/44/11 8/43/11 19/46/11
f  19/46/11 8/43/11 20/47/11
f  20/47/11 8/43/11 9/48/11
f  20/47/11 9/48/11 21/49/11
f  22/50/11 21/49/11 9/48/11
f  23/51/11 21/49/11 22/50/11
f  23/51/11 24/52/11 21/49/11
f  18/44/11 24/52/11 23/51/11
f  24/52/11 18/44/11 19/46/11

# Mesh 'Green_leafs' with 10 faces
g Green_leafs
usemtl Green_leafs
f  19/53/12 25/54/12 24/55/12
f  25/54/12 19/53/12 26/56/12
f  19/57/13 27/58/13 26/59/13
f  27/58/13 19/57/13 20/60/13
f  20/61/14 28/62/14 27/63/14
f  28/62/14 20/61/14 21/64/14
f  21/65/15 25/66/15 28/67/15
f  25/66/15 21/65/15 24/68/15
f  25/69/11 27/70/11 28/71/11
f  27/70/11 25/69/11 26/72/11

# Mesh 'Fall_Leafs' with 18 faces
g Fall_Leafs
usemtl Fall_Leafs
f  29/73/16 18/74/16 23/75/16
f  18/74/16 29/73/16 17/76/16
f  30/77/17 17/78/17 29/79/17
f  17/78/17 30/77/17 16/80/17
f  14/81/18 16/82/18 30/83/18
f  16/82/18 14/81/18 15/84/18
f  30/85/19 13/86/19 14/87/19
f  13/86/19 30/85/19 31/88/19
f  29/89/20 31/90/20 30/91/20
f  31/90/20 29/89/20 32/92/20
f  29/93/21 22/94/21 32/95/21
f  22/94/21 29/93/21 23/96/21
f  22/97/22 10/98/22 32/99/22
f  10/98/22 22/97/22 9/100/22
f  10/101/23 31/102/23 32/103/23
f  31/102/23 10/101/23 11/104/23
f  12/105/24 31/106/24 11/107/24
f  31/106/24 12/105/24 13/108/24

