# File produced by Open Asset Import Library (http://www.assimp.sf.net)
# (assimp v4.1.908865877)

mtllib naturePack_080.mtl

# 50 vertex positions
v  0.389986515045166 0.2099999934434891 0.1960999667644501
v  0.05033048987388611 0 0.5299999713897705
v  0.5093244910240173 0 0.2649999856948853
v  0.05033048987388611 0.2099999934434891 0.3921999931335449
v  0.389986515045166 0.5899999737739563 0.1960999667644501
v  0.05033048987388611 0.5899999737739563 0.3921999931335449
v  0.05033048987388611 0.5899999737739563 0.2793319821357727
v  -0.1915774941444397 0.5899999737739563 0.139665961265564
v  -0.2893244922161102 0.5899999737739563 0.1960999667644501
v  -0.2893244922161102 0.5899999737739563 -0.1961000561714172
v  -0.1915774941444397 0.5899999737739563 -0.1396660208702087
v  0.05033048987388611 0.5899999737739563 -0.3922000527381897
v  0.05033048987388611 0.5899999737739563 -0.2793320417404175
v  -0.1915774941444397 0.5099999904632568 -0.1396660208702087
v  0.05033048987388611 0.5099999904632568 -0.2793320417404175
v  0.05033048987388611 0.5099999904632568 0.2793319821357727
v  -0.1915774941444397 0.5099999904632568 0.139665961265564
v  0.2922394871711731 0.5099999904632568 0.139665961265564
v  0.2922394871711731 0.5899999737739563 0.139665961265564
v  0.2922394871711731 0.5899999737739563 -0.1396660208702087
v  0.389986515045166 0.5899999737739563 -0.1961000561714172
v  0.2922394871711731 0.5099999904632568 -0.1396660208702087
v  0.3300415277481079 0.4048509895801544 -0.2307090163230896
v  0.3300415277481079 0.2648510038852692 -0.2307090163230896
v  0.389986515045166 0.2099999934434891 -0.1961000561714172
v  0.2087975144386292 0.2648510038852692 -0.3007090091705322
v  0.05033048987388611 0.2099999934434891 -0.3922000527381897
v  -0.2893244922161102 0.2099999934434891 -0.1961000561714172
v  0.05033048987388611 0 -0.5299999713897705
v  -0.4086624979972839 0 -0.26500004529953
v  -0.4086624979972839 0 0.2649999856948853
v  0.5093244910240173 0 -0.26500004529953
v  -0.2893244922161102 0.2099999934434891 0.1960999667644501
v  -0.2893244922161102 0.4998010098934174 0.1059009730815887
v  -0.2893244922161102 0.4998010098934174 -0.1059010028839111
v  -0.2893244922161102 0.3001990020275116 -0.1059010028839111
v  -0.2893244922161102 0.3001990020275116 0.1059009730815887
v  -0.3993242084980011 0.3221549987792969 0.08260297775268555
v  -0.3993242084980011 0.4778450131416321 0.08260297775268555
v  -0.3993242084980011 0.4778450131416321 -0.08260303735733032
v  -0.3993242084980011 0.3221549987792969 -0.08260303735733032
v  -0.5093244910240173 0.3221549987792969 0.08260297775268555
v  -0.5093244910240173 0.3221549987792969 -0.08260303735733032
v  -0.5093244910240173 0.4778450131416321 -0.08260303735733032
v  -0.5093244910240173 0.4778450131416321 0.08260297775268555
v  0.2087975144386292 0.4048509895801544 -0.3007090091705322
v  0.312590479850769 0.3831509947776794 -0.4370830059051514
v  0.3962485194206238 0.3831509947776794 -0.3887830376625061
v  0.3962485194206238 0.2865509986877441 -0.3887830376625061
v  0.312590479850769 0.2865509986877441 -0.4370830059051514

# 154 UV coordinates
vt 33.8031005859375 5.045360088348389 0
vt 15.6496000289917 -4.464089870452881 0
vt 36.51570129394531 -4.464089870452881 0
vt 18.3621997833252 5.045360088348389 0
vt 33.8031005859375 23.22830009460449 0
vt 18.3621997833252 8.267720222473145 0
vt 33.8031005859375 8.267720222473145 0
vt 18.3621997833252 23.22830009460449 0
vt 18.07060050964355 9.868829727172852 0
vt 18.07060050964355 5.42519998550415 0
vt 31.44289970397949 13.14570045471191 0
vt 8.546660423278809 15.36750030517578 0
vt 4.698359966278076 13.14570045471191 0
vt 4.698359966278076 28.58659934997559 0
vt 8.546660423278809 26.36479949951172 0
vt 18.07060050964355 36.30709838867188 0
vt 18.07060050964355 31.86350059509277 0
vt 20.58399963378906 20.07869911193848 0
vt 31.58130073547363 23.22830009460449 0
vt 20.58399963378906 23.22830009460449 0
vt 31.58130073547363 20.07869911193848 0
vt 26.36479949951172 20.07869911193848 0
vt 15.36750030517578 23.22830009460449 0
vt 15.36750030517578 20.07869911193848 0
vt 26.36479949951172 23.22830009460449 0
vt 0.2821199893951416 23.22830009460449 0
vt -10.71520042419434 20.07869911193848 0
vt 0.2821199893951416 20.07869911193848 0
vt -10.71520042419434 23.22830009460449 0
vt -20.58399963378906 23.22830009460449 0
vt -31.58130073547363 20.07869911193848 0
vt -20.58399963378906 20.07869911193848 0
vt -31.58130073547363 23.22830009460449 0
vt 27.59460067749023 15.36750030517578 0
vt 27.59460067749023 26.36479949951172 0
vt 31.44289970397949 28.58659934997559 0
vt -0.2821199893951416 20.07869911193848 0
vt 10.71520042419434 23.22830009460449 0
vt -0.2821199893951416 23.22830009460449 0
vt 10.71520042419434 20.07869911193848 0
vt -15.36750030517578 20.07869911193848 0
vt -26.36479949951172 23.22830009460449 0
vt -26.36479949951172 20.07869911193848 0
vt -15.36750030517578 23.22830009460449 0
vt -12.9370002746582 23.22830009460449 0
vt -10.21189975738525 15.93900012969971 0
vt 2.503940105438232 23.22830009460449 0
vt -10.21189975738525 10.42720031738281 0
vt -12.9370002746582 8.267720222473145 0
vt -4.700069904327393 10.42720031738281 0
vt 2.503940105438232 8.267720222473145 0
vt -33.8031005859375 8.267720222473145 0
vt -18.3621997833252 23.22830009460449 0
vt -33.8031005859375 23.22830009460449 0
vt -18.3621997833252 8.267720222473145 0
vt -36.51570129394531 -13.39229965209961 0
vt -18.3621997833252 -3.882830142974854 0
vt -33.8031005859375 -3.882830142974854 0
vt -15.6496000289917 -13.39229965209961 0
vt -18.07060050964355 41.7322998046875 0
vt 0 10.4330997467041 0
vt 0 31.2992000579834 0
vt -18.07060050964355 0 0
vt -36.14120101928711 31.2992000579834 0
vt 2.503940105438232 -12.81099987030029 0
vt -15.6496000289917 -22.32049942016602 0
vt 5.216539859771729 -22.32049942016602 0
vt -12.9370002746582 -12.81099987030029 0
vt 13.14570045471191 -8.346920013427734 0
vt 31.2992000579834 -17.85639953613281 0
vt 28.58659934997559 -8.346920013427734 0
vt 10.4330997467041 -17.85639953613281 0
vt -36.14120101928711 10.4330997467041 0
vt 28.58659934997559 8.267720222473145 0
vt 13.14570045471191 23.22830009460449 0
vt 13.14570045471191 8.267720222473145 0
vt 28.58659934997559 23.22830009460449 0
vt 12.9370002746582 13.97350025177002 0
vt -5.216539859771729 4.464089870452881 0
vt 15.6496000289917 4.464089870452881 0
vt -2.503940105438232 13.97350025177002 0
vt 12.9370002746582 23.22830009460449 0
vt -2.503940105438232 8.267720222473145 0
vt 12.9370002746582 8.267720222473145 0
vt -2.503940105438232 23.22830009460449 0
vt -13.14570045471191 23.22830009460449 0
vt -16.69680023193359 19.67720031738281 0
vt -13.14570045471191 8.267720222473145 0
vt -28.58659934997559 23.22830009460449 0
vt -25.03549957275391 19.67720031738281 0
vt -25.03549957275391 11.8189001083374 0
vt -28.58659934997559 8.267720222473145 0
vt -16.69680023193359 11.8189001083374 0
vt 1.136729955673218 19.67720031738281 0
vt -3.290050029754639 12.68330001831055 0
vt 1.136729955673218 11.8189001083374 0
vt -3.290050029754639 18.81279945373535 0
vt -16.69680023193359 8.459099769592285 0
vt -24.11820030212402 4.042960166931152 0
vt -17.61409950256348 4.042960166931152 0
vt -25.03549957275391 8.459099769592285 0
vt -9.783869743347168 19.67720031738281 0
vt -5.357089996337891 12.68330001831055 0
vt -5.357089996337891 18.81279945373535 0
vt -9.783869743347168 11.8189001083374 0
vt -25.03549957275391 -2.294039964675903 0
vt -17.61409950256348 2.122090101242065 0
vt -24.11820030212402 2.122090101242065 0
vt -16.69680023193359 -2.294039964675903 0
vt 3.963059902191162 17.61409950256348 0
vt -0.3676500022411346 24.11820030212402 0
vt -0.3676500022411346 17.61409950256348 0
vt 3.963059902191162 24.11820030212402 0
vt -17.61409950256348 12.68330001831055 0
vt -24.11820030212402 18.81279945373535 0
vt -24.11820030212402 12.68330001831055 0
vt -17.61409950256348 18.81279945373535 0
vt -3.963059902191162 12.68330001831055 0
vt 0.3676500022411346 18.81279945373535 0
vt -3.963059902191162 18.81279945373535 0
vt 0.3676500022411346 12.68330001831055 0
vt 0.3676500022411346 17.61409950256348 0
vt -3.963059902191162 24.11820030212402 0
vt -3.963059902191162 17.61409950256348 0
vt 0.3676500022411346 24.11820030212402 0
vt -0.3676500022411346 12.68330001831055 0
vt 3.963059902191162 18.81279945373535 0
vt -0.3676500022411346 18.81279945373535 0
vt 3.963059902191162 12.68330001831055 0
vt -31.2992000579834 -3.734230113009799e-17 0
vt -13.14570045471191 9.50944995880127 0
vt -28.58659934997559 9.50944995880127 0
vt -10.4330997467041 -1.244739979562755e-17 0
vt -4.700069904327393 15.93900012969971 0
vt -10.21189975738525 -38.13420104980469 0
vt -5.554399967193604 -44.88140106201172 0
vt -4.700069904327393 -38.13420104980469 0
vt -9.357549667358398 -44.88140106201172 0
vt 38.85929870605469 15.93900012969971 0
vt 45.60660171508789 11.2814998626709 0
vt 45.60660171508789 15.0846996307373 0
vt 38.85929870605469 10.42720031738281 0
vt -10.21189975738525 41.47269821166992 0
vt -5.554399967193604 48.21989822387695 0
vt -9.357549667358398 48.21989822387695 0
vt -4.700069904327393 41.47269821166992 0
vt -40.74750137329102 15.93900012969971 0
vt -47.49470138549805 11.2814998626709 0
vt -40.74750137329102 10.42720031738281 0
vt -47.49470138549805 15.0846996307373 0
vt -5.554399967193604 15.0846996307373 0
vt -9.357549667358398 11.2814998626709 0
vt -5.554399967193604 11.2814998626709 0
vt -9.357549667358398 15.0846996307373 0

# 31 vertex normals
vn 0.4347099959850311 0.4940719902515411 0.7529399991035461
vn 0.5 -2.255700073281608e-31 0.8660249710083008
vn 0 1 0
vn 0.5 0 0.8660249710083008
vn 1 0 0
vn 0.5 0 -0.8660249710083008
vn -0.5 0 -0.8660249710083008
vn -0.5 0 0.8660249710083008
vn -1 0 0
vn 0.5 -2.255700073281608e-31 -0.8660249710083008
vn -0.5 -1.374650018253188e-17 -0.8660249710083008
vn -0.4347099959850311 0.4940719902515411 -0.7529399991035461
vn 0 -1 0
vn 0.4347099959850311 0.4940719902515411 -0.7529399991035461
vn 0.8694210052490234 0.4940719902515411 8.118330207496575e-18
vn -0.4347099959850311 0.4940719902515411 0.7529399991035461
vn -0.2072049975395203 -9.725599833534834e-19 0.978298008441925
vn -0.1957409977912903 0.9806560277938843 3.676890201101806e-18
vn -0.2072049975395203 -9.725599833534834e-19 -0.978298008441925
vn -0.1957409977912903 -0.9806560277938843 -3.326190230002546e-18
vn 2.051549929499072e-16 -1 0
vn -1 -2.051549929499072e-16 -0
vn 0 0 1
vn -2.051549929499072e-16 1 0
vn 0 0 -1
vn -0.8694210052490234 0.4940719902515411 -2.099460081685633e-18
vn 0.06330980360507965 0.9919509887695312 -0.109655998647213
vn 0.9223650097846985 -1.731709891569154e-17 0.3863199949264526
vn 0.06330980360507965 -0.9919509887695312 -0.109655998647213
vn -0.7957450151443481 -4.99759020940253e-16 -0.6056320071220398
vn 0.5 -5.570119895484209e-16 -0.8660249710083008

# Mesh 'Mesh1 Group1 Model' with 11 faces
g Mesh1 Group1 Model
usemtl Wood
f  1/1/1 2/2/1 3/3/1
f  2/2/1 1/1/1 4/4/1
f  5/5/2 4/6/2 1/7/2
f  4/6/2 5/5/2 6/8/2
f  7/9/3 6/10/3 5/11/3
f  8/12/3 6/10/3 7/9/3
f  8/12/3 9/13/3 6/10/3
f  9/13/3 8/12/3 10/14/3
f  11/15/3 10/14/3 8/12/3
f  10/14/3 11/15/3 12/16/3
f  12/16/3 11/15/3 13/17/3

# Mesh 'Light_Wood' with 10 faces
g Light_Wood
usemtl Light_Wood
f  14/18/4 13/19/4 11/20/4
f  13/19/4 14/18/4 15/21/4
f  14/15/3 16/9/3 15/17/3
f  16/9/3 14/15/3 17/12/3
f  14/22/5 8/23/5 17/24/5
f  8/23/5 14/22/5 11/25/5
f  8/26/6 16/27/6 17/28/6
f  16/27/6 8/26/6 7/29/6
f  7/30/7 18/31/7 16/32/7
f  18/31/7 7/30/7 19/33/7

# Mesh 'Wood' with 5 faces
g Wood
usemtl Wood
f  7/9/3 5/11/3 19/34/3
f  19/34/3 5/11/3 20/35/3
f  21/36/3 20/35/3 5/11/3
f  12/16/3 20/35/3 21/36/3
f  12/16/3 13/17/3 20/35/3

# Mesh 'Light_Wood' with 6 faces
g Light_Wood
usemtl Light_Wood
f  15/37/8 20/38/8 13/39/8
f  20/38/8 15/37/8 22/40/8
f  15/17/3 18/34/3 22/35/3
f  15/17/3 16/9/3 18/34/3
f  18/41/9 20/42/9 22/43/9
f  20/42/9 18/41/9 19/44/9

# Mesh 'Wood' with 64 faces
g Wood
usemtl Wood
f  21/45/10 23/46/10 12/47/10
f  21/45/10 24/48/10 23/46/10
f  25/49/10 24/48/10 21/45/10
f  24/48/10 25/49/10 26/50/10
f  27/51/10 26/50/10 25/49/10
f  26/50/10 27/51/10 12/47/10
f  27/52/11 10/53/11 12/54/11
f  10/53/11 27/52/11 28/55/11
f  29/56/12 28/57/12 27/58/12
f  28/57/12 29/56/12 30/59/12
f  29/60/13 31/61/13 30/62/13
f  31/61/13 29/60/13 2/63/13
f  2/63/13 29/60/13 32/64/13
f  27/65/14 32/66/14 29/67/14
f  32/66/14 27/65/14 25/68/14
f  1/69/15 32/70/15 25/71/15
f  32/70/15 1/69/15 3/72/15
f  2/63/13 32/64/13 3/73/13
f  25/74/5 5/75/5 1/76/5
f  5/75/5 25/74/5 21/77/5
f  4/78/16 31/79/16 2/80/16
f  31/79/16 4/78/16 33/81/16
f  6/82/8 33/83/8 4/84/8
f  33/83/8 6/82/8 9/85/8
f  9/86/9 34/87/9 33/88/9
f  34/87/9 9/86/9 10/89/9
f  34/87/9 10/89/9 35/90/9
f  35/90/9 10/89/9 36/91/9
f  28/92/9 36/91/9 10/89/9
f  28/92/9 37/93/9 36/91/9
f  33/88/9 37/93/9 28/92/9
f  37/93/9 33/88/9 34/87/9
f  34/94/17 38/95/17 37/96/17
f  38/95/17 34/94/17 39/97/17
f  34/98/18 40/99/18 39/100/18
f  40/99/18 34/98/18 35/101/18
f  35/102/19 41/103/19 40/104/19
f  41/103/19 35/102/19 36/105/19
f  36/106/20 38/107/20 41/108/20
f  38/107/20 36/106/20 37/109/20
f  42/110/21 41/111/21 38/112/21
f  41/111/21 42/110/21 43/113/21
f  42/114/22 44/115/22 43/116/22
f  44/115/22 42/114/22 45/117/22
f  42/118/23 39/119/23 45/120/23
f  39/119/23 42/118/23 38/121/23
f  39/122/24 44/123/24 45/124/24
f  44/123/24 39/122/24 40/125/24
f  41/126/25 44/127/25 40/128/25
f  44/127/25 41/126/25 43/129/25
f  30/130/26 33/131/26 28/132/26
f  33/131/26 30/130/26 31/133/26
f  26/50/10 12/47/10 46/134/10
f  46/134/10 12/47/10 23/46/10
f  23/135/27 47/136/27 46/137/27
f  47/136/27 23/135/27 48/138/27
f  23/139/28 49/140/28 48/141/28
f  49/140/28 23/139/28 24/142/28
f  24/143/29 50/144/29 49/145/29
f  50/144/29 24/143/29 26/146/29
f  46/147/30 50/148/30 26/149/30
f  50/148/30 46/147/30 47/150/30
f  47/151/31 49/152/31 50/153/31
f  49/152/31 47/151/31 48/154/31

