# File produced by Open Asset Import Library (http://www.assimp.sf.net)
# (assimp v4.1.908865877)

mtllib naturePack_111.mtl

# 15 vertex positions
v  0.08097201585769653 0.3158999979496002 0.09126999974250793
v  -0.115168996155262 0 0.1300280094146729
v  0.1197310090065002 0 0.1300280094146729
v  -0.07641099393367767 0.3158999979496002 0.09126999974250793
v  0.08097201585769653 0.3158999979496002 -0.06611299514770508
v  -0.07641099393367767 0.3158999979496002 -0.06611299514770508
v  -0.115168996155262 0 -0.1048719882965088
v  0.1197310090065002 0 -0.1048719882965088
v  0 0.3158999979496002 -0.2511000037193298
v  -0.2174589931964874 0.3158999979496002 0.1255500018596649
v  -0.2174589931964874 0.3158999979496002 -0.1255500018596649
v  0 0.5669999718666077 0
v  0 0.3158999979496002 0.2511000037193298
v  0.2174589931964874 0.3158999979496002 0.1255500018596649
v  0.2174589931964874 0.3158999979496002 -0.1255500018596649

# 48 UV coordinates
vt 11.74930000305176 13.11069965362549 0
vt 4.02715015411377 0.5804719924926758 0
vt 13.27519989013672 0.5804719924926758 0
vt 5.553080081939697 13.11069965362549 0
vt -5.553080081939697 6.292520046234131 0
vt -11.74930000305176 12.4886999130249 0
vt -11.74930000305176 6.292520046234131 0
vt -5.553080081939697 12.4886999130249 0
vt -14.01459980010986 0.4904229938983917 0
vt -6.292520046234131 13.02070045471191 0
vt -12.4886999130249 13.02070045471191 0
vt -4.766600131988525 0.4904229938983917 0
vt -13.27519989013672 14.01459980010986 0
vt -4.02715015411377 4.766600131988525 0
vt -4.02715015411377 14.01459980010986 0
vt -13.27519989013672 4.766600131988525 0
vt 14.01459980010986 -1.616639971733093 0
vt 6.292520046234131 10.91359996795654 0
vt 4.766600131988525 -1.616639971733093 0
vt 12.4886999130249 10.91359996795654 0
vt -13.27519989013672 -1.706690073013306 0
vt -5.553080081939697 10.82359981536865 0
vt -11.74930000305176 10.82359981536865 0
vt -4.02715015411377 -1.706690073013306 0
vt -8.561380386352539 19.77169990539551 0
vt 0 4.942910194396973 0
vt 0 14.82870006561279 0
vt -14.82870006561279 9.401490211486816 0
vt -4.942910194396973 9.401490211486816 0
vt -9.885829925537109 22.47920036315918 0
vt 2.471460103988647 25.28160095214844 0
vt -2.471460103988647 12.20390033721924 0
vt 7.414370059967041 12.20390033721924 0
vt -8.561380386352539 0 0
vt -17.12280082702637 4.942910194396973 0
vt -17.12280082702637 14.82870006561279 0
vt -2.471460103988647 8.46737003326416 0
vt -7.414370059967041 -4.610350131988525 0
vt 2.471460103988647 -4.610350131988525 0
vt 14.82870006561279 -1.807980060577393 0
vt 9.885829925537109 11.269700050354 0
vt 4.942910194396973 -1.807980060577393 0
vt 12.3572998046875 19.67679977416992 0
vt 7.414370059967041 6.599130153656006 0
vt 17.30019950866699 6.599130153656006 0
vt -12.3572998046875 14.07209968566895 0
vt -17.30019950866699 0.9943889975547791 0
vt -7.414370059967041 0.9943889975547791 0

# 11 vertex normals
vn -2.297869743062922e-19 0.1217790022492409 0.9925569891929626
vn 0 -1 0
vn -0.9925569891929626 0.1217790022492409 -1.407449983608085e-18
vn 0.9925569891929626 0.1217790022492409 -1.407449983608085e-18
vn -2.297869743062922e-19 0.1217790022492409 -0.9925569891929626
vn -0.7559289932250977 0.6546540260314941 3.640599885113696e-17
vn -0.3779639899730682 0.6546540260314941 0.6546540260314941
vn 0.3779639899730682 0.6546540260314941 -0.6546540260314941
vn 0.7559289932250977 0.6546540260314941 2.605029976945899e-17
vn 0.3779639899730682 0.6546540260314941 0.6546540260314941
vn -0.3779639899730682 0.6546540260314941 -0.6546540260314941

# Mesh 'Mesh1 Mushroom_Red Model' with 2 faces
g Mesh1 Mushroom_Red Model
usemtl FrontColor
f  1/1/1 2/2/1 3/3/1
f  2/2/1 1/1/1 4/4/1

# Mesh 'Mushroom_Red' with 2 faces
g Mushroom_Red
usemtl Mushroom_Red
f  4/5/2 5/6/2 1/7/2
f  5/6/2 4/5/2 6/8/2

# Mesh 'FrontColor' with 8 faces
g FrontColor
usemtl FrontColor
f  7/9/3 4/10/3 6/11/3
f  4/10/3 7/9/3 2/12/3
f  8/13/2 2/14/2 7/15/2
f  2/14/2 8/13/2 3/16/2
f  8/17/4 1/18/4 3/19/4
f  1/18/4 8/17/4 5/20/4
f  8/21/5 6/22/5 5/23/5
f  6/22/5 8/21/5 7/24/5

# Mesh 'Mushroom_Red' with 16 faces
g Mushroom_Red
usemtl Mushroom_Red
f  6/8/2 9/25/2 5/6/2
f  10/26/2 9/25/2 6/8/2
f  9/25/2 10/26/2 11/27/2
f  11/28/6 10/29/6 12/30/6
f  12/31/7 10/32/7 13/33/7
f  10/26/2 4/5/2 13/34/2
f  4/5/2 10/26/2 6/8/2
f  13/34/2 4/5/2 1/7/2
f  13/34/2 1/7/2 14/35/2
f  14/35/2 1/7/2 15/36/2
f  5/6/2 15/36/2 1/7/2
f  5/6/2 9/25/2 15/36/2
f  12/37/8 15/38/8 9/39/8
f  15/40/9 12/41/9 14/42/9
f  12/43/10 13/44/10 14/45/10
f  12/46/11 9/47/11 11/48/11

