# File produced by Open Asset Import Library (http://www.assimp.sf.net)
# (assimp v4.1.908865877)

mtllib naturePack_103.mtl

# 6 vertex positions
v  0.5699999928474426 0 0.5699999928474426
v  -0.5699999928474426 1.665210112429995e-18 0.5699999928474426
v  0.5699999928474426 0 -0.5699999928474426
v  0.5699999928474426 2.200000047683716 0.5699999928474426
v  -0.2099999785423279 2.200000047683716 0.5699999928474426
v  0.5699999928474426 2.200000047683716 -0.2099999785423279

# 18 UV coordinates
vt -44.88190078735352 -0 0
vt 9.576330606838701e-35 -0 0
vt -44.88190078735352 44.88190078735352 0
vt 44.88190078735352 86.61419677734375 0
vt 0 6.555939720541719e-17 0
vt 44.88190078735352 6.869840158188779e-24 0
vt 14.17319965362549 86.61419677734375 0
vt 44.88190078735352 0 0
vt 44.88190078735352 30.70870018005371 0
vt 14.17319965362549 4.717999949055418e-11 0
vt -4.079639837756277e-12 86.61419677734375 0
vt 44.88190078735352 -2.601839967433794e-12 0
vt 30.70870018005371 86.61419677734375 0
vt -4.079639837756277e-12 -2.601839967433794e-12 0
vt 0 6.512489577325533e-17 0
vt -53.45059967041016 87.19210052490234 0
vt -63.47259902954102 -1.386000038697266e-12 0
vt -10.02200031280518 87.19210052490234 0

# 5 vertex normals
vn -1.460710075298843e-18 -1 2.986120238008357e-34
vn -4.899010342361565e-13 3.124399881610646e-13 1
vn 0 1 0
vn 1 5.797079938481275e-14 -9.089730107925825e-14
vn -0.7024199962615967 0.1149410009384155 -0.7024199962615967

# Mesh 'Mesh1 Grey_Cliff_Bottom_Corner Model' with 8 faces
g Mesh1 Grey_Cliff_Bottom_Corner Model
usemtl Stone
f  1/1/1 2/2/1 3/3/1
f  4/4/2 2/5/2 1/6/2
f  2/5/2 4/4/2 5/7/2
f  4/8/3 6/9/3 5/10/3
f  4/11/4 3/12/4 6/13/4
f  3/12/4 4/11/4 1/14/4
f  2/15/5 6/16/5 3/17/5
f  6/16/5 2/15/5 5/18/5

