# File produced by Open Asset Import Library (http://www.assimp.sf.net)
# (assimp v4.1.908865877)

mtllib naturePack_147.mtl

# 40 vertex positions
v  1.5 0 1.5
v  0.741300106048584 0.1500000059604645 1.5
v  -1.5 0 1.5
v  1.5 0.300000011920929 1.5
v  1.5 0.1500000059604645 0.7413020133972168
v  1.5 0 -1.5
v  -1.5 0 -1.5
v  -1.5 0.1500000059604645 0.7413020133972168
v  -1.5 0.300000011920929 0.7413020133972168
v  -1.5 0.300000011920929 1.5
v  -0.7413020133972168 0.1500000059604645 1.5
v  -0.6223520040512085 0.1500000059604645 1.128136038780212
v  -0.5637350082397461 0.1500000059604645 0.5179790258407593
v  0.741300106048584 0.1500000059604645 -1.5
v  -0.6109169721603394 0.1500000059604645 -0.9533700942993164
v  -0.7413020133972168 0.1500000059604645 -1.5
v  1.5 0.300000011920929 -1.5
v  0.741300106048584 0.300000011920929 -1.5
v  0.8745501041412354 0.1500000059604645 -0.9413700103759766
v  0.8745501041412354 0.300000011920929 -0.9413700103759766
v  1.5 0.300000011920929 -0.741300106048584
v  1.5 0.1500000059604645 -0.741300106048584
v  0.8991899490356445 0.1500000059604645 0.5491179823875427
v  0.741300106048584 0.1500000059604645 0.7989689707756042
v  0.8602499961853027 0.1500000059604645 1.128136038780212
v  0.741300106048584 0.300000011920929 0.7989689707756042
v  0.8602499961853027 0.300000011920929 1.128136038780212
v  0.741300106048584 0.300000011920929 1.5
v  0.8991899490356445 0.300000011920929 0.5491179823875427
v  1.5 0.300000011920929 0.7413020133972168
v  -1.5 0.300000011920929 -1.5
v  -1.5 0.1500000059604645 -0.741300106048584
v  -0.5637350082397461 0.300000011920929 0.5179790258407593
v  -0.7413020133972168 0.300000011920929 0.7989689707756042
v  -0.7413020133972168 0.300000011920929 1.5
v  -0.6223520040512085 0.300000011920929 1.128136038780212
v  -0.7413020133972168 0.1500000059604645 0.7989689707756042
v  -0.6109169721603394 0.300000011920929 -0.9533700942993164
v  -1.5 0.300000011920929 -0.741300106048584
v  -0.7413020133972168 0.300000011920929 -1.5

# 87 UV coordinates
vt 118.1100006103516 0 0
vt 88.24019622802734 5.905509948730469 0
vt 0 0 0
vt 118.1100006103516 11.81099987030029 0
vt 29.8700008392334 5.905509948730469 0
vt 0 11.81099987030029 0
vt -118.1100006103516 118.1100006103516 0
vt -118.1100006103516 0 0
vt 0 118.1100006103516 0
vt -29.8700008392334 5.905509948730469 0
vt -29.8700008392334 11.81099987030029 0
vt 88.24019622802734 1.85366989739234e-17 0
vt 34.5531005859375 14.64029979705811 0
vt 29.8700008392334 1.85366989739234e-17 0
vt 36.86080169677734 38.66230010986328 0
vt 88.24019622802734 118.1100006103516 0
vt 35.00329971313477 96.58940124511719 0
vt 29.8700008392334 118.1100006103516 0
vt -88.24019622802734 5.905509948730469 0
vt -118.1100006103516 -4.98089972045257e-11 0
vt -118.1100006103516 11.81099987030029 0
vt -88.24019622802734 11.81099987030029 0
vt -71.80359649658203 5.905509948730469 0
vt -94.41400146484375 11.81099987030029 0
vt -94.41400146484375 5.905509948730469 0
vt -71.80359649658203 11.81099987030029 0
vt 59.75799942016602 5.905509948730469 0
vt 85.61109924316406 11.81099987030029 0
vt 59.75799942016602 11.81099987030029 0
vt 85.61109924316406 5.905509948730469 0
vt 93.48619842529297 96.11679840087891 0
vt 94.45639801025391 37.43629837036133 0
vt 118.1100006103516 88.24019622802734 0
vt 88.24019622802734 27.59959983825684 0
vt 92.92330169677734 14.64029979705811 0
vt 17.81180000305176 5.905509948730469 0
vt 4.032259941101074 11.81099987030029 0
vt 4.032259941101074 5.905509948730469 0
vt 17.81180000305176 11.81099987030029 0
vt -26.88400077819824 5.905509948730469 0
vt -42.25500106811523 11.81099987030029 0
vt -42.25500106811523 5.905509948730469 0
vt -26.88400077819824 11.81099987030029 0
vt 88.24019622802734 11.81099987030029 0
vt 88.24019622802734 0 0
vt 118.1100006103516 29.8700008392334 0
vt 29.8700008392334 11.81099987030029 0
vt -103.3949966430664 5.905509948730469 0
vt -78.56009674072266 11.81099987030029 0
vt -103.3949966430664 11.81099987030029 0
vt -78.56009674072266 5.905509948730469 0
vt 118.1100006103516 118.1100006103516 0
vt -70.47010040283203 5.905509948730469 0
vt -82.106201171875 11.81099987030029 0
vt -82.106201171875 5.905509948730469 0
vt -70.47010040283203 11.81099987030029 0
vt -4.387370241415445e-12 -4.98089972045257e-11 0
vt -4.387370241415445e-12 11.81099987030029 0
vt 7.782229684695662e-17 29.8700008392334 0
vt -1.955409965892496e-11 88.24019622802734 0
vt -6.930339813232422 11.81099987030029 0
vt -44.82529830932617 5.905509948730469 0
vt -6.930339813232422 5.905509948730469 0
vt -44.82529830932617 11.81099987030029 0
vt 0 29.8700008392334 0
vt 29.8700008392334 27.59959983825684 0
vt 29.8700008392334 0 0
vt 24.47150039672852 5.905509948730469 0
vt 9.100429534912109 11.81099987030029 0
vt 9.100429534912109 5.905509948730469 0
vt 24.47150039672852 11.81099987030029 0
vt 15.80529975891113 5.905509948730469 0
vt 2.025759935379028 11.81099987030029 0
vt 2.025759935379028 5.905509948730469 0
vt 15.80529975891113 11.81099987030029 0
vt 52.37459945678711 5.905509948730469 0
vt 39.28820037841797 11.81099987030029 0
vt 39.28820037841797 5.905509948730469 0
vt 52.37459945678711 11.81099987030029 0
vt 56.45849990844727 11.81099987030029 0
vt 20.47319984436035 5.905509948730469 0
vt 56.45849990844727 5.905509948730469 0
vt 20.47319984436035 11.81099987030029 0
vt 85.83229827880859 11.81099987030029 0
vt 107.9570007324219 5.905509948730469 0
vt 107.9570007324219 11.81099987030029 0
vt 85.83229827880859 5.905509948730469 0

# 19 vertex normals
vn 0 0 1
vn 1 0 0
vn 0 -1 0
vn -1 0 0
vn -1.317790036536599e-17 1 3.138870217206238e-18
vn -3.714639950887569e-14 4.217169690713674e-13 -1
vn -0.972711980342865 -1.795059849653773e-17 0.232016995549202
vn -0.3046680092811584 -2.757659906068612e-30 0.9524589776992798
vn -0.9404770135879517 0 0.3398570120334625
vn -0.9524589776992798 0 -0.3046680092811584
vn 0 1 0
vn 0.3046680092811584 1.986899921138398e-30 -0.9524589776992798
vn -0.8453530073165894 -6.875110420463571e-18 -0.5342079997062683
vn -0.232016995549202 0 -0.972711980342865
vn 0.9524589776992798 0 0.3046680092811584
vn 0.9404770135879517 0 -0.3398570120334625
vn 0.8453530073165894 0 0.5342079997062683
vn 0.232016995549202 0 0.972711980342865
vn 0.972711980342865 0 -0.232016995549202

# Mesh 'Mesh1 Plate_River_Dirt Model' with 11 faces
g Mesh1 Plate_River_Dirt Model
usemtl Wood
f  1/1/1 2/2/1 3/3/1
f  2/2/1 1/1/1 4/4/1
f  1/3/2 5/5/2 4/6/2
f  5/5/2 1/3/2 6/1/2
f  3/3/3 6/7/3 1/8/3
f  6/7/3 3/3/3 7/9/3
f  3/3/4 8/10/4 7/8/4
f  3/3/4 9/11/4 8/10/4
f  9/11/4 3/3/4 10/6/4
f  3/3/1 11/5/1 10/6/1
f  11/5/1 3/3/1 2/2/1

# Mesh 'Water' with 5 faces
g Water
usemtl Water
f  2/12/5 12/13/5 11/14/5
f  12/13/5 2/12/5 13/15/5
f  14/16/5 13/15/5 2/12/5
f  14/16/5 15/17/5 13/15/5
f  15/17/5 14/16/5 16/18/5

# Mesh 'Wood' with 7 faces
g Wood
usemtl Wood
f  14/19/6 6/20/6 16/10/6
f  6/20/6 14/19/6 17/21/6
f  17/21/6 14/19/6 18/22/6
f  19/23/7 18/24/7 14/25/7
f  18/24/7 19/23/7 20/26/7
f  19/27/8 21/28/8 20/29/8
f  21/28/8 19/27/8 22/30/8

# Mesh 'Water' with 5 faces
g Water
usemtl Water
f  19/31/5 23/32/5 22/33/5
f  14/16/5 23/32/5 19/31/5
f  14/16/5 24/34/5 23/32/5
f  14/16/5 2/12/5 24/34/5
f  25/35/5 24/34/5 2/12/5

# Mesh 'Wood' with 5 faces
g Wood
usemtl Wood
f  25/36/9 26/37/9 24/38/9
f  26/37/9 25/36/9 27/39/9
f  2/40/10 27/41/10 25/42/10
f  27/41/10 2/40/10 28/43/10
f  2/2/1 4/4/1 28/44/1

# Mesh 'Leafs' with 3 faces
g Leafs
usemtl Leafs
f  4/1/11 27/35/11 28/45/11
f  27/35/11 4/1/11 29/32/11
f  29/32/11 4/1/11 30/46/11

# Mesh 'Wood' with 3 faces
g Wood
usemtl Wood
f  30/47/2 4/6/2 5/5/2
f  5/48/12 29/49/12 30/50/12
f  29/49/12 5/48/12 23/51/12

# Mesh 'Water' with 1 faces
g Water
usemtl Water
f  22/33/5 23/32/5 5/46/5

# Mesh 'Wood' with 3 faces
g Wood
usemtl Wood
f  5/5/2 6/1/2 22/2/2
f  22/2/2 6/1/2 21/44/2
f  21/44/2 6/1/2 17/4/2

# Mesh 'Leafs' with 2 faces
g Leafs
usemtl Leafs
f  17/52/11 20/31/11 21/33/11
f  20/31/11 17/52/11 18/16/11

# Mesh 'Wood' with 2 faces
g Wood
usemtl Wood
f  24/53/13 29/54/13 23/55/13
f  29/54/13 24/53/13 26/56/13

# Mesh 'Leafs' with 1 faces
g Leafs
usemtl Leafs
f  29/32/11 26/34/11 27/35/11

# Mesh 'Wood' with 4 faces
g Wood
usemtl Wood
f  7/57/6 16/10/6 6/20/6
f  16/10/6 7/57/6 31/58/6
f  7/8/4 32/19/4 31/21/4
f  7/8/4 8/10/4 32/19/4

# Mesh 'Water' with 2 faces
g Water
usemtl Water
f  8/59/5 15/17/5 32/60/5
f  15/17/5 8/59/5 13/15/5

# Mesh 'Wood' with 2 faces
g Wood
usemtl Wood
f  9/61/14 13/62/14 8/63/14
f  13/62/14 9/61/14 33/64/14

# Mesh 'Leafs' with 3 faces
g Leafs
usemtl Leafs
f  9/65/11 34/66/11 33/15/11
f  9/65/11 35/67/11 34/66/11
f  35/67/11 9/65/11 10/3/11

# Mesh 'Wood' with 7 faces
g Wood
usemtl Wood
f  10/6/1 11/5/1 35/47/1
f  12/68/15 35/69/15 11/70/15
f  35/69/15 12/68/15 36/71/15
f  37/72/16 36/73/16 12/74/16
f  36/73/16 37/72/16 34/75/16
f  13/76/17 34/77/17 37/78/17
f  34/77/17 13/76/17 33/79/17

# Mesh 'Water' with 1 faces
g Water
usemtl Water
f  13/15/5 37/66/5 12/13/5

# Mesh 'Leafs' with 1 faces
g Leafs
usemtl Leafs
f  36/13/11 34/66/11 35/67/11

# Mesh 'Wood' with 2 faces
g Wood
usemtl Wood
f  38/80/18 32/81/18 15/82/18
f  32/81/18 38/80/18 39/83/18

# Mesh 'Leafs' with 2 faces
g Leafs
usemtl Leafs
f  38/17/11 31/9/11 39/60/11
f  31/9/11 38/17/11 40/18/11

# Mesh 'Wood' with 4 faces
g Wood
usemtl Wood
f  38/84/19 16/85/19 40/86/19
f  16/85/19 38/84/19 15/87/19
f  16/10/6 31/58/6 40/11/6
f  31/21/4 32/19/4 39/22/4

