# File produced by Open Asset Import Library (http://www.assimp.sf.net)
# (assimp v4.1.908865877)

mtllib Club_red_01.mtl

# 32 vertex positions
v  -1.375419020652771 0 -0.07818552851676941
v  -1.375419020652771 0 0.01775848865509033
v  -1.375419020652771 0.09594400227069855 0.01775848865509033
v  -1.375419020652771 0.09594400227069855 -0.07818552851676941
v  -0.2625011205673218 0.08377199620008469 0.005586475133895874
v  -0.2625011205673218 0.08377199620008469 -0.06601351499557495
v  -0.2625011205673218 0.06587199866771698 -0.01231351494789124
v  -0.2625011205673218 0.03007199987769127 -0.01231351494789124
v  -0.2625011205673218 0.06587199866771698 -0.04811352491378784
v  0.9816190004348755 0.06587199866771698 -0.01231351494789124
v  0.9816190004348755 0.06587199866771698 -0.04811352491378784
v  0.9816190004348755 0.08377199620008469 -0.08391350507736206
v  0.9816190004348755 0.08377199620008469 0.02348648011684418
v  0.9816190004348755 0.01217199955135584 0.02348648011684418
v  0.9816190004348755 0.03007199987769127 -0.01231351494789124
v  0.9816190004348755 0.01217199955135584 -0.08391350507736206
v  0.9816190004348755 0.03007199987769127 -0.04811352491378784
v  1.160618901252747 0.01217199955135584 -0.08391350507736206
v  1.160618901252747 0.08377199620008469 -0.08391350507736206
v  1.160618901252747 0.08377199620008469 0.02348648011684418
v  1.232218861579895 0.08377199620008469 0.2561864852905273
v  1.375419020652771 0.08377199620008469 0.2561864852905273
v  1.250119090080261 0.08377199620008469 -0.2561864852905273
v  1.106918931007385 0.08377199620008469 -0.2561864852905273
v  1.250119090080261 0.01217199955135584 -0.2561864852905273
v  1.106918931007385 0.01217199955135584 -0.2561864852905273
v  1.375419020652771 0.01217199955135584 0.2561864852905273
v  1.232218861579895 0.01217199955135584 0.2561864852905273
v  1.160618901252747 0.01217199955135584 0.02348648011684418
v  -0.2625011205673218 0.03007199987769127 -0.04811352491378784
v  -0.2625011205673218 0.01217199955135584 0.005586475133895874
v  -0.2625011205673218 0.01217199955135584 -0.06601351499557495

# 190 UV coordinates
vt -0.111456997692585 -0.004057330079376698 0
vt -0.079475998878479 -0.004057330079376698 0
vt -0.079475998878479 0.02792399935424328 0
vt -0.111456997692585 0.02792399935424328 0
vt -13.16429996490479 3.298110008239746 0
vt -9.386930465698242 3.298110008239746 0
vt -9.386930465698242 -0.4792129993438721 0
vt -13.16429996490479 -0.4792129993438721 0
vt 0.08353330194950104 -0.5694980025291443 0
vt 0.1074000000953674 -0.5694980025291443 0
vt 0.111456997692585 -0.1985030025243759 0
vt 0.079475998878479 -0.1985030025243759 0
vt 0.08353330194950104 0.02386670000851154 0
vt 0.08950000256299973 0.01789999939501286 0
vt 0.1074000000953674 0.02386670000851154 0
vt 0.08950000256299973 0.005966669879853725 0
vt 12.6850004196167 2.818900108337402 0
vt 10.57089996337891 2.114170074462891 0
vt 9.866140365600586 2.818900108337402 0
vt 0.1014330014586449 0.01789999939501286 0
vt 11.980299949646 2.114170074462891 0
vt 0.5697929859161377 0.1014330014586449 0
vt 0.5697929859161377 0.08950000256299973 0
vt 0.984499990940094 0.08950000256299973 0
vt 0.984499990940094 0.1014330014586449 0
vt 116.2799987792969 11.980299949646 0
vt 116.2799987792969 10.57089996337891 0
vt 67.29840087890625 10.57089996337891 0
vt 67.29840087890625 11.980299949646 0
vt -0.08950000256299973 0.01789999939501286 0
vt -0.11336699873209 0.02386670000851154 0
vt -0.1014330014586449 0.01789999939501286 0
vt -0.07756669819355011 0.02386670000851154 0
vt -0.07756669819355011 3.850189955810317e-15 0
vt -9.161419868469238 4.547469985207581e-13 0
vt -10.57089996337891 2.114170074462891 0
vt -9.161419868469238 2.818900108337402 0
vt -0.08950000256299973 0.005966669879853725 0
vt -0.11336699873209 3.850189955810317e-15 0
vt -13.38980007171631 4.547469985207581e-13 0
vt -10.57089996337891 0.7047240138053894 0
vt -0.1014330014586449 0.005966669879853725 0
vt -11.980299949646 0.7047240138053894 0
vt 0.1014330014586449 0.005966669879853725 0
vt 11.980299949646 0.7047240138053894 0
vt 10.57089996337891 0.7047240138053894 0
vt -11.980299949646 2.114170074462891 0
vt -13.38980007171631 2.818900108337402 0
vt -1.044170022010803 0 0
vt -0.984499990940094 3.850189955810317e-15 0
vt -0.984499990940094 0.02386670000851154 0
vt -1.044170022010803 0.02386670000851154 0
vt -123.3270034790039 2.818900108337402 0
vt -116.2799987792969 2.818900108337402 0
vt -116.2799987792969 4.547469985207581e-13 0
vt -123.3270034790039 0 0
vt 1.044170022010803 0.11336699873209 0
vt 0.984499990940094 0.11336699873209 0
vt 0.984499990940094 0.07756669819355011 0
vt 1.044170022010803 0.07756669819355011 0
vt 1.068029999732971 0 0
vt 1.115769982337952 0 0
vt 1.074000000953674 0.1707910001277924 0
vt 1.026270031929016 0.1707910001277924 0
vt 123.3270034790039 13.38980007171631 0
vt 121.2129974365234 20.17219924926758 0
vt 126.8499984741211 20.17219924926758 0
vt 131.7830047607422 0 0
vt 126.1460037231445 0 0
vt 123.3270034790039 9.161419868469238 0
vt 116.2799987792969 9.161419868469238 0
vt 116.2799987792969 13.38980007171631 0
vt -1.074000000953674 1.925100060102842e-15 0
vt -1.026270031929016 0 0
vt -1.026270031929016 0.02386670000851154 0
vt -1.074000000953674 0.02386670000851154 0
vt -126.8499984741211 2.818900108337402 0
vt -121.2129974365234 2.818900108337402 0
vt -121.2129974365234 0 0
vt -126.8499984741211 2.273740007038838e-13 0
vt 0.1423549950122833 6.023870115127818e-29 0
vt 0.2025050073862076 6.023870115127818e-29 0
vt 0.2025050073862076 0.02386670000851154 0
vt 0.1423549950122833 0.02386670000851154 0
vt 16.81360054016113 2.818900108337402 0
vt 23.91790008544922 2.818900108337402 0
vt 23.91790008544922 7.11481045989817e-27 0
vt 16.81360054016113 7.11481045989817e-27 0
vt -0.984499990940094 0.07756669819355011 0
vt -0.984499990940094 0.11336699873209 0
vt -1.044170022010803 0.11336699873209 0
vt -1.026270031929016 0.1707910001277924 0
vt -1.074000000953674 0.1707910001277924 0
vt -1.115769982337952 0 0
vt -1.068029999732971 0 0
vt -1.044170022010803 0.07756669819355011 0
vt -116.2799987792969 13.38980007171631 0
vt -116.2799987792969 9.161419868469238 0
vt -123.3270034790039 9.161419868469238 0
vt -126.1460037231445 0 0
vt -131.7830047607422 0 0
vt -126.8499984741211 20.17219924926758 0
vt -121.2129974365234 20.17219924926758 0
vt -123.3270034790039 13.38980007171631 0
vt 0.984499990940094 3.850189955810317e-15 0
vt 1.044170022010803 0 0
vt 1.044170022010803 0.02386670000851154 0
vt 0.984499990940094 0.02386670000851154 0
vt 116.2799987792969 2.818900108337402 0
vt 123.3270034790039 2.818900108337402 0
vt 123.3270034790039 0 0
vt 116.2799987792969 4.547469985207581e-13 0
vt 0.2329380065202713 2.386650153367166e-29 0
vt 0.3140929937362671 3.850189955810317e-15 0
vt 0.3140929937362671 0.02386670000851154 0
vt 0.2329380065202713 0.02386670000851154 0
vt 27.51239967346191 2.818900108337402 0
vt 37.09769821166992 2.818900108337402 0
vt 37.09769821166992 4.547469985207581e-13 0
vt 27.51239967346191 2.818880237161584e-27 0
vt 1.068029999732971 3.850189955810317e-15 0
vt 1.115769982337952 0.02386670000851154 0
vt 1.068029999732971 0.02386670000851154 0
vt 126.1460037231445 2.818900108337402 0
vt 131.7830047607422 2.818900108337402 0
vt 126.1460037231445 4.547469985207581e-13 0
vt -0.265049010515213 2.534009824259694e-29 0
vt -0.08922470360994339 1.925100060102842e-15 0
vt -0.08922470360994339 0.02386670000851154 0
vt -0.265049010515213 0.02386670000851154 0
vt -31.30489921569824 2.818900108337402 0
vt -10.53829956054688 2.818900108337402 0
vt -10.53829956054688 2.273740007038838e-13 0
vt -31.30489921569824 2.992919978074047e-27 0
vt -0.5697929859161377 0.005966669879853725 0
vt -0.5697929859161377 0.01789999939501286 0
vt -0.984499990940094 0.01789999939501286 0
vt -0.984499990940094 0.005966669879853725 0
vt 0.984499990940094 0.005966669879853725 0
vt 0.984499990940094 0.01789999939501286 0
vt 0.5697929859161377 0.01789999939501286 0
vt 0.5697929859161377 0.005966669879853725 0
vt 67.29840087890625 0.7047240138053894 0
vt 67.29840087890625 2.114170074462891 0
vt 116.2799987792969 2.114170074462891 0
vt 116.2799987792969 0.7047240138053894 0
vt 0.08353330194950104 4.805019704063988e-15 0
vt 0.1074000000953674 4.805019704063988e-15 0
vt 9.866140365600586 5.675219951102595e-13 0
vt 12.6850004196167 5.675219951102595e-13 0
vt 0.079475998878479 0.1987639963626862 0
vt 0.111456997692585 0.1987639963626862 0
vt 0.1074000000953674 0.5697590112686157 0
vt 0.08353330194950104 0.5697590112686157 0
vt 9.866140365600586 67.29440307617188 0
vt 12.6850004196167 67.29440307617188 0
vt 13.16429996490479 23.47610092163086 0
vt 9.386930465698242 23.47610092163086 0
vt -0.5685849785804749 0.02386670000851154 0
vt -0.5685849785804749 5.763760203435133e-15 0
vt -0.1975899934768677 -0.004057330079376698 0
vt -0.1975899934768677 0.02792399935424328 0
vt -116.2799987792969 0.7047240138053894 0
vt -116.2799987792969 2.114170074462891 0
vt -67.29840087890625 2.114170074462891 0
vt -67.29840087890625 0.7047240138053894 0
vt -0.5697929859161377 0.08950000256299973 0
vt -0.5697929859161377 0.1014330014586449 0
vt -0.984499990940094 0.1014330014586449 0
vt -0.984499990940094 0.08950000256299973 0
vt -116.2799987792969 10.57089996337891 0
vt -116.2799987792969 11.980299949646 0
vt -67.29840087890625 11.980299949646 0
vt -67.29840087890625 10.57089996337891 0
vt -23.33740043640137 3.298110008239746 0
vt -23.33740043640137 -0.4792129993438721 0
vt -67.15570068359375 6.807589973505113e-13 0
vt -67.15570068359375 2.818900108337402 0
vt 9.386930465698242 -23.44529914855957 0
vt 13.16429996490479 -23.44529914855957 0
vt 12.6850004196167 -67.26360321044922 0
vt 9.866140365600586 -67.26360321044922 0
vt 0.5706729888916016 0.02386670000851154 0
vt 0.1996780037879944 0.02792399935424328 0
vt 0.1996780037879944 -0.004057330079376698 0
vt 0.5706729888916016 5.783599832642197e-15 0
vt 67.40229797363281 6.831019582452524e-13 0
vt 23.58399963378906 -0.4792129993438721 0
vt 23.58399963378906 3.298110008239746 0
vt 67.40229797363281 2.818900108337402 0

# 30 vertex normals
vn -1 2.398210101033495e-15 -9.334413408468331e-40
vn 1 -2.398210101033495e-15 9.334413408468331e-40
vn 0.01093639992177486 0.9999399781227112 4.331940318446837e-18
vn 1 1.702849943808983e-15 -1.198700133651199e-39
vn -1 -1.702849943808983e-15 1.198700133651199e-39
vn 2.691309970563084e-15 1 0
vn -2.691309970563084e-15 -1 0
vn -1 7.01405028299495e-29 0
vn 1 -7.01405028299495e-29 0
vn 0 0 -1
vn 0 0 1
vn 7.01405028299495e-29 1 0
vn -7.01405028299495e-29 -1 0
vn -0.9546930193901062 5.845039695701064e-29 0.2975920140743256
vn 0.9546930193901062 -5.845039695701064e-29 -0.2975920140743256
vn -0.9557790160179138 2.338020121344834e-29 0.2940860092639923
vn 0.9557790160179138 -2.338020121344834e-29 -0.2940860092639923
vn 0.9713760018348694 -2.338020121344834e-29 -0.2375479936599731
vn -0.9713760018348694 2.338020121344834e-29 0.2375479936599731
vn 1 -2.96630006392214e-15 0
vn -1 2.96630006392214e-15 0
vn 0.01093639992177486 -0.9999399781227112 4.331940318446837e-18
vn -0.01093639992177486 0.9999399781227112 -4.331940318446837e-18
vn 0.01093639992177486 1.014809990898431e-16 -0.9999399781227112
vn 1.60809999129617e-15 -1 0
vn -1.60809999129617e-15 1 0
vn -0.01093639992177486 -1.014809990898431e-16 0.9999399781227112
vn -0.01093639992177486 -0.9999399781227112 -4.331940318446837e-18
vn 0.01093639992177486 1.074830083796381e-16 0.9999399781227112
vn -0.01093639992177486 -1.074830083796381e-16 -0.9999399781227112

# Mesh 'Mesh1 Club_red Model' with 2 faces
g Mesh1 Club_red Model
usemtl Red
f  1/1/1 2/2/1 3/3/1
f  1/1/1 3/3/1 4/4/1

# Mesh 'BackColor' with 2 faces
g BackColor
usemtl BackColor
f  4/5/2 3/6/2 2/7/2
f  4/5/2 2/7/2 1/8/2

# Mesh 'Red' with 4 faces
g Red
usemtl Red
f  5/9/3 6/10/3 4/11/3
f  5/9/3 4/11/3 3/12/3
f  5/13/4 7/14/4 6/15/4
f  7/14/4 5/13/4 8/16/4

# Mesh 'BackColor' with 1 faces
g BackColor
usemtl BackColor
f  6/17/5 7/18/5 5/19/5

# Mesh 'Red' with 1 faces
g Red
usemtl Red
f  6/15/4 7/14/4 9/20/4

# Mesh 'BackColor' with 1 faces
g BackColor
usemtl BackColor
f  9/21/5 7/18/5 6/17/5

# Mesh 'Grey' with 2 faces
g Grey
usemtl Grey
f  9/22/6 7/23/6 10/24/6
f  9/22/6 10/24/6 11/25/6

# Mesh 'BackColor' with 2 faces
g BackColor
usemtl BackColor
f  11/26/7 10/27/7 7/28/7
f  11/26/7 7/28/7 9/29/7

# Mesh 'Dark_grey' with 3 faces
g Dark_grey
usemtl Dark_grey
f  10/30/8 12/31/8 11/32/8
f  10/30/8 13/33/8 12/31/8
f  13/33/8 10/30/8 14/34/8

# Mesh 'BackColor' with 1 faces
g BackColor
usemtl BackColor
f  14/35/9 10/36/9 13/37/9

# Mesh 'Dark_grey' with 2 faces
g Dark_grey
usemtl Dark_grey
f  15/38/8 14/34/8 10/30/8
f  14/34/8 15/38/8 16/39/8

# Mesh 'BackColor' with 1 faces
g BackColor
usemtl BackColor
f  16/40/9 15/41/9 14/35/9

# Mesh 'Dark_grey' with 1 faces
g Dark_grey
usemtl Dark_grey
f  16/39/8 15/38/8 17/42/8

# Mesh 'BackColor' with 1 faces
g BackColor
usemtl BackColor
f  17/43/9 15/41/9 16/40/9

# Mesh 'Red' with 2 faces
g Red
usemtl Red
f  10/14/9 15/16/9 17/44/9
f  10/14/9 17/44/9 11/20/9

# Mesh 'BackColor' with 3 faces
g BackColor
usemtl BackColor
f  10/36/9 14/35/9 15/41/9
f  11/21/8 17/45/8 15/46/8
f  11/21/8 15/46/8 10/18/8

# Mesh 'Dark_grey' with 1 faces
g Dark_grey
usemtl Dark_grey
f  11/32/8 12/31/8 17/42/8

# Mesh 'BackColor' with 2 faces
g BackColor
usemtl BackColor
f  11/47/9 12/48/9 10/36/9
f  17/43/9 12/48/9 11/47/9

# Mesh 'Dark_grey' with 1 faces
g Dark_grey
usemtl Dark_grey
f  16/39/8 17/42/8 12/31/8

# Mesh 'BackColor' with 1 faces
g BackColor
usemtl BackColor
f  12/48/9 17/43/9 16/40/9

# Mesh 'Dark_grey' with 2 faces
g Dark_grey
usemtl Dark_grey
f  18/49/10 16/50/10 12/51/10
f  18/49/10 12/51/10 19/52/10

# Mesh 'BackColor' with 2 faces
g BackColor
usemtl BackColor
f  19/53/11 12/54/11 16/55/11
f  19/53/11 16/55/11 18/56/11

# Mesh 'Dark_grey' with 6 faces
g Dark_grey
usemtl Dark_grey
f  19/57/12 12/58/12 13/59/12
f  19/57/12 13/59/12 20/60/12
f  19/57/12 20/60/12 21/61/12
f  19/57/12 21/61/12 22/62/12
f  19/57/12 22/62/12 23/63/12
f  19/57/12 23/63/12 24/64/12

# Mesh 'BackColor' with 6 faces
g BackColor
usemtl BackColor
f  19/65/13 24/66/13 23/67/13
f  19/65/13 23/67/13 22/68/13
f  19/65/13 22/68/13 21/69/13
f  19/65/13 21/69/13 20/70/13
f  19/65/13 20/70/13 13/71/13
f  13/71/13 12/72/13 19/65/13

# Mesh 'Dark_grey' with 2 faces
g Dark_grey
usemtl Dark_grey
f  25/73/10 26/74/10 24/75/10
f  25/73/10 24/75/10 23/76/10

# Mesh 'BackColor' with 2 faces
g BackColor
usemtl BackColor
f  23/77/11 24/78/11 26/79/11
f  23/77/11 26/79/11 25/80/11

# Mesh 'Dark_grey' with 2 faces
g Dark_grey
usemtl Dark_grey
f  26/81/14 18/82/14 19/83/14
f  26/81/14 19/83/14 24/84/14

# Mesh 'BackColor' with 2 faces
g BackColor
usemtl BackColor
f  24/85/15 19/86/15 18/87/15
f  24/85/15 18/87/15 26/88/15

# Mesh 'Dark_grey' with 6 faces
g Dark_grey
usemtl Dark_grey
f  14/89/13 16/90/13 18/91/13
f  18/91/13 26/92/13 25/93/13
f  18/91/13 25/93/13 27/94/13
f  18/91/13 27/94/13 28/95/13
f  18/91/13 28/95/13 29/96/13
f  18/91/13 29/96/13 14/89/13

# Mesh 'BackColor' with 6 faces
g BackColor
usemtl BackColor
f  16/97/12 14/98/12 29/99/12
f  29/99/12 28/100/12 27/101/12
f  29/99/12 27/101/12 25/102/12
f  25/102/12 26/103/12 18/104/12
f  18/104/12 16/97/12 29/99/12
f  29/99/12 25/102/12 18/104/12

# Mesh 'Dark_grey' with 2 faces
g Dark_grey
usemtl Dark_grey
f  14/105/11 29/106/11 20/107/11
f  14/105/11 20/107/11 13/108/11

# Mesh 'BackColor' with 2 faces
g BackColor
usemtl BackColor
f  13/109/10 20/110/10 29/111/10
f  13/109/10 29/111/10 14/112/10

# Mesh 'Dark_grey' with 2 faces
g Dark_grey
usemtl Dark_grey
f  29/113/16 28/114/16 21/115/16
f  29/113/16 21/115/16 20/116/16

# Mesh 'BackColor' with 2 faces
g BackColor
usemtl BackColor
f  20/117/17 21/118/17 28/119/17
f  20/117/17 28/119/17 29/120/17

# Mesh 'Dark_grey' with 2 faces
g Dark_grey
usemtl Dark_grey
f  28/121/11 27/62/11 22/122/11
f  28/121/11 22/122/11 21/123/11

# Mesh 'BackColor' with 2 faces
g BackColor
usemtl BackColor
f  21/124/10 22/125/10 27/68/10
f  21/124/10 27/68/10 28/126/10

# Mesh 'Dark_grey' with 2 faces
g Dark_grey
usemtl Dark_grey
f  27/127/18 25/128/18 23/129/18
f  27/127/18 23/129/18 22/130/18

# Mesh 'BackColor' with 3 faces
g BackColor
usemtl BackColor
f  22/131/19 23/132/19 25/133/19
f  22/131/19 25/133/19 27/134/19
f  12/48/9 13/37/9 10/36/9

# Mesh 'Grey' with 2 faces
g Grey
usemtl Grey
f  30/135/10 9/136/10 11/137/10
f  30/135/10 11/137/10 17/138/10

# Mesh 'Red' with 2 faces
g Red
usemtl Red
f  30/44/20 9/20/20 7/14/20
f  30/44/20 7/14/20 8/16/20

# Mesh 'BackColor' with 2 faces
g BackColor
usemtl BackColor
f  8/46/21 7/18/21 9/21/21
f  8/46/21 9/21/21 30/45/21

# Mesh 'Grey' with 2 faces
g Grey
usemtl Grey
f  15/139/11 10/140/11 7/141/11
f  15/139/11 7/141/11 8/142/11

# Mesh 'BackColor' with 3 faces
g BackColor
usemtl BackColor
f  8/143/10 7/144/10 10/145/10
f  8/143/10 10/145/10 15/146/10
f  8/46/5 5/19/5 7/18/5

# Mesh 'Red' with 2 faces
g Red
usemtl Red
f  31/147/4 8/16/4 5/13/4
f  8/16/4 31/147/4 32/148/4

# Mesh 'BackColor' with 2 faces
g BackColor
usemtl BackColor
f  5/19/5 8/46/5 31/149/5
f  32/150/5 31/149/5 8/46/5

# Mesh 'Red' with 2 faces
g Red
usemtl Red
f  2/151/22 1/152/22 32/153/22
f  2/151/22 32/153/22 31/154/22

# Mesh 'BackColor' with 2 faces
g BackColor
usemtl BackColor
f  31/155/23 32/156/23 1/157/23
f  31/155/23 1/157/23 2/158/23

# Mesh 'Red' with 3 faces
g Red
usemtl Red
f  6/159/24 32/160/24 1/161/24
f  6/159/24 1/161/24 4/162/24
f  6/15/4 9/20/4 32/148/4

# Mesh 'BackColor' with 1 faces
g BackColor
usemtl BackColor
f  32/150/5 9/21/5 6/17/5

# Mesh 'Red' with 2 faces
g Red
usemtl Red
f  30/44/4 32/148/4 9/20/4
f  8/16/4 32/148/4 30/44/4

# Mesh 'BackColor' with 4 faces
g BackColor
usemtl BackColor
f  30/45/5 32/150/5 8/46/5
f  9/21/5 32/150/5 30/45/5
f  17/163/11 11/164/11 9/165/11
f  17/163/11 9/165/11 30/166/11

# Mesh 'Grey' with 2 faces
g Grey
usemtl Grey
f  8/167/25 30/168/25 17/169/25
f  8/167/25 17/169/25 15/170/25

# Mesh 'BackColor' with 6 faces
g BackColor
usemtl BackColor
f  15/171/26 17/172/26 30/173/26
f  15/171/26 30/173/26 8/174/26
f  4/175/27 1/176/27 32/177/27
f  4/175/27 32/177/27 6/178/27
f  3/179/28 4/180/28 6/181/28
f  3/179/28 6/181/28 5/182/28

# Mesh 'Red' with 2 faces
g Red
usemtl Red
f  5/183/29 3/184/29 2/185/29
f  5/183/29 2/185/29 31/186/29

# Mesh 'BackColor' with 2 faces
g BackColor
usemtl BackColor
f  31/187/30 2/188/30 3/189/30
f  31/187/30 3/189/30 5/190/30

