# Blender v2.78 (sub 0) OBJ File: ''
# www.blender.org
mtllib Club_red_01.mtl
o Mesh1_Club_red_Model
v 0.596462 -0.012172 -0.334372
v 0.596462 -0.012172 -0.238428
v 0.596462 0.083772 -0.238428
v 0.596462 0.083772 -0.334372
v 1.709380 0.071600 -0.250600
v 1.709380 0.071600 -0.322200
v 1.709380 0.053700 -0.268500
v 1.709380 0.017900 -0.268500
v 1.709380 0.053700 -0.304300
v 2.953500 0.053700 -0.268500
v 2.953500 0.053700 -0.304300
v 2.953500 0.071600 -0.340100
v 2.953500 0.071600 -0.232700
v 2.953500 0.000000 -0.232700
v 2.953500 0.017900 -0.268500
v 2.953500 0.000000 -0.340100
v 2.953500 0.017900 -0.304300
v 3.132500 0.000000 -0.340100
v 3.132500 0.071600 -0.340100
v 3.132500 0.071600 -0.232700
v 3.204100 0.071600 0.000000
v 3.347300 0.071600 0.000000
v 3.222000 0.071600 -0.512373
v 3.078800 0.071600 -0.512373
v 3.222000 0.000000 -0.512373
v 3.078800 0.000000 -0.512373
v 3.347300 0.000000 0.000000
v 3.204100 0.000000 0.000000
v 3.132500 0.000000 -0.232700
v 1.709380 0.017900 -0.304300
v 1.709380 0.000000 -0.250600
v 1.709380 0.000000 -0.322200
vt -0.1115 -0.0041
vt -0.0795 -0.0041
vt -0.0795 0.0279
vt -0.1115 0.0279
vt 0.0835 -0.5695
vt 0.1074 -0.5695
vt 0.1115 -0.1985
vt 0.0795 -0.1985
vt 0.0835 0.0239
vt 0.0895 0.0179
vt 0.1074 0.0239
vt 0.0895 0.0060
vt 0.1014 0.0179
vt 0.0895 0.0179
vt 0.0895 0.0060
vt 0.1014 0.0060
vt 0.1014 0.0179
vt 0.1014 0.0060
vt 0.0835 0.0000
vt 0.1074 0.0000
vt 0.0795 0.1988
vt 0.1115 0.1988
vt 0.1074 0.5698
vt 0.0835 0.5698
vt -0.5686 0.0239
vt -0.5686 0.0000
vt -0.1976 -0.0041
vt -0.1976 0.0279
vt 0.5707 0.0239
vt 0.1997 0.0279
vt 0.1997 -0.0041
vt 0.5707 0.0000
vt -0.0895 0.0179
vt -0.1134 0.0239
vt -0.1014 0.0179
vt -0.0776 0.0239
vt -0.0776 0.0000
vt -0.0895 0.0060
vt -0.1134 0.0000
vt -0.1014 0.0060
vt -1.0442 0.0000
vt -0.9845 0.0000
vt -0.9845 0.0239
vt -1.0442 0.0239
vt 1.0442 0.1134
vt 0.9845 0.1134
vt 0.9845 0.0776
vt 1.0442 0.0776
vt 1.0680 0.0000
vt 1.1158 0.0000
vt 1.0740 0.1708
vt 1.0263 0.1708
vt -1.0740 0.0000
vt -1.0263 0.0000
vt -1.0263 0.0239
vt -1.0740 0.0239
vt 0.1424 0.0000
vt 0.2025 0.0000
vt 0.2025 0.0239
vt 0.1424 0.0239
vt -0.9845 0.1134
vt -1.0442 0.1134
vt -1.0263 0.1708
vt -1.0740 0.1708
vt -1.1158 0.0000
vt -1.0680 0.0000
vt -1.0442 0.0776
vt -0.9845 0.0776
vt 0.9845 0.0000
vt 1.0442 0.0000
vt 1.0442 0.0239
vt 0.9845 0.0239
vt 0.2329 0.0000
vt 0.3141 0.0000
vt 0.3141 0.0239
vt 0.2329 0.0239
vt 1.0680 0.0000
vt 1.1158 0.0000
vt 1.1158 0.0239
vt 1.0680 0.0239
vt -0.2650 0.0000
vt -0.0892 0.0000
vt -0.0892 0.0239
vt -0.2650 0.0239
vt 0.5698 0.1014
vt 0.5698 0.0895
vt 0.9845 0.0895
vt 0.9845 0.1014
vt -0.5698 0.0060
vt -0.5698 0.0179
vt -0.9845 0.0179
vt -0.9845 0.0060
vt 0.9845 0.0060
vt 0.9845 0.0179
vt 0.5698 0.0179
vt 0.5698 0.0060
vt -0.5698 0.0895
vt -0.5698 0.1014
vt -0.9845 0.1014
vt -0.9845 0.0895
vn -1.0000 0.0000 0.0000
vn 0.0109 0.9999 0.0000
vn 1.0000 0.0000 0.0000
vn 0.0109 -0.9999 -0.0000
vn 0.0109 0.0000 -0.9999
vn 0.0109 0.0000 0.9999
vn 0.0000 0.0000 -1.0000
vn -0.0000 1.0000 0.0000
vn -0.9547 0.0000 0.2976
vn -0.0000 -1.0000 -0.0000
vn 0.0000 0.0000 1.0000
vn -0.9558 0.0000 0.2941
vn 0.9714 0.0000 -0.2375
usemtl Red.022
s 1
f 1/1/1 2/2/1 3/3/1 4/4/1
f 5/5/2 6/6/2 4/7/2 3/8/2
f 5/9/3 7/10/3 6/11/3
f 7/10/3 5/9/3 8/12/3
f 6/11/3 7/10/3 9/13/3
f 10/14/3 15/15/3 17/16/3 11/17/3
f 30/18/3 9/13/3 7/10/3 8/12/3
f 31/19/3 8/12/3 5/9/3
f 8/12/3 31/19/3 32/20/3
f 2/21/4 1/22/4 32/23/4 31/24/4
f 6/25/5 32/26/5 1/27/5 4/28/5
f 6/11/3 9/13/3 32/20/3
f 30/18/3 32/20/3 9/13/3
f 8/12/3 32/20/3 30/18/3
f 5/29/6 3/30/6 2/31/6 31/32/6
usemtl Dark_grey.002
f 10/33/1 12/34/1 11/35/1
f 10/33/1 13/36/1 12/34/1
f 13/36/1 10/33/1 14/37/1
f 15/38/1 14/37/1 10/33/1
f 14/37/1 15/38/1 16/39/1
f 16/39/1 15/38/1 17/40/1
f 11/35/1 12/34/1 17/40/1
f 16/39/1 17/40/1 12/34/1
f 18/41/7 16/42/7 12/43/7 19/44/7
f 19/45/8 12/46/8 13/47/8 20/48/8 21/49/8 22/50/8 23/51/8 24/52/8
f 25/53/7 26/54/7 24/55/7 23/56/7
f 26/57/9 18/58/9 19/59/9 24/60/9
f 16/61/10 18/62/10 26/63/10 25/64/10 27/65/10 28/66/10 29/67/10 14/68/10
f 14/69/11 29/70/11 20/71/11 13/72/11
f 29/73/12 28/74/12 21/75/12 20/76/12
f 28/77/11 27/78/11 22/79/11 21/80/11
f 27/81/13 25/82/13 23/83/13 22/84/13
usemtl Grey.001
f 9/85/8 7/86/8 10/87/8 11/88/8
f 30/89/7 9/90/7 11/91/7 17/92/7
f 15/93/11 10/94/11 7/95/11 8/96/11
f 8/97/10 30/98/10 17/99/10 15/100/10
