# File produced by Open Asset Import Library (http://www.assimp.sf.net)
# (assimp v4.1.908865877)

mtllib Corner_01.mtl

# 16 vertex positions
v  -1.5 0 1.5
v  -1.5 0 -1.5
v  1.5 0 -1.5
v  1.5 0 -1.200000047683716
v  1.5 0 1.5
v  -1.200000047683716 0 1.5
v  -1.5 0.4399999976158142 1.5
v  -1.200000047683716 0.1899999976158142 1.5
v  -1.200000047683716 0.4399999976158142 1.5
v  -1.5 0.4399999976158142 -1.5
v  -1.200000047683716 0.4399999976158142 -1.200000047683716
v  1.5 0.4399999976158142 -1.200000047683716
v  1.5 0.4399999976158142 -1.5
v  1.5 0.1899999976158142 -1.200000047683716
v  1.5 0.1899999976158142 1.5
v  -1.200000047683716 0.1899999976158142 -1.200000047683716

# 74 UV coordinates
vt 0 6.911400061472301e-15 0
vt -6.256569901378316e-15 1 0
vt -1 1 0
vt -1 0.8999999761581421 0
vt -1 0 0
vt -0.1000000014901161 5.811180072437744e-15 0
vt -7.389639572995266e-13 118.1100006103516 0
vt 0 8.163080129387768e-13 0
vt -11.81099987030029 6.863599857735714e-13 0
vt -118.1100006103516 0 0
vt -118.1100006103516 106.2990036010742 0
vt -118.1100006103516 118.1100006103516 0
vt -7.779310120453712e-29 0.1466670036315918 0
vt -7.779310120453712e-29 -5.395359955358972e-30 0
vt 0.1000000014901161 -5.415150014012128e-30 0
vt 0.1000000014901161 0.06333330273628235 0
vt 0.1000000014901161 0.1466670036315918 0
vt -9.188160326692538e-27 -6.372469814704849e-28 0
vt -9.188160326692538e-27 17.32279968261719 0
vt 11.81099987030029 17.32279968261719 0
vt 11.81099987030029 7.480309963226318 0
vt 11.81099987030029 -6.395850122747223e-28 0
vt 6.256569901378316e-15 1 0
vt 0.1000000014901161 5.570540129705166e-15 0
vt 0.1000000014901161 0.8999999761581421 0
vt 1 0.8999999761581421 0
vt 1 1 0
vt -6.911400061472301e-15 -5.605193857299268e-44 0
vt -6.911400061472301e-15 0.1466670036315918 0
vt -1 0.1466670036315918 0
vt -1 -1.937109953608472e-31 0
vt -118.1100006103516 -2.287929993683414e-29 0
vt -118.1100006103516 17.32279968261719 0
vt -8.163080129387768e-13 17.32279968261719 0
vt -8.163080129387768e-13 -6.723430031830472e-42 0
vt -1 7.248040600864314e-15 0
vt -1.02809005137817e-15 7.248040600864314e-15 0
vt -1.02809005137817e-15 0.1466670036315918 0
vt -1.214280005755811e-13 17.32279968261719 0
vt -1.214280005755811e-13 8.56068037638491e-13 0
vt -118.1100006103516 8.56068037638491e-13 0
vt 7.389639572995266e-13 118.1100006103516 0
vt 118.1100006103516 118.1100006103516 0
vt 118.1100006103516 106.2990036010742 0
vt 11.81099987030029 106.2990036010742 0
vt 11.81099987030029 6.579380052926243e-13 0
vt 0.8999999761581421 -8.516849807481665e-29 0
vt 1 -8.516849807481665e-29 0
vt 1 0.1466670036315918 0
vt 0.8999999761581421 0.1466670036315918 0
vt 0.8999999761581421 0.06333330273628235 0
vt 118.1100006103516 -1.005929927025371e-26 0
vt 106.2990036010742 -1.005929927025371e-26 0
vt 106.2990036010742 7.480309963226318 0
vt 106.2990036010742 17.32279968261719 0
vt 118.1100006103516 17.32279968261719 0
vt 5.34748967315527e-15 0 0
vt 0.8999999761581421 0 0
vt 5.34748967315527e-15 0.06333330273628235 0
vt 6.315939524853542e-13 7.480309963226318 0
vt 106.2990036010742 0 0
vt 6.315939524853542e-13 0 0
vt 1 3.419660144395209e-30 0
vt 118.1100006103516 4.038970242144011e-28 0
vt 6.158770206738913e-15 0.06333330273628235 0
vt 6.158770206738913e-15 0.1466670036315918 0
vt 7.274139515560385e-13 17.32279968261719 0
vt 7.274139515560385e-13 7.480309963226318 0
vt 1 0.06333330273628235 0
vt 118.1100006103516 7.480309963226318 0
vt 1 -8.016500580630429e-30 0
vt 0.1000000014901161 -8.161580281488012e-30 0
vt 11.81099987030029 -9.639659742822132e-28 0
vt 118.1100006103516 -9.468300126020278e-28 0

# 18 vertex normals
vn 0 -1 0
vn 0 1 0
vn -1.125579901365466e-14 -7.806459988594157e-16 1
vn 1.125579901365466e-14 7.806459988594157e-16 -1
vn -1 1.284889900436703e-15 -6.40732990752832e-15
vn 1 -1.284889900436703e-15 6.40732990752832e-15
vn 5.228479850000146e-15 -7.248040600864314e-15 -1
vn -5.228479850000146e-15 7.248040600864314e-15 1
vn 1 8.516849807481665e-29 9.625490136118842e-15
vn -1 -8.516849807481665e-29 -9.625490136118842e-15
vn 1 0 5.34748967315527e-15
vn -1 -0 -5.34748967315527e-15
vn 1 0 5.882239783965276e-15
vn -1 -0 -5.882239783965276e-15
vn -3.609560177473105e-15 0 1
vn 3.609560177473105e-15 0 -1
vn -6.329590070662267e-15 -1.266510026635113e-15 1
vn 6.329590070662267e-15 1.266510026635113e-15 -1

# Mesh 'Mesh1 Corner Model' with 4 faces
g Mesh1 Corner Model
usemtl Red
f  1/1/1 2/2/1 3/3/1
f  1/1/1 3/3/1 4/4/1
f  1/1/1 4/4/1 5/5/1
f  5/5/1 6/6/1 1/1/1

# Mesh 'BackColor' with 4 faces
g BackColor
usemtl BackColor
f  2/7/2 1/8/2 6/9/2
f  2/7/2 6/9/2 5/10/2
f  2/7/2 5/10/2 4/11/2
f  4/11/2 3/12/2 2/7/2

# Mesh 'Red' with 3 faces
g Red
usemtl Red
f  7/13/3 1/14/3 6/15/3
f  7/13/3 6/15/3 8/16/3
f  8/16/3 9/17/3 7/13/3

# Mesh 'BackColor' with 3 faces
g BackColor
usemtl BackColor
f  1/18/4 7/19/4 9/20/4
f  1/18/4 9/20/4 8/21/4
f  8/21/4 6/22/4 1/18/4

# Mesh 'Red' with 6 faces
g Red
usemtl Red
f  10/23/2 7/1/2 9/24/2
f  10/23/2 9/24/2 11/25/2
f  10/23/2 11/25/2 12/26/2
f  10/23/2 12/26/2 13/27/2
f  1/28/5 7/29/5 10/30/5
f  1/28/5 10/30/5 2/31/5

# Mesh 'BackColor' with 2 faces
g BackColor
usemtl BackColor
f  2/32/6 10/33/6 7/34/6
f  2/32/6 7/34/6 1/35/6

# Mesh 'Red' with 2 faces
g Red
usemtl Red
f  3/36/7 2/37/7 10/38/7
f  3/36/7 10/38/7 13/30/7

# Mesh 'BackColor' with 6 faces
g BackColor
usemtl BackColor
f  13/33/8 10/39/8 2/40/8
f  13/33/8 2/40/8 3/41/8
f  10/42/1 13/43/1 12/44/1
f  10/42/1 12/44/1 11/45/1
f  10/42/1 11/45/1 9/46/1
f  9/46/1 7/8/1 10/42/1

# Mesh 'Red' with 3 faces
g Red
usemtl Red
f  4/47/9 3/48/9 13/49/9
f  4/47/9 13/49/9 12/50/9
f  12/50/9 14/51/9 4/47/9

# Mesh 'BackColor' with 3 faces
g BackColor
usemtl BackColor
f  3/52/10 4/53/10 14/54/10
f  3/52/10 14/54/10 12/55/10
f  12/55/10 13/56/10 3/52/10

# Mesh 'Green' with 2 faces
g Green
usemtl Green
f  5/57/11 4/58/11 14/51/11
f  5/57/11 14/51/11 15/59/11

# Mesh 'BackColor' with 2 faces
g BackColor
usemtl BackColor
f  15/60/12 14/54/12 4/61/12
f  15/60/12 4/61/12 5/62/12

# Mesh 'Green' with 2 faces
g Green
usemtl Green
f  15/63/2 14/26/2 16/25/2
f  15/63/2 16/25/2 8/24/2

# Mesh 'BackColor' with 2 faces
g BackColor
usemtl BackColor
f  8/46/1 16/45/1 14/44/1
f  8/46/1 14/44/1 15/64/1

# Mesh 'Red' with 2 faces
g Red
usemtl Red
f  8/65/13 16/51/13 11/50/13
f  8/65/13 11/50/13 9/66/13

# Mesh 'BackColor' with 2 faces
g BackColor
usemtl BackColor
f  9/67/14 11/55/14 16/54/14
f  9/67/14 16/54/14 8/68/14

# Mesh 'Red' with 2 faces
g Red
usemtl Red
f  11/17/15 16/16/15 14/69/15
f  11/17/15 14/69/15 12/49/15

# Mesh 'BackColor' with 2 faces
g BackColor
usemtl BackColor
f  12/56/16 14/70/16 16/21/16
f  12/56/16 16/21/16 11/20/16

# Mesh 'Green' with 2 faces
g Green
usemtl Green
f  5/71/17 15/69/17 8/16/17
f  5/71/17 8/16/17 6/72/17

# Mesh 'BackColor' with 2 faces
g BackColor
usemtl BackColor
f  6/73/18 8/21/18 15/70/18
f  6/73/18 15/70/18 5/74/18

