# File produced by Open Asset Import Library (http://www.assimp.sf.net)
# (assimp v4.1.908865877)

mtllib Corner_01.mtl

# 16 vertex positions
v  0 0.4399999976158142 -2.073419933738396e-14
v  0 0 -2.073419933738396e-14
v  0.300000011920929 0 -1.743349998324824e-14
v  0.300000011920929 0.1899999976158142 -1.671159921329182e-14
v  0.300000011920929 0.4399999976158142 -1.671159921329182e-14
v  1.876969953973958e-14 0.4399999976158142 -3
v  0.300000011920929 0.4399999976158142 -2.700000047683716
v  3 0.4399999976158142 -2.700000047683716
v  3 0.4399999976158142 -3
v  1.876969953973958e-14 0 -3
v  3 0 -3
v  3 0 -2.700000047683716
v  3 0.1899999976158142 -2.700000047683716
v  0.300000011920929 0.1899999976158142 -2.700000047683716
v  3 0 0
v  3 0.1899999976158142 -1.025899999341163e-29

# 72 UV coordinates
vt -7.779310120453712e-29 0.1466670036315918 0
vt -7.779310120453712e-29 -5.395359955358972e-30 0
vt 0.1000000014901161 -5.415150014012128e-30 0
vt 0.1000000014901161 0.06333330273628235 0
vt 0.1000000014901161 0.1466670036315918 0
vt 6.256569901378316e-15 1 0
vt 0 6.911400061472301e-15 0
vt 0.1000000014901161 5.570540129705166e-15 0
vt 0.1000000014901161 0.8999999761581421 0
vt 1 0.8999999761581421 0
vt 1 1 0
vt -6.911400061472301e-15 -5.605193857299268e-44 0
vt -6.911400061472301e-15 0.1466670036315918 0
vt -1 0.1466670036315918 0
vt -1 -1.937109953608472e-31 0
vt -1 7.248040600864314e-15 0
vt -1.02809005137817e-15 7.248040600864314e-15 0
vt -1.02809005137817e-15 0.1466670036315918 0
vt 0.8999999761581421 -8.516849807481665e-29 0
vt 1 -8.516849807481665e-29 0
vt 1 0.1466670036315918 0
vt 0.8999999761581421 0.1466670036315918 0
vt 0.8999999761581421 0.06333330273628235 0
vt 1 0.06333330273628235 0
vt 6.158770206738913e-15 0.06333330273628235 0
vt 6.158770206738913e-15 0.1466670036315918 0
vt -6.256569901378316e-15 1 0
vt -1 1 0
vt -1 0.8999999761581421 0
vt -1 0 0
vt -0.1000000014901161 5.811180072437744e-15 0
vt 11.81099987030029 -9.639659742822132e-28 0
vt 11.81099987030029 7.480309963226318 0
vt 118.1100006103516 7.480309963226318 0
vt 118.1100006103516 -9.468300126020278e-28 0
vt -9.188160326692538e-27 -6.372469814704849e-28 0
vt 11.81099987030029 17.32279968261719 0
vt -9.188160326692538e-27 17.32279968261719 0
vt 11.81099987030029 6.579380052926243e-13 0
vt 11.81099987030029 106.2990036010742 0
vt 118.1100006103516 106.2990036010742 0
vt 118.1100006103516 4.038970242144011e-28 0
vt 6.315939524853542e-13 7.480309963226318 0
vt 106.2990036010742 7.480309963226318 0
vt 106.2990036010742 0 0
vt 6.315939524853542e-13 0 0
vt 118.1100006103516 -1.005929927025371e-26 0
vt 106.2990036010742 17.32279968261719 0
vt 118.1100006103516 17.32279968261719 0
vt -118.1100006103516 -2.287929993683414e-29 0
vt -118.1100006103516 17.32279968261719 0
vt -8.163080129387768e-13 17.32279968261719 0
vt -8.163080129387768e-13 -6.723430031830472e-42 0
vt 7.274139515560385e-13 17.32279968261719 0
vt 7.274139515560385e-13 7.480309963226318 0
vt -1.214280005755811e-13 17.32279968261719 0
vt -1.214280005755811e-13 8.56068037638491e-13 0
vt -118.1100006103516 8.56068037638491e-13 0
vt 7.389639572995266e-13 118.1100006103516 0
vt 118.1100006103516 118.1100006103516 0
vt 0 8.163080129387768e-13 0
vt -7.389639572995266e-13 118.1100006103516 0
vt -11.81099987030029 6.863599857735714e-13 0
vt -118.1100006103516 0 0
vt -118.1100006103516 106.2990036010742 0
vt -118.1100006103516 118.1100006103516 0
vt 5.34748967315527e-15 0 0
vt 0.8999999761581421 0 0
vt 5.34748967315527e-15 0.06333330273628235 0
vt 1 -8.016500580630429e-30 0
vt 0.1000000014901161 -8.161580281488012e-30 0
vt 1 3.419660144395209e-30 0

# 18 vertex normals
vn -1.125579901365466e-14 -7.806459988594157e-16 1
vn 0 1 0
vn -1 1.284889900436703e-15 -6.40732990752832e-15
vn 5.228479850000146e-15 -7.248040600864314e-15 -1
vn 1 8.516849807481665e-29 9.625490136118842e-15
vn -3.609560177473105e-15 0 1
vn 1 0 5.882239783965276e-15
vn 0 -1 0
vn 6.329590070662267e-15 1.266510026635113e-15 -1
vn 1.125579901365466e-14 7.806459988594157e-16 -1
vn -1 -0 -5.34748967315527e-15
vn -1 -8.516849807481665e-29 -9.625490136118842e-15
vn 1 -1.284889900436703e-15 6.40732990752832e-15
vn -1 -0 -5.882239783965276e-15
vn -5.228479850000146e-15 7.248040600864314e-15 1
vn 3.609560177473105e-15 0 -1
vn 1 0 5.34748967315527e-15
vn -6.329590070662267e-15 -1.266510026635113e-15 1

# Mesh 'Red.Red.Red.Red.Red.Red.Mesh1 Corner Model' with 22 faces
g Red.Red.Red.Red.Red.Red.Mesh1 Corner Model
usemtl Red
f  1/1/1 2/2/1 3/3/1
f  1/1/1 3/3/1 4/4/1
f  4/4/1 5/5/1 1/1/1
f  6/6/2 1/7/2 5/8/2
f  6/6/2 5/8/2 7/9/2
f  6/6/2 7/9/2 8/10/2
f  6/6/2 8/10/2 9/11/2
f  2/12/3 1/13/3 6/14/3
f  2/12/3 6/14/3 10/15/3
f  11/16/4 10/17/4 6/18/4
f  11/16/4 6/18/4 9/14/4
f  12/19/5 11/20/5 9/21/5
f  12/19/5 9/21/5 8/22/5
f  8/22/5 13/23/5 12/19/5
f  7/5/6 14/4/6 13/24/6
f  7/5/6 13/24/6 8/21/6
f  4/25/7 14/23/7 7/22/7
f  4/25/7 7/22/7 5/26/7
f  2/7/8 10/27/8 11/28/8
f  2/7/8 11/28/8 12/29/8
f  2/7/8 12/29/8 15/30/8
f  15/30/8 3/31/8 2/7/8

# Mesh 'BackColor.BackColor.BackColor.BackColor.BackColor.BackColor.BackColor.BackColor.BackColor.BackColor' with 28 faces
g BackColor.BackColor.BackColor.BackColor.BackColor.BackColor.BackColor.BackColor.BackColor.BackColor
usemtl BackColor
f  3/32/9 4/33/9 16/34/9
f  3/32/9 16/34/9 15/35/9
f  4/33/9 3/32/9 2/36/10
f  2/36/10 5/37/10 4/33/9
f  2/36/10 1/38/10 5/37/10
f  4/39/8 14/40/8 13/41/8
f  4/39/8 13/41/8 16/42/8
f  16/43/11 13/44/11 12/45/11
f  16/43/11 12/45/11 15/46/11
f  11/47/12 12/45/11 13/44/11
f  11/47/12 13/44/11 8/48/12
f  8/48/12 9/49/12 11/47/12
f  10/50/13 6/51/13 1/52/13
f  10/50/13 1/52/13 2/53/13
f  5/54/14 7/48/14 14/44/14
f  5/54/14 14/44/14 4/55/14
f  9/51/15 6/56/15 10/57/15
f  9/51/15 10/57/15 11/58/15
f  6/59/8 9/60/8 8/41/8
f  6/59/8 8/41/8 7/40/8
f  6/59/8 7/40/8 5/39/8
f  5/39/8 1/61/8 6/59/8
f  8/49/16 13/34/16 14/33/16
f  8/49/16 14/33/16 7/37/16
f  10/62/2 2/61/2 3/63/2
f  10/62/2 3/63/2 15/64/2
f  10/62/2 15/64/2 12/65/2
f  12/65/2 11/66/2 10/62/2

# Mesh 'Green.Green.Green' with 6 faces
g Green.Green.Green
usemtl Green
f  15/67/17 12/68/17 13/23/17
f  15/67/17 13/23/17 16/69/17
f  15/70/18 16/24/18 4/4/18
f  15/70/18 4/4/18 3/71/18
f  16/72/2 13/10/2 14/9/2
f  16/72/2 14/9/2 4/8/2

