# Blender v2.78 (sub 0) OBJ File: ''
# www.blender.org
mtllib Corner_01.mtl
o Mesh1_Corner_Model
v 0.000000 0.000000 -3.000000
v 3.000000 0.000000 -3.000000
v 3.000000 0.000000 -2.700000
v 3.000000 0.000000 0.000000
v 0.300000 0.000000 -0.000000
v 0.000000 0.000000 -0.000000
v 0.300000 0.190000 0.000000
v 0.300000 0.440000 0.000000
v 0.000000 0.440000 0.000000
v 0.000000 0.440000 -3.000000
v 0.300000 0.440000 -2.700000
v 3.000000 0.440000 -2.700000
v 3.000000 0.440000 -3.000000
v 3.000000 0.190000 -2.700000
v 3.000000 0.190000 0.000000
v 0.300000 0.190000 -2.700000
vt -0.0000 1.0000
vt -1.0000 1.0000
vt -1.0000 0.9000
vt -1.0000 0.0000
vt -0.1000 0.0000
vt 0.0000 0.0000
vt 0.1000 -0.0000
vt 0.1000 0.0633
vt 0.1000 0.1467
vt -0.0000 0.1467
vt 0.0000 1.0000
vt 0.0000 0.0000
vt 0.1000 0.0000
vt 0.1000 0.9000
vt 1.0000 0.9000
vt 1.0000 1.0000
vt -1.0000 0.1467
vt -1.0000 -0.0000
vt -1.0000 0.0000
vt -0.0000 0.0000
vt -0.0000 0.1467
vt -1.0000 0.1467
vt 1.0000 -0.0000
vt 1.0000 0.1467
vt 0.9000 0.1467
vt 0.9000 0.0633
vt 0.9000 -0.0000
vt 0.0000 0.0633
vt 0.9000 0.0633
vt 0.9000 0.1467
vt 0.0000 0.1467
vt 0.1000 0.1467
vt 0.1000 0.0633
vt 1.0000 0.0633
vt 1.0000 0.1467
vt 0.0000 0.0000
vt 0.0000 0.0633
vt 1.0000 0.0000
vt 1.0000 0.9000
vt 0.1000 0.9000
vt 0.1000 0.0000
vt 1.0000 -0.0000
vt 1.0000 0.0633
vn 0.0000 -1.0000 -0.0000
vn -0.0000 -0.0000 1.0000
vn -0.0000 1.0000 0.0000
vn -1.0000 0.0000 -0.0000
vn 0.0000 0.0000 -1.0000
vn 1.0000 0.0000 0.0000
usemtl Red.044
s 1
f 1/1/1 2/2/1 3/3/1 4/4/1 5/5/1 6/6/1
f 6/6/2 5/7/2 7/8/2 8/9/2 9/10/2
f 10/11/3 9/12/3 8/13/3 11/14/3 12/15/3 13/16/3
f 6/6/4 9/10/4 10/17/4 1/18/4
f 2/19/5 1/20/5 10/21/5 13/22/5
f 2/23/6 13/24/6 12/25/6 14/26/6 3/27/6
f 7/28/6 16/29/6 11/30/6 8/31/6
f 11/32/2 16/33/2 14/34/2 12/35/2
usemtl Green.043
f 4/36/6 3/27/6 14/26/6 15/37/6
f 15/38/3 14/39/3 16/40/3 7/41/3
f 4/42/2 15/43/2 7/8/2 5/7/2
