# File produced by Open Asset Import Library (http://www.assimp.sf.net)
# (assimp v4.1.327737527)

mtllib Crest_01.mtl

# 28 vertex positions
v  0 0 -2.021349938558653e-14
v  0 0.4399999976158142 -2.021349938558653e-14
v  1.732589969389263e-14 0.4399999976158142 -3
v  1.732589969389263e-14 0 -3
v  0.300000011920929 0.4399999976158142 -3
v  0.300000011920929 0.4399999976158142 -1.732589969389263e-14
v  0.300000011920929 0 -1.732589969389263e-14
v  0.300000011920929 0.1899999976158142 -1.732589969389263e-14
v  0.300000011920929 0.1899999976158142 -0.75
v  0.300000011920929 0.1000000014901161 -1.125
v  0.300000011920929 0.1000000014901161 -1.875
v  0.300000011920929 0.1899999976158142 -2.25
v  0.300000011920929 0.1899999976158142 -3
v  0.300000011920929 0 -3
v  2.700000047683716 0 -3
v  3 0 -3
v  3 0 0
v  2.700000047683716 0 -1.443819962879448e-15
v  3 0.4399999976158142 -3
v  2.700000047683716 0.1899999976158142 -3
v  2.700000047683716 0.4399999976158142 -3
v  2.700000047683716 0.4399999976158142 -1.443819962879448e-15
v  3 0.4399999976158142 0
v  2.700000047683716 0.1899999976158142 -1.443819962879448e-15
v  2.700000047683716 0.1899999976158142 -2.25
v  2.700000047683716 0.1000000014901161 -1.875
v  2.700000047683716 0.1000000014901161 -1.125
v  2.700000047683716 0.1899999976158142 -0.75

# 140 UV coordinates
vt -6.73784004596458e-15 0 0
vt -6.73784004596458e-15 0.1466670036315918 0
vt -1 0.1466670036315918 0
vt -1 0 0
vt 0.1000000014901161 1 0
vt 5.775290015913159e-15 1 0
vt 0 6.73784004596458e-15 0
vt 0.1000000014901161 5.775290015913159e-15 0
vt -6.48549987461664e-29 0.1466670036315918 0
vt -6.48549987461664e-29 -1.401298464324817e-45 0
vt 0.1000000014901161 -1.401298464324817e-45 0
vt 0.1000000014901161 0.06333330273628235 0
vt 0.1000000014901161 0.1466670036315918 0
vt 6.378839954347421e-15 0.1466670036315918 0
vt 6.378839954347421e-15 0.06333330273628235 0
vt 0.25 0.06333330273628235 0
vt 0.375 0.03333330154418945 0
vt 0.625 0.03333330154418945 0
vt 0.75 0.06333330273628235 0
vt 1 0.06333330273628235 0
vt 1 0.1466670036315918 0
vt -0.1000000014901161 1 0
vt -0.8999999761581421 1 0
vt -1 1 0
vt -0.8999999761581421 4.812740091740856e-16 0
vt -0.1000000014901161 5.775290015913159e-15 0
vt -5.775290015913159e-15 1 0
vt -1 -5.207160206487238e-32 0
vt -0.8999999761581421 -5.207160206487238e-32 0
vt -0.8999999761581421 0.06333330273628235 0
vt -0.8999999761581421 0.1466670036315918 0
vt 1 1 0
vt 0.8999999761581421 1 0
vt 0.8999999761581421 4.812740091740856e-16 0
vt 1 0 0
vt 0.8999999761581421 0.1466670036315918 0
vt 0.8999999761581421 0.06333330273628235 0
vt 0.8999999761581421 -0 0
vt 5.775290015913159e-15 0.1466670036315918 0
vt 5.775290015913159e-15 0 0
vt -1 0.06333330273628235 0
vt -0.75 0.06333330273628235 0
vt -0.625 0.03333330154418945 0
vt -0.375 0.03333330154418945 0
vt -0.25 0.06333330273628235 0
vt -5.913170039067214e-15 0.06333330273628235 0
vt -5.913170039067214e-15 0.1466670036315918 0
vt -9.625490771393553e-16 0.1466670036315918 0
vt -0.1000000014901161 0.1466670036315918 0
vt -0.1000000014901161 0.06333330273628235 0
vt -0.1000000014901161 2.603580103243619e-32 0
vt -9.625490771393553e-16 2.603580103243619e-32 0
vt 11.81099987030029 72.69930267333984 0
vt 11.81099987030029 87.88240051269531 0
vt 106.2990036010742 87.88240051269531 0
vt 106.2990036010742 72.69930267333984 0
vt -118.1100006103516 0 0
vt -118.1100006103516 17.32279968261719 0
vt -7.958079724715295e-13 17.32279968261719 0
vt -7.958079724715295e-13 0 0
vt 118.1100006103516 0 0
vt 6.821209721195876e-13 0 0
vt 6.821209721195876e-13 17.32279968261719 0
vt 118.1100006103516 17.32279968261719 0
vt -106.2990036010742 118.1100006103516 0
vt -11.81099987030029 118.1100006103516 0
vt -6.821209721195876e-13 118.1100006103516 0
vt 0 7.958079724715295e-13 0
vt -11.81099987030029 6.821209721195876e-13 0
vt -106.2990036010742 5.684339853201728e-14 0
vt -118.1100006103516 118.1100006103516 0
vt 11.81099987030029 7.480309963226318 0
vt 106.2990036010742 7.480309963226318 0
vt 106.2990036010742 0 0
vt 11.81099987030029 0 0
vt -7.660040456782219e-27 -1.233142648605839e-43 0
vt 11.81099987030029 17.32279968261719 0
vt 106.2990036010742 17.32279968261719 0
vt 118.1100006103516 -1.401298464324817e-44 0
vt -7.660040456782219e-27 17.32279968261719 0
vt -118.1100006103516 7.480309963226318 0
vt -6.98405959800863e-13 17.32279968261719 0
vt -6.98405959800863e-13 7.480309963226318 0
vt -29.5275993347168 7.480309963226318 0
vt -44.29130172729492 3.937010049819946 0
vt -73.81890106201172 3.937010049819946 0
vt -88.58270263671875 7.480309963226318 0
vt 106.2990036010742 5.684339853201728e-14 0
vt 106.2990036010742 118.1100006103516 0
vt 118.1100006103516 118.1100006103516 0
vt 11.81099987030029 6.821209721195876e-13 0
vt 6.821209721195876e-13 118.1100006103516 0
vt 11.81099987030029 118.1100006103516 0
vt -118.1100006103516 -6.150189828925939e-30 0
vt -106.2990036010742 17.32279968261719 0
vt -106.2990036010742 7.480309963226318 0
vt -106.2990036010742 -6.150189828925939e-30 0
vt -11.81099987030029 7.480309963226318 0
vt -11.81099987030029 0 0
vt -11.81099987030029 17.32279968261719 0
vt -1.136870003519419e-13 3.075099992598565e-30 0
vt -1.136870003519419e-13 17.32279968261719 0
vt -11.81099987030029 -26.96649932861328 0
vt -11.81099987030029 -42.14950180053711 0
vt -106.2990036010742 -42.14950180053711 0
vt -106.2990036010742 -26.96649932861328 0
vt 11.81099987030029 44.29130172729492 0
vt 11.81099987030029 73.81890106201172 0
vt 106.2990036010742 73.81890106201172 0
vt 106.2990036010742 44.29130172729492 0
vt 106.2990036010742 88.58270263671875 0
vt 11.81099987030029 88.58270263671875 0
vt 11.81099987030029 29.5275993347168 0
vt 106.2990036010742 29.5275993347168 0
vt 7.534059639179025e-13 7.480309963226318 0
vt 7.534059639179025e-13 17.32279968261719 0
vt 118.1100006103516 7.480309963226318 0
vt 88.58270263671875 7.480309963226318 0
vt 73.81890106201172 3.937010049819946 0
vt 44.29130172729492 3.937010049819946 0
vt 29.5275993347168 7.480309963226318 0
vt -0.8999999761581421 -0.2283170074224472 0
vt -0.8999999761581421 -0.3568660020828247 0
vt -0.1000000014901161 -0.3568660020828247 0
vt -0.1000000014901161 -0.2283170074224472 0
vt 0.8999999761581421 0.375 0
vt 0.8999999761581421 0.625 0
vt 0.1000000014901161 0.625 0
vt 0.1000000014901161 0.375 0
vt 0.8999999761581421 0.25 0
vt 0.1000000014901161 0.25 0
vt 0.1000000014901161 0.75 0
vt 0.8999999761581421 0.75 0
vt -0.8999999761581421 0 0
vt -0.1000000014901161 0 0
vt 0.8999999761581421 0.6155210137367249 0
vt 0.8999999761581421 0.7440710067749023 0
vt 0.1000000014901161 0.7440710067749023 0
vt 0.1000000014901161 0.6155210137367249 0
vt 0.1000000014901161 0 0

# 24 vertex normals
vn -1 0 -5.775290015913159e-15
vn 0 1 0
vn -9.625490136118842e-15 -1.562149942737133e-31 1
vn 1 -8.770890643546719e-15 6.035440092036319e-15
vn 0 -1 0
vn 9.625490136118842e-15 5.207160206487238e-32 -1
vn -4.812739985861738e-15 -2.603580103243619e-32 1
vn 1 0 5.775290015913159e-15
vn -1 0 -6.035440092036319e-15
vn 4.812739985861738e-15 -2.603580103243619e-32 -1
vn 1.824690021678239e-15 -0.9723870158195496 -0.2333730012178421
vn 6.617519862840053e-15 0 -1
vn 9.625490136118842e-15 1.562149942737133e-31 -1
vn 4.812739985861738e-15 2.603580103243619e-32 -1
vn 1 0 6.035440092036319e-15
vn -9.625490136118842e-15 -5.207160206487238e-32 1
vn -6.015930382162211e-15 0 1
vn -4.812739985861738e-15 2.603580103243619e-32 1
vn -1.825059963317952e-15 -0.9723870158195496 0.2333730012178421
vn -1 8.770890643546719e-15 -6.035440092036319e-15
vn 1.825059963317952e-15 0.9723870158195496 -0.2333730012178421
vn 6.015930382162211e-15 0 -1
vn -1.824690021678239e-15 0.9723870158195496 0.2333730012178421
vn -6.617519862840053e-15 0 1

# Mesh 'Red.Red.Red.Red.Red.Red.Red.Red.Red.Mesh1 Crest Model' with 38 faces
g Red.Red.Red.Red.Red.Red.Red.Red.Red.Mesh1 Crest Model
usemtl Red
f  1/1/1 2/2/1 3/3/1
f  1/1/1 3/3/1 4/4/1
f  5/5/2 3/6/2 2/7/2
f  5/5/2 2/7/2 6/8/2
f  2/9/3 1/10/3 7/11/3
f  2/9/3 7/11/3 8/12/3
f  8/12/3 6/13/3 2/9/3
f  6/14/4 8/15/4 9/16/4
f  6/14/4 9/16/4 10/17/4
f  6/14/4 10/17/4 11/18/4
f  6/14/4 11/18/4 12/19/4
f  6/14/4 12/19/4 13/20/4
f  13/20/4 5/21/4 6/14/4
f  14/22/5 15/23/5 16/24/5
f  14/22/5 16/24/5 17/4/5
f  14/22/5 17/4/5 18/25/5
f  14/22/5 18/25/5 7/26/5
f  14/22/5 7/26/5 1/7/5
f  1/7/5 4/27/5 14/22/5
f  19/3/6 16/28/6 15/29/6
f  19/3/6 15/29/6 20/30/6
f  20/30/6 21/31/6 19/3/6
f  19/32/2 21/33/2 22/34/2
f  19/32/2 22/34/2 23/35/2
f  23/21/7 22/36/7 24/37/7
f  23/21/7 24/37/7 18/38/7
f  18/38/7 17/35/7 23/21/7
f  19/21/8 23/39/8 17/40/8
f  19/21/8 17/40/8 16/35/8
f  21/3/9 20/41/9 25/42/9
f  21/3/9 25/42/9 26/43/9
f  21/3/9 26/43/9 27/44/9
f  21/3/9 27/44/9 28/45/9
f  21/3/9 28/45/9 24/46/9
f  24/46/9 22/47/9 21/3/9
f  3/48/10 5/49/10 13/50/10
f  3/48/10 13/50/10 14/51/10
f  14/51/10 4/52/10 3/48/10

# Mesh 'BackColor.BackColor.BackColor.BackColor.BackColor.BackColor.BackColor.BackColor.BackColor.BackColor.BackColor.BackColor.BackColor.BackColor.BackColor.BackColor' with 52 faces
g BackColor.BackColor.BackColor.BackColor.BackColor.BackColor.BackColor.BackColor.BackColor.BackColor.BackColor.BackColor.BackColor.BackColor.BackColor.BackColor
usemtl BackColor
f  11/53/11 12/54/11 25/55/11
f  11/53/11 25/55/11 26/56/11
f  4/57/8 3/58/8 2/59/8
f  4/57/8 2/59/8 1/60/8
f  16/61/1 17/62/1 23/63/1
f  16/61/1 23/63/1 19/64/1
f  15/65/2 14/66/2 4/67/2
f  15/65/2 4/67/2 1/68/2
f  15/65/2 1/68/2 7/69/2
f  15/65/2 7/69/2 18/70/2
f  15/65/2 18/70/2 17/57/2
f  17/57/2 16/71/2 15/65/2
f  8/72/12 24/73/12 18/74/12
f  8/72/12 18/74/12 7/75/12
f  1/76/13 6/77/13 8/72/12
f  8/72/12 7/75/12 1/76/13
f  18/74/12 24/73/12 22/78/14
f  22/78/14 17/79/14 18/74/12
f  22/78/14 23/64/14 17/79/14
f  1/76/13 2/80/13 6/77/13
f  20/81/15 21/58/15 22/82/15
f  20/81/15 22/82/15 24/83/15
f  20/81/15 24/83/15 28/84/15
f  20/81/15 28/84/15 27/85/15
f  20/81/15 27/85/15 26/86/15
f  26/86/15 25/87/15 20/81/15
f  23/61/5 22/88/5 21/89/5
f  23/61/5 21/89/5 19/90/5
f  6/91/5 2/68/5 3/92/5
f  6/91/5 3/92/5 5/93/5
f  16/94/16 19/58/16 21/95/16
f  16/94/16 21/95/16 20/96/16
f  20/96/16 15/97/16 16/94/16
f  20/96/16 13/98/17 14/99/17
f  20/96/16 14/99/17 15/97/16
f  14/99/17 13/98/17 5/100/18
f  5/100/18 4/101/18 14/99/17
f  5/100/18 3/102/18 4/101/18
f  9/103/19 10/104/19 27/105/19
f  9/103/19 27/105/19 28/106/19
f  10/107/5 11/108/5 26/109/5
f  10/107/5 26/109/5 27/110/5
f  13/93/5 20/89/5 25/111/5
f  13/93/5 25/111/5 12/112/5
f  8/91/5 9/113/5 28/114/5
f  8/91/5 28/114/5 24/88/5
f  8/115/20 6/116/20 5/64/20
f  8/115/20 5/64/20 13/117/20
f  8/115/20 13/117/20 12/118/20
f  8/115/20 12/118/20 11/119/20
f  8/115/20 11/119/20 10/120/20
f  10/120/20 9/121/20 8/115/20

# Mesh 'Green.Green.Green.Green.Green.Green.Green' with 14 faces
g Green.Green.Green.Green.Green.Green.Green
usemtl Green
f  28/122/21 27/123/21 10/124/21
f  28/122/21 10/124/21 9/125/21
f  27/126/2 26/127/2 11/128/2
f  27/126/2 11/128/2 10/129/2
f  24/34/2 28/130/2 9/131/2
f  24/34/2 9/131/2 8/8/2
f  12/132/2 25/133/2 20/33/2
f  12/132/2 20/33/2 13/5/2
f  15/134/22 14/135/22 13/50/22
f  15/134/22 13/50/22 20/30/22
f  26/136/23 25/137/23 12/138/23
f  26/136/23 12/138/23 11/139/23
f  7/140/24 18/38/24 24/37/24
f  7/140/24 24/37/24 8/12/24

