# Blender v2.78 (sub 0) OBJ File: ''
# www.blender.org
mtllib End_01.mtl
o Mesh1_End_Model
v 0.000000 0.000000 -3.000000
v 3.000000 0.000000 -3.000000
v 3.000000 0.000000 0.000000
v 2.700000 0.000000 -0.000000
v 0.300000 0.000000 -0.000000
v 0.000000 0.000000 -0.000000
v 0.300000 0.190000 0.000000
v 0.300000 0.440000 0.000000
v 0.000000 0.440000 0.000000
v 3.000000 0.440000 -3.000000
v 0.000000 0.440000 -3.000000
v 0.300000 0.440000 -2.700000
v 2.700000 0.440000 -2.700000
v 2.700000 0.440000 0.000000
v 3.000000 0.440000 0.000000
v 2.700000 0.190000 0.000000
v 2.700000 0.190000 -2.700000
v 0.300000 0.190000 -2.700000
vt -0.0000 1.0000
vt -1.0000 1.0000
vt -1.0000 0.0000
vt -0.9000 0.0000
vt -0.1000 0.0000
vt 0.0000 0.0000
vt 0.1000 -0.0000
vt 0.1000 0.0633
vt 0.1000 0.1467
vt -0.0000 0.1467
vt 1.0000 1.0000
vt 0.0000 1.0000
vt 0.0000 0.0000
vt 0.1000 0.0000
vt 0.1000 0.9000
vt 0.9000 0.9000
vt 0.9000 0.0000
vt 1.0000 -0.0000
vt 0.9000 0.1467
vt 0.9000 0.0633
vt 0.9000 0.0000
vt 1.0000 0.0000
vt 1.0000 0.1467
vt 1.0000 0.1467
vt 0.0000 0.1467
vt 0.0000 0.0000
vt 1.0000 0.0000
vt -1.0000 0.1467
vt -1.0000 0.0000
vt 0.0000 0.0000
vt 0.0000 0.1467
vt -1.0000 0.1467
vt -1.0000 -0.0000
vt 0.0000 0.0633
vt 0.9000 0.0633
vt 0.9000 0.1467
vt 0.0000 0.1467
vt 0.1000 0.1467
vt 0.1000 0.0633
vt 0.9000 0.0633
vt 0.9000 0.1467
vt -0.9000 0.0633
vt -0.0000 0.0633
vt -0.0000 0.1467
vt -0.9000 0.1467
vt 0.9000 0.0000
vt 0.9000 0.9000
vt 0.1000 0.9000
vt 0.1000 0.0000
vn 0.0000 -1.0000 -0.0000
vn -0.0000 -0.0000 1.0000
vn 0.0000 1.0000 0.0000
vn 1.0000 0.0000 0.0000
vn 0.0000 0.0000 -1.0000
vn -1.0000 0.0000 -0.0000
usemtl Red.006
s 1
f 1/1/1 2/2/1 3/3/1 4/4/1 5/5/1 6/6/1
f 6/6/2 5/7/2 7/8/2 8/9/2 9/10/2
f 10/11/3 11/12/3 9/13/3 8/14/3 12/15/3 13/16/3 14/17/3 15/18/3
f 14/19/2 16/20/2 4/21/2 3/22/2 15/23/2
f 10/24/4 15/25/4 3/26/4 2/27/4
f 10/28/5 2/29/5 1/30/5 11/31/5
f 6/6/6 9/10/6 11/32/6 1/33/6
f 7/34/4 18/35/4 12/36/4 8/37/4
f 12/38/2 18/39/2 17/40/2 13/41/2
f 17/42/6 16/43/6 14/44/6 13/45/6
usemtl Green.007
f 5/7/2 4/21/2 16/20/2 7/8/2
f 16/46/3 17/47/3 18/48/3 7/49/3
