# File produced by Open Asset Import Library (http://www.assimp.sf.net)
# (assimp v4.1.908865877)

mtllib End_01.mtl

# 18 vertex positions
v  0 0.4399999976158142 -2.073419933738396e-14
v  0 0 -2.073419933738396e-14
v  0.300000011920929 0 -1.743349998324824e-14
v  0.300000011920929 0.1899999976158142 -1.671159921329182e-14
v  0.300000011920929 0.4399999976158142 -1.671159921329182e-14
v  2.700000047683716 0.4399999976158142 -2.700000047683716
v  3 0.4399999976158142 0
v  3 0.4399999976158142 -3
v  1.732589969389263e-14 0.4399999976158142 -3
v  0.300000011920929 0.4399999976158142 -2.700000047683716
v  2.700000047683716 0.4399999976158142 -1.856849956861353e-15
v  2.700000047683716 0.1899999976158142 -2.700000047683716
v  2.700000047683716 0.1899999976158142 -1.856849956861353e-15
v  2.700000047683716 0 -1.856849956861353e-15
v  3 0 0
v  0.300000011920929 0.1899999976158142 -2.700000047683716
v  3 0 -3
v  1.732589969389263e-14 0 -3

# 85 UV coordinates
vt -7.779310120453712e-29 0.1466670036315918 0
vt -7.779310120453712e-29 -5.395359955358972e-30 0
vt 0.1000000014901161 -5.415150014012128e-30 0
vt 0.1000000014901161 0.06333330273628235 0
vt 0.1000000014901161 0.1466670036315918 0
vt 0.8999999761581421 0.8999999761581421 0
vt 1 -2.622570135039933e-18 0
vt 1 1 0
vt 5.791629704982168e-15 1 0
vt 0.1000000014901161 0.8999999761581421 0
vt 0.8999999761581421 6.163270069271202e-16 0
vt 1.63371992553653e-17 6.908780188566443e-15 0
vt 0.1000000014901161 5.567920256799308e-15 0
vt -0.8999999761581421 0.06333330273628235 0
vt -6.045179700380323e-15 0.06333330273628235 0
vt -6.045179700380323e-15 0.1466670036315918 0
vt -0.8999999761581421 0.1466670036315918 0
vt 1 0.1466670036315918 0
vt 0.8999999761581421 0.1466670036315918 0
vt 0.8999999761581421 0.06333330273628235 0
vt 0.8999999761581421 0 0
vt 1 0 0
vt 6.189489974153459e-15 0.1466670036315918 0
vt 6.189489974153459e-15 0 0
vt 6.105289816998698e-15 0.06333330273628235 0
vt 6.105289816998698e-15 0.1466670036315918 0
vt -1 0.1466670036315918 0
vt -1 4.507440300792844e-16 0
vt 1.87750014365938e-16 4.507440300792844e-16 0
vt 1.87750014365938e-16 0.1466670036315918 0
vt -6.911400061472301e-15 -4.764414778704378e-44 0
vt -6.911400061472301e-15 0.1466670036315918 0
vt -1 -1.650559930807393e-31 0
vt 0 6.911400061472301e-15 0
vt -5.775290015913159e-15 1 0
vt -1 1 0
vt -1 0 0
vt -0.1000000014901161 5.811180072437744e-15 0
vt -0.8999999761581421 6.189489974153459e-16 0
vt -106.2990036010742 17.32279968261719 0
vt -7.139979796635942e-13 17.32279968261719 0
vt -7.139979796635942e-13 7.480309963226318 0
vt -106.2990036010742 7.480309963226318 0
vt -9.188160326692538e-27 -6.372469814704849e-28 0
vt -9.188160326692538e-27 17.32279968261719 0
vt 11.81099987030029 17.32279968261719 0
vt 11.81099987030029 7.480309963226318 0
vt 11.81099987030029 -6.395850122747223e-28 0
vt 106.2990036010742 7.480309963226318 0
vt 106.2990036010742 -1.444880022155936e-27 0
vt 106.2990036010742 17.32279968261719 0
vt 118.1100006103516 1.261168617892335e-44 0
vt 118.1100006103516 17.32279968261719 0
vt -118.1100006103516 -1.949480005098615e-29 0
vt -118.1100006103516 17.32279968261719 0
vt -8.163080129387768e-13 17.32279968261719 0
vt -8.163080129387768e-13 -5.729909420624177e-42 0
vt 2.217519889230728e-14 17.32279968261719 0
vt 2.217519889230728e-14 5.323749796039279e-14 0
vt -118.1100006103516 5.323749796039279e-14 0
vt 118.1100006103516 0 0
vt 7.31042993067782e-13 0 0
vt 7.31042993067782e-13 17.32279968261719 0
vt 11.81099987030029 6.579380052926243e-13 0
vt 11.81099987030029 106.2990036010742 0
vt 106.2990036010742 106.2990036010742 0
vt 106.2990036010742 7.310429659627277e-14 0
vt 7.210979860103328e-13 17.32279968261719 0
vt 7.210979860103328e-13 7.480309963226318 0
vt 118.1100006103516 118.1100006103516 0
vt 118.1100006103516 -3.097529872588624e-16 0
vt 106.2990036010742 7.279449937801219e-14 0
vt 6.84050960406829e-13 118.1100006103516 0
vt 11.81099987030029 6.576290076734659e-13 0
vt 1.929589969998e-15 8.159979853275545e-13 0
vt -6.821209721195876e-13 118.1100006103516 0
vt 0 8.163080129387768e-13 0
vt -11.81099987030029 6.863599857735714e-13 0
vt -106.2990036010742 7.310429659627277e-14 0
vt -118.1100006103516 0 0
vt -118.1100006103516 118.1100006103516 0
vt 0.8999999761581421 6.189489974153459e-16 0
vt 0.1000000014901161 5.570540129705166e-15 0
vt 0.1000000014901161 -1.226850025105758e-29 0
vt 0.8999999761581421 -1.223330011974198e-29 0

# 22 vertex normals
vn -1.125579901365466e-14 -7.806459988594157e-16 1
vn -1.113899941709628e-16 1 -1.788119969750575e-17
vn -1 -4.547380147850925e-30 -6.029150025370009e-15
vn -4.812739985861738e-15 1.603110102166253e-32 1
vn -1.067829957351321e-14 0 1
vn 1 0 6.189489974153459e-15
vn 1 0 5.34748967315527e-15
vn 5.963039950869758e-15 -4.507440300792844e-16 -1
vn -1 1.186049943458954e-15 -5.914460070245882e-15
vn 0 -1 0
vn 1 4.547380147850925e-30 6.029150025370009e-15
vn 1.125579901365466e-14 7.806459988594157e-16 -1
vn 6.467120269209106e-15 1.899769963331676e-15 -1
vn 4.812739985861738e-15 -1.603110102166253e-32 -1
vn 1 -1.186049943458954e-15 5.914460070245882e-15
vn -5.963039950869758e-15 4.507440300792844e-16 1
vn 1.067829957351321e-14 0 -1
vn -1 -0 -6.189489974153459e-15
vn -1 -0 -5.34748967315527e-15
vn 1.113899941709628e-16 -1 1.788119969750575e-17
vn 0 1 0
vn -6.467120269209106e-15 -1.899769963331676e-15 1

# Mesh 'Red.Red.Red.Red.Red.Red.Red.Red.Red.Mesh1 End Model' with 28 faces
g Red.Red.Red.Red.Red.Red.Red.Red.Red.Mesh1 End Model
usemtl Red
f  1/1/1 2/2/1 3/3/1
f  1/1/1 3/3/1 4/4/1
f  4/4/1 5/5/1 1/1/1
f  6/6/2 7/7/2 8/8/2
f  8/8/2 9/9/2 6/6/2
f  9/9/2 10/10/2 6/6/2
f  6/6/2 11/11/2 7/7/2
f  9/9/2 1/12/2 5/13/2
f  9/9/2 5/13/2 10/10/2
f  12/14/3 13/15/3 11/16/3
f  12/14/3 11/16/3 6/17/3
f  7/18/4 11/19/4 13/20/4
f  7/18/4 13/20/4 14/21/4
f  14/21/4 15/22/4 7/18/4
f  10/5/5 16/4/5 12/20/5
f  10/5/5 12/20/5 6/19/5
f  8/18/6 7/23/6 15/24/6
f  8/18/6 15/24/6 17/22/6
f  4/25/7 16/20/7 10/19/7
f  4/25/7 10/19/7 5/26/7
f  8/27/8 17/28/8 18/29/8
f  8/27/8 18/29/8 9/30/8
f  2/31/9 1/32/9 9/27/9
f  2/31/9 9/27/9 18/33/9
f  2/34/10 18/35/10 17/36/10
f  2/34/10 17/36/10 15/37/10
f  15/37/10 3/38/10 2/34/10
f  15/37/10 14/39/10 3/38/10

# Mesh 'BackColor.BackColor.BackColor.BackColor.BackColor.BackColor.BackColor.BackColor.BackColor.BackColor.BackColor.BackColor' with 32 faces
g BackColor.BackColor.BackColor.BackColor.BackColor.BackColor.BackColor.BackColor.BackColor.BackColor.BackColor.BackColor
usemtl BackColor
f  6/40/11 11/41/11 13/42/11
f  6/40/11 13/42/11 12/43/11
f  2/44/12 1/45/12 5/46/12
f  2/44/12 5/46/12 4/47/12
f  4/47/12 3/48/12 2/44/12
f  4/47/12 13/49/13 14/50/13
f  4/47/12 14/50/13 3/48/12
f  14/50/13 13/49/13 11/51/14
f  11/51/14 15/52/14 14/50/13
f  11/51/14 7/53/14 15/52/14
f  18/54/15 9/55/15 1/56/15
f  18/54/15 1/56/15 2/57/15
f  9/58/16 18/59/16 17/60/16
f  9/58/16 17/60/16 8/55/16
f  6/51/17 12/49/17 16/47/17
f  6/51/17 16/47/17 10/46/17
f  17/61/18 15/62/18 7/63/18
f  17/61/18 7/63/18 8/53/18
f  4/64/10 16/65/10 12/66/10
f  4/64/10 12/66/10 13/67/10
f  5/68/19 10/51/19 16/49/19
f  5/68/19 16/49/19 4/69/19
f  8/70/20 7/71/20 11/72/20
f  8/70/20 11/72/20 6/66/20
f  8/70/20 6/66/20 10/65/20
f  10/65/20 9/73/20 8/70/20
f  10/65/20 5/74/20 1/75/20
f  10/65/20 1/75/20 9/73/20
f  18/76/21 2/77/21 3/78/21
f  18/76/21 3/78/21 14/79/21
f  18/76/21 14/79/21 15/80/21
f  15/80/21 17/81/21 18/76/21

# Mesh 'Green.Green' with 4 faces
g Green.Green
usemtl Green
f  13/82/21 12/6/21 16/10/21
f  13/82/21 16/10/21 4/83/21
f  3/84/22 14/85/22 13/20/22
f  3/84/22 13/20/22 4/4/22

