# Blender v2.78 (sub 0) OBJ File: ''
# www.blender.org
mtllib Flag_red_01.mtl
o Mesh1_Flag_red_Model
v 0.200000 0.000000 -0.200000
v 0.200000 0.000000 0.000000
v 0.000000 0.000000 0.000000
v 0.000000 0.000000 -0.200000
v 0.000000 6.300000 0.000000
v 0.000000 6.300000 -0.200000
v 0.200000 6.300000 0.000000
v 0.200000 6.300000 -0.200000
v 0.200000 6.250000 -0.050000
v 0.200000 4.781000 -0.050000
v 0.200000 6.250000 -0.150000
v 0.200000 4.781000 -0.150000
v 2.200000 5.515500 -0.050000
v 2.200000 5.515500 -0.150000
vt 0.0667 2.0833
vt 0.0667 1.5937
vt 0.7333 1.8385
vt 0.0167 1.3222
vt 0.0167 0.6120
vt 0.0500 0.6120
vt 0.0500 1.3222
vt -0.0667 1.5937
vt -0.0667 2.0833
vt -0.7333 1.8385
vt 0.0167 0.6556
vt 0.0167 -0.0546
vt 0.0500 -0.0546
vt 0.0500 0.6556
vt -0.0667 0.0667
vt -0.0667 0.0000
vt 0.0000 0.0000
vt 0.0000 0.0667
vt -0.0667 0.0000
vt 0.0000 2.1000
vt -0.0667 2.1000
vt 0.0000 0.0667
vt 0.0000 0.0000
vt 0.0667 0.0000
vt 0.0667 0.0667
vt 0.0000 2.1000
vt 0.0167 2.0833
vt 0.0667 2.1000
vt 0.0167 1.5937
vt 0.0500 2.0833
vt 0.0500 1.5937
vt 0.0667 0.0000
vt 0.0000 0.0000
vt 0.0667 0.0000
vt 0.0667 2.1000
vt -0.0667 0.0000
vt 0.0000 0.0000
vt 0.0000 2.1000
vt -0.0667 2.1000
vn 0.0000 -0.0000 1.0000
vn 0.3447 -0.9387 0.0000
vn 0.0000 0.0000 -1.0000
vn 0.3447 0.9387 0.0000
vn 0.0000 -1.0000 -0.0000
vn -1.0000 0.0000 0.0000
vn 0.0000 1.0000 0.0000
vn 1.0000 -0.0000 0.0000
usemtl Red.028
s 1
f 9/1/1 10/2/1 13/3/1
f 13/4/2 10/5/2 12/6/2 14/7/2
f 12/8/3 11/9/3 14/10/3
f 9/11/4 13/12/4 14/13/4 11/14/4
usemtl Grey.002
f 1/15/5 2/16/5 3/17/5 4/18/5
f 4/19/6 3/17/6 5/20/6 6/21/6
f 6/22/7 5/23/7 7/24/7 8/25/7
f 7/26/8 9/27/8 8/28/8
f 9/27/8 7/26/8 10/29/8
f 8/28/8 9/27/8 11/30/8
f 12/31/8 11/30/8 9/27/8 10/29/8
f 12/31/8 1/32/8 11/30/8
f 10/29/8 1/32/8 12/31/8
f 7/26/8 1/32/8 10/29/8
f 1/32/8 7/26/8 2/33/8
f 3/17/1 2/34/1 7/35/1 5/20/1
f 8/28/8 11/30/8 1/32/8
f 1/36/3 4/37/3 6/38/3 8/39/3
