# Blender v2.78 (sub 0) OBJ File: ''
# www.blender.org
mtllib Gap_01.mtl
o Mesh1_Gap_Model
v 0.300000 0.440000 -3.000000
v 0.300000 0.190000 -3.000000
v 0.300000 0.000000 -3.000000
v 0.000000 0.000000 -3.000000
v 0.000000 0.440000 -3.000000
v 0.000000 0.000000 -0.000000
v 0.000000 0.440000 0.000000
v 0.300000 0.440000 0.000000
v 0.300000 0.000000 -0.000000
v 0.300000 0.190000 0.000000
v 0.900000 0.190000 -0.750000
v 2.700000 0.190000 0.000000
v 0.900000 0.190000 -2.250000
v 2.700000 0.190000 -3.000000
v 2.100000 0.190000 -2.250000
v 0.900000 0.000000 -2.250000
v 2.100000 0.000000 -2.250000
v 2.700000 0.000000 -3.000000
v 0.900000 0.000000 -0.750000
v 2.100000 0.190000 -0.750000
v 2.100000 0.000000 -0.750000
v 2.700000 0.000000 -0.000000
v 3.000000 0.000000 0.000000
v 3.000000 0.000000 -3.000000
v 2.700000 0.440000 -3.000000
v 3.000000 0.440000 -3.000000
v 2.700000 0.440000 0.000000
v 3.000000 0.440000 0.000000
vt -0.1000 0.1467
vt -0.1000 0.0633
vt -0.1000 0.0000
vt -0.0000 0.0000
vt -0.0000 0.1467
vt -0.0000 0.0000
vt -0.0000 0.1467
vt -1.0000 0.1467
vt -1.0000 0.0000
vt 0.1000 1.0000
vt 0.0000 1.0000
vt 0.0000 0.0000
vt 0.1000 0.0000
vt 0.1000 -0.0000
vt 0.1000 0.0633
vt 0.1000 0.1467
vt -0.0000 1.0000
vt -0.1000 0.0000
vt -0.1000 1.0000
vt 0.0000 0.1467
vt 0.0000 0.0633
vt 1.0000 0.0633
vt 1.0000 0.1467
vt -0.3000 0.7500
vt -0.9000 1.0000
vt -0.7000 0.7500
vt -0.3000 0.2500
vt -0.9000 0.0000
vt -0.7000 0.2500
vt -1.0000 0.0000
vt -1.0000 1.0000
vt -1.0000 0.0000
vt -0.9000 0.0000
vt -0.9000 0.0633
vt -0.9000 0.1467
vt -1.0000 0.1467
vt 1.0000 1.0000
vt 0.9000 1.0000
vt 0.9000 0.0000
vt 1.0000 0.0000
vt 0.9000 0.1467
vt 0.9000 0.0633
vt 0.9000 0.0000
vt 1.0000 0.0000
vt 1.0000 0.1467
vt 1.0000 0.1467
vt 0.0000 0.1467
vt 0.0000 0.0000
vt 1.0000 0.0000
vt -1.0000 0.0633
vt -0.0000 0.0633
vt -0.0000 0.1467
vt -1.0000 0.1467
vt 0.1000 0.0000
vt 0.3000 0.2500
vt 0.1000 1.0000
vt 0.9000 0.0000
vt 0.3000 0.7500
vt 0.9000 1.0000
vt 0.7000 0.7500
vt 0.7000 0.0633
vt 0.3000 0.0633
vt 0.3000 0.0000
vt 0.7000 0.0000
vt 0.7500 0.0000
vt 0.7500 0.0633
vt 0.2500 0.0633
vt 0.2500 0.0000
vt -0.3000 0.0000
vt -0.3000 0.0633
vt -0.7000 0.0633
vt -0.7000 0.0000
vt -0.2500 0.0000
vt -0.2500 0.0633
vt -0.7500 0.0633
vt -0.7500 0.0000
vt 0.7000 0.2500
vn 0.0000 0.0000 -1.0000
vn -1.0000 0.0000 -0.0000
vn 0.0000 1.0000 0.0000
vn -0.0000 -0.0000 1.0000
vn 0.0000 -1.0000 -0.0000
vn 1.0000 0.0000 0.0000
usemtl Red.049
s 1
f 1/1/1 2/2/1 3/3/1 4/4/1 5/5/1
f 6/6/2 7/7/2 5/8/2 4/9/2
f 1/10/3 5/11/3 7/12/3 8/13/3
f 6/6/4 9/14/4 10/15/4 8/16/4 7/7/4
f 4/17/5 9/18/5 6/6/5
f 9/18/5 4/17/5 3/19/5
f 8/20/6 10/21/6 2/22/6 1/23/6
f 16/24/5 18/25/5 17/26/5
f 16/24/5 3/19/5 18/25/5
f 3/19/5 16/24/5 19/27/5
f 9/18/5 19/27/5 22/28/5
f 9/18/5 3/19/5 19/27/5
f 22/28/5 19/27/5 21/29/5
f 22/28/5 21/29/5 17/26/5
f 17/26/5 18/25/5 22/28/5
f 22/28/5 18/25/5 23/30/5
f 23/30/5 18/25/5 24/31/5
f 24/32/1 18/33/1 14/34/1 25/35/1 26/36/1
f 26/37/3 25/38/3 27/39/3 28/40/3
f 27/41/4 12/42/4 22/43/4 23/44/4 28/45/4
f 26/46/6 28/47/6 23/48/6 24/49/6
f 14/50/2 12/51/2 27/52/2 25/53/2
usemtl Green.048
f 10/54/3 11/55/3 2/56/3
f 11/55/3 10/54/3 12/57/3
f 13/58/3 2/56/3 11/55/3
f 2/56/3 13/58/3 14/59/3
f 14/59/3 13/58/3 15/60/3
f 15/61/4 13/62/4 16/63/4 17/64/4
f 16/65/6 13/66/6 11/67/6 19/68/6
f 19/69/1 11/70/1 20/71/1 21/72/1
f 21/73/2 20/74/2 15/75/2 17/76/2
f 20/77/3 12/57/3 15/60/3
f 11/55/3 12/57/3 20/77/3
f 9/14/4 22/43/4 12/42/4 10/15/4
f 14/59/3 15/60/3 12/57/3
f 18/33/1 3/3/1 2/2/1 14/34/1
