# File produced by Open Asset Import Library (http://www.assimp.sf.net)
# (assimp v4.1.908865877)

mtllib Gap_01.mtl

# 28 vertex positions
v  -1.5 0.4399999976158142 -1.5
v  -1.200000047683716 0.4399999976158142 -1.5
v  -1.200000047683716 0.1899999976158142 -1.5
v  -1.200000047683716 0 -1.5
v  -1.5 0 -1.5
v  -1.5 0 1.5
v  -1.5 0.4399999976158142 1.5
v  -1.200000047683716 0.4399999976158142 1.5
v  -1.200000047683716 0 1.5
v  -1.200000047683716 0.1899999976158142 1.5
v  -0.6000000238418579 0.1899999976158142 0.75
v  1.200000047683716 0.1899999976158142 1.5
v  -0.6000000238418579 0.1899999976158142 -0.75
v  1.200000047683716 0.1899999976158142 -1.5
v  0.5999999046325684 0.1899999976158142 -0.75
v  -0.6000000238418579 3.609559965714868e-16 -0.75
v  0.5999999046325684 3.609559965714868e-16 -0.75
v  1.200000047683716 0 -1.5
v  -0.6000000238418579 3.609559965714868e-16 0.75
v  0.5999999046325684 0.1899999976158142 0.75
v  0.5999999046325684 3.609559965714868e-16 0.75
v  1.200000047683716 0 1.5
v  1.5 0 1.5
v  1.5 0 -1.5
v  1.5 0.4399999976158142 -1.5
v  1.200000047683716 0.4399999976158142 -1.5
v  1.200000047683716 0.4399999976158142 1.5
v  1.5 0.4399999976158142 1.5

# 145 UV coordinates
vt -2.786840040420319e-15 0.1466670036315918 0
vt -0.1000000014901161 0.1466670036315918 0
vt -0.1000000014901161 0.06333330273628235 0
vt -0.1000000014901161 5.854839962187493e-16 0
vt -2.786840040420319e-15 5.854839962187493e-16 0
vt -11.81099987030029 17.32279968261719 0
vt -3.29154997529002e-13 17.32279968261719 0
vt -3.29154997529002e-13 6.91517020512053e-14 0
vt -11.81099987030029 6.91517020512053e-14 0
vt -11.81099987030029 7.480309963226318 0
vt -6.73784004596458e-15 0 0
vt -6.73784004596458e-15 0.1466670036315918 0
vt -1 0.1466670036315918 0
vt -1 0 0
vt -118.1100006103516 0 0
vt -118.1100006103516 17.32279968261719 0
vt -7.958079724715295e-13 17.32279968261719 0
vt -7.958079724715295e-13 0 0
vt 0.1000000014901161 1 0
vt 5.775290015913159e-15 1 0
vt 0 6.73784004596458e-15 0
vt 0.1000000014901161 5.775290015913159e-15 0
vt 11.81099987030029 6.821209721195876e-13 0
vt 0 7.958079724715295e-13 0
vt 6.821209721195876e-13 118.1100006103516 0
vt 11.81099987030029 118.1100006103516 0
vt -7.583949805426147e-29 0.1466670036315918 0
vt -7.583949805426147e-29 -5.259870031454946e-30 0
vt 0.1000000014901161 -5.387129614112255e-30 0
vt 0.1000000014901161 0.06333330273628235 0
vt 0.1000000014901161 0.1466670036315918 0
vt -5.775290015913159e-15 1 0
vt -0.1000000014901161 5.775290015913159e-15 0
vt -0.1000000014901161 1 0
vt -11.81099987030029 6.821209721195876e-13 0
vt -6.821209721195876e-13 118.1100006103516 0
vt -8.957420823031325e-27 -6.212439962283338e-28 0
vt -8.957420823031325e-27 17.32279968261719 0
vt 11.81099987030029 17.32279968261719 0
vt 11.81099987030029 7.480309963226318 0
vt 11.81099987030029 -6.362750127758012e-28 0
vt 6.394239860361452e-15 0.1466670036315918 0
vt 6.394239860361452e-15 0.06333330273628235 0
vt 1 0.06333330273628235 0
vt 1 0.1466670036315918 0
vt 118.1100006103516 17.32279968261719 0
vt 118.1100006103516 7.480309963226318 0
vt 7.5522498411279e-13 7.480309963226318 0
vt 7.5522498411279e-13 17.32279968261719 0
vt 0.300000011920929 0.25 0
vt 0.8999999761581421 4.812740091740856e-16 0
vt 35.43310165405273 29.5275993347168 0
vt 0.300000011920929 0.75 0
vt 0.8999999761581421 1 0
vt 106.2990036010742 118.1100006103516 0
vt 35.43310165405273 88.58270263671875 0
vt 0.699999988079071 0.75 0
vt 82.67720031738281 88.58270263671875 0
vt 0.699999988079071 0.06333330273628235 0
vt 0.300000011920929 0.06333330273628235 0
vt 0.300000011920929 1.203190052193338e-16 0
vt 0.699999988079071 1.203190052193338e-16 0
vt 82.67720031738281 1.421090045498116e-14 0
vt 35.43310165405273 1.421090045498116e-14 0
vt 35.43310165405273 7.480309963226318 0
vt 82.67720031738281 7.480309963226318 0
vt -0.300000011920929 0.75 0
vt -0.8999999761581421 1 0
vt -0.699999988079071 0.75 0
vt -0.300000011920929 0.25 0
vt -35.43310165405273 29.5275993347168 0
vt -35.43310165405273 88.58270263671875 0
vt -11.81099987030029 118.1100006103516 0
vt 0.75 1.203190052193338e-16 0
vt 0.75 0.06333330273628235 0
vt 0.25 0.06333330273628235 0
vt 0.25 1.203190052193338e-16 0
vt 29.5275993347168 1.421090045498116e-14 0
vt 29.5275993347168 7.480309963226318 0
vt 88.58270263671875 7.480309963226318 0
vt 88.58270263671875 1.421090045498116e-14 0
vt -0.300000011920929 1.203190052193338e-16 0
vt -0.300000011920929 0.06333330273628235 0
vt -0.699999988079071 0.06333330273628235 0
vt -0.699999988079071 1.203190052193338e-16 0
vt -82.67720031738281 1.421090045498116e-14 0
vt -82.67720031738281 7.480309963226318 0
vt -35.43310165405273 7.480309963226318 0
vt -35.43310165405273 1.421090045498116e-14 0
vt -0.25 1.203190052193338e-16 0
vt -0.25 0.06333330273628235 0
vt -0.75 0.06333330273628235 0
vt -0.75 1.203190052193338e-16 0
vt -88.58270263671875 1.421090045498116e-14 0
vt -88.58270263671875 7.480309963226318 0
vt -29.5275993347168 7.480309963226318 0
vt -29.5275993347168 1.421090045498116e-14 0
vt 0.699999988079071 0.25 0
vt 106.2990036010742 5.684339853201728e-14 0
vt 0.1000000014901161 -1.220029976153473e-29 0
vt 0.8999999761581421 -1.19717001526162e-29 0
vt 0.8999999761581421 0.06333330273628235 0
vt -0.8999999761581421 4.812740091740856e-16 0
vt -106.2990036010742 5.684339853201728e-14 0
vt -0.699999988079071 0.25 0
vt -82.67720031738281 29.5275993347168 0
vt -82.67720031738281 88.58270263671875 0
vt -106.2990036010742 118.1100006103516 0
vt -1 1 0
vt -118.1100006103516 118.1100006103516 0
vt -1 5.854839962187493e-16 0
vt -0.8999999761581421 5.854839962187493e-16 0
vt -0.8999999761581421 0.06333330273628235 0
vt -0.8999999761581421 0.1466670036315918 0
vt -118.1100006103516 6.91517020512053e-14 0
vt -106.2990036010742 17.32279968261719 0
vt -106.2990036010742 7.480309963226318 0
vt -106.2990036010742 6.91517020512053e-14 0
vt 1 1 0
vt 1 0 0
vt 118.1100006103516 0 0
vt 118.1100006103516 118.1100006103516 0
vt 0.8999999761581421 0.1466670036315918 0
vt 0.8999999761581421 0 0
vt 106.2990036010742 17.32279968261719 0
vt 118.1100006103516 1.261168617892335e-44 0
vt 106.2990036010742 1.261168617892335e-44 0
vt 106.2990036010742 7.480309963226318 0
vt 6.189489974153459e-15 0.1466670036315918 0
vt 6.189489974153459e-15 0 0
vt 7.31042993067782e-13 0 0
vt 7.31042993067782e-13 17.32279968261719 0
vt 106.2990036010742 -1.413980016942199e-27 0
vt 11.81099987030029 -1.440980014018552e-27 0
vt -1 0.06333330273628235 0
vt -6.051820015170323e-15 0.06333330273628235 0
vt -6.051820015170323e-15 0.1466670036315918 0
vt -7.147819662545185e-13 17.32279968261719 0
vt -7.147819662545185e-13 7.480309963226318 0
vt -118.1100006103516 7.480309963226318 0
vt 82.67720031738281 29.5275993347168 0
vt -0.8999999761581421 2.84964986279983e-15 0
vt -0.1000000014901161 2.84964986279983e-15 0
vt -11.81099987030029 3.365730003729306e-13 0
vt -106.2990036010742 3.365730003729306e-13 0

# 20 vertex normals
vn 2.98844997549284e-15 -5.854839962187493e-16 -1
vn -2.98844997549284e-15 5.854839962187493e-16 1
vn -1 0 -6.189489974153459e-15
vn 1 0 6.189489974153459e-15
vn 0 1 0
vn 0 -1 0
vn -1.125579901365466e-14 -7.806459988594157e-16 1
vn 1.125579901365466e-14 7.806459988594157e-16 -1
vn -7.219110190550843e-15 0 1
vn 7.219110190550843e-15 0 -1
vn 1 0 5.775290015913159e-15
vn -1 -0 -5.775290015913159e-15
vn -6.467120269209106e-15 -1.899769963331676e-15 1
vn 9.043409941798634e-15 -5.854839962187493e-16 -1
vn -9.043409941798634e-15 5.854839962187493e-16 1
vn -4.812739985861738e-15 1.603110102166253e-32 1
vn 4.812739985861738e-15 -1.603110102166253e-32 -1
vn 6.467120269209106e-15 1.899769963331676e-15 -1
vn 6.015930382162211e-15 -2.84964986279983e-15 -1
vn -6.015930382162211e-15 2.84964986279983e-15 1

# Mesh 'Mesh1 Gap Model' with 3 faces
g Mesh1 Gap Model
usemtl Red
f  1/1/1 2/2/1 3/3/1
f  1/1/1 3/3/1 4/4/1
f  4/4/1 5/5/1 1/1/1

# Mesh 'BackColor' with 3 faces
g BackColor
usemtl BackColor
f  2/6/2 1/7/2 5/8/2
f  2/6/2 5/8/2 4/9/2
f  4/9/2 3/10/2 2/6/2

# Mesh 'Red' with 2 faces
g Red
usemtl Red
f  6/11/3 7/12/3 1/13/3
f  6/11/3 1/13/3 5/14/3

# Mesh 'BackColor' with 2 faces
g BackColor
usemtl BackColor
f  5/15/4 1/16/4 7/17/4
f  5/15/4 7/17/4 6/18/4

# Mesh 'Red' with 2 faces
g Red
usemtl Red
f  2/19/5 1/20/5 7/21/5
f  2/19/5 7/21/5 8/22/5

# Mesh 'BackColor' with 2 faces
g BackColor
usemtl BackColor
f  8/23/6 7/24/6 1/25/6
f  8/23/6 1/25/6 2/26/6

# Mesh 'Red' with 5 faces
g Red
usemtl Red
f  7/27/7 6/28/7 9/29/7
f  7/27/7 9/29/7 10/30/7
f  10/30/7 8/31/7 7/27/7
f  5/32/6 9/33/6 6/21/6
f  9/33/6 5/32/6 4/34/6

# Mesh 'BackColor' with 4 faces
g BackColor
usemtl BackColor
f  6/24/5 9/35/5 5/36/5
f  6/37/8 7/38/8 8/39/8
f  6/37/8 8/39/8 10/40/8
f  10/40/8 9/41/8 6/37/8

# Mesh 'Red' with 2 faces
g Red
usemtl Red
f  8/42/4 10/43/4 3/44/4
f  8/42/4 3/44/4 2/45/4

# Mesh 'BackColor' with 2 faces
g BackColor
usemtl BackColor
f  2/46/3 3/47/3 10/48/3
f  2/46/3 10/48/3 8/49/3

# Mesh 'Green' with 2 faces
g Green
usemtl Green
f  10/22/5 11/50/5 3/19/5
f  11/50/5 10/22/5 12/51/5

# Mesh 'BackColor' with 1 faces
g BackColor
usemtl BackColor
f  3/26/6 11/52/6 10/23/6

# Mesh 'Green' with 2 faces
g Green
usemtl Green
f  13/53/5 3/19/5 11/50/5
f  3/19/5 13/53/5 14/54/5

# Mesh 'BackColor' with 1 faces
g BackColor
usemtl BackColor
f  14/55/6 13/56/6 3/26/6

# Mesh 'Green' with 1 faces
g Green
usemtl Green
f  14/54/5 13/53/5 15/57/5

# Mesh 'BackColor' with 1 faces
g BackColor
usemtl BackColor
f  15/58/6 13/56/6 14/55/6

# Mesh 'Green' with 2 faces
g Green
usemtl Green
f  15/59/9 13/60/9 16/61/9
f  15/59/9 16/61/9 17/62/9

# Mesh 'BackColor' with 2 faces
g BackColor
usemtl BackColor
f  17/63/10 16/64/10 13/65/10
f  17/63/10 13/65/10 15/66/10

# Mesh 'Red' with 3 faces
g Red
usemtl Red
f  16/67/6 18/68/6 17/69/6
f  16/67/6 4/34/6 18/68/6
f  4/34/6 16/67/6 19/70/6

# Mesh 'BackColor' with 1 faces
g BackColor
usemtl BackColor
f  19/71/5 16/72/5 4/73/5

# Mesh 'Green' with 2 faces
g Green
usemtl Green
f  16/74/11 13/75/11 11/76/11
f  16/74/11 11/76/11 19/77/11

# Mesh 'BackColor' with 2 faces
g BackColor
usemtl BackColor
f  19/78/12 11/79/12 13/80/12
f  19/78/12 13/80/12 16/81/12

# Mesh 'Green' with 2 faces
g Green
usemtl Green
f  19/82/10 11/83/10 20/84/10
f  19/82/10 20/84/10 21/85/10

# Mesh 'BackColor' with 2 faces
g BackColor
usemtl BackColor
f  21/86/9 20/87/9 11/88/9
f  21/86/9 11/88/9 19/89/9

# Mesh 'Green' with 2 faces
g Green
usemtl Green
f  21/90/12 20/91/12 15/92/12
f  21/90/12 15/92/12 17/93/12

# Mesh 'BackColor' with 2 faces
g BackColor
usemtl BackColor
f  17/94/11 15/95/11 20/96/11
f  17/94/11 20/96/11 21/97/11

# Mesh 'Green' with 2 faces
g Green
usemtl Green
f  20/98/5 12/51/5 15/57/5
f  11/50/5 12/51/5 20/98/5

# Mesh 'BackColor' with 1 faces
g BackColor
usemtl BackColor
f  12/99/6 10/23/6 11/52/6

# Mesh 'Green' with 2 faces
g Green
usemtl Green
f  9/100/13 22/101/13 12/102/13
f  9/100/13 12/102/13 10/30/13

# Mesh 'Red' with 2 faces
g Red
usemtl Red
f  9/33/6 19/70/6 22/103/6
f  9/33/6 4/34/6 19/70/6

# Mesh 'BackColor' with 3 faces
g BackColor
usemtl BackColor
f  4/73/5 5/36/5 9/35/5
f  19/71/5 4/73/5 9/35/5
f  22/104/5 19/71/5 9/35/5

# Mesh 'Red' with 1 faces
g Red
usemtl Red
f  22/103/6 19/70/6 21/105/6

# Mesh 'BackColor' with 1 faces
g BackColor
usemtl BackColor
f  21/106/5 19/71/5 22/104/5

# Mesh 'Red' with 1 faces
g Red
usemtl Red
f  22/103/6 21/105/6 17/69/6

# Mesh 'BackColor' with 1 faces
g BackColor
usemtl BackColor
f  17/107/5 21/106/5 22/104/5

# Mesh 'Red' with 1 faces
g Red
usemtl Red
f  17/69/6 18/68/6 22/103/6

# Mesh 'BackColor' with 2 faces
g BackColor
usemtl BackColor
f  17/107/5 18/108/5 16/72/5
f  22/104/5 18/108/5 17/107/5

# Mesh 'Red' with 1 faces
g Red
usemtl Red
f  22/103/6 18/68/6 23/14/6

# Mesh 'BackColor' with 1 faces
g BackColor
usemtl BackColor
f  23/15/5 18/108/5 22/104/5

# Mesh 'Red' with 1 faces
g Red
usemtl Red
f  23/14/6 18/68/6 24/109/6

# Mesh 'BackColor' with 1 faces
g BackColor
usemtl BackColor
f  24/110/5 18/108/5 23/15/5

# Mesh 'Red' with 3 faces
g Red
usemtl Red
f  25/13/14 24/111/14 18/112/14
f  25/13/14 18/112/14 14/113/14
f  14/113/14 26/114/14 25/13/14

# Mesh 'BackColor' with 3 faces
g BackColor
usemtl BackColor
f  24/115/15 25/16/15 26/116/15
f  24/115/15 26/116/15 14/117/15
f  14/117/15 18/118/15 24/115/15

# Mesh 'Red' with 2 faces
g Red
usemtl Red
f  25/119/5 26/54/5 27/51/5
f  25/119/5 27/51/5 28/120/5

# Mesh 'BackColor' with 2 faces
g BackColor
usemtl BackColor
f  28/121/6 27/99/6 26/55/6
f  28/121/6 26/55/6 25/122/6

# Mesh 'Red' with 3 faces
g Red
usemtl Red
f  28/45/16 27/123/16 12/102/16
f  28/45/16 12/102/16 22/124/16
f  22/124/16 23/120/16 28/45/16

# Mesh 'BackColor' with 3 faces
g BackColor
usemtl BackColor
f  27/125/17 28/46/17 23/126/17
f  27/125/17 23/126/17 22/127/17
f  22/127/17 12/128/17 27/125/17

# Mesh 'Red' with 2 faces
g Red
usemtl Red
f  25/45/4 28/129/4 23/130/4
f  25/45/4 23/130/4 24/120/4

# Mesh 'BackColor' with 4 faces
g BackColor
usemtl BackColor
f  24/121/3 23/131/3 28/132/3
f  24/121/3 28/132/3 25/46/3
f  10/40/18 12/128/18 22/133/18
f  10/40/18 22/133/18 9/134/18

# Mesh 'Red' with 2 faces
g Red
usemtl Red
f  14/135/3 12/136/3 27/137/3
f  14/135/3 27/137/3 26/13/3

# Mesh 'BackColor' with 2 faces
g BackColor
usemtl BackColor
f  26/16/4 27/138/4 12/139/4
f  26/16/4 12/139/4 14/140/4

# Mesh 'Green' with 1 faces
g Green
usemtl Green
f  14/54/5 15/57/5 12/51/5

# Mesh 'BackColor' with 3 faces
g BackColor
usemtl BackColor
f  12/99/6 15/58/6 14/55/6
f  15/58/6 12/99/6 20/141/6
f  20/141/6 12/99/6 11/52/6

# Mesh 'Green' with 2 faces
g Green
usemtl Green
f  18/142/19 4/143/19 3/3/19
f  18/142/19 3/3/19 14/113/19

# Mesh 'BackColor' with 4 faces
g BackColor
usemtl BackColor
f  18/108/5 4/73/5 16/72/5
f  14/117/20 3/10/20 4/144/20
f  14/117/20 4/144/20 18/145/20
f  11/52/6 3/26/6 13/56/6

