# Blender v2.78 (sub 0) OBJ File: ''
# www.blender.org
mtllib Hill_square_01.mtl
o Mesh1_Hill_square_Model
v 0.300000 0.440000 -3.000000
v 0.300000 0.190000 -3.000000
v 0.300000 0.000000 -3.000000
v 0.000000 0.000000 -3.000000
v 0.000000 0.440000 -3.000000
v 0.000000 0.000000 -0.000000
v 0.000000 0.440000 0.000000
v 0.300000 0.440000 0.000000
v 0.300000 0.440000 -1.125000
v 0.300000 0.440000 -1.875000
v 0.300000 0.190000 -2.250000
v 2.700000 0.190000 -2.250000
v 2.700000 0.190000 -3.000000
v 2.700000 0.440000 -1.875000
v 2.700000 0.190000 -0.750000
v 2.700000 0.440000 -1.125000
v 3.000000 0.440000 -3.000000
v 2.700000 0.440000 -3.000000
v 2.700000 0.440000 0.000000
v 3.000000 0.440000 0.000000
v 2.700000 0.190000 0.000000
v 2.700000 0.000000 -0.000000
v 3.000000 0.000000 0.000000
v 3.000000 0.000000 -3.000000
v 2.700000 0.000000 -3.000000
v 0.300000 0.000000 -0.000000
v 0.300000 0.190000 0.000000
v 0.300000 0.190000 -0.750000
vt -0.1000 0.1467
vt -0.1000 0.0633
vt -0.1000 0.0000
vt -0.0000 0.0000
vt -0.0000 0.1467
vt -0.0000 0.0000
vt -0.0000 0.1467
vt -1.0000 0.1467
vt -1.0000 0.0000
vt 0.1000 0.0000
vt 0.1000 0.3750
vt 0.1000 0.6250
vt 0.1000 1.0000
vt 0.0000 1.0000
vt 0.0000 0.0000
vt 1.0000 0.1467
vt 0.6250 0.1467
vt 0.7500 0.0633
vt 1.0000 0.0633
vt 0.2500 0.0633
vt 0.7500 0.0633
vt 0.6250 0.1467
vt 0.3750 0.1467
vt 1.0000 1.0000
vt 0.9000 1.0000
vt 0.9000 0.6250
vt 0.9000 0.3750
vt 0.9000 0.0000
vt 1.0000 -0.0000
vt 0.9000 0.1467
vt 0.9000 0.0633
vt 0.9000 0.0000
vt 1.0000 0.0000
vt 1.0000 0.1467
vt 1.0000 0.1467
vt 0.0000 0.1467
vt 0.0000 0.0000
vt 1.0000 0.0000
vt -0.9000 1.0000
vt -1.0000 1.0000
vt -1.0000 0.0000
vt -0.9000 0.0000
vt -0.1000 0.0000
vt -0.0000 1.0000
vt -0.1000 1.0000
vt -1.0000 0.0000
vt -0.9000 0.0000
vt -0.9000 0.0633
vt -0.9000 0.1467
vt -1.0000 0.1467
vt -1.0000 0.0633
vt -0.7500 0.0633
vt -0.6250 0.1467
vt -1.0000 0.1467
vt 0.1000 -0.0000
vt 0.1000 0.0633
vt 0.1000 0.1467
vt 0.0000 0.0633
vt 0.2500 0.0633
vt 0.3750 0.1467
vt 0.0000 0.1467
vt -0.0000 0.1467
vt -0.3750 0.1467
vt -0.2500 0.0633
vt -0.0000 0.0633
vt 0.1000 0.7500
vt 0.9000 0.7500
vt 0.9000 1.0000
vt 0.1000 1.0000
vt -0.1000 -0.5889
vt -0.1000 -0.4387
vt -0.9000 -0.4387
vt -0.9000 -0.5889
vt 0.9000 0.0000
vt 0.9000 0.2500
vt 0.1000 0.2500
vt 0.1000 0.0000
vt 0.1000 0.3934
vt 0.1000 0.2431
vt 0.9000 0.2431
vt 0.9000 0.3934
vn 0.0000 0.0000 -1.0000
vn -1.0000 0.0000 -0.0000
vn -0.0000 1.0000 0.0000
vn 1.0000 0.0000 0.0000
vn -0.0000 -0.0000 1.0000
vn 0.0000 -1.0000 -0.0000
vn 0.0000 0.8321 -0.5547
vn 0.0000 0.8321 0.5547
usemtl Red.050
s 1
f 1/1/1 2/2/1 3/3/1 4/4/1 5/5/1
f 6/6/2 7/7/2 5/8/2 4/9/2
f 8/10/3 9/11/3 10/12/3 1/13/3 5/14/3 7/15/3
f 1/16/4 10/17/4 11/18/4 2/19/4
f 15/20/4 12/21/4 14/22/4 16/23/4
f 17/24/3 18/25/3 14/26/3 16/27/3 19/28/3 20/29/3
f 19/30/5 21/31/5 22/32/5 23/33/5 20/34/5
f 17/35/4 20/36/4 23/37/4 24/38/4
f 25/39/6 24/40/6 23/41/6 22/42/6 26/43/6 6/6/6 4/44/6 3/45/6
f 24/46/1 25/47/1 13/48/1 18/49/1 17/50/1
f 13/51/2 12/52/2 14/53/2 18/54/2
f 6/6/5 26/55/5 27/56/5 8/57/5 7/7/5
f 27/58/4 28/59/4 9/60/4 8/61/4
f 19/62/2 16/63/2 15/64/2 21/65/2
usemtl Green.049
f 11/66/3 12/67/3 13/68/3 2/69/3
f 11/70/7 10/71/7 14/72/7 12/73/7
f 25/47/1 3/3/1 2/2/1 13/48/1
f 21/74/3 15/75/3 28/76/3 27/77/3
f 9/78/8 28/79/8 15/80/8 16/81/8
f 14/26/3 10/12/3 9/11/3 16/27/3
f 26/55/5 22/32/5 21/31/5 27/56/5
