# File produced by Open Asset Import Library (http://www.assimp.sf.net)
# (assimp v4.1.327737527)

mtllib Hill_square_01.mtl

# 28 vertex positions
v  0 0 -2.021349938558653e-14
v  0 0.4399999976158142 -2.021349938558653e-14
v  1.804780046384905e-14 0.4399999976158142 -3
v  1.804780046384905e-14 0 -3
v  0.300000011920929 0.4399999976158142 -1.732589969389263e-14
v  0.300000011920929 0.4399999976158142 -1.125
v  0.300000011920929 0.4399999976158142 -1.875
v  0.300000011920929 0.4399999976158142 -3
v  0.300000011920929 0.1899999976158142 -2.25
v  0.300000011920929 0.1899999976158142 -3
v  2.700000047683716 0.1899999976158142 -0.75
v  2.700000047683716 0.1899999976158142 -2.25
v  2.700000047683716 0.4399999976158142 -1.875
v  2.700000047683716 0.4399999976158142 -1.125
v  3 0.4399999976158142 0
v  3 0.4399999976158142 -3
v  2.700000047683716 0.4399999976158142 -3
v  2.700000047683716 0.4399999976158142 -1.443819962879448e-15
v  2.700000047683716 0.1899999976158142 -1.443819962879448e-15
v  2.700000047683716 0 -1.443819962879448e-15
v  3 0 0
v  3 0 -3
v  0.300000011920929 0 -3
v  2.700000047683716 0 -3
v  0.300000011920929 0 -1.732589969389263e-14
v  2.700000047683716 0.1899999976158142 -3
v  0.300000011920929 0.1899999976158142 -1.732589969389263e-14
v  0.300000011920929 0.1899999976158142 -0.75

# 147 UV coordinates
vt -6.73784004596458e-15 0 0
vt -6.73784004596458e-15 0.1466670036315918 0
vt -1 0.1466670036315918 0
vt -1 0 0
vt 0 6.73784004596458e-15 0
vt 0.1000000014901161 5.775290015913159e-15 0
vt 0.1000000014901161 0.375 0
vt 0.1000000014901161 0.625 0
vt 0.1000000014901161 1 0
vt 6.015930382162211e-15 1 0
vt 1 0.1466670036315918 0
vt 0.625 0.1466670036315918 0
vt 0.75 0.06333330273628235 0
vt 1 0.06333330273628235 0
vt 0.25 0.06333330273628235 0
vt 0.375 0.1466670036315918 0
vt 1 -8.694689727156552e-31 0
vt 1 1 0
vt 0.8999999761581421 1 0
vt 0.8999999761581421 0.625 0
vt 0.8999999761581421 0.375 0
vt 0.8999999761581421 4.812740091740856e-16 0
vt 0.8999999761581421 0.1466670036315918 0
vt 0.8999999761581421 0.06333330273628235 0
vt 0.8999999761581421 0 0
vt 1 0 0
vt 6.189489974153459e-15 0.1466670036315918 0
vt 6.189489974153459e-15 0 0
vt -0.1000000014901161 1 0
vt -0.8999999761581421 1 0
vt -1 1 0
vt -0.8999999761581421 4.812740091740856e-16 0
vt -0.1000000014901161 5.775290015913159e-15 0
vt -6.015930382162211e-15 1 0
vt -1 5.854839962187493e-16 0
vt -0.8999999761581421 5.854839962187493e-16 0
vt -0.8999999761581421 0.06333330273628235 0
vt -0.8999999761581421 0.1466670036315918 0
vt -6.078859847945522e-15 0.1466670036315918 0
vt -0.375 0.1466670036315918 0
vt -0.25 0.06333330273628235 0
vt -6.078859847945522e-15 0.06333330273628235 0
vt -1 0.06333330273628235 0
vt -0.75 0.06333330273628235 0
vt -0.625 0.1466670036315918 0
vt 6.397250215455993e-15 0.06333330273628235 0
vt 6.397250215455993e-15 0.1466670036315918 0
vt -7.583949805426147e-29 0.1466670036315918 0
vt -7.583949805426147e-29 -5.259870031454946e-30 0
vt 0.1000000014901161 -5.387129614112255e-30 0
vt 0.1000000014901161 0.06333330273628235 0
vt 0.1000000014901161 0.1466670036315918 0
vt -3.027479983152897e-15 0.1466670036315918 0
vt -0.1000000014901161 0.1466670036315918 0
vt -0.1000000014901161 0.06333330273628235 0
vt -0.1000000014901161 5.854839962187493e-16 0
vt -3.027479983152897e-15 5.854839962187493e-16 0
vt 11.81099987030029 7.480309963226318 0
vt 106.2990036010742 7.480309963226318 0
vt 106.2990036010742 -1.413980016942199e-27 0
vt 11.81099987030029 -1.440980014018552e-27 0
vt -8.957420823031325e-27 -6.212439962283338e-28 0
vt 11.81099987030029 17.32279968261719 0
vt 106.2990036010742 17.32279968261719 0
vt 118.1100006103516 1.261168617892335e-44 0
vt 118.1100006103516 17.32279968261719 0
vt -8.957420823031325e-27 17.32279968261719 0
vt -118.1100006103516 17.32279968261719 0
vt -73.81890106201172 17.32279968261719 0
vt -88.58270263671875 7.480309963226318 0
vt -118.1100006103516 7.480309963226318 0
vt -106.2990036010742 7.480309963226318 0
vt -11.81099987030029 7.480309963226318 0
vt -11.81099987030029 3.365730003729306e-13 0
vt -106.2990036010742 3.365730003729306e-13 0
vt -118.1100006103516 6.91517020512053e-14 0
vt -106.2990036010742 17.32279968261719 0
vt -11.81099987030029 17.32279968261719 0
vt -3.575759751229396e-13 6.91517020512053e-14 0
vt -3.575759751229396e-13 17.32279968261719 0
vt -11.81099987030029 118.1100006103516 0
vt -7.105430068106433e-13 118.1100006103516 0
vt 0 7.958079724715295e-13 0
vt -11.81099987030029 6.821209721195876e-13 0
vt -106.2990036010742 5.684339853201728e-14 0
vt -118.1100006103516 0 0
vt -118.1100006103516 118.1100006103516 0
vt -106.2990036010742 118.1100006103516 0
vt -7.958079724715295e-13 17.32279968261719 0
vt -7.958079724715295e-13 0 0
vt 11.81099987030029 118.1100006103516 0
vt 106.2990036010742 118.1100006103516 0
vt 106.2990036010742 88.58270263671875 0
vt 11.81099987030029 88.58270263671875 0
vt 11.81099987030029 6.821209721195876e-13 0
vt 7.105430068106433e-13 118.1100006103516 0
vt 11.81099987030029 73.81890106201172 0
vt 11.81099987030029 44.29130172729492 0
vt 106.2990036010742 44.29130172729492 0
vt 106.2990036010742 73.81890106201172 0
vt 118.1100006103516 118.1100006103516 0
vt 106.2990036010742 5.684339853201728e-14 0
vt 118.1100006103516 -1.026929920471579e-28 0
vt 118.1100006103516 0 0
vt 7.31042993067782e-13 0 0
vt 7.31042993067782e-13 17.32279968261719 0
vt -7.179759716445522e-13 7.480309963226318 0
vt -29.5275993347168 7.480309963226318 0
vt -44.29130172729492 17.32279968261719 0
vt -7.179759716445522e-13 17.32279968261719 0
vt 11.81099987030029 6.791959572885475e-13 0
vt 11.81099987030029 29.5275993347168 0
vt 106.2990036010742 29.5275993347168 0
vt 106.2990036010742 5.391839725350442e-14 0
vt 7.555800061141704e-13 17.32279968261719 0
vt 44.29130172729492 17.32279968261719 0
vt 29.5275993347168 7.480309963226318 0
vt 7.555800061141704e-13 7.480309963226318 0
vt 106.2990036010742 46.46160125732422 0
vt 106.2990036010742 28.71770095825195 0
vt 11.81099987030029 28.71770095825195 0
vt 11.81099987030029 46.46160125732422 0
vt 73.81890106201172 17.32279968261719 0
vt 88.58270263671875 7.480309963226318 0
vt 118.1100006103516 7.480309963226318 0
vt -106.2990036010742 -69.55590057373047 0
vt -106.2990036010742 -51.81209945678711 0
vt -11.81099987030029 -51.81209945678711 0
vt -11.81099987030029 -69.55590057373047 0
vt 0.8999999761581421 4.565090421974156e-16 0
vt 0.8999999761581421 0.25 0
vt 0.1000000014901161 0.25 0
vt 0.1000000014901161 5.750530395831968e-15 0
vt 0.1000000014901161 0.75 0
vt 0.8999999761581421 0.75 0
vt -0.1000000014901161 -0.58890700340271 0
vt -0.1000000014901161 -0.4386749863624573 0
vt -0.8999999761581421 -0.4386749863624573 0
vt -0.8999999761581421 -0.58890700340271 0
vt 0.1000000014901161 0.3933750092983246 0
vt 0.1000000014901161 0.2431440055370331 0
vt 0.8999999761581421 0.2431440055370331 0
vt 0.8999999761581421 0.3933750092983246 0
vt 0.1000000014901161 -1.220029976153473e-29 0
vt 0.8999999761581421 -1.19717001526162e-29 0
vt -0.8999999761581421 2.84964986279983e-15 0
vt -0.1000000014901161 2.84964986279983e-15 0

# 34 vertex normals
vn -1 0 -6.189489974153459e-15
vn 0 1 0
vn 1 1.110630023956312e-15 6.2195401620232e-15
vn 1 0 6.545330209360885e-15
vn -9.023889855770922e-16 1 -5.928190291648852e-30
vn -4.812739985861738e-15 1.603110102166253e-32 1
vn 1 0 6.189489974153459e-15
vn 0 -1 0
vn 9.043409941798634e-15 -5.854839962187493e-16 -1
vn -1 1.110630023956312e-15 -6.2195401620232e-15
vn -1 -1.110630023956312e-15 -6.2195401620232e-15
vn 1 -1.110630023956312e-15 6.2195401620232e-15
vn -1.125579901365466e-14 -7.806459988594157e-16 1
vn 2.98844997549284e-15 -5.854839962187493e-16 -1
vn 6.467120269209106e-15 1.899769963331676e-15 -1
vn 1.125579901365466e-14 7.806459988594157e-16 -1
vn 4.812739985861738e-15 -1.603110102166253e-32 -1
vn -6.015930382162211e-15 2.84964986279983e-15 1
vn -9.043409941798634e-15 5.854839962187493e-16 1
vn -2.98844997549284e-15 5.854839962187493e-16 1
vn -1.221989948457648e-16 -1 -3.910350100312139e-16
vn -7.519909536631415e-17 -1 -4.410139771799202e-31
vn 9.023889855770922e-16 -1 5.928190291648852e-30
vn -1.221989948457648e-16 -1 3.910350100312139e-16
vn 1.199890038300615e-15 -0.8320500254631042 -0.5547000169754028
vn -1 -0 -6.545330209360885e-15
vn -1.464769946401244e-15 -0.8320500254631042 0.5547000169754028
vn 1.221989948457648e-16 1 -3.910350100312139e-16
vn 1.221989948457648e-16 1 3.910350100312139e-16
vn 1.464769946401244e-15 0.8320500254631042 -0.5547000169754028
vn 7.519909536631415e-17 1 4.410139771799202e-31
vn -1.199890038300615e-15 0.8320500254631042 0.5547000169754028
vn -6.467120269209106e-15 -1.899769963331676e-15 1
vn 6.015930382162211e-15 -2.84964986279983e-15 -1

# Mesh 'Red.Red.Red.Red.Red.Red.Red.Red.Red.Red.Red.Red.Mesh1 Hill_square Model' with 40 faces
g Red.Red.Red.Red.Red.Red.Red.Red.Red.Red.Red.Red.Mesh1 Hill_square Model
usemtl Red
f  1/1/1 2/2/1 3/3/1
f  1/1/1 3/3/1 4/4/1
f  2/5/2 5/6/2 6/7/2
f  2/5/2 6/7/2 7/8/2
f  2/5/2 7/8/2 8/9/2
f  8/9/2 3/10/2 2/5/2
f  8/11/3 7/12/3 9/13/3
f  8/11/3 9/13/3 10/14/3
f  11/15/4 12/13/4 13/12/4
f  11/15/4 13/12/4 14/16/4
f  15/17/5 16/18/5 17/19/5
f  15/17/5 17/19/5 13/20/5
f  15/17/5 13/20/5 14/21/5
f  14/21/5 18/22/5 15/17/5
f  15/11/6 18/23/6 19/24/6
f  15/11/6 19/24/6 20/25/6
f  20/25/6 21/26/6 15/11/6
f  16/11/7 15/27/7 21/28/7
f  16/11/7 21/28/7 22/26/7
f  23/29/8 24/30/8 22/31/8
f  23/29/8 22/31/8 21/4/8
f  23/29/8 21/4/8 20/32/8
f  23/29/8 20/32/8 25/33/8
f  23/29/8 25/33/8 1/5/8
f  1/5/8 4/34/8 23/29/8
f  16/3/9 22/35/9 24/36/9
f  16/3/9 24/36/9 26/37/9
f  26/37/9 17/38/9 16/3/9
f  18/39/10 14/40/10 11/41/10
f  18/39/10 11/41/10 19/42/10
f  26/43/11 12/44/11 13/45/11
f  26/43/11 13/45/11 17/3/11
f  27/46/12 28/15/12 6/16/12
f  27/46/12 6/16/12 5/47/12
f  2/48/13 1/49/13 25/50/13
f  2/48/13 25/50/13 27/51/13
f  27/51/13 5/52/13 2/48/13
f  3/53/14 8/54/14 10/55/14
f  3/53/14 10/55/14 23/56/14
f  23/56/14 4/57/14 3/53/14

# Mesh 'BackColor.BackColor.BackColor.BackColor.BackColor.BackColor.BackColor.BackColor.BackColor.BackColor.BackColor.BackColor.BackColor.BackColor.BackColor.BackColor.BackColor' with 54 faces
g BackColor.BackColor.BackColor.BackColor.BackColor.BackColor.BackColor.BackColor.BackColor.BackColor.BackColor.BackColor.BackColor.BackColor.BackColor.BackColor.BackColor
usemtl BackColor
f  27/58/15 19/59/15 20/60/15
f  27/58/15 20/60/15 25/61/15
f  1/62/16 5/63/16 27/58/15
f  27/58/15 25/61/15 1/62/16
f  20/60/15 19/59/15 18/64/17
f  18/64/17 21/65/17 20/60/15
f  18/64/17 15/66/17 21/65/17
f  1/62/16 2/67/16 5/63/16
f  17/68/3 13/69/3 12/70/3
f  17/68/3 12/70/3 26/71/3
f  26/72/18 10/73/18 23/74/18
f  26/72/18 23/74/18 24/75/18
f  22/76/19 17/77/19 26/72/18
f  26/72/18 24/75/18 22/76/19
f  23/74/18 10/73/18 8/78/20
f  8/78/20 4/79/20 23/74/18
f  8/78/20 3/80/20 4/79/20
f  22/76/19 16/68/19 17/77/19
f  23/81/2 4/82/2 1/83/2
f  23/81/2 1/83/2 25/84/2
f  23/81/2 25/84/2 20/85/2
f  23/81/2 20/85/2 21/86/2
f  23/81/2 21/86/2 22/87/2
f  23/81/2 22/87/2 24/88/2
f  4/86/7 3/68/7 2/89/7
f  4/86/7 2/89/7 1/90/7
f  10/91/21 26/92/21 12/93/21
f  10/91/21 12/93/21 9/94/21
f  5/95/8 2/83/8 3/96/8
f  5/95/8 3/96/8 8/91/8
f  5/95/8 8/91/8 7/97/8
f  7/97/8 6/98/8 5/95/8
f  14/99/22 6/98/8 7/97/8
f  14/99/22 7/97/8 13/100/22
f  16/101/23 18/102/23 14/99/22
f  16/101/23 14/99/22 13/100/22
f  13/100/22 17/92/23 16/101/23
f  16/101/23 15/103/23 18/102/23
f  22/104/1 21/105/1 15/106/1
f  22/104/1 15/106/1 16/66/1
f  19/107/12 11/108/12 14/109/12
f  19/107/12 14/109/12 18/110/12
f  27/111/24 28/112/24 11/113/24
f  27/111/24 11/113/24 19/114/24
f  5/115/10 6/116/10 28/117/10
f  5/115/10 28/117/10 27/118/10
f  14/119/25 11/120/25 28/121/25
f  14/119/25 28/121/25 6/122/25
f  14/116/26 13/123/26 12/124/26
f  14/116/26 12/124/26 11/117/26
f  10/125/11 9/124/11 7/123/11
f  10/125/11 7/123/11 8/66/11
f  12/126/27 13/127/27 7/128/27
f  12/126/27 7/128/27 9/129/27

# Mesh 'Green.Green.Green.Green.Green.Green' with 14 faces
g Green.Green.Green.Green.Green.Green
usemtl Green
f  19/130/28 11/131/28 28/132/28
f  19/130/28 28/132/28 27/133/28
f  9/134/29 12/135/29 26/19/29
f  9/134/29 26/19/29 10/9/29
f  9/136/30 7/137/30 13/138/30
f  9/136/30 13/138/30 12/139/30
f  13/20/31 7/8/31 6/7/31
f  13/20/31 6/7/31 14/21/31
f  6/140/32 28/141/32 11/142/32
f  6/140/32 11/142/32 14/143/32
f  25/144/33 20/145/33 19/24/33
f  25/144/33 19/24/33 27/51/33
f  24/146/34 23/147/34 10/55/34
f  24/146/34 10/55/34 26/37/34

