# File produced by Open Asset Import Library (http://www.assimp.sf.net)
# (assimp v4.1.908865877)

mtllib Hill_corner_01.mtl

# 21 vertex positions
v  0 0.4399999976158142 -2.093539846147706e-14
v  0 0 -2.093539846147706e-14
v  0.300000011920929 0 -1.732589969389263e-14
v  0.300000011920929 0.1899999976158142 -1.660399892393621e-14
v  0.300000011920929 0.4399999976158142 -1.660399892393621e-14
v  1.876969953973958e-14 0.4399999976158142 -3
v  0.300000011920929 0.4399999976158142 -1.869230031967163
v  0.300000011920929 0.4399999976158142 -2.700000047683716
v  1.130769968032837 0.4399999976158142 -2.700000047683716
v  3 0.4399999976158142 -2.700000047683716
v  3 0.4399999976158142 -3
v  1.876969953973958e-14 0 -3
v  3 0 -3
v  3 0 -2.700000047683716
v  3 0.1899999976158142 -2.700000047683716
v  0.300000011920929 0.8399999737739563 -2.700000047683716
v  1.649999976158142 0.1899999976158142 -2.700000047683716
v  0.300000011920929 0.1899999976158142 -1.350000023841858
v  3 0 0
v  0.300000011920929 0.1899999976158142 -2.700000047683716
v  3 0.1899999976158142 0

# 110 UV coordinates
vt -7.854799953889508e-29 0.1466670036315918 0
vt -7.854799953889508e-29 -5.447720047247424e-30 0
vt 0.1000000014901161 -5.387129614112255e-30 0
vt 0.1000000014901161 0.06333330273628235 0
vt 0.1000000014901161 0.1466670036315918 0
vt 6.256569901378316e-15 1 0
vt 0 6.978479988697158e-15 0
vt 0.1000000014901161 5.53465007318058e-15 0
vt 0.1000000014901161 0.6230769753456116 0
vt 0.1000000014901161 0.8999999761581421 0
vt 0.376922994852066 0.8999999761581421 0
vt 1 0.8999999761581421 0
vt 1 1 0
vt -6.978479988697158e-15 -5.605193857299268e-44 0
vt -6.978479988697158e-15 0.1466670036315918 0
vt -1 0.1466670036315918 0
vt -1 -1.937109953608472e-31 0
vt -1 7.248040600864314e-15 0
vt -1.02809005137817e-15 7.248040600864314e-15 0
vt -1.02809005137817e-15 0.1466670036315918 0
vt 0.8999999761581421 -8.516849807481665e-29 0
vt 1 -8.516849807481665e-29 0
vt 1 0.1466670036315918 0
vt 0.8999999761581421 0.1466670036315918 0
vt 0.8999999761581421 0.06333330273628235 0
vt -0.1000000014901161 0.2800000011920929 0
vt -0.376922994852066 0.1466670036315918 0
vt -0.1000000014901161 0.1466670036315918 0
vt 0.376922994852066 0.1466670036315918 0
vt 0.550000011920929 0.06333330273628235 0
vt 1 0.06333330273628235 0
vt -0.6230769753456116 0.1466670036315918 0
vt -0.8999999761581421 0.2800000011920929 0
vt -0.8999999761581421 0.1466670036315918 0
vt 6.123370158774314e-15 0.06333330273628235 0
vt 0.449999988079071 0.06333330273628235 0
vt 0.6230769753456116 0.1466670036315918 0
vt 6.123370158774314e-15 0.1466670036315918 0
vt -6.256569901378316e-15 1 0
vt -1 1 0
vt -1 0.8999999761581421 0
vt -1 0 0
vt -0.1000000014901161 5.775290015913159e-15 0
vt 11.81099987030029 17.32279968261719 0
vt 44.51850128173828 17.32279968261719 0
vt 64.96060180664062 7.480309963226318 0
vt 11.81099987030029 7.480309963226318 0
vt 118.1100006103516 7.480309963226318 0
vt 118.1100006103516 17.32279968261719 0
vt 64.96060180664062 106.2990036010742 0
vt 11.81099987030029 53.14960098266602 0
vt 11.81099987030029 106.2990036010742 0
vt 118.1100006103516 106.2990036010742 0
vt 11.81099987030029 6.536989916386404e-13 0
vt 118.1100006103516 0 0
vt -9.277330883117667e-27 -6.434309980771664e-28 0
vt -9.277330883117667e-27 17.32279968261719 0
vt 11.81099987030029 -6.362750127758012e-28 0
vt 118.1100006103516 -9.468300126020278e-28 0
vt 106.2990036010742 7.480309963226318 0
vt 53.14960098266602 7.480309963226318 0
vt 73.591796875 17.32279968261719 0
vt 106.2990036010742 17.32279968261719 0
vt 7.232319669363274e-13 17.32279968261719 0
vt 7.232319669363274e-13 7.480309963226318 0
vt -118.1100006103516 -2.287929993683414e-29 0
vt -118.1100006103516 17.32279968261719 0
vt -8.242300071625852e-13 17.32279968261719 0
vt -8.242300071625852e-13 -6.789291059653739e-42 0
vt -11.81099987030029 17.32279968261719 0
vt -44.51850128173828 17.32279968261719 0
vt -11.81099987030029 33.07089996337891 0
vt -1.214280005755811e-13 17.32279968261719 0
vt -1.214280005755811e-13 8.56068037638491e-13 0
vt -118.1100006103516 8.56068037638491e-13 0
vt 7.389639572995266e-13 118.1100006103516 0
vt 118.1100006103516 118.1100006103516 0
vt 44.51850128173828 106.2990036010742 0
vt 11.81099987030029 73.591796875 0
vt 0 8.242300071625852e-13 0
vt 45.93410110473633 28.37150001525879 0
vt 60.38890075683594 45.85910034179688 0
vt 83.51650238037109 73.83930206298828 0
vt 106.6439971923828 45.85910034179688 0
vt 121.0989990234375 28.37150001525879 0
vt -106.2990036010742 17.32279968261719 0
vt -106.2990036010742 33.07089996337891 0
vt -73.591796875 17.32279968261719 0
vt 6.315939524853542e-13 7.480309963226318 0
vt 106.2990036010742 0 0
vt 6.315939524853542e-13 0 0
vt 118.1100006103516 -1.005929927025371e-26 0
vt -7.389639572995266e-13 118.1100006103516 0
vt -11.81099987030029 6.821209721195876e-13 0
vt -118.1100006103516 0 0
vt -118.1100006103516 106.2990036010742 0
vt -118.1100006103516 118.1100006103516 0
vt 1 0 0
vt 0.550000011920929 0.8999999761581421 0
vt 0.1000000014901161 0.449999988079071 0
vt 1 -8.016500580630429e-30 0
vt 0.1000000014901161 -8.116120059320244e-30 0
vt 0.5112929940223694 0.3882740139961243 0
vt 0.3889090120792389 0.2402119934558868 0
vt 1.025300025939941 0.2402119934558868 0
vt 0.9029210209846497 0.3882740139961243 0
vt 0.7071070075035095 0.6251729726791382 0
vt 5.34748967315527e-15 0 0
vt 0.8999999761581421 0 0
vt 5.34748967315527e-15 0.06333330273628235 0

# 28 vertex normals
vn -1.125579901365466e-14 -7.806459988594157e-16 1
vn 0 1 0
vn -1 1.284889900436703e-15 -6.40732990752832e-15
vn 5.228479850000146e-15 -7.248040600864314e-15 -1
vn 1 8.516849807481665e-29 9.625490136118842e-15
vn 3.47587021455088e-15 -5.845960041950074e-31 -1
vn -3.384210026471414e-15 8.170920266347553e-16 1
vn -1 2.338380067119011e-30 -5.865529941498316e-15
vn 1 -2.26970005560364e-17 5.887120387807355e-15
vn 0 -1 0
vn 3.66979989013241e-15 -5.205200102356927e-16 -1
vn 3.384210026471414e-15 -8.170920266347553e-16 -1
vn 1.125579901365466e-14 7.806459988594157e-16 -1
vn 6.329590070662267e-15 1.266510026635113e-15 -1
vn -1 3.25325006397308e-17 -5.877650135940578e-15
vn -1 2.26970005560364e-17 -5.887120387807355e-15
vn 1 -1.284889900436703e-15 6.40732990752832e-15
vn -3.47587021455088e-15 5.845960041950074e-31 1
vn -5.228479850000146e-15 7.248040600864314e-15 1
vn -0.3979800045490265 -0.8265740275382996 -0.3979800045490265
vn 1 -2.338380067119011e-30 5.865529941498316e-15
vn -1 -0 -5.34748967315527e-15
vn -1 -8.516849807481665e-29 -9.625490136118842e-15
vn 1 -3.25325006397308e-17 5.877650135940578e-15
vn -3.66979989013241e-15 5.205200102356927e-16 1
vn -6.329590070662267e-15 -1.266510026635113e-15 1
vn 0.3979800045490265 0.8265740275382996 0.3979800045490265
vn 1 0 5.34748967315527e-15

# Mesh 'Red.Red.Red.Red.Red.Red.Red.Red.Mesh1 Hill_corner Model' with 26 faces
g Red.Red.Red.Red.Red.Red.Red.Red.Mesh1 Hill_corner Model
usemtl Red
f  1/1/1 2/2/1 3/3/1
f  1/1/1 3/3/1 4/4/1
f  4/4/1 5/5/1 1/1/1
f  6/6/2 1/7/2 5/8/2
f  6/6/2 5/8/2 7/9/2
f  6/6/2 7/9/2 8/10/2
f  6/6/2 8/10/2 9/11/2
f  6/6/2 9/11/2 10/12/2
f  6/6/2 10/12/2 11/13/2
f  2/14/3 1/15/3 6/16/3
f  2/14/3 6/16/3 12/17/3
f  13/18/4 12/19/4 6/20/4
f  13/18/4 6/20/4 11/16/4
f  14/21/5 13/22/5 11/23/5
f  14/21/5 11/23/5 10/24/5
f  10/24/5 15/25/5 14/21/5
f  16/26/6 9/27/6 8/28/6
f  10/23/7 9/29/7 17/30/7
f  10/23/7 17/30/7 15/31/7
f  7/32/8 16/33/8 8/34/8
f  4/35/9 18/36/9 7/37/9
f  4/35/9 7/37/9 5/38/9
f  2/7/10 12/39/10 13/40/10
f  2/7/10 13/40/10 14/41/10
f  2/7/10 14/41/10 19/42/10
f  19/42/10 3/43/10 2/7/10

# Mesh 'BackColor.BackColor.BackColor.BackColor.BackColor.BackColor.BackColor.BackColor.BackColor.BackColor.BackColor.BackColor.BackColor.BackColor.BackColor' with 41 faces
g BackColor.BackColor.BackColor.BackColor.BackColor.BackColor.BackColor.BackColor.BackColor.BackColor.BackColor.BackColor.BackColor.BackColor.BackColor
usemtl BackColor
f  8/44/11 9/45/11 17/46/11
f  8/44/11 17/46/11 20/47/11
f  15/48/12 17/46/11 9/45/11
f  15/48/12 9/45/11 10/49/12
f  17/50/10 18/51/10 20/52/10
f  18/51/10 17/50/10 15/53/10
f  15/53/10 4/54/10 18/51/10
f  15/53/10 21/55/10 4/54/10
f  2/56/13 1/57/13 5/44/13
f  2/56/13 5/44/13 4/47/13
f  4/47/13 3/58/13 2/56/13
f  3/58/13 4/47/13 21/48/14
f  3/58/13 21/48/14 19/59/14
f  20/60/15 18/61/15 7/62/15
f  20/60/15 7/62/15 8/63/15
f  5/64/16 7/62/15 18/61/15
f  5/64/16 18/61/15 4/65/16
f  12/66/17 6/67/17 1/68/17
f  12/66/17 1/68/17 2/69/17
f  8/70/18 9/71/18 16/72/18
f  11/67/19 6/73/19 12/74/19
f  11/67/19 12/74/19 13/75/19
f  6/76/10 11/77/10 10/53/10
f  6/76/10 10/53/10 9/78/10
f  6/76/10 9/78/10 8/52/10
f  6/76/10 8/52/10 7/79/10
f  6/76/10 7/79/10 5/54/10
f  5/54/10 1/80/10 6/76/10
f  18/81/20 7/82/20 16/83/20
f  18/81/20 16/83/20 9/84/20
f  9/84/20 17/85/20 18/81/20
f  8/86/21 16/87/21 7/88/21
f  21/89/22 15/60/22 14/90/22
f  21/89/22 14/90/22 19/91/22
f  13/92/23 14/90/22 15/60/22
f  13/92/23 15/60/22 10/63/23
f  10/63/23 11/49/23 13/92/23
f  12/93/2 2/80/2 3/94/2
f  12/93/2 3/94/2 19/95/2
f  12/93/2 19/95/2 14/96/2
f  14/96/2 13/97/2 12/93/2

# Mesh 'FrontColor.FrontColor.FrontColor' with 5 faces
g FrontColor.FrontColor.FrontColor
usemtl FrontColor
f  8/63/24 7/62/24 18/61/24
f  8/63/24 18/61/24 20/60/24
f  20/47/25 17/46/25 9/45/25
f  20/47/25 9/45/25 8/44/25
f  20/52/2 18/51/2 17/50/2

# Mesh 'Green.Green.Green.Green' with 10 faces
g Green.Green.Green.Green
usemtl Green
f  21/98/2 15/12/2 17/99/2
f  21/98/2 17/99/2 18/100/2
f  18/100/2 4/8/2 21/98/2
f  19/101/26 21/31/26 4/4/26
f  19/101/26 4/4/26 3/102/26
f  7/103/27 18/104/27 17/105/27
f  7/103/27 17/105/27 9/106/27
f  9/106/27 16/107/27 7/103/27
f  19/108/28 14/109/28 15/25/28
f  19/108/28 15/25/28 21/110/28

