# File produced by Open Asset Import Library (http://www.assimp.sf.net)
# (assimp v4.1.327737527)

mtllib Hole_open_01.mtl

# 56 vertex positions
v  0 0 -2.021349938558653e-14
v  3 0 0
v  3 0.1899999976158142 0
v  0 0.1899999976158142 -2.021349938558653e-14
v  1.358579993247986 0.1899999976158142 -1.358579993247986
v  1.732589969389263e-14 0.1899999976158142 -3
v  1.326789975166321 0.1899999976158142 -1.399999976158142
v  1.399999976158142 0.1899999976158142 -1.326789975166321
v  1.306810021400452 0.1899999976158142 -1.448240041732788
v  1.299999952316284 0.1899999976158142 -1.5
v  1.306810021400452 0.1899999976158142 -1.551759958267212
v  1.358579993247986 0.1899999976158142 -1.641420006752014
v  3 0.1899999976158142 -3
v  1.326789975166321 0.1899999976158142 -1.600000023841858
v  1.399999976158142 0.1899999976158142 -1.673210024833679
v  1.448240041732788 0.1899999976158142 -1.693189978599548
v  1.5 0.1899999976158142 -1.700000047683716
v  1.551759958267212 0.1899999976158142 -1.693189978599548
v  1.600000023841858 0.1899999976158142 -1.673210024833679
v  1.641420006752014 0.1899999976158142 -1.641420006752014
v  1.673210024833679 0.1899999976158142 -1.600000023841858
v  1.693189978599548 0.1899999976158142 -1.551759958267212
v  1.700000047683716 0.1899999976158142 -1.5
v  1.693189978599548 0.1899999976158142 -1.448240041732788
v  1.673210024833679 0.1899999976158142 -1.399999976158142
v  1.641420006752014 0.1899999976158142 -1.358579993247986
v  1.600000023841858 0.1899999976158142 -1.326789975166321
v  1.551759958267212 0.1899999976158142 -1.306810021400452
v  1.5 0.1899999976158142 -1.299999952316284
v  1.448240041732788 0.1899999976158142 -1.306810021400452
v  1.732589969389263e-14 0 -3
v  3 0 -3
v  1.5 0.0949999988079071 -1.299999952316284
v  1.551759958267212 0.0949999988079071 -1.306810021400452
v  1.600000023841858 0.0949999988079071 -1.326789975166321
v  1.641420006752014 0.0949999988079071 -1.358579993247986
v  1.673210024833679 0.0949999988079071 -1.399999976158142
v  1.693189978599548 0.0949999988079071 -1.448240041732788
v  1.700000047683716 0.0949999988079071 -1.5
v  1.326789975166321 0.0949999988079071 -1.399999976158142
v  1.358579993247986 0.0949999988079071 -1.358579993247986
v  1.673210024833679 0.0949999988079071 -1.600000023841858
v  1.693189978599548 0.0949999988079071 -1.551759958267212
v  1.448240041732788 0.0949999988079071 -1.306810021400452
v  1.399999976158142 0.0949999988079071 -1.326789975166321
v  1.306810021400452 0.0949999988079071 -1.448240041732788
v  1.299999952316284 0.0949999988079071 -1.5
v  1.306810021400452 0.0949999988079071 -1.551759958267212
v  1.326789975166321 0.0949999988079071 -1.600000023841858
v  1.358579993247986 0.0949999988079071 -1.641420006752014
v  1.399999976158142 0.0949999988079071 -1.673210024833679
v  1.448240041732788 0.0949999988079071 -1.693189978599548
v  1.5 0.0949999988079071 -1.700000047683716
v  1.551759958267212 0.0949999988079071 -1.693189978599548
v  1.600000023841858 0.0949999988079071 -1.673210024833679
v  1.641420006752014 0.0949999988079071 -1.641420006752014

# 188 UV coordinates
vt -4.454329895830794e-29 -1.821688003622262e-44 0
vt 1 -1.821688003622262e-44 0
vt 1 0.06333330273628235 0
vt -4.454329895830794e-29 0.06333330273628235 0
vt 0.4528599977493286 0.4528599977493286 0
vt 8.082000434993246e-18 6.73784004596458e-15 0
vt 1 -1.279320030417988e-30 0
vt 5.783369863197017e-15 1 0
vt 0.4422650039196014 0.4666669964790344 0
vt 0.4666669964790344 0.4422650039196014 0
vt 0.435604989528656 0.4827449917793274 0
vt 0.4333330094814301 0.5 0
vt 0.435604989528656 0.5172550082206726 0
vt 0.4528599977493286 0.5471400022506714 0
vt 1 1 0
vt 0.4422650039196014 0.5333330035209656 0
vt 0.4666669964790344 0.5577350258827209 0
vt 0.4827449917793274 0.564395010471344 0
vt 0.5 0.5666670203208923 0
vt 0.5172550082206726 0.564395010471344 0
vt 0.5333330035209656 0.5577350258827209 0
vt 0.5471400022506714 0.5471400022506714 0
vt 0.5577350258827209 0.5333330035209656 0
vt 0.564395010471344 0.5172550082206726 0
vt 0.5666670203208923 0.5 0
vt 0.564395010471344 0.4827449917793274 0
vt 0.5577350258827209 0.4666669964790344 0
vt 0.5471400022506714 0.4528599977493286 0
vt 0.5333330035209656 0.4422650039196014 0
vt 0.5172550082206726 0.435604989528656 0
vt 0.5 0.4333330094814301 0
vt 0.4827449917793274 0.435604989528656 0
vt -6.73784004596458e-15 -4.624284932271896e-44 0
vt -6.73784004596458e-15 0.06333330273628235 0
vt -1 0.06333330273628235 0
vt -1 -1.650559930807393e-31 0
vt -1 4.507440300792844e-16 0
vt 1.87750014365938e-16 4.507440300792844e-16 0
vt 1.87750014365938e-16 0.06333330273628235 0
vt 6.189489974153459e-15 0.06333330273628235 0
vt 6.189489974153459e-15 0 0
vt 1 0 0
vt -5.775290015913159e-15 1 0
vt -1 1 0
vt -1 0 0
vt 0 6.73784004596458e-15 0
vt -118.1100006103516 -1.949480005098615e-29 0
vt -118.1100006103516 7.480309963226318 0
vt -7.958079724715295e-13 7.480309963226318 0
vt -7.958079724715295e-13 -5.585575678798721e-42 0
vt -65.23040008544922 3.74015998840332 0
vt -67.28589630126953 3.74015998840332 0
vt -67.28589630126953 7.480309963226318 0
vt -65.23040008544922 7.480309963226318 0
vt -5.261010443788125e-27 7.480309963226318 0
vt 118.1100006103516 7.480309963226318 0
vt 118.1100006103516 -2.202841185918612e-42 0
vt -5.261010443788125e-27 -2.246281438312682e-42 0
vt -76.13150024414062 3.74015998840332 0
vt -78.18699645996094 3.74015998840332 0
vt -78.18699645996094 7.480309963226318 0
vt -76.13150024414062 7.480309963226318 0
vt 2.217519889230728e-14 7.480309963226318 0
vt 2.217519889230728e-14 5.323749796039279e-14 0
vt -118.1100006103516 5.323749796039279e-14 0
vt -81.77429962158203 3.74015998840332 0
vt -83.82980346679688 3.74015998840332 0
vt -83.82980346679688 7.480309963226318 0
vt -81.77429962158203 7.480309963226318 0
vt 6.830759916032214e-13 118.1100006103516 0
vt 53.48730087280273 53.48730087280273 0
vt 9.5456801507297e-16 7.958079724715295e-13 0
vt 52.23600006103516 55.11809921264648 0
vt 118.1100006103516 118.1100006103516 0
vt 53.48730087280273 64.62290191650391 0
vt 52.23600006103516 62.99209976196289 0
vt 51.44940185546875 61.09310150146484 0
vt 51.18109893798828 59.05509948730469 0
vt 51.44940185546875 57.0172004699707 0
vt 118.1100006103516 -1.511009884210259e-28 0
vt 55.11809921264648 52.23600006103516 0
vt 57.0172004699707 51.44940185546875 0
vt 59.05509948730469 51.18109893798828 0
vt 61.09310150146484 51.44940185546875 0
vt 62.99209976196289 52.23600006103516 0
vt 64.62290191650391 53.48730087280273 0
vt 65.87419891357422 55.11809921264648 0
vt 66.66079711914062 57.0172004699707 0
vt 66.92910003662109 59.05509948730469 0
vt 66.66079711914062 61.09310150146484 0
vt 65.87419891357422 62.99209976196289 0
vt 64.62290191650391 64.62290191650391 0
vt 62.99209976196289 65.87419891357422 0
vt 61.09310150146484 66.66079711914062 0
vt 59.05509948730469 66.92910003662109 0
vt 57.0172004699707 66.66079711914062 0
vt 55.11809921264648 65.87419891357422 0
vt 118.1100006103516 0 0
vt 7.31042993067782e-13 0 0
vt 7.31042993067782e-13 7.480309963226318 0
vt 11.92889976501465 3.74015998840332 0
vt 9.873330116271973 3.74015998840332 0
vt 9.873330116271973 7.480309963226318 0
vt 11.92889976501465 7.480309963226318 0
vt -49.81389999389648 3.74015998840332 0
vt -51.86940002441406 3.74015998840332 0
vt -51.86940002441406 7.480309963226318 0
vt -49.81389999389648 7.480309963226318 0
vt -30.9326000213623 3.74015998840332 0
vt -32.98820114135742 3.74015998840332 0
vt -32.98820114135742 7.480309963226318 0
vt -30.9326000213623 7.480309963226318 0
vt -9.873330116271973 3.74015998840332 0
vt -11.92889976501465 3.74015998840332 0
vt -11.92889976501465 7.480309963226318 0
vt -9.873330116271973 7.480309963226318 0
vt 83.82980346679688 3.74015998840332 0
vt 81.77429962158203 3.74015998840332 0
vt 81.77429962158203 7.480309963226318 0
vt 83.82980346679688 7.480309963226318 0
vt 32.98820114135742 3.74015998840332 0
vt 30.9326000213623 3.74015998840332 0
vt 30.9326000213623 7.480309963226318 0
vt 32.98820114135742 7.480309963226318 0
vt 51.86940002441406 3.74015998840332 0
vt 49.81389999389648 3.74015998840332 0
vt 49.81389999389648 7.480309963226318 0
vt 51.86940002441406 7.480309963226318 0
vt 67.28589630126953 3.74015998840332 0
vt 65.23040008544922 3.74015998840332 0
vt 65.23040008544922 7.480309963226318 0
vt 67.28589630126953 7.480309963226318 0
vt 78.18699645996094 3.74015998840332 0
vt 76.13150024414062 3.74015998840332 0
vt 76.13150024414062 7.480309963226318 0
vt 78.18699645996094 7.480309963226318 0
vt 0 7.958079724715295e-13 0
vt -118.1100006103516 0 0
vt -118.1100006103516 118.1100006103516 0
vt -6.821209721195876e-13 118.1100006103516 0
vt -0.6445800065994263 0.06333330273628235 0
vt -0.6619830131530762 0.06333330273628235 0
vt -0.6619830131530762 0.03166669979691505 0
vt -0.6445800065994263 0.03166669979691505 0
vt 0.4391610026359558 0.06333330273628235 0
vt 0.4217579960823059 0.06333330273628235 0
vt 0.4217579960823059 0.03166669979691505 0
vt 0.4391610026359558 0.03166669979691505 0
vt 0.2793000042438507 0.06333330273628235 0
vt 0.261896014213562 0.06333330273628235 0
vt 0.261896014213562 0.03166669979691505 0
vt 0.2793000042438507 0.03166669979691505 0
vt 0.5696870088577271 0.06333330273628235 0
vt 0.5522840023040771 0.06333330273628235 0
vt 0.5522840023040771 0.03166669979691505 0
vt 0.5696870088577271 0.03166669979691505 0
vt -0.261896014213562 0.06333330273628235 0
vt -0.2793000042438507 0.06333330273628235 0
vt -0.2793000042438507 0.03166669979691505 0
vt -0.261896014213562 0.03166669979691505 0
vt 0.6619830131530762 0.06333330273628235 0
vt 0.6445800065994263 0.06333330273628235 0
vt 0.6445800065994263 0.03166669979691505 0
vt 0.6619830131530762 0.03166669979691505 0
vt -0.08359420299530029 0.06333330273628235 0
vt -0.1009979993104935 0.06333330273628235 0
vt -0.1009979993104935 0.03166669979691505 0
vt -0.08359420299530029 0.03166669979691505 0
vt 0.709758996963501 0.06333330273628235 0
vt 0.6923559904098511 0.06333330273628235 0
vt 0.6923559904098511 0.03166669979691505 0
vt 0.709758996963501 0.03166669979691505 0
vt 0.1009979993104935 0.06333330273628235 0
vt 0.08359420299530029 0.06333330273628235 0
vt 0.08359420299530029 0.03166669979691505 0
vt 0.1009979993104935 0.03166669979691505 0
vt -0.4217579960823059 0.06333330273628235 0
vt -0.4391610026359558 0.06333330273628235 0
vt -0.4391610026359558 0.03166669979691505 0
vt -0.4217579960823059 0.03166669979691505 0
vt -0.6923559904098511 0.06333330273628235 0
vt -0.709758996963501 0.06333330273628235 0
vt -0.709758996963501 0.03166669979691505 0
vt -0.6923559904098511 0.03166669979691505 0
vt -0.5522840023040771 0.06333330273628235 0
vt -0.5696870088577271 0.06333330273628235 0
vt -0.5696870088577271 0.03166669979691505 0
vt -0.5522840023040771 0.03166669979691505 0

# 38 vertex normals
vn -6.610910041236154e-15 -2.820310181464613e-30 1
vn -1.276109927482379e-16 1 -2.019989955458678e-29
vn -1 1.186049943458954e-15 -5.914460070245882e-15
vn 5.963039950869758e-15 -4.507440300792844e-16 -1
vn 1 0 6.189489974153459e-15
vn 0 -1 0
vn 1 -1.186049943458954e-15 5.914460070245882e-15
vn 1.721699920896299e-15 0 1
vn 0.2588190138339996 0 0.9659259915351868
vn 6.610910041236154e-15 2.820310181464613e-30 -1
vn 0.5 0 0.8660249710083008
vn -5.963039950869758e-15 4.507440300792844e-16 1
vn 0.7071070075035095 0 0.7071070075035095
vn 1.276109927482379e-16 -1 2.019989955458678e-29
vn 0.8660249710083008 0 0.5
vn -1 -0 -6.189489974153459e-15
vn 0.9659259915351868 0 0.2588190138339996
vn 1 0 2.239609904984146e-16
vn -0.8660249710083008 0 0.5
vn -0.7071070075035095 0 0.7071070075035095
vn -0.2588190138339996 0 0.9659259915351868
vn 0.9659259915351868 0 -0.2588190138339996
vn 0.8660249710083008 0 -0.5
vn -0.5 0 0.8660249710083008
vn 0.7071070075035095 0 -0.7071070075035095
vn 0.5 0 -0.8660249710083008
vn -0.5 -0 -0.8660249710083008
vn -0.7071070075035095 -0 -0.7071070075035095
vn 0.2588190138339996 0 -0.9659259915351868
vn -0 -0 -1
vn -0.2588190138339996 -0 -0.9659259915351868
vn -0.8660249710083008 -0 -0.5
vn -0.9659259915351868 -0 -0.2588190138339996
vn -1 -0 -2.239609904984146e-16
vn -0.9659259915351868 0 0.2588190138339996
vn 0 1 0
vn 0 0 1
vn -1.721699920896299e-15 0 -1

# Mesh 'Green.Green.Green.Green.Green.Green.Green.Green.Green.Green.Green.Green.Mesh1 Hole_open Model' with 38 faces
g Green.Green.Green.Green.Green.Green.Green.Green.Green.Green.Green.Green.Mesh1 Hole_open Model
usemtl Green
f  1/1/1 2/2/1 3/3/1
f  1/1/1 3/3/1 4/4/1
f  5/5/2 4/6/2 3/7/2
f  4/6/2 5/5/2 6/8/2
f  6/8/2 5/5/2 7/9/2
f  5/5/2 3/7/2 8/10/2
f  6/8/2 7/9/2 9/11/2
f  6/8/2 9/11/2 10/12/2
f  11/13/2 6/8/2 10/12/2
f  6/8/2 12/14/2 13/15/2
f  12/14/2 6/8/2 14/16/2
f  14/16/2 6/8/2 11/13/2
f  13/15/2 12/14/2 15/17/2
f  13/15/2 15/17/2 16/18/2
f  13/15/2 16/18/2 17/19/2
f  13/15/2 17/19/2 18/20/2
f  13/15/2 18/20/2 19/21/2
f  13/15/2 19/21/2 20/22/2
f  13/15/2 20/22/2 21/23/2
f  13/15/2 21/23/2 22/24/2
f  13/15/2 22/24/2 23/25/2
f  13/15/2 23/25/2 3/7/2
f  24/26/2 3/7/2 23/25/2
f  25/27/2 3/7/2 24/26/2
f  26/28/2 3/7/2 25/27/2
f  27/29/2 3/7/2 26/28/2
f  28/30/2 3/7/2 27/29/2
f  29/31/2 3/7/2 28/30/2
f  30/32/2 3/7/2 29/31/2
f  8/10/2 3/7/2 30/32/2
f  1/33/3 4/34/3 6/35/3
f  1/33/3 6/35/3 31/36/3
f  13/35/4 32/37/4 31/38/4
f  13/35/4 31/38/4 6/39/4
f  13/3/5 3/40/5 2/41/5
f  13/3/5 2/41/5 32/42/5
f  31/43/6 32/44/6 2/45/6
f  31/43/6 2/45/6 1/46/6

# Mesh 'BackColor.BackColor.BackColor.BackColor.BackColor.BackColor.BackColor.BackColor.BackColor.BackColor.BackColor.BackColor.BackColor.BackColor.BackColor.BackColor.BackColor.BackColor.BackColor.BackColor.BackColor.BackColor.BackColor.BackColor.BackColor.BackColor.BackColor.BackColor.BackColor.BackColor.BackColor.BackColor.BackColor.BackColor.BackColor.BackColor.BackColor' with 108 faces
g BackColor.BackColor.BackColor.BackColor.BackColor.BackColor.BackColor.BackColor.BackColor.BackColor.BackColor.BackColor.BackColor.BackColor.BackColor.BackColor.BackColor.BackColor.BackColor.BackColor.BackColor.BackColor.BackColor.BackColor.BackColor.BackColor.BackColor.BackColor.BackColor.BackColor.BackColor.BackColor.BackColor.BackColor.BackColor.BackColor.BackColor
usemtl BackColor
f  31/47/7 6/48/7 4/49/7
f  31/47/7 4/49/7 1/50/7
f  33/51/8 34/52/9 28/53/9
f  33/51/8 28/53/9 29/54/8
f  4/55/10 3/56/10 2/57/10
f  4/55/10 2/57/10 1/58/10
f  34/59/9 35/60/11 27/61/11
f  34/59/9 27/61/11 28/62/9
f  6/63/12 31/64/12 32/65/12
f  6/63/12 32/65/12 13/48/12
f  35/66/11 36/67/13 26/68/13
f  35/66/11 26/68/13 27/69/11
f  6/70/14 5/71/14 4/72/14
f  7/73/14 5/71/14 6/70/14
f  13/74/14 12/75/14 6/70/14
f  14/76/14 6/70/14 12/75/14
f  11/77/14 6/70/14 14/76/14
f  10/78/14 6/70/14 11/77/14
f  9/79/14 7/73/14 6/70/14
f  10/78/14 9/79/14 6/70/14
f  3/80/14 4/72/14 5/71/14
f  8/81/14 3/80/14 5/71/14
f  30/82/14 3/80/14 8/81/14
f  29/83/14 3/80/14 30/82/14
f  28/84/14 3/80/14 29/83/14
f  27/85/14 3/80/14 28/84/14
f  26/86/14 3/80/14 27/85/14
f  25/87/14 3/80/14 26/86/14
f  24/88/14 3/80/14 25/87/14
f  23/89/14 3/80/14 24/88/14
f  3/80/14 23/89/14 13/74/14
f  23/89/14 22/90/14 13/74/14
f  22/90/14 21/91/14 13/74/14
f  21/91/14 20/92/14 13/74/14
f  20/92/14 19/93/14 13/74/14
f  19/93/14 18/94/14 13/74/14
f  18/94/14 17/95/14 13/74/14
f  17/95/14 16/96/14 13/74/14
f  15/97/14 12/75/14 13/74/14
f  16/96/14 15/97/14 13/74/14
f  36/66/13 37/67/15 25/68/15
f  36/66/13 25/68/15 26/69/13
f  32/98/16 2/99/16 3/100/16
f  32/98/16 3/100/16 13/56/16
f  37/59/15 38/60/17 24/61/17
f  37/59/15 24/61/17 25/62/15
f  38/51/17 39/52/18 23/53/18
f  38/51/17 23/53/18 24/54/17
f  40/101/19 41/102/20 5/103/20
f  40/101/19 5/103/20 7/104/19
f  42/91/6 43/90/6 39/89/6
f  42/91/6 39/89/6 38/88/6
f  42/91/6 38/88/6 37/87/6
f  42/91/6 37/87/6 36/86/6
f  42/91/6 36/86/6 35/85/6
f  42/91/6 35/85/6 34/84/6
f  42/91/6 34/84/6 33/83/6
f  42/91/6 33/83/6 44/82/6
f  42/91/6 44/82/6 45/81/6
f  42/91/6 45/81/6 41/71/6
f  42/91/6 41/71/6 40/73/6
f  42/91/6 40/73/6 46/79/6
f  42/91/6 46/79/6 47/78/6
f  42/91/6 47/78/6 48/77/6
f  42/91/6 48/77/6 49/76/6
f  42/91/6 49/76/6 50/75/6
f  42/91/6 50/75/6 51/97/6
f  42/91/6 51/97/6 52/96/6
f  42/91/6 52/96/6 53/95/6
f  42/91/6 53/95/6 54/94/6
f  42/91/6 54/94/6 55/93/6
f  55/93/6 56/92/6 42/91/6
f  44/105/21 33/106/8 29/107/8
f  44/105/21 29/107/8 30/108/21
f  43/109/22 42/110/23 21/111/23
f  43/109/22 21/111/23 22/112/22
f  39/105/18 43/106/22 22/107/22
f  39/105/18 22/107/22 23/108/18
f  41/113/20 45/114/24 8/115/24
f  41/113/20 8/115/24 5/116/20
f  42/113/23 56/114/25 20/115/25
f  42/113/23 20/115/25 21/116/23
f  56/101/25 55/102/26 19/103/26
f  56/101/25 19/103/26 20/104/25
f  51/117/27 50/118/28 12/119/28
f  51/117/27 12/119/28 15/120/27
f  55/121/26 54/122/29 18/123/29
f  55/121/26 18/123/29 19/124/26
f  54/125/29 53/126/30 17/127/30
f  54/125/29 17/127/30 18/128/29
f  53/129/30 52/130/31 16/131/31
f  53/129/30 16/131/31 17/132/30
f  45/109/24 44/110/21 30/111/21
f  45/109/24 30/111/21 8/112/24
f  52/133/31 51/134/27 15/135/27
f  52/133/31 15/135/27 16/136/31
f  49/133/32 48/134/33 11/135/33
f  49/133/32 11/135/33 14/136/32
f  50/117/28 49/118/32 14/119/32
f  50/117/28 14/119/32 12/120/28
f  48/129/33 47/130/34 10/131/34
f  48/129/33 10/131/34 11/132/33
f  46/121/35 40/122/19 7/123/19
f  46/121/35 7/123/19 9/124/35
f  47/125/34 46/126/35 9/127/35
f  47/125/34 9/127/35 10/128/34
f  1/137/36 2/138/36 32/139/36
f  1/137/36 32/139/36 31/140/36

# Mesh 'Red.Red.Red.Red.Red.Red.Red.Red.Red.Red.Red.Red.Red.Red.Red.Red.Red.Red.Red.Red.Red.Red.Red.Red' with 48 faces
g Red.Red.Red.Red.Red.Red.Red.Red.Red.Red.Red.Red.Red.Red.Red.Red.Red.Red.Red.Red.Red.Red.Red.Red
usemtl Red
f  28/141/31 27/142/27 35/143/27
f  28/141/31 35/143/27 34/144/31
f  10/145/18 9/146/22 46/147/22
f  10/145/18 46/147/22 47/148/18
f  9/149/22 7/150/23 40/151/23
f  9/149/22 40/151/23 46/152/22
f  11/153/17 10/154/18 47/155/18
f  11/153/17 47/155/18 48/156/17
f  8/157/26 30/158/29 44/159/29
f  8/157/26 44/159/29 45/160/26
f  14/161/15 11/162/17 48/163/17
f  14/161/15 48/163/17 49/164/15
f  16/161/9 15/162/11 51/163/11
f  16/161/9 51/163/11 52/164/9
f  17/153/37 16/154/9 52/155/9
f  17/153/37 52/155/9 53/156/37
f  5/165/25 8/166/26 45/167/26
f  5/165/25 45/167/26 41/168/25
f  18/145/21 17/146/37 53/147/37
f  18/145/21 53/147/37 54/148/21
f  12/169/13 14/170/15 49/171/15
f  12/169/13 49/171/15 50/172/13
f  19/149/24 18/150/21 54/151/21
f  19/149/24 54/151/21 55/152/24
f  15/169/11 12/170/13 50/171/13
f  15/169/11 50/171/13 51/172/11
f  20/173/20 19/174/24 55/175/24
f  20/173/20 55/175/24 56/176/20
f  21/165/19 20/166/20 56/167/20
f  21/165/19 56/167/20 42/168/19
f  23/177/34 22/178/35 43/179/35
f  23/177/34 43/179/35 39/180/34
f  22/157/35 21/158/19 42/159/19
f  22/157/35 42/159/19 43/160/35
f  27/181/27 26/182/28 36/183/28
f  27/181/27 36/183/28 35/184/27
f  30/177/29 29/178/38 33/179/38
f  30/177/29 33/179/38 44/180/29
f  7/173/23 5/174/25 41/175/25
f  7/173/23 41/175/25 40/176/23
f  24/185/33 23/186/34 39/187/34
f  24/185/33 39/187/34 38/188/33
f  25/141/32 24/142/33 38/143/33
f  25/141/32 38/143/33 37/144/32
f  26/181/28 25/182/32 37/183/32
f  26/181/28 37/183/32 36/184/28
f  29/185/38 28/186/31 34/187/31
f  29/185/38 34/187/31 33/188/38

# Mesh 'Dark_grey' with 22 faces
g Dark_grey
usemtl Dark_grey
f  43/24/36 42/23/36 56/22/36
f  43/24/36 56/22/36 55/21/36
f  43/24/36 55/21/36 54/20/36
f  43/24/36 54/20/36 53/19/36
f  43/24/36 53/19/36 52/18/36
f  43/24/36 52/18/36 51/17/36
f  43/24/36 51/17/36 50/14/36
f  43/24/36 50/14/36 49/16/36
f  43/24/36 49/16/36 48/13/36
f  43/24/36 48/13/36 47/12/36
f  43/24/36 47/12/36 46/11/36
f  43/24/36 46/11/36 40/9/36
f  43/24/36 40/9/36 41/5/36
f  43/24/36 41/5/36 45/10/36
f  43/24/36 45/10/36 44/32/36
f  43/24/36 44/32/36 33/31/36
f  43/24/36 33/31/36 34/30/36
f  43/24/36 34/30/36 35/29/36
f  43/24/36 35/29/36 36/28/36
f  43/24/36 36/28/36 37/27/36
f  43/24/36 37/27/36 38/26/36
f  38/26/36 39/25/36 43/24/36

