# Blender v2.78 (sub 0) OBJ File: ''
# www.blender.org
mtllib Hole_square_01.mtl
o Mesh1_Hole_square_Model
v 0.000000 0.000000 -3.000000
v 3.000000 0.000000 -3.000000
v 3.000000 0.000000 0.000000
v 2.700000 0.000000 -0.000000
v 0.300000 0.000000 -0.000000
v 0.000000 0.000000 -0.000000
v 0.300000 0.190000 0.000000
v 0.300000 0.440000 0.000000
v 0.000000 0.440000 0.000000
v 3.000000 0.440000 -3.000000
v 0.000000 0.440000 -3.000000
v 0.300000 0.440000 -2.700000
v 2.700000 0.440000 -2.700000
v 2.700000 0.440000 0.000000
v 3.000000 0.440000 0.000000
v 2.700000 0.190000 0.000000
v 1.358580 0.190000 -1.358580
v 0.300000 0.190000 -2.700000
v 1.326790 0.190000 -1.400000
v 1.358580 0.095000 -1.358580
v 1.326790 0.095000 -1.400000
v 1.673210 0.095000 -1.600000
v 1.641420 0.095000 -1.641420
v 1.600000 0.095000 -1.673210
v 1.551760 0.095000 -1.693190
v 1.500000 0.095000 -1.700000
v 1.448240 0.095000 -1.693190
v 1.400000 0.095000 -1.673210
v 1.358580 0.095000 -1.641420
v 1.326790 0.095000 -1.600000
v 1.306810 0.095000 -1.551760
v 1.300000 0.095000 -1.500000
v 1.306810 0.095000 -1.448240
v 1.400000 0.095000 -1.326790
v 1.448240 0.095000 -1.306810
v 1.500000 0.095000 -1.300000
v 1.551760 0.095000 -1.306810
v 1.600000 0.095000 -1.326790
v 1.641420 0.095000 -1.358580
v 1.673210 0.095000 -1.400000
v 1.693190 0.095000 -1.448240
v 1.700000 0.095000 -1.500000
v 1.693190 0.095000 -1.551760
v 1.700000 0.190000 -1.500000
v 1.693190 0.190000 -1.551760
v 2.700000 0.190000 -2.700000
v 1.673210 0.190000 -1.600000
v 1.641420 0.190000 -1.641420
v 1.600000 0.190000 -1.673210
v 1.551760 0.190000 -1.693190
v 1.500000 0.190000 -1.700000
v 1.448240 0.190000 -1.693190
v 1.400000 0.190000 -1.673210
v 1.358580 0.190000 -1.641420
v 1.326790 0.190000 -1.600000
v 1.306810 0.190000 -1.551760
v 1.300000 0.190000 -1.500000
v 1.306810 0.190000 -1.448240
v 1.693190 0.190000 -1.448240
v 1.673210 0.190000 -1.400000
v 1.641420 0.190000 -1.358580
v 1.600000 0.190000 -1.326790
v 1.551760 0.190000 -1.306810
v 1.500000 0.190000 -1.300000
v 1.448240 0.190000 -1.306810
v 1.400000 0.190000 -1.326790
vt -0.0000 1.0000
vt -1.0000 1.0000
vt -1.0000 0.0000
vt -0.9000 0.0000
vt -0.1000 0.0000
vt 0.0000 0.0000
vt 0.1000 -0.0000
vt 0.1000 0.0633
vt 0.1000 0.1467
vt -0.0000 0.1467
vt 1.0000 1.0000
vt 0.0000 1.0000
vt 0.0000 0.0000
vt 0.1000 0.0000
vt 0.1000 0.9000
vt 0.9000 0.9000
vt 0.9000 0.0000
vt 1.0000 -0.0000
vt 0.9000 0.1467
vt 0.9000 0.0633
vt 0.9000 0.0000
vt 1.0000 0.0000
vt 1.0000 0.1467
vt 1.0000 0.1467
vt 0.0000 0.1467
vt 0.0000 0.0000
vt 1.0000 0.0000
vt -1.0000 0.1467
vt -1.0000 0.0000
vt 0.0000 0.0000
vt 0.0000 0.1467
vt -1.0000 0.1467
vt -1.0000 -0.0000
vt 0.1010 0.0633
vt 0.0836 0.0633
vt 0.0836 0.0317
vt 0.1010 0.0317
vt -0.4218 0.0633
vt -0.4392 0.0633
vt -0.4392 0.0317
vt -0.4218 0.0317
vt 0.7098 0.0633
vt 0.6924 0.0633
vt 0.6924 0.0317
vt 0.7098 0.0317
vt 0.7098 0.0633
vt 0.6924 0.0633
vt 0.6924 0.0317
vt 0.7098 0.0317
vt 0.2793 0.0633
vt 0.2619 0.0633
vt 0.2619 0.0317
vt 0.2793 0.0317
vt 0.4392 0.0633
vt 0.4218 0.0633
vt 0.4218 0.0317
vt 0.4392 0.0317
vt 0.5697 0.0633
vt 0.5523 0.0633
vt 0.5523 0.0317
vt 0.5697 0.0317
vt 0.6620 0.0633
vt 0.6446 0.0633
vt 0.6446 0.0317
vt 0.6620 0.0317
vt 0.6620 0.0633
vt 0.6446 0.0633
vt 0.6446 0.0317
vt 0.6620 0.0317
vt 0.5697 0.0633
vt 0.5523 0.0633
vt 0.5523 0.0317
vt 0.5697 0.0317
vt 0.4392 0.0633
vt 0.4218 0.0633
vt 0.4218 0.0317
vt 0.4392 0.0317
vt 0.2793 0.0633
vt 0.2619 0.0633
vt 0.2619 0.0317
vt 0.2793 0.0317
vt 0.1010 0.0633
vt 0.0836 0.0633
vt 0.0836 0.0317
vt 0.1010 0.0317
vt -0.0836 0.0633
vt -0.1010 0.0633
vt -0.1010 0.0317
vt -0.0836 0.0317
vt -0.2619 0.0633
vt -0.2793 0.0633
vt -0.2793 0.0317
vt -0.2619 0.0317
vt -0.5523 0.0633
vt -0.5697 0.0633
vt -0.5697 0.0317
vt -0.5523 0.0317
vt -0.6446 0.0633
vt -0.6620 0.0633
vt -0.6620 0.0317
vt -0.6446 0.0317
vt -0.6924 0.0633
vt -0.7098 0.0633
vt -0.7098 0.0317
vt -0.6924 0.0317
vt -0.6924 0.0633
vt -0.7098 0.0633
vt -0.7098 0.0317
vt -0.6924 0.0317
vt -0.6446 0.0633
vt -0.6620 0.0633
vt -0.6620 0.0317
vt -0.6446 0.0317
vt -0.5523 0.0633
vt -0.5697 0.0633
vt -0.5697 0.0317
vt -0.5523 0.0317
vt -0.4218 0.0633
vt -0.4392 0.0633
vt -0.4392 0.0317
vt -0.4218 0.0317
vt -0.2619 0.0633
vt -0.2793 0.0633
vt -0.2793 0.0317
vt -0.2619 0.0317
vt -0.0836 0.0633
vt -0.1010 0.0633
vt -0.1010 0.0317
vt -0.0836 0.0317
vt -0.9000 0.0633
vt -0.0000 0.0633
vt -0.0000 0.1467
vt -0.9000 0.1467
vt 0.1000 0.1467
vt 0.1000 0.0633
vt 0.9000 0.0633
vt 0.9000 0.1467
vt 0.0000 0.0633
vt 0.9000 0.0633
vt 0.9000 0.1467
vt 0.0000 0.1467
vt 0.5577 0.5333
vt 0.5471 0.5471
vt 0.5333 0.5577
vt 0.5173 0.5644
vt 0.5000 0.5667
vt 0.4827 0.5644
vt 0.4667 0.5577
vt 0.4529 0.5471
vt 0.4423 0.5333
vt 0.4356 0.5173
vt 0.4333 0.5000
vt 0.4356 0.4827
vt 0.4423 0.4667
vt 0.4529 0.4529
vt 0.4667 0.4423
vt 0.4827 0.4356
vt 0.5000 0.4333
vt 0.5173 0.4356
vt 0.5333 0.4423
vt 0.5471 0.4529
vt 0.5577 0.4667
vt 0.5644 0.4827
vt 0.5667 0.5000
vt 0.5644 0.5173
vt 0.4529 0.4529
vt 0.1000 0.0000
vt 0.9000 0.0000
vt 0.1000 0.9000
vt 0.4423 0.4667
vt 0.9000 0.9000
vt 0.5644 0.5173
vt 0.5667 0.5000
vt 0.5577 0.5333
vt 0.5471 0.5471
vt 0.5333 0.5577
vt 0.5173 0.5644
vt 0.5000 0.5667
vt 0.4827 0.5644
vt 0.4667 0.5577
vt 0.4529 0.5471
vt 0.4423 0.5333
vt 0.4356 0.5173
vt 0.4333 0.5000
vt 0.4356 0.4827
vt 0.5644 0.4827
vt 0.5577 0.4667
vt 0.5471 0.4529
vt 0.5333 0.4423
vt 0.5173 0.4356
vt 0.5000 0.4333
vt 0.4827 0.4356
vt 0.4667 0.4423
vn 0.0000 -1.0000 -0.0000
vn -0.0000 -0.0000 1.0000
vn 0.0000 1.0000 0.0000
vn 1.0000 0.0000 0.0000
vn 0.0000 0.0000 -1.0000
vn -1.0000 0.0000 -0.0000
vn 0.8660 0.0000 -0.5000
vn 0.7071 0.0000 -0.7071
vn -0.9659 0.0000 0.2588
vn 0.5000 0.0000 0.8660
vn 0.7071 0.0000 0.7071
vn 0.8660 0.0000 0.5000
vn 0.9659 0.0000 -0.2588
vn 0.9659 0.0000 0.2588
vn 0.2588 0.0000 0.9659
vn -0.2588 0.0000 0.9659
vn -0.5000 0.0000 0.8660
vn -0.7071 0.0000 0.7071
vn -0.8660 0.0000 0.5000
vn -0.9659 0.0000 -0.2588
vn -0.8660 0.0000 -0.5000
vn -0.7071 0.0000 -0.7071
vn -0.5000 0.0000 -0.8660
vn -0.2588 0.0000 -0.9659
vn 0.2588 0.0000 -0.9659
vn 0.5000 0.0000 -0.8660
usemtl Red.037
s 1
f 1/1/1 2/2/1 3/3/1 4/4/1 5/5/1 6/6/1
f 6/6/2 5/7/2 7/8/2 8/9/2 9/10/2
f 10/11/3 11/12/3 9/13/3 8/14/3 12/15/3 13/16/3 14/17/3 15/18/3
f 14/19/2 16/20/2 4/21/2 3/22/2 15/23/2
f 10/24/4 15/25/4 3/26/4 2/27/4
f 10/28/5 2/29/5 1/30/5 11/31/5
f 6/6/6 9/10/6 11/32/6 1/33/6
f 19/34/7 17/35/8 20/36/8 21/37/7
f 44/38/6 45/39/9 43/40/9 42/41/6
f 53/42/10 54/43/11 29/44/11 28/45/10
f 54/46/11 55/47/12 30/48/12 29/49/11
f 58/50/13 19/51/7 21/52/7 33/53/13
f 57/54/4 58/55/13 33/56/13 32/57/4
f 56/58/14 57/59/4 32/60/4 31/61/14
f 55/62/12 56/63/14 31/64/14 30/65/12
f 52/66/15 53/67/10 28/68/10 27/69/15
f 51/70/2 52/71/15 27/72/15 26/73/2
f 50/74/16 51/75/2 26/76/2 25/77/16
f 49/78/17 50/79/16 25/80/16 24/81/17
f 48/82/18 49/83/17 24/84/17 23/85/18
f 47/86/19 48/87/18 23/88/18 22/89/19
f 45/90/9 47/91/19 22/92/19 43/93/9
f 59/94/20 44/95/6 42/96/6 41/97/20
f 60/98/21 59/99/20 41/100/20 40/101/21
f 61/102/22 60/103/21 40/104/21 39/105/22
f 62/106/23 61/107/22 39/108/22 38/109/23
f 63/110/24 62/111/23 38/112/23 37/113/24
f 64/114/5 63/115/24 37/116/24 36/117/5
f 65/118/25 64/119/5 36/120/5 35/121/25
f 66/122/26 65/123/25 35/124/25 34/125/26
f 17/126/8 66/127/26 34/128/26 20/129/8
f 46/130/6 16/131/6 14/132/6 13/133/6
f 12/134/2 18/135/2 46/136/2 13/137/2
f 7/138/4 18/139/4 12/140/4 8/141/4
usemtl Dark_grey.003
f 22/142/3 23/143/3 24/144/3 25/145/3 26/146/3 27/147/3 28/148/3 29/149/3 30/150/3 31/151/3 32/152/3 33/153/3 21/154/3 20/155/3 34/156/3 35/157/3 36/158/3 37/159/3 38/160/3 39/161/3 40/162/3 41/163/3 42/164/3 43/165/3
usemtl Green.036
f 5/7/2 4/21/2 16/20/2 7/8/2
f 17/166/3 7/167/3 16/168/3
f 7/167/3 17/166/3 18/169/3
f 18/169/3 17/166/3 19/170/3
f 46/171/3 45/172/3 44/173/3
f 46/171/3 47/174/3 45/172/3
f 46/171/3 48/175/3 47/174/3
f 46/171/3 49/176/3 48/175/3
f 46/171/3 50/177/3 49/176/3
f 46/171/3 51/178/3 50/177/3
f 46/171/3 52/179/3 51/178/3
f 46/171/3 53/180/3 52/179/3
f 46/171/3 54/181/3 53/180/3
f 18/169/3 54/181/3 46/171/3
f 54/181/3 18/169/3 55/182/3
f 55/182/3 18/169/3 56/183/3
f 56/183/3 18/169/3 57/184/3
f 18/169/3 58/185/3 57/184/3
f 18/169/3 19/170/3 58/185/3
f 46/171/3 44/173/3 16/168/3
f 59/186/3 16/168/3 44/173/3
f 60/187/3 16/168/3 59/186/3
f 61/188/3 16/168/3 60/187/3
f 62/189/3 16/168/3 61/188/3
f 63/190/3 16/168/3 62/189/3
f 64/191/3 16/168/3 63/190/3
f 65/192/3 16/168/3 64/191/3
f 66/193/3 16/168/3 65/192/3
f 17/166/3 16/168/3 66/193/3
