# File produced by Open Asset Import Library (http://www.assimp.sf.net)
# (assimp v4.1.908865877)

mtllib Inner_corner_01.mtl

# 16 vertex positions
v  -1.5 0 1.200000047683716
v  -1.5 0 -1.5
v  1.5 0 -1.5
v  1.5 0 1.5
v  -1.200000047683716 0 1.5
v  -1.5 0 1.5
v  -1.5 0.4399999976158142 1.5
v  -1.5 0.4399999976158142 1.200000047683716
v  -1.5 0.1899999976158142 1.200000047683716
v  -1.200000047683716 0.1899999976158142 1.5
v  -1.200000047683716 0.4399999976158142 1.5
v  -1.200000047683716 0.4399999976158142 1.200000047683716
v  -1.200000047683716 0.1899999976158142 1.200000047683716
v  -1.5 0.1899999976158142 -1.5
v  1.5 0.1899999976158142 1.5
v  1.5 0.1899999976158142 -1.5

# 80 UV coordinates
vt -1.925100060102842e-15 0.1000000014901161 0
vt -5.775290015913159e-15 1 0
vt -1 1 0
vt -1 0 0
vt -0.1000000014901161 5.811180072437744e-15 0
vt 0 6.911400061472301e-15 0
vt -2.273740007038838e-13 11.81099987030029 0
vt 0 8.163080129387768e-13 0
vt -11.81099987030029 6.863599857735714e-13 0
vt -118.1100006103516 0 0
vt -118.1100006103516 118.1100006103516 0
vt -6.821209721195876e-13 118.1100006103516 0
vt -6.911400061472301e-15 0.1466670036315918 0
vt -0.1000000014901161 0.1466670036315918 0
vt -0.1000000014901161 0.06333330273628235 0
vt -0.1000000014901161 4.937610041928429e-30 0
vt -6.911400061472301e-15 1.409706255110766e-42 0
vt -11.81099987030029 17.32279968261719 0
vt -8.163080129387768e-13 17.32279968261719 0
vt -8.163080129387768e-13 1.664854679495029e-40 0
vt -11.81099987030029 5.831829982953755e-28 0
vt -11.81099987030029 7.480309963226318 0
vt -8.730839883602531e-29 0.1466670036315918 0
vt -8.730839883602531e-29 -5.395359955358972e-30 0
vt 0.1000000014901161 -5.522620290332666e-30 0
vt 0.1000000014901161 0.06333330273628235 0
vt 0.1000000014901161 0.1466670036315918 0
vt -1.031200053825675e-26 -6.372469814704849e-28 0
vt -1.031200053825675e-26 17.32279968261719 0
vt 11.81099987030029 17.32279968261719 0
vt 11.81099987030029 7.480309963226318 0
vt 11.81099987030029 -6.522790091311731e-28 0
vt 0.1000000014901161 5.570540129705166e-15 0
vt 0.1000000014901161 0.1000000014901161 0
vt 0 0.1000000014901161 0
vt 0 11.81099987030029 0
vt 11.81099987030029 11.81099987030029 0
vt 11.81099987030029 6.579380052926243e-13 0
vt -5.775290015913159e-15 0.06333330273628235 0
vt 1.726939853267609e-29 0.1466670036315918 0
vt 7.495640189808007e-15 0.06333330273628235 0
vt 7.495640189808007e-15 0.1466670036315918 0
vt 8.853119517863994e-13 17.32279968261719 0
vt 8.853119517863994e-13 7.480309963226318 0
vt 2.039690003970323e-27 17.32279968261719 0
vt -6.821209721195876e-13 7.480309963226318 0
vt 5.743130292488281e-15 1 0
vt 5.743130292488281e-15 0.1000000014901161 0
vt 0.1000000014901161 5.536359809184613e-15 0
vt 1 -3.4182100613231e-17 0
vt 1 1 0
vt 6.78321981917307e-13 11.81099987030029 0
vt 6.78321981917307e-13 118.1100006103516 0
vt 118.1100006103516 118.1100006103516 0
vt 118.1100006103516 -4.037260146826744e-15 0
vt 11.81099987030029 6.539009785033745e-13 0
vt 1.117240030848668e-16 1.266510026635113e-15 0
vt 1.117240030848668e-16 0.06333330273628235 0
vt -1 0.06333330273628235 0
vt -1 1.266510026635113e-15 0
vt -118.1100006103516 1.495879971540742e-13 0
vt -118.1100006103516 7.480309963226318 0
vt 1.319579923033266e-14 7.480309963226318 0
vt 1.319579923033266e-14 1.495879971540742e-13 0
vt 1 1.482360067858637e-16 0
vt 1 0.06333330273628235 0
vt 6.096139743585983e-15 0.06333330273628235 0
vt 6.096139743585983e-15 1.482360067858637e-16 0
vt 7.200169822342561e-13 1.75081981248007e-14 0
vt 7.200169822342561e-13 7.480309963226318 0
vt 118.1100006103516 7.480309963226318 0
vt 118.1100006103516 1.75081981248007e-14 0
vt 1 -8.016500580630429e-30 0
vt 0.1000000014901161 -8.161580281488012e-30 0
vt 11.81099987030029 -9.639659742822132e-28 0
vt 118.1100006103516 -9.468300126020278e-28 0
vt -1 1.105299982139206e-28 0
vt -0.1000000014901161 5.201399926817926e-29 0
vt -11.81099987030029 6.143390270062703e-27 0
vt -118.1100006103516 1.305470042387511e-26 0

# 20 vertex normals
vn 0 -1 0
vn 0 1 0
vn -1 -8.029499645473975e-15 -2.540029886183466e-14
vn 1 8.029499645473975e-15 2.540029886183466e-14
vn -1.263249945051897e-14 -7.806459988594157e-16 1
vn 1.263249945051897e-14 7.806459988594157e-16 -1
vn 1.72693997363823e-28 7.303400072211641e-12 -1
vn 1 2.31012007212341e-14 1.925100060102842e-14
vn -1 -2.31012007212341e-14 -1.925100060102842e-14
vn -1.72693997363823e-28 -7.303400072211641e-12 1
vn 5.078249980596005e-16 1 -5.397170061335866e-16
vn -5.078249980596005e-16 -1 5.397170061335866e-16
vn 5.887020014403105e-15 -1.266510026635113e-15 -1
vn -5.887020014403105e-15 1.266510026635113e-15 1
vn 1 -1.482360067858637e-16 6.096139743585983e-15
vn -1 1.482360067858637e-16 -6.096139743585983e-15
vn -6.329590070662267e-15 -1.266510026635113e-15 1
vn 6.329590070662267e-15 1.266510026635113e-15 -1
vn -1 3.039629908451608e-14 -2.139000019723549e-15
vn 1 -3.039629908451608e-14 2.139000019723549e-15

# Mesh 'Mesh1 Inner_corner Model' with 4 faces
g Mesh1 Inner_corner Model
usemtl Red
f  1/1/1 2/2/1 3/3/1
f  1/1/1 3/3/1 4/4/1
f  1/1/1 4/4/1 5/5/1
f  5/5/1 6/6/1 1/1/1

# Mesh 'BackColor' with 4 faces
g BackColor
usemtl BackColor
f  1/7/2 6/8/2 5/9/2
f  1/7/2 5/9/2 4/10/2
f  1/7/2 4/10/2 3/11/2
f  1/7/2 3/11/2 2/12/2

# Mesh 'Red' with 3 faces
g Red
usemtl Red
f  7/13/3 8/14/3 9/15/3
f  7/13/3 9/15/3 1/16/3
f  1/16/3 6/17/3 7/13/3

# Mesh 'BackColor' with 3 faces
g BackColor
usemtl BackColor
f  8/18/4 7/19/4 6/20/4
f  8/18/4 6/20/4 1/21/4
f  1/21/4 9/22/4 8/18/4

# Mesh 'Red' with 3 faces
g Red
usemtl Red
f  7/23/5 6/24/5 5/25/5
f  7/23/5 5/25/5 10/26/5
f  10/26/5 11/27/5 7/23/5

# Mesh 'BackColor' with 3 faces
g BackColor
usemtl BackColor
f  6/28/6 7/29/6 11/30/6
f  6/28/6 11/30/6 10/31/6
f  10/31/6 5/32/6 6/28/6

# Mesh 'Red' with 2 faces
g Red
usemtl Red
f  11/33/2 12/34/2 8/35/2
f  11/33/2 8/35/2 7/6/2

# Mesh 'BackColor' with 2 faces
g BackColor
usemtl BackColor
f  7/8/1 8/36/1 12/37/1
f  7/8/1 12/37/1 11/38/1

# Mesh 'Red' with 4 faces
g Red
usemtl Red
f  12/14/7 13/15/7 9/39/7
f  12/14/7 9/39/7 8/40/7
f  10/41/8 13/26/8 12/27/8
f  10/41/8 12/27/8 11/42/8

# Mesh 'BackColor' with 4 faces
g BackColor
usemtl BackColor
f  11/43/9 12/30/9 13/31/9
f  11/43/9 13/31/9 10/44/9
f  8/45/10 9/46/10 13/22/10
f  8/45/10 13/22/10 12/18/10

# Mesh 'Green' with 4 faces
g Green
usemtl Green
f  14/47/11 9/48/11 13/34/11
f  13/34/11 10/49/11 15/50/11
f  13/34/11 15/50/11 16/51/11
f  13/34/11 16/51/11 14/47/11

# Mesh 'BackColor' with 4 faces
g BackColor
usemtl BackColor
f  9/52/12 14/53/12 16/54/12
f  16/54/12 15/55/12 10/56/12
f  16/54/12 10/56/12 13/37/12
f  16/54/12 13/37/12 9/52/12

# Mesh 'Green' with 2 faces
g Green
usemtl Green
f  2/57/13 14/58/13 16/59/13
f  2/57/13 16/59/13 3/60/13

# Mesh 'BackColor' with 2 faces
g BackColor
usemtl BackColor
f  3/61/14 16/62/14 14/63/14
f  3/61/14 14/63/14 2/64/14

# Mesh 'Green' with 2 faces
g Green
usemtl Green
f  3/65/15 16/66/15 15/67/15
f  3/65/15 15/67/15 4/68/15

# Mesh 'BackColor' with 2 faces
g BackColor
usemtl BackColor
f  4/69/16 15/70/16 16/71/16
f  4/69/16 16/71/16 3/72/16

# Mesh 'Green' with 2 faces
g Green
usemtl Green
f  4/73/17 15/66/17 10/26/17
f  4/73/17 10/26/17 5/74/17

# Mesh 'BackColor' with 2 faces
g BackColor
usemtl BackColor
f  5/75/18 10/31/18 15/71/18
f  5/75/18 15/71/18 4/76/18

# Mesh 'Green' with 2 faces
g Green
usemtl Green
f  2/77/19 1/78/19 9/15/19
f  2/77/19 9/15/19 14/59/19

# Mesh 'BackColor' with 2 faces
g BackColor
usemtl BackColor
f  14/62/20 9/22/20 1/79/20
f  14/62/20 1/79/20 2/80/20

