# File produced by Open Asset Import Library (http://www.assimp.sf.net)
# (assimp v4.1.908865877)

mtllib Narrow_square_01.mtl

# 28 vertex positions
v  0 0 -2.093539846147706e-14
v  0 0.4399999976158142 -2.093539846147706e-14
v  1.876969953973958e-14 0.4399999976158142 -3
v  1.876969953973958e-14 0 -3
v  0.300000011920929 0.4399999976158142 -1.660399892393621e-14
v  0.8999999761581421 0.4399999976158142 -0.75
v  0.8999999761581421 0.4399999976158142 -2.25
v  0.300000011920929 0.4399999976158142 -3
v  0.8999999761581421 0.1899999976158142 -2.25
v  0.300000011920929 0.1899999976158142 -3
v  0.8999999761581421 0.1899999976158142 -0.75
v  3 0.4399999976158142 -3
v  3 0 -3
v  2.700000047683716 0 -3
v  2.700000047683716 0.1899999976158142 -3
v  2.700000047683716 0.4399999976158142 -3
v  0.300000011920929 0.1899999976158142 -1.660399892393621e-14
v  2.099999904632568 0.1899999976158142 -2.25
v  2.099999904632568 0.4399999976158142 -2.25
v  0.300000011920929 0 -1.732589969389263e-14
v  0.300000011920929 0 -3
v  3 0 0
v  2.700000047683716 0 -2.16573005019829e-15
v  2.099999904632568 0.1899999976158142 -0.75
v  2.099999904632568 0.4399999976158142 -0.75
v  3 0.4399999976158142 0
v  2.700000047683716 0.4399999976158142 -2.16573005019829e-15
v  2.700000047683716 0.1899999976158142 -2.16573005019829e-15

# 138 UV coordinates
vt -6.978479988697158e-15 0 0
vt -6.978479988697158e-15 0.1466670036315918 0
vt -1 0.1466670036315918 0
vt -1 0 0
vt 6.256569901378316e-15 1 0
vt 0 6.978479988697158e-15 0
vt 0.1000000014901161 5.53465007318058e-15 0
vt 0.300000011920929 0.25 0
vt 0.300000011920929 0.75 0
vt 0.1000000014901161 1 0
vt 0.3982430100440979 0.06333330273628235 0
vt 0.7183989882469177 0.06333330273628235 0
vt 0.7183989882469177 0.1466670036315918 0
vt 0.3982430100440979 0.1466670036315918 0
vt 0.25 0.06333330273628235 0
vt 0.75 0.06333330273628235 0
vt 0.75 0.1466670036315918 0
vt 0.25 0.1466670036315918 0
vt -1 7.806459988594157e-16 0
vt -0.8999999761581421 7.806459988594157e-16 0
vt -0.8999999761581421 0.06333330273628235 0
vt -0.8999999761581421 0.1466670036315918 0
vt 0.06246950104832649 0.06333330273628235 0
vt 0.3826259970664978 0.06333330273628235 0
vt 0.3826259970664978 0.1466670036315918 0
vt 0.06246950104832649 0.1466670036315918 0
vt -1.343090057373047 0.06333330273628235 0
vt -1.022940039634705 0.06333330273628235 0
vt -1.022940039634705 0.1466670036315918 0
vt -1.343090057373047 0.1466670036315918 0
vt -9.534080263270824e-29 0.1466670036315918 0
vt -9.534080263270824e-29 -5.447720047247424e-30 0
vt 0.1000000014901161 -5.574979629904733e-30 0
vt 0.1000000014901161 0.06333330273628235 0
vt 0.1000000014901161 0.1466670036315918 0
vt -0.1000000014901161 1 0
vt -0.8999999761581421 1 0
vt -1 1 0
vt -0.8999999761581421 7.219109872913488e-16 0
vt -0.1000000014901161 5.775290015913159e-15 0
vt -6.256569901378316e-15 1 0
vt -0.75 0.06333330273628235 0
vt -0.25 0.06333330273628235 0
vt -0.25 0.1466670036315918 0
vt -0.75 0.1466670036315918 0
vt 1 0.1466670036315918 0
vt 0.8999999761581421 0.1466670036315918 0
vt 0.8999999761581421 0.06333330273628235 0
vt 0.8999999761581421 -1.401298464324817e-45 0
vt 1 -1.401298464324817e-45 0
vt 0.2420690059661865 0.06333330273628235 0
vt 0.5622259974479675 0.06333330273628235 0
vt 0.5622259974479675 0.1466670036315918 0
vt 0.2420690059661865 0.1466670036315918 0
vt 6.189489974153459e-15 0.1466670036315918 0
vt 6.189489974153459e-15 0 0
vt 1 0 0
vt 1 1 0
vt 0.8999999761581421 1 0
vt 0.699999988079071 0.75 0
vt 0.699999988079071 0.25 0
vt 0.8999999761581421 7.219109872913488e-16 0
vt -3.462140022234125e-15 0.1466670036315918 0
vt -0.1000000014901161 0.1466670036315918 0
vt -0.1000000014901161 0.06333330273628235 0
vt -0.1000000014901161 3.903229994297079e-16 0
vt -3.462140022234125e-15 3.903229994297079e-16 0
vt -106.2990036010742 7.480309963226318 0
vt -11.81099987030029 7.480309963226318 0
vt -11.81099987030029 3.365730003729306e-13 0
vt -106.2990036010742 3.365730003729306e-13 0
vt -118.1100006103516 9.220219260395318e-14 0
vt -106.2990036010742 17.32279968261719 0
vt -11.81099987030029 17.32279968261719 0
vt -4.089149808692016e-13 4.610109630197659e-14 0
vt -4.089149808692016e-13 17.32279968261719 0
vt -118.1100006103516 17.32279968261719 0
vt 118.1100006103516 0 0
vt 7.31042993067782e-13 0 0
vt 7.31042993067782e-13 17.32279968261719 0
vt 118.1100006103516 17.32279968261719 0
vt 106.2990036010742 17.32279968261719 0
vt 118.1100006103516 -1.219129663962591e-43 0
vt 106.2990036010742 -1.219129663962591e-43 0
vt 106.2990036010742 7.480309963226318 0
vt 11.81099987030029 7.480309963226318 0
vt 11.81099987030029 -1.440980014018552e-27 0
vt -1.126069976216631e-26 -6.434309980771664e-28 0
vt 11.81099987030029 17.32279968261719 0
vt -1.126069976216631e-26 17.32279968261719 0
vt 118.1100006103516 118.1100006103516 0
vt 106.2990036010742 8.526510118615771e-14 0
vt 82.67720031738281 29.5275993347168 0
vt 82.67720031738281 88.58270263671875 0
vt 106.2990036010742 118.1100006103516 0
vt -118.1100006103516 0 0
vt -8.242300071625852e-13 17.32279968261719 0
vt -8.242300071625852e-13 0 0
vt -11.81099987030029 118.1100006103516 0
vt -7.389639572995266e-13 118.1100006103516 0
vt 0 8.242300071625852e-13 0
vt -11.81099987030029 6.821209721195876e-13 0
vt -106.2990036010742 8.526510118615771e-14 0
vt -118.1100006103516 118.1100006103516 0
vt -106.2990036010742 118.1100006103516 0
vt 28.59090042114258 17.32279968261719 0
vt 66.40460205078125 17.32279968261719 0
vt 66.40460205078125 7.480309963226318 0
vt 28.59090042114258 7.480309963226318 0
vt 7.378290176391602 17.32279968261719 0
vt 45.19200134277344 17.32279968261719 0
vt 45.19200134277344 7.480309963226318 0
vt 7.378290176391602 7.480309963226318 0
vt -88.58270263671875 17.32279968261719 0
vt -29.5275993347168 17.32279968261719 0
vt -29.5275993347168 7.480309963226318 0
vt -88.58270263671875 7.480309963226318 0
vt 29.5275993347168 17.32279968261719 0
vt 88.58270263671875 17.32279968261719 0
vt 88.58270263671875 7.480309963226318 0
vt 29.5275993347168 7.480309963226318 0
vt -158.6329956054688 17.32279968261719 0
vt -120.8190002441406 17.32279968261719 0
vt -120.8190002441406 7.480309963226318 0
vt -158.6329956054688 7.480309963226318 0
vt 35.43310165405273 88.58270263671875 0
vt 11.81099987030029 118.1100006103516 0
vt 35.43310165405273 29.5275993347168 0
vt 11.81099987030029 6.536989916386404e-13 0
vt 47.03659820556641 17.32279968261719 0
vt 84.85030364990234 17.32279968261719 0
vt 84.85030364990234 7.480309963226318 0
vt 47.03659820556641 7.480309963226318 0
vt 7.389639572995266e-13 118.1100006103516 0
vt -0.8999999761581421 2.84964986279983e-15 0
vt -0.1000000014901161 2.84964986279983e-15 0
vt 0.1000000014901161 -1.220029976153473e-29 0
vt 0.8999999761581421 -1.242890012276965e-29 0

# 24 vertex normals
vn -1 0 -6.189489974153459e-15
vn 0 1 0
vn 0.7808690071105957 0 -0.6246950030326843
vn 1 0 5.775290015913159e-15
vn 1.005259972350825e-14 -7.806459988594157e-16 -1
vn 0.7808690071105957 0 0.6246950030326843
vn -0.7808690071105957 0 -0.6246950030326843
vn -1.366209933812562e-14 -7.806459988594157e-16 1
vn 0 -1 0
vn -1 0 -6.73784004596458e-15
vn -7.219110190550843e-15 -1.442800002957749e-31 1
vn -0.7808690071105957 0 0.6246950030326843
vn 1 0 6.189489974153459e-15
vn 2.794419926507061e-15 -3.903229994297079e-16 -1
vn -6.015930382162211e-15 2.84964986279983e-15 1
vn -1.005259972350825e-14 7.806459988594157e-16 1
vn -2.794419926507061e-15 3.903229994297079e-16 1
vn 7.219110190550843e-15 1.442800002957749e-31 -1
vn 6.467120269209106e-15 1.899769963331676e-15 -1
vn 1.366209933812562e-14 7.806459988594157e-16 -1
vn 1 0 6.73784004596458e-15
vn -1 -0 -5.775290015913159e-15
vn 6.015930382162211e-15 -2.84964986279983e-15 -1
vn -6.467120269209106e-15 -1.899769963331676e-15 1

# Mesh 'Red.Red.Red.Red.Red.Red.Red.Red.Red.Red.Red.Red.Mesh1 Narrow_square Model' with 42 faces
g Red.Red.Red.Red.Red.Red.Red.Red.Red.Red.Red.Red.Mesh1 Narrow_square Model
usemtl Red
f  1/1/1 2/2/1 3/3/1
f  1/1/1 3/3/1 4/4/1
f  3/5/2 2/6/2 5/7/2
f  3/5/2 5/7/2 6/8/2
f  3/5/2 6/8/2 7/9/2
f  7/9/2 8/10/2 3/5/2
f  9/11/3 10/12/3 8/13/3
f  9/11/3 8/13/3 7/14/3
f  11/15/4 9/16/4 7/17/4
f  11/15/4 7/17/4 6/18/4
f  12/3/5 13/19/5 14/20/5
f  12/3/5 14/20/5 15/21/5
f  15/21/5 16/22/5 12/3/5
f  17/23/6 11/24/6 6/25/6
f  17/23/6 6/25/6 5/26/6
f  15/27/7 18/28/7 19/29/7
f  15/27/7 19/29/7 16/30/7
f  2/31/8 1/32/8 20/33/8
f  2/31/8 20/33/8 17/34/8
f  17/34/8 5/35/8 2/31/8
f  21/36/9 14/37/9 13/38/9
f  21/36/9 13/38/9 22/4/9
f  21/36/9 22/4/9 23/39/9
f  21/36/9 23/39/9 20/40/9
f  21/36/9 20/40/9 1/6/9
f  1/6/9 4/41/9 21/36/9
f  18/42/10 24/43/10 25/44/10
f  18/42/10 25/44/10 19/45/10
f  26/46/11 27/47/11 28/48/11
f  26/46/11 28/48/11 23/49/11
f  23/49/11 22/50/11 26/46/11
f  24/51/12 28/52/12 27/53/12
f  24/51/12 27/53/12 25/54/12
f  12/46/13 26/55/13 22/56/13
f  12/46/13 22/56/13 13/57/13
f  26/57/2 12/58/2 16/59/2
f  26/57/2 16/59/2 19/60/2
f  26/57/2 19/60/2 25/61/2
f  25/61/2 27/62/2 26/57/2
f  3/63/14 8/64/14 10/65/14
f  3/63/14 10/65/14 21/66/14
f  21/66/14 4/67/14 3/63/14

# Mesh 'BackColor.BackColor.BackColor.BackColor.BackColor.BackColor.BackColor.BackColor.BackColor.BackColor.BackColor.BackColor.BackColor.BackColor.BackColor' with 52 faces
g BackColor.BackColor.BackColor.BackColor.BackColor.BackColor.BackColor.BackColor.BackColor.BackColor.BackColor.BackColor.BackColor.BackColor.BackColor
usemtl BackColor
f  15/68/15 10/69/15 21/70/15
f  15/68/15 21/70/15 14/71/15
f  13/72/16 16/73/16 15/68/15
f  15/68/15 14/71/15 13/72/16
f  21/70/15 10/69/15 8/74/17
f  8/74/17 4/75/17 21/70/15
f  8/74/17 3/76/17 4/75/17
f  13/72/16 12/77/16 16/73/16
f  13/78/1 22/79/1 26/80/1
f  13/78/1 26/80/1 12/81/1
f  27/82/18 26/81/18 22/83/18
f  27/82/18 22/83/18 23/84/18
f  23/84/18 28/85/18 27/82/18
f  17/86/19 28/85/18 23/84/18
f  17/86/19 23/84/18 20/87/19
f  1/88/20 5/89/20 17/86/19
f  17/86/19 20/87/19 1/88/20
f  1/88/20 2/90/20 5/89/20
f  12/91/9 26/78/9 27/92/9
f  12/91/9 27/92/9 25/93/9
f  12/91/9 25/93/9 19/94/9
f  19/94/9 16/95/9 12/91/9
f  4/96/13 3/77/13 2/97/13
f  4/96/13 2/97/13 1/98/13
f  21/99/2 4/100/2 1/101/2
f  21/99/2 1/101/2 20/102/2
f  21/99/2 20/102/2 23/103/2
f  21/99/2 23/103/2 22/96/2
f  21/99/2 22/96/2 13/104/2
f  21/99/2 13/104/2 14/105/2
f  25/106/3 27/107/3 28/108/3
f  25/106/3 28/108/3 24/109/3
f  5/110/7 6/111/7 11/112/7
f  5/110/7 11/112/7 17/113/7
f  19/114/21 25/115/21 24/116/21
f  19/114/21 24/116/21 18/117/21
f  6/118/22 7/119/22 9/120/22
f  6/118/22 9/120/22 11/121/22
f  16/122/6 19/123/6 18/124/6
f  16/122/6 18/124/6 15/125/6
f  9/126/9 10/127/9 15/95/9
f  9/126/9 15/95/9 18/94/9
f  9/126/9 18/94/9 24/93/9
f  9/126/9 24/93/9 11/128/9
f  24/93/9 28/92/9 17/129/9
f  24/93/9 17/129/9 11/128/9
f  7/130/12 8/131/12 10/132/12
f  7/130/12 10/132/12 9/133/12
f  2/101/9 3/134/9 8/127/9
f  2/101/9 8/127/9 7/126/9
f  2/101/9 7/126/9 6/128/9
f  6/128/9 5/129/9 2/101/9

# Mesh 'Green.Green.Green' with 10 faces
g Green.Green.Green
usemtl Green
f  11/8/2 17/7/2 28/62/2
f  11/8/2 28/62/2 24/61/2
f  11/8/2 24/61/2 18/60/2
f  11/8/2 18/60/2 9/9/2
f  18/60/2 15/59/2 10/10/2
f  18/60/2 10/10/2 9/9/2
f  14/135/23 21/136/23 10/65/23
f  14/135/23 10/65/23 15/21/23
f  20/137/24 23/138/24 28/48/24
f  20/137/24 28/48/24 17/34/24

