# File produced by Open Asset Import Library (http://www.assimp.sf.net)
# (assimp v4.1.908865877)

mtllib Narrow_block_01.mtl

# 36 vertex positions
v  -1.5 0.4399999976158142 -1.5
v  -1.200000047683716 0.4399999976158142 -1.5
v  -1.200000047683716 0.1899999976158142 -1.5
v  -1.200000047683716 0 -1.5
v  -1.5 0 -1.5
v  -1.5 0 1.5
v  -1.5 0.4399999976158142 1.5
v  -1.200000047683716 0.4399999976158142 1.5
v  -1.200000047683716 0.4399999976158142 0.75
v  -0.6000000238418579 0.4399999976158142 0.75
v  -0.6000000238418579 0.4399999976158142 -0.75
v  -1.200000047683716 0.4399999976158142 -0.75
v  -1.200000047683716 0.1899999976158142 -0.75
v  -0.6000000238418579 0.1899999976158142 -0.75
v  -0.6000000238418579 0.1899999976158142 0.75
v  -1.200000047683716 0.1899999976158142 0.75
v  -1.200000047683716 0.1899999976158142 1.5
v  1.200000047683716 0.1899999976158142 1.5
v  1.200000047683716 0.1899999976158142 0.75
v  0.5999999046325684 0.1899999976158142 0.75
v  0.5999999046325684 0.1899999976158142 -0.75
v  1.200000047683716 0.1899999976158142 -0.75
v  1.200000047683716 0.1899999976158142 -1.5
v  1.200000047683716 0 -1.5
v  1.5 0 -1.5
v  1.5 0 1.5
v  1.200000047683716 0 1.5
v  -1.200000047683716 0 1.5
v  1.5 0.4399999976158142 1.5
v  1.200000047683716 0.4399999976158142 1.5
v  1.5 0.4399999976158142 -1.5
v  1.200000047683716 0.4399999976158142 -1.5
v  1.200000047683716 0.4399999976158142 -0.75
v  0.5999999046325684 0.4399999976158142 -0.75
v  0.5999999046325684 0.4399999976158142 0.75
v  1.200000047683716 0.4399999976158142 0.75

# 145 UV coordinates
vt -3.027479983152897e-15 0.1466670036315918 0
vt -0.1000000014901161 0.1466670036315918 0
vt -0.1000000014901161 0.06333330273628235 0
vt -0.1000000014901161 5.854839962187493e-16 0
vt -3.027479983152897e-15 5.854839962187493e-16 0
vt -11.81099987030029 17.32279968261719 0
vt -3.575759751229396e-13 17.32279968261719 0
vt -3.575759751229396e-13 6.91517020512053e-14 0
vt -11.81099987030029 6.91517020512053e-14 0
vt -11.81099987030029 7.480309963226318 0
vt -6.73784004596458e-15 0 0
vt -6.73784004596458e-15 0.1466670036315918 0
vt -1 0.1466670036315918 0
vt -1 0 0
vt -118.1100006103516 0 0
vt -118.1100006103516 17.32279968261719 0
vt -7.958079724715295e-13 17.32279968261719 0
vt -7.958079724715295e-13 0 0
vt 0 6.73784004596458e-15 0
vt 0.1000000014901161 5.775290015913159e-15 0
vt 0.1000000014901161 0.25 0
vt 0.300000011920929 0.25 0
vt 0.300000011920929 0.75 0
vt 0.1000000014901161 0.75 0
vt 0.1000000014901161 1 0
vt 6.015930382162211e-15 1 0
vt 11.81099987030029 6.821209721195876e-13 0
vt 0 7.958079724715295e-13 0
vt 7.105430068106433e-13 118.1100006103516 0
vt 11.81099987030029 118.1100006103516 0
vt 11.81099987030029 88.58270263671875 0
vt 35.43310165405273 88.58270263671875 0
vt 35.43310165405273 29.5275993347168 0
vt 11.81099987030029 29.5275993347168 0
vt 1 0.1466670036315918 0
vt 0.75 0.1466670036315918 0
vt 0.75 0.06333330273628235 0
vt 1 0.06333330273628235 0
vt 118.1100006103516 7.480309963226318 0
vt 88.58270263671875 7.480309963226318 0
vt 88.58270263671875 17.32279968261719 0
vt 118.1100006103516 17.32279968261719 0
vt 0.8999999761581421 9.625490771393553e-16 0
vt 0.8999999761581421 0.25 0
vt 0.699999988079071 0.25 0
vt 0.699999988079071 0.75 0
vt 0.8999999761581421 0.75 0
vt 0.8999999761581421 1 0
vt 106.2990036010742 118.1100006103516 0
vt 106.2990036010742 88.58270263671875 0
vt 82.67720031738281 29.5275993347168 0
vt 106.2990036010742 29.5275993347168 0
vt 106.2990036010742 1.136870003519419e-13 0
vt 82.67720031738281 88.58270263671875 0
vt -0.8999999761581421 2.84964986279983e-15 0
vt -0.1000000014901161 2.84964986279983e-15 0
vt -0.8999999761581421 0.06333330273628235 0
vt -0.1000000014901161 1 0
vt -0.8999999761581421 1 0
vt -1 1 0
vt -0.8999999761581421 9.625490771393553e-16 0
vt -0.1000000014901161 5.775290015913159e-15 0
vt -6.015930382162211e-15 1 0
vt -11.81099987030029 118.1100006103516 0
vt -7.105430068106433e-13 118.1100006103516 0
vt -11.81099987030029 6.821209721195876e-13 0
vt -106.2990036010742 1.136870003519419e-13 0
vt -118.1100006103516 118.1100006103516 0
vt -106.2990036010742 118.1100006103516 0
vt -7.583949805426147e-29 0.1466670036315918 0
vt -7.583949805426147e-29 -5.259870031454946e-30 0
vt 0.1000000014901161 -5.387129614112255e-30 0
vt 0.1000000014901161 0.06333330273628235 0
vt 0.1000000014901161 0.1466670036315918 0
vt -8.957420823031325e-27 -6.212439962283338e-28 0
vt -8.957420823031325e-27 17.32279968261719 0
vt 11.81099987030029 17.32279968261719 0
vt 11.81099987030029 7.480309963226318 0
vt 11.81099987030029 -6.362750127758012e-28 0
vt 0.25 0.06333330273628235 0
vt 0.25 0.1466670036315918 0
vt 6.352819949240716e-15 0.1466670036315918 0
vt 6.352819949240716e-15 0.06333330273628235 0
vt 0.300000011920929 0.06333330273628235 0
vt 0.300000011920929 0.1466670036315918 0
vt 35.43310165405273 17.32279968261719 0
vt 35.43310165405273 7.480309963226318 0
vt 29.5275993347168 17.32279968261719 0
vt 29.5275993347168 7.480309963226318 0
vt -0.300000011920929 0.06333330273628235 0
vt -0.300000011920929 0.1466670036315918 0
vt -35.43310165405273 17.32279968261719 0
vt -35.43310165405273 7.480309963226318 0
vt 7.503330097004268e-13 7.480309963226318 0
vt 7.503330097004268e-13 17.32279968261719 0
vt 0.1000000014901161 -1.220029976153473e-29 0
vt 0.8999999761581421 -1.288600003484397e-29 0
vt 0.8999999761581421 0.06333330273628235 0
vt 106.2990036010742 7.480309963226318 0
vt 106.2990036010742 -1.521970086708399e-27 0
vt 11.81099987030029 -1.440980014018552e-27 0
vt 0.8999999761581421 0.1466670036315918 0
vt 0.8999999761581421 0 0
vt 1 0 0
vt 106.2990036010742 17.32279968261719 0
vt 118.1100006103516 1.261168617892335e-44 0
vt 106.2990036010742 9.809089250273719e-45 0
vt 6.189489974153459e-15 0.1466670036315918 0
vt 6.189489974153459e-15 0 0
vt 1 1 0
vt 118.1100006103516 118.1100006103516 0
vt 118.1100006103516 0 0
vt 7.31042993067782e-13 0 0
vt 7.31042993067782e-13 17.32279968261719 0
vt -1 5.854839962187493e-16 0
vt -0.8999999761581421 5.854839962187493e-16 0
vt -0.8999999761581421 0.1466670036315918 0
vt -118.1100006103516 6.91517020512053e-14 0
vt -106.2990036010742 17.32279968261719 0
vt -106.2990036010742 7.480309963226318 0
vt -106.2990036010742 6.91517020512053e-14 0
vt -0.75 0.06333330273628235 0
vt -0.75 0.1466670036315918 0
vt -1 0.06333330273628235 0
vt -0.699999988079071 0.06333330273628235 0
vt -0.699999988079071 0.1466670036315918 0
vt -82.67720031738281 17.32279968261719 0
vt -82.67720031738281 7.480309963226318 0
vt -0.25 0.06333330273628235 0
vt -0.25 0.1466670036315918 0
vt -88.58270263671875 17.32279968261719 0
vt -29.5275993347168 17.32279968261719 0
vt -29.5275993347168 7.480309963226318 0
vt -88.58270263671875 7.480309963226318 0
vt 0.699999988079071 0.06333330273628235 0
vt 0.699999988079071 0.1466670036315918 0
vt 82.67720031738281 17.32279968261719 0
vt 82.67720031738281 7.480309963226318 0
vt -6.160309689120548e-15 0.1466670036315918 0
vt -6.160309689120548e-15 0.06333330273628235 0
vt -7.275959891007988e-13 7.480309963226318 0
vt -7.275959891007988e-13 17.32279968261719 0
vt -118.1100006103516 7.480309963226318 0
vt -11.81099987030029 3.365730003729306e-13 0
vt -106.2990036010742 3.365730003729306e-13 0

# 20 vertex normals
vn 2.98844997549284e-15 -5.854839962187493e-16 -1
vn -2.98844997549284e-15 5.854839962187493e-16 1
vn -1 0 -6.189489974153459e-15
vn 1 0 6.189489974153459e-15
vn 0 1 0
vn 0 -1 0
vn 1 0 5.775290015913159e-15
vn -1 -0 -5.775290015913159e-15
vn 6.015930382162211e-15 -2.84964986279983e-15 -1
vn -1.125579901365466e-14 -7.806459988594157e-16 1
vn 1.125579901365466e-14 7.806459988594157e-16 -1
vn -4.812739985861738e-15 0 1
vn 4.812739985861738e-15 0 -1
vn -6.467120269209106e-15 -1.899769963331676e-15 1
vn 6.467120269209106e-15 1.899769963331676e-15 -1
vn -4.812739985861738e-15 1.603110102166253e-32 1
vn 4.812739985861738e-15 -1.603110102166253e-32 -1
vn 9.043409941798634e-15 -5.854839962187493e-16 -1
vn -9.043409941798634e-15 5.854839962187493e-16 1
vn -6.015930382162211e-15 2.84964986279983e-15 1

# Mesh 'Mesh1 Narrow_block Model' with 3 faces
g Mesh1 Narrow_block Model
usemtl Red
f  1/1/1 2/2/1 3/3/1
f  1/1/1 3/3/1 4/4/1
f  4/4/1 5/5/1 1/1/1

# Mesh 'BackColor' with 3 faces
g BackColor
usemtl BackColor
f  2/6/2 1/7/2 5/8/2
f  2/6/2 5/8/2 4/9/2
f  4/9/2 3/10/2 2/6/2

# Mesh 'Red' with 2 faces
g Red
usemtl Red
f  6/11/3 7/12/3 1/13/3
f  6/11/3 1/13/3 5/14/3

# Mesh 'BackColor' with 2 faces
g BackColor
usemtl BackColor
f  5/15/4 1/16/4 7/17/4
f  5/15/4 7/17/4 6/18/4

# Mesh 'Red' with 6 faces
g Red
usemtl Red
f  7/19/5 8/20/5 9/21/5
f  9/21/5 10/22/5 11/23/5
f  9/21/5 11/23/5 12/24/5
f  9/21/5 12/24/5 2/25/5
f  9/21/5 2/25/5 1/26/5
f  9/21/5 1/26/5 7/19/5

# Mesh 'BackColor' with 6 faces
g BackColor
usemtl BackColor
f  8/27/6 7/28/6 1/29/6
f  8/27/6 1/29/6 2/30/6
f  8/27/6 2/30/6 12/31/6
f  8/27/6 12/31/6 11/32/6
f  8/27/6 11/32/6 10/33/6
f  10/33/6 9/34/6 8/27/6

# Mesh 'Red' with 2 faces
g Red
usemtl Red
f  2/35/7 12/36/7 13/37/7
f  2/35/7 13/37/7 3/38/7

# Mesh 'BackColor' with 2 faces
g BackColor
usemtl BackColor
f  3/39/8 13/40/8 12/41/8
f  3/39/8 12/41/8 2/42/8

# Mesh 'Green' with 10 faces
g Green
usemtl Green
f  3/25/5 13/24/5 14/23/5
f  15/22/5 16/21/5 17/20/5
f  15/22/5 17/20/5 18/43/5
f  15/22/5 18/43/5 19/44/5
f  15/22/5 19/44/5 20/45/5
f  15/22/5 20/45/5 21/46/5
f  21/46/5 22/47/5 23/48/5
f  21/46/5 23/48/5 3/25/5
f  21/46/5 3/25/5 14/23/5
f  14/23/5 15/22/5 21/46/5

# Mesh 'BackColor' with 10 faces
g BackColor
usemtl BackColor
f  13/31/6 3/30/6 23/49/6
f  13/31/6 23/49/6 22/50/6
f  20/51/6 19/52/6 18/53/6
f  20/51/6 18/53/6 17/27/6
f  20/51/6 17/27/6 16/34/6
f  20/51/6 16/34/6 15/33/6
f  20/51/6 15/33/6 14/32/6
f  14/32/6 13/31/6 22/50/6
f  14/32/6 22/50/6 21/54/6
f  21/54/6 20/51/6 14/32/6

# Mesh 'Green' with 2 faces
g Green
usemtl Green
f  24/55/9 4/56/9 3/3/9
f  24/55/9 3/3/9 23/57/9

# Mesh 'Red' with 6 faces
g Red
usemtl Red
f  4/58/6 24/59/6 25/60/6
f  4/58/6 25/60/6 26/14/6
f  4/58/6 26/14/6 27/61/6
f  4/58/6 27/61/6 28/62/6
f  4/58/6 28/62/6 6/19/6
f  6/19/6 5/63/6 4/58/6

# Mesh 'BackColor' with 6 faces
g BackColor
usemtl BackColor
f  4/64/5 5/65/5 6/28/5
f  4/64/5 6/28/5 28/66/5
f  4/64/5 28/66/5 27/67/5
f  4/64/5 27/67/5 26/15/5
f  4/64/5 26/15/5 25/68/5
f  4/64/5 25/68/5 24/69/5

# Mesh 'Red' with 3 faces
g Red
usemtl Red
f  7/70/10 6/71/10 28/72/10
f  7/70/10 28/72/10 17/73/10
f  17/73/10 8/74/10 7/70/10

# Mesh 'BackColor' with 3 faces
g BackColor
usemtl BackColor
f  6/75/11 7/76/11 8/77/11
f  6/75/11 8/77/11 17/78/11
f  17/78/11 28/79/11 6/75/11

# Mesh 'Red' with 4 faces
g Red
usemtl Red
f  16/80/7 9/81/7 8/82/7
f  16/80/7 8/82/7 17/83/7
f  16/73/12 15/84/12 10/85/12
f  16/73/12 10/85/12 9/74/12

# Mesh 'BackColor' with 2 faces
g BackColor
usemtl BackColor
f  9/77/13 10/86/13 15/87/13
f  9/77/13 15/87/13 16/78/13

# Mesh 'Red' with 2 faces
g Red
usemtl Red
f  15/80/7 14/37/7 11/36/7
f  15/80/7 11/36/7 10/81/7

# Mesh 'BackColor' with 2 faces
g BackColor
usemtl BackColor
f  10/88/8 11/41/8 14/40/8
f  10/88/8 14/40/8 15/89/8

# Mesh 'Red' with 2 faces
g Red
usemtl Red
f  14/90/13 13/3/13 12/2/13
f  14/90/13 12/2/13 11/91/13

# Mesh 'BackColor' with 4 faces
g BackColor
usemtl BackColor
f  11/92/12 12/6/12 13/10/12
f  11/92/12 13/10/12 14/93/12
f  17/94/8 8/95/8 9/88/8
f  17/94/8 9/88/8 16/89/8

# Mesh 'Green' with 2 faces
g Green
usemtl Green
f  28/96/14 27/97/14 18/98/14
f  28/96/14 18/98/14 17/73/14

# Mesh 'BackColor' with 2 faces
g BackColor
usemtl BackColor
f  17/78/15 18/99/15 27/100/15
f  17/78/15 27/100/15 28/101/15

# Mesh 'Red' with 3 faces
g Red
usemtl Red
f  29/35/16 30/102/16 18/98/16
f  29/35/16 18/98/16 27/103/16
f  27/103/16 26/104/16 29/35/16

# Mesh 'BackColor' with 3 faces
g BackColor
usemtl BackColor
f  30/105/17 29/42/17 26/106/17
f  30/105/17 26/106/17 27/107/17
f  27/107/17 18/99/17 30/105/17

# Mesh 'Red' with 8 faces
g Red
usemtl Red
f  31/35/4 29/108/4 26/109/4
f  31/35/4 26/109/4 25/104/4
f  31/110/5 32/48/5 33/47/5
f  33/47/5 34/46/5 35/45/5
f  33/47/5 35/45/5 36/44/5
f  33/47/5 36/44/5 30/43/5
f  33/47/5 30/43/5 29/104/5
f  33/47/5 29/104/5 31/110/5

# Mesh 'BackColor' with 8 faces
g BackColor
usemtl BackColor
f  32/49/6 31/111/6 29/112/6
f  32/49/6 29/112/6 30/53/6
f  32/49/6 30/53/6 36/52/6
f  32/49/6 36/52/6 35/51/6
f  32/49/6 35/51/6 34/54/6
f  34/54/6 33/50/6 32/49/6
f  25/112/3 26/113/3 29/114/3
f  25/112/3 29/114/3 31/42/3

# Mesh 'Red' with 3 faces
g Red
usemtl Red
f  31/13/18 25/115/18 24/116/18
f  31/13/18 24/116/18 23/57/18
f  23/57/18 32/117/18 31/13/18

# Mesh 'BackColor' with 3 faces
g BackColor
usemtl BackColor
f  25/118/19 31/16/19 32/119/19
f  25/118/19 32/119/19 23/120/19
f  23/120/19 24/121/19 25/118/19

# Mesh 'Red' with 4 faces
g Red
usemtl Red
f  22/122/8 33/123/8 32/13/8
f  22/122/8 32/13/8 23/124/8
f  22/57/13 21/125/13 34/126/13
f  22/57/13 34/126/13 33/117/13

# Mesh 'BackColor' with 2 faces
g BackColor
usemtl BackColor
f  33/119/12 34/127/12 21/128/12
f  33/119/12 21/128/12 22/120/12

# Mesh 'Red' with 2 faces
g Red
usemtl Red
f  21/122/8 20/129/8 35/130/8
f  21/122/8 35/130/8 34/123/8

# Mesh 'BackColor' with 2 faces
g BackColor
usemtl BackColor
f  34/131/7 35/132/7 20/133/7
f  34/131/7 20/133/7 21/134/7

# Mesh 'Red' with 2 faces
g Red
usemtl Red
f  20/135/12 19/98/12 36/102/12
f  20/135/12 36/102/12 35/136/12

# Mesh 'BackColor' with 2 faces
g BackColor
usemtl BackColor
f  35/137/13 36/105/13 19/99/13
f  35/137/13 19/99/13 20/138/13

# Mesh 'Red' with 2 faces
g Red
usemtl Red
f  30/139/8 36/130/8 19/129/8
f  30/139/8 19/129/8 18/140/8

# Mesh 'BackColor' with 6 faces
g BackColor
usemtl BackColor
f  18/141/7 19/133/7 36/132/7
f  18/141/7 36/132/7 30/142/7
f  23/143/7 32/16/7 33/131/7
f  23/143/7 33/131/7 22/134/7
f  23/120/20 3/10/20 4/144/20
f  23/120/20 4/144/20 24/145/20

