# Blender v2.78 (sub 0) OBJ File: ''
# www.blender.org
mtllib Obstacle_diamond_01.mtl
o Mesh1_Obstacle_diamond_Model
v 0.000000 0.000000 -3.000000
v 0.000000 0.190000 -3.000000
v 3.000000 0.190000 -3.000000
v 3.000000 0.000000 -3.000000
v 3.000000 0.190000 0.000000
v 3.000000 0.000000 0.000000
v 0.000000 0.190000 0.000000
v 0.000000 0.000000 -0.000000
v 1.500000 0.190000 -0.704115
v 0.704115 0.190000 -1.500000
v 1.500000 0.190000 -2.295880
v 2.295880 0.190000 -1.500000
v 1.500000 0.440000 -2.295880
v 2.295880 0.440000 -1.500000
v 0.704115 0.440000 -1.500000
v 1.500000 0.440000 -0.704115
vt -0.1876 0.0633
vt 0.1876 0.0633
vt 0.1876 0.1467
vt -0.1876 0.1467
vt 0.2347 0.5000
vt 0.5000 0.2347
vt 0.7653 0.5000
vt 0.5000 0.7653
vt 0.5195 0.0633
vt 0.8947 0.0633
vt 0.8947 0.1467
vt 0.5195 0.1467
vt -0.1876 0.0633
vt 0.1876 0.0633
vt 0.1876 0.1467
vt -0.1876 0.1467
vt -0.8947 0.0633
vt -0.5195 0.0633
vt -0.5195 0.1467
vt -0.8947 0.1467
vt 0.0000 0.0000
vt 0.0000 0.0633
vt -1.0000 0.0633
vt -1.0000 0.0000
vt 1.0000 0.0000
vt 1.0000 0.0633
vt 0.0000 0.0633
vt 0.0000 0.0000
vt 1.0000 0.0633
vt -0.0000 0.0633
vt -0.0000 -0.0000
vt 1.0000 -0.0000
vt 0.5000 0.2347
vt 0.0000 0.0000
vt 1.0000 0.0000
vt 0.2347 0.5000
vt 0.0000 1.0000
vt 0.5000 0.7653
vt 1.0000 1.0000
vt 0.7653 0.5000
vt -0.0000 1.0000
vt -1.0000 1.0000
vt -1.0000 0.0000
vt -1.0000 0.0633
vt -1.0000 0.0000
vn 0.7071 0.0000 -0.7071
vn -0.0000 1.0000 0.0000
vn 0.7071 0.0000 0.7071
vn -0.7071 0.0000 0.7071
vn -0.7071 0.0000 -0.7071
vn 0.0000 0.0000 -1.0000
vn 1.0000 0.0000 0.0000
vn -0.0000 -0.0000 1.0000
vn 0.0000 -1.0000 -0.0000
vn -1.0000 0.0000 -0.0000
usemtl Red.018
s 1
f 12/1/1 11/2/1 13/3/1 14/4/1
f 15/5/2 16/6/2 14/7/2 13/8/2
f 9/9/3 12/10/3 14/11/3 16/12/3
f 10/13/4 9/14/4 16/15/4 15/16/4
f 11/17/5 10/18/5 15/19/5 13/20/5
usemtl Green.018
f 1/21/6 2/22/6 3/23/6 4/24/6
f 4/25/7 3/26/7 5/27/7 6/28/7
f 5/29/8 7/30/8 8/31/8 6/32/8
f 9/33/2 7/34/2 5/35/2
f 10/36/2 7/34/2 9/33/2
f 7/34/2 10/36/2 2/37/2
f 11/38/2 2/37/2 10/36/2
f 2/37/2 11/38/2 3/39/2
f 3/39/2 11/38/2 12/40/2
f 9/33/2 5/35/2 12/40/2
f 1/41/9 4/42/9 6/43/9 8/31/9
f 8/31/10 7/30/10 2/44/10 1/45/10
f 3/39/2 12/40/2 5/35/2
