# File produced by Open Asset Import Library (http://www.assimp.sf.net)
# (assimp v4.1.908865877)

mtllib Obstacle_block_01.mtl

# 28 vertex positions
v  0 0 -2.021349938558653e-14
v  0 0.4399999976158142 -2.021349938558653e-14
v  1.840869917981748e-14 0.4399999976158142 -3
v  1.840869917981748e-14 0 -3
v  0.300000011920929 0.4399999976158142 -3
v  0.300000011920929 0.4399999976158142 -1.732589969389263e-14
v  0.300000011920929 0 -1.732589969389263e-14
v  0.300000011920929 0.1899999976158142 -1.732589969389263e-14
v  0.300000011920929 0 -3
v  2.700000047683716 0 -3
v  3 0 -3
v  3 0 0
v  2.700000047683716 0 -1.443819962879448e-15
v  0.300000011920929 0.1899999976158142 -3
v  3 0.4399999976158142 -3
v  2.700000047683716 0.1899999976158142 -3
v  2.700000047683716 0.4399999976158142 -3
v  1.741320013999939 0.1899999976158142 -2.441319942474365
v  1.258679986000061 0.1899999976158142 -2.441319942474365
v  1.258679986000061 0.4399999976158142 -2.441319942474365
v  1.741320013999939 0.4399999976158142 -2.441319942474365
v  1.258679986000061 0.1899999976158142 -0.5586810111999512
v  1.258679986000061 0.4399999976158142 -0.5586810111999512
v  1.741320013999939 0.4399999976158142 -0.5586810111999512
v  1.741320013999939 0.1899999976158142 -0.5586810111999512
v  3 0.4399999976158142 0
v  2.700000047683716 0.4399999976158142 -1.443819962879448e-15
v  2.700000047683716 0.1899999976158142 -1.443819962879448e-15

# 133 UV coordinates
vt -6.73784004596458e-15 0 0
vt -6.73784004596458e-15 0.1466670036315918 0
vt -1 0.1466670036315918 0
vt -1 0 0
vt 0.1000000014901161 1 0
vt 6.136250141770263e-15 1 0
vt 0 6.73784004596458e-15 0
vt 0.1000000014901161 5.775290015913159e-15 0
vt -7.583949805426147e-29 0.1466670036315918 0
vt -7.583949805426147e-29 -5.259870031454946e-30 0
vt 0.1000000014901161 -5.387129614112255e-30 0
vt 0.1000000014901161 0.06333330273628235 0
vt 0.1000000014901161 0.1466670036315918 0
vt -0.1000000014901161 1 0
vt -0.8999999761581421 1 0
vt -1 1 0
vt -0.8999999761581421 4.812740091740856e-16 0
vt -0.1000000014901161 5.775290015913159e-15 0
vt -6.136250141770263e-15 1 0
vt 6.394239860361452e-15 0.06333330273628235 0
vt 1 0.06333330273628235 0
vt 1 0.1466670036315918 0
vt 6.394239860361452e-15 0.1466670036315918 0
vt -1 5.854839962187493e-16 0
vt -0.8999999761581421 5.854839962187493e-16 0
vt -0.8999999761581421 0.06333330273628235 0
vt -0.8999999761581421 0.1466670036315918 0
vt -0.5804399847984314 0.06333330273628235 0
vt -0.4195599853992462 0.06333330273628235 0
vt -0.4195599853992462 0.1466670036315918 0
vt -0.5804399847984314 0.1466670036315918 0
vt -0.813772976398468 0.06333330273628235 0
vt -0.1862269937992096 0.06333330273628235 0
vt -0.1862269937992096 0.1466670036315918 0
vt -0.813772976398468 0.1466670036315918 0
vt 0.5804399847984314 0.813772976398468 0
vt 0.4195599853992462 0.813772976398468 0
vt 0.4195599853992462 0.1862269937992096 0
vt 0.5804399847984314 0.1862269937992096 0
vt 0.1862269937992096 0.06333330273628235 0
vt 0.813772976398468 0.06333330273628235 0
vt 0.813772976398468 0.1466670036315918 0
vt 0.1862269937992096 0.1466670036315918 0
vt 0.4195599853992462 0.06333330273628235 0
vt 0.5804399847984314 0.06333330273628235 0
vt 0.5804399847984314 0.1466670036315918 0
vt 0.4195599853992462 0.1466670036315918 0
vt 0.8999999761581421 0.1466670036315918 0
vt 0.8999999761581421 0.06333330273628235 0
vt 0.8999999761581421 0 0
vt 1 0 0
vt 6.189489974153459e-15 0.1466670036315918 0
vt 6.189489974153459e-15 0 0
vt 1 1 0
vt 0.8999999761581421 1 0
vt 0.8999999761581421 4.812740091740856e-16 0
vt -1 0.06333330273628235 0
vt -6.051820015170323e-15 0.06333330273628235 0
vt -6.051820015170323e-15 0.1466670036315918 0
vt -3.147799954519187e-15 0.1466670036315918 0
vt -0.1000000014901161 0.1466670036315918 0
vt -0.1000000014901161 0.06333330273628235 0
vt -0.1000000014901161 5.854839962187493e-16 0
vt -3.147799954519187e-15 5.854839962187493e-16 0
vt -106.2990036010742 7.480309963226318 0
vt -11.81099987030029 7.480309963226318 0
vt -11.81099987030029 3.365730003729306e-13 0
vt -106.2990036010742 3.365730003729306e-13 0
vt -118.1100006103516 6.91517020512053e-14 0
vt -106.2990036010742 17.32279968261719 0
vt -11.81099987030029 17.32279968261719 0
vt -3.717869924684675e-13 6.91517020512053e-14 0
vt -3.717869924684675e-13 17.32279968261719 0
vt -118.1100006103516 17.32279968261719 0
vt 118.1100006103516 0 0
vt 7.31042993067782e-13 0 0
vt 7.31042993067782e-13 17.32279968261719 0
vt 118.1100006103516 17.32279968261719 0
vt 7.5522498411279e-13 17.32279968261719 0
vt 118.1100006103516 7.480309963226318 0
vt 7.5522498411279e-13 7.480309963226318 0
vt 106.2990036010742 5.684339853201728e-14 0
vt 106.2990036010742 118.1100006103516 0
vt 118.1100006103516 118.1100006103516 0
vt -118.1100006103516 0 0
vt -7.958079724715295e-13 17.32279968261719 0
vt -7.958079724715295e-13 0 0
vt 106.2990036010742 17.32279968261719 0
vt 118.1100006103516 1.261168617892335e-44 0
vt 106.2990036010742 1.261168617892335e-44 0
vt 106.2990036010742 7.480309963226318 0
vt 11.81099987030029 7.480309963226318 0
vt 11.81099987030029 -1.440980014018552e-27 0
vt -8.957420823031325e-27 -6.212439962283338e-28 0
vt 11.81099987030029 17.32279968261719 0
vt -8.957420823031325e-27 17.32279968261719 0
vt 68.55590057373047 96.11489868164062 0
vt 11.81099987030029 6.821209721195876e-13 0
vt 49.55440139770508 21.99530029296875 0
vt 68.55590057373047 21.99530029296875 0
vt 49.55440139770508 96.11489868164062 0
vt 11.81099987030029 118.1100006103516 0
vt 0 7.958079724715295e-13 0
vt 7.247539699460626e-13 118.1100006103516 0
vt -106.2990036010742 118.1100006103516 0
vt -11.81099987030029 118.1100006103516 0
vt -7.247539699460626e-13 118.1100006103516 0
vt -11.81099987030029 6.821209721195876e-13 0
vt -106.2990036010742 5.684339853201728e-14 0
vt -118.1100006103516 118.1100006103516 0
vt -68.55590057373047 17.32279968261719 0
vt -49.55440139770508 17.32279968261719 0
vt -49.55440139770508 7.480309963226318 0
vt -68.55590057373047 7.480309963226318 0
vt 21.99530029296875 17.32279968261719 0
vt 96.11489868164062 17.32279968261719 0
vt 96.11489868164062 7.480309963226318 0
vt 21.99530029296875 7.480309963226318 0
vt 49.55440139770508 17.32279968261719 0
vt 68.55590057373047 17.32279968261719 0
vt 68.55590057373047 7.480309963226318 0
vt 49.55440139770508 7.480309963226318 0
vt -96.11489868164062 17.32279968261719 0
vt -21.99530029296875 17.32279968261719 0
vt -21.99530029296875 7.480309963226318 0
vt -96.11489868164062 7.480309963226318 0
vt -7.147819662545185e-13 17.32279968261719 0
vt -7.147819662545185e-13 7.480309963226318 0
vt -118.1100006103516 7.480309963226318 0
vt 0.1000000014901161 -1.220029976153473e-29 0
vt 0.8999999761581421 -1.19717001526162e-29 0
vt -0.8999999761581421 2.84964986279983e-15 0
vt -0.1000000014901161 2.84964986279983e-15 0

# 24 vertex normals
vn -1 0 -6.189489974153459e-15
vn 0 1 0
vn -1.125579901365466e-14 -7.806459988594157e-16 1
vn 0 -1 0
vn 1 0 6.189489974153459e-15
vn 9.043409941798634e-15 -5.854839962187493e-16 -1
vn 5.98304983369922e-15 0 -1
vn -1 0 -6.001269935911133e-15
vn 1 0 6.334670150763425e-15
vn -8.97457072714233e-15 0 1
vn -4.812739985861738e-15 1.603110102166253e-32 1
vn 2.98844997549284e-15 -5.854839962187493e-16 -1
vn -6.015930382162211e-15 2.84964986279983e-15 1
vn -9.043409941798634e-15 5.854839962187493e-16 1
vn -2.98844997549284e-15 5.854839962187493e-16 1
vn 4.812739985861738e-15 -1.603110102166253e-32 -1
vn 6.467120269209106e-15 1.899769963331676e-15 -1
vn 1.125579901365466e-14 7.806459988594157e-16 -1
vn -5.98304983369922e-15 0 1
vn -1 -0 -6.334670150763425e-15
vn 8.97457072714233e-15 0 -1
vn 1 0 6.001269935911133e-15
vn -6.467120269209106e-15 -1.899769963331676e-15 1
vn 6.015930382162211e-15 -2.84964986279983e-15 -1

# Mesh 'Red.Red.Red.Red.Red.Red.Red.Red.Red.Red.Red.Red.Red.Mesh1 Obstacle_block Model' with 40 faces
g Red.Red.Red.Red.Red.Red.Red.Red.Red.Red.Red.Red.Red.Mesh1 Obstacle_block Model
usemtl Red
f  1/1/1 2/2/1 3/3/1
f  1/1/1 3/3/1 4/4/1
f  5/5/2 3/6/2 2/7/2
f  5/5/2 2/7/2 6/8/2
f  2/9/3 1/10/3 7/11/3
f  2/9/3 7/11/3 8/12/3
f  8/12/3 6/13/3 2/9/3
f  9/14/4 10/15/4 11/16/4
f  9/14/4 11/16/4 12/4/4
f  9/14/4 12/4/4 13/17/4
f  9/14/4 13/17/4 7/18/4
f  9/14/4 7/18/4 1/7/4
f  1/7/4 4/19/4 9/14/4
f  8/20/5 14/21/5 5/22/5
f  8/20/5 5/22/5 6/23/5
f  15/3/6 11/24/6 10/25/6
f  15/3/6 10/25/6 16/26/6
f  16/26/6 17/27/6 15/3/6
f  18/28/7 19/29/7 20/30/7
f  18/28/7 20/30/7 21/31/7
f  19/32/8 22/33/8 23/34/8
f  19/32/8 23/34/8 20/35/8
f  21/36/2 20/37/2 23/38/2
f  21/36/2 23/38/2 24/39/2
f  25/40/9 18/41/9 21/42/9
f  25/40/9 21/42/9 24/43/9
f  22/44/10 25/45/10 24/46/10
f  22/44/10 24/46/10 23/47/10
f  26/22/11 27/48/11 28/49/11
f  26/22/11 28/49/11 13/50/11
f  13/50/11 12/51/11 26/22/11
f  15/22/5 26/52/5 12/53/5
f  15/22/5 12/53/5 11/51/5
f  15/54/2 17/55/2 27/56/2
f  15/54/2 27/56/2 26/51/2
f  16/57/1 28/58/1 27/59/1
f  16/57/1 27/59/1 17/3/1
f  3/60/12 5/61/12 14/62/12
f  3/60/12 14/62/12 9/63/12
f  9/63/12 4/64/12 3/60/12

# Mesh 'BackColor.BackColor.BackColor.BackColor.BackColor.BackColor.BackColor.BackColor.BackColor.BackColor.BackColor.BackColor.BackColor.BackColor.BackColor.BackColor.BackColor.BackColor.BackColor' with 52 faces
g BackColor.BackColor.BackColor.BackColor.BackColor.BackColor.BackColor.BackColor.BackColor.BackColor.BackColor.BackColor.BackColor.BackColor.BackColor.BackColor.BackColor.BackColor.BackColor
usemtl BackColor
f  16/65/13 14/66/13 9/67/13
f  16/65/13 9/67/13 10/68/13
f  11/69/14 17/70/14 16/65/13
f  16/65/13 10/68/13 11/69/14
f  9/67/13 14/66/13 5/71/15
f  5/71/15 4/72/15 9/67/13
f  5/71/15 3/73/15 4/72/15
f  11/69/14 15/74/14 17/70/14
f  11/75/1 12/76/1 26/77/1
f  11/75/1 26/77/1 15/78/1
f  6/79/1 5/78/1 14/80/1
f  6/79/1 14/80/1 8/81/1
f  26/75/4 27/82/4 17/83/4
f  26/75/4 17/83/4 15/84/4
f  4/85/5 3/74/5 2/86/5
f  4/85/5 2/86/5 1/87/5
f  27/88/16 26/78/16 12/89/16
f  27/88/16 12/89/16 13/90/16
f  13/90/16 28/91/16 27/88/16
f  8/92/17 28/91/16 13/90/16
f  8/92/17 13/90/16 7/93/17
f  1/94/18 6/95/18 8/92/17
f  8/92/17 7/93/17 1/94/18
f  1/94/18 2/96/18 6/95/18
f  28/82/4 18/97/4 16/83/4
f  28/82/4 8/98/4 22/99/4
f  25/100/4 28/82/4 22/99/4
f  18/97/4 28/82/4 25/100/4
f  18/97/4 19/101/4 16/83/4
f  16/83/4 19/101/4 14/102/4
f  22/99/4 14/102/4 19/101/4
f  14/102/4 22/99/4 8/98/4
f  6/98/4 2/103/4 3/104/4
f  6/98/4 3/104/4 5/102/4
f  10/105/2 9/106/2 4/107/2
f  10/105/2 4/107/2 1/103/2
f  10/105/2 1/103/2 7/108/2
f  10/105/2 7/108/2 13/109/2
f  10/105/2 13/109/2 12/85/2
f  12/85/2 11/110/2 10/105/2
f  24/100/4 23/99/4 20/101/4
f  24/100/4 20/101/4 21/97/4
f  21/111/19 20/112/19 19/113/19
f  21/111/19 19/113/19 18/114/19
f  24/115/20 21/116/20 18/117/20
f  24/115/20 18/117/20 25/118/20
f  23/119/21 24/120/21 25/121/21
f  23/119/21 25/121/21 22/122/21
f  20/123/22 23/124/22 22/125/22
f  20/123/22 22/125/22 19/126/22
f  17/74/5 27/127/5 28/128/5
f  17/74/5 28/128/5 16/129/5

# Mesh 'Green.Green.Green.Green.Green.Green.Green.Green' with 12 faces
g Green.Green.Green.Green.Green.Green.Green.Green
usemtl Green
f  7/130/23 13/131/23 28/49/23
f  7/130/23 28/49/23 8/12/23
f  8/8/2 22/38/2 14/5/2
f  22/38/2 8/8/2 28/56/2
f  19/37/2 14/5/2 22/38/2
f  22/38/2 28/56/2 25/39/2
f  14/5/2 19/37/2 16/55/2
f  16/55/2 19/37/2 18/36/2
f  16/55/2 18/36/2 28/56/2
f  25/39/2 28/56/2 18/36/2
f  10/132/24 9/133/24 14/62/24
f  10/132/24 14/62/24 16/26/24

