# File produced by Open Asset Import Library (http://www.assimp.sf.net)
# (assimp v4.1.908865877)

mtllib Obstacle_block_01.mtl

# 28 vertex positions
v  -1.5 0.4399999976158142 -1.5
v  -1.200000047683716 0.4399999976158142 -1.5
v  -1.200000047683716 0.1899999976158142 -1.5
v  -1.200000047683716 0 -1.5
v  -1.5 0 -1.5
v  -1.5 0 1.5
v  -1.5 0.4399999976158142 1.5
v  -1.200000047683716 0.4399999976158142 1.5
v  -1.200000047683716 0 1.5
v  -1.200000047683716 0.1899999976158142 1.5
v  1.200000047683716 0 -1.5
v  1.5 0 -1.5
v  1.5 0 1.5
v  1.200000047683716 0 1.5
v  -0.241320013999939 0.1899999976158142 0.9413189888000488
v  1.200000047683716 0.1899999976158142 1.5
v  -0.241320013999939 0.1899999976158142 -0.9413199424743652
v  1.200000047683716 0.1899999976158142 -1.5
v  0.241320013999939 0.1899999976158142 -0.9413199424743652
v  -0.241320013999939 0.4399999976158142 -0.9413199424743652
v  0.241320013999939 0.4399999976158142 -0.9413199424743652
v  -0.241320013999939 0.4399999976158142 0.9413189888000488
v  0.241320013999939 0.4399999976158142 0.9413189888000488
v  0.241320013999939 0.1899999976158142 0.9413189888000488
v  1.5 0.4399999976158142 1.5
v  1.200000047683716 0.4399999976158142 1.5
v  1.5 0.4399999976158142 -1.5
v  1.200000047683716 0.4399999976158142 -1.5

# 137 UV coordinates
vt -3.147799954519187e-15 0.1466670036315918 0
vt -0.1000000014901161 0.1466670036315918 0
vt -0.1000000014901161 0.06333330273628235 0
vt -0.1000000014901161 5.854839962187493e-16 0
vt -3.147799954519187e-15 5.854839962187493e-16 0
vt -11.81099987030029 17.32279968261719 0
vt -3.717869924684675e-13 17.32279968261719 0
vt -3.717869924684675e-13 6.91517020512053e-14 0
vt -11.81099987030029 6.91517020512053e-14 0
vt -11.81099987030029 7.480309963226318 0
vt -6.73784004596458e-15 0 0
vt -6.73784004596458e-15 0.1466670036315918 0
vt -1 0.1466670036315918 0
vt -1 0 0
vt -118.1100006103516 0 0
vt -118.1100006103516 17.32279968261719 0
vt -7.958079724715295e-13 17.32279968261719 0
vt -7.958079724715295e-13 0 0
vt 0.1000000014901161 1 0
vt 6.136250141770263e-15 1 0
vt 0 6.73784004596458e-15 0
vt 0.1000000014901161 5.775290015913159e-15 0
vt 11.81099987030029 6.821209721195876e-13 0
vt 0 7.958079724715295e-13 0
vt 7.247539699460626e-13 118.1100006103516 0
vt 11.81099987030029 118.1100006103516 0
vt -7.583949805426147e-29 0.1466670036315918 0
vt -7.583949805426147e-29 -5.259870031454946e-30 0
vt 0.1000000014901161 -5.387129614112255e-30 0
vt 0.1000000014901161 0.06333330273628235 0
vt 0.1000000014901161 0.1466670036315918 0
vt -0.1000000014901161 1 0
vt -0.8999999761581421 1 0
vt -1 1 0
vt -0.8999999761581421 4.812740091740856e-16 0
vt -0.1000000014901161 5.775290015913159e-15 0
vt -6.136250141770263e-15 1 0
vt -106.2990036010742 118.1100006103516 0
vt -11.81099987030029 118.1100006103516 0
vt -7.247539699460626e-13 118.1100006103516 0
vt -11.81099987030029 6.821209721195876e-13 0
vt -106.2990036010742 5.684339853201728e-14 0
vt -118.1100006103516 118.1100006103516 0
vt -8.957420823031325e-27 -6.212439962283338e-28 0
vt -8.957420823031325e-27 17.32279968261719 0
vt 11.81099987030029 17.32279968261719 0
vt 11.81099987030029 7.480309963226318 0
vt 11.81099987030029 -6.362750127758012e-28 0
vt 6.394239860361452e-15 0.06333330273628235 0
vt 1 0.06333330273628235 0
vt 1 0.1466670036315918 0
vt 6.394239860361452e-15 0.1466670036315918 0
vt 0.4195599853992462 0.1862269937992096 0
vt 0.8999999761581421 4.812740091740856e-16 0
vt 49.55440139770508 21.99530029296875 0
vt 0.4195599853992462 0.813772976398468 0
vt 0.8999999761581421 1 0
vt 106.2990036010742 118.1100006103516 0
vt 49.55440139770508 96.11489868164062 0
vt 0.5804399847984314 0.813772976398468 0
vt 68.55590057373047 96.11489868164062 0
vt -0.5804399847984314 0.06333330273628235 0
vt -0.4195599853992462 0.06333330273628235 0
vt -0.4195599853992462 0.1466670036315918 0
vt -0.5804399847984314 0.1466670036315918 0
vt -68.55590057373047 17.32279968261719 0
vt -49.55440139770508 17.32279968261719 0
vt -49.55440139770508 7.480309963226318 0
vt -68.55590057373047 7.480309963226318 0
vt 0.5804399847984314 0.1862269937992096 0
vt 68.55590057373047 21.99530029296875 0
vt 0.4195599853992462 0.06333330273628235 0
vt 0.5804399847984314 0.06333330273628235 0
vt 0.5804399847984314 0.1466670036315918 0
vt 0.4195599853992462 0.1466670036315918 0
vt 106.2990036010742 5.684339853201728e-14 0
vt 0.1000000014901161 -1.220029976153473e-29 0
vt 0.8999999761581421 -1.19717001526162e-29 0
vt 0.8999999761581421 0.06333330273628235 0
vt 106.2990036010742 7.480309963226318 0
vt 106.2990036010742 -1.413980016942199e-27 0
vt 11.81099987030029 -1.440980014018552e-27 0
vt 0.8999999761581421 0.1466670036315918 0
vt 0.8999999761581421 0 0
vt 1 0 0
vt 106.2990036010742 17.32279968261719 0
vt 118.1100006103516 17.32279968261719 0
vt 118.1100006103516 1.261168617892335e-44 0
vt 106.2990036010742 1.261168617892335e-44 0
vt 6.189489974153459e-15 0.1466670036315918 0
vt 6.189489974153459e-15 0 0
vt 1 1 0
vt 118.1100006103516 0 0
vt 118.1100006103516 118.1100006103516 0
vt -1 0.06333330273628235 0
vt -6.051820015170323e-15 0.06333330273628235 0
vt -6.051820015170323e-15 0.1466670036315918 0
vt 0.1862269937992096 0.06333330273628235 0
vt 0.813772976398468 0.06333330273628235 0
vt 0.813772976398468 0.1466670036315918 0
vt 0.1862269937992096 0.1466670036315918 0
vt 21.99530029296875 17.32279968261719 0
vt 96.11489868164062 17.32279968261719 0
vt 96.11489868164062 7.480309963226318 0
vt 21.99530029296875 7.480309963226318 0
vt 49.55440139770508 17.32279968261719 0
vt 68.55590057373047 17.32279968261719 0
vt 68.55590057373047 7.480309963226318 0
vt 49.55440139770508 7.480309963226318 0
vt -0.813772976398468 0.06333330273628235 0
vt -0.1862269937992096 0.06333330273628235 0
vt -0.1862269937992096 0.1466670036315918 0
vt -0.813772976398468 0.1466670036315918 0
vt -96.11489868164062 17.32279968261719 0
vt -21.99530029296875 17.32279968261719 0
vt -21.99530029296875 7.480309963226318 0
vt -96.11489868164062 7.480309963226318 0
vt -7.147819662545185e-13 17.32279968261719 0
vt -7.147819662545185e-13 7.480309963226318 0
vt -118.1100006103516 7.480309963226318 0
vt -1 5.854839962187493e-16 0
vt -0.8999999761581421 5.854839962187493e-16 0
vt -0.8999999761581421 0.06333330273628235 0
vt -0.8999999761581421 0.1466670036315918 0
vt -118.1100006103516 6.91517020512053e-14 0
vt -106.2990036010742 17.32279968261719 0
vt -106.2990036010742 7.480309963226318 0
vt -106.2990036010742 6.91517020512053e-14 0
vt -0.8999999761581421 2.84964986279983e-15 0
vt -0.1000000014901161 2.84964986279983e-15 0
vt -11.81099987030029 3.365730003729306e-13 0
vt -106.2990036010742 3.365730003729306e-13 0
vt 7.31042993067782e-13 0 0
vt 7.31042993067782e-13 17.32279968261719 0
vt 7.5522498411279e-13 17.32279968261719 0
vt 118.1100006103516 7.480309963226318 0
vt 7.5522498411279e-13 7.480309963226318 0

# 24 vertex normals
vn 2.98844997549284e-15 -5.854839962187493e-16 -1
vn -2.98844997549284e-15 5.854839962187493e-16 1
vn -1 0 -6.189489974153459e-15
vn 1 0 6.189489974153459e-15
vn 0 1 0
vn 0 -1 0
vn -1.125579901365466e-14 -7.806459988594157e-16 1
vn 1.125579901365466e-14 7.806459988594157e-16 -1
vn 5.98304983369922e-15 0 -1
vn -5.98304983369922e-15 0 1
vn -8.97457072714233e-15 0 1
vn -6.467120269209106e-15 -1.899769963331676e-15 1
vn 6.467120269209106e-15 1.899769963331676e-15 -1
vn -4.812739985861738e-15 1.603110102166253e-32 1
vn 4.812739985861738e-15 -1.603110102166253e-32 -1
vn 1 0 6.334670150763425e-15
vn -1 -0 -6.334670150763425e-15
vn 8.97457072714233e-15 0 -1
vn -1 0 -6.001269935911133e-15
vn 1 0 6.001269935911133e-15
vn 9.043409941798634e-15 -5.854839962187493e-16 -1
vn -9.043409941798634e-15 5.854839962187493e-16 1
vn 6.015930382162211e-15 -2.84964986279983e-15 -1
vn -6.015930382162211e-15 2.84964986279983e-15 1

# Mesh 'Mesh1 Obstacle_block Model' with 3 faces
g Mesh1 Obstacle_block Model
usemtl Red
f  1/1/1 2/2/1 3/3/1
f  1/1/1 3/3/1 4/4/1
f  4/4/1 5/5/1 1/1/1

# Mesh 'BackColor' with 3 faces
g BackColor
usemtl BackColor
f  2/6/2 1/7/2 5/8/2
f  2/6/2 5/8/2 4/9/2
f  4/9/2 3/10/2 2/6/2

# Mesh 'Red' with 2 faces
g Red
usemtl Red
f  6/11/3 7/12/3 1/13/3
f  6/11/3 1/13/3 5/14/3

# Mesh 'BackColor' with 2 faces
g BackColor
usemtl BackColor
f  5/15/4 1/16/4 7/17/4
f  5/15/4 7/17/4 6/18/4

# Mesh 'Red' with 2 faces
g Red
usemtl Red
f  2/19/5 1/20/5 7/21/5
f  2/19/5 7/21/5 8/22/5

# Mesh 'BackColor' with 2 faces
g BackColor
usemtl BackColor
f  8/23/6 7/24/6 1/25/6
f  8/23/6 1/25/6 2/26/6

# Mesh 'Red' with 9 faces
g Red
usemtl Red
f  7/27/7 6/28/7 9/29/7
f  7/27/7 9/29/7 10/30/7
f  10/30/7 8/31/7 7/27/7
f  4/32/6 11/33/6 12/34/6
f  4/32/6 12/34/6 13/14/6
f  4/32/6 13/14/6 14/35/6
f  4/32/6 14/35/6 9/36/6
f  4/32/6 9/36/6 6/21/6
f  6/21/6 5/37/6 4/32/6

# Mesh 'BackColor' with 9 faces
g BackColor
usemtl BackColor
f  11/38/5 4/39/5 5/40/5
f  11/38/5 5/40/5 6/24/5
f  11/38/5 6/24/5 9/41/5
f  11/38/5 9/41/5 14/42/5
f  11/38/5 14/42/5 13/15/5
f  13/15/5 12/43/5 11/38/5
f  6/44/8 7/45/8 8/46/8
f  6/44/8 8/46/8 10/47/8
f  10/47/8 9/48/8 6/44/8

# Mesh 'Red' with 2 faces
g Red
usemtl Red
f  10/49/4 3/50/4 2/51/4
f  10/49/4 2/51/4 8/52/4

# Mesh 'Green' with 2 faces
g Green
usemtl Green
f  10/22/5 15/53/5 3/19/5
f  15/53/5 10/22/5 16/54/5

# Mesh 'BackColor' with 1 faces
g BackColor
usemtl BackColor
f  3/26/6 15/55/6 10/23/6

# Mesh 'Green' with 2 faces
g Green
usemtl Green
f  17/56/5 3/19/5 15/53/5
f  3/19/5 17/56/5 18/57/5

# Mesh 'BackColor' with 1 faces
g BackColor
usemtl BackColor
f  18/58/6 17/59/6 3/26/6

# Mesh 'Green' with 1 faces
g Green
usemtl Green
f  18/57/5 17/56/5 19/60/5

# Mesh 'BackColor' with 1 faces
g BackColor
usemtl BackColor
f  19/61/6 17/59/6 18/58/6

# Mesh 'Red' with 2 faces
g Red
usemtl Red
f  19/62/9 17/63/9 20/64/9
f  19/62/9 20/64/9 21/65/9

# Mesh 'BackColor' with 2 faces
g BackColor
usemtl BackColor
f  21/66/10 20/67/10 17/68/10
f  21/66/10 17/68/10 19/69/10

# Mesh 'Red' with 2 faces
g Red
usemtl Red
f  21/60/5 20/56/5 22/53/5
f  21/60/5 22/53/5 23/70/5

# Mesh 'BackColor' with 2 faces
g BackColor
usemtl BackColor
f  23/71/6 22/55/6 20/59/6
f  23/71/6 20/59/6 21/61/6

# Mesh 'Red' with 2 faces
g Red
usemtl Red
f  15/72/11 24/73/11 23/74/11
f  15/72/11 23/74/11 22/75/11

# Mesh 'Green' with 1 faces
g Green
usemtl Green
f  15/53/5 16/54/5 24/70/5

# Mesh 'BackColor' with 1 faces
g BackColor
usemtl BackColor
f  16/76/6 10/23/6 15/55/6

# Mesh 'Green' with 2 faces
g Green
usemtl Green
f  9/77/12 14/78/12 16/79/12
f  9/77/12 16/79/12 10/30/12

# Mesh 'BackColor' with 2 faces
g BackColor
usemtl BackColor
f  10/47/13 16/80/13 14/81/13
f  10/47/13 14/81/13 9/82/13

# Mesh 'Red' with 3 faces
g Red
usemtl Red
f  25/51/14 26/83/14 16/79/14
f  25/51/14 16/79/14 14/84/14
f  14/84/14 13/85/14 25/51/14

# Mesh 'BackColor' with 3 faces
g BackColor
usemtl BackColor
f  26/86/15 25/87/15 13/88/15
f  26/86/15 13/88/15 14/89/15
f  14/89/15 16/80/15 26/86/15

# Mesh 'Red' with 4 faces
g Red
usemtl Red
f  27/51/4 25/90/4 13/91/4
f  27/51/4 13/91/4 12/85/4
f  27/92/5 28/57/5 26/54/5
f  27/92/5 26/54/5 25/85/5

# Mesh 'BackColor' with 2 faces
g BackColor
usemtl BackColor
f  25/93/6 26/76/6 28/58/6
f  25/93/6 28/58/6 27/94/6

# Mesh 'Red' with 2 faces
g Red
usemtl Red
f  18/95/3 16/96/3 26/97/3
f  18/95/3 26/97/3 28/13/3

# Mesh 'Green' with 1 faces
g Green
usemtl Green
f  18/57/5 19/60/5 16/54/5

# Mesh 'BackColor' with 1 faces
g BackColor
usemtl BackColor
f  16/76/6 19/61/6 18/58/6

# Mesh 'Green' with 1 faces
g Green
usemtl Green
f  24/70/5 16/54/5 19/60/5

# Mesh 'BackColor' with 2 faces
g BackColor
usemtl BackColor
f  24/71/6 16/76/6 15/55/6
f  19/61/6 16/76/6 24/71/6

# Mesh 'Red' with 2 faces
g Red
usemtl Red
f  24/98/16 19/99/16 21/100/16
f  24/98/16 21/100/16 23/101/16

# Mesh 'BackColor' with 4 faces
g BackColor
usemtl BackColor
f  23/102/17 21/103/17 19/104/17
f  23/102/17 19/104/17 24/105/17
f  22/106/18 23/107/18 24/108/18
f  22/106/18 24/108/18 15/109/18

# Mesh 'Red' with 2 faces
g Red
usemtl Red
f  17/110/19 15/111/19 22/112/19
f  17/110/19 22/112/19 20/113/19

# Mesh 'BackColor' with 5 faces
g BackColor
usemtl BackColor
f  15/55/6 3/26/6 17/59/6
f  20/114/20 22/115/20 15/116/20
f  20/114/20 15/116/20 17/117/20
f  28/16/4 26/118/4 16/119/4
f  28/16/4 16/119/4 18/120/4

# Mesh 'Red' with 3 faces
g Red
usemtl Red
f  27/13/21 12/121/21 11/122/21
f  27/13/21 11/122/21 18/123/21
f  18/123/21 28/124/21 27/13/21

# Mesh 'BackColor' with 3 faces
g BackColor
usemtl BackColor
f  12/125/22 27/16/22 28/126/22
f  12/125/22 28/126/22 18/127/22
f  18/127/22 11/128/22 12/125/22

# Mesh 'Green' with 2 faces
g Green
usemtl Green
f  11/129/23 4/130/23 3/3/23
f  11/129/23 3/3/23 18/123/23

# Mesh 'BackColor' with 6 faces
g BackColor
usemtl BackColor
f  18/127/24 3/10/24 4/131/24
f  18/127/24 4/131/24 11/132/24
f  12/93/3 13/133/3 25/134/3
f  12/93/3 25/134/3 27/87/3
f  8/135/3 2/87/3 3/136/3
f  8/135/3 3/136/3 10/137/3

