# File produced by Open Asset Import Library (http://www.assimp.sf.net)
# (assimp v4.1.908865877)

mtllib Obstacle_diamond_01.mtl

# 16 vertex positions
v  3 0 -3
v  3 0.1899999976158142 -3
v  3 0.1899999976158142 0
v  3 0 0
v  0 0.1899999976158142 -1.876969953973958e-14
v  0 0 -2.021349938558653e-14
v  1.5 0.1899999976158142 -0.7041149735450745
v  0.7041149735450745 0.1899999976158142 -1.5
v  2.295880079269409 0.1899999976158142 -1.5
v  1.732589969389263e-14 0.1899999976158142 -3
v  1.5 0.1899999976158142 -2.295880079269409
v  1.732589969389263e-14 0 -3
v  1.5 0.4399999976158142 -2.295880079269409
v  0.7041149735450745 0.4399999976158142 -1.5
v  2.295880079269409 0.4399999976158142 -1.5
v  1.5 0.4399999976158142 -0.7041149735450745

# 74 UV coordinates
vt 1 1.482360067858637e-16 0
vt 1 0.06333330273628235 0
vt 6.096139743585983e-15 0.06333330273628235 0
vt 6.096139743585983e-15 1.482360067858637e-16 0
vt -4.042080077336399e-29 0.06333330273628235 0
vt -4.353010332575228e-29 -3.413419830448841e-29 0
vt 1 -3.272939791966252e-29 0
vt 0.5 0.234705001115799 0
vt 0 6.256569901378316e-15 0
vt 1 0 0
vt 0.234705001115799 0.5 0
vt 0.7652950286865234 0.5 0
vt 5.775290015913159e-15 1 0
vt 0.5 0.7652950286865234 0
vt 1 1 0
vt -5.775290015913159e-15 1 0
vt -1 1 0
vt -1 0 0
vt 0 6.73784004596458e-15 0
vt -6.73784004596458e-15 0 0
vt -6.256569901378316e-15 0.06333330273628235 0
vt -1 0.06333330273628235 0
vt 3.298840222695613e-16 5.06605027093582e-15 0
vt 3.298840222695613e-16 0.06333330273628235 0
vt -1 5.06605027093582e-15 0
vt 27.72109985351562 59.05509948730469 0
vt 6.821209721195876e-13 118.1100006103516 0
vt 59.05509948730469 90.38919830322266 0
vt 59.05509948730469 27.72109985351562 0
vt 0 7.389639572995266e-13 0
vt 118.1100006103516 118.1100006103516 0
vt 90.38919830322266 59.05509948730469 0
vt 118.1100006103516 0 0
vt -105.6729965209961 17.32279968261719 0
vt -61.36000061035156 17.32279968261719 0
vt -61.36000061035156 7.480309963226318 0
vt -105.6729965209961 7.480309963226318 0
vt 0 7.958079724715295e-13 0
vt -118.1100006103516 0 0
vt -118.1100006103516 118.1100006103516 0
vt -6.821209721195876e-13 118.1100006103516 0
vt -118.1100006103516 7.480309963226318 0
vt -7.389639572995266e-13 7.480309963226318 0
vt -7.958079724715295e-13 0 0
vt 118.1100006103516 -3.865679976869406e-27 0
vt -5.141350105227413e-27 -4.031599997136333e-27 0
vt -4.774109931571766e-27 7.480309963226318 0
vt 118.1100006103516 7.480309963226318 0
vt 7.200169822342561e-13 1.75081981248007e-14 0
vt 7.200169822342561e-13 7.480309963226318 0
vt 118.1100006103516 1.75081981248007e-14 0
vt -22.1564998626709 17.32279968261719 0
vt 22.1564998626709 17.32279968261719 0
vt 22.1564998626709 7.480309963226318 0
vt -22.1564998626709 7.480309963226318 0
vt 61.36000061035156 17.32279968261719 0
vt 105.6729965209961 17.32279968261719 0
vt 105.6729965209961 7.480309963226318 0
vt 61.36000061035156 7.480309963226318 0
vt -118.1100006103516 5.983519886162969e-13 0
vt 3.896269903393666e-14 7.480309963226318 0
vt 3.896269903393666e-14 5.983519886162969e-13 0
vt 0.5195149779319763 0.06333330273628235 0
vt 0.8946989774703979 0.06333330273628235 0
vt 0.8946989774703979 0.1466670036315918 0
vt 0.5195149779319763 0.1466670036315918 0
vt -0.1875919997692108 0.06333330273628235 0
vt 0.1875919997692108 0.06333330273628235 0
vt 0.1875919997692108 0.1466670036315918 0
vt -0.1875919997692108 0.1466670036315918 0
vt -0.8946989774703979 0.06333330273628235 0
vt -0.5195149779319763 0.06333330273628235 0
vt -0.5195149779319763 0.1466670036315918 0
vt -0.8946989774703979 0.1466670036315918 0

# 14 vertex normals
vn 1 -1.482360067858637e-16 6.096139743585983e-15
vn -6.460539670241888e-15 -5.06605027093582e-15 1
vn 0 1 0
vn 0 -1 0
vn -1 -1.087260052137701e-30 -5.775290015913159e-15
vn 6.105179702715555e-15 -5.06605027093582e-15 -1
vn 0.7071070075035095 0 0.7071070075035095
vn 1 1.087260052137701e-30 5.775290015913159e-15
vn 6.460539670241888e-15 5.06605027093582e-15 -1
vn -1 1.482360067858637e-16 -6.096139743585983e-15
vn -0.7071070075035095 0 0.7071070075035095
vn 0.7071070075035095 0 -0.7071070075035095
vn -0.7071070075035095 -0 -0.7071070075035095
vn -6.105179702715555e-15 5.06605027093582e-15 1

# Mesh 'Green.Green.Green.Green.Green.Green.Green.Green.Mesh1 Obstacle_diamond Model' with 18 faces
g Green.Green.Green.Green.Green.Green.Green.Green.Mesh1 Obstacle_diamond Model
usemtl Green
f  1/1/1 2/2/1 3/3/1
f  1/1/1 3/3/1 4/4/1
f  3/2/2 5/5/2 6/6/2
f  3/2/2 6/6/2 4/7/2
f  7/8/3 5/9/3 3/10/3
f  8/11/3 5/9/3 7/8/3
f  7/8/3 3/10/3 9/12/3
f  5/9/3 8/11/3 10/13/3
f  11/14/3 10/13/3 8/11/3
f  10/13/3 11/14/3 2/15/3
f  2/15/3 11/14/3 9/12/3
f  2/15/3 9/12/3 3/10/3
f  12/16/4 1/17/4 4/18/4
f  12/16/4 4/18/4 6/19/4
f  6/20/5 5/21/5 10/22/5
f  6/20/5 10/22/5 12/18/5
f  12/23/6 10/24/6 2/22/6
f  12/23/6 2/22/6 1/25/6

# Mesh 'BackColor.BackColor.BackColor.BackColor.BackColor.BackColor.BackColor.BackColor.BackColor.BackColor.BackColor.BackColor.BackColor' with 28 faces
g BackColor.BackColor.BackColor.BackColor.BackColor.BackColor.BackColor.BackColor.BackColor.BackColor.BackColor.BackColor.BackColor
usemtl BackColor
f  8/26/4 10/27/4 11/28/4
f  7/29/4 5/30/4 8/26/4
f  10/27/4 8/26/4 5/30/4
f  2/31/4 11/28/4 10/27/4
f  9/32/4 11/28/4 2/31/4
f  3/33/4 9/32/4 2/31/4
f  9/32/4 3/33/4 7/29/4
f  3/33/4 5/30/4 7/29/4
f  13/34/7 14/35/7 8/36/7
f  13/34/7 8/36/7 11/37/7
f  6/38/3 4/39/3 1/40/3
f  6/38/3 1/40/3 12/41/3
f  12/39/8 10/42/8 5/43/8
f  12/39/8 5/43/8 6/44/8
f  4/45/9 6/46/9 5/47/9
f  4/45/9 5/47/9 3/48/9
f  4/49/10 3/50/10 2/48/10
f  4/49/10 2/48/10 1/51/10
f  13/28/4 15/32/4 16/29/4
f  13/28/4 16/29/4 14/26/4
f  15/52/11 13/53/11 11/54/11
f  15/52/11 11/54/11 9/55/11
f  14/52/12 16/53/12 7/54/12
f  14/52/12 7/54/12 8/55/12
f  16/56/13 15/57/13 9/58/13
f  16/56/13 9/58/13 7/59/13
f  1/60/14 2/42/14 10/61/14
f  1/60/14 10/61/14 12/62/14

# Mesh 'Red.Red.Red.Red.Red' with 10 faces
g Red.Red.Red.Red.Red
usemtl Red
f  7/63/7 9/64/7 15/65/7
f  7/63/7 15/65/7 16/66/7
f  9/67/12 11/68/12 13/69/12
f  9/67/12 13/69/12 15/70/12
f  14/11/3 16/8/3 15/12/3
f  14/11/3 15/12/3 13/14/3
f  11/71/13 8/72/13 14/73/13
f  11/71/13 14/73/13 13/74/13
f  8/67/11 7/68/11 16/69/11
f  8/67/11 16/69/11 14/70/11

