# File produced by Open Asset Import Library (http://www.assimp.sf.net)
# (assimp v4.1.908865877)

mtllib Open_01.mtl

# 8 vertex positions
v  -1.5 0 -1.5
v  -1.5 0.1899999976158142 -1.5
v  1.5 0.1899999976158142 -1.5
v  1.5 0 -1.5
v  1.5 0.1899999976158142 1.5
v  1.5 0 1.5
v  -1.5 0.1899999976158142 1.5
v  -1.5 0 1.5

# 42 UV coordinates
vt 3.298840222695613e-16 5.06605027093582e-15 0
vt 3.298840222695613e-16 0.06333330273628235 0
vt -1 0.06333330273628235 0
vt -1 5.06605027093582e-15 0
vt -118.1100006103516 5.983519886162969e-13 0
vt -118.1100006103516 7.480309963226318 0
vt 3.896269903393666e-14 7.480309963226318 0
vt 3.896269903393666e-14 5.983519886162969e-13 0
vt 1 1.482360067858637e-16 0
vt 1 0.06333330273628235 0
vt 6.096139743585983e-15 0.06333330273628235 0
vt 6.096139743585983e-15 1.482360067858637e-16 0
vt 7.200169822342561e-13 1.75081981248007e-14 0
vt 7.200169822342561e-13 7.480309963226318 0
vt 118.1100006103516 7.480309963226318 0
vt 118.1100006103516 1.75081981248007e-14 0
vt -3.998749963779779e-29 0.06333330273628235 0
vt -4.465139779496775e-29 -3.501349967619163e-29 0
vt 1 -3.272939791966252e-29 0
vt 1 1 0
vt 5.775290015913159e-15 1 0
vt 0 6.189489974153459e-15 0
vt 1 6.839320288790418e-30 0
vt 118.1100006103516 8.077940484288022e-28 0
vt 0 7.31042993067782e-13 0
vt 6.821209721195876e-13 118.1100006103516 0
vt 118.1100006103516 118.1100006103516 0
vt 118.1100006103516 -3.865679976869406e-27 0
vt -5.273790144527101e-27 -4.135449991597581e-27 0
vt -4.722930269229619e-27 7.480309963226318 0
vt -5.775290015913159e-15 1 0
vt -1 1 0
vt -1 0 0
vt 0 6.911400061472301e-15 0
vt 0 8.163080129387768e-13 0
vt -118.1100006103516 0 0
vt -118.1100006103516 118.1100006103516 0
vt -6.821209721195876e-13 118.1100006103516 0
vt -6.911400061472301e-15 0 0
vt -6.189489974153459e-15 0.06333330273628235 0
vt -7.31042993067782e-13 7.480309963226318 0
vt -8.163080129387768e-13 0 0

# 10 vertex normals
vn 6.105179702715555e-15 -5.06605027093582e-15 -1
vn -6.105179702715555e-15 5.06605027093582e-15 1
vn 1 -1.482360067858637e-16 6.096139743585983e-15
vn -1 1.482360067858637e-16 -6.096139743585983e-15
vn -6.460539670241888e-15 -5.06605027093582e-15 1
vn 0 1 0
vn 0 -1 0
vn 6.460539670241888e-15 5.06605027093582e-15 -1
vn -1 -1.087260052137701e-30 -5.775290015913159e-15
vn 1 1.087260052137701e-30 5.775290015913159e-15

# Mesh 'Mesh1 Open Model' with 2 faces
g Mesh1 Open Model
usemtl Green
f  1/1/1 2/2/1 3/3/1
f  1/1/1 3/3/1 4/4/1

# Mesh 'BackColor' with 2 faces
g BackColor
usemtl BackColor
f  4/5/2 3/6/2 2/7/2
f  4/5/2 2/7/2 1/8/2

# Mesh 'Green' with 2 faces
g Green
usemtl Green
f  4/9/3 3/10/3 5/11/3
f  4/9/3 5/11/3 6/12/3

# Mesh 'BackColor' with 2 faces
g BackColor
usemtl BackColor
f  6/13/4 5/14/4 3/15/4
f  6/13/4 3/15/4 4/16/4

# Mesh 'Green' with 4 faces
g Green
usemtl Green
f  5/10/5 7/17/5 8/18/5
f  5/10/5 8/18/5 6/19/5
f  3/20/6 2/21/6 7/22/6
f  3/20/6 7/22/6 5/23/6

# Mesh 'BackColor' with 4 faces
g BackColor
usemtl BackColor
f  5/24/7 7/25/7 2/26/7
f  5/24/7 2/26/7 3/27/7
f  6/28/8 8/29/8 7/30/8
f  6/28/8 7/30/8 5/15/8

# Mesh 'Green' with 2 faces
g Green
usemtl Green
f  1/31/7 4/32/7 6/33/7
f  1/31/7 6/33/7 8/34/7

# Mesh 'BackColor' with 2 faces
g BackColor
usemtl BackColor
f  8/35/6 6/36/6 4/37/6
f  8/35/6 4/37/6 1/38/6

# Mesh 'Green' with 2 faces
g Green
usemtl Green
f  8/39/9 7/40/9 2/3/9
f  8/39/9 2/3/9 1/33/9

# Mesh 'BackColor' with 2 faces
g BackColor
usemtl BackColor
f  1/36/10 2/6/10 7/41/10
f  1/36/10 7/41/10 8/42/10

