# File produced by Open Asset Import Library (http://www.assimp.sf.net)
# (assimp v4.1.908865877)

mtllib Ramp_square_01.mtl

# 28 vertex positions
v  -1.5 0.4399999976158142 -1.5
v  -1.200000047683716 0.4399999976158142 -1.5
v  -1.200000047683716 0.1899999976158142 -1.5
v  -1.200000047683716 0 -1.5
v  -1.5 0 -1.5
v  -1.5 0 1.5
v  -1.5 0.4399999976158142 1.5
v  -1.200000047683716 0.4399999976158142 -0.75
v  -1.200000047683716 0.4399999976158142 1.5
v  -1.200000047683716 0.4399999976158142 0
v  -1.200000047683716 0.1899999976158142 -0.75
v  -1.200000047683716 0.1899999976158142 0.75
v  1.200000047683716 0.4399999976158142 0
v  1.200000047683716 0.4399999976158142 -0.75
v  1.200000047683716 0.1899999976158142 0.75
v  1.200000047683716 0.4399999976158142 1.5
v  1.200000047683716 0.1899999976158142 1.5
v  1.5 0.4399999976158142 -1.5
v  1.200000047683716 0.4399999976158142 -1.5
v  1.5 0.4399999976158142 1.5
v  1.5 0 1.5
v  1.5 0 -1.5
v  1.200000047683716 0 -1.5
v  1.200000047683716 0 1.5
v  -1.200000047683716 0 1.5
v  -1.200000047683716 0.1899999976158142 1.5
v  1.200000047683716 0.1899999976158142 -0.75
v  1.200000047683716 0.1899999976158142 -1.5

# 139 UV coordinates
vt -2.786840040420319e-15 0.1466670036315918 0
vt -0.1000000014901161 0.1466670036315918 0
vt -0.1000000014901161 0.06333330273628235 0
vt -0.1000000014901161 5.854839962187493e-16 0
vt -2.786840040420319e-15 5.854839962187493e-16 0
vt -11.81099987030029 17.32279968261719 0
vt -3.29154997529002e-13 17.32279968261719 0
vt -3.29154997529002e-13 6.91517020512053e-14 0
vt -11.81099987030029 6.91517020512053e-14 0
vt -11.81099987030029 7.480309963226318 0
vt -6.73784004596458e-15 0 0
vt -6.73784004596458e-15 0.1466670036315918 0
vt -1 0.1466670036315918 0
vt -1 0 0
vt -118.1100006103516 0 0
vt -118.1100006103516 17.32279968261719 0
vt -7.958079724715295e-13 17.32279968261719 0
vt -7.958079724715295e-13 0 0
vt 0.1000000014901161 0.75 0
vt 0.1000000014901161 1 0
vt 4.254250082639036e-15 1 0
vt -1.521039933274123e-15 6.700970395836494e-15 0
vt 0.1000000014901161 5.7384199422686e-15 0
vt 0.1000000014901161 0.5 0
vt 11.81099987030029 118.1100006103516 0
vt 11.81099987030029 88.58270263671875 0
vt 11.81099987030029 59.05509948730469 0
vt 11.81099987030029 6.777660030432564e-13 0
vt -1.796509989382411e-13 7.914529491850897e-13 0
vt 5.024700273914551e-13 118.1100006103516 0
vt -0.75 0.06333330273628235 0
vt -0.25 0.06333330273628235 0
vt -0.5 0.1466670036315918 0
vt -0.75 0.1466670036315918 0
vt -88.58270263671875 17.32279968261719 0
vt -59.05509948730469 17.32279968261719 0
vt -29.5275993347168 7.480309963226318 0
vt -88.58270263671875 7.480309963226318 0
vt 0.8999999761581421 0.5 0
vt 0.8999999761581421 0.75 0
vt 0.8999999761581421 0.2571989893913269 0
vt 0.8999999761581421 0.520721971988678 0
vt 0.1000000014901161 0.520721971988678 0
vt 0.1000000014901161 0.2571989893913269 0
vt -4.639480243533818e-15 0.1466670036315918 0
vt -4.639480243533818e-15 0.06333330273628235 0
vt 1 1 0
vt 0.8999999761581421 1 0
vt 0.8999999761581421 4.812740091740856e-16 0
vt 1 0 0
vt 106.2990036010742 118.1100006103516 0
vt 118.1100006103516 118.1100006103516 0
vt 118.1100006103516 0 0
vt 106.2990036010742 5.684339853201728e-14 0
vt 106.2990036010742 59.05509948730469 0
vt 106.2990036010742 88.58270263671875 0
vt 1 0.1466670036315918 0
vt 6.189489974153459e-15 0.1466670036315918 0
vt 6.189489974153459e-15 0 0
vt 7.31042993067782e-13 0 0
vt 7.31042993067782e-13 17.32279968261719 0
vt 118.1100006103516 17.32279968261719 0
vt -0.1000000014901161 1 0
vt -0.8999999761581421 1 0
vt -1 1 0
vt -0.8999999761581421 4.812740091740856e-16 0
vt -0.1000000014901161 5.775290015913159e-15 0
vt 0 6.73784004596458e-15 0
vt -5.775290015913159e-15 1 0
vt -106.2990036010742 118.1100006103516 0
vt -11.81099987030029 118.1100006103516 0
vt -6.821209721195876e-13 118.1100006103516 0
vt 0 7.958079724715295e-13 0
vt -11.81099987030029 6.821209721195876e-13 0
vt -106.2990036010742 5.684339853201728e-14 0
vt -118.1100006103516 118.1100006103516 0
vt -7.583949805426147e-29 0.1466670036315918 0
vt -7.583949805426147e-29 -5.259870031454946e-30 0
vt 0.1000000014901161 -5.387129614112255e-30 0
vt 0.1000000014901161 0.06333330273628235 0
vt 0.1000000014901161 0.1466670036315918 0
vt -8.957420823031325e-27 -6.212439962283338e-28 0
vt -8.957420823031325e-27 17.32279968261719 0
vt 11.81099987030029 17.32279968261719 0
vt 11.81099987030029 7.480309963226318 0
vt 11.81099987030029 -6.362750127758012e-28 0
vt 7.161359484207045e-15 0.06333330273628235 0
vt 0.25 0.06333330273628235 0
vt 0.5 0.1466670036315918 0
vt 7.161359484207045e-15 0.1466670036315918 0
vt 0.8999999761581421 0.25 0
vt 0.1000000014901161 0.25 0
vt 0.1000000014901161 5.456199999188255e-15 0
vt 0.8999999761581421 1.621789896608371e-16 0
vt 11.81099987030029 30.37779998779297 0
vt 11.81099987030029 61.50260162353516 0
vt 106.2990036010742 61.50260162353516 0
vt 106.2990036010742 30.37779998779297 0
vt 8.45829970733819e-13 17.32279968261719 0
vt 59.05509948730469 17.32279968261719 0
vt 29.5275993347168 7.480309963226318 0
vt 8.45829970733819e-13 7.480309963226318 0
vt 106.2990036010742 1.915499958085251e-14 0
vt 11.81099987030029 6.444330204018189e-13 0
vt 11.81099987030029 29.5275993347168 0
vt 106.2990036010742 29.5275993347168 0
vt 0.1000000014901161 -1.220029976153473e-29 0
vt 0.8999999761581421 -1.19717001526162e-29 0
vt 0.8999999761581421 0.06333330273628235 0
vt 106.2990036010742 7.480309963226318 0
vt 106.2990036010742 -1.413980016942199e-27 0
vt 11.81099987030029 -1.440980014018552e-27 0
vt 0.8999999761581421 0.1466670036315918 0
vt 0.8999999761581421 0 0
vt 106.2990036010742 17.32279968261719 0
vt 118.1100006103516 1.261168617892335e-44 0
vt 106.2990036010742 1.261168617892335e-44 0
vt -5.479710110146974e-13 7.480309963226318 0
vt -5.479710110146974e-13 17.32279968261719 0
vt -0.8999999761581421 0.1466670036315918 0
vt -0.8999999761581421 0.06333330273628235 0
vt -1 0.06333330273628235 0
vt -118.1100006103516 7.480309963226318 0
vt -106.2990036010742 7.480309963226318 0
vt -106.2990036010742 17.32279968261719 0
vt 0.75 0.1466670036315918 0
vt 0.75 0.06333330273628235 0
vt 1 0.06333330273628235 0
vt 118.1100006103516 7.480309963226318 0
vt 88.58270263671875 7.480309963226318 0
vt 88.58270263671875 17.32279968261719 0
vt -1 5.854839962187493e-16 0
vt -0.8999999761581421 5.854839962187493e-16 0
vt -118.1100006103516 6.91517020512053e-14 0
vt -106.2990036010742 6.91517020512053e-14 0
vt -0.8999999761581421 2.84964986279983e-15 0
vt -0.1000000014901161 2.84964986279983e-15 0
vt -11.81099987030029 3.365730003729306e-13 0
vt -106.2990036010742 3.365730003729306e-13 0

# 36 vertex normals
vn 2.98844997549284e-15 -5.854839962187493e-16 -1
vn -2.98844997549284e-15 5.854839962187493e-16 1
vn -1 0 -6.189489974153459e-15
vn 1 0 6.189489974153459e-15
vn 1.037070040575076e-14 1 -2.514120048299464e-16
vn -1.037070040575076e-14 -1 2.514120048299464e-16
vn -1 -6.930349882568274e-15 -4.620230149258043e-15
vn 1 6.930349882568274e-15 4.620230149258043e-15
vn -2.782370035799421e-15 1 -2.149390028693241e-29
vn -3.003959995790013e-15 0.9486830234527588 0.3162280023097992
vn 0 1 0
vn 0 -1 0
vn -1.125579901365466e-14 -7.806459988594157e-16 1
vn 1.125579901365466e-14 7.806459988594157e-16 -1
vn 1 2.079099797869504e-14 1.386069976513655e-14
vn -1.574480088949344e-15 1 -5.038340011582869e-15
vn 3.003959995790013e-15 -0.9486830234527588 -0.3162280023097992
vn -1 -2.079099797869504e-14 -1.386069976513655e-14
vn 1.574480088949344e-15 -1 5.038340011582869e-15
vn -6.467120269209106e-15 -1.899769963331676e-15 1
vn 6.467120269209106e-15 1.899769963331676e-15 -1
vn -4.812739985861738e-15 1.603110102166253e-32 1
vn 4.812739985861738e-15 -1.603110102166253e-32 -1
vn 2.782370035799421e-15 -1 2.149390028693241e-29
vn 6.015930276283092e-16 -7.157210119458996e-32 -1
vn -1 0 -7.700390076016e-15
vn -1.574480088949344e-15 1 5.038340011582869e-15
vn 1.574480088949344e-15 -1 -5.038340011582869e-15
vn 1 0 7.700390076016e-15
vn -6.015930276283092e-16 7.157210119458996e-32 1
vn 1 0 0
vn -1 0 0
vn 9.043409941798634e-15 -5.854839962187493e-16 -1
vn -9.043409941798634e-15 5.854839962187493e-16 1
vn 6.015930382162211e-15 -2.84964986279983e-15 -1
vn -6.015930382162211e-15 2.84964986279983e-15 1

# Mesh 'Mesh1 Ramp_square Model' with 3 faces
g Mesh1 Ramp_square Model
usemtl Red
f  1/1/1 2/2/1 3/3/1
f  1/1/1 3/3/1 4/4/1
f  4/4/1 5/5/1 1/1/1

# Mesh 'BackColor' with 3 faces
g BackColor
usemtl BackColor
f  2/6/2 1/7/2 5/8/2
f  2/6/2 5/8/2 4/9/2
f  4/9/2 3/10/2 2/6/2

# Mesh 'Red' with 2 faces
g Red
usemtl Red
f  6/11/3 7/12/3 1/13/3
f  6/11/3 1/13/3 5/14/3

# Mesh 'BackColor' with 2 faces
g BackColor
usemtl BackColor
f  5/15/4 1/16/4 7/17/4
f  5/15/4 7/17/4 6/18/4

# Mesh 'Red' with 4 faces
g Red
usemtl Red
f  8/19/5 2/20/5 1/21/5
f  8/19/5 1/21/5 7/22/5
f  8/19/5 7/22/5 9/23/5
f  9/23/5 10/24/5 8/19/5

# Mesh 'BackColor' with 4 faces
g BackColor
usemtl BackColor
f  2/25/6 8/26/6 10/27/6
f  2/25/6 10/27/6 9/28/6
f  2/25/6 9/28/6 7/29/6
f  7/29/6 1/30/6 2/25/6

# Mesh 'Red' with 2 faces
g Red
usemtl Red
f  11/31/7 12/32/7 10/33/7
f  11/31/7 10/33/7 8/34/7

# Mesh 'BackColor' with 2 faces
g BackColor
usemtl BackColor
f  8/35/8 10/36/8 12/37/8
f  8/35/8 12/37/8 11/38/8

# Mesh 'Green' with 4 faces
g Green
usemtl Green
f  10/24/9 13/39/9 14/40/9
f  10/24/9 14/40/9 8/19/9
f  15/41/10 13/42/10 10/43/10
f  15/41/10 10/43/10 12/44/10

# Mesh 'Red' with 6 faces
g Red
usemtl Red
f  16/45/7 13/33/7 15/32/7
f  16/45/7 15/32/7 17/46/7
f  18/47/11 19/48/11 14/40/11
f  18/47/11 14/40/11 13/39/11
f  18/47/11 13/39/11 16/49/11
f  16/49/11 20/50/11 18/47/11

# Mesh 'BackColor' with 4 faces
g BackColor
usemtl BackColor
f  19/51/12 18/52/12 20/53/12
f  19/51/12 20/53/12 16/54/12
f  19/51/12 16/54/12 13/55/12
f  13/55/12 14/56/12 19/51/12

# Mesh 'Red' with 2 faces
g Red
usemtl Red
f  18/57/4 20/58/4 21/59/4
f  18/57/4 21/59/4 22/50/4

# Mesh 'BackColor' with 2 faces
g BackColor
usemtl BackColor
f  22/53/3 21/60/3 20/61/3
f  22/53/3 20/61/3 18/62/3

# Mesh 'Red' with 6 faces
g Red
usemtl Red
f  4/63/12 23/64/12 22/65/12
f  4/63/12 22/65/12 21/14/12
f  4/63/12 21/14/12 24/66/12
f  4/63/12 24/66/12 25/67/12
f  4/63/12 25/67/12 6/68/12
f  6/68/12 5/69/12 4/63/12

# Mesh 'BackColor' with 6 faces
g BackColor
usemtl BackColor
f  23/70/11 4/71/11 5/72/11
f  23/70/11 5/72/11 6/73/11
f  23/70/11 6/73/11 25/74/11
f  23/70/11 25/74/11 24/75/11
f  23/70/11 24/75/11 21/15/11
f  21/15/11 22/76/11 23/70/11

# Mesh 'Red' with 3 faces
g Red
usemtl Red
f  7/77/13 6/78/13 25/79/13
f  7/77/13 25/79/13 26/80/13
f  26/80/13 9/81/13 7/77/13

# Mesh 'BackColor' with 3 faces
g BackColor
usemtl BackColor
f  6/82/14 7/83/14 9/84/14
f  6/82/14 9/84/14 26/85/14
f  26/85/14 25/86/14 6/82/14

# Mesh 'Red' with 2 faces
g Red
usemtl Red
f  26/87/15 12/88/15 10/89/15
f  26/87/15 10/89/15 9/90/15

# Mesh 'Green' with 2 faces
g Green
usemtl Green
f  15/91/16 12/92/16 26/93/16
f  15/91/16 26/93/16 17/94/16

# Mesh 'BackColor' with 6 faces
g BackColor
usemtl BackColor
f  12/95/17 10/96/17 13/97/17
f  12/95/17 13/97/17 15/98/17
f  9/99/18 10/100/18 12/101/18
f  9/99/18 12/101/18 26/102/18
f  17/103/19 26/104/19 12/105/19
f  17/103/19 12/105/19 15/106/19

# Mesh 'Green' with 2 faces
g Green
usemtl Green
f  25/107/20 24/108/20 17/109/20
f  25/107/20 17/109/20 26/80/20

# Mesh 'BackColor' with 2 faces
g BackColor
usemtl BackColor
f  26/85/21 17/110/21 24/111/21
f  26/85/21 24/111/21 25/112/21

# Mesh 'Red' with 3 faces
g Red
usemtl Red
f  20/57/22 16/113/22 17/109/22
f  20/57/22 17/109/22 24/114/22
f  24/114/22 21/50/22 20/57/22

# Mesh 'BackColor' with 7 faces
g BackColor
usemtl BackColor
f  16/115/23 20/62/23 21/116/23
f  16/115/23 21/116/23 24/117/23
f  24/117/23 17/110/23 16/115/23
f  17/118/8 15/37/8 13/36/8
f  17/118/8 13/36/8 16/119/8
f  8/26/24 14/56/24 13/55/24
f  8/26/24 13/55/24 10/27/24

# Mesh 'Red' with 4 faces
g Red
usemtl Red
f  14/120/25 27/121/25 11/3/25
f  14/120/25 11/3/25 8/2/25
f  28/122/26 27/31/26 14/34/26
f  28/122/26 14/34/26 19/13/26

# Mesh 'Green' with 2 faces
g Green
usemtl Green
f  3/20/27 11/19/27 27/40/27
f  3/20/27 27/40/27 28/48/27

# Mesh 'BackColor' with 6 faces
g BackColor
usemtl BackColor
f  28/51/28 27/56/28 11/26/28
f  28/51/28 11/26/28 3/25/28
f  19/16/29 14/35/29 27/38/29
f  19/16/29 27/38/29 28/123/29
f  8/6/30 11/10/30 27/124/30
f  8/6/30 27/124/30 14/125/30

# Mesh 'Red' with 2 faces
g Red
usemtl Red
f  2/57/31 8/126/31 11/127/31
f  2/57/31 11/127/31 3/128/31

# Mesh 'BackColor' with 2 faces
g BackColor
usemtl BackColor
f  3/129/32 11/130/32 8/131/32
f  3/129/32 8/131/32 2/62/32

# Mesh 'Red' with 3 faces
g Red
usemtl Red
f  18/13/33 22/132/33 23/133/33
f  18/13/33 23/133/33 28/121/33
f  28/121/33 19/120/33 18/13/33

# Mesh 'BackColor' with 3 faces
g BackColor
usemtl BackColor
f  22/134/34 18/16/34 19/125/34
f  22/134/34 19/125/34 28/124/34
f  28/124/34 23/135/34 22/134/34

# Mesh 'Green' with 2 faces
g Green
usemtl Green
f  23/136/35 4/137/35 3/3/35
f  23/136/35 3/3/35 28/121/35

# Mesh 'BackColor' with 2 faces
g BackColor
usemtl BackColor
f  28/124/36 3/10/36 4/138/36
f  28/124/36 4/138/36 23/139/36

