# File produced by Open Asset Import Library (http://www.assimp.sf.net)
# (assimp v4.1.908865877)

mtllib Ramp_2_01.mtl

# 20 vertex positions
v  -1.5 1.319999933242798 -1.5
v  -1.200000047683716 1.319999933242798 -1.5
v  -1.200000047683716 1.069999933242798 -1.5
v  -1.200000047683716 0.8799999952316284 -1.5
v  -1.5 0.8799999952316284 -1.5
v  -1.5 0 1.5
v  -1.5 0.4399999976158142 1.5
v  -1.200000047683716 0.4399999976158142 1.5
v  -1.200000047683716 0 1.5
v  -1.200000047683716 0.1899999976158142 1.5
v  1.200000047683716 0.8799999952316284 -1.5
v  1.5 0.8799999952316284 -1.5
v  1.5 0 1.5
v  1.200000047683716 0 1.5
v  1.200000047683716 1.069999933242798 -1.5
v  1.200000047683716 0.1899999976158142 1.5
v  1.5 0.4399999976158142 1.5
v  1.200000047683716 0.4399999976158142 1.5
v  1.5 1.319999933242798 -1.5
v  1.200000047683716 1.319999933242798 -1.5

# 110 UV coordinates
vt -2.786840040420319e-15 0.1466670036315918 0
vt -0.1000000014901161 0.1466670036315918 0
vt -0.1000000014901161 0.06333330273628235 0
vt -0.1000000014901161 5.854839962187493e-16 0
vt -2.786840040420319e-15 5.854839962187493e-16 0
vt -11.81099987030029 17.32279968261719 0
vt -3.29154997529002e-13 17.32279968261719 0
vt -3.29154997529002e-13 6.91517020512053e-14 0
vt -11.81099987030029 6.91517020512053e-14 0
vt -11.81099987030029 7.480309963226318 0
vt -7.700390076016e-15 -0.2933329939842224 0
vt -7.700390076016e-15 -0.1466670036315918 0
vt -1 0.1466670036315918 0
vt -1 -0 0
vt -118.1100006103516 -0 0
vt -118.1100006103516 17.32279968261719 0
vt -9.094949186133627e-13 -17.32279968261719 0
vt -9.094949186133627e-13 -34.64569854736328 0
vt 0.1000000014901161 1.000849962234497 0
vt -8.680950144108416e-15 1.000849962234497 0
vt -1.113190035638874e-28 -0.04128279909491539 0
vt 0.1000000014901161 -0.04128279909491539 0
vt 11.81099987030029 -4.875919818878174 0
vt -1.314790002574389e-26 -4.875919818878174 0
vt -1.025310045199568e-12 118.2109985351562 0
vt 11.81099987030029 118.2109985351562 0
vt -1.004300002883786e-28 -0.1466670036315918 0
vt -1.004300002883786e-28 -0.2933329939842224 0
vt 0.1000000014901161 -0.2933329939842224 0
vt 0.1000000014901161 -0.2300000041723251 0
vt 0.1000000014901161 -0.1466670036315918 0
vt -0.1000000014901161 0.959568977355957 0
vt -0.8999999761581421 0.959568977355957 0
vt -1 0.959568977355957 0
vt -1 -0.08256559818983078 0
vt -0.8999999761581421 -0.08256559818983078 0
vt -0.1000000014901161 -0.08256559818983078 0
vt 5.314500162802067e-29 -0.08256559818983078 0
vt 1.126309980238529e-15 0.959568977355957 0
vt -106.2990036010742 113.3349990844727 0
vt -11.81099987030029 113.3349990844727 0
vt 1.330289909262303e-13 113.3349990844727 0
vt 6.27697007470348e-27 -9.751839637756348 0
vt -11.81099987030029 -9.751839637756348 0
vt -106.2990036010742 -9.751839637756348 0
vt -118.1100006103516 -9.751839637756348 0
vt -118.1100006103516 113.3349990844727 0
vt -1.186179944599307e-26 -34.64569854736328 0
vt -1.186179944599307e-26 -17.32279968261719 0
vt 11.81099987030029 -17.32279968261719 0
vt 11.81099987030029 -27.1653995513916 0
vt 11.81099987030029 -34.64569854736328 0
vt 6.352819949240716e-15 -0.2300000041723251 0
vt 1 0.06333330273628235 0
vt 1 0.1466670036315918 0
vt 6.352819949240716e-15 -0.1466670036315918 0
vt 0.8999999761581421 0.9773960113525391 0
vt 0.1000000014901161 0.9773960113525391 0
vt 0.1000000014901161 -0.06473889946937561 0
vt 0.8999999761581421 -0.06473889946937561 0
vt 106.2990036010742 -7.646329879760742 0
vt 11.81099987030029 -7.646329879760742 0
vt 11.81099987030029 115.4400024414062 0
vt 106.2990036010742 115.4400024414062 0
vt 0.8999999761581421 -0.2933329939842224 0
vt 0.8999999761581421 -0.2300000041723251 0
vt 106.2990036010742 -27.1653995513916 0
vt 106.2990036010742 -34.64569854736328 0
vt 1 -0.1466670036315918 0
vt 0.8999999761581421 -0.1466670036315918 0
vt 1 -0.2933329939842224 0
vt 106.2990036010742 -17.32279968261719 0
vt 118.1100006103516 -17.32279968261719 0
vt 118.1100006103516 -34.64569854736328 0
vt 6.73784004596458e-15 -0.1466670036315918 0
vt 6.73784004596458e-15 -0.2933329939842224 0
vt 1 1.26463993034345e-29 0
vt 1 1.000849962234497 0
vt 0.8999999761581421 1.000849962234497 0
vt 0.8999999761581421 -0.04128279909491539 0
vt 1 -0.04128279909491539 0
vt 118.1100006103516 -4.875919818878174 0
vt 106.2990036010742 -4.875919818878174 0
vt 106.2990036010742 118.2109985351562 0
vt 118.1100006103516 118.2109985351562 0
vt -1 0.06333330273628235 0
vt -6.064060064774621e-15 -0.2300000041723251 0
vt -6.064060064774621e-15 -0.1466670036315918 0
vt -7.162269909100072e-13 -17.32279968261719 0
vt -7.162269909100072e-13 -27.1653995513916 0
vt -118.1100006103516 7.480309963226318 0
vt -1 5.854839962187493e-16 0
vt -0.8999999761581421 5.854839962187493e-16 0
vt -0.8999999761581421 0.06333330273628235 0
vt -0.8999999761581421 0.1466670036315918 0
vt -118.1100006103516 6.91517020512053e-14 0
vt -106.2990036010742 17.32279968261719 0
vt -106.2990036010742 7.480309963226318 0
vt -106.2990036010742 6.91517020512053e-14 0
vt -0.8999999761581421 2.84964986279983e-15 0
vt -0.1000000014901161 2.84964986279983e-15 0
vt -11.81099987030029 3.365730003729306e-13 0
vt -106.2990036010742 3.365730003729306e-13 0
vt 118.1100006103516 1.493669990623087e-27 0
vt 7.958079724715295e-13 -34.64569854736328 0
vt 7.958079724715295e-13 -17.32279968261719 0
vt 118.1100006103516 17.32279968261719 0
vt 7.503330097004268e-13 -17.32279968261719 0
vt 118.1100006103516 7.480309963226318 0
vt 7.503330097004268e-13 -27.1653995513916 0

# 28 vertex normals
vn 2.98844997549284e-15 -5.854839962187493e-16 -1
vn -2.98844997549284e-15 5.854839962187493e-16 1
vn -1 1.26463993034345e-29 -5.775290015913159e-15
vn 1 -1.26463993034345e-29 5.775290015913159e-15
vn -4.069049716853672e-15 0.959568977355957 0.2814739942550659
vn 4.069049716853672e-15 -0.959568977355957 -0.2814739942550659
vn -1.304219912271051e-14 -6.245170108457694e-15 1
vn 1.94262008958385e-15 -0.959568977355957 -0.2814739942550659
vn -1.94262008958385e-15 0.959568977355957 0.2814739942550659
vn 1.304219912271051e-14 6.245170108457694e-15 -1
vn 1 0 5.775290015913159e-15
vn -1.714880035121481e-15 0.959568977355957 0.2814739942550659
vn 1.714880035121481e-15 -0.959568977355957 -0.2814739942550659
vn -8.422300163334843e-15 -1.51980987202812e-14 1
vn 8.422300163334843e-15 1.51980987202812e-14 -1
vn 0 0 1
vn -0 -0 -1
vn 1 -1.26463993034345e-29 6.73784004596458e-15
vn -2.799590215617101e-15 0.959568977355957 0.2814739942550659
vn 2.799590215617101e-15 -0.959568977355957 -0.2814739942550659
vn -1 0 -6.73784004596458e-15
vn 1 0 6.73784004596458e-15
vn 9.043409941798634e-15 -5.854839962187493e-16 -1
vn -9.043409941798634e-15 5.854839962187493e-16 1
vn 6.015930382162211e-15 -2.84964986279983e-15 -1
vn -6.015930382162211e-15 2.84964986279983e-15 1
vn -1 1.26463993034345e-29 -6.73784004596458e-15
vn -1 -0 -5.775290015913159e-15

# Mesh 'Mesh1 Ramp_2 Model' with 3 faces
g Mesh1 Ramp_2 Model
usemtl Red
f  1/1/1 2/2/1 3/3/1
f  1/1/1 3/3/1 4/4/1
f  4/4/1 5/5/1 1/1/1

# Mesh 'BackColor' with 3 faces
g BackColor
usemtl BackColor
f  2/6/2 1/7/2 5/8/2
f  2/6/2 5/8/2 4/9/2
f  4/9/2 3/10/2 2/6/2

# Mesh 'Red' with 2 faces
g Red
usemtl Red
f  6/11/3 7/12/3 1/13/3
f  6/11/3 1/13/3 5/14/3

# Mesh 'BackColor' with 2 faces
g BackColor
usemtl BackColor
f  5/15/4 1/16/4 7/17/4
f  5/15/4 7/17/4 6/18/4

# Mesh 'Red' with 2 faces
g Red
usemtl Red
f  2/19/5 1/20/5 7/21/5
f  2/19/5 7/21/5 8/22/5

# Mesh 'BackColor' with 2 faces
g BackColor
usemtl BackColor
f  8/23/6 7/24/6 1/25/6
f  8/23/6 1/25/6 2/26/6

# Mesh 'Red' with 9 faces
g Red
usemtl Red
f  7/27/7 6/28/7 9/29/7
f  7/27/7 9/29/7 10/30/7
f  10/30/7 8/31/7 7/27/7
f  4/32/8 11/33/8 12/34/8
f  4/32/8 12/34/8 13/35/8
f  4/32/8 13/35/8 14/36/8
f  4/32/8 14/36/8 9/37/8
f  4/32/8 9/37/8 6/38/8
f  6/38/8 5/39/8 4/32/8

# Mesh 'BackColor' with 9 faces
g BackColor
usemtl BackColor
f  11/40/9 4/41/9 5/42/9
f  11/40/9 5/42/9 6/43/9
f  11/40/9 6/43/9 9/44/9
f  11/40/9 9/44/9 14/45/9
f  11/40/9 14/45/9 13/46/9
f  13/46/9 12/47/9 11/40/9
f  6/48/10 7/49/10 8/50/10
f  6/48/10 8/50/10 10/51/10
f  10/51/10 9/52/10 6/48/10

# Mesh 'Red' with 2 faces
g Red
usemtl Red
f  10/53/11 3/54/11 2/55/11
f  10/53/11 2/55/11 8/56/11

# Mesh 'Green' with 2 faces
g Green
usemtl Green
f  15/57/12 3/58/12 10/59/12
f  15/57/12 10/59/12 16/60/12

# Mesh 'BackColor' with 2 faces
g BackColor
usemtl BackColor
f  16/61/13 10/62/13 3/63/13
f  16/61/13 3/63/13 15/64/13

# Mesh 'Green' with 2 faces
g Green
usemtl Green
f  9/29/14 14/65/14 16/66/14
f  9/29/14 16/66/14 10/30/14

# Mesh 'BackColor' with 2 faces
g BackColor
usemtl BackColor
f  10/51/15 16/67/15 14/68/15
f  10/51/15 14/68/15 9/52/15

# Mesh 'Red' with 3 faces
g Red
usemtl Red
f  17/69/16 18/70/16 16/66/16
f  17/69/16 16/66/16 14/65/16
f  14/65/16 13/71/16 17/69/16

# Mesh 'BackColor' with 3 faces
g BackColor
usemtl BackColor
f  18/72/17 17/73/17 13/74/17
f  18/72/17 13/74/17 14/68/17
f  14/68/17 16/67/17 18/72/17

# Mesh 'Red' with 4 faces
g Red
usemtl Red
f  19/55/18 17/75/18 13/76/18
f  19/55/18 13/76/18 12/77/18
f  19/78/19 20/79/19 18/80/19
f  19/78/19 18/80/19 17/81/19

# Mesh 'BackColor' with 2 faces
g BackColor
usemtl BackColor
f  17/82/20 18/83/20 20/84/20
f  17/82/20 20/84/20 19/85/20

# Mesh 'Red' with 2 faces
g Red
usemtl Red
f  15/86/21 16/87/21 18/88/21
f  15/86/21 18/88/21 20/13/21

# Mesh 'BackColor' with 2 faces
g BackColor
usemtl BackColor
f  20/16/22 18/89/22 16/90/22
f  20/16/22 16/90/22 15/91/22

# Mesh 'Red' with 3 faces
g Red
usemtl Red
f  19/13/23 12/92/23 11/93/23
f  19/13/23 11/93/23 15/94/23
f  15/94/23 20/95/23 19/13/23

# Mesh 'BackColor' with 3 faces
g BackColor
usemtl BackColor
f  12/96/24 19/16/24 20/97/24
f  12/96/24 20/97/24 15/98/24
f  15/98/24 11/99/24 12/96/24

# Mesh 'Green' with 2 faces
g Green
usemtl Green
f  11/100/25 4/101/25 3/3/25
f  11/100/25 3/3/25 15/94/25

# Mesh 'BackColor' with 6 faces
g BackColor
usemtl BackColor
f  15/98/26 3/10/26 4/102/26
f  15/98/26 4/102/26 11/103/26
f  12/104/27 13/105/27 17/106/27
f  12/104/27 17/106/27 19/107/27
f  8/108/28 2/107/28 3/109/28
f  8/108/28 3/109/28 10/110/28

