# File produced by Open Asset Import Library (http://www.assimp.sf.net)
# (assimp v4.1.327737527)

mtllib Ramp_2_01.mtl

# 20 vertex positions
v  0 -0.8799999952316284 -2.31012007212341e-14
v  0 -0.4399999976158142 -2.31012007212341e-14
v  1.732589969389263e-14 0.4399999976158142 -3
v  1.732589969389263e-14 0 -3
v  0.300000011920929 0.4399999976158142 -3
v  0.300000011920929 -0.4399999976158142 -1.732589969389263e-14
v  0.300000011920929 -0.8799999952316284 -2.31012007212341e-14
v  0.300000011920929 -0.6899999976158142 -1.732589969389263e-14
v  0.300000011920929 0 -3
v  2.700000047683716 0 -3
v  3 0 -3
v  3 -0.8799999952316284 0
v  2.700000047683716 -0.8799999952316284 0
v  0.300000011920929 0.1899999976158142 -3
v  3 0.4399999976158142 -3
v  2.700000047683716 0.1899999976158142 -3
v  2.700000047683716 0.4399999976158142 -3
v  3 -0.4399999976158142 0
v  2.700000047683716 -0.4399999976158142 0
v  2.700000047683716 -0.6899999976158142 0

# 108 UV coordinates
vt -7.700390076016e-15 -0.2933329939842224 0
vt -7.700390076016e-15 -0.1466670036315918 0
vt -1 0.1466670036315918 0
vt -1 -0 0
vt 0.1000000014901161 1.000849962234497 0
vt -8.680950144108416e-15 1.000849962234497 0
vt -1.113190035638874e-28 -0.04128279909491539 0
vt 0.1000000014901161 -0.04128279909491539 0
vt -1.004300002883786e-28 -0.1466670036315918 0
vt -1.004300002883786e-28 -0.2933329939842224 0
vt 0.1000000014901161 -0.2933329939842224 0
vt 0.1000000014901161 -0.2300000041723251 0
vt 0.1000000014901161 -0.1466670036315918 0
vt -0.1000000014901161 0.959568977355957 0
vt -0.8999999761581421 0.959568977355957 0
vt -1 0.959568977355957 0
vt -1 -0.08256559818983078 0
vt -0.8999999761581421 -0.08256559818983078 0
vt -0.1000000014901161 -0.08256559818983078 0
vt 5.314500162802067e-29 -0.08256559818983078 0
vt 1.126309980238529e-15 0.959568977355957 0
vt 6.352819949240716e-15 -0.2300000041723251 0
vt 1 0.06333330273628235 0
vt 1 0.1466670036315918 0
vt 6.352819949240716e-15 -0.1466670036315918 0
vt -1 5.854839962187493e-16 0
vt -0.8999999761581421 5.854839962187493e-16 0
vt -0.8999999761581421 0.06333330273628235 0
vt -0.8999999761581421 0.1466670036315918 0
vt 1 -0.1466670036315918 0
vt 0.8999999761581421 -0.1466670036315918 0
vt 0.8999999761581421 -0.2300000041723251 0
vt 0.8999999761581421 -0.2933329939842224 0
vt 1 -0.2933329939842224 0
vt -1 0.06333330273628235 0
vt -6.064060064774621e-15 -0.2300000041723251 0
vt -6.064060064774621e-15 -0.1466670036315918 0
vt 6.73784004596458e-15 -0.1466670036315918 0
vt 6.73784004596458e-15 -0.2933329939842224 0
vt 1 1.26463993034345e-29 0
vt 1 1.000849962234497 0
vt 0.8999999761581421 1.000849962234497 0
vt 0.8999999761581421 -0.04128279909491539 0
vt 1 -0.04128279909491539 0
vt -2.786840040420319e-15 0.1466670036315918 0
vt -0.1000000014901161 0.1466670036315918 0
vt -0.1000000014901161 0.06333330273628235 0
vt -0.1000000014901161 5.854839962187493e-16 0
vt -2.786840040420319e-15 5.854839962187493e-16 0
vt -106.2990036010742 7.480309963226318 0
vt -11.81099987030029 7.480309963226318 0
vt -11.81099987030029 3.365730003729306e-13 0
vt -106.2990036010742 3.365730003729306e-13 0
vt -118.1100006103516 6.91517020512053e-14 0
vt -106.2990036010742 17.32279968261719 0
vt -11.81099987030029 17.32279968261719 0
vt -3.29154997529002e-13 6.91517020512053e-14 0
vt -3.29154997529002e-13 17.32279968261719 0
vt -118.1100006103516 17.32279968261719 0
vt 118.1100006103516 1.493669990623087e-27 0
vt 7.958079724715295e-13 -34.64569854736328 0
vt 7.958079724715295e-13 -17.32279968261719 0
vt 118.1100006103516 17.32279968261719 0
vt 7.503330097004268e-13 -17.32279968261719 0
vt 118.1100006103516 7.480309963226318 0
vt 7.503330097004268e-13 -27.1653995513916 0
vt 106.2990036010742 -17.32279968261719 0
vt 118.1100006103516 -17.32279968261719 0
vt 118.1100006103516 -34.64569854736328 0
vt 106.2990036010742 -34.64569854736328 0
vt 106.2990036010742 -27.1653995513916 0
vt 11.81099987030029 -27.1653995513916 0
vt 11.81099987030029 -34.64569854736328 0
vt -1.186179944599307e-26 -34.64569854736328 0
vt 11.81099987030029 -17.32279968261719 0
vt -1.186179944599307e-26 -17.32279968261719 0
vt 118.1100006103516 -4.875919818878174 0
vt 106.2990036010742 -4.875919818878174 0
vt 106.2990036010742 118.2109985351562 0
vt 118.1100006103516 118.2109985351562 0
vt -118.1100006103516 -0 0
vt -9.094949186133627e-13 -17.32279968261719 0
vt -9.094949186133627e-13 -34.64569854736328 0
vt 106.2990036010742 -7.646329879760742 0
vt 11.81099987030029 -7.646329879760742 0
vt 11.81099987030029 115.4400024414062 0
vt 106.2990036010742 115.4400024414062 0
vt 11.81099987030029 -4.875919818878174 0
vt -1.314790002574389e-26 -4.875919818878174 0
vt -1.025310045199568e-12 118.2109985351562 0
vt 11.81099987030029 118.2109985351562 0
vt -7.162269909100072e-13 -17.32279968261719 0
vt -7.162269909100072e-13 -27.1653995513916 0
vt -118.1100006103516 7.480309963226318 0
vt -106.2990036010742 113.3349990844727 0
vt -11.81099987030029 113.3349990844727 0
vt 1.330289909262303e-13 113.3349990844727 0
vt 6.27697007470348e-27 -9.751839637756348 0
vt -11.81099987030029 -9.751839637756348 0
vt -106.2990036010742 -9.751839637756348 0
vt -118.1100006103516 -9.751839637756348 0
vt -118.1100006103516 113.3349990844727 0
vt 0.8999999761581421 0.9773960113525391 0
vt 0.1000000014901161 0.9773960113525391 0
vt 0.1000000014901161 -0.06473889946937561 0
vt 0.8999999761581421 -0.06473889946937561 0
vt -0.8999999761581421 2.84964986279983e-15 0
vt -0.1000000014901161 2.84964986279983e-15 0

# 28 vertex normals
vn -1 1.26463993034345e-29 -5.775290015913159e-15
vn -4.069049716853672e-15 0.959568977355957 0.2814739942550659
vn -1.304219912271051e-14 -6.245170108457694e-15 1
vn 1.94262008958385e-15 -0.959568977355957 -0.2814739942550659
vn 1 0 5.775290015913159e-15
vn 9.043409941798634e-15 -5.854839962187493e-16 -1
vn 0 0 1
vn -1 0 -6.73784004596458e-15
vn 1 -1.26463993034345e-29 6.73784004596458e-15
vn -2.799590215617101e-15 0.959568977355957 0.2814739942550659
vn 2.98844997549284e-15 -5.854839962187493e-16 -1
vn -6.015930382162211e-15 2.84964986279983e-15 1
vn -9.043409941798634e-15 5.854839962187493e-16 1
vn -2.98844997549284e-15 5.854839962187493e-16 1
vn -1 1.26463993034345e-29 -6.73784004596458e-15
vn -1 -0 -5.775290015913159e-15
vn -0 -0 -1
vn 8.422300163334843e-15 1.51980987202812e-14 -1
vn 1.304219912271051e-14 6.245170108457694e-15 -1
vn 2.799590215617101e-15 -0.959568977355957 -0.2814739942550659
vn 1 -1.26463993034345e-29 5.775290015913159e-15
vn 1.714880035121481e-15 -0.959568977355957 -0.2814739942550659
vn 4.069049716853672e-15 -0.959568977355957 -0.2814739942550659
vn 1 0 6.73784004596458e-15
vn -1.94262008958385e-15 0.959568977355957 0.2814739942550659
vn -1.714880035121481e-15 0.959568977355957 0.2814739942550659
vn 6.015930382162211e-15 -2.84964986279983e-15 -1
vn -8.422300163334843e-15 -1.51980987202812e-14 1

# Mesh 'Red.Red.Red.Red.Red.Red.Red.Red.Mesh1 Ramp_2 Model' with 30 faces
g Red.Red.Red.Red.Red.Red.Red.Red.Mesh1 Ramp_2 Model
usemtl Red
f  1/1/1 2/2/1 3/3/1
f  1/1/1 3/3/1 4/4/1
f  5/5/2 3/6/2 2/7/2
f  5/5/2 2/7/2 6/8/2
f  2/9/3 1/10/3 7/11/3
f  2/9/3 7/11/3 8/12/3
f  8/12/3 6/13/3 2/9/3
f  9/14/4 10/15/4 11/16/4
f  9/14/4 11/16/4 12/17/4
f  9/14/4 12/17/4 13/18/4
f  9/14/4 13/18/4 7/19/4
f  9/14/4 7/19/4 1/20/4
f  1/20/4 4/21/4 9/14/4
f  8/22/5 14/23/5 5/24/5
f  8/22/5 5/24/5 6/25/5
f  15/3/6 11/26/6 10/27/6
f  15/3/6 10/27/6 16/28/6
f  16/28/6 17/29/6 15/3/6
f  18/30/7 19/31/7 20/32/7
f  18/30/7 20/32/7 13/33/7
f  13/33/7 12/34/7 18/30/7
f  16/35/8 20/36/8 19/37/8
f  16/35/8 19/37/8 17/3/8
f  15/24/9 18/38/9 12/39/9
f  15/24/9 12/39/9 11/40/9
f  15/41/10 17/42/10 19/43/10
f  15/41/10 19/43/10 18/44/10
f  3/45/11 5/46/11 14/47/11
f  3/45/11 14/47/11 9/48/11
f  9/48/11 4/49/11 3/45/11

# Mesh 'BackColor.BackColor.BackColor.BackColor.BackColor.BackColor.BackColor.BackColor.BackColor.BackColor.BackColor' with 36 faces
g BackColor.BackColor.BackColor.BackColor.BackColor.BackColor.BackColor.BackColor.BackColor.BackColor.BackColor
usemtl BackColor
f  16/50/12 14/51/12 9/52/12
f  16/50/12 9/52/12 10/53/12
f  11/54/13 17/55/13 16/50/12
f  16/50/12 10/53/12 11/54/13
f  9/52/12 14/51/12 5/56/14
f  5/56/14 4/57/14 9/52/12
f  5/56/14 3/58/14 4/57/14
f  11/54/13 15/59/13 17/55/13
f  11/60/15 12/61/15 18/62/15
f  11/60/15 18/62/15 15/63/15
f  6/64/16 5/63/16 14/65/16
f  6/64/16 14/65/16 8/66/16
f  19/67/17 18/68/17 12/69/17
f  19/67/17 12/69/17 13/70/17
f  13/70/17 20/71/17 19/67/17
f  8/72/18 20/71/17 13/70/17
f  8/72/18 13/70/17 7/73/18
f  1/74/19 6/75/19 8/72/18
f  8/72/18 7/73/18 1/74/19
f  1/74/19 2/76/19 6/75/19
f  18/77/20 19/78/20 17/79/20
f  18/77/20 17/79/20 15/80/20
f  4/81/21 3/59/21 2/82/21
f  4/81/21 2/82/21 1/83/21
f  20/84/22 8/85/22 14/86/22
f  20/84/22 14/86/22 16/87/22
f  6/88/23 2/89/23 3/90/23
f  6/88/23 3/90/23 5/91/23
f  17/59/24 19/92/24 20/93/24
f  17/59/24 20/93/24 16/94/24
f  10/95/25 9/96/25 4/97/25
f  10/95/25 4/97/25 1/98/25
f  10/95/25 1/98/25 7/99/25
f  10/95/25 7/99/25 13/100/25
f  10/95/25 13/100/25 12/101/25
f  12/101/25 11/102/25 10/95/25

# Mesh 'Green.Green.Green' with 6 faces
g Green.Green.Green
usemtl Green
f  16/103/26 14/104/26 8/105/26
f  16/103/26 8/105/26 20/106/26
f  10/107/27 9/108/27 14/47/27
f  10/107/27 14/47/27 16/28/27
f  7/11/28 13/33/28 20/32/28
f  7/11/28 20/32/28 8/12/28

