# File produced by Open Asset Import Library (http://www.assimp.sf.net)
# (assimp v4.1.908865877)

mtllib Ramp_sharp_01.mtl

# 26 vertex positions
v  0 0 -2.021349938558653e-14
v  0 0.4399999976158142 -2.021349938558653e-14
v  1.732589969389263e-14 0.4399999976158142 -3
v  1.732589969389263e-14 0 -3
v  0.300000011920929 0.4399999976158142 -2.25
v  0.300000011920929 0.4399999976158142 -3
v  0.300000011920929 0.4399999976158142 -1.732589969389263e-14
v  0.300000011920929 0.1899999976158142 -1.732589969389263e-14
v  0.300000011920929 0.1899999976158142 -0.75
v  0.300000011920929 0.1899999976158142 -2.25
v  0.300000011920929 0.1899999976158142 -3
v  2.700000047683716 0.4399999976158142 -1.443819962879448e-15
v  2.700000047683716 0.4399999976158142 -2.25
v  2.700000047683716 0.1899999976158142 -0.75
v  2.700000047683716 0.1899999976158142 -1.443819962879448e-15
v  2.700000047683716 0.1899999976158142 -3
v  2.700000047683716 0.1899999976158142 -2.25
v  2.700000047683716 0.4399999976158142 -3
v  3 0.4399999976158142 0
v  3 0.4399999976158142 -3
v  3 0 -3
v  2.700000047683716 0 -3
v  2.700000047683716 0 -1.443819962879448e-15
v  3 0 0
v  0.300000011920929 0 -3
v  0.300000011920929 0 -1.732589969389263e-14

# 127 UV coordinates
vt -6.73784004596458e-15 0 0
vt -6.73784004596458e-15 0.1466670036315918 0
vt -1 0.1466670036315918 0
vt -1 0 0
vt 0.1000000014901161 0.75 0
vt 0.1000000014901161 1 0
vt 7.229380465036302e-15 1 0
vt 1.454090025606669e-15 6.810540036794469e-15 0
vt 0.1000000014901161 5.848000171138415e-15 0
vt 6.31432018420564e-15 0.06333330273628235 0
vt 0.25 0.06333330273628235 0
vt 0.75 0.1466670036315918 0
vt 6.31432018420564e-15 0.1466670036315918 0
vt 1 0.1466670036315918 0
vt 0.75 0.06333330273628235 0
vt 1 0.06333330273628235 0
vt -5.332520059878445e-15 0.1466670036315918 0
vt -0.75 0.1466670036315918 0
vt -0.25 0.06333330273628235 0
vt -5.332520059878445e-15 0.06333330273628235 0
vt -1 0.06333330273628235 0
vt -0.75 0.06333330273628235 0
vt 1 0 0
vt 1 1 0
vt 0.8999999761581421 1 0
vt 0.8999999761581421 0.75 0
vt 0.8999999761581421 4.812740091740856e-16 0
vt -1 5.854839962187493e-16 0
vt -0.8999999761581421 5.854839962187493e-16 0
vt -0.8999999761581421 0.06333330273628235 0
vt -0.8999999761581421 0.1466670036315918 0
vt 0.8999999761581421 0.1466670036315918 0
vt 0.8999999761581421 0.06333330273628235 0
vt 0.8999999761581421 0 0
vt 6.189489974153459e-15 0.1466670036315918 0
vt 6.189489974153459e-15 0 0
vt -0.1000000014901161 1 0
vt -0.8999999761581421 1 0
vt -1 1 0
vt -0.8999999761581421 4.812740091740856e-16 0
vt -0.1000000014901161 5.775290015913159e-15 0
vt 0 6.73784004596458e-15 0
vt -5.775290015913159e-15 1 0
vt -7.583949805426147e-29 0.1466670036315918 0
vt -7.583949805426147e-29 -5.259870031454946e-30 0
vt 0.1000000014901161 -5.387129614112255e-30 0
vt 0.1000000014901161 0.06333330273628235 0
vt 0.1000000014901161 0.1466670036315918 0
vt -0.1000000014901161 0.06333330273628235 0
vt -0.1000000014901161 0.1466670036315918 0
vt -2.786840040420319e-15 0.1466670036315918 0
vt -0.1000000014901161 5.854839962187493e-16 0
vt -2.786840040420319e-15 5.854839962187493e-16 0
vt 11.81099987030029 7.480309963226318 0
vt 106.2990036010742 7.480309963226318 0
vt 106.2990036010742 -1.413980016942199e-27 0
vt 11.81099987030029 -1.440980014018552e-27 0
vt -8.957420823031325e-27 -6.212439962283338e-28 0
vt 11.81099987030029 17.32279968261719 0
vt 106.2990036010742 17.32279968261719 0
vt 118.1100006103516 1.261168617892335e-44 0
vt 118.1100006103516 17.32279968261719 0
vt -8.957420823031325e-27 17.32279968261719 0
vt -88.58270263671875 17.32279968261719 0
vt -29.5275993347168 7.480309963226318 0
vt -88.58270263671875 7.480309963226318 0
vt 11.81099987030029 30.35560035705566 0
vt 11.81099987030029 90.22530364990234 0
vt 106.2990036010742 90.22530364990234 0
vt 106.2990036010742 30.35560035705566 0
vt -118.1100006103516 17.32279968261719 0
vt -118.1100006103516 7.480309963226318 0
vt -6.298250224308355e-13 7.480309963226318 0
vt -6.298250224308355e-13 17.32279968261719 0
vt -11.81099987030029 17.32279968261719 0
vt -11.81099987030029 7.480309963226318 0
vt -106.2990036010742 7.480309963226318 0
vt -106.2990036010742 17.32279968261719 0
vt 7.457859742092399e-13 17.32279968261719 0
vt 88.58270263671875 17.32279968261719 0
vt 29.5275993347168 7.480309963226318 0
vt 7.457859742092399e-13 7.480309963226318 0
vt 118.1100006103516 7.480309963226318 0
vt 88.58270263671875 7.480309963226318 0
vt -106.2990036010742 118.1100006103516 0
vt -11.81099987030029 118.1100006103516 0
vt -6.821209721195876e-13 118.1100006103516 0
vt 0 7.958079724715295e-13 0
vt -11.81099987030029 6.821209721195876e-13 0
vt -106.2990036010742 5.684339853201728e-14 0
vt -118.1100006103516 0 0
vt -118.1100006103516 118.1100006103516 0
vt -7.958079724715295e-13 17.32279968261719 0
vt -7.958079724715295e-13 0 0
vt 118.1100006103516 0 0
vt 7.31042993067782e-13 0 0
vt 7.31042993067782e-13 17.32279968261719 0
vt 106.2990036010742 118.1100006103516 0
vt 106.2990036010742 88.58270263671875 0
vt 11.81099987030029 88.58270263671875 0
vt 11.81099987030029 118.1100006103516 0
vt 11.81099987030029 6.907080159559986e-13 0
vt 1.717429909224577e-13 8.043950163079405e-13 0
vt 8.538639630420453e-13 118.1100006103516 0
vt 118.1100006103516 118.1100006103516 0
vt 106.2990036010742 5.684339853201728e-14 0
vt -11.81099987030029 3.365730003729306e-13 0
vt -106.2990036010742 3.365730003729306e-13 0
vt -118.1100006103516 6.91517020512053e-14 0
vt -3.29154997529002e-13 6.91517020512053e-14 0
vt -3.29154997529002e-13 17.32279968261719 0
vt 106.2990036010742 1.028570064949379e-13 0
vt 11.81099987030029 7.2813500021085e-13 0
vt 11.81099987030029 29.5275993347168 0
vt 106.2990036010742 29.5275993347168 0
vt -0.8999999761581421 2.84964986279983e-15 0
vt -0.1000000014901161 2.84964986279983e-15 0
vt 0.8999999761581421 0.25 0
vt 0.1000000014901161 0.25 0
vt 0.1000000014901161 6.164869690992092e-15 0
vt 0.8999999761581421 8.708560135936236e-16 0
vt 0.8999999761581421 0.2570100128650665 0
vt 0.8999999761581421 0.7639070153236389 0
vt 0.1000000014901161 0.7639070153236389 0
vt 0.1000000014901161 0.2570100128650665 0
vt 0.1000000014901161 -1.220029976153473e-29 0
vt 0.8999999761581421 -1.19717001526162e-29 0

# 34 vertex normals
vn -1 0 -6.189489974153459e-15
vn -9.914250444101411e-15 1 4.957130092490152e-16
vn 1 4.620230149258043e-15 5.390270342705769e-15
vn 1 1.279680013807984e-30 1.540080048082274e-14
vn -1 -4.620230149258043e-15 -5.390270342705769e-15
vn -1 0 -7.700390076016e-15
vn 0 1 0
vn 9.043409941798634e-15 -5.854839962187493e-16 -1
vn -4.812739985861738e-15 1.603110102166253e-32 1
vn 1 0 6.189489974153459e-15
vn 0 -1 0
vn -1.125579901365466e-14 -7.806459988594157e-16 1
vn -1 0 -3.850189955810317e-15
vn 1.804780088736553e-15 2.730860045463084e-31 -1
vn 2.98844997549284e-15 -5.854839962187493e-16 -1
vn 6.467120269209106e-15 1.899769963331676e-15 -1
vn 1.125579901365466e-14 7.806459988594157e-16 -1
vn 4.812739985861738e-15 -1.603110102166253e-32 -1
vn 1 0 3.850189955810317e-15
vn -3.432149973703639e-15 -0.9863939881324768 -0.1643989980220795
vn 1 0 7.700390076016e-15
vn -1.804780088736553e-15 -2.730860045463084e-31 1
vn -1 -1.279680013807984e-30 -1.540080048082274e-14
vn -1.922280075663195e-15 -1 6.151290058781711e-15
vn 9.914250444101411e-15 -1 -4.957130092490152e-16
vn -6.015930382162211e-15 2.84964986279983e-15 1
vn -9.043409941798634e-15 5.854839962187493e-16 1
vn -2.98844997549284e-15 5.854839962187493e-16 1
vn -1.922280075663195e-15 -1 -6.151290058781711e-15
vn 6.015930382162211e-15 -2.84964986279983e-15 -1
vn 1.922280075663195e-15 1 6.151290058781711e-15
vn 3.432149973703639e-15 0.9863939881324768 0.1643989980220795
vn -6.467120269209106e-15 -1.899769963331676e-15 1
vn 1.922280075663195e-15 1 -6.151290058781711e-15

# Mesh 'Red.Red.Red.Red.Red.Red.Red.Red.Red.Red.Red.Red.Mesh1 Ramp_sharp Model' with 39 faces
g Red.Red.Red.Red.Red.Red.Red.Red.Red.Red.Red.Red.Mesh1 Ramp_sharp Model
usemtl Red
f  1/1/1 2/2/1 3/3/1
f  1/1/1 3/3/1 4/4/1
f  5/5/2 6/6/2 3/7/2
f  5/5/2 3/7/2 2/8/2
f  2/8/2 7/9/2 5/5/2
f  8/10/3 9/11/3 5/12/3
f  8/10/3 5/12/3 7/13/3
f  6/14/4 5/12/3 10/15/4
f  6/14/4 10/15/4 11/16/4
f  12/17/5 13/18/5 14/19/5
f  12/17/5 14/19/5 15/20/5
f  16/21/6 17/22/6 13/18/5
f  16/21/6 13/18/5 18/3/6
f  19/23/7 20/24/7 18/25/7
f  19/23/7 18/25/7 13/26/7
f  13/26/7 12/27/7 19/23/7
f  20/3/8 21/28/8 22/29/8
f  20/3/8 22/29/8 16/30/8
f  16/30/8 18/31/8 20/3/8
f  19/14/9 12/32/9 15/33/9
f  19/14/9 15/33/9 23/34/9
f  23/34/9 24/23/9 19/14/9
f  20/14/10 19/35/10 24/36/10
f  20/14/10 24/36/10 21/23/10
f  25/37/11 22/38/11 21/39/11
f  25/37/11 21/39/11 24/4/11
f  25/37/11 24/4/11 23/40/11
f  25/37/11 23/40/11 26/41/11
f  25/37/11 26/41/11 1/42/11
f  1/42/11 4/43/11 25/37/11
f  2/44/12 1/45/12 26/46/12
f  2/44/12 26/46/12 8/47/12
f  8/47/12 7/48/12 2/44/12
f  10/22/13 9/19/13 5/18/13
f  13/31/14 17/30/14 10/49/14
f  13/31/14 10/49/14 5/50/14
f  3/51/15 6/50/15 11/49/15
f  3/51/15 11/49/15 25/52/15
f  25/52/15 4/53/15 3/51/15

# Mesh 'BackColor.BackColor.BackColor.BackColor.BackColor.BackColor.BackColor.BackColor.BackColor.BackColor.BackColor.BackColor.BackColor.BackColor.BackColor' with 49 faces
g BackColor.BackColor.BackColor.BackColor.BackColor.BackColor.BackColor.BackColor.BackColor.BackColor.BackColor.BackColor.BackColor.BackColor.BackColor
usemtl BackColor
f  8/54/16 15/55/16 23/56/16
f  8/54/16 23/56/16 26/57/16
f  1/58/17 7/59/17 8/54/16
f  8/54/16 26/57/16 1/58/17
f  23/56/16 15/55/16 12/60/18
f  12/60/18 24/61/18 23/56/16
f  12/60/18 19/62/18 24/61/18
f  1/58/17 2/63/17 7/59/17
f  5/64/19 9/65/19 10/66/19
f  9/67/20 5/68/20 13/69/20
f  9/67/20 13/69/20 14/70/20
f  18/71/21 13/64/21 17/66/21
f  18/71/21 17/66/21 16/72/21
f  15/73/3 14/65/3 13/64/21
f  15/73/3 13/64/21 12/74/3
f  5/75/22 10/76/22 17/77/22
f  5/75/22 17/77/22 13/78/22
f  7/79/5 5/80/5 9/81/5
f  7/79/5 9/81/5 8/82/5
f  11/83/23 10/84/23 5/80/5
f  11/83/23 5/80/5 6/62/23
f  22/85/7 25/86/7 4/87/7
f  22/85/7 4/87/7 1/88/7
f  22/85/7 1/88/7 26/89/7
f  22/85/7 26/89/7 23/90/7
f  22/85/7 23/90/7 24/91/7
f  24/91/7 21/92/7 22/85/7
f  4/91/10 3/71/10 2/93/10
f  4/91/10 2/93/10 1/94/10
f  21/95/1 24/96/1 19/97/1
f  21/95/1 19/97/1 20/62/1
f  16/98/24 17/99/24 10/100/24
f  16/98/24 10/100/24 11/101/24
f  6/101/25 5/100/25 7/102/25
f  6/101/25 7/102/25 2/103/25
f  2/103/25 3/104/25 6/101/25
f  20/105/11 19/95/11 12/106/11
f  20/105/11 12/106/11 13/99/11
f  13/99/11 18/98/11 20/105/11
f  16/77/26 11/76/26 25/107/26
f  16/77/26 25/107/26 22/108/26
f  21/109/27 18/78/27 16/77/26
f  16/77/26 22/108/26 21/109/27
f  25/107/26 11/76/26 6/75/28
f  6/75/28 4/110/28 25/107/26
f  6/75/28 3/111/28 4/110/28
f  21/109/27 20/71/27 18/78/27
f  15/112/29 8/113/29 9/114/29
f  15/112/29 9/114/29 14/115/29

# Mesh 'Green.Green.Green.Green' with 10 faces
g Green.Green.Green.Green
usemtl Green
f  22/116/30 25/117/30 11/49/30
f  22/116/30 11/49/30 16/30/30
f  14/118/31 9/119/31 8/120/31
f  14/118/31 8/120/31 15/121/31
f  14/122/32 13/123/32 5/124/32
f  14/122/32 5/124/32 9/125/32
f  26/126/33 23/127/33 15/33/33
f  26/126/33 15/33/33 8/47/33
f  11/6/34 10/5/34 17/26/34
f  11/6/34 17/26/34 16/25/34

