# Blender v2.78 (sub 0) OBJ File: ''
# www.blender.org
mtllib Ramp_sharp_01.mtl
o Mesh1_Ramp_sharp_Model
v 0.300000 0.440000 -3.000000
v 0.300000 0.190000 -3.000000
v 0.300000 0.000000 -3.000000
v 0.000000 0.000000 -3.000000
v 0.000000 0.440000 -3.000000
v 0.000000 0.000000 -0.000000
v 0.000000 0.440000 0.000000
v 0.300000 0.440000 0.000000
v 0.300000 0.440000 -2.250000
v 0.300000 0.190000 0.000000
v 0.300000 0.190000 -0.750000
v 2.700000 0.190000 -0.750000
v 2.700000 0.190000 0.000000
v 2.700000 0.440000 -2.250000
v 2.700000 0.440000 0.000000
v 3.000000 0.440000 -3.000000
v 2.700000 0.440000 -3.000000
v 3.000000 0.440000 0.000000
v 2.700000 0.000000 -0.000000
v 3.000000 0.000000 0.000000
v 3.000000 0.000000 -3.000000
v 2.700000 0.000000 -3.000000
v 0.300000 0.000000 -0.000000
v 0.300000 0.190000 -2.250000
v 2.700000 0.190000 -2.250000
v 2.700000 0.190000 -3.000000
vt -0.1000 0.1467
vt -0.1000 0.0633
vt -0.1000 0.0000
vt -0.0000 0.0000
vt -0.0000 0.1467
vt -0.0000 0.0000
vt -0.0000 0.1467
vt -1.0000 0.1467
vt -1.0000 0.0000
vt 0.1000 1.0000
vt 0.0000 1.0000
vt 0.0000 0.0000
vt 0.1000 0.0000
vt 0.1000 0.7500
vt 0.0000 0.0633
vt 0.2500 0.0633
vt 0.7500 0.1467
vt 0.0000 0.1467
vt -0.0000 0.1467
vt -0.7500 0.1467
vt -0.2500 0.0633
vt -0.0000 0.0633
vt 1.0000 1.0000
vt 0.9000 1.0000
vt 0.9000 0.7500
vt 0.9000 0.0000
vt 1.0000 0.0000
vt 0.9000 0.1467
vt 0.9000 0.0633
vt 0.9000 0.0000
vt 1.0000 0.0000
vt 1.0000 0.1467
vt 1.0000 0.1467
vt 0.0000 0.1467
vt 0.0000 0.0000
vt 1.0000 0.0000
vt -0.9000 1.0000
vt -1.0000 1.0000
vt -1.0000 0.0000
vt -0.9000 0.0000
vt -0.1000 0.0000
vt -0.0000 1.0000
vt -0.1000 1.0000
vt 0.1000 -0.0000
vt 0.1000 0.0633
vt 0.1000 0.1467
vt -0.7500 0.0633
vt -0.2500 0.0633
vt -0.7500 0.1467
vt -0.9000 0.1467
vt -0.9000 0.0633
vt -0.1000 0.0633
vt -0.1000 0.1467
vt -1.0000 0.0633
vt -0.7500 0.0633
vt -1.0000 0.1467
vt 1.0000 0.1467
vt 0.7500 0.0633
vt 1.0000 0.0633
vt -1.0000 0.0000
vt -0.9000 0.0000
vt -0.9000 0.0633
vt -0.9000 0.1467
vt -1.0000 0.1467
vt 0.9000 0.2500
vt 0.1000 0.2500
vt 0.1000 0.0000
vt 0.9000 0.0000
vt 0.9000 0.2570
vt 0.9000 0.7639
vt 0.1000 0.7639
vt 0.1000 0.2570
vt 0.1000 1.0000
vt 0.1000 0.7500
vt 0.9000 0.7500
vt 0.9000 1.0000
vn 0.0000 0.0000 -1.0000
vn -1.0000 0.0000 -0.0000
vn 0.0000 1.0000 0.0000
vn 1.0000 0.0000 0.0000
vn -0.0000 -0.0000 1.0000
vn 0.0000 -1.0000 -0.0000
vn 0.0000 0.9864 0.1644
usemtl Red.032
s 1
f 1/1/1 2/2/1 3/3/1 4/4/1 5/5/1
f 6/6/2 7/7/2 5/8/2 4/9/2
f 1/10/3 5/11/3 7/12/3 8/13/3 9/14/3
f 10/15/4 11/16/4 9/17/4 8/18/4
f 15/19/2 14/20/2 12/21/2 13/22/2
f 16/23/3 17/24/3 14/25/3 15/26/3 18/27/3
f 15/28/5 13/29/5 19/30/5 20/31/5 18/32/5
f 16/33/4 18/34/4 20/35/4 21/36/4
f 22/37/6 21/38/6 20/39/6 19/40/6 23/41/6 6/6/6 4/42/6 3/43/6
f 6/6/5 23/44/5 10/45/5 8/46/5 7/7/5
f 24/47/2 11/48/2 9/49/2
f 14/50/1 25/51/1 24/52/1 9/53/1
f 26/54/2 25/55/2 14/20/2 17/56/2
f 1/57/4 9/17/4 24/58/4 2/59/4
f 21/60/1 22/61/1 26/62/1 17/63/1 16/64/1
usemtl Green.030
f 12/65/3 11/66/3 10/67/3 13/68/3
f 12/69/7 14/70/7 9/71/7 11/72/7
f 2/73/3 24/74/3 25/75/3 26/76/3
f 22/61/1 3/3/1 2/2/1 26/62/1
f 23/44/5 19/30/5 13/29/5 10/45/5
