# File produced by Open Asset Import Library (http://www.assimp.sf.net)
# (assimp v4.1.327737527)

mtllib Ramp_3_01.mtl

# 20 vertex positions
v  0 -1.319999933242798 -2.31012007212341e-14
v  0 -0.8799999952316284 -2.31012007212341e-14
v  1.732589969389263e-14 0.4399999976158142 -3
v  1.732589969389263e-14 0 -3
v  0.300000011920929 0.4399999976158142 -3
v  0.300000011920929 -0.8799999952316284 -1.732589969389263e-14
v  0.300000011920929 -1.319999933242798 -1.732589969389263e-14
v  0.300000011920929 -1.129999995231628 -1.732589969389263e-14
v  0.300000011920929 0 -3
v  2.700000047683716 0 -3
v  3 0 -3
v  3 -1.319999933242798 0
v  2.700000047683716 -1.319999933242798 0
v  0.300000011920929 0.1899999976158142 -3
v  3 0.4399999976158142 -3
v  2.700000047683716 0.1899999976158142 -3
v  2.700000047683716 0.4399999976158142 -3
v  3 -0.8799999952316284 0
v  2.700000047683716 -0.8799999952316284 0
v  2.700000047683716 -1.129999995231628 0

# 108 UV coordinates
vt -7.700390076016e-15 -0.4399999976158142 0
vt -7.700390076016e-15 -0.2933329939842224 0
vt -1 0.1466670036315918 0
vt -1 0 0
vt 0.1000000014901161 0.9743829965591431 0
vt -4.485770445145001e-15 0.9743829965591431 0
vt -7.901409865956109e-29 -0.118137001991272 0
vt 0.1000000014901161 -0.118137001991272 0
vt -1.482399954145143e-28 -0.2933329939842224 0
vt -1.482399954145143e-28 -0.4399999976158142 0
vt 0.1000000014901161 -0.4399999976158142 0
vt 0.1000000014901161 -0.3766669929027557 0
vt 0.1000000014901161 -0.2933329939842224 0
vt -0.1000000014901161 0.9153149724006653 0
vt -0.8999999761581421 0.9153149724006653 0
vt -1 0.9153149724006653 0
vt -1 -0.1772049963474274 0
vt -0.8999999761581421 -0.1772049963474274 0
vt -0.1000000014901161 -0.1772049963474274 0
vt 4.871719840790827e-29 -0.1772049963474274 0
vt 5.512949936104872e-16 0.9153149724006653 0
vt 6.352819949240716e-15 -0.3766669929027557 0
vt 1 0.06333330273628235 0
vt 1 0.1466670036315918 0
vt 6.352819949240716e-15 -0.2933329939842224 0
vt -1 5.854839962187493e-16 0
vt -0.8999999761581421 5.854839962187493e-16 0
vt -0.8999999761581421 0.06333330273628235 0
vt -0.8999999761581421 0.1466670036315918 0
vt 1 -0.2933329939842224 0
vt 0.8999999761581421 -0.2933329939842224 0
vt 0.8999999761581421 -0.3766669929027557 0
vt 0.8999999761581421 -0.4399999976158142 0
vt 1 -0.4399999976158142 0
vt -1 0.06333330273628235 0
vt -5.197760082585601e-15 -0.3766669929027557 0
vt -5.197760082585601e-15 -0.2933329939842224 0
vt 6.73784004596458e-15 -0.2933329939842224 0
vt 6.73784004596458e-15 -0.4399999976158142 0
vt 1 2.529279860686901e-29 0
vt 1 0.9743829965591431 0
vt 0.8999999761581421 0.9743829965591431 0
vt 0.8999999761581421 -0.118137001991272 0
vt 1 -0.118137001991272 0
vt -2.786840040420319e-15 0.1466670036315918 0
vt -0.1000000014901161 0.1466670036315918 0
vt -0.1000000014901161 0.06333330273628235 0
vt -0.1000000014901161 5.854839962187493e-16 0
vt -2.786840040420319e-15 5.854839962187493e-16 0
vt -106.2990036010742 7.480309963226318 0
vt -11.81099987030029 7.480309963226318 0
vt -11.81099987030029 3.365730003729306e-13 0
vt -106.2990036010742 3.365730003729306e-13 0
vt -118.1100006103516 6.91517020512053e-14 0
vt -106.2990036010742 17.32279968261719 0
vt -11.81099987030029 17.32279968261719 0
vt -3.29154997529002e-13 6.91517020512053e-14 0
vt -3.29154997529002e-13 17.32279968261719 0
vt -118.1100006103516 17.32279968261719 0
vt 118.1100006103516 2.987339981246174e-27 0
vt 7.958079724715295e-13 -51.96849822998047 0
vt 7.958079724715295e-13 -34.64569854736328 0
vt 118.1100006103516 17.32279968261719 0
vt 7.503330097004268e-13 -34.64569854736328 0
vt 118.1100006103516 7.480309963226318 0
vt 7.503330097004268e-13 -44.48820114135742 0
vt 106.2990036010742 -34.64569854736328 0
vt 118.1100006103516 -34.64569854736328 0
vt 118.1100006103516 -51.96849822998047 0
vt 106.2990036010742 -51.96849822998047 0
vt 106.2990036010742 -44.48820114135742 0
vt 11.81099987030029 -44.48820114135742 0
vt 11.81099987030029 -51.96849822998047 0
vt -1.750869999864631e-26 -51.96849822998047 0
vt 11.81099987030029 -34.64569854736328 0
vt -1.750869999864631e-26 -34.64569854736328 0
vt 118.1100006103516 -13.95310020446777 0
vt 106.2990036010742 -13.95310020446777 0
vt 106.2990036010742 115.0849990844727 0
vt 118.1100006103516 115.0849990844727 0
vt -118.1100006103516 0 0
vt -9.094949186133627e-13 -34.64569854736328 0
vt -9.094949186133627e-13 -51.96849822998047 0
vt 106.2990036010742 -17.91710090637207 0
vt 11.81099987030029 -17.91710090637207 0
vt 11.81099987030029 111.1210021972656 0
vt 106.2990036010742 111.1210021972656 0
vt 11.81099987030029 -13.95310020446777 0
vt -9.332380894276054e-27 -13.95310020446777 0
vt -5.298150156443637e-13 115.0849990844727 0
vt 11.81099987030029 115.0849990844727 0
vt -6.139089887488569e-13 -34.64569854736328 0
vt -6.139089887488569e-13 -44.48820114135742 0
vt -118.1100006103516 7.480309963226318 0
vt -106.2990036010742 108.1080017089844 0
vt -11.81099987030029 108.1080017089844 0
vt 6.511359783604662e-14 108.1080017089844 0
vt 5.754000361302648e-27 -20.92970085144043 0
vt -11.81099987030029 -20.92970085144043 0
vt -106.2990036010742 -20.92970085144043 0
vt -118.1100006103516 -20.92970085144043 0
vt -118.1100006103516 108.1080017089844 0
vt 0.8999999761581421 0.9408220052719116 0
vt 0.1000000014901161 0.9408220052719116 0
vt 0.1000000014901161 -0.1516979932785034 0
vt 0.8999999761581421 -0.1516979932785034 0
vt -0.8999999761581421 2.84964986279983e-15 0
vt -0.1000000014901161 2.84964986279983e-15 0

# 26 vertex normals
vn -1 -2.529279860686901e-29 -5.775290015913159e-15
vn -4.132520013173805e-15 0.9153149724006653 0.4027389883995056
vn -1.925100060102842e-14 3.847449904167927e-31 1
vn 2.547960020393898e-15 -0.9153149724006653 -0.4027389883995056
vn 1 0 5.775290015913159e-15
vn 9.043409941798634e-15 -5.854839962187493e-16 -1
vn 0 0 1
vn -1 0 -5.775290015913159e-15
vn 1 -2.529279860686901e-29 6.73784004596458e-15
vn -4.162360136872626e-15 0.9153149724006653 0.4027389883995056
vn 2.98844997549284e-15 -5.854839962187493e-16 -1
vn -6.015930382162211e-15 2.84964986279983e-15 1
vn -9.043409941798634e-15 5.854839962187493e-16 1
vn -2.98844997549284e-15 5.854839962187493e-16 1
vn -1 2.529279860686901e-29 -6.73784004596458e-15
vn -0 -0 -1
vn 7.219110190550843e-15 -2.073921727200729e-43 -1
vn 1.925100060102842e-14 -3.847449904167927e-31 -1
vn 4.162360136872626e-15 -0.9153149724006653 -0.4027389883995056
vn 1 2.529279860686901e-29 5.775290015913159e-15
vn 2.426179975984779e-15 -0.9153149724006653 -0.4027389883995056
vn 4.132520013173805e-15 -0.9153149724006653 -0.4027389883995056
vn -2.547960020393898e-15 0.9153149724006653 0.4027389883995056
vn -2.426179975984779e-15 0.9153149724006653 0.4027389883995056
vn 6.015930382162211e-15 -2.84964986279983e-15 -1
vn -7.219110190550843e-15 2.073921727200729e-43 1

# Mesh 'Red.Red.Red.Red.Red.Red.Red.Red.Mesh1 Ramp_3 Model' with 30 faces
g Red.Red.Red.Red.Red.Red.Red.Red.Mesh1 Ramp_3 Model
usemtl Red
f  1/1/1 2/2/1 3/3/1
f  1/1/1 3/3/1 4/4/1
f  5/5/2 3/6/2 2/7/2
f  5/5/2 2/7/2 6/8/2
f  2/9/3 1/10/3 7/11/3
f  2/9/3 7/11/3 8/12/3
f  8/12/3 6/13/3 2/9/3
f  9/14/4 10/15/4 11/16/4
f  9/14/4 11/16/4 12/17/4
f  9/14/4 12/17/4 13/18/4
f  9/14/4 13/18/4 7/19/4
f  9/14/4 7/19/4 1/20/4
f  1/20/4 4/21/4 9/14/4
f  8/22/5 14/23/5 5/24/5
f  8/22/5 5/24/5 6/25/5
f  15/3/6 11/26/6 10/27/6
f  15/3/6 10/27/6 16/28/6
f  16/28/6 17/29/6 15/3/6
f  18/30/7 19/31/7 20/32/7
f  18/30/7 20/32/7 13/33/7
f  13/33/7 12/34/7 18/30/7
f  16/35/8 20/36/8 19/37/8
f  16/35/8 19/37/8 17/3/8
f  15/24/9 18/38/9 12/39/9
f  15/24/9 12/39/9 11/40/9
f  15/41/10 17/42/10 19/43/10
f  15/41/10 19/43/10 18/44/10
f  3/45/11 5/46/11 14/47/11
f  3/45/11 14/47/11 9/48/11
f  9/48/11 4/49/11 3/45/11

# Mesh 'BackColor.BackColor.BackColor.BackColor.BackColor.BackColor.BackColor.BackColor.BackColor.BackColor.BackColor' with 36 faces
g BackColor.BackColor.BackColor.BackColor.BackColor.BackColor.BackColor.BackColor.BackColor.BackColor.BackColor
usemtl BackColor
f  16/50/12 14/51/12 9/52/12
f  16/50/12 9/52/12 10/53/12
f  11/54/13 17/55/13 16/50/12
f  16/50/12 10/53/12 11/54/13
f  9/52/12 14/51/12 5/56/14
f  5/56/14 4/57/14 9/52/12
f  5/56/14 3/58/14 4/57/14
f  11/54/13 15/59/13 17/55/13
f  11/60/15 12/61/15 18/62/15
f  11/60/15 18/62/15 15/63/15
f  6/64/8 5/63/8 14/65/8
f  6/64/8 14/65/8 8/66/8
f  19/67/16 18/68/16 12/69/16
f  19/67/16 12/69/16 13/70/16
f  13/70/16 20/71/16 19/67/16
f  8/72/17 20/71/16 13/70/16
f  8/72/17 13/70/16 7/73/17
f  1/74/18 6/75/18 8/72/17
f  8/72/17 7/73/17 1/74/18
f  1/74/18 2/76/18 6/75/18
f  18/77/19 19/78/19 17/79/19
f  18/77/19 17/79/19 15/80/19
f  4/81/20 3/59/20 2/82/20
f  4/81/20 2/82/20 1/83/20
f  20/84/21 8/85/21 14/86/21
f  20/84/21 14/86/21 16/87/21
f  6/88/22 2/89/22 3/90/22
f  6/88/22 3/90/22 5/91/22
f  17/59/5 19/92/5 20/93/5
f  17/59/5 20/93/5 16/94/5
f  10/95/23 9/96/23 4/97/23
f  10/95/23 4/97/23 1/98/23
f  10/95/23 1/98/23 7/99/23
f  10/95/23 7/99/23 13/100/23
f  10/95/23 13/100/23 12/101/23
f  12/101/23 11/102/23 10/95/23

# Mesh 'Green.Green.Green' with 6 faces
g Green.Green.Green
usemtl Green
f  16/103/24 14/104/24 8/105/24
f  16/103/24 8/105/24 20/106/24
f  10/107/25 9/108/25 14/47/25
f  10/107/25 14/47/25 16/28/25
f  7/11/26 13/33/26 20/32/26
f  7/11/26 20/32/26 8/12/26

