# Blender v2.78 (sub 0) OBJ File: ''
# www.blender.org
mtllib Ramp_4_01.mtl
o Mesh1_Ramp_4_Model
v 0.300000 0.440000 -3.000000
v 0.300000 0.190000 -3.000000
v 0.300000 0.000000 -3.000000
v 0.000000 0.000000 -3.000000
v 0.000000 0.440000 -3.000000
v 0.000000 -1.760000 -0.000000
v 0.000000 -1.320000 -0.000000
v 0.300000 -1.320000 -0.000000
v 0.300000 -1.760000 -0.000000
v 0.300000 -1.570000 -0.000000
v 2.700000 0.000000 -3.000000
v 3.000000 0.000000 -3.000000
v 3.000000 -1.760000 -0.000000
v 2.700000 -1.760000 -0.000000
v 2.700000 0.190000 -3.000000
v 2.700000 0.440000 -3.000000
v 3.000000 0.440000 -3.000000
v 2.700000 -1.320000 -0.000000
v 3.000000 -1.320000 -0.000000
v 2.700000 -1.570000 -0.000000
vt -0.1000 0.1467
vt -0.1000 0.0633
vt -0.1000 0.0000
vt -0.0000 0.0000
vt -0.0000 0.1467
vt -0.0000 -0.5867
vt -0.0000 -0.4400
vt -1.0000 0.1467
vt -1.0000 0.0000
vt 0.1000 0.9367
vt 0.0000 0.9367
vt -0.0000 -0.2226
vt 0.1000 -0.2226
vt 0.1000 -0.5867
vt 0.1000 -0.5233
vt 0.1000 -0.4400
vt -0.9000 0.8625
vt -1.0000 0.8625
vt -1.0000 -0.2969
vt -0.9000 -0.2969
vt -0.1000 -0.2969
vt 0.0000 -0.2969
vt 0.0000 0.8625
vt -0.1000 0.8625
vt -1.0000 0.0000
vt -0.9000 0.0000
vt -0.9000 0.0633
vt -0.9000 0.1467
vt -1.0000 0.1467
vt 1.0000 0.9367
vt 0.9000 0.9367
vt 0.9000 -0.2226
vt 1.0000 -0.2226
vt 0.9000 -0.4400
vt 0.9000 -0.5233
vt 0.9000 -0.5867
vt 1.0000 -0.5867
vt 1.0000 -0.4400
vt -1.0000 0.0633
vt -0.0000 -0.5233
vt -0.0000 -0.4400
vt -1.0000 0.1467
vt 0.0000 -0.5233
vt 1.0000 0.0633
vt 1.0000 0.1467
vt 0.0000 -0.4400
vt 1.0000 0.1467
vt 0.0000 -0.4400
vt 0.0000 -0.5867
vt 1.0000 -0.0000
vt 0.9000 0.8946
vt 0.1000 0.8946
vt 0.1000 -0.2648
vt 0.9000 -0.2648
vn 0.0000 0.0000 -1.0000
vn -1.0000 0.0000 -0.0000
vn 0.0000 0.8625 0.5060
vn 0.0000 -0.0000 1.0000
vn 0.0000 -0.8625 -0.5060
vn 1.0000 0.0000 0.0000
usemtl Red.014
s 1
f 1/1/1 2/2/1 3/3/1 4/4/1 5/5/1
f 6/6/2 7/7/2 5/8/2 4/9/2
f 1/10/3 5/11/3 7/12/3 8/13/3
f 6/6/4 9/14/4 10/15/4 8/16/4 7/7/4
f 11/17/5 12/18/5 13/19/5 14/20/5 9/21/5 6/22/5 4/23/5 3/24/5
f 12/25/1 11/26/1 15/27/1 16/28/1 17/29/1
f 17/30/3 16/31/3 18/32/3 19/33/3
f 18/34/4 20/35/4 14/36/4 13/37/4 19/38/4
f 15/39/2 20/40/2 18/41/2 16/42/2
f 10/43/6 2/44/6 1/45/6 8/46/6
f 17/47/6 19/48/6 13/49/6 12/50/6
usemtl Green.014
f 15/51/3 2/52/3 10/53/3 20/54/3
f 9/14/4 14/36/4 20/35/4 10/15/4
f 11/26/1 3/3/1 2/2/1 15/27/1
