# Blender v2.78 (sub 0) OBJ File: ''
# www.blender.org
mtllib Ramp_1_01.mtl
o Mesh1_Ramp_1_Model
v 0.300000 0.440000 -3.000000
v 0.300000 0.190000 -3.000000
v 0.300000 0.000000 -3.000000
v 0.000000 0.000000 -3.000000
v 0.000000 0.440000 -3.000000
v 0.000000 -0.440000 -0.000000
v 0.000000 0.000000 0.000000
v 0.300000 -0.000000 0.000000
v 0.300000 -0.440000 -0.000000
v 0.300000 -0.250000 -0.000000
v 2.700000 0.000000 -3.000000
v 3.000000 0.000000 -3.000000
v 3.000000 -0.440000 -0.000000
v 2.700000 -0.440000 -0.000000
v 2.700000 0.190000 -3.000000
v 2.700000 -0.250000 -0.000000
v 2.700000 0.000000 0.000000
v 3.000000 0.000000 0.000000
v 3.000000 0.440000 -3.000000
v 2.700000 0.440000 -3.000000
vt -0.1000 0.1467
vt -0.1000 0.0633
vt -0.1000 0.0000
vt -0.0000 0.0000
vt -0.0000 0.1467
vt 0.0000 -0.1467
vt 0.0000 0.0000
vt -1.0000 0.1467
vt -1.0000 0.0000
vt 0.1000 1.0107
vt -0.0000 1.0107
vt 0.1000 0.0000
vt 0.1000 -0.1467
vt 0.1000 -0.0833
vt -0.9000 0.9894
vt -1.0000 0.9894
vt -1.0000 -0.0213
vt -0.9000 -0.0213
vt -0.1000 -0.0213
vt 0.0000 -0.0213
vt 0.0000 0.9894
vt -0.1000 0.9894
vt -0.0000 -0.0833
vt 1.0000 0.0633
vt 1.0000 0.1467
vt -0.0000 0.0000
vt 0.9000 0.0000
vt 0.9000 -0.0833
vt 0.9000 -0.1467
vt 1.0000 -0.1467
vt 1.0000 0.0000
vt 1.0000 0.1467
vt -0.0000 0.0000
vt -0.0000 -0.1467
vt 1.0000 0.0000
vt 1.0000 1.0107
vt 0.9000 1.0107
vt -1.0000 0.0633
vt -0.0000 -0.0833
vt -0.0000 0.0000
vt -1.0000 0.1467
vt -1.0000 0.0000
vt -0.9000 0.0000
vt -0.9000 0.0633
vt -0.9000 0.1467
vt -1.0000 0.1467
vt 0.9000 0.9986
vt 0.1000 0.9986
vt 0.1000 -0.0121
vt 0.9000 -0.0121
vn 0.0000 0.0000 -1.0000
vn -1.0000 0.0000 -0.0000
vn 0.0000 0.9894 0.1451
vn -0.0000 -0.0000 1.0000
vn 0.0000 -0.9894 -0.1451
vn 1.0000 0.0000 0.0000
usemtl Red.036
s 1
f 1/1/1 2/2/1 3/3/1 4/4/1 5/5/1
f 6/6/2 7/7/2 5/8/2 4/9/2
f 1/10/3 5/11/3 7/7/3 8/12/3
f 6/6/4 9/13/4 10/14/4 8/12/4 7/7/4
f 11/15/5 12/16/5 13/17/5 14/18/5 9/19/5 6/20/5 4/21/5 3/22/5
f 10/23/6 2/24/6 1/25/6 8/26/6
f 17/27/4 16/28/4 14/29/4 13/30/4 18/31/4
f 19/32/6 18/33/6 13/34/6 12/35/6
f 19/36/3 20/37/3 17/27/3 18/31/3
f 15/38/2 16/39/2 17/40/2 20/41/2
f 12/42/1 11/43/1 15/44/1 20/45/1 19/46/1
usemtl Green.035
f 15/47/3 2/48/3 10/49/3 16/50/3
f 9/13/4 14/29/4 16/28/4 10/14/4
f 11/43/1 3/3/1 2/2/1 15/44/1
