# File produced by Open Asset Import Library (http://www.assimp.sf.net)
# (assimp v4.1.908865877)

mtllib Ramp_3_01.mtl

# 20 vertex positions
v  -1.5 1.759999990463257 -1.5
v  -1.200000047683716 1.759999990463257 -1.5
v  -1.200000047683716 1.509999990463257 -1.5
v  -1.200000047683716 1.319999933242798 -1.5
v  -1.5 1.319999933242798 -1.5
v  -1.5 0 1.5
v  -1.5 0.4399999380111694 1.5
v  -1.200000047683716 0.4399999380111694 1.5
v  -1.200000047683716 0 1.5
v  -1.200000047683716 0.1899999380111694 1.5
v  1.200000047683716 1.319999933242798 -1.5
v  1.5 1.319999933242798 -1.5
v  1.5 0 1.5
v  1.200000047683716 0 1.5
v  1.200000047683716 1.509999990463257 -1.5
v  1.200000047683716 0.1899999380111694 1.5
v  1.5 0.4399999380111694 1.5
v  1.200000047683716 0.4399999380111694 1.5
v  1.5 1.759999990463257 -1.5
v  1.200000047683716 1.759999990463257 -1.5

# 110 UV coordinates
vt -2.786840040420319e-15 0.1466670036315918 0
vt -0.1000000014901161 0.1466670036315918 0
vt -0.1000000014901161 0.06333330273628235 0
vt -0.1000000014901161 5.854839962187493e-16 0
vt -2.786840040420319e-15 5.854839962187493e-16 0
vt -11.81099987030029 17.32279968261719 0
vt -3.29154997529002e-13 17.32279968261719 0
vt -3.29154997529002e-13 6.91517020512053e-14 0
vt -11.81099987030029 6.91517020512053e-14 0
vt -11.81099987030029 7.480309963226318 0
vt -7.700390076016e-15 -0.4399999976158142 0
vt -7.700390076016e-15 -0.2933329939842224 0
vt -1 0.1466670036315918 0
vt -1 0 0
vt -118.1100006103516 0 0
vt -118.1100006103516 17.32279968261719 0
vt -9.094949186133627e-13 -34.64569854736328 0
vt -9.094949186133627e-13 -51.96849822998047 0
vt -7.901409865956109e-29 -0.118137001991272 0
vt -4.485770445145001e-15 0.9743829965591431 0
vt 0.1000000014901161 0.9743829965591431 0
vt 0.1000000014901161 -0.118137001991272 0
vt 11.81099987030029 -13.95310020446777 0
vt -9.332380894276054e-27 -13.95310020446777 0
vt -5.298150156443637e-13 115.0849990844727 0
vt 11.81099987030029 115.0849990844727 0
vt -1.482399954145143e-28 -0.2933329939842224 0
vt -1.482399954145143e-28 -0.4399999976158142 0
vt 0.1000000014901161 -0.4399999976158142 0
vt 0.1000000014901161 -0.3766669929027557 0
vt 0.1000000014901161 -0.2933329939842224 0
vt -0.1000000014901161 0.9153149724006653 0
vt -0.8999999761581421 0.9153149724006653 0
vt -1 0.9153149724006653 0
vt -1 -0.1772049963474274 0
vt -0.8999999761581421 -0.1772049963474274 0
vt -0.1000000014901161 -0.1772049963474274 0
vt 4.871719840790827e-29 -0.1772049963474274 0
vt 5.512949936104872e-16 0.9153149724006653 0
vt -106.2990036010742 108.1080017089844 0
vt -11.81099987030029 108.1080017089844 0
vt 6.511359783604662e-14 108.1080017089844 0
vt 5.754000361302648e-27 -20.92970085144043 0
vt -11.81099987030029 -20.92970085144043 0
vt -106.2990036010742 -20.92970085144043 0
vt -118.1100006103516 -20.92970085144043 0
vt -118.1100006103516 108.1080017089844 0
vt -1.750869999864631e-26 -51.96849822998047 0
vt -1.750869999864631e-26 -34.64569854736328 0
vt 11.81099987030029 -34.64569854736328 0
vt 11.81099987030029 -44.48820114135742 0
vt 11.81099987030029 -51.96849822998047 0
vt 6.352819949240716e-15 -0.3766669929027557 0
vt 1 0.06333330273628235 0
vt 1 0.1466670036315918 0
vt 6.352819949240716e-15 -0.2933329939842224 0
vt 0.1000000014901161 -0.1516979932785034 0
vt 0.1000000014901161 0.9408220052719116 0
vt 0.8999999761581421 0.9408220052719116 0
vt 0.8999999761581421 -0.1516979932785034 0
vt 106.2990036010742 -17.91710090637207 0
vt 11.81099987030029 -17.91710090637207 0
vt 11.81099987030029 111.1210021972656 0
vt 106.2990036010742 111.1210021972656 0
vt 0.8999999761581421 -0.4399999976158142 0
vt 0.8999999761581421 -0.3766669929027557 0
vt 106.2990036010742 -44.48820114135742 0
vt 106.2990036010742 -51.96849822998047 0
vt 1 -0.2933329939842224 0
vt 0.8999999761581421 -0.2933329939842224 0
vt 1 -0.4399999976158142 0
vt 106.2990036010742 -34.64569854736328 0
vt 118.1100006103516 -34.64569854736328 0
vt 118.1100006103516 -51.96849822998047 0
vt 6.73784004596458e-15 -0.2933329939842224 0
vt 6.73784004596458e-15 -0.4399999976158142 0
vt 1 2.529279860686901e-29 0
vt 1 0.9743829965591431 0
vt 0.8999999761581421 0.9743829965591431 0
vt 0.8999999761581421 -0.118137001991272 0
vt 1 -0.118137001991272 0
vt 118.1100006103516 -13.95310020446777 0
vt 106.2990036010742 -13.95310020446777 0
vt 106.2990036010742 115.0849990844727 0
vt 118.1100006103516 115.0849990844727 0
vt -1 0.06333330273628235 0
vt -5.197760082585601e-15 -0.3766669929027557 0
vt -5.197760082585601e-15 -0.2933329939842224 0
vt -6.139089887488569e-13 -34.64569854736328 0
vt -6.139089887488569e-13 -44.48820114135742 0
vt -118.1100006103516 7.480309963226318 0
vt -1 5.854839962187493e-16 0
vt -0.8999999761581421 5.854839962187493e-16 0
vt -0.8999999761581421 0.06333330273628235 0
vt -0.8999999761581421 0.1466670036315918 0
vt -118.1100006103516 6.91517020512053e-14 0
vt -106.2990036010742 17.32279968261719 0
vt -106.2990036010742 7.480309963226318 0
vt -106.2990036010742 6.91517020512053e-14 0
vt -0.8999999761581421 2.84964986279983e-15 0
vt -0.1000000014901161 2.84964986279983e-15 0
vt -11.81099987030029 3.365730003729306e-13 0
vt -106.2990036010742 3.365730003729306e-13 0
vt 118.1100006103516 2.987339981246174e-27 0
vt 7.958079724715295e-13 -51.96849822998047 0
vt 7.958079724715295e-13 -34.64569854736328 0
vt 118.1100006103516 17.32279968261719 0
vt 7.503330097004268e-13 -34.64569854736328 0
vt 118.1100006103516 7.480309963226318 0
vt 7.503330097004268e-13 -44.48820114135742 0

# 24 vertex normals
vn 2.98844997549284e-15 -5.854839962187493e-16 -1
vn -2.98844997549284e-15 5.854839962187493e-16 1
vn -1 -2.529279860686901e-29 -5.775290015913159e-15
vn 1 2.529279860686901e-29 5.775290015913159e-15
vn 4.132520013173805e-15 -0.9153149724006653 -0.4027389883995056
vn -1.925100060102842e-14 3.847449904167927e-31 1
vn 2.547960020393898e-15 -0.9153149724006653 -0.4027389883995056
vn -2.547960020393898e-15 0.9153149724006653 0.4027389883995056
vn 1.925100060102842e-14 -3.847449904167927e-31 -1
vn 1 0 5.775290015913159e-15
vn 2.426179975984779e-15 -0.9153149724006653 -0.4027389883995056
vn -7.219110190550843e-15 2.073921727200729e-43 1
vn 7.219110190550843e-15 -2.073921727200729e-43 -1
vn 0 0 1
vn -0 -0 -1
vn 1 -2.529279860686901e-29 6.73784004596458e-15
vn -4.162360136872626e-15 0.9153149724006653 0.4027389883995056
vn 4.162360136872626e-15 -0.9153149724006653 -0.4027389883995056
vn -1 0 -5.775290015913159e-15
vn 9.043409941798634e-15 -5.854839962187493e-16 -1
vn -9.043409941798634e-15 5.854839962187493e-16 1
vn 6.015930382162211e-15 -2.84964986279983e-15 -1
vn -6.015930382162211e-15 2.84964986279983e-15 1
vn -1 2.529279860686901e-29 -6.73784004596458e-15

# Mesh 'Mesh1 Ramp_3 Model' with 3 faces
g Mesh1 Ramp_3 Model
usemtl Red
f  1/1/1 2/2/1 3/3/1
f  1/1/1 3/3/1 4/4/1
f  4/4/1 5/5/1 1/1/1

# Mesh 'BackColor' with 3 faces
g BackColor
usemtl BackColor
f  2/6/2 1/7/2 5/8/2
f  2/6/2 5/8/2 4/9/2
f  4/9/2 3/10/2 2/6/2

# Mesh 'Red' with 2 faces
g Red
usemtl Red
f  6/11/3 7/12/3 1/13/3
f  6/11/3 1/13/3 5/14/3

# Mesh 'BackColor' with 2 faces
g BackColor
usemtl BackColor
f  5/15/4 1/16/4 7/17/4
f  5/15/4 7/17/4 6/18/4

# Mesh 'Red' with 2 faces
g Red
usemtl Red
f  7/19/5 1/20/5 2/21/5
f  8/22/5 7/19/5 2/21/5

# Mesh 'BackColor' with 2 faces
g BackColor
usemtl BackColor
f  8/23/5 7/24/5 1/25/5
f  8/23/5 1/25/5 2/26/5

# Mesh 'Red' with 9 faces
g Red
usemtl Red
f  7/27/6 6/28/6 9/29/6
f  7/27/6 9/29/6 10/30/6
f  10/30/6 8/31/6 7/27/6
f  4/32/7 11/33/7 12/34/7
f  4/32/7 12/34/7 13/35/7
f  4/32/7 13/35/7 14/36/7
f  4/32/7 14/36/7 9/37/7
f  4/32/7 9/37/7 6/38/7
f  6/38/7 5/39/7 4/32/7

# Mesh 'BackColor' with 9 faces
g BackColor
usemtl BackColor
f  11/40/8 4/41/8 5/42/8
f  11/40/8 5/42/8 6/43/8
f  11/40/8 6/43/8 9/44/8
f  11/40/8 9/44/8 14/45/8
f  11/40/8 14/45/8 13/46/8
f  13/46/8 12/47/8 11/40/8
f  6/48/9 7/49/9 8/50/9
f  6/48/9 8/50/9 10/51/9
f  10/51/9 9/52/9 6/48/9

# Mesh 'Red' with 2 faces
g Red
usemtl Red
f  10/53/10 3/54/10 2/55/10
f  10/53/10 2/55/10 8/56/10

# Mesh 'Green' with 2 faces
g Green
usemtl Green
f  10/57/11 3/58/11 15/59/11
f  16/60/11 10/57/11 15/59/11

# Mesh 'BackColor' with 2 faces
g BackColor
usemtl BackColor
f  16/61/11 10/62/11 3/63/11
f  16/61/11 3/63/11 15/64/11

# Mesh 'Green' with 2 faces
g Green
usemtl Green
f  9/29/12 14/65/12 16/66/12
f  9/29/12 16/66/12 10/30/12

# Mesh 'BackColor' with 2 faces
g BackColor
usemtl BackColor
f  10/51/13 16/67/13 14/68/13
f  10/51/13 14/68/13 9/52/13

# Mesh 'Red' with 3 faces
g Red
usemtl Red
f  17/69/14 18/70/14 16/66/14
f  17/69/14 16/66/14 14/65/14
f  14/65/14 13/71/14 17/69/14

# Mesh 'BackColor' with 3 faces
g BackColor
usemtl BackColor
f  18/72/15 17/73/15 13/74/15
f  18/72/15 13/74/15 14/68/15
f  14/68/15 16/67/15 18/72/15

# Mesh 'Red' with 4 faces
g Red
usemtl Red
f  19/55/16 17/75/16 13/76/16
f  19/55/16 13/76/16 12/77/16
f  19/78/17 20/79/17 18/80/17
f  19/78/17 18/80/17 17/81/17

# Mesh 'BackColor' with 2 faces
g BackColor
usemtl BackColor
f  17/82/18 18/83/18 20/84/18
f  17/82/18 20/84/18 19/85/18

# Mesh 'Red' with 2 faces
g Red
usemtl Red
f  15/86/19 16/87/19 18/88/19
f  15/86/19 18/88/19 20/13/19

# Mesh 'BackColor' with 2 faces
g BackColor
usemtl BackColor
f  20/16/10 18/89/10 16/90/10
f  20/16/10 16/90/10 15/91/10

# Mesh 'Red' with 3 faces
g Red
usemtl Red
f  19/13/20 12/92/20 11/93/20
f  19/13/20 11/93/20 15/94/20
f  15/94/20 20/95/20 19/13/20

# Mesh 'BackColor' with 3 faces
g BackColor
usemtl BackColor
f  12/96/21 19/16/21 20/97/21
f  12/96/21 20/97/21 15/98/21
f  15/98/21 11/99/21 12/96/21

# Mesh 'Green' with 2 faces
g Green
usemtl Green
f  11/100/22 4/101/22 3/3/22
f  11/100/22 3/3/22 15/94/22

# Mesh 'BackColor' with 6 faces
g BackColor
usemtl BackColor
f  15/98/23 3/10/23 4/102/23
f  15/98/23 4/102/23 11/103/23
f  12/104/24 13/105/24 17/106/24
f  12/104/24 17/106/24 19/107/24
f  8/108/19 2/107/19 3/109/19
f  8/108/19 3/109/19 10/110/19

