# Blender v2.78 (sub 0) OBJ File: ''
# www.blender.org
mtllib Round_corner_2_01.mtl
o Mesh1_Round_corner_2_Model
v 0.000000 0.000000 -3.000000
v 0.000000 0.440000 -3.000000
v 3.000000 0.440000 -3.000000
v 3.000000 0.000000 -3.000000
v 3.000000 0.440000 -2.700000
v 3.000000 0.190000 -2.700000
v 3.000000 0.000000 -2.700000
v 3.000000 0.000000 -0.300000
v 3.000000 0.000000 0.000000
v 2.700000 0.000000 -0.000000
v 0.300000 0.000000 -0.000000
v 0.000000 0.000000 -0.000000
v 0.300000 0.190000 0.000000
v 0.300000 0.440000 0.000000
v 0.000000 0.440000 0.000000
v 0.323099 0.440000 -0.352421
v 0.392000 0.440000 -0.698811
v 0.505525 0.440000 -1.033250
v 0.661731 0.440000 -1.350000
v 0.857946 0.440000 -1.643660
v 1.090810 0.440000 -1.909190
v 1.356340 0.440000 -2.142050
v 1.650000 0.440000 -2.338270
v 1.966750 0.440000 -2.494470
v 2.301190 0.440000 -2.608000
v 2.647580 0.440000 -2.676900
v 2.647580 0.190000 -2.676900
v 3.000000 0.190000 -0.300000
v 2.301190 0.190000 -2.608000
v 1.966750 0.190000 -2.494470
v 1.650000 0.190000 -2.338270
v 1.356340 0.190000 -2.142050
v 1.090810 0.190000 -1.909190
v 0.857946 0.190000 -1.643660
v 0.661731 0.190000 -1.350000
v 0.505525 0.190000 -1.033250
v 0.392000 0.190000 -0.698811
v 0.323099 0.190000 -0.352421
v 2.700000 0.190000 0.000000
v 2.702570 0.190000 -0.039158
v 2.710220 0.190000 -0.077646
v 2.722840 0.190000 -0.114805
v 2.740190 0.190000 -0.150000
v 2.761990 0.190000 -0.182628
v 2.787870 0.190000 -0.212132
v 2.817370 0.190000 -0.238006
v 2.850000 0.190000 -0.259808
v 2.885190 0.190000 -0.277164
v 2.922350 0.190000 -0.289778
v 2.960840 0.190000 -0.297433
v 2.922350 0.440000 -0.289778
v 2.960840 0.440000 -0.297433
v 3.000000 0.440000 0.000000
v 3.000000 0.440000 -0.300000
v 2.885190 0.440000 -0.277164
v 2.850000 0.440000 -0.259808
v 2.817370 0.440000 -0.238006
v 2.787870 0.440000 -0.212132
v 2.761990 0.440000 -0.182628
v 2.740190 0.440000 -0.150000
v 2.722840 0.440000 -0.114805
v 2.710220 0.440000 -0.077646
v 2.702570 0.440000 -0.039158
v 2.700000 0.440000 0.000000
vt 0.0000 0.0000
vt 0.0000 0.1467
vt -1.0000 0.1467
vt -1.0000 0.0000
vt 0.9000 0.1467
vt 0.9000 0.0633
vt 0.9000 0.0000
vt 1.0000 0.0000
vt 1.0000 0.1467
vt -0.0000 1.0000
vt -1.0000 1.0000
vt -1.0000 0.9000
vt -1.0000 0.1000
vt -1.0000 0.0000
vt -0.9000 0.0000
vt -0.1000 0.0000
vt 0.0000 0.0000
vt 0.1000 -0.0000
vt 0.1000 0.0633
vt 0.1000 0.1467
vt 0.0000 0.1467
vt 0.0000 1.0000
vt 0.0000 0.0000
vt 0.1000 0.0000
vt 0.1077 0.1175
vt 0.1307 0.2329
vt 0.1685 0.3444
vt 0.2206 0.4500
vt 0.2860 0.5479
vt 0.3636 0.6364
vt 0.4521 0.7140
vt 0.5500 0.7794
vt 0.6556 0.8315
vt 0.7671 0.8693
vt 0.8825 0.8923
vt 1.0000 0.9000
vt 1.0000 1.0000
vt -1.0000 0.1467
vt -1.0000 -0.0000
vt 0.9390 0.0633
vt 1.0567 0.0633
vt 1.0567 0.1467
vt 0.9390 0.1467
vt -0.9873 0.0633
vt -0.9742 0.0633
vt -0.9742 0.1467
vt -0.9873 0.1467
vt 1.0000 0.0000
vt 1.0000 0.1000
vt 0.9869 0.0991
vt 0.9741 0.0966
vt 0.9617 0.0924
vt 0.9500 0.0866
vt 0.9391 0.0793
vt 0.9293 0.0707
vt 0.9207 0.0609
vt 0.9134 0.0500
vt 0.9076 0.0383
vt 0.9034 0.0259
vt 0.9009 0.0131
vt 0.9000 0.0000
vt -0.0719 0.0633
vt -0.0589 0.0633
vt -0.0589 0.1467
vt -0.0719 0.1467
vt 0.9000 0.1467
vt 0.9000 0.0633
vt 0.9000 0.0000
vt 1.0000 0.0000
vt 1.0000 0.1467
vt 0.0000 0.0000
vt 0.1000 0.0000
vt 0.1000 0.0633
vt 0.1000 0.1467
vt 0.0000 0.1467
vt -1.0044 0.0633
vt -0.9913 0.0633
vt -0.9913 0.1467
vt -1.0044 0.1467
vt -0.2016 0.0633
vt -0.1885 0.0633
vt -0.1885 0.1467
vt -0.2016 0.1467
vt -0.3280 0.0633
vt -0.3149 0.0633
vt -0.3149 0.1467
vt -0.3280 0.1467
vt -0.4488 0.0633
vt -0.4357 0.0633
vt -0.4357 0.1467
vt -0.4488 0.1467
vt -0.5621 0.0633
vt -0.5490 0.0633
vt -0.5490 0.1467
vt -0.5621 0.1467
vt -0.6659 0.0633
vt -0.6528 0.0633
vt -0.6528 0.1467
vt -0.6659 0.1467
vt -0.7584 0.0633
vt -0.7453 0.0633
vt -0.7453 0.1467
vt -0.7584 0.1467
vt -0.8380 0.0633
vt -0.8249 0.0633
vt -0.8249 0.1467
vt -0.8380 0.1467
vt -0.9034 0.0633
vt -0.8903 0.0633
vt -0.8903 0.1467
vt -0.9034 0.1467
vt -0.9535 0.0633
vt -0.9404 0.0633
vt -0.9404 0.1467
vt -0.9535 0.1467
vt 0.0065 0.0633
vt 0.1243 0.0633
vt 0.1243 0.1467
vt 0.0065 0.1467
vt 0.1362 0.0633
vt 0.2540 0.0633
vt 0.2540 0.1467
vt 0.1362 0.1467
vt 0.2626 0.0633
vt 0.3803 0.0633
vt 0.3803 0.1467
vt 0.2626 0.1467
vt 0.3834 0.0633
vt 0.5012 0.0633
vt 0.5012 0.1467
vt 0.3834 0.1467
vt 0.4967 0.0633
vt 0.6144 0.0633
vt 0.6144 0.1467
vt 0.4967 0.1467
vt 0.6005 0.0633
vt 0.7182 0.0633
vt 0.7182 0.1467
vt 0.6005 0.1467
vt 0.6930 0.0633
vt 0.8107 0.0633
vt 0.8107 0.1467
vt 0.6930 0.1467
vt 0.7726 0.0633
vt 0.8903 0.0633
vt 0.8903 0.1467
vt 0.7726 0.1467
vt 0.8380 0.0633
vt 0.9557 0.0633
vt 0.9557 0.1467
vt 0.8380 0.1467
vt 0.8881 0.0633
vt 1.0058 0.0633
vt 1.0058 0.1467
vt 0.8881 0.1467
vt 0.9219 0.0633
vt 1.0396 0.0633
vt 1.0396 0.1467
vt 0.9219 0.1467
vt 1.0000 0.1000
vt 1.0000 0.9000
vt 0.8825 0.8923
vt 0.7671 0.8693
vt 0.6556 0.8315
vt 0.5500 0.7794
vt 0.4521 0.7140
vt 0.3636 0.6364
vt 0.2860 0.5479
vt 0.2206 0.4500
vt 0.1685 0.3444
vt 0.1307 0.2329
vt 0.1077 0.1175
vt 0.1000 0.0000
vt 0.9000 0.0000
vt 0.9009 0.0131
vt 0.9034 0.0259
vt 0.9076 0.0383
vt 0.9134 0.0500
vt 0.9207 0.0609
vt 0.9293 0.0707
vt 0.9391 0.0793
vt 0.9500 0.0866
vt 0.9617 0.0924
vt 0.9741 0.0966
vt 0.9869 0.0991
vn 0.0000 0.0000 -1.0000
vn 1.0000 0.0000 0.0000
vn 0.0000 -1.0000 -0.0000
vn 0.0000 -0.0000 1.0000
vn -0.0000 1.0000 0.0000
vn -1.0000 0.0000 -0.0000
vn 0.1305 0.0000 0.9914
vn 0.0654 0.0000 0.9979
vn -0.1305 0.0000 -0.9914
vn -0.2588 0.0000 -0.9659
vn -0.9914 0.0000 -0.1305
vn -0.9979 0.0000 -0.0655
vn -0.0654 0.0000 -0.9979
vn -0.9659 0.0000 -0.2588
vn -0.9239 0.0000 -0.3827
vn -0.8661 0.0000 -0.4999
vn -0.7933 0.0000 -0.6088
vn -0.7071 0.0000 -0.7071
vn -0.6088 0.0000 -0.7933
vn -0.5000 0.0000 -0.8660
vn -0.3827 0.0000 -0.9239
vn 0.9979 -0.0000 0.0654
vn 0.9914 -0.0000 0.1305
vn 0.9659 -0.0000 0.2588
vn 0.9239 0.0000 0.3827
vn 0.8660 0.0000 0.5000
vn 0.7934 0.0000 0.6088
vn 0.7071 0.0000 0.7071
vn 0.6088 0.0000 0.7934
vn 0.5000 0.0000 0.8660
vn 0.3827 0.0000 0.9239
vn 0.2588 0.0000 0.9659
usemtl Red.027
s 1
f 1/1/1 2/2/1 3/3/1 4/4/1
f 5/5/2 6/6/2 7/7/2 4/8/2 3/9/2
f 1/10/3 4/11/3 7/12/3 8/13/3 9/14/3 10/15/3 11/16/3 12/17/3
f 12/17/4 11/18/4 13/19/4 14/20/4 15/21/4
f 2/22/5 15/23/5 14/24/5 16/25/5 17/26/5 18/27/5 19/28/5 20/29/5 21/30/5 22/31/5 23/32/5 24/33/5 25/34/5 26/35/5 5/36/5 3/37/5
f 12/17/6 15/21/6 2/38/6 1/39/6
f 27/40/7 6/41/8 5/42/8 26/43/7
f 50/44/9 49/45/10 51/46/10 52/47/9
f 53/48/5 54/49/5 52/50/5 51/51/5 55/52/5 56/53/5 57/54/5 58/55/5 59/56/5 60/57/5 61/58/5 62/59/5 63/60/5 64/61/5
f 40/62/11 39/63/12 64/64/12 63/65/11
f 64/66/4 39/67/4 10/68/4 9/69/4 53/70/4
f 9/71/2 8/72/2 28/73/2 54/74/2 53/75/2
f 28/76/13 50/77/9 52/78/9 54/79/13
f 41/80/14 40/81/11 63/82/11 62/83/14
f 42/84/15 41/85/14 62/86/14 61/87/15
f 43/88/16 42/89/15 61/90/15 60/91/16
f 44/92/17 43/93/16 60/94/16 59/95/17
f 45/96/18 44/97/17 59/98/17 58/99/18
f 46/100/19 45/101/18 58/102/18 57/103/19
f 47/104/20 46/105/19 57/106/19 56/107/20
f 48/108/21 47/109/20 56/110/20 55/111/21
f 49/112/10 48/113/21 55/114/21 51/115/10
f 13/116/22 38/117/23 16/118/23 14/119/22
f 38/120/23 37/121/24 17/122/24 16/123/23
f 37/124/24 36/125/25 18/126/25 17/127/24
f 36/128/25 35/129/26 19/130/26 18/131/25
f 35/132/26 34/133/27 20/134/27 19/135/26
f 34/136/27 33/137/28 21/138/28 20/139/27
f 33/140/28 32/141/29 22/142/29 21/143/28
f 32/144/29 31/145/30 23/146/30 22/147/29
f 31/148/30 30/149/31 24/150/31 23/151/30
f 30/152/31 29/153/32 25/154/32 24/155/31
f 29/156/32 27/157/7 26/158/7 25/159/32
usemtl Green.027
f 28/160/5 6/161/5 27/162/5 29/163/5 30/164/5 31/165/5 32/166/5 33/167/5 34/168/5 35/169/5 36/170/5 37/171/5 38/172/5 13/173/5 39/174/5 40/175/5 41/176/5 42/177/5 43/178/5 44/179/5 45/180/5 46/181/5 47/182/5 48/183/5 49/184/5 50/185/5
f 8/72/2 7/7/2 6/6/2 28/73/2
f 11/18/4 10/68/4 39/67/4 13/19/4
