# File produced by Open Asset Import Library (http://www.assimp.sf.net)
# (assimp v4.1.908865877)

mtllib Side_01.mtl

# 14 vertex positions
v  -1.5 0.4399999976158142 -1.5
v  -1.200000047683716 0.4399999976158142 -1.5
v  -1.200000047683716 0.1899999976158142 -1.5
v  -1.200000047683716 0 -1.5
v  -1.5 0 -1.5
v  -1.5 0 1.5
v  -1.5 0.4399999976158142 1.5
v  -1.200000047683716 0.4399999976158142 1.5
v  -1.200000047683716 0 1.5
v  -1.200000047683716 0.1899999976158142 1.5
v  1.5 0 -1.5
v  1.5 0 1.5
v  1.5 0.1899999976158142 -1.5
v  1.5 0.1899999976158142 1.5

# 72 UV coordinates
vt -3.268120137643713e-15 0.1466670036315918 0
vt -0.1000000014901161 0.1466670036315918 0
vt -0.1000000014901161 0.06333330273628235 0
vt -0.1000000014901161 5.854839962187493e-16 0
vt -3.268120137643713e-15 5.854839962187493e-16 0
vt -11.81099987030029 17.32279968261719 0
vt -3.859980098139953e-13 17.32279968261719 0
vt -3.859980098139953e-13 6.91517020512053e-14 0
vt -11.81099987030029 6.91517020512053e-14 0
vt -11.81099987030029 7.480309963226318 0
vt -6.911400061472301e-15 0 0
vt -6.911400061472301e-15 0.1466670036315918 0
vt -1 0.1466670036315918 0
vt -1 0 0
vt -118.1100006103516 0 0
vt -118.1100006103516 17.32279968261719 0
vt -8.163080129387768e-13 17.32279968261719 0
vt -8.163080129387768e-13 0 0
vt 0.1000000014901161 1 0
vt 6.256569901378316e-15 1 0
vt 0 6.911400061472301e-15 0
vt 0.1000000014901161 5.570540129705166e-15 0
vt 11.81099987030029 6.579380052926243e-13 0
vt 0 8.163080129387768e-13 0
vt 7.389639572995266e-13 118.1100006103516 0
vt 11.81099987030029 118.1100006103516 0
vt -7.779310120453712e-29 0.1466670036315918 0
vt -7.779310120453712e-29 -5.395359955358972e-30 0
vt 0.1000000014901161 -5.415150014012128e-30 0
vt 0.1000000014901161 0.06333330273628235 0
vt 0.1000000014901161 0.1466670036315918 0
vt -6.256569901378316e-15 1 0
vt -0.1000000014901161 1 0
vt -1 1 0
vt -0.1000000014901161 5.811180072437744e-15 0
vt -11.81099987030029 118.1100006103516 0
vt -7.389639572995266e-13 118.1100006103516 0
vt -11.81099987030029 6.863599857735714e-13 0
vt -118.1100006103516 118.1100006103516 0
vt -9.188160326692538e-27 -6.372469814704849e-28 0
vt -9.188160326692538e-27 17.32279968261719 0
vt 11.81099987030029 17.32279968261719 0
vt 11.81099987030029 7.480309963226318 0
vt 11.81099987030029 -6.395850122747223e-28 0
vt 6.189489974153459e-15 0.06333330273628235 0
vt 1 0.06333330273628235 0
vt 1 0.1466670036315918 0
vt 6.189489974153459e-15 0.1466670036315918 0
vt 1 1 0
vt 1 3.766970012577297e-30 0
vt 118.1100006103516 4.449180320271368e-28 0
vt 118.1100006103516 118.1100006103516 0
vt 1 -8.016500580630429e-30 0
vt 0.1000000014901161 -8.161580281488012e-30 0
vt 1 1.482360067858637e-16 0
vt 6.096139743585983e-15 0.06333330273628235 0
vt 6.096139743585983e-15 1.482360067858637e-16 0
vt 7.200169822342561e-13 1.75081981248007e-14 0
vt 7.200169822342561e-13 7.480309963226318 0
vt 118.1100006103516 7.480309963226318 0
vt 118.1100006103516 1.75081981248007e-14 0
vt 11.81099987030029 -9.639659742822132e-28 0
vt 118.1100006103516 -9.468300126020278e-28 0
vt -1 0.06333330273628235 0
vt -1 3.799530185784458e-15 0
vt -0.1000000014901161 3.799530185784458e-15 0
vt -11.81099987030029 4.487639914622227e-13 0
vt -118.1100006103516 4.487639914622227e-13 0
vt -118.1100006103516 7.480309963226318 0
vt 7.31042993067782e-13 17.32279968261719 0
vt 118.1100006103516 17.32279968261719 0
vt 7.31042993067782e-13 7.480309963226318 0

# 14 vertex normals
vn 2.98844997549284e-15 -5.854839962187493e-16 -1
vn -2.98844997549284e-15 5.854839962187493e-16 1
vn -1 0 -6.189489974153459e-15
vn 1 0 6.189489974153459e-15
vn 0 1 0
vn 0 -1 0
vn -1.125579901365466e-14 -7.806459988594157e-16 1
vn 1.125579901365466e-14 7.806459988594157e-16 -1
vn -6.329590070662267e-15 -1.266510026635113e-15 1
vn 1 -1.482360067858637e-16 6.096139743585983e-15
vn -1 1.482360067858637e-16 -6.096139743585983e-15
vn 6.329590070662267e-15 1.266510026635113e-15 -1
vn 6.069489969482995e-15 -3.799530185784458e-15 -1
vn -6.069489969482995e-15 3.799530185784458e-15 1

# Mesh 'Mesh1 Side Model' with 3 faces
g Mesh1 Side Model
usemtl Red
f  1/1/1 2/2/1 3/3/1
f  1/1/1 3/3/1 4/4/1
f  4/4/1 5/5/1 1/1/1

# Mesh 'BackColor' with 3 faces
g BackColor
usemtl BackColor
f  2/6/2 1/7/2 5/8/2
f  2/6/2 5/8/2 4/9/2
f  4/9/2 3/10/2 2/6/2

# Mesh 'Red' with 2 faces
g Red
usemtl Red
f  6/11/3 7/12/3 1/13/3
f  6/11/3 1/13/3 5/14/3

# Mesh 'BackColor' with 2 faces
g BackColor
usemtl BackColor
f  5/15/4 1/16/4 7/17/4
f  5/15/4 7/17/4 6/18/4

# Mesh 'Red' with 2 faces
g Red
usemtl Red
f  2/19/5 1/20/5 7/21/5
f  2/19/5 7/21/5 8/22/5

# Mesh 'BackColor' with 2 faces
g BackColor
usemtl BackColor
f  8/23/6 7/24/6 1/25/6
f  8/23/6 1/25/6 2/26/6

# Mesh 'Red' with 7 faces
g Red
usemtl Red
f  7/27/7 6/28/7 9/29/7
f  7/27/7 9/29/7 10/30/7
f  10/30/7 8/31/7 7/27/7
f  5/32/6 4/33/6 11/34/6
f  5/32/6 11/34/6 12/14/6
f  5/32/6 12/14/6 9/35/6
f  9/35/6 6/21/6 5/32/6

# Mesh 'BackColor' with 7 faces
g BackColor
usemtl BackColor
f  4/36/5 5/37/5 6/24/5
f  4/36/5 6/24/5 9/38/5
f  4/36/5 9/38/5 12/15/5
f  12/15/5 11/39/5 4/36/5
f  6/40/8 7/41/8 8/42/8
f  6/40/8 8/42/8 10/43/8
f  10/43/8 9/44/8 6/40/8

# Mesh 'Red' with 2 faces
g Red
usemtl Red
f  10/45/4 3/46/4 2/47/4
f  10/45/4 2/47/4 8/48/4

# Mesh 'Green' with 2 faces
g Green
usemtl Green
f  13/49/5 3/19/5 10/22/5
f  13/49/5 10/22/5 14/50/5

# Mesh 'BackColor' with 2 faces
g BackColor
usemtl BackColor
f  14/51/6 10/23/6 3/26/6
f  14/51/6 3/26/6 13/52/6

# Mesh 'Green' with 4 faces
g Green
usemtl Green
f  12/53/9 14/46/9 10/30/9
f  12/53/9 10/30/9 9/54/9
f  11/55/10 13/46/10 14/56/10
f  11/55/10 14/56/10 12/57/10

# Mesh 'BackColor' with 4 faces
g BackColor
usemtl BackColor
f  12/58/11 14/59/11 13/60/11
f  12/58/11 13/60/11 11/61/11
f  9/62/12 10/43/12 14/60/12
f  9/62/12 14/60/12 12/63/12

# Mesh 'Green' with 2 faces
g Green
usemtl Green
f  3/3/13 13/64/13 11/65/13
f  3/3/13 11/65/13 4/66/13

# Mesh 'BackColor' with 4 faces
g BackColor
usemtl BackColor
f  4/67/14 11/68/14 13/69/14
f  4/67/14 13/69/14 3/10/14
f  8/70/3 2/71/3 3/60/3
f  8/70/3 3/60/3 10/72/3

