# File produced by Open Asset Import Library (http://www.assimp.sf.net)
# (assimp v4.1.327737527)

mtllib Side_01.mtl

# 14 vertex positions
v  0 0 -2.073419933738396e-14
v  0 0.4399999976158142 -2.073419933738396e-14
v  1.876969953973958e-14 0.4399999976158142 -3
v  1.876969953973958e-14 0 -3
v  0.300000011920929 0.4399999976158142 -3
v  0.300000011920929 0.4399999976158142 -1.671159921329182e-14
v  0.300000011920929 0 -1.743349998324824e-14
v  0.300000011920929 0.1899999976158142 -1.671159921329182e-14
v  0.300000011920929 0 -3
v  3 0 -3
v  3 0 0
v  0.300000011920929 0.1899999976158142 -3
v  3 0.1899999976158142 -3
v  3 0.1899999976158142 -1.130090025761889e-29

# 70 UV coordinates
vt -6.911400061472301e-15 0 0
vt -6.911400061472301e-15 0.1466670036315918 0
vt -1 0.1466670036315918 0
vt -1 0 0
vt 0.1000000014901161 1 0
vt 6.256569901378316e-15 1 0
vt 0 6.911400061472301e-15 0
vt 0.1000000014901161 5.570540129705166e-15 0
vt -7.779310120453712e-29 0.1466670036315918 0
vt -7.779310120453712e-29 -5.395359955358972e-30 0
vt 0.1000000014901161 -5.415150014012128e-30 0
vt 0.1000000014901161 0.06333330273628235 0
vt 0.1000000014901161 0.1466670036315918 0
vt -6.256569901378316e-15 1 0
vt -0.1000000014901161 1 0
vt -1 1 0
vt -0.1000000014901161 5.811180072437744e-15 0
vt 6.189489974153459e-15 0.06333330273628235 0
vt 1 0.06333330273628235 0
vt 1 0.1466670036315918 0
vt 6.189489974153459e-15 0.1466670036315918 0
vt -3.268120137643713e-15 0.1466670036315918 0
vt -0.1000000014901161 0.1466670036315918 0
vt -0.1000000014901161 0.06333330273628235 0
vt -0.1000000014901161 5.854839962187493e-16 0
vt -3.268120137643713e-15 5.854839962187493e-16 0
vt -11.81099987030029 4.487639914622227e-13 0
vt -118.1100006103516 4.487639914622227e-13 0
vt -118.1100006103516 7.480309963226318 0
vt -11.81099987030029 7.480309963226318 0
vt -11.81099987030029 17.32279968261719 0
vt -3.859980098139953e-13 6.91517020512053e-14 0
vt -3.859980098139953e-13 17.32279968261719 0
vt 7.31042993067782e-13 17.32279968261719 0
vt 118.1100006103516 17.32279968261719 0
vt 118.1100006103516 7.480309963226318 0
vt 7.31042993067782e-13 7.480309963226318 0
vt 118.1100006103516 4.449180320271368e-28 0
vt 11.81099987030029 6.579380052926243e-13 0
vt 11.81099987030029 118.1100006103516 0
vt 118.1100006103516 118.1100006103516 0
vt -118.1100006103516 0 0
vt -118.1100006103516 17.32279968261719 0
vt -8.163080129387768e-13 17.32279968261719 0
vt -8.163080129387768e-13 0 0
vt 0 8.163080129387768e-13 0
vt 7.389639572995266e-13 118.1100006103516 0
vt -11.81099987030029 118.1100006103516 0
vt -7.389639572995266e-13 118.1100006103516 0
vt -11.81099987030029 6.863599857735714e-13 0
vt -118.1100006103516 118.1100006103516 0
vt -9.188160326692538e-27 -6.372469814704849e-28 0
vt -9.188160326692538e-27 17.32279968261719 0
vt 11.81099987030029 17.32279968261719 0
vt 11.81099987030029 7.480309963226318 0
vt 11.81099987030029 -6.395850122747223e-28 0
vt 118.1100006103516 -9.468300126020278e-28 0
vt 7.200169822342561e-13 1.75081981248007e-14 0
vt 7.200169822342561e-13 7.480309963226318 0
vt 118.1100006103516 1.75081981248007e-14 0
vt 1 -8.016500580630429e-30 0
vt 0.1000000014901161 -8.161580281488012e-30 0
vt 1 1.482360067858637e-16 0
vt 6.096139743585983e-15 0.06333330273628235 0
vt 6.096139743585983e-15 1.482360067858637e-16 0
vt -1 0.06333330273628235 0
vt -1 3.799530185784458e-15 0
vt -0.1000000014901161 3.799530185784458e-15 0
vt 1 1 0
vt 1 3.766970012577297e-30 0

# 14 vertex normals
vn -1 0 -6.189489974153459e-15
vn 0 1 0
vn -1.125579901365466e-14 -7.806459988594157e-16 1
vn 0 -1 0
vn 1 0 6.189489974153459e-15
vn 2.98844997549284e-15 -5.854839962187493e-16 -1
vn -6.069489969482995e-15 3.799530185784458e-15 1
vn -2.98844997549284e-15 5.854839962187493e-16 1
vn 1.125579901365466e-14 7.806459988594157e-16 -1
vn 6.329590070662267e-15 1.266510026635113e-15 -1
vn -1 1.482360067858637e-16 -6.096139743585983e-15
vn -6.329590070662267e-15 -1.266510026635113e-15 1
vn 1 -1.482360067858637e-16 6.096139743585983e-15
vn 6.069489969482995e-15 -3.799530185784458e-15 -1

# Mesh 'Red.Red.Red.Red.Mesh1 Side Model' with 16 faces
g Red.Red.Red.Red.Mesh1 Side Model
usemtl Red
f  1/1/1 2/2/1 3/3/1
f  1/1/1 3/3/1 4/4/1
f  5/5/2 3/6/2 2/7/2
f  5/5/2 2/7/2 6/8/2
f  2/9/3 1/10/3 7/11/3
f  2/9/3 7/11/3 8/12/3
f  8/12/3 6/13/3 2/9/3
f  4/14/4 9/15/4 10/16/4
f  4/14/4 10/16/4 11/4/4
f  4/14/4 11/4/4 7/17/4
f  7/17/4 1/7/4 4/14/4
f  8/18/5 12/19/5 5/20/5
f  8/18/5 5/20/5 6/21/5
f  3/22/6 5/23/6 12/24/6
f  3/22/6 12/24/6 9/25/6
f  9/25/6 4/26/6 3/22/6

# Mesh 'BackColor.BackColor.BackColor.BackColor.BackColor.BackColor.BackColor' with 24 faces
g BackColor.BackColor.BackColor.BackColor.BackColor.BackColor.BackColor
usemtl BackColor
f  9/27/7 10/28/7 13/29/7
f  9/27/7 13/29/7 12/30/7
f  5/31/8 4/32/8 9/27/7
f  9/27/7 12/30/7 5/31/8
f  5/31/8 3/33/8 4/32/8
f  6/34/1 5/35/1 12/36/1
f  6/34/1 12/36/1 8/37/1
f  14/38/4 8/39/4 12/40/4
f  14/38/4 12/40/4 13/41/4
f  4/42/5 3/43/5 2/44/5
f  4/42/5 2/44/5 1/45/5
f  6/39/4 2/46/4 3/47/4
f  6/39/4 3/47/4 5/40/4
f  9/48/2 4/49/2 1/46/2
f  9/48/2 1/46/2 7/50/2
f  9/48/2 7/50/2 11/42/2
f  11/42/2 10/51/2 9/48/2
f  1/52/9 2/53/9 6/54/9
f  1/52/9 6/54/9 8/55/9
f  8/55/9 7/56/9 1/52/9
f  7/56/9 8/55/9 14/36/10
f  7/56/9 14/36/10 11/57/10
f  11/58/11 14/59/11 13/36/11
f  11/58/11 13/36/11 10/60/11

# Mesh 'Green.Green.Green' with 8 faces
g Green.Green.Green
usemtl Green
f  11/61/12 14/19/12 8/12/12
f  11/61/12 8/12/12 7/62/12
f  10/63/13 13/19/13 14/64/13
f  10/63/13 14/64/13 11/65/13
f  12/24/14 13/66/14 10/67/14
f  12/24/14 10/67/14 9/68/14
f  13/69/2 12/5/2 8/8/2
f  13/69/2 8/8/2 14/70/2

