# Blender v2.78 (sub 0) OBJ File: ''
# www.blender.org
mtllib Side_01.mtl
o Mesh1_Side_Model
v 0.300000 0.440000 -3.000000
v 0.300000 0.190000 -3.000000
v 0.300000 0.000000 -3.000000
v 0.000000 0.000000 -3.000000
v 0.000000 0.440000 -3.000000
v 0.000000 0.000000 -0.000000
v 0.000000 0.440000 0.000000
v 0.300000 0.440000 0.000000
v 0.300000 0.000000 -0.000000
v 0.300000 0.190000 0.000000
v 3.000000 0.000000 -3.000000
v 3.000000 0.000000 0.000000
v 3.000000 0.190000 -3.000000
v 3.000000 0.190000 0.000000
vt -0.1000 0.1467
vt -0.1000 0.0633
vt -0.1000 0.0000
vt -0.0000 0.0000
vt -0.0000 0.1467
vt -0.0000 0.0000
vt -0.0000 0.1467
vt -1.0000 0.1467
vt -1.0000 0.0000
vt 0.1000 1.0000
vt 0.0000 1.0000
vt 0.0000 0.0000
vt 0.1000 0.0000
vt 0.1000 -0.0000
vt 0.1000 0.0633
vt 0.1000 0.1467
vt -0.1000 1.0000
vt -1.0000 1.0000
vt -1.0000 0.0000
vt -0.1000 0.0000
vt -0.0000 1.0000
vt 0.0000 0.0633
vt 1.0000 0.0633
vt 1.0000 0.1467
vt 0.0000 0.1467
vt 1.0000 1.0000
vt 0.1000 1.0000
vt 0.1000 0.0000
vt 1.0000 0.0000
vt 1.0000 -0.0000
vt 1.0000 0.0633
vt 1.0000 0.0000
vt 1.0000 0.0633
vt 0.0000 0.0633
vt 0.0000 0.0000
vt -1.0000 0.0633
vt -1.0000 0.0000
vn 0.0000 0.0000 -1.0000
vn -1.0000 0.0000 -0.0000
vn 0.0000 1.0000 0.0000
vn -0.0000 -0.0000 1.0000
vn 0.0000 -1.0000 -0.0000
vn 1.0000 0.0000 0.0000
usemtl Red.039
s 1
f 1/1/1 2/2/1 3/3/1 4/4/1 5/5/1
f 6/6/2 7/7/2 5/8/2 4/9/2
f 1/10/3 5/11/3 7/12/3 8/13/3
f 6/6/4 9/14/4 10/15/4 8/16/4 7/7/4
f 3/17/5 11/18/5 12/19/5 9/20/5 6/6/5 4/21/5
f 10/22/6 2/23/6 1/24/6 8/25/6
usemtl Green.038
f 13/26/3 2/27/3 10/28/3 14/29/3
f 12/30/4 14/31/4 10/15/4 9/14/4
f 11/32/6 13/33/6 14/34/6 12/35/6
f 2/2/1 13/36/1 11/37/1 3/3/1
