# File produced by Open Asset Import Library (http://www.assimp.sf.net)
# (assimp v4.1.908865877)

mtllib Split_start_01.mtl

# 32 vertex positions
v  -1.5 0.4399999976158142 -1.5
v  -1.200000047683716 0.4399999976158142 -1.5
v  -1.200000047683716 0.1899999976158142 -1.5
v  -1.200000047683716 0 -1.5
v  -1.5 0 -1.5
v  -1.5 0 1.5
v  -1.5 0.4399999976158142 1.5
v  -1.200000047683716 0.4399999976158142 1.5
v  -1.200000047683716 0 1.5
v  -1.200000047683716 0.1899999976158142 1.5
v  0.1499999761581421 0 -1.5
v  1.200000047683716 0 -1.5
v  1.5 0 -1.5
v  1.5 0 1.5
v  1.200000047683716 0 1.5
v  0.1499999761581421 0 1.5
v  -0.1499999761581421 0 1.5
v  -0.1499999761581421 0 -1.5
v  0.1499999761581421 0.1899999976158142 -1.5
v  -0.1499999761581421 0.1899999976158142 -1.5
v  -0.1499999761581421 0.4399999976158142 -1.5
v  0.1499999761581421 0.4399999976158142 -1.5
v  0.1499999761581421 0.4399999976158142 0
v  0.1499999761581421 0.1899999976158142 1.5
v  1.200000047683716 0.1899999976158142 -1.5
v  1.200000047683716 0.1899999976158142 1.5
v  -0.1499999761581421 0.1899999976158142 1.5
v  -0.1499999761581421 0.4399999976158142 0
v  1.5 0.4399999976158142 1.5
v  1.200000047683716 0.4399999976158142 1.5
v  1.5 0.4399999976158142 -1.5
v  1.200000047683716 0.4399999976158142 -1.5

# 144 UV coordinates
vt -2.786840040420319e-15 0.1466670036315918 0
vt -0.1000000014901161 0.1466670036315918 0
vt -0.1000000014901161 0.06333330273628235 0
vt -0.1000000014901161 5.854839962187493e-16 0
vt -2.786840040420319e-15 5.854839962187493e-16 0
vt -11.81099987030029 17.32279968261719 0
vt -3.29154997529002e-13 17.32279968261719 0
vt -3.29154997529002e-13 6.91517020512053e-14 0
vt -11.81099987030029 6.91517020512053e-14 0
vt -11.81099987030029 7.480309963226318 0
vt -7.700390076016e-15 0 0
vt -7.700390076016e-15 0.1466670036315918 0
vt -1 0.1466670036315918 0
vt -1 0 0
vt -118.1100006103516 0 0
vt -118.1100006103516 17.32279968261719 0
vt -9.094949186133627e-13 17.32279968261719 0
vt -9.094949186133627e-13 0 0
vt 0.1000000014901161 1 0
vt 5.775290015913159e-15 1 0
vt 0 7.700390076016e-15 0
vt 0.1000000014901161 5.775290015913159e-15 0
vt 11.81099987030029 6.821209721195876e-13 0
vt 0 9.094949186133627e-13 0
vt 6.821209721195876e-13 118.1100006103516 0
vt 11.81099987030029 118.1100006103516 0
vt -8.667369658579034e-29 0.1466670036315918 0
vt -8.667369658579034e-29 -6.011280250896048e-30 0
vt 0.1000000014901161 -5.387129614112255e-30 0
vt 0.1000000014901161 0.06333330273628235 0
vt 0.1000000014901161 0.1466670036315918 0
vt -0.550000011920929 1 0
vt -0.8999999761581421 1 0
vt -1 1 0
vt -0.8999999761581421 0 0
vt -0.550000011920929 3.850189955810317e-15 0
vt -0.449999988079071 3.850189955810317e-15 0
vt -0.1000000014901161 5.775290015913159e-15 0
vt -5.775290015913159e-15 1 0
vt -0.1000000014901161 1 0
vt -0.449999988079071 1 0
vt -106.2990036010742 118.1100006103516 0
vt -64.96060180664062 118.1100006103516 0
vt -53.14960098266602 118.1100006103516 0
vt -11.81099987030029 118.1100006103516 0
vt -6.821209721195876e-13 118.1100006103516 0
vt -11.81099987030029 6.821209721195876e-13 0
vt -53.14960098266602 4.547469985207581e-13 0
vt -64.96060180664062 4.547469985207581e-13 0
vt -106.2990036010742 0 0
vt -118.1100006103516 118.1100006103516 0
vt -0.550000011920929 0.06333330273628235 0
vt -0.550000011920929 8.77019014729934e-15 0
vt -0.449999988079071 8.77019014729934e-15 0
vt -0.449999988079071 0.06333330273628235 0
vt -0.449999988079071 0.1466670036315918 0
vt -0.550000011920929 0.1466670036315918 0
vt -64.96060180664062 1.035850008199168e-12 0
vt -64.96060180664062 7.480309963226318 0
vt -64.96060180664062 17.32279968261719 0
vt -53.14960098266602 17.32279968261719 0
vt -53.14960098266602 7.480309963226318 0
vt -53.14960098266602 1.035850008199168e-12 0
vt 1 0.1466670036315918 0
vt 0.5 0.1466670036315918 0
vt 1.126179939505301e-14 0.06333330273628235 0
vt 1 0.06333330273628235 0
vt 0.8999999761581421 1 0
vt 0.550000011920929 1 0
vt 0.550000011920929 3.850189955810317e-15 0
vt 0.8999999761581421 0 0
vt 106.2990036010742 0 0
vt 64.96060180664062 4.547469985207581e-13 0
vt 64.96060180664062 118.1100006103516 0
vt 106.2990036010742 118.1100006103516 0
vt 0.8999999761581421 0.06333330273628235 0
vt 0.550000011920929 0.06333330273628235 0
vt 0.550000011920929 0 0
vt 64.96060180664062 0 0
vt 64.96060180664062 7.480309963226318 0
vt 106.2990036010742 7.480309963226318 0
vt 0.449999988079071 0.06333330273628235 0
vt 0.449999988079071 0 0
vt 53.14960098266602 0 0
vt 53.14960098266602 7.480309963226318 0
vt 0.1000000014901161 4.702159764780759e-29 0
vt 0.449999988079071 4.336440112816206e-29 0
vt 11.81099987030029 7.480309963226318 0
vt 53.14960098266602 5.121779960690516e-27 0
vt 11.81099987030029 5.553730224919608e-27 0
vt 0.449999988079071 3.850189955810317e-15 0
vt 0.449999988079071 1 0
vt 53.14960098266602 118.1100006103516 0
vt 53.14960098266602 4.547469985207581e-13 0
vt -0.449999988079071 7.599069688931336e-15 0
vt -0.1000000014901161 7.599069688931336e-15 0
vt -11.81099987030029 8.975279829244454e-13 0
vt -53.14960098266602 8.975279829244454e-13 0
vt -1 0.06333330273628235 0
vt -1.008749917500102e-14 0.06333330273628235 0
vt -0.5 0.1466670036315918 0
vt 0.449999988079071 0.5 0
vt 0.550000011920929 0.5 0
vt 0.449999988079071 0.5173090100288391 0
vt 0.449999988079071 0.01041189953684807 0
vt 0.550000011920929 0.01041189953684807 0
vt 0.550000011920929 0.5173090100288391 0
vt 6.394239860361452e-15 0.06333330273628235 0
vt 6.394239860361452e-15 0.1466670036315918 0
vt 7.5522498411279e-13 17.32279968261719 0
vt 118.1100006103516 17.32279968261719 0
vt 118.1100006103516 7.480309963226318 0
vt 7.5522498411279e-13 7.480309963226318 0
vt -1.023700020399045e-26 -7.099929665886365e-28 0
vt -1.023700020399045e-26 17.32279968261719 0
vt 11.81099987030029 17.32279968261719 0
vt 11.81099987030029 -6.362750127758012e-28 0
vt 0.8999999761581421 0.1466670036315918 0
vt 1 0 0
vt 106.2990036010742 17.32279968261719 0
vt 118.1100006103516 0 0
vt 6.189489974153459e-15 0.1466670036315918 0
vt 6.189489974153459e-15 0 0
vt 1 1 0
vt 118.1100006103516 118.1100006103516 0
vt -5.570540129705166e-15 0.06333330273628235 0
vt -5.570540129705166e-15 0.1466670036315918 0
vt -6.579380052926243e-13 17.32279968261719 0
vt -6.579380052926243e-13 7.480309963226318 0
vt -118.1100006103516 7.480309963226318 0
vt -1 5.854839962187493e-16 0
vt -0.8999999761581421 5.854839962187493e-16 0
vt -0.8999999761581421 0.06333330273628235 0
vt -0.8999999761581421 0.1466670036315918 0
vt -118.1100006103516 6.91517020512053e-14 0
vt -106.2990036010742 17.32279968261719 0
vt -106.2990036010742 7.480309963226318 0
vt -106.2990036010742 6.91517020512053e-14 0
vt -0.8999999761581421 2.279720059646453e-14 0
vt -0.550000011920929 2.279720059646453e-14 0
vt -64.96060180664062 2.692579883015189e-12 0
vt -106.2990036010742 2.692579883015189e-12 0
vt 7.31042993067782e-13 0 0
vt 7.31042993067782e-13 17.32279968261719 0

# 32 vertex normals
vn 2.98844997549284e-15 -5.854839962187493e-16 -1
vn -2.98844997549284e-15 5.854839962187493e-16 1
vn -1 0 -6.189489974153459e-15
vn 1 0 6.189489974153459e-15
vn 0 1 0
vn 0 -1 0
vn -1.125579901365466e-14 -7.806459988594157e-16 1
vn 1.230639938912259e-14 -8.77019014729934e-15 -1
vn -1.230639938912259e-14 8.77019014729934e-15 1
vn 1 3.850189955810317e-15 1.347569957368695e-14
vn -1 -3.850189955810317e-15 -1.347569957368695e-14
vn -1.100059984510821e-14 0 1
vn 1.100059984510821e-14 0 -1
vn 0 0 1
vn -0 -0 -1
vn -4.125209695322526e-15 7.599069688931336e-15 1
vn 4.125209695322526e-15 -7.599069688931336e-15 -1
vn -1.375070004319961e-15 -7.599069688931336e-15 -1
vn 1.375070004319961e-15 7.599069688931336e-15 1
vn -1 -6.930349882568274e-15 -1.386069976513655e-14
vn 1 6.930349882568274e-15 1.386069976513655e-14
vn 3.606669822786171e-30 1 7.21333973961189e-31
vn -3.606669822786171e-30 -1 -7.21333973961189e-31
vn -1.674730051381806e-17 0.9863939881324768 0.1643989980220795
vn 1.674730051381806e-17 -0.9863939881324768 -0.1643989980220795
vn 1.125579901365466e-14 7.806459988594157e-16 -1
vn -9.625490136118842e-15 0 1
vn 9.625490136118842e-15 0 -1
vn 9.043409941798634e-15 -5.854839962187493e-16 -1
vn -9.043409941798634e-15 5.854839962187493e-16 1
vn 9.625490136118842e-15 -2.279720059646453e-14 -1
vn -9.625490136118842e-15 2.279720059646453e-14 1

# Mesh 'Mesh1 Split_start Model' with 3 faces
g Mesh1 Split_start Model
usemtl Red
f  1/1/1 2/2/1 3/3/1
f  1/1/1 3/3/1 4/4/1
f  4/4/1 5/5/1 1/1/1

# Mesh 'BackColor' with 3 faces
g BackColor
usemtl BackColor
f  2/6/2 1/7/2 5/8/2
f  2/6/2 5/8/2 4/9/2
f  4/9/2 3/10/2 2/6/2

# Mesh 'Red' with 2 faces
g Red
usemtl Red
f  6/11/3 7/12/3 1/13/3
f  6/11/3 1/13/3 5/14/3

# Mesh 'BackColor' with 2 faces
g BackColor
usemtl BackColor
f  5/15/4 1/16/4 7/17/4
f  5/15/4 7/17/4 6/18/4

# Mesh 'Red' with 2 faces
g Red
usemtl Red
f  2/19/5 1/20/5 7/21/5
f  2/19/5 7/21/5 8/22/5

# Mesh 'BackColor' with 2 faces
g BackColor
usemtl BackColor
f  8/23/6 7/24/6 1/25/6
f  8/23/6 1/25/6 2/26/6

# Mesh 'Red' with 13 faces
g Red
usemtl Red
f  7/27/7 6/28/7 9/29/7
f  7/27/7 9/29/7 10/30/7
f  10/30/7 8/31/7 7/27/7
f  11/32/6 12/33/6 13/34/6
f  11/32/6 13/34/6 14/14/6
f  11/32/6 14/14/6 15/35/6
f  11/32/6 15/35/6 16/36/6
f  11/32/6 16/36/6 17/37/6
f  11/32/6 17/37/6 9/38/6
f  11/32/6 9/38/6 6/21/6
f  11/32/6 6/21/6 5/39/6
f  5/39/6 4/40/6 18/41/6
f  5/39/6 18/41/6 11/32/6

# Mesh 'BackColor' with 10 faces
g BackColor
usemtl BackColor
f  12/42/5 11/43/5 18/44/5
f  18/44/5 4/45/5 5/46/5
f  18/44/5 5/46/5 6/24/5
f  18/44/5 6/24/5 9/47/5
f  18/44/5 9/47/5 17/48/5
f  18/44/5 17/48/5 16/49/5
f  18/44/5 16/49/5 15/50/5
f  18/44/5 15/50/5 14/15/5
f  18/44/5 14/15/5 13/51/5
f  18/44/5 13/51/5 12/42/5

# Mesh 'Red' with 4 faces
g Red
usemtl Red
f  19/52/8 11/53/8 18/54/8
f  19/52/8 18/54/8 20/55/8
f  19/52/8 20/55/8 21/56/8
f  21/56/8 22/57/8 19/52/8

# Mesh 'BackColor' with 4 faces
g BackColor
usemtl BackColor
f  11/58/9 19/59/9 22/60/9
f  11/58/9 22/60/9 21/61/9
f  11/58/9 21/61/9 20/62/9
f  20/62/9 18/63/9 11/58/9

# Mesh 'Red' with 4 faces
g Red
usemtl Red
f  22/64/10 23/65/10 24/66/10
f  22/64/10 24/66/10 19/67/10
f  19/67/11 24/66/11 23/65/11
f  19/67/11 23/65/11 22/64/11

# Mesh 'Green' with 2 faces
g Green
usemtl Green
f  25/68/5 19/69/5 24/70/5
f  25/68/5 24/70/5 26/71/5

# Mesh 'BackColor' with 2 faces
g BackColor
usemtl BackColor
f  26/72/6 24/73/6 19/74/6
f  26/72/6 19/74/6 25/75/6

# Mesh 'Green' with 2 faces
g Green
usemtl Green
f  26/76/12 24/77/12 16/78/12
f  26/76/12 16/78/12 15/71/12

# Mesh 'BackColor' with 2 faces
g BackColor
usemtl BackColor
f  15/72/13 16/79/13 24/80/13
f  15/72/13 24/80/13 26/81/13

# Mesh 'Red' with 2 faces
g Red
usemtl Red
f  16/78/14 24/77/14 27/82/14
f  16/78/14 27/82/14 17/83/14

# Mesh 'BackColor' with 2 faces
g BackColor
usemtl BackColor
f  17/84/15 27/85/15 24/80/15
f  17/84/15 24/80/15 16/79/15

# Mesh 'Green' with 2 faces
g Green
usemtl Green
f  9/86/16 17/87/16 27/82/16
f  9/86/16 27/82/16 10/30/16

# Mesh 'BackColor' with 2 faces
g BackColor
usemtl BackColor
f  10/88/17 27/85/17 17/89/17
f  10/88/17 17/89/17 9/90/17

# Mesh 'Green' with 2 faces
g Green
usemtl Green
f  10/22/5 27/91/5 20/92/5
f  10/22/5 20/92/5 3/19/5

# Mesh 'BackColor' with 2 faces
g BackColor
usemtl BackColor
f  3/26/6 20/93/6 27/94/6
f  3/26/6 27/94/6 10/23/6

# Mesh 'Green' with 2 faces
g Green
usemtl Green
f  3/3/18 20/55/18 18/95/18
f  3/3/18 18/95/18 4/96/18

# Mesh 'BackColor' with 2 faces
g BackColor
usemtl BackColor
f  4/97/19 18/98/19 20/62/19
f  4/97/19 20/62/19 3/10/19

# Mesh 'Red' with 14 faces
g Red
usemtl Red
f  20/99/20 27/100/20 28/101/20
f  20/99/20 28/101/20 21/13/20
f  21/13/21 28/101/21 27/100/21
f  21/13/21 27/100/21 20/99/21
f  28/102/22 23/103/22 22/69/22
f  28/102/22 22/69/22 21/92/22
f  21/92/23 22/69/23 23/103/23
f  21/92/23 23/103/23 28/102/23
f  28/104/24 27/105/24 24/106/24
f  28/104/24 24/106/24 23/107/24
f  23/107/25 24/106/25 27/105/25
f  23/107/25 27/105/25 28/104/25
f  10/108/4 3/67/4 2/64/4
f  10/108/4 2/64/4 8/109/4

# Mesh 'BackColor' with 5 faces
g BackColor
usemtl BackColor
f  8/110/3 2/111/3 3/112/3
f  8/110/3 3/112/3 10/113/3
f  6/114/26 7/115/26 8/116/26
f  6/114/26 8/116/26 10/88/26
f  10/88/26 9/117/26 6/114/26

# Mesh 'Red' with 3 faces
g Red
usemtl Red
f  29/64/27 30/118/27 26/76/27
f  29/64/27 26/76/27 15/71/27
f  15/71/27 14/119/27 29/64/27

# Mesh 'BackColor' with 3 faces
g BackColor
usemtl BackColor
f  30/120/28 29/111/28 14/121/28
f  30/120/28 14/121/28 15/72/28
f  15/72/28 26/81/28 30/120/28

# Mesh 'Red' with 4 faces
g Red
usemtl Red
f  31/64/4 29/122/4 14/123/4
f  31/64/4 14/123/4 13/119/4
f  31/124/5 32/68/5 30/71/5
f  31/124/5 30/71/5 29/119/5

# Mesh 'BackColor' with 2 faces
g BackColor
usemtl BackColor
f  29/121/6 30/72/6 32/75/6
f  29/121/6 32/75/6 31/125/6

# Mesh 'Red' with 2 faces
g Red
usemtl Red
f  25/99/3 26/126/3 30/127/3
f  25/99/3 30/127/3 32/13/3

# Mesh 'BackColor' with 2 faces
g BackColor
usemtl BackColor
f  32/16/4 30/128/4 26/129/4
f  32/16/4 26/129/4 25/130/4

# Mesh 'Red' with 3 faces
g Red
usemtl Red
f  31/13/29 13/131/29 12/132/29
f  31/13/29 12/132/29 25/133/29
f  25/133/29 32/134/29 31/13/29

# Mesh 'BackColor' with 3 faces
g BackColor
usemtl BackColor
f  13/135/30 31/16/30 32/136/30
f  13/135/30 32/136/30 25/137/30
f  25/137/30 12/138/30 13/135/30

# Mesh 'Green' with 2 faces
g Green
usemtl Green
f  12/139/31 11/140/31 19/52/31
f  12/139/31 19/52/31 25/133/31

# Mesh 'BackColor' with 4 faces
g BackColor
usemtl BackColor
f  25/137/32 19/59/32 11/141/32
f  25/137/32 11/141/32 12/142/32
f  13/121/3 14/143/3 29/144/3
f  13/121/3 29/144/3 31/111/3

