# File produced by Open Asset Import Library (http://www.assimp.sf.net)
# (assimp v4.1.908865877)

mtllib Split_01.mtl

# 32 vertex positions
v  -1.5 0.4399999976158142 -1.5
v  -1.200000047683716 0.4399999976158142 -1.5
v  -1.200000047683716 0.1899999976158142 -1.5
v  -1.200000047683716 0 -1.5
v  -1.5 0 -1.5
v  -1.5 0 1.5
v  -1.5 0.4399999976158142 1.5
v  -1.200000047683716 0.4399999976158142 1.5
v  -1.200000047683716 0 1.5
v  -1.200000047683716 0.1899999976158142 1.5
v  0.1499999761581421 0 -1.5
v  1.200000047683716 0 -1.5
v  1.5 0 -1.5
v  1.5 0 1.5
v  1.200000047683716 0 1.5
v  0.1499999761581421 0 1.5
v  -0.1499999761581421 0 1.5
v  -0.1499999761581421 0 -1.5
v  0.1499999761581421 0.1899999976158142 -1.5
v  -0.1499999761581421 0.1899999976158142 -1.5
v  -0.1499999761581421 0.4399999976158142 -1.5
v  0.1499999761581421 0.4399999976158142 -1.5
v  0.1499999761581421 0.4399999976158142 1.5
v  0.1499999761581421 0.1899999976158142 1.5
v  1.200000047683716 0.1899999976158142 -1.5
v  1.200000047683716 0.1899999976158142 1.5
v  -0.1499999761581421 0.4399999976158142 1.5
v  -0.1499999761581421 0.1899999976158142 1.5
v  1.5 0.4399999976158142 1.5
v  1.200000047683716 0.4399999976158142 1.5
v  1.5 0.4399999976158142 -1.5
v  1.200000047683716 0.4399999976158142 -1.5

# 146 UV coordinates
vt -3.268120137643713e-15 0.1466670036315918 0
vt -0.1000000014901161 0.1466670036315918 0
vt -0.1000000014901161 0.06333330273628235 0
vt -0.1000000014901161 5.854839962187493e-16 0
vt -3.268120137643713e-15 5.854839962187493e-16 0
vt -11.81099987030029 17.32279968261719 0
vt -3.859980098139953e-13 17.32279968261719 0
vt -3.859980098139953e-13 6.91517020512053e-14 0
vt -11.81099987030029 6.91517020512053e-14 0
vt -11.81099987030029 7.480309963226318 0
vt -6.73784004596458e-15 0 0
vt -6.73784004596458e-15 0.1466670036315918 0
vt -1 0.1466670036315918 0
vt -1 0 0
vt -118.1100006103516 0 0
vt -118.1100006103516 17.32279968261719 0
vt -7.958079724715295e-13 17.32279968261719 0
vt -7.958079724715295e-13 0 0
vt 0.1000000014901161 1 0
vt 6.256569901378316e-15 1 0
vt 0 6.73784004596458e-15 0
vt 0.1000000014901161 5.775290015913159e-15 0
vt 11.81099987030029 6.821209721195876e-13 0
vt 0 7.958079724715295e-13 0
vt 7.389639572995266e-13 118.1100006103516 0
vt 11.81099987030029 118.1100006103516 0
vt -7.583949805426147e-29 0.1466670036315918 0
vt -7.583949805426147e-29 -5.259870031454946e-30 0
vt 0.1000000014901161 -5.387129614112255e-30 0
vt 0.1000000014901161 0.06333330273628235 0
vt 0.1000000014901161 0.1466670036315918 0
vt -0.550000011920929 1 0
vt -0.8999999761581421 1 0
vt -1 1 0
vt -0.8999999761581421 9.625490771393553e-16 0
vt -0.550000011920929 3.850189955810317e-15 0
vt -0.449999988079071 3.850189955810317e-15 0
vt -0.1000000014901161 5.775290015913159e-15 0
vt -6.256569901378316e-15 1 0
vt -0.1000000014901161 1 0
vt -0.449999988079071 1 0
vt -106.2990036010742 118.1100006103516 0
vt -64.96060180664062 118.1100006103516 0
vt -53.14960098266602 118.1100006103516 0
vt -11.81099987030029 118.1100006103516 0
vt -7.389639572995266e-13 118.1100006103516 0
vt -11.81099987030029 6.821209721195876e-13 0
vt -53.14960098266602 4.547469985207581e-13 0
vt -64.96060180664062 4.547469985207581e-13 0
vt -106.2990036010742 1.136870003519419e-13 0
vt -118.1100006103516 118.1100006103516 0
vt -0.550000011920929 0.06333330273628235 0
vt -0.550000011920929 8.77019014729934e-15 0
vt -0.449999988079071 8.77019014729934e-15 0
vt -0.449999988079071 0.06333330273628235 0
vt -0.449999988079071 0.1466670036315918 0
vt -0.550000011920929 0.1466670036315918 0
vt -64.96060180664062 1.035850008199168e-12 0
vt -64.96060180664062 7.480309963226318 0
vt -64.96060180664062 17.32279968261719 0
vt -53.14960098266602 17.32279968261719 0
vt -53.14960098266602 7.480309963226318 0
vt -53.14960098266602 1.035850008199168e-12 0
vt 1.179120006928464e-14 0.1466670036315918 0
vt 1.179120006928464e-14 0.06333330273628235 0
vt 1 0.06333330273628235 0
vt 1 0.1466670036315918 0
vt 0.8999999761581421 1 0
vt 0.550000011920929 1 0
vt 0.550000011920929 3.850189955810317e-15 0
vt 0.8999999761581421 9.625490771393553e-16 0
vt 106.2990036010742 1.136870003519419e-13 0
vt 64.96060180664062 4.547469985207581e-13 0
vt 64.96060180664062 118.1100006103516 0
vt 106.2990036010742 118.1100006103516 0
vt 0.8999999761581421 0.06333330273628235 0
vt 0.550000011920929 0.06333330273628235 0
vt 0.550000011920929 0 0
vt 0.8999999761581421 0 0
vt 106.2990036010742 0 0
vt 64.96060180664062 0 0
vt 64.96060180664062 7.480309963226318 0
vt 106.2990036010742 7.480309963226318 0
vt 0.449999988079071 2.097470117121376e-29 0
vt 0.550000011920929 2.297220047789375e-29 0
vt 0.550000011920929 0.1466670036315918 0
vt 0.449999988079071 0.1466670036315918 0
vt 0.449999988079071 0.06333330273628235 0
vt 64.96060180664062 2.713259927895454e-27 0
vt 53.14960098266602 2.477320028198407e-27 0
vt 53.14960098266602 7.480309963226318 0
vt 53.14960098266602 17.32279968261719 0
vt 64.96060180664062 17.32279968261719 0
vt 0.1000000014901161 4.702159764780759e-29 0
vt 0.449999988079071 4.336440112816206e-29 0
vt 11.81099987030029 7.480309963226318 0
vt 53.14960098266602 5.121779960690516e-27 0
vt 11.81099987030029 5.553730224919608e-27 0
vt 0.449999988079071 4.812739985861738e-15 0
vt 0.449999988079071 1 0
vt 53.14960098266602 118.1100006103516 0
vt 53.14960098266602 5.684339717676457e-13 0
vt -0.449999988079071 7.599069688931336e-15 0
vt -0.1000000014901161 7.599069688931336e-15 0
vt -11.81099987030029 8.975279829244454e-13 0
vt -53.14960098266602 8.975279829244454e-13 0
vt -1.130989985502874e-14 0.06333330273628235 0
vt -1.130989985502874e-14 0.1466670036315918 0
vt -1 0.06333330273628235 0
vt 6.394239860361452e-15 0.06333330273628235 0
vt 6.394239860361452e-15 0.1466670036315918 0
vt 7.5522498411279e-13 17.32279968261719 0
vt 118.1100006103516 17.32279968261719 0
vt 118.1100006103516 7.480309963226318 0
vt 7.5522498411279e-13 7.480309963226318 0
vt -8.957420823031325e-27 -6.212439962283338e-28 0
vt -8.957420823031325e-27 17.32279968261719 0
vt 11.81099987030029 17.32279968261719 0
vt 11.81099987030029 -6.362750127758012e-28 0
vt 0.8999999761581421 0.1466670036315918 0
vt 1 0 0
vt 106.2990036010742 17.32279968261719 0
vt 118.1100006103516 0 0
vt 6.189489974153459e-15 0.1466670036315918 0
vt 6.189489974153459e-15 0 0
vt 1 1 0
vt 118.1100006103516 118.1100006103516 0
vt -6.533090159756587e-15 0.06333330273628235 0
vt -6.533090159756587e-15 0.1466670036315918 0
vt -7.716250056445662e-13 17.32279968261719 0
vt -7.716250056445662e-13 7.480309963226318 0
vt -118.1100006103516 7.480309963226318 0
vt -1 5.854839962187493e-16 0
vt -0.8999999761581421 5.854839962187493e-16 0
vt -0.8999999761581421 0.06333330273628235 0
vt -0.8999999761581421 0.1466670036315918 0
vt -118.1100006103516 6.91517020512053e-14 0
vt -106.2990036010742 17.32279968261719 0
vt -106.2990036010742 7.480309963226318 0
vt -106.2990036010742 6.91517020512053e-14 0
vt -0.8999999761581421 2.279720059646453e-14 0
vt -0.550000011920929 2.279720059646453e-14 0
vt -64.96060180664062 2.692579883015189e-12 0
vt -106.2990036010742 2.692579883015189e-12 0
vt 7.31042993067782e-13 17.32279968261719 0
vt 7.31042993067782e-13 0 0

# 25 vertex normals
vn 2.98844997549284e-15 -5.854839962187493e-16 -1
vn -2.98844997549284e-15 5.854839962187493e-16 1
vn -1 0 -6.189489974153459e-15
vn 1 0 6.189489974153459e-15
vn 0 1 0
vn 0 -1 0
vn -1.125579901365466e-14 -7.806459988594157e-16 1
vn 1.230639938912259e-14 -8.77019014729934e-15 -1
vn -1.230639938912259e-14 8.77019014729934e-15 1
vn 1 0 1.443820005231095e-14
vn -1 -0 -1.443820005231095e-14
vn -8.250419390645053e-15 0 1
vn 8.250419390645053e-15 0 -1
vn -6.416989894775281e-15 3.112970171486327e-15 1
vn 6.416989894775281e-15 -3.112970171486327e-15 -1
vn -4.125209695322526e-15 7.599069688931336e-15 1
vn 4.125209695322526e-15 -7.599069688931336e-15 -1
vn -1.375070004319961e-15 -7.599069688931336e-15 -1
vn 1.375070004319961e-15 7.599069688931336e-15 1
vn 1.125579901365466e-14 7.806459988594157e-16 -1
vn -9.625490136118842e-15 0 1
vn 9.625490136118842e-15 0 -1
vn 9.043409941798634e-15 -5.854839962187493e-16 -1
vn -9.043409941798634e-15 5.854839962187493e-16 1
vn 9.625490136118842e-15 -2.279720059646453e-14 -1

# Mesh 'Mesh1 Split Model' with 3 faces
g Mesh1 Split Model
usemtl Red
f  1/1/1 2/2/1 3/3/1
f  1/1/1 3/3/1 4/4/1
f  4/4/1 5/5/1 1/1/1

# Mesh 'BackColor' with 3 faces
g BackColor
usemtl BackColor
f  2/6/2 1/7/2 5/8/2
f  2/6/2 5/8/2 4/9/2
f  4/9/2 3/10/2 2/6/2

# Mesh 'Red' with 2 faces
g Red
usemtl Red
f  6/11/3 7/12/3 1/13/3
f  6/11/3 1/13/3 5/14/3

# Mesh 'BackColor' with 2 faces
g BackColor
usemtl BackColor
f  5/15/4 1/16/4 7/17/4
f  5/15/4 7/17/4 6/18/4

# Mesh 'Red' with 2 faces
g Red
usemtl Red
f  2/19/5 1/20/5 7/21/5
f  2/19/5 7/21/5 8/22/5

# Mesh 'BackColor' with 2 faces
g BackColor
usemtl BackColor
f  8/23/6 7/24/6 1/25/6
f  8/23/6 1/25/6 2/26/6

# Mesh 'Red' with 13 faces
g Red
usemtl Red
f  7/27/7 6/28/7 9/29/7
f  7/27/7 9/29/7 10/30/7
f  10/30/7 8/31/7 7/27/7
f  11/32/6 12/33/6 13/34/6
f  11/32/6 13/34/6 14/14/6
f  11/32/6 14/14/6 15/35/6
f  11/32/6 15/35/6 16/36/6
f  11/32/6 16/36/6 17/37/6
f  11/32/6 17/37/6 9/38/6
f  11/32/6 9/38/6 6/21/6
f  11/32/6 6/21/6 5/39/6
f  5/39/6 4/40/6 18/41/6
f  5/39/6 18/41/6 11/32/6

# Mesh 'BackColor' with 10 faces
g BackColor
usemtl BackColor
f  12/42/5 11/43/5 18/44/5
f  4/45/5 5/46/5 6/24/5
f  4/45/5 6/24/5 9/47/5
f  4/45/5 9/47/5 17/48/5
f  4/45/5 17/48/5 16/49/5
f  4/45/5 16/49/5 15/50/5
f  4/45/5 15/50/5 14/15/5
f  4/45/5 14/15/5 13/51/5
f  13/51/5 12/42/5 18/44/5
f  18/44/5 4/45/5 13/51/5

# Mesh 'Red' with 4 faces
g Red
usemtl Red
f  19/52/8 11/53/8 18/54/8
f  19/52/8 18/54/8 20/55/8
f  19/52/8 20/55/8 21/56/8
f  21/56/8 22/57/8 19/52/8

# Mesh 'BackColor' with 4 faces
g BackColor
usemtl BackColor
f  11/58/9 19/59/9 22/60/9
f  11/58/9 22/60/9 21/61/9
f  11/58/9 21/61/9 20/62/9
f  20/62/9 18/63/9 11/58/9

# Mesh 'Red' with 4 faces
g Red
usemtl Red
f  23/64/10 24/65/10 19/66/10
f  23/64/10 19/66/10 22/67/10
f  22/67/11 19/66/11 24/65/11
f  22/67/11 24/65/11 23/64/11

# Mesh 'Green' with 2 faces
g Green
usemtl Green
f  25/68/5 19/69/5 24/70/5
f  25/68/5 24/70/5 26/71/5

# Mesh 'BackColor' with 2 faces
g BackColor
usemtl BackColor
f  26/72/6 24/73/6 19/74/6
f  26/72/6 19/74/6 25/75/6

# Mesh 'Green' with 2 faces
g Green
usemtl Green
f  26/76/12 24/77/12 16/78/12
f  26/76/12 16/78/12 15/79/12

# Mesh 'BackColor' with 2 faces
g BackColor
usemtl BackColor
f  15/80/13 16/81/13 24/82/13
f  15/80/13 24/82/13 26/83/13

# Mesh 'Red' with 4 faces
g Red
usemtl Red
f  17/84/14 16/85/14 24/77/14
f  17/84/14 24/77/14 23/86/14
f  17/84/14 23/86/14 27/87/14
f  27/87/14 28/88/14 17/84/14

# Mesh 'BackColor' with 4 faces
g BackColor
usemtl BackColor
f  16/89/15 17/90/15 28/91/15
f  16/89/15 28/91/15 27/92/15
f  16/89/15 27/92/15 23/93/15
f  23/93/15 24/82/15 16/89/15

# Mesh 'Green' with 2 faces
g Green
usemtl Green
f  9/94/16 17/95/16 28/88/16
f  9/94/16 28/88/16 10/30/16

# Mesh 'BackColor' with 2 faces
g BackColor
usemtl BackColor
f  10/96/17 28/91/17 17/97/17
f  10/96/17 17/97/17 9/98/17

# Mesh 'Green' with 2 faces
g Green
usemtl Green
f  10/22/5 28/99/5 20/100/5
f  10/22/5 20/100/5 3/19/5

# Mesh 'BackColor' with 2 faces
g BackColor
usemtl BackColor
f  3/26/6 20/101/6 28/102/6
f  3/26/6 28/102/6 10/23/6

# Mesh 'Green' with 2 faces
g Green
usemtl Green
f  3/3/18 20/55/18 18/103/18
f  3/3/18 18/103/18 4/104/18

# Mesh 'BackColor' with 2 faces
g BackColor
usemtl BackColor
f  4/105/19 18/106/19 20/62/19
f  4/105/19 20/62/19 3/10/19

# Mesh 'Red' with 10 faces
g Red
usemtl Red
f  28/107/11 27/108/11 21/13/11
f  28/107/11 21/13/11 20/109/11
f  20/109/10 21/13/10 27/108/10
f  20/109/10 27/108/10 28/107/10
f  27/99/5 23/70/5 22/69/5
f  27/99/5 22/69/5 21/100/5
f  21/100/6 22/69/6 23/70/6
f  21/100/6 23/70/6 27/99/6
f  10/110/4 3/66/4 2/67/4
f  10/110/4 2/67/4 8/111/4

# Mesh 'BackColor' with 5 faces
g BackColor
usemtl BackColor
f  8/112/3 2/113/3 3/114/3
f  8/112/3 3/114/3 10/115/3
f  6/116/20 7/117/20 8/118/20
f  6/116/20 8/118/20 10/96/20
f  10/96/20 9/119/20 6/116/20

# Mesh 'Red' with 3 faces
g Red
usemtl Red
f  29/67/21 30/120/21 26/76/21
f  29/67/21 26/76/21 15/79/21
f  15/79/21 14/121/21 29/67/21

# Mesh 'BackColor' with 3 faces
g BackColor
usemtl BackColor
f  30/122/22 29/113/22 14/123/22
f  30/122/22 14/123/22 15/80/22
f  15/80/22 26/83/22 30/122/22

# Mesh 'Red' with 4 faces
g Red
usemtl Red
f  31/67/4 29/124/4 14/125/4
f  31/67/4 14/125/4 13/121/4
f  31/126/5 32/68/5 30/71/5
f  31/126/5 30/71/5 29/121/5

# Mesh 'BackColor' with 2 faces
g BackColor
usemtl BackColor
f  29/123/6 30/72/6 32/75/6
f  29/123/6 32/75/6 31/127/6

# Mesh 'Red' with 2 faces
g Red
usemtl Red
f  25/109/3 26/128/3 30/129/3
f  25/109/3 30/129/3 32/13/3

# Mesh 'BackColor' with 2 faces
g BackColor
usemtl BackColor
f  32/16/4 30/130/4 26/131/4
f  32/16/4 26/131/4 25/132/4

# Mesh 'Red' with 3 faces
g Red
usemtl Red
f  31/13/23 13/133/23 12/134/23
f  31/13/23 12/134/23 25/135/23
f  25/135/23 32/136/23 31/13/23

# Mesh 'BackColor' with 3 faces
g BackColor
usemtl BackColor
f  13/137/24 31/16/24 32/138/24
f  13/137/24 32/138/24 25/139/24
f  25/139/24 12/140/24 13/137/24

# Mesh 'Green' with 2 faces
g Green
usemtl Green
f  12/141/25 11/142/25 19/52/25
f  12/141/25 19/52/25 25/135/25

# Mesh 'BackColor' with 4 faces
g BackColor
usemtl BackColor
f  11/143/25 19/59/25 25/139/25
f  12/144/25 11/143/25 25/139/25
f  29/145/4 14/146/4 13/123/4
f  31/113/4 29/145/4 13/123/4

