# File produced by Open Asset Import Library (http://www.assimp.sf.net)
# (assimp v4.1.908865877)

mtllib Split_start_01.mtl

# 32 vertex positions
v  0 0 -2.31012007212341e-14
v  0 0.4399999976158142 -2.31012007212341e-14
v  1.732589969389263e-14 0.4399999976158142 -3
v  1.732589969389263e-14 0 -3
v  0.300000011920929 0.4399999976158142 -3
v  0.300000011920929 0.4399999976158142 -1.732589969389263e-14
v  0.300000011920929 0 -1.732589969389263e-14
v  0.300000011920929 0.1899999976158142 -1.732589969389263e-14
v  1.649999976158142 0 -3
v  2.700000047683716 0 -3
v  3 0 -3
v  3 0 0
v  2.700000047683716 0 0
v  1.649999976158142 0 -1.155060036061705e-14
v  1.350000023841858 0 -1.155060036061705e-14
v  1.350000023841858 0 -3
v  0.300000011920929 0 -3
v  1.649999976158142 0.1899999976158142 -3
v  1.350000023841858 0.1899999976158142 -3
v  1.350000023841858 0.4399999976158142 -3
v  1.649999976158142 0.4399999976158142 -3
v  3 0.4399999976158142 -3
v  2.700000047683716 0.1899999976158142 -3
v  2.700000047683716 0.4399999976158142 -3
v  1.649999976158142 0.4399999976158142 -1.5
v  1.649999976158142 0.1899999976158142 -1.155060036061705e-14
v  2.700000047683716 0.1899999976158142 0
v  2.700000047683716 0.4399999976158142 0
v  1.350000023841858 0.1899999976158142 -1.155060036061705e-14
v  3 0.4399999976158142 0
v  1.350000023841858 0.4399999976158142 -1.5
v  0.300000011920929 0.1899999976158142 -3

# 138 UV coordinates
vt -7.700390076016e-15 0 0
vt -7.700390076016e-15 0.1466670036315918 0
vt -1 0.1466670036315918 0
vt -1 0 0
vt 0.1000000014901161 1 0
vt 5.775290015913159e-15 1 0
vt 0 7.700390076016e-15 0
vt 0.1000000014901161 5.775290015913159e-15 0
vt -8.667369658579034e-29 0.1466670036315918 0
vt -8.667369658579034e-29 -6.011280250896048e-30 0
vt 0.1000000014901161 -5.387129614112255e-30 0
vt 0.1000000014901161 0.06333330273628235 0
vt 0.1000000014901161 0.1466670036315918 0
vt -0.550000011920929 1 0
vt -0.8999999761581421 1 0
vt -1 1 0
vt -0.8999999761581421 0 0
vt -0.550000011920929 3.850189955810317e-15 0
vt -0.449999988079071 3.850189955810317e-15 0
vt -0.1000000014901161 5.775290015913159e-15 0
vt -5.775290015913159e-15 1 0
vt -0.449999988079071 1 0
vt -0.1000000014901161 1 0
vt -0.550000011920929 0.06333330273628235 0
vt -0.550000011920929 8.77019014729934e-15 0
vt -0.449999988079071 8.77019014729934e-15 0
vt -0.449999988079071 0.06333330273628235 0
vt -0.449999988079071 0.1466670036315918 0
vt -0.550000011920929 0.1466670036315918 0
vt -1 5.854839962187493e-16 0
vt -0.8999999761581421 5.854839962187493e-16 0
vt -0.8999999761581421 0.06333330273628235 0
vt -0.8999999761581421 0.1466670036315918 0
vt 1 0.1466670036315918 0
vt 0.5 0.1466670036315918 0
vt 1.126179939505301e-14 0.06333330273628235 0
vt 1 0.06333330273628235 0
vt -1 0.06333330273628235 0
vt -5.570540129705166e-15 0.06333330273628235 0
vt -5.570540129705166e-15 0.1466670036315918 0
vt 0.550000011920929 0 0
vt 0.550000011920929 0.06333330273628235 0
vt 0.449999988079071 0.06333330273628235 0
vt 0.449999988079071 0 0
vt 6.189489974153459e-15 0.1466670036315918 0
vt 6.189489974153459e-15 0 0
vt 1 0 0
vt 1 1 0
vt 0.8999999761581421 1 0
vt 0.8999999761581421 0 0
vt -1.008749917500102e-14 0.06333330273628235 0
vt -0.5 0.1466670036315918 0
vt 0.449999988079071 0.5 0
vt 0.550000011920929 0.5 0
vt 0.550000011920929 1 0
vt 0.449999988079071 1 0
vt 0.449999988079071 0.5173090100288391 0
vt 0.449999988079071 0.01041189953684807 0
vt 0.550000011920929 0.01041189953684807 0
vt 0.550000011920929 0.5173090100288391 0
vt 6.394239860361452e-15 0.06333330273628235 0
vt 6.394239860361452e-15 0.1466670036315918 0
vt 0.8999999761581421 0.1466670036315918 0
vt 0.8999999761581421 0.06333330273628235 0
vt -2.786840040420319e-15 0.1466670036315918 0
vt -0.1000000014901161 0.1466670036315918 0
vt -0.1000000014901161 0.06333330273628235 0
vt -0.1000000014901161 5.854839962187493e-16 0
vt -2.786840040420319e-15 5.854839962187493e-16 0
vt -106.2990036010742 7.480309963226318 0
vt -64.96060180664062 7.480309963226318 0
vt -64.96060180664062 2.692579883015189e-12 0
vt -106.2990036010742 2.692579883015189e-12 0
vt -118.1100006103516 6.91517020512053e-14 0
vt -106.2990036010742 17.32279968261719 0
vt -64.96060180664062 17.32279968261719 0
vt -53.14960098266602 17.32279968261719 0
vt -53.14960098266602 7.480309963226318 0
vt -53.14960098266602 8.975279829244454e-13 0
vt -11.81099987030029 8.975279829244454e-13 0
vt -11.81099987030029 7.480309963226318 0
vt -11.81099987030029 17.32279968261719 0
vt -3.29154997529002e-13 6.91517020512053e-14 0
vt -3.29154997529002e-13 17.32279968261719 0
vt -118.1100006103516 17.32279968261719 0
vt 118.1100006103516 0 0
vt 7.31042993067782e-13 0 0
vt 7.31042993067782e-13 17.32279968261719 0
vt 118.1100006103516 17.32279968261719 0
vt 7.5522498411279e-13 17.32279968261719 0
vt 118.1100006103516 7.480309963226318 0
vt 7.5522498411279e-13 7.480309963226318 0
vt -1.023700020399045e-26 -7.099929665886365e-28 0
vt -1.023700020399045e-26 17.32279968261719 0
vt 11.81099987030029 17.32279968261719 0
vt 11.81099987030029 7.480309963226318 0
vt 11.81099987030029 -6.362750127758012e-28 0
vt 53.14960098266602 7.480309963226318 0
vt 53.14960098266602 5.121779960690516e-27 0
vt 64.96060180664062 7.480309963226318 0
vt 64.96060180664062 0 0
vt 106.2990036010742 0 0
vt 106.2990036010742 7.480309963226318 0
vt 106.2990036010742 17.32279968261719 0
vt -118.1100006103516 0 0
vt -9.094949186133627e-13 17.32279968261719 0
vt -9.094949186133627e-13 0 0
vt 11.81099987030029 118.1100006103516 0
vt 53.14960098266602 118.1100006103516 0
vt 53.14960098266602 4.547469985207581e-13 0
vt 11.81099987030029 6.821209721195876e-13 0
vt 0 9.094949186133627e-13 0
vt 6.821209721195876e-13 118.1100006103516 0
vt -106.2990036010742 118.1100006103516 0
vt -64.96060180664062 118.1100006103516 0
vt -53.14960098266602 118.1100006103516 0
vt -118.1100006103516 118.1100006103516 0
vt -106.2990036010742 0 0
vt -64.96060180664062 4.547469985207581e-13 0
vt -53.14960098266602 4.547469985207581e-13 0
vt -11.81099987030029 6.821209721195876e-13 0
vt -11.81099987030029 118.1100006103516 0
vt -6.821209721195876e-13 118.1100006103516 0
vt 64.96060180664062 4.547469985207581e-13 0
vt 64.96060180664062 118.1100006103516 0
vt 106.2990036010742 118.1100006103516 0
vt -6.579380052926243e-13 17.32279968261719 0
vt -6.579380052926243e-13 7.480309963226318 0
vt -118.1100006103516 7.480309963226318 0
vt 118.1100006103516 118.1100006103516 0
vt 0.449999988079071 3.850189955810317e-15 0
vt 0.550000011920929 3.850189955810317e-15 0
vt 0.1000000014901161 4.702159764780759e-29 0
vt 0.449999988079071 4.336440112816206e-29 0
vt -0.8999999761581421 2.279720059646453e-14 0
vt -0.550000011920929 2.279720059646453e-14 0
vt -0.449999988079071 7.599069688931336e-15 0
vt -0.1000000014901161 7.599069688931336e-15 0

# 31 vertex normals
vn -1 0 -6.189489974153459e-15
vn 0 1 0
vn -1.125579901365466e-14 -7.806459988594157e-16 1
vn 0 -1 0
vn 1.230639938912259e-14 -8.77019014729934e-15 -1
vn 9.043409941798634e-15 -5.854839962187493e-16 -1
vn 1 3.850189955810317e-15 1.347569957368695e-14
vn -1 -3.850189955810317e-15 -1.347569957368695e-14
vn 0 0 1
vn 1 0 6.189489974153459e-15
vn -1 -6.930349882568274e-15 -1.386069976513655e-14
vn 1 6.930349882568274e-15 1.386069976513655e-14
vn 3.606669822786171e-30 1 7.21333973961189e-31
vn -3.606669822786171e-30 -1 -7.21333973961189e-31
vn -1.674730051381806e-17 0.9863939881324768 0.1643989980220795
vn 1.674730051381806e-17 -0.9863939881324768 -0.1643989980220795
vn -9.625490136118842e-15 0 1
vn 2.98844997549284e-15 -5.854839962187493e-16 -1
vn -9.625490136118842e-15 2.279720059646453e-14 1
vn -9.043409941798634e-15 5.854839962187493e-16 1
vn -1.230639938912259e-14 8.77019014729934e-15 1
vn 1.375070004319961e-15 7.599069688931336e-15 1
vn -2.98844997549284e-15 5.854839962187493e-16 1
vn 1.125579901365466e-14 7.806459988594157e-16 -1
vn 4.125209695322526e-15 -7.599069688931336e-15 -1
vn -0 -0 -1
vn 9.625490136118842e-15 0 -1
vn -1.100059984510821e-14 0 1
vn -4.125209695322526e-15 7.599069688931336e-15 1
vn 9.625490136118842e-15 -2.279720059646453e-14 -1
vn -1.375070004319961e-15 -7.599069688931336e-15 -1

# Mesh 'Red.Red.Red.Red.Red.Red.Red.Red.Red.Red.Red.Mesh1 Split_start Model' with 56 faces
g Red.Red.Red.Red.Red.Red.Red.Red.Red.Red.Red.Mesh1 Split_start Model
usemtl Red
f  1/1/1 2/2/1 3/3/1
f  1/1/1 3/3/1 4/4/1
f  5/5/2 3/6/2 2/7/2
f  5/5/2 2/7/2 6/8/2
f  2/9/3 1/10/3 7/11/3
f  2/9/3 7/11/3 8/12/3
f  8/12/3 6/13/3 2/9/3
f  9/14/4 10/15/4 11/16/4
f  9/14/4 11/16/4 12/4/4
f  9/14/4 12/4/4 13/17/4
f  9/14/4 13/17/4 14/18/4
f  9/14/4 14/18/4 15/19/4
f  9/14/4 15/19/4 7/20/4
f  9/14/4 7/20/4 1/7/4
f  9/14/4 1/7/4 4/21/4
f  4/21/4 16/22/4 9/14/4
f  4/21/4 17/23/4 16/22/4
f  18/24/5 9/25/5 16/26/5
f  18/24/5 16/26/5 19/27/5
f  18/24/5 19/27/5 20/28/5
f  20/28/5 21/29/5 18/24/5
f  22/3/6 11/30/6 10/31/6
f  22/3/6 10/31/6 23/32/6
f  23/32/6 24/33/6 22/3/6
f  21/34/7 25/35/7 26/36/7
f  21/34/7 26/36/7 18/37/7
f  18/37/8 26/36/8 25/35/8
f  18/37/8 25/35/8 21/34/8
f  23/38/1 27/39/1 28/40/1
f  23/38/1 28/40/1 24/3/1
f  14/41/9 26/42/9 29/43/9
f  14/41/9 29/43/9 15/44/9
f  22/34/10 30/45/10 12/46/10
f  22/34/10 12/46/10 11/47/10
f  22/48/2 24/49/2 28/50/2
f  22/48/2 28/50/2 30/47/2
f  19/38/11 29/51/11 31/52/11
f  19/38/11 31/52/11 20/3/11
f  20/3/12 31/52/12 29/51/12
f  20/3/12 29/51/12 19/38/12
f  31/53/13 25/54/13 21/55/13
f  31/53/13 21/55/13 20/56/13
f  20/56/14 21/55/14 25/54/14
f  20/56/14 25/54/14 31/53/14
f  31/57/15 29/58/15 26/59/15
f  31/57/15 26/59/15 25/60/15
f  25/60/16 26/59/16 29/58/16
f  25/60/16 29/58/16 31/57/16
f  8/61/10 32/37/10 5/34/10
f  8/61/10 5/34/10 6/62/10
f  30/34/17 28/63/17 27/64/17
f  30/34/17 27/64/17 13/50/17
f  13/50/17 12/47/17 30/34/17
f  3/65/18 5/66/18 32/67/18
f  3/65/18 32/67/18 17/68/18
f  17/68/18 4/69/18 3/65/18

# Mesh 'BackColor.BackColor.BackColor.BackColor.BackColor.BackColor.BackColor.BackColor.BackColor.BackColor.BackColor.BackColor.BackColor.BackColor.BackColor.BackColor.BackColor' with 52 faces
g BackColor.BackColor.BackColor.BackColor.BackColor.BackColor.BackColor.BackColor.BackColor.BackColor.BackColor.BackColor.BackColor.BackColor.BackColor.BackColor.BackColor
usemtl BackColor
f  23/70/19 18/71/19 9/72/19
f  23/70/19 9/72/19 10/73/19
f  11/74/20 24/75/20 23/70/19
f  23/70/19 10/73/19 11/74/20
f  9/72/19 18/71/19 21/76/21
f  9/72/19 21/76/21 20/77/21
f  9/72/19 20/77/21 19/78/22
f  19/78/22 16/79/22 9/72/19
f  17/80/22 16/79/22 19/78/22
f  17/80/22 19/78/22 32/81/22
f  5/82/23 4/83/23 17/80/22
f  17/80/22 32/81/22 5/82/23
f  5/82/23 3/84/23 4/83/23
f  11/74/20 22/85/20 24/75/20
f  11/86/1 12/87/1 30/88/1
f  11/86/1 30/88/1 22/89/1
f  6/90/1 5/89/1 32/91/1
f  6/90/1 32/91/1 8/92/1
f  1/93/24 2/94/24 6/95/24
f  1/93/24 6/95/24 8/96/24
f  8/96/24 7/97/24 1/93/24
f  8/96/24 29/98/25 15/99/25
f  8/96/24 15/99/25 7/97/24
f  15/99/25 29/98/25 26/100/26
f  15/99/25 26/100/26 14/101/26
f  13/102/27 14/101/26 26/100/26
f  13/102/27 26/100/26 27/103/27
f  28/104/27 12/86/27 13/102/27
f  13/102/27 27/103/27 28/104/27
f  28/104/27 30/89/27 12/86/27
f  4/105/10 3/85/10 2/106/10
f  4/105/10 2/106/10 1/107/10
f  32/108/4 19/109/4 29/110/4
f  32/108/4 29/110/4 8/111/4
f  6/111/4 2/112/4 3/113/4
f  6/111/4 3/113/4 5/108/4
f  10/114/2 9/115/2 16/116/2
f  16/116/2 11/117/2 10/114/2
f  16/116/2 12/105/2 11/117/2
f  16/116/2 13/118/2 12/105/2
f  16/116/2 14/119/2 13/118/2
f  16/116/2 15/120/2 14/119/2
f  16/116/2 7/121/2 15/120/2
f  16/116/2 1/112/2 7/121/2
f  16/116/2 17/122/2 4/123/2
f  16/116/2 4/123/2 1/112/2
f  27/102/4 26/124/4 18/125/4
f  27/102/4 18/125/4 23/126/4
f  24/85/10 28/127/10 27/128/10
f  24/85/10 27/128/10 23/129/10
f  30/86/4 28/102/4 24/126/4
f  30/86/4 24/126/4 22/130/4

# Mesh 'Green.Green.Green.Green.Green.Green' with 12 faces
g Green.Green.Green.Green.Green.Green
usemtl Green
f  8/8/2 29/131/2 19/56/2
f  8/8/2 19/56/2 32/5/2
f  23/49/2 18/55/2 26/132/2
f  23/49/2 26/132/2 27/50/2
f  27/64/28 26/42/28 14/41/28
f  27/64/28 14/41/28 13/50/28
f  7/133/29 15/134/29 29/43/29
f  7/133/29 29/43/29 8/12/29
f  10/135/30 9/136/30 18/24/30
f  10/135/30 18/24/30 23/32/30
f  32/67/31 19/27/31 16/137/31
f  32/67/31 16/137/31 17/138/31

