# File produced by Open Asset Import Library (http://www.assimp.sf.net)
# (assimp v4.1.327737527)

mtllib Split_01.mtl

# 32 vertex positions
v  0 0 -2.021349938558653e-14
v  0 0.4399999976158142 -2.021349938558653e-14
v  1.876969953973958e-14 0.4399999976158142 -3
v  1.876969953973958e-14 0 -3
v  0.300000011920929 0.4399999976158142 -3
v  0.300000011920929 0.4399999976158142 -1.732589969389263e-14
v  0.300000011920929 0 -1.732589969389263e-14
v  0.300000011920929 0.1899999976158142 -1.732589969389263e-14
v  1.649999976158142 0 -3
v  2.700000047683716 0 -3
v  3 0 -3
v  3 0 0
v  2.700000047683716 0 -2.887650090154263e-15
v  1.649999976158142 0 -1.155060036061705e-14
v  1.350000023841858 0 -1.155060036061705e-14
v  1.350000023841858 0 -3
v  0.300000011920929 0 -3
v  1.649999976158142 0.1899999976158142 -3
v  1.350000023841858 0.1899999976158142 -3
v  1.350000023841858 0.4399999976158142 -3
v  1.649999976158142 0.4399999976158142 -3
v  3 0.4399999976158142 -3
v  2.700000047683716 0.1899999976158142 -3
v  2.700000047683716 0.4399999976158142 -3
v  1.649999976158142 0.4399999976158142 -1.155060036061705e-14
v  1.649999976158142 0.1899999976158142 -1.155060036061705e-14
v  2.700000047683716 0.1899999976158142 -2.887650090154263e-15
v  2.700000047683716 0.4399999976158142 -2.887650090154263e-15
v  1.350000023841858 0.4399999976158142 -1.443820005231095e-14
v  1.350000023841858 0.1899999976158142 -1.443820005231095e-14
v  3 0.4399999976158142 0
v  0.300000011920929 0.1899999976158142 -3

# 139 UV coordinates
vt -6.73784004596458e-15 0 0
vt -6.73784004596458e-15 0.1466670036315918 0
vt -1 0.1466670036315918 0
vt -1 0 0
vt 0.1000000014901161 1 0
vt 6.256569901378316e-15 1 0
vt 0 6.73784004596458e-15 0
vt 0.1000000014901161 5.775290015913159e-15 0
vt -7.583949805426147e-29 0.1466670036315918 0
vt -7.583949805426147e-29 -5.259870031454946e-30 0
vt 0.1000000014901161 -5.387129614112255e-30 0
vt 0.1000000014901161 0.06333330273628235 0
vt 0.1000000014901161 0.1466670036315918 0
vt -0.550000011920929 1 0
vt -0.8999999761581421 1 0
vt -1 1 0
vt -0.8999999761581421 9.625490771393553e-16 0
vt -0.550000011920929 3.850189955810317e-15 0
vt -0.449999988079071 3.850189955810317e-15 0
vt -0.1000000014901161 5.775290015913159e-15 0
vt -6.256569901378316e-15 1 0
vt -0.449999988079071 1 0
vt -0.1000000014901161 1 0
vt -0.550000011920929 0.06333330273628235 0
vt -0.550000011920929 8.77019014729934e-15 0
vt -0.449999988079071 8.77019014729934e-15 0
vt -0.449999988079071 0.06333330273628235 0
vt -0.449999988079071 0.1466670036315918 0
vt -0.550000011920929 0.1466670036315918 0
vt -1 5.854839962187493e-16 0
vt -0.8999999761581421 5.854839962187493e-16 0
vt -0.8999999761581421 0.06333330273628235 0
vt -0.8999999761581421 0.1466670036315918 0
vt 1.179120006928464e-14 0.1466670036315918 0
vt 1.179120006928464e-14 0.06333330273628235 0
vt 1 0.06333330273628235 0
vt 1 0.1466670036315918 0
vt -1 0.06333330273628235 0
vt -6.533090159756587e-15 0.06333330273628235 0
vt -6.533090159756587e-15 0.1466670036315918 0
vt 0.449999988079071 2.097470117121376e-29 0
vt 0.550000011920929 2.297220047789375e-29 0
vt 0.550000011920929 0.06333330273628235 0
vt 0.550000011920929 0.1466670036315918 0
vt 0.449999988079071 0.1466670036315918 0
vt 0.449999988079071 0.06333330273628235 0
vt 6.189489974153459e-15 0.1466670036315918 0
vt 6.189489974153459e-15 0 0
vt 1 0 0
vt 1 1 0
vt 0.8999999761581421 1 0
vt 0.8999999761581421 9.625490771393553e-16 0
vt -1.130989985502874e-14 0.06333330273628235 0
vt -1.130989985502874e-14 0.1466670036315918 0
vt 0.449999988079071 4.812739985861738e-15 0
vt 0.550000011920929 3.850189955810317e-15 0
vt 0.550000011920929 1 0
vt 0.449999988079071 1 0
vt 6.394239860361452e-15 0.06333330273628235 0
vt 6.394239860361452e-15 0.1466670036315918 0
vt 0.8999999761581421 0.1466670036315918 0
vt 0.8999999761581421 0.06333330273628235 0
vt 0.8999999761581421 0 0
vt -3.268120137643713e-15 0.1466670036315918 0
vt -0.1000000014901161 0.1466670036315918 0
vt -0.1000000014901161 0.06333330273628235 0
vt -0.1000000014901161 5.854839962187493e-16 0
vt -3.268120137643713e-15 5.854839962187493e-16 0
vt -106.2990036010742 7.480309963226318 0
vt -64.96060180664062 7.480309963226318 0
vt -64.96060180664062 2.692579883015189e-12 0
vt -106.2990036010742 2.692579883015189e-12 0
vt -118.1100006103516 6.91517020512053e-14 0
vt -106.2990036010742 17.32279968261719 0
vt -64.96060180664062 17.32279968261719 0
vt -53.14960098266602 17.32279968261719 0
vt -53.14960098266602 7.480309963226318 0
vt -53.14960098266602 8.975279829244454e-13 0
vt -11.81099987030029 8.975279829244454e-13 0
vt -11.81099987030029 7.480309963226318 0
vt -11.81099987030029 17.32279968261719 0
vt -3.859980098139953e-13 6.91517020512053e-14 0
vt -3.859980098139953e-13 17.32279968261719 0
vt -118.1100006103516 17.32279968261719 0
vt 118.1100006103516 0 0
vt 7.31042993067782e-13 0 0
vt 7.31042993067782e-13 17.32279968261719 0
vt 118.1100006103516 17.32279968261719 0
vt 7.5522498411279e-13 17.32279968261719 0
vt 118.1100006103516 7.480309963226318 0
vt 7.5522498411279e-13 7.480309963226318 0
vt -8.957420823031325e-27 -6.212439962283338e-28 0
vt -8.957420823031325e-27 17.32279968261719 0
vt 11.81099987030029 17.32279968261719 0
vt 11.81099987030029 7.480309963226318 0
vt 11.81099987030029 -6.362750127758012e-28 0
vt 53.14960098266602 7.480309963226318 0
vt 53.14960098266602 5.121779960690516e-27 0
vt 64.96060180664062 2.713259927895454e-27 0
vt 53.14960098266602 17.32279968261719 0
vt 64.96060180664062 17.32279968261719 0
vt 64.96060180664062 7.480309963226318 0
vt 106.2990036010742 0 0
vt 106.2990036010742 7.480309963226318 0
vt 106.2990036010742 17.32279968261719 0
vt -118.1100006103516 0 0
vt -7.958079724715295e-13 17.32279968261719 0
vt -7.958079724715295e-13 0 0
vt 11.81099987030029 118.1100006103516 0
vt 53.14960098266602 118.1100006103516 0
vt 53.14960098266602 5.684339717676457e-13 0
vt 11.81099987030029 6.821209721195876e-13 0
vt 0 7.958079724715295e-13 0
vt 7.389639572995266e-13 118.1100006103516 0
vt -106.2990036010742 118.1100006103516 0
vt -64.96060180664062 118.1100006103516 0
vt -53.14960098266602 118.1100006103516 0
vt -118.1100006103516 118.1100006103516 0
vt -11.81099987030029 118.1100006103516 0
vt -106.2990036010742 1.136870003519419e-13 0
vt -64.96060180664062 4.547469985207581e-13 0
vt -7.389639572995266e-13 118.1100006103516 0
vt -11.81099987030029 6.821209721195876e-13 0
vt -53.14960098266602 4.547469985207581e-13 0
vt 106.2990036010742 1.136870003519419e-13 0
vt 64.96060180664062 4.547469985207581e-13 0
vt 64.96060180664062 118.1100006103516 0
vt 106.2990036010742 118.1100006103516 0
vt -7.716250056445662e-13 17.32279968261719 0
vt -7.716250056445662e-13 7.480309963226318 0
vt -118.1100006103516 7.480309963226318 0
vt 118.1100006103516 118.1100006103516 0
vt 0.550000011920929 0 0
vt 0.1000000014901161 4.702159764780759e-29 0
vt 0.449999988079071 4.336440112816206e-29 0
vt -0.8999999761581421 2.279720059646453e-14 0
vt -0.550000011920929 2.279720059646453e-14 0
vt -0.449999988079071 7.599069688931336e-15 0
vt -0.1000000014901161 7.599069688931336e-15 0

# 25 vertex normals
vn -1 0 -6.189489974153459e-15
vn 0 1 0
vn -1.125579901365466e-14 -7.806459988594157e-16 1
vn 0 -1 0
vn 1.230639938912259e-14 -8.77019014729934e-15 -1
vn 9.043409941798634e-15 -5.854839962187493e-16 -1
vn 1 0 1.443820005231095e-14
vn -1 -0 -1.443820005231095e-14
vn -6.416989894775281e-15 3.112970171486327e-15 1
vn 1 0 6.189489974153459e-15
vn -9.625490136118842e-15 0 1
vn 2.98844997549284e-15 -5.854839962187493e-16 -1
vn -9.625490136118842e-15 2.279720059646453e-14 1
vn -9.043409941798634e-15 5.854839962187493e-16 1
vn -1.230639938912259e-14 8.77019014729934e-15 1
vn 1.375070004319961e-15 7.599069688931336e-15 1
vn -2.98844997549284e-15 5.854839962187493e-16 1
vn 1.125579901365466e-14 7.806459988594157e-16 -1
vn 4.125209695322526e-15 -7.599069688931336e-15 -1
vn 6.416989894775281e-15 -3.112970171486327e-15 -1
vn 9.625490136118842e-15 0 -1
vn -8.250419390645053e-15 0 1
vn -4.125209695322526e-15 7.599069688931336e-15 1
vn 9.625490136118842e-15 -2.279720059646453e-14 -1
vn -1.375070004319961e-15 -7.599069688931336e-15 -1

# Mesh 'Red.Red.Red.Red.Red.Red.Red.Red.Red.Red.Red.Mesh1 Split Model' with 54 faces
g Red.Red.Red.Red.Red.Red.Red.Red.Red.Red.Red.Mesh1 Split Model
usemtl Red
f  1/1/1 2/2/1 3/3/1
f  1/1/1 3/3/1 4/4/1
f  5/5/2 3/6/2 2/7/2
f  5/5/2 2/7/2 6/8/2
f  2/9/3 1/10/3 7/11/3
f  2/9/3 7/11/3 8/12/3
f  8/12/3 6/13/3 2/9/3
f  9/14/4 10/15/4 11/16/4
f  9/14/4 11/16/4 12/4/4
f  9/14/4 12/4/4 13/17/4
f  9/14/4 13/17/4 14/18/4
f  9/14/4 14/18/4 15/19/4
f  9/14/4 15/19/4 7/20/4
f  9/14/4 7/20/4 1/7/4
f  9/14/4 1/7/4 4/21/4
f  4/21/4 16/22/4 9/14/4
f  4/21/4 17/23/4 16/22/4
f  18/24/5 9/25/5 16/26/5
f  18/24/5 16/26/5 19/27/5
f  18/24/5 19/27/5 20/28/5
f  20/28/5 21/29/5 18/24/5
f  22/3/6 11/30/6 10/31/6
f  22/3/6 10/31/6 23/32/6
f  23/32/6 24/33/6 22/3/6
f  25/34/7 26/35/7 18/36/7
f  25/34/7 18/36/7 21/37/7
f  21/37/8 18/36/8 26/35/8
f  21/37/8 26/35/8 25/34/8
f  23/38/1 27/39/1 28/40/1
f  23/38/1 28/40/1 24/3/1
f  15/41/9 14/42/9 26/43/9
f  15/41/9 26/43/9 25/44/9
f  15/41/9 25/44/9 29/45/9
f  29/45/9 30/46/9 15/41/9
f  22/37/10 31/47/10 12/48/10
f  22/37/10 12/48/10 11/49/10
f  22/50/2 24/51/2 28/52/2
f  22/50/2 28/52/2 31/49/2
f  30/53/8 29/54/8 20/3/8
f  30/53/8 20/3/8 19/38/8
f  19/38/7 20/3/7 29/54/7
f  19/38/7 29/54/7 30/53/7
f  29/55/2 25/56/2 21/57/2
f  29/55/2 21/57/2 20/58/2
f  20/58/4 21/57/4 25/56/4
f  20/58/4 25/56/4 29/55/4
f  8/59/10 32/36/10 5/37/10
f  8/59/10 5/37/10 6/60/10
f  31/37/11 28/61/11 27/62/11
f  31/37/11 27/62/11 13/63/11
f  13/63/11 12/49/11 31/37/11
f  3/64/12 5/65/12 32/66/12
f  3/64/12 32/66/12 17/67/12
f  17/67/12 4/68/12 3/64/12

# Mesh 'BackColor.BackColor.BackColor.BackColor.BackColor.BackColor.BackColor.BackColor.BackColor.BackColor.BackColor.BackColor.BackColor.BackColor.BackColor.BackColor.BackColor' with 54 faces
g BackColor.BackColor.BackColor.BackColor.BackColor.BackColor.BackColor.BackColor.BackColor.BackColor.BackColor.BackColor.BackColor.BackColor.BackColor.BackColor.BackColor
usemtl BackColor
f  23/69/13 18/70/13 9/71/13
f  23/69/13 9/71/13 10/72/13
f  11/73/14 24/74/14 23/69/13
f  23/69/13 10/72/13 11/73/14
f  9/71/13 18/70/13 21/75/15
f  9/71/13 21/75/15 20/76/15
f  9/71/13 20/76/15 19/77/16
f  19/77/16 16/78/16 9/71/13
f  17/79/16 16/78/16 19/77/16
f  17/79/16 19/77/16 32/80/16
f  5/81/17 4/82/17 17/79/16
f  17/79/16 32/80/16 5/81/17
f  5/81/17 3/83/17 4/82/17
f  11/73/14 22/84/14 24/74/14
f  11/85/1 12/86/1 31/87/1
f  11/85/1 31/87/1 22/88/1
f  6/89/1 5/88/1 32/90/1
f  6/89/1 32/90/1 8/91/1
f  1/92/18 2/93/18 6/94/18
f  1/92/18 6/94/18 8/95/18
f  8/95/18 7/96/18 1/92/18
f  8/95/18 30/97/19 15/98/19
f  8/95/18 15/98/19 7/96/18
f  14/99/20 15/98/19 30/97/19
f  14/99/20 30/97/19 29/100/20
f  14/99/20 29/100/20 25/101/20
f  25/101/20 26/102/20 14/99/20
f  13/103/21 14/99/20 26/102/20
f  13/103/21 26/102/20 27/104/21
f  28/105/21 12/85/21 13/103/21
f  13/103/21 27/104/21 28/105/21
f  28/105/21 31/88/21 12/85/21
f  4/106/10 3/84/10 2/107/10
f  4/106/10 2/107/10 1/108/10
f  32/109/4 19/110/4 30/111/4
f  32/109/4 30/111/4 8/112/4
f  6/112/4 2/113/4 3/114/4
f  6/112/4 3/114/4 5/109/4
f  10/115/2 9/116/2 16/117/2
f  11/118/2 10/115/2 16/117/2
f  16/117/2 17/119/2 11/118/2
f  17/119/2 12/106/2 11/118/2
f  17/119/2 13/120/2 12/106/2
f  17/119/2 14/121/2 13/120/2
f  17/119/2 4/122/2 1/113/2
f  17/119/2 1/113/2 7/123/2
f  17/119/2 7/123/2 15/124/2
f  17/119/2 15/124/2 14/121/2
f  27/125/4 26/126/4 18/127/4
f  27/125/4 18/127/4 23/128/4
f  24/84/10 28/129/10 27/130/10
f  24/84/10 27/130/10 23/131/10
f  31/85/4 28/125/4 24/128/4
f  31/85/4 24/128/4 22/132/4

# Mesh 'Green.Green.Green.Green.Green.Green' with 12 faces
g Green.Green.Green.Green.Green.Green
usemtl Green
f  8/8/2 30/55/2 19/58/2
f  8/8/2 19/58/2 32/5/2
f  23/51/2 18/57/2 26/56/2
f  23/51/2 26/56/2 27/52/2
f  27/62/22 26/43/22 14/133/22
f  27/62/22 14/133/22 13/63/22
f  7/134/23 15/135/23 30/46/23
f  7/134/23 30/46/23 8/12/23
f  10/136/24 9/137/24 18/24/24
f  10/136/24 18/24/24 23/32/24
f  32/66/25 19/27/25 16/138/25
f  32/66/25 16/138/25 17/139/25

