# File produced by Open Asset Import Library (http://www.assimp.sf.net)
# (assimp v4.1.908865877)

mtllib Start_01.mtl

# 24 vertex positions
v  -1.5 0 -1.5
v  -1.5 0.1899999976158142 -1.5
v  -1.200000047683716 0.1899999976158142 -1.5
v  -1.200000047683716 0 -1.5
v  -1.200000047683716 0.4399999976158142 1.5
v  -1.200000047683716 0.1899999976158142 1.5
v  -1.200000047683716 0.1899999976158142 0
v  -1.200000047683716 0.4399999976158142 0
v  1.200000047683716 0.1899999976158142 1.5
v  1.200000047683716 0.1899999976158142 0
v  -1.5 0.4399999976158142 0
v  -1.5 0.4399999976158142 1.5
v  -1.5 0 1.5
v  -1.200000047683716 0 1.5
v  1.200000047683716 0 -1.5
v  1.5 0 -1.5
v  1.5 0 1.5
v  1.200000047683716 0 1.5
v  1.5 0.4399999976158142 1.5
v  1.200000047683716 0.4399999976158142 1.5
v  1.5 0.1899999976158142 -1.5
v  1.5 0.4399999976158142 0
v  1.200000047683716 0.1899999976158142 -1.5
v  1.200000047683716 0.4399999976158142 0

# 127 UV coordinates
vt -9.625490771393553e-16 -7.599069688931336e-15 0
vt -9.625490771393553e-16 0.06333330273628235 0
vt -0.1000000014901161 0.06333330273628235 0
vt -0.1000000014901161 -7.599069688931336e-15 0
vt -11.81099987030029 -8.975279829244454e-13 0
vt -11.81099987030029 7.480309963226318 0
vt -1.136870003519419e-13 7.480309963226318 0
vt -1.136870003519419e-13 -8.975279829244454e-13 0
vt 6.160309689120548e-15 0.1466670036315918 0
vt 6.160309689120548e-15 0.06333330273628235 0
vt 0.5 0.06333330273628235 0
vt 1 -6.3308401769185e-31 0
vt 1 0.06333330273628235 0
vt 0.5 0.1466670036315918 0
vt 0.8999999761581421 9.625490771393553e-16 0
vt 0.8999999761581421 0.5 0
vt 0.1000000014901161 0.5 0
vt 0.1000000014901161 5.775290015913159e-15 0
vt 11.81099987030029 6.821209721195876e-13 0
vt 11.81099987030029 59.05509948730469 0
vt 106.2990036010742 59.05509948730469 0
vt 106.2990036010742 1.136870003519419e-13 0
vt 7.275959891007988e-13 7.480309963226318 0
vt 7.275959891007988e-13 17.32279968261719 0
vt 59.05509948730469 17.32279968261719 0
vt 118.1100006103516 7.480309963226318 0
vt 118.1100006103516 -7.477370046009973e-29 0
vt 59.05509948730469 7.480309963226318 0
vt 1.925100060102842e-15 0.5 0
vt 0 6.73784004596458e-15 0
vt 0 7.958079724715295e-13 0
vt 2.273740007038838e-13 59.05509948730469 0
vt -1 5.785280083165147e-31 0
vt -6.73784004596458e-15 3.783505853677006e-44 0
vt -6.73784004596458e-15 0.1466670036315918 0
vt -0.5 0.1466670036315918 0
vt -1 0.06333330273628235 0
vt -7.958079724715295e-13 4.513582353590236e-42 0
vt -118.1100006103516 6.83301046081012e-29 0
vt -118.1100006103516 7.480309963226318 0
vt -59.05509948730469 17.32279968261719 0
vt -7.958079724715295e-13 17.32279968261719 0
vt -0.1000000014901161 -0.4690850079059601 0
vt -0.1000000014901161 -0.9759820103645325 0
vt -9.874140469433605e-16 -0.9759820103645325 0
vt 4.68840994876491e-16 -0.4690850079059601 0
vt 5.537499915531617e-14 -55.40380096435547 0
vt -1.166239956169879e-13 -115.2730026245117 0
vt -11.81099987030029 -115.2730026245117 0
vt -11.81099987030029 -55.40380096435547 0
vt -7.583949805426147e-29 0.1466670036315918 0
vt -7.583949805426147e-29 -5.259870031454946e-30 0
vt 0.1000000014901161 -5.387129614112255e-30 0
vt 0.1000000014901161 0.06333330273628235 0
vt 0.1000000014901161 0.1466670036315918 0
vt -0.1000000014901161 1 0
vt -0.8999999761581421 1 0
vt -1 1 0
vt -1 0 0
vt -0.8999999761581421 9.625490771393553e-16 0
vt -0.1000000014901161 5.775290015913159e-15 0
vt -5.775290015913159e-15 1 0
vt -106.2990036010742 118.1100006103516 0
vt -11.81099987030029 118.1100006103516 0
vt -6.821209721195876e-13 118.1100006103516 0
vt -11.81099987030029 6.821209721195876e-13 0
vt -106.2990036010742 1.136870003519419e-13 0
vt -118.1100006103516 0 0
vt -118.1100006103516 118.1100006103516 0
vt -8.957420823031325e-27 -6.212439962283338e-28 0
vt -8.957420823031325e-27 17.32279968261719 0
vt 11.81099987030029 17.32279968261719 0
vt 11.81099987030029 7.480309963226318 0
vt 11.81099987030029 -6.362750127758012e-28 0
vt 0.1000000014901161 -1.220029976153473e-29 0
vt 0.8999999761581421 -1.288600003484397e-29 0
vt 0.8999999761581421 0.06333330273628235 0
vt 106.2990036010742 7.480309963226318 0
vt 106.2990036010742 -1.521970086708399e-27 0
vt 11.81099987030029 -1.440980014018552e-27 0
vt 1 0.1466670036315918 0
vt 0.8999999761581421 0.1466670036315918 0
vt 0.8999999761581421 0 0
vt 1 0 0
vt 106.2990036010742 17.32279968261719 0
vt 118.1100006103516 17.32279968261719 0
vt 118.1100006103516 1.261168617892335e-44 0
vt 106.2990036010742 9.809089250273719e-45 0
vt 6.256569901378316e-15 0.1466670036315918 0
vt 6.256569901378316e-15 9.654920029292416e-30 0
vt 1 9.654920029292416e-30 0
vt 118.1100006103516 1.140350053419482e-27 0
vt 7.389639572995266e-13 1.140350053419482e-27 0
vt 7.389639572995266e-13 17.32279968261719 0
vt -0.8999999761581421 0.06333330273628235 0
vt -1 2.279720059646453e-14 0
vt -0.8999999761581421 2.279720059646453e-14 0
vt -106.2990036010742 2.692579883015189e-12 0
vt -118.1100006103516 2.692579883015189e-12 0
vt -106.2990036010742 7.480309963226318 0
vt -0.8999999761581421 -0.9759820103645325 0
vt -0.8999999761581421 -0.4690850079059601 0
vt -1 -0.4690850079059601 0
vt -1 -0.9759820103645325 0
vt -6.449419821710333e-15 0.06333330273628235 0
vt -6.449419821710333e-15 0.1466670036315918 0
vt -1 3.942450054974676e-15 0
vt -0.5 0.06333330273628235 0
vt -7.617429365232298e-13 17.32279968261719 0
vt -7.617429365232298e-13 7.480309963226318 0
vt -59.05509948730469 7.480309963226318 0
vt -118.1100006103516 4.656439621907038e-13 0
vt -0.8999999761581421 -0.4880779981613159 0
vt -0.8999999761581421 -0.9920729994773865 0
vt -0.1000000014901161 -0.9920729994773865 0
vt -0.1000000014901161 -0.4880779981613159 0
vt -11.81099987030029 -57.64699935913086 0
vt -11.81099987030029 -117.1740036010742 0
vt -106.2990036010742 -117.1740036010742 0
vt -106.2990036010742 -57.64699935913086 0
vt -118.1100006103516 -115.2730026245117 0
vt -118.1100006103516 -55.40380096435547 0
vt -106.2990036010742 -55.40380096435547 0
vt -106.2990036010742 -115.2730026245117 0
vt 1 0.5 0
vt 118.1100006103516 59.05509948730469 0
vt 118.1100006103516 0 0

# 26 vertex normals
vn 4.812739985861738e-15 7.599069688931336e-15 -1
vn -4.812739985861738e-15 -7.599069688931336e-15 1
vn 1 6.3308401769185e-30 3.850189955810317e-15
vn 0 1 0
vn 0 -1 0
vn -1 -6.3308401769185e-30 -3.850189955810317e-15
vn -1 -8.814600190603001e-16 -6.431620271356731e-15
vn 1 8.814600190603001e-16 6.431620271356731e-15
vn 7.871220421972077e-16 0.9863939881324768 -0.1643989980220795
vn -7.871220421972077e-16 -0.9863939881324768 0.1643989980220795
vn -1.125579901365466e-14 -7.806459988594157e-16 1
vn 1.125579901365466e-14 7.806459988594157e-16 -1
vn -6.467120269209106e-15 -1.899769963331676e-15 1
vn 6.467120269209106e-15 1.899769963331676e-15 -1
vn -4.812739985861738e-15 1.603110102166253e-32 1
vn 4.812739985861738e-15 -1.603110102166253e-32 -1
vn 1 -9.654920029292416e-30 6.256569901378316e-15
vn -1 9.654920029292416e-30 -6.256569901378316e-15
vn 4.812739985861738e-15 -2.279720059646453e-14 -1
vn -4.812739985861738e-15 2.279720059646453e-14 1
vn 1.574239955108797e-15 0.9863939881324768 -0.1643989980220795
vn -1 4.380499919910815e-15 -6.096529802258194e-15
vn 1 -4.380499919910815e-15 6.096529802258194e-15
vn 7.207419759450195e-16 0.9920729994773865 -0.1256629973649979
vn -7.207419759450195e-16 -0.9920729994773865 0.1256629973649979
vn -1.574239955108797e-15 -0.9863939881324768 0.1643989980220795

# Mesh 'Mesh1 Start Model' with 2 faces
g Mesh1 Start Model
usemtl Red
f  1/1/1 2/2/1 3/3/1
f  1/1/1 3/3/1 4/4/1

# Mesh 'BackColor' with 2 faces
g BackColor
usemtl BackColor
f  4/5/2 3/6/2 2/7/2
f  4/5/2 2/7/2 1/8/2

# Mesh 'Red' with 4 faces
g Red
usemtl Red
f  5/9/3 6/10/3 7/11/3
f  5/9/3 7/11/3 4/12/3
f  5/9/3 4/12/3 3/13/3
f  3/13/3 8/14/3 5/9/3

# Mesh 'Green' with 2 faces
g Green
usemtl Green
f  9/15/4 10/16/4 7/17/4
f  9/15/4 7/17/4 6/18/4

# Mesh 'BackColor' with 6 faces
g BackColor
usemtl BackColor
f  6/19/5 7/20/5 10/21/5
f  6/19/5 10/21/5 9/22/5
f  6/23/6 5/24/6 8/25/6
f  6/23/6 8/25/6 3/26/6
f  6/23/6 3/26/6 4/27/6
f  4/27/6 7/28/6 6/23/6

# Mesh 'Red' with 2 faces
g Red
usemtl Red
f  5/18/4 8/17/4 11/29/4
f  5/18/4 11/29/4 12/30/4

# Mesh 'BackColor' with 2 faces
g BackColor
usemtl BackColor
f  12/31/5 11/32/5 8/20/5
f  12/31/5 8/20/5 5/19/5

# Mesh 'Red' with 3 faces
g Red
usemtl Red
f  1/33/7 13/34/7 12/35/7
f  1/33/7 12/35/7 11/36/7
f  11/36/7 2/37/7 1/33/7

# Mesh 'BackColor' with 3 faces
g BackColor
usemtl BackColor
f  13/38/8 1/39/8 2/40/8
f  13/38/8 2/40/8 11/41/8
f  11/41/8 12/42/8 13/38/8

# Mesh 'Red' with 2 faces
g Red
usemtl Red
f  8/43/9 3/44/9 2/45/9
f  8/43/9 2/45/9 11/46/9

# Mesh 'BackColor' with 2 faces
g BackColor
usemtl BackColor
f  11/47/10 2/48/10 3/49/10
f  11/47/10 3/49/10 8/50/10

# Mesh 'Red' with 9 faces
g Red
usemtl Red
f  12/51/11 13/52/11 14/53/11
f  12/51/11 14/53/11 6/54/11
f  6/54/11 5/55/11 12/51/11
f  4/56/5 15/57/5 16/58/5
f  4/56/5 16/58/5 17/59/5
f  4/56/5 17/59/5 18/60/5
f  4/56/5 18/60/5 14/61/5
f  4/56/5 14/61/5 13/30/5
f  13/30/5 1/62/5 4/56/5

# Mesh 'BackColor' with 9 faces
g BackColor
usemtl BackColor
f  15/63/4 4/64/4 1/65/4
f  15/63/4 1/65/4 13/31/4
f  15/63/4 13/31/4 14/66/4
f  15/63/4 14/66/4 18/67/4
f  15/63/4 18/67/4 17/68/4
f  17/68/4 16/69/4 15/63/4
f  13/70/12 12/71/12 5/72/12
f  13/70/12 5/72/12 6/73/12
f  6/73/12 14/74/12 13/70/12

# Mesh 'Green' with 2 faces
g Green
usemtl Green
f  14/75/13 18/76/13 9/77/13
f  14/75/13 9/77/13 6/54/13

# Mesh 'BackColor' with 2 faces
g BackColor
usemtl BackColor
f  6/73/14 9/78/14 18/79/14
f  6/73/14 18/79/14 14/80/14

# Mesh 'Red' with 3 faces
g Red
usemtl Red
f  19/81/15 20/82/15 9/77/15
f  19/81/15 9/77/15 18/83/15
f  18/83/15 17/84/15 19/81/15

# Mesh 'BackColor' with 3 faces
g BackColor
usemtl BackColor
f  20/85/16 19/86/16 17/87/16
f  20/85/16 17/87/16 18/88/16
f  18/88/16 9/78/16 20/85/16

# Mesh 'Red' with 3 faces
g Red
usemtl Red
f  21/13/17 22/14/17 19/89/17
f  21/13/17 19/89/17 17/90/17
f  17/90/17 16/91/17 21/13/17

# Mesh 'BackColor' with 3 faces
g BackColor
usemtl BackColor
f  22/25/18 21/26/18 16/92/18
f  22/25/18 16/92/18 17/93/18
f  17/93/18 19/94/18 22/25/18

# Mesh 'Red' with 2 faces
g Red
usemtl Red
f  23/95/19 21/37/19 16/96/19
f  23/95/19 16/96/19 15/97/19

# Mesh 'BackColor' with 2 faces
g BackColor
usemtl BackColor
f  15/98/20 16/99/20 21/40/20
f  15/98/20 21/40/20 23/100/20

# Mesh 'Red' with 6 faces
g Red
usemtl Red
f  23/101/21 24/102/21 22/103/21
f  23/101/21 22/103/21 21/104/21
f  9/105/22 20/106/22 24/36/22
f  9/105/22 24/36/22 23/37/22
f  9/105/22 23/37/22 15/107/22
f  15/107/22 10/108/22 9/105/22

# Mesh 'BackColor' with 4 faces
g BackColor
usemtl BackColor
f  20/109/23 9/110/23 10/111/23
f  20/109/23 10/111/23 15/112/23
f  20/109/23 15/112/23 23/40/23
f  23/40/23 24/41/23 20/109/23

# Mesh 'Green' with 2 faces
g Green
usemtl Green
f  10/113/24 15/114/24 4/115/24
f  10/113/24 4/115/24 7/116/24

# Mesh 'BackColor' with 4 faces
g BackColor
usemtl BackColor
f  7/117/25 4/118/25 15/119/25
f  7/117/25 15/119/25 10/120/25
f  21/121/26 22/122/26 24/123/26
f  21/121/26 24/123/26 23/124/26

# Mesh 'Red' with 2 faces
g Red
usemtl Red
f  19/84/4 22/125/4 24/16/4
f  19/84/4 24/16/4 20/15/4

# Mesh 'BackColor' with 2 faces
g BackColor
usemtl BackColor
f  20/22/5 24/21/5 22/126/5
f  20/22/5 22/126/5 19/127/5

