# File produced by Open Asset Import Library (http://www.assimp.sf.net)
# (assimp v4.1.908865877)

mtllib Start_01.mtl

# 24 vertex positions
v  0.300000011920929 0.4399999976158142 -1.732589969389263e-14
v  0.300000011920929 0.1899999976158142 -1.732589969389263e-14
v  0.300000011920929 0.1899999976158142 -1.5
v  0.300000011920929 0 -3
v  0.300000011920929 0.1899999976158142 -3
v  0.300000011920929 0.4399999976158142 -1.5
v  5.775290015913159e-15 0.4399999976158142 -1.5
v  0 0.4399999976158142 -2.021349938558653e-14
v  3 0.4399999976158142 0
v  3 0.4399999976158142 -1.5
v  2.700000047683716 0.4399999976158142 -1.5
v  2.700000047683716 0.4399999976158142 -2.887650090154263e-15
v  1.732589969389263e-14 0 -3
v  0 0 -2.021349938558653e-14
v  1.732589969389263e-14 0.1899999976158142 -3
v  0.300000011920929 0 -1.732589969389263e-14
v  2.700000047683716 0 -3
v  3 0 -3
v  3 0 0
v  2.700000047683716 0 -2.887650090154263e-15
v  2.700000047683716 0.1899999976158142 -3
v  3 0.1899999976158142 -3
v  2.700000047683716 0.1899999976158142 -2.887650090154263e-15
v  2.700000047683716 0.1899999976158142 -1.5

# 125 UV coordinates
vt 6.160309689120548e-15 0.1466670036315918 0
vt 6.160309689120548e-15 0.06333330273628235 0
vt 0.5 0.06333330273628235 0
vt 1 -6.3308401769185e-31 0
vt 1 0.06333330273628235 0
vt 0.5 0.1466670036315918 0
vt 0.1000000014901161 5.775290015913159e-15 0
vt 0.1000000014901161 0.5 0
vt 1.925100060102842e-15 0.5 0
vt 0 6.73784004596458e-15 0
vt 1 0 0
vt 1 0.5 0
vt 0.8999999761581421 0.5 0
vt 0.8999999761581421 9.625490771393553e-16 0
vt -1 5.785280083165147e-31 0
vt -6.73784004596458e-15 3.783505853677006e-44 0
vt -6.73784004596458e-15 0.1466670036315918 0
vt -0.5 0.1466670036315918 0
vt -1 0.06333330273628235 0
vt -0.1000000014901161 -0.4690850079059601 0
vt -0.1000000014901161 -0.9759820103645325 0
vt -9.874140469433605e-16 -0.9759820103645325 0
vt 4.68840994876491e-16 -0.4690850079059601 0
vt -7.583949805426147e-29 0.1466670036315918 0
vt -7.583949805426147e-29 -5.259870031454946e-30 0
vt 0.1000000014901161 -5.387129614112255e-30 0
vt 0.1000000014901161 0.06333330273628235 0
vt 0.1000000014901161 0.1466670036315918 0
vt -0.1000000014901161 1 0
vt -0.8999999761581421 1 0
vt -1 1 0
vt -1 0 0
vt -0.8999999761581421 9.625490771393553e-16 0
vt -0.1000000014901161 5.775290015913159e-15 0
vt -5.775290015913159e-15 1 0
vt -0.8999999761581421 -0.9759820103645325 0
vt -0.8999999761581421 -0.4690850079059601 0
vt -1 -0.4690850079059601 0
vt -1 -0.9759820103645325 0
vt -6.449419821710333e-15 0.06333330273628235 0
vt -6.449419821710333e-15 0.1466670036315918 0
vt -1 3.942450054974676e-15 0
vt -0.5 0.06333330273628235 0
vt 1 0.1466670036315918 0
vt 0.8999999761581421 0.1466670036315918 0
vt 0.8999999761581421 0.06333330273628235 0
vt 0.8999999761581421 0 0
vt -0.8999999761581421 0.06333330273628235 0
vt -1 2.279720059646453e-14 0
vt -0.8999999761581421 2.279720059646453e-14 0
vt 6.256569901378316e-15 0.1466670036315918 0
vt 6.256569901378316e-15 9.654920029292416e-30 0
vt 1 9.654920029292416e-30 0
vt -9.625490771393553e-16 -7.599069688931336e-15 0
vt -9.625490771393553e-16 0.06333330273628235 0
vt -0.1000000014901161 0.06333330273628235 0
vt -0.1000000014901161 -7.599069688931336e-15 0
vt 106.2990036010742 1.136870003519419e-13 0
vt 106.2990036010742 59.05509948730469 0
vt 118.1100006103516 59.05509948730469 0
vt 118.1100006103516 0 0
vt 106.2990036010742 17.32279968261719 0
vt 118.1100006103516 17.32279968261719 0
vt 118.1100006103516 1.261168617892335e-44 0
vt 106.2990036010742 9.809089250273719e-45 0
vt 106.2990036010742 7.480309963226318 0
vt 11.81099987030029 7.480309963226318 0
vt 11.81099987030029 -1.440980014018552e-27 0
vt -8.957420823031325e-27 -6.212439962283338e-28 0
vt 11.81099987030029 17.32279968261719 0
vt -8.957420823031325e-27 17.32279968261719 0
vt 59.05509948730469 17.32279968261719 0
vt 118.1100006103516 7.480309963226318 0
vt 118.1100006103516 1.140350053419482e-27 0
vt 7.389639572995266e-13 1.140350053419482e-27 0
vt 7.389639572995266e-13 17.32279968261719 0
vt 11.81099987030029 6.821209721195876e-13 0
vt 11.81099987030029 59.05509948730469 0
vt 7.275959891007988e-13 7.480309963226318 0
vt 7.275959891007988e-13 17.32279968261719 0
vt 118.1100006103516 -7.477370046009973e-29 0
vt 59.05509948730469 7.480309963226318 0
vt -106.2990036010742 118.1100006103516 0
vt -11.81099987030029 118.1100006103516 0
vt -6.821209721195876e-13 118.1100006103516 0
vt 0 7.958079724715295e-13 0
vt -11.81099987030029 6.821209721195876e-13 0
vt -106.2990036010742 1.136870003519419e-13 0
vt -118.1100006103516 0 0
vt -118.1100006103516 118.1100006103516 0
vt -106.2990036010742 2.692579883015189e-12 0
vt -118.1100006103516 2.692579883015189e-12 0
vt -118.1100006103516 7.480309963226318 0
vt -106.2990036010742 7.480309963226318 0
vt 5.537499915531617e-14 -55.40380096435547 0
vt -1.166239956169879e-13 -115.2730026245117 0
vt -11.81099987030029 -115.2730026245117 0
vt -11.81099987030029 -55.40380096435547 0
vt -7.617429365232298e-13 17.32279968261719 0
vt -7.617429365232298e-13 7.480309963226318 0
vt -59.05509948730469 7.480309963226318 0
vt -118.1100006103516 4.656439621907038e-13 0
vt -59.05509948730469 17.32279968261719 0
vt -7.958079724715295e-13 4.513582353590236e-42 0
vt -118.1100006103516 6.83301046081012e-29 0
vt -7.958079724715295e-13 17.32279968261719 0
vt -11.81099987030029 -57.64699935913086 0
vt -11.81099987030029 -117.1740036010742 0
vt -106.2990036010742 -117.1740036010742 0
vt -106.2990036010742 -57.64699935913086 0
vt -118.1100006103516 -115.2730026245117 0
vt -118.1100006103516 -55.40380096435547 0
vt -106.2990036010742 -55.40380096435547 0
vt -106.2990036010742 -115.2730026245117 0
vt 2.273740007038838e-13 59.05509948730469 0
vt -11.81099987030029 -8.975279829244454e-13 0
vt -11.81099987030029 7.480309963226318 0
vt -1.136870003519419e-13 7.480309963226318 0
vt -1.136870003519419e-13 -8.975279829244454e-13 0
vt -0.8999999761581421 -0.4880779981613159 0
vt -0.8999999761581421 -0.9920729994773865 0
vt -0.1000000014901161 -0.9920729994773865 0
vt -0.1000000014901161 -0.4880779981613159 0
vt 0.1000000014901161 -1.220029976153473e-29 0
vt 0.8999999761581421 -1.288600003484397e-29 0

# 26 vertex normals
vn 1 6.3308401769185e-30 3.850189955810317e-15
vn 0 1 0
vn -1 -8.814600190603001e-16 -6.431620271356731e-15
vn 7.871220421972077e-16 0.9863939881324768 -0.1643989980220795
vn -1.125579901365466e-14 -7.806459988594157e-16 1
vn 0 -1 0
vn 1.574239955108797e-15 0.9863939881324768 -0.1643989980220795
vn -1 4.380499919910815e-15 -6.096529802258194e-15
vn -4.812739985861738e-15 1.603110102166253e-32 1
vn 4.812739985861738e-15 -2.279720059646453e-14 -1
vn 1 -9.654920029292416e-30 6.256569901378316e-15
vn 4.812739985861738e-15 7.599069688931336e-15 -1
vn 4.812739985861738e-15 -1.603110102166253e-32 -1
vn 6.467120269209106e-15 1.899769963331676e-15 -1
vn 1.125579901365466e-14 7.806459988594157e-16 -1
vn -1 9.654920029292416e-30 -6.256569901378316e-15
vn -1 -6.3308401769185e-30 -3.850189955810317e-15
vn -4.812739985861738e-15 2.279720059646453e-14 1
vn -7.871220421972077e-16 -0.9863939881324768 0.1643989980220795
vn 1 -4.380499919910815e-15 6.096529802258194e-15
vn 1 8.814600190603001e-16 6.431620271356731e-15
vn -7.207419759450195e-16 -0.9920729994773865 0.1256629973649979
vn -1.574239955108797e-15 -0.9863939881324768 0.1643989980220795
vn -4.812739985861738e-15 -7.599069688931336e-15 1
vn 7.207419759450195e-16 0.9920729994773865 -0.1256629973649979
vn -6.467120269209106e-15 -1.899769963331676e-15 1

# Mesh 'Red.Red.Red.Red.Red.Red.Red.Red.Red.Red.Mesh1 Start Model' with 38 faces
g Red.Red.Red.Red.Red.Red.Red.Red.Red.Red.Mesh1 Start Model
usemtl Red
f  1/1/1 2/2/1 3/3/1
f  1/1/1 3/3/1 4/4/1
f  1/1/1 4/4/1 5/5/1
f  5/5/1 6/6/1 1/1/1
f  1/7/2 6/8/2 7/9/2
f  1/7/2 7/9/2 8/10/2
f  9/11/2 10/12/2 11/13/2
f  9/11/2 11/13/2 12/14/2
f  13/15/3 14/16/3 8/17/3
f  13/15/3 8/17/3 7/18/3
f  7/18/3 15/19/3 13/15/3
f  6/20/4 5/21/4 15/22/4
f  6/20/4 15/22/4 7/23/4
f  8/24/5 14/25/5 16/26/5
f  8/24/5 16/26/5 2/27/5
f  2/27/5 1/28/5 8/24/5
f  4/29/6 17/30/6 18/31/6
f  4/29/6 18/31/6 19/32/6
f  4/29/6 19/32/6 20/33/6
f  4/29/6 20/33/6 16/34/6
f  4/29/6 16/34/6 14/10/6
f  14/10/6 13/35/6 4/29/6
f  21/36/7 11/37/7 10/38/7
f  21/36/7 10/38/7 22/39/7
f  23/40/8 12/41/8 11/18/8
f  23/40/8 11/18/8 21/19/8
f  23/40/8 21/19/8 17/42/8
f  17/42/8 24/43/8 23/40/8
f  9/44/9 12/45/9 23/46/9
f  9/44/9 23/46/9 20/47/9
f  20/47/9 19/11/9 9/44/9
f  21/48/10 22/19/10 18/49/10
f  21/48/10 18/49/10 17/50/10
f  22/5/11 10/6/11 9/51/11
f  22/5/11 9/51/11 19/52/11
f  19/52/11 18/53/11 22/5/11
f  13/54/12 15/55/12 5/56/12
f  13/54/12 5/56/12 4/57/12

# Mesh 'BackColor.BackColor.BackColor.BackColor.BackColor.BackColor.BackColor.BackColor.BackColor.BackColor.BackColor.BackColor.BackColor' with 44 faces
g BackColor.BackColor.BackColor.BackColor.BackColor.BackColor.BackColor.BackColor.BackColor.BackColor.BackColor.BackColor.BackColor
usemtl BackColor
f  12/58/6 11/59/6 10/60/6
f  12/58/6 10/60/6 9/61/6
f  12/62/13 9/63/13 19/64/13
f  12/62/13 19/64/13 20/65/13
f  20/65/13 23/66/13 12/62/13
f  2/67/14 23/66/13 20/65/13
f  2/67/14 20/65/13 16/68/14
f  14/69/15 1/70/15 2/67/14
f  2/67/14 16/68/14 14/69/15
f  14/69/15 8/71/15 1/70/15
f  10/72/16 22/73/16 18/74/16
f  10/72/16 18/74/16 19/75/16
f  19/75/16 9/76/16 10/72/16
f  2/77/6 3/78/6 24/59/6
f  2/77/6 24/59/6 23/58/6
f  2/79/17 1/80/17 6/72/17
f  2/79/17 6/72/17 5/73/17
f  2/79/17 5/73/17 4/81/17
f  4/81/17 3/82/17 2/79/17
f  17/83/2 4/84/2 13/85/2
f  17/83/2 13/85/2 14/86/2
f  17/83/2 14/86/2 16/87/2
f  17/83/2 16/87/2 20/88/2
f  17/83/2 20/88/2 19/89/2
f  19/89/2 18/90/2 17/83/2
f  17/91/18 18/92/18 22/93/18
f  17/91/18 22/93/18 21/94/18
f  7/95/19 15/96/19 5/97/19
f  7/95/19 5/97/19 6/98/19
f  12/99/20 23/100/20 24/101/20
f  12/99/20 24/101/20 17/102/20
f  12/99/20 17/102/20 21/93/20
f  21/93/20 11/103/20 12/99/20
f  14/104/21 13/105/21 15/93/21
f  14/104/21 15/93/21 7/103/21
f  7/103/21 8/106/21 14/104/21
f  3/107/22 4/108/22 17/109/22
f  3/107/22 17/109/22 24/110/22
f  22/111/23 10/112/23 11/113/23
f  22/111/23 11/113/23 21/114/23
f  8/86/6 7/115/6 6/78/6
f  8/86/6 6/78/6 1/77/6
f  4/116/24 5/117/24 15/118/24
f  4/116/24 15/118/24 13/119/24

# Mesh 'Green.Green.Green' with 6 faces
g Green.Green.Green
usemtl Green
f  23/14/2 24/13/2 3/8/2
f  23/14/2 3/8/2 2/7/2
f  24/120/25 17/121/25 4/122/25
f  24/120/25 4/122/25 3/123/25
f  16/124/26 20/125/26 23/46/26
f  16/124/26 23/46/26 2/27/26

