# Blender v2.78 (sub 0) OBJ File: ''
# www.blender.org
mtllib Straight_01.mtl
o Mesh1_Straight_Model
v 0.300000 0.440000 -3.000000
v 0.300000 0.190000 -3.000000
v 0.300000 0.000000 -3.000000
v 0.000000 0.000000 -3.000000
v 0.000000 0.440000 -3.000000
v 0.000000 0.000000 -0.000000
v 0.000000 0.440000 0.000000
v 0.300000 0.440000 0.000000
v 0.300000 0.000000 -0.000000
v 0.300000 0.190000 0.000000
v 2.700000 0.000000 -3.000000
v 3.000000 0.000000 -3.000000
v 3.000000 0.000000 0.000000
v 2.700000 0.000000 -0.000000
v 2.700000 0.190000 -3.000000
v 2.700000 0.190000 0.000000
v 2.700000 0.440000 0.000000
v 3.000000 0.440000 0.000000
v 3.000000 0.440000 -3.000000
v 2.700000 0.440000 -3.000000
vt -0.1000 0.1467
vt -0.1000 0.0633
vt -0.1000 0.0000
vt -0.0000 0.0000
vt -0.0000 0.1467
vt -0.0000 0.0000
vt -0.0000 0.1467
vt -1.0000 0.1467
vt -1.0000 0.0000
vt 0.1000 1.0000
vt 0.0000 1.0000
vt 0.0000 0.0000
vt 0.1000 0.0000
vt 0.1000 -0.0000
vt 0.1000 0.0633
vt 0.1000 0.1467
vt -0.9000 1.0000
vt -1.0000 1.0000
vt -1.0000 0.0000
vt -0.9000 0.0000
vt -0.1000 0.0000
vt -0.0000 1.0000
vt -0.1000 1.0000
vt 0.0000 0.0633
vt 1.0000 0.0633
vt 1.0000 0.1467
vt 0.0000 0.1467
vt 0.9000 0.1467
vt 0.9000 0.0633
vt 0.9000 0.0000
vt 1.0000 0.0000
vt 1.0000 0.1467
vt 1.0000 0.1467
vt 0.0000 0.1467
vt 0.0000 0.0000
vt 1.0000 0.0000
vt 1.0000 1.0000
vt 0.9000 1.0000
vt 0.9000 0.0000
vt 1.0000 0.0000
vt -1.0000 0.0633
vt -0.0000 0.0633
vt -0.0000 0.1467
vt -1.0000 0.1467
vt -1.0000 0.0000
vt -0.9000 0.0000
vt -0.9000 0.0633
vt -0.9000 0.1467
vt -1.0000 0.1467
vt 0.9000 1.0000
vt 0.1000 1.0000
vt 0.1000 0.0000
vt 0.9000 0.0000
vn 0.0000 0.0000 -1.0000
vn -1.0000 0.0000 -0.0000
vn 0.0000 1.0000 0.0000
vn -0.0000 -0.0000 1.0000
vn 0.0000 -1.0000 -0.0000
vn 1.0000 0.0000 0.0000
usemtl Red.048
s 1
f 1/1/1 2/2/1 3/3/1 4/4/1 5/5/1
f 6/6/2 7/7/2 5/8/2 4/9/2
f 1/10/3 5/11/3 7/12/3 8/13/3
f 6/6/4 9/14/4 10/15/4 8/16/4 7/7/4
f 11/17/5 12/18/5 13/19/5 14/20/5 9/21/5 6/6/5 4/22/5 3/23/5
f 10/24/6 2/25/6 1/26/6 8/27/6
f 17/28/4 16/29/4 14/30/4 13/31/4 18/32/4
f 19/33/6 18/34/6 13/35/6 12/36/6
f 19/37/3 20/38/3 17/39/3 18/40/3
f 15/41/2 16/42/2 17/43/2 20/44/2
f 12/45/1 11/46/1 15/47/1 20/48/1 19/49/1
usemtl Green.047
f 15/50/3 2/51/3 10/52/3 16/53/3
f 9/14/4 14/30/4 16/29/4 10/15/4
f 11/46/1 3/3/1 2/2/1 15/47/1
