# Blender v2.78 (sub 0) OBJ File: ''
# www.blender.org
mtllib T_split_01.mtl
o Mesh1_T_split_Model
v 0.300000 0.440000 -3.000000
v 0.300000 0.190000 -3.000000
v 0.300000 0.000000 -3.000000
v 0.000000 0.000000 -3.000000
v 0.000000 0.440000 -3.000000
v 0.000000 0.000000 -0.000000
v 0.000000 0.440000 0.000000
v 0.300000 0.440000 0.000000
v 0.300000 0.000000 -0.000000
v 0.300000 0.190000 0.000000
v 2.700000 0.000000 -3.000000
v 3.000000 0.000000 -3.000000
v 3.000000 0.000000 -2.700000
v 3.000000 0.000000 -0.300000
v 3.000000 -0.000000 0.000000
v 2.700000 0.000000 -0.000000
v 3.000000 0.190000 -0.300000
v 3.000000 0.190000 -2.700000
v 2.960840 0.190000 -2.702570
v 2.922350 0.190000 -2.710220
v 2.885190 0.190000 -2.722840
v 2.850000 0.190000 -2.740190
v 2.817370 0.190000 -2.761990
v 2.787870 0.190000 -2.787870
v 2.761990 0.190000 -2.817370
v 2.740190 0.190000 -2.850000
v 2.722840 0.190000 -2.885190
v 2.710220 0.190000 -2.922350
v 2.702570 0.190000 -2.960840
v 2.700000 0.190000 -3.000000
v 2.700000 0.190000 0.000000
v 2.702570 0.190000 -0.039158
v 2.710220 0.190000 -0.077646
v 2.722840 0.190000 -0.114805
v 2.740190 0.190000 -0.150000
v 2.761990 0.190000 -0.182628
v 2.787870 0.190000 -0.212132
v 2.817370 0.190000 -0.238006
v 2.850000 0.190000 -0.259808
v 2.885190 0.190000 -0.277164
v 2.922350 0.190000 -0.289778
v 2.960840 0.190000 -0.297433
v 2.922350 0.440000 -0.289778
v 2.960840 0.440000 -0.297433
v 3.000000 0.440000 0.000000
v 3.000000 0.440000 -0.300000
v 2.885190 0.440000 -0.277164
v 2.850000 0.440000 -0.259808
v 2.817370 0.440000 -0.238006
v 2.787870 0.440000 -0.212132
v 2.761990 0.440000 -0.182628
v 2.740190 0.440000 -0.150000
v 2.722840 0.440000 -0.114805
v 2.710220 0.440000 -0.077646
v 2.702570 0.440000 -0.039158
v 2.700000 0.440000 0.000000
v 3.000000 0.440000 -3.000000
v 3.000000 0.440000 -2.700000
v 2.960840 0.440000 -2.702570
v 2.700000 0.440000 -3.000000
v 2.702570 0.440000 -2.960840
v 2.710220 0.440000 -2.922350
v 2.722840 0.440000 -2.885190
v 2.740190 0.440000 -2.850000
v 2.761990 0.440000 -2.817370
v 2.787870 0.440000 -2.787870
v 2.817370 0.440000 -2.761990
v 2.850000 0.440000 -2.740190
v 2.885190 0.440000 -2.722840
v 2.922350 0.440000 -2.710220
vt -0.1000 0.1467
vt -0.1000 0.0633
vt -0.1000 0.0000
vt -0.0000 0.0000
vt -0.0000 0.1467
vt -0.0000 0.0000
vt -0.0000 0.1467
vt -1.0000 0.1467
vt -1.0000 0.0000
vt 0.1000 1.0000
vt 0.0000 1.0000
vt 0.0000 0.0000
vt 0.1000 0.0000
vt 0.1000 -0.0000
vt 0.1000 0.0633
vt 0.1000 0.1467
vt -0.9000 1.0000
vt -1.0000 1.0000
vt -1.0000 0.9000
vt -1.0000 0.1000
vt -1.0000 -0.0000
vt -0.9000 0.0000
vt -0.1000 0.0000
vt -0.0000 1.0000
vt -0.1000 1.0000
vt 0.0000 0.0633
vt 1.0000 0.0633
vt 1.0000 0.1467
vt 0.0000 0.1467
vt -0.9742 0.1467
vt -0.9873 0.1467
vt -0.9873 0.0633
vt -0.9742 0.0633
vt 1.0000 0.0000
vt 1.0000 0.1000
vt 0.9869 0.0991
vt 0.9741 0.0966
vt 0.9617 0.0924
vt 0.9500 0.0866
vt 0.9391 0.0793
vt 0.9293 0.0707
vt 0.9207 0.0609
vt 0.9134 0.0500
vt 0.9076 0.0383
vt 0.9034 0.0259
vt 0.9009 0.0131
vt 0.9000 0.0000
vt -0.0589 0.1467
vt -0.0719 0.1467
vt -0.0719 0.0633
vt -0.0589 0.0633
vt -0.1885 0.1467
vt -0.2016 0.1467
vt -0.2016 0.0633
vt -0.1885 0.0633
vt -0.3149 0.1467
vt -0.3280 0.1467
vt -0.3280 0.0633
vt -0.3149 0.0633
vt -0.4357 0.1467
vt -0.4488 0.1467
vt -0.4488 0.0633
vt -0.4357 0.0633
vt -0.5490 0.1467
vt -0.5621 0.1467
vt -0.5621 0.0633
vt -0.5490 0.0633
vt -0.6528 0.1467
vt -0.6659 0.1467
vt -0.6659 0.0633
vt -0.6528 0.0633
vt -0.7453 0.1467
vt -0.7584 0.1467
vt -0.7584 0.0633
vt -0.7453 0.0633
vt -0.8249 0.1467
vt -0.8380 0.1467
vt -0.8380 0.0633
vt -0.8249 0.0633
vt -0.8903 0.1467
vt -0.9034 0.1467
vt -0.9034 0.0633
vt -0.8903 0.0633
vt -0.9404 0.1467
vt -0.9535 0.1467
vt -0.9535 0.0633
vt -0.9404 0.0633
vt -0.9913 0.1467
vt -1.0044 0.1467
vt -1.0044 0.0633
vt -0.9913 0.0633
vt 0.1000 0.0000
vt 0.1000 0.0633
vt 0.1000 0.1467
vt 0.0000 0.1467
vt 0.0000 0.0000
vt 1.0000 0.0000
vt 1.0000 0.1467
vt 0.9000 0.1467
vt 0.9000 0.0633
vt 0.9000 0.0000
vt 1.0000 0.0000
vt 1.0000 0.1467
vt 0.9000 0.1467
vt 0.9000 0.0633
vt 0.9000 0.0000
vt 0.9390 0.1467
vt 0.9259 0.1467
vt 0.9259 0.0633
vt 0.9390 0.0633
vt 1.0000 1.0000
vt 0.9000 1.0000
vt 0.9009 0.9869
vt 0.9034 0.9741
vt 0.9076 0.9617
vt 0.9134 0.9500
vt 0.9207 0.9391
vt 0.9293 0.9293
vt 0.9391 0.9207
vt 0.9500 0.9134
vt 0.9617 0.9076
vt 0.9741 0.9034
vt 0.9869 0.9009
vt 1.0000 0.9000
vt 0.7922 0.1467
vt 0.7792 0.1467
vt 0.7792 0.0633
vt 0.7922 0.0633
vt 0.6320 0.1467
vt 0.6190 0.1467
vt 0.6190 0.0633
vt 0.6320 0.0633
vt 0.4611 0.1467
vt 0.4480 0.1467
vt 0.4480 0.0633
vt 0.4611 0.0633
vt 0.2824 0.1467
vt 0.2694 0.1467
vt 0.2694 0.0633
vt 0.2824 0.0633
vt 0.0990 0.1467
vt 0.0860 0.1467
vt 0.0860 0.0633
vt 0.0990 0.0633
vt -0.0860 0.1467
vt -0.0990 0.1467
vt -0.0990 0.0633
vt -0.0860 0.0633
vt -0.2694 0.1467
vt -0.2824 0.1467
vt -0.2824 0.0633
vt -0.2694 0.0633
vt -0.4480 0.1467
vt -0.4611 0.1467
vt -0.4611 0.0633
vt -0.4480 0.0633
vt -0.6190 0.1467
vt -0.6320 0.1467
vt -0.6320 0.0633
vt -0.6190 0.0633
vt -0.7792 0.1467
vt -0.7922 0.1467
vt -0.7922 0.0633
vt -0.7792 0.0633
vt -0.9259 0.1467
vt -0.9390 0.1467
vt -0.9390 0.0633
vt -0.9259 0.0633
vt -0.9000 0.0000
vt -0.9000 0.0633
vt -0.9000 0.1467
vt -1.0000 0.1467
vt -1.0000 0.0000
vt 1.0000 0.1000
vt 1.0000 0.9000
vt 0.9869 0.9009
vt 0.9741 0.9034
vt 0.9617 0.9076
vt 0.9500 0.9134
vt 0.9391 0.9207
vt 0.9293 0.9293
vt 0.9207 0.9391
vt 0.9134 0.9500
vt 0.9076 0.9617
vt 0.9034 0.9741
vt 0.9009 0.9869
vt 0.9000 1.0000
vt 0.1000 1.0000
vt 0.1000 0.0000
vt 0.9000 0.0000
vt 0.9009 0.0131
vt 0.9034 0.0259
vt 0.9076 0.0383
vt 0.9134 0.0500
vt 0.9207 0.0609
vt 0.9293 0.0707
vt 0.9391 0.0793
vt 0.9500 0.0866
vt 0.9617 0.0924
vt 0.9741 0.0966
vt 0.9869 0.0991
vn 0.0000 0.0000 -1.0000
vn -1.0000 0.0000 -0.0000
vn 0.0000 1.0000 0.0000
vn -0.0000 -0.0000 1.0000
vn 0.0000 -1.0000 -0.0000
vn 1.0000 0.0000 0.0000
vn -0.2588 0.0000 -0.9659
vn -0.1305 0.0000 -0.9914
vn -0.9979 0.0000 -0.0655
vn -0.9914 0.0000 -0.1305
vn -0.9659 0.0000 -0.2588
vn -0.9239 0.0000 -0.3827
vn -0.8661 0.0000 -0.4999
vn -0.7933 0.0000 -0.6088
vn -0.7071 0.0000 -0.7071
vn -0.6088 0.0000 -0.7933
vn -0.5000 0.0000 -0.8660
vn -0.3827 0.0000 -0.9239
vn -0.0654 0.0000 -0.9979
vn -0.0655 0.0000 0.9979
vn -0.1305 0.0000 0.9914
vn -0.2588 0.0000 0.9659
vn -0.3827 0.0000 0.9239
vn -0.4999 0.0000 0.8661
vn -0.6088 0.0000 0.7933
vn -0.7071 0.0000 0.7071
vn -0.7933 0.0000 0.6088
vn -0.8661 0.0000 0.4999
vn -0.9239 0.0000 0.3827
vn -0.9659 0.0000 0.2588
vn -0.9914 0.0000 0.1305
vn -0.9979 0.0000 0.0655
usemtl Red.013
s 1
f 1/1/1 2/2/1 3/3/1 4/4/1 5/5/1
f 6/6/2 7/7/2 5/8/2 4/9/2
f 1/10/3 5/11/3 7/12/3 8/13/3
f 6/6/4 9/14/4 10/15/4 8/16/4 7/7/4
f 11/17/5 12/18/5 13/19/5 14/20/5 15/21/5 16/22/5 9/23/5 6/6/5 4/24/5 3/25/5
f 10/26/6 2/27/6 1/28/6 8/29/6
f 43/30/7 44/31/8 42/32/8 41/33/7
f 45/34/3 46/35/3 44/36/3 43/37/3 47/38/3 48/39/3 49/40/3 50/41/3 51/42/3 52/43/3 53/44/3 54/45/3 55/46/3 56/47/3
f 56/48/9 55/49/10 32/50/10 31/51/9
f 55/52/10 54/53/11 33/54/11 32/55/10
f 54/56/11 53/57/12 34/58/12 33/59/11
f 53/60/12 52/61/13 35/62/13 34/63/12
f 52/64/13 51/65/14 36/66/14 35/67/13
f 51/68/14 50/69/15 37/70/15 36/71/14
f 50/72/15 49/73/16 38/74/16 37/75/15
f 49/76/16 48/77/17 39/78/17 38/79/16
f 48/80/17 47/81/18 40/82/18 39/83/17
f 47/84/18 43/85/7 41/86/7 40/87/18
f 44/88/8 46/89/19 17/90/19 42/91/8
f 14/92/6 17/93/6 46/94/6 45/95/6 15/96/6
f 15/97/4 45/98/4 56/99/4 31/100/4 16/101/4
f 12/102/6 57/103/6 58/104/6 18/105/6 13/106/6
f 58/107/20 59/108/21 19/109/21 18/110/20
f 57/111/3 60/112/3 61/113/3 62/114/3 63/115/3 64/116/3 65/117/3 66/118/3 67/119/3 68/120/3 69/121/3 70/122/3 59/123/3 58/124/3
f 59/125/21 70/126/22 20/127/22 19/128/21
f 70/129/22 69/130/23 21/131/23 20/132/22
f 69/133/23 68/134/24 22/135/24 21/136/23
f 68/137/24 67/138/25 23/139/25 22/140/24
f 67/141/25 66/142/26 24/143/26 23/144/25
f 66/145/26 65/146/27 25/147/27 24/148/26
f 65/149/27 64/150/28 26/151/28 25/152/27
f 64/153/28 63/154/29 27/155/29 26/156/28
f 63/157/29 62/158/30 28/159/30 27/160/29
f 62/161/30 61/162/31 29/163/31 28/164/30
f 61/165/31 60/166/32 30/167/32 29/168/31
f 11/169/1 30/170/1 60/171/1 57/172/1 12/173/1
usemtl Green.013
f 17/174/3 18/175/3 19/176/3 20/177/3 21/178/3 22/179/3 23/180/3 24/181/3 25/182/3 26/183/3 27/184/3 28/185/3 29/186/3 30/187/3 2/188/3 10/189/3 31/190/3 32/191/3 33/192/3 34/193/3 35/194/3 36/195/3 37/196/3 38/197/3 39/198/3 40/199/3 41/200/3 42/201/3
f 18/105/6 17/93/6 14/92/6 13/106/6
f 9/14/4 16/101/4 31/100/4 10/15/4
f 2/2/1 30/170/1 11/169/1 3/3/1
