# Blender v2.78 (sub 0) OBJ File: ''
# www.blender.org
mtllib Tunnel_double_01.mtl
o Mesh1_Tunnel_double_Model
v 0.300000 0.440000 -3.000000
v 0.300000 0.190000 -3.000000
v 0.300000 0.000000 -3.000000
v 0.000000 0.000000 -3.000000
v 0.000000 0.440000 -3.000000
v 0.000000 0.000000 -0.000000
v 0.000000 0.440000 0.000000
v 0.300000 0.440000 0.000000
v 0.300000 0.440000 -0.300000
v 0.300000 0.440000 -2.700000
v 0.300000 0.190000 -2.700000
v 0.300000 0.190000 -0.300000
v 0.300000 0.890000 -0.300000
v 0.300000 0.890000 -2.700000
v 2.700000 0.890000 -0.300000
v 2.700000 0.890000 -2.700000
v 2.700000 0.190000 -2.700000
v 2.400000 0.190000 -2.700000
v 2.400000 0.390000 -2.700000
v 2.389780 0.467646 -2.700000
v 2.359810 0.540000 -2.700000
v 2.312130 0.602132 -2.700000
v 2.250000 0.649808 -2.700000
v 2.177650 0.679778 -2.700000
v 2.100000 0.690000 -2.700000
v 2.022350 0.679778 -2.700000
v 1.950000 0.649808 -2.700000
v 1.887870 0.602132 -2.700000
v 1.840190 0.540000 -2.700000
v 1.810220 0.467646 -2.700000
v 1.800000 0.390000 -2.700000
v 1.800000 0.190000 -2.700000
v 1.200000 0.190000 -2.700000
v 1.200000 0.390000 -2.700000
v 1.189780 0.467646 -2.700000
v 1.159810 0.540000 -2.700000
v 1.112130 0.602132 -2.700000
v 1.050000 0.649808 -2.700000
v 0.977646 0.679778 -2.700000
v 0.900000 0.690000 -2.700000
v 0.822354 0.679778 -2.700000
v 0.750000 0.649808 -2.700000
v 0.687868 0.602132 -2.700000
v 0.640192 0.540000 -2.700000
v 0.610222 0.467646 -2.700000
v 0.600000 0.390000 -2.700000
v 0.600000 0.190000 -2.700000
v 2.700000 0.440000 -2.700000
v 2.400000 0.190000 -0.300000
v 2.700000 0.190000 -0.300000
v 0.600000 0.190000 -0.300000
v 0.600000 0.390000 -0.300000
v 0.610222 0.467646 -0.300000
v 0.640192 0.540000 -0.300000
v 0.687868 0.602132 -0.300000
v 0.750000 0.649808 -0.300000
v 0.822354 0.679778 -0.300000
v 0.900000 0.690000 -0.300000
v 0.977646 0.679778 -0.300000
v 1.050000 0.649808 -0.300000
v 1.112130 0.602132 -0.300000
v 1.159810 0.540000 -0.300000
v 1.189780 0.467646 -0.300000
v 1.200000 0.390000 -0.300000
v 1.200000 0.190000 -0.300000
v 1.800000 0.190000 -0.300000
v 1.800000 0.390000 -0.300000
v 1.810220 0.467646 -0.300000
v 1.840190 0.540000 -0.300000
v 1.887870 0.602132 -0.300000
v 1.950000 0.649808 -0.300000
v 2.022350 0.679778 -0.300000
v 2.100000 0.690000 -0.300000
v 2.177650 0.679778 -0.300000
v 2.250000 0.649808 -0.300000
v 2.312130 0.602132 -0.300000
v 2.359810 0.540000 -0.300000
v 2.389780 0.467646 -0.300000
v 2.400000 0.390000 -0.300000
v 2.700000 0.440000 -0.300000
v 3.000000 0.440000 -3.000000
v 2.700000 0.440000 -3.000000
v 2.700000 0.440000 0.000000
v 3.000000 0.440000 0.000000
v 2.700000 0.190000 0.000000
v 2.700000 0.000000 -0.000000
v 3.000000 0.000000 0.000000
v 3.000000 0.000000 -3.000000
v 2.700000 0.000000 -3.000000
v 0.300000 0.000000 -0.000000
v 0.300000 0.190000 0.000000
v 2.700000 0.190000 -3.000000
vt -0.1000 0.1467
vt -0.1000 0.0633
vt -0.1000 0.0000
vt -0.0000 0.0000
vt -0.0000 0.1467
vt -0.0000 0.0000
vt -0.0000 0.1467
vt -1.0000 0.1467
vt -1.0000 0.0000
vt 0.1000 1.0000
vt 0.0000 1.0000
vt 0.0000 0.0000
vt 0.1000 0.0000
vt 0.1000 0.1000
vt 0.1000 0.9000
vt -0.9000 0.0633
vt -0.1000 0.0633
vt -0.1000 0.1467
vt -0.9000 0.1467
vt 0.9000 0.9000
vt 0.8000 0.9000
vt 0.8000 0.1000
vt 0.9000 0.1000
vt 0.9000 0.1467
vt 0.1000 0.1467
vt 0.1000 0.0633
vt 0.9000 0.0633
vt 1.0000 1.0000
vt 0.9000 1.0000
vt 0.9000 0.9000
vt 0.9000 0.1000
vt 0.9000 0.0000
vt 1.0000 0.0000
vt 0.9000 0.1467
vt 0.9000 0.0633
vt 0.9000 0.0000
vt 1.0000 0.0000
vt 1.0000 0.1467
vt 1.0000 0.1467
vt 0.0000 0.1467
vt 0.0000 0.0000
vt 1.0000 0.0000
vt -0.9000 1.0000
vt -1.0000 1.0000
vt -1.0000 0.0000
vt -0.9000 0.0000
vt -0.1000 0.0000
vt -0.0000 1.0000
vt -0.1000 1.0000
vt 0.1000 0.0000
vt 0.1000 0.0633
vt 0.1000 0.1467
vt 0.0000 0.1467
vt 0.0000 0.0633
vt 0.1000 0.0633
vt 0.1000 0.1467
vt -0.0000 0.0633
vt -0.0000 0.1467
vt -0.1000 0.1467
vt -0.1000 0.0633
vt 1.0000 0.0633
vt 1.0000 0.1467
vt 0.9000 0.1467
vt 0.9000 0.0633
vt 0.2000 0.1000
vt 0.2000 0.9000
vt 0.1000 0.9000
vt 0.1000 0.1000
vt 0.6000 0.1000
vt 0.6000 0.9000
vt 0.4000 0.9000
vt 0.4000 0.1000
vt -1.0000 0.1467
vt -1.0000 0.0633
vt -0.9000 0.0633
vt -0.9000 0.1467
vt -1.0000 0.0000
vt -0.9000 0.0000
vt -0.9000 0.0633
vt -0.9000 0.1467
vt -1.0000 0.1467
vt 0.9000 0.0000
vt 0.1000 0.0000
vt 0.1000 1.0000
vt 0.9000 1.0000
vt -0.1000 0.2967
vt -0.9000 0.2967
vt 0.9000 0.1000
vt 0.9000 0.9000
vt 0.1000 0.9000
vt 0.1000 0.1000
vt -0.8000 0.0633
vt -0.8000 0.1300
vt -0.7966 0.1559
vt -0.7866 0.1800
vt -0.7707 0.2007
vt -0.7500 0.2166
vt -0.7259 0.2266
vt -0.7000 0.2300
vt -0.6741 0.2266
vt -0.6500 0.2166
vt -0.6293 0.2007
vt -0.6134 0.1800
vt -0.6034 0.1559
vt -0.6000 0.1300
vt -0.6000 0.0633
vt -0.4000 0.0633
vt -0.4000 0.1300
vt -0.3966 0.1559
vt -0.3866 0.1800
vt -0.3707 0.2007
vt -0.3500 0.2166
vt -0.3259 0.2266
vt -0.3000 0.2300
vt -0.2741 0.2266
vt -0.2500 0.2166
vt -0.2293 0.2007
vt -0.2134 0.1800
vt -0.2034 0.1559
vt -0.2000 0.1300
vt -0.2000 0.0633
vt -0.1000 0.0633
vt -0.1000 0.1467
vt -0.1000 0.2967
vt -0.9000 0.2967
vt 0.9000 0.2967
vt 0.1000 0.2967
vt 0.2000 0.0633
vt 0.2000 0.1300
vt 0.2034 0.1559
vt 0.2134 0.1800
vt 0.2293 0.2007
vt 0.2500 0.2166
vt 0.2741 0.2266
vt 0.3000 0.2300
vt 0.3259 0.2266
vt 0.3500 0.2166
vt 0.3707 0.2007
vt 0.3866 0.1800
vt 0.3966 0.1559
vt 0.4000 0.1300
vt 0.4000 0.0633
vt 0.6000 0.0633
vt 0.6000 0.1300
vt 0.6034 0.1559
vt 0.6134 0.1800
vt 0.6293 0.2007
vt 0.6500 0.2166
vt 0.6741 0.2266
vt 0.7000 0.2300
vt 0.7259 0.2266
vt 0.7500 0.2166
vt 0.7707 0.2007
vt 0.7866 0.1800
vt 0.7966 0.1559
vt 0.8000 0.1300
vt 0.8000 0.0633
vt 0.9000 0.0633
vt 0.9000 0.1467
vt 0.9000 0.2967
vt 0.1000 0.2967
vt 0.1000 0.1300
vt 0.1000 0.0633
vt 0.9000 0.0633
vt 0.9000 0.1300
vt 0.1000 0.1811
vt 0.1000 0.1550
vt 0.9000 0.1550
vt 0.9000 0.1811
vt 0.1000 0.2480
vt 0.1000 0.2219
vt 0.9000 0.2219
vt 0.9000 0.2480
vt 0.1000 0.2988
vt 0.1000 0.2727
vt 0.9000 0.2727
vt 0.9000 0.2988
vt 0.1000 0.3302
vt 0.1000 0.3041
vt 0.9000 0.3041
vt 0.9000 0.3302
vt 0.1000 0.3400
vt 0.1000 0.3139
vt 0.9000 0.3139
vt 0.9000 0.3400
vt 0.1000 0.3275
vt 0.1000 0.3013
vt 0.9000 0.3013
vt 0.9000 0.3275
vt -0.1000 -0.2935
vt -0.1000 -0.2674
vt -0.9000 -0.2674
vt -0.9000 -0.2935
vt -0.1000 -0.2405
vt -0.1000 -0.2144
vt -0.9000 -0.2144
vt -0.9000 -0.2405
vt -0.1000 -0.1719
vt -0.1000 -0.1458
vt -0.9000 -0.1458
vt -0.9000 -0.1719
vt -0.1000 -0.0925
vt -0.1000 -0.0664
vt -0.9000 -0.0664
vt -0.9000 -0.0925
vt -0.1000 -0.0078
vt -0.1000 0.0184
vt -0.9000 0.0184
vt -0.9000 -0.0078
vt -0.1000 0.0767
vt -0.1000 0.1028
vt -0.9000 0.1028
vt -0.9000 0.0767
vt -0.1000 0.0633
vt -0.1000 0.1300
vt -0.9000 0.1300
vt -0.9000 0.0633
vt 0.1000 0.1300
vt 0.1000 0.0633
vt 0.9000 0.0633
vt 0.9000 0.1300
vt 0.1000 0.2333
vt 0.1000 0.2072
vt 0.9000 0.2072
vt 0.9000 0.2333
vt 0.1000 0.4010
vt 0.1000 0.3749
vt 0.9000 0.3749
vt 0.9000 0.4010
vt 0.1000 0.5423
vt 0.1000 0.5162
vt 0.9000 0.5162
vt 0.9000 0.5423
vt 0.1000 0.6475
vt 0.1000 0.6214
vt 0.9000 0.6214
vt 0.9000 0.6475
vt 0.1000 0.7095
vt 0.1000 0.6834
vt 0.9000 0.6834
vt 0.9000 0.7095
vt 0.1000 0.7240
vt 0.1000 0.6979
vt 0.9000 0.6979
vt 0.9000 0.7240
vt -0.1000 -0.6901
vt -0.1000 -0.6640
vt -0.9000 -0.6640
vt -0.9000 -0.6901
vt -0.1000 -0.6100
vt -0.1000 -0.5839
vt -0.9000 -0.5839
vt -0.9000 -0.6100
vt -0.1000 -0.4893
vt -0.1000 -0.4632
vt -0.9000 -0.4632
vt -0.9000 -0.4893
vt -0.1000 -0.3361
vt -0.1000 -0.3099
vt -0.9000 -0.3099
vt -0.9000 -0.3361
vt -0.1000 -0.1608
vt -0.1000 -0.1347
vt -0.9000 -0.1347
vt -0.9000 -0.1608
vt -0.1000 0.0245
vt -0.1000 0.0506
vt -0.9000 0.0506
vt -0.9000 0.0245
vt -0.1000 0.0633
vt -0.1000 0.1300
vt -0.9000 0.1300
vt -0.9000 0.0633
vn 0.0000 0.0000 -1.0000
vn -1.0000 0.0000 -0.0000
vn 0.0000 1.0000 0.0000
vn 1.0000 0.0000 0.0000
vn -0.0000 -0.0000 1.0000
vn 0.0000 -1.0000 -0.0000
vn 0.9659 -0.2588 -0.0000
vn 0.9914 -0.1305 -0.0000
vn 0.8660 -0.5000 -0.0000
vn 0.7071 -0.7071 -0.0000
vn 0.5000 -0.8660 -0.0000
vn 0.2588 -0.9659 -0.0000
vn -0.2588 -0.9659 -0.0000
vn -0.5000 -0.8660 -0.0000
vn -0.7071 -0.7071 -0.0000
vn -0.8660 -0.5000 -0.0000
vn -0.9659 -0.2588 -0.0000
vn -0.9914 -0.1305 -0.0000
usemtl Red.023
s 1
f 1/1/1 2/2/1 3/3/1 4/4/1 5/5/1
f 6/6/2 7/7/2 5/8/2 4/9/2
f 1/10/3 5/11/3 7/12/3 8/13/3 9/14/3 10/15/3
f 11/16/2 12/17/2 9/18/2 10/19/2
f 17/20/3 18/21/3 49/22/3 50/23/3
f 48/24/4 80/25/4 50/26/4 17/27/4
f 81/28/3 82/29/3 48/30/3 80/31/3 83/32/3 84/33/3
f 83/34/5 85/35/5 86/36/5 87/37/5 84/38/5
f 81/39/4 84/40/4 87/41/4 88/42/4
f 89/43/6 88/44/6 87/45/6 86/46/6 90/47/6 6/6/6 4/48/6 3/49/6
f 6/6/5 90/50/5 91/51/5 8/52/5 7/7/5
f 8/53/4 91/54/4 12/55/4 9/56/4
f 85/57/2 83/58/2 80/59/2 50/60/2
f 2/61/4 1/62/4 10/63/4 11/64/4
f 51/65/3 47/66/3 11/67/3 12/68/3
f 66/69/3 32/70/3 33/71/3 65/72/3
f 82/73/2 92/74/2 17/75/2 48/76/2
f 88/77/1 89/78/1 92/79/1 82/80/1 81/81/1
usemtl Green.023
f 85/82/3 12/68/3 91/83/3
f 12/68/3 85/82/3 51/65/3
f 51/65/3 85/82/3 65/72/3
f 65/72/3 85/82/3 66/69/3
f 66/69/3 85/82/3 49/22/3
f 49/22/3 85/82/3 50/23/3
f 47/66/3 2/84/3 11/67/3
f 2/84/3 47/66/3 92/85/3
f 92/85/3 47/66/3 33/71/3
f 33/71/3 47/66/3 65/72/3
f 51/65/3 65/72/3 47/66/3
f 66/69/3 49/22/3 32/70/3
f 18/21/3 32/70/3 49/22/3
f 92/85/3 32/70/3 18/21/3
f 92/85/3 33/71/3 32/70/3
f 92/85/3 18/21/3 17/20/3
f 89/78/1 3/3/1 2/2/1 92/79/1
f 90/50/5 86/36/5 85/35/5 91/51/5
usemtl Brown.001
f 13/86/2 14/87/2 10/19/2 9/18/2
f 15/88/3 16/89/3 14/90/3 13/91/3
f 17/75/1 18/92/1 19/93/1 20/94/1 21/95/1 22/96/1 23/97/1 24/98/1 25/99/1 26/100/1 27/101/1 28/102/1 29/103/1 30/104/1 31/105/1 32/106/1 33/107/1 34/108/1 35/109/1 36/110/1 37/111/1 38/112/1 39/113/1 40/114/1 41/115/1 42/116/1 43/117/1 44/118/1 45/119/1 46/120/1 47/121/1 11/122/1 10/123/1 14/124/1 16/125/1 48/76/1
f 15/126/5 13/127/5 9/56/5 12/55/5 51/128/5 52/129/5 53/130/5 54/131/5 55/132/5 56/133/5 57/134/5 58/135/5 59/136/5 60/137/5 61/138/5 62/139/5 63/140/5 64/141/5 65/142/5 66/143/5 67/144/5 68/145/5 69/146/5 70/147/5 71/148/5 72/149/5 73/150/5 74/151/5 75/152/5 76/153/5 77/154/5 78/155/5 79/156/5 49/157/5 50/158/5 80/159/5
f 16/160/4 15/161/4 80/25/4 48/24/4
f 52/162/4 51/163/4 47/164/4 46/165/4
f 53/166/7 52/167/8 46/168/8 45/169/7
f 54/170/9 53/171/7 45/172/7 44/173/9
f 55/174/10 54/175/9 44/176/9 43/177/10
f 56/178/11 55/179/10 43/180/10 42/181/11
f 57/182/12 56/183/11 42/184/11 41/185/12
f 58/186/6 57/187/12 41/188/12 40/189/6
f 59/190/13 58/191/6 40/192/6 39/193/13
f 60/194/14 59/195/13 39/196/13 38/197/14
f 61/198/15 60/199/14 38/200/14 37/201/15
f 62/202/16 61/203/15 37/204/15 36/205/16
f 63/206/17 62/207/16 36/208/16 35/209/17
f 64/210/18 63/211/17 35/212/17 34/213/18
f 65/214/2 64/215/2 34/216/2 33/217/2
f 67/218/4 66/219/4 32/220/4 31/221/4
f 68/222/7 67/223/8 31/224/8 30/225/7
f 69/226/9 68/227/7 30/228/7 29/229/9
f 70/230/10 69/231/9 29/232/9 28/233/10
f 71/234/11 70/235/10 28/236/10 27/237/11
f 72/238/12 71/239/11 27/240/11 26/241/12
f 73/242/6 72/243/12 26/244/12 25/245/6
f 74/246/13 73/247/6 25/248/6 24/249/13
f 75/250/14 74/251/13 24/252/13 23/253/14
f 76/254/15 75/255/14 23/256/14 22/257/15
f 77/258/16 76/259/15 22/260/15 21/261/16
f 78/262/17 77/263/16 21/264/16 20/265/17
f 79/266/18 78/267/17 20/268/17 19/269/18
f 49/270/2 79/271/2 19/272/2 18/273/2
