# Blender v2.78 (sub 0) OBJ File: ''
# www.blender.org
mtllib Wall_right_01.mtl
o Mesh1_Wall_right_Model
v 0.300000 0.440000 -3.000000
v 0.300000 0.190000 -3.000000
v 0.300000 0.000000 -3.000000
v 0.000000 0.000000 -3.000000
v 0.000000 0.440000 -3.000000
v 0.000000 0.000000 -0.000000
v 0.000000 0.440000 0.000000
v 0.300000 0.440000 0.000000
v 0.300000 0.000000 -0.000000
v 0.300000 0.190000 0.000000
v 2.700000 0.000000 -3.000000
v 3.000000 0.000000 -3.000000
v 3.000000 0.000000 0.000000
v 1.500000 0.000000 -0.000000
v 2.700000 0.190000 -3.000000
v 1.500000 0.190000 0.000000
v 1.500000 0.190000 -0.250000
v 2.700000 0.190000 -0.250000
v 2.700000 0.440000 -0.250000
v 1.500000 0.440000 -0.250000
v 2.700000 0.440000 -3.000000
v 3.000000 0.440000 -3.000000
v 1.500000 0.440000 0.000000
v 3.000000 0.440000 0.000000
vt -0.1000 0.1467
vt -0.1000 0.0633
vt -0.1000 0.0000
vt -0.0000 0.0000
vt -0.0000 0.1467
vt -0.0000 0.0000
vt -0.0000 0.1467
vt -1.0000 0.1467
vt -1.0000 0.0000
vt 0.1000 1.0000
vt 0.0000 1.0000
vt 0.0000 0.0000
vt 0.1000 0.0000
vt 0.1000 -0.0000
vt 0.1000 0.0633
vt 0.1000 0.1467
vt -0.9000 1.0000
vt -1.0000 1.0000
vt -1.0000 0.0000
vt -0.5000 0.0000
vt -0.1000 0.0000
vt -0.0000 1.0000
vt -0.1000 1.0000
vt 0.0000 0.0633
vt 1.0000 0.0633
vt 1.0000 0.1467
vt 0.0000 0.1467
vt -0.9000 0.1467
vt -0.9000 0.0633
vt -0.5000 0.0633
vt -0.5000 0.1467
vt -1.0000 0.0633
vt -0.0833 0.0633
vt -0.0833 0.1467
vt -1.0000 0.1467
vt 1.0000 1.0000
vt 0.9000 1.0000
vt 0.9000 0.0833
vt 0.5000 0.0833
vt 0.5000 0.0000
vt 1.0000 0.0000
vt 0.5000 0.1467
vt 0.5000 0.0633
vt 0.5000 -0.0000
vt 1.0000 -0.0000
vt 1.0000 0.1467
vt 1.0000 0.1467
vt 0.0000 0.1467
vt 0.0000 0.0000
vt 1.0000 0.0000
vt -1.0000 0.0000
vt -0.9000 0.0000
vt -0.9000 0.0633
vt -0.9000 0.1467
vt -1.0000 0.1467
vt -0.0000 0.1467
vt -0.0833 0.1467
vt -0.0833 0.0633
vt -0.0000 0.0633
vt 0.9000 1.0000
vt 0.1000 1.0000
vt 0.1000 0.0000
vt 0.5000 0.0000
vt 0.5000 0.0833
vt 0.9000 0.0833
vn 0.0000 0.0000 -1.0000
vn -1.0000 0.0000 -0.0000
vn 0.0000 1.0000 0.0000
vn -0.0000 -0.0000 1.0000
vn 0.0000 -1.0000 -0.0000
vn 1.0000 0.0000 0.0000
usemtl Red.033
s 1
f 1/1/1 2/2/1 3/3/1 4/4/1 5/5/1
f 6/6/2 7/7/2 5/8/2 4/9/2
f 1/10/3 5/11/3 7/12/3 8/13/3
f 6/6/4 9/14/4 10/15/4 8/16/4 7/7/4
f 11/17/5 12/18/5 13/19/5 14/20/5 9/21/5 6/6/5 4/22/5 3/23/5
f 10/24/6 2/25/6 1/26/6 8/27/6
f 19/28/1 18/29/1 17/30/1 20/31/1
f 15/32/2 18/33/2 19/34/2 21/35/2
f 22/36/3 21/37/3 19/38/3 20/39/3 23/40/3 24/41/3
f 23/42/4 16/43/4 14/44/4 13/45/4 24/46/4
f 22/47/6 24/48/6 13/49/6 12/50/6
f 12/51/1 11/52/1 15/53/1 21/54/1 22/55/1
f 23/56/2 20/57/2 17/58/2 16/59/2
usemtl Green.031
f 15/60/3 2/61/3 10/62/3 16/63/3 17/64/3 18/65/3
f 11/52/1 3/3/1 2/2/1 15/53/1
f 9/14/4 14/44/4 16/43/4 10/15/4
