# File produced by Open Asset Import Library (http://www.assimp.sf.net)
# (assimp v4.1.327737527)

mtllib Wall_right_01.mtl

# 24 vertex positions
v  0 0 -2.31012007212341e-14
v  0 0.4399999976158142 -2.31012007212341e-14
v  1.840869917981748e-14 0.4399999976158142 -3
v  1.840869917981748e-14 0 -3
v  0.300000011920929 0.4399999976158142 -3
v  0.300000011920929 0.4399999976158142 -1.732589969389263e-14
v  1.5 0.4399999976158142 0
v  1.5 0.4399999976158142 -0.25
v  1.5 0.1899999976158142 -0.25
v  1.5 0.1899999976158142 0
v  0.300000011920929 0 -1.732589969389263e-14
v  0.300000011920929 0.1899999976158142 -1.732589969389263e-14
v  0.300000011920929 0 -3
v  2.700000047683716 0 -3
v  3 0 -3
v  3 0 0
v  1.5 0 -1.155060036061705e-14
v  0.300000011920929 0.1899999976158142 -3
v  2.700000047683716 0.4399999976158142 -0.25
v  2.700000047683716 0.1899999976158142 -0.25
v  2.700000047683716 0.1899999976158142 -3
v  2.700000047683716 0.4399999976158142 -3
v  3 0.4399999976158142 0
v  3 0.4399999976158142 -3

# 106 UV coordinates
vt -7.700390076016e-15 0 0
vt -7.700390076016e-15 0.1466670036315918 0
vt -1 0.1466670036315918 0
vt -1 0 0
vt 0.1000000014901161 1 0
vt 6.136250141770263e-15 1 0
vt 0 7.700390076016e-15 0
vt 0.1000000014901161 5.775290015913159e-15 0
vt -2.887650090154263e-15 0.1466670036315918 0
vt -0.08333329856395721 0.1466670036315918 0
vt -0.08333329856395721 0.06333330273628235 0
vt -2.887650090154263e-15 0.06333330273628235 0
vt -8.667369658579034e-29 0.1466670036315918 0
vt -8.667369658579034e-29 -6.011280250896048e-30 0
vt 0.1000000014901161 -5.387129614112255e-30 0
vt 0.1000000014901161 0.06333330273628235 0
vt 0.1000000014901161 0.1466670036315918 0
vt -0.1000000014901161 1 0
vt -0.8999999761581421 1 0
vt -1 1 0
vt -0.5 3.850189955810317e-15 0
vt -0.1000000014901161 5.775290015913159e-15 0
vt -6.136250141770263e-15 1 0
vt 6.394239860361452e-15 0.06333330273628235 0
vt 1 0.06333330273628235 0
vt 1 0.1466670036315918 0
vt 6.394239860361452e-15 0.1466670036315918 0
vt -0.8999999761581421 0.1466670036315918 0
vt -0.8999999761581421 0.06333330273628235 0
vt -0.5 0.06333330273628235 0
vt -0.5 0.1466670036315918 0
vt -1 0.06333330273628235 0
vt 1 0 0
vt 1 1 0
vt 0.8999999761581421 1 0
vt 0.8999999761581421 0.08333329856395721 0
vt 0.5 0.08333329856395721 0
vt 0.5 0 0
vt 0.5 0.1466670036315918 0
vt 0.5 0.06333330273628235 0
vt 0.5 -5.349180142569404e-29 0
vt 1 -2.993649857374721e-29 0
vt -1 5.854839962187493e-16 0
vt -0.8999999761581421 5.854839962187493e-16 0
vt 6.189489974153459e-15 0.1466670036315918 0
vt 6.189489974153459e-15 0 0
vt -3.147799954519187e-15 0.1466670036315918 0
vt -0.1000000014901161 0.1466670036315918 0
vt -0.1000000014901161 0.06333330273628235 0
vt -0.1000000014901161 5.854839962187493e-16 0
vt -3.147799954519187e-15 5.854839962187493e-16 0
vt -3.410610010558257e-13 7.480309963226318 0
vt -9.842519760131836 7.480309963226318 0
vt -9.842519760131836 17.32279968261719 0
vt -3.410610010558257e-13 17.32279968261719 0
vt -59.05509948730469 17.32279968261719 0
vt -59.05509948730469 7.480309963226318 0
vt -106.2990036010742 7.480309963226318 0
vt -106.2990036010742 17.32279968261719 0
vt 7.5522498411279e-13 17.32279968261719 0
vt 118.1100006103516 17.32279968261719 0
vt 118.1100006103516 7.480309963226318 0
vt 7.5522498411279e-13 7.480309963226318 0
vt 59.05509948730469 17.32279968261719 0
vt 118.1100006103516 -3.53581016266866e-27 0
vt 59.05509948730469 -6.317930367574719e-27 0
vt 59.05509948730469 7.480309963226318 0
vt 11.81099987030029 7.480309963226318 0
vt 11.81099987030029 -2.4189599982818e-26 0
vt -1.023700020399045e-26 -7.099929665886365e-28 0
vt 11.81099987030029 17.32279968261719 0
vt -1.023700020399045e-26 17.32279968261719 0
vt 118.1100006103516 0 0
vt 7.31042993067782e-13 0 0
vt 7.31042993067782e-13 17.32279968261719 0
vt 59.05509948730469 0 0
vt 59.05509948730469 9.842519760131836 0
vt 106.2990036010742 9.842519760131836 0
vt 106.2990036010742 118.1100006103516 0
vt 118.1100006103516 118.1100006103516 0
vt -118.1100006103516 6.91517020512053e-14 0
vt -118.1100006103516 17.32279968261719 0
vt -106.2990036010742 6.91517020512053e-14 0
vt -11.81099987030029 7.480309963226318 0
vt -11.81099987030029 3.365730003729306e-13 0
vt -11.81099987030029 17.32279968261719 0
vt -3.717869924684675e-13 6.91517020512053e-14 0
vt -3.717869924684675e-13 17.32279968261719 0
vt -118.1100006103516 7.480309963226318 0
vt -118.1100006103516 0 0
vt -9.094949186133627e-13 17.32279968261719 0
vt -9.094949186133627e-13 0 0
vt 11.81099987030029 118.1100006103516 0
vt 11.81099987030029 6.821209721195876e-13 0
vt -106.2990036010742 118.1100006103516 0
vt -11.81099987030029 118.1100006103516 0
vt -7.247539699460626e-13 118.1100006103516 0
vt 0 9.094949186133627e-13 0
vt -11.81099987030029 6.821209721195876e-13 0
vt -59.05509948730469 4.547469985207581e-13 0
vt -118.1100006103516 118.1100006103516 0
vt 7.247539699460626e-13 118.1100006103516 0
vt 0.1000000014901161 -2.048050032524671e-28 0
vt 0.5 -2.633209901611463e-28 0
vt -0.8999999761581421 2.84964986279983e-15 0
vt -0.1000000014901161 2.84964986279983e-15 0

# 22 vertex normals
vn -1 0 -6.189489974153459e-15
vn 0 1 0
vn -1 0 -5.775290015913159e-15
vn -1.125579901365466e-14 -7.806459988594157e-16 1
vn 0 -1 0
vn 1 0 6.189489974153459e-15
vn 5.775290015913159e-15 0 -1
vn -1 0 -6.300320000136948e-15
vn -2.991970032663392e-15 -1.000560040636395e-14 1
vn 9.043409941798634e-15 -5.854839962187493e-16 -1
vn 2.98844997549284e-15 -5.854839962187493e-16 -1
vn 1 0 5.775290015913159e-15
vn -5.775290015913159e-15 0 1
vn 2.991970032663392e-15 1.000560040636395e-14 -1
vn 9.625490136118842e-15 3.039629908451608e-14 -1
vn 1.125579901365466e-14 7.806459988594157e-16 -1
vn -9.043409941798634e-15 5.854839962187493e-16 1
vn -6.015930382162211e-15 2.84964986279983e-15 1
vn -2.98844997549284e-15 5.854839962187493e-16 1
vn 1 0 6.300320000136948e-15
vn -9.625490136118842e-15 -3.039629908451608e-14 1
vn 6.015930382162211e-15 -2.84964986279983e-15 -1

# Mesh 'Red.Red.Red.Red.Red.Red.Red.Red.Red.Red.Mesh1 Wall_right Model' with 36 faces
g Red.Red.Red.Red.Red.Red.Red.Red.Red.Red.Mesh1 Wall_right Model
usemtl Red
f  1/1/1 2/2/1 3/3/1
f  1/1/1 3/3/1 4/4/1
f  5/5/2 3/6/2 2/7/2
f  5/5/2 2/7/2 6/8/2
f  7/9/3 8/10/3 9/11/3
f  7/9/3 9/11/3 10/12/3
f  2/13/4 1/14/4 11/15/4
f  2/13/4 11/15/4 12/16/4
f  12/16/4 6/17/4 2/13/4
f  13/18/5 14/19/5 15/20/5
f  13/18/5 15/20/5 16/4/5
f  13/18/5 16/4/5 17/21/5
f  13/18/5 17/21/5 11/22/5
f  13/18/5 11/22/5 1/7/5
f  1/7/5 4/23/5 13/18/5
f  12/24/6 18/25/6 5/26/6
f  12/24/6 5/26/6 6/27/6
f  19/28/7 20/29/7 9/30/7
f  19/28/7 9/30/7 8/31/7
f  21/32/8 20/11/8 19/10/8
f  21/32/8 19/10/8 22/3/8
f  23/33/2 24/34/2 22/35/2
f  23/33/2 22/35/2 19/36/2
f  23/33/2 19/36/2 8/37/2
f  8/37/2 7/38/2 23/33/2
f  23/26/9 7/39/9 10/40/9
f  23/26/9 10/40/9 17/41/9
f  17/41/9 16/42/9 23/26/9
f  24/3/10 15/43/10 14/44/10
f  24/3/10 14/44/10 21/29/10
f  21/29/10 22/28/10 24/3/10
f  24/26/6 23/45/6 16/46/6
f  24/26/6 16/46/6 15/33/6
f  3/47/11 5/48/11 18/49/11
f  3/47/11 18/49/11 13/50/11
f  13/50/11 4/51/11 3/47/11

# Mesh 'BackColor.BackColor.BackColor.BackColor.BackColor.BackColor.BackColor.BackColor.BackColor.BackColor.BackColor.BackColor.BackColor' with 44 faces
g BackColor.BackColor.BackColor.BackColor.BackColor.BackColor.BackColor.BackColor.BackColor.BackColor.BackColor.BackColor.BackColor
usemtl BackColor
f  10/52/12 9/53/12 8/54/12
f  10/52/12 8/54/12 7/55/12
f  8/56/13 9/57/13 20/58/13
f  8/56/13 20/58/13 19/59/13
f  6/60/1 5/61/1 18/62/1
f  6/60/1 18/62/1 12/63/1
f  7/64/14 23/61/14 16/65/14
f  7/64/14 16/65/14 17/66/14
f  17/66/14 10/67/14 7/64/14
f  12/68/15 10/67/14 17/66/14
f  12/68/15 17/66/14 11/69/15
f  1/70/16 6/71/16 12/68/15
f  12/68/15 11/69/15 1/70/16
f  1/70/16 2/72/16 6/71/16
f  15/73/1 16/74/1 23/75/1
f  15/73/1 23/75/1 24/61/1
f  23/73/5 7/76/5 8/77/5
f  23/73/5 8/77/5 19/78/5
f  23/73/5 19/78/5 22/79/5
f  23/73/5 22/79/5 24/80/5
f  15/81/17 24/82/17 22/59/17
f  15/81/17 22/59/17 21/58/17
f  21/58/17 14/83/17 15/81/17
f  21/58/17 18/84/18 13/85/18
f  21/58/17 13/85/18 14/83/17
f  13/85/18 18/84/18 5/86/19
f  5/86/19 4/87/19 13/85/18
f  5/86/19 3/88/19 4/87/19
f  22/82/20 19/54/20 20/53/20
f  22/82/20 20/53/20 21/89/20
f  4/90/6 3/82/6 2/91/6
f  4/90/6 2/91/6 1/92/6
f  21/79/5 20/78/5 9/77/5
f  9/77/5 18/93/5 21/79/5
f  9/77/5 10/76/5 12/94/5
f  9/77/5 12/94/5 18/93/5
f  14/95/2 13/96/2 4/97/2
f  14/95/2 4/97/2 1/98/2
f  14/95/2 1/98/2 11/99/2
f  14/95/2 11/99/2 17/100/2
f  14/95/2 17/100/2 16/90/2
f  16/90/2 15/101/2 14/95/2
f  6/94/5 2/98/5 3/102/5
f  6/94/5 3/102/5 5/93/5

# Mesh 'Green.Green.Green' with 8 faces
g Green.Green.Green
usemtl Green
f  20/36/2 21/35/2 18/5/2
f  18/5/2 9/37/2 20/36/2
f  18/5/2 12/8/2 10/38/2
f  18/5/2 10/38/2 9/37/2
f  11/103/21 17/104/21 10/40/21
f  11/103/21 10/40/21 12/16/21
f  14/105/22 13/106/22 18/49/22
f  14/105/22 18/49/22 21/29/22

