# File produced by Open Asset Import Library (http://www.assimp.sf.net)
# (assimp v4.1.908865877)

mtllib Wall_right_01.mtl

# 24 vertex positions
v  -1.5 0.4399999976158142 -1.5
v  -1.200000047683716 0.4399999976158142 -1.5
v  -1.200000047683716 0.1899999976158142 -1.5
v  -1.200000047683716 0 -1.5
v  -1.5 0 -1.5
v  -1.5 0 1.5
v  -1.5 0.4399999976158142 1.5
v  -1.200000047683716 0.4399999976158142 1.5
v  -1.200000047683716 0 1.5
v  -1.200000047683716 0.1899999976158142 1.5
v  1.200000047683716 0 -1.5
v  1.5 0 -1.5
v  1.5 0 1.5
v  0 0 1.5
v  1.200000047683716 0.1899999976158142 1.25
v  1.200000047683716 0.1899999976158142 -1.5
v  0 0.1899999976158142 1.5
v  0 0.1899999976158142 1.25
v  1.200000047683716 0.4399999976158142 1.25
v  0 0.4399999976158142 1.25
v  1.200000047683716 0.4399999976158142 -1.5
v  1.5 0.4399999976158142 1.5
v  1.5 0.4399999976158142 -1.5
v  0 0.4399999976158142 1.5

# 110 UV coordinates
vt -3.147799954519187e-15 0.1466670036315918 0
vt -0.1000000014901161 0.1466670036315918 0
vt -0.1000000014901161 0.06333330273628235 0
vt -0.1000000014901161 5.854839962187493e-16 0
vt -3.147799954519187e-15 5.854839962187493e-16 0
vt -11.81099987030029 17.32279968261719 0
vt -3.717869924684675e-13 17.32279968261719 0
vt -3.717869924684675e-13 6.91517020512053e-14 0
vt -11.81099987030029 6.91517020512053e-14 0
vt -11.81099987030029 7.480309963226318 0
vt -7.700390076016e-15 0 0
vt -7.700390076016e-15 0.1466670036315918 0
vt -1 0.1466670036315918 0
vt -1 0 0
vt -118.1100006103516 0 0
vt -118.1100006103516 17.32279968261719 0
vt -9.094949186133627e-13 17.32279968261719 0
vt -9.094949186133627e-13 0 0
vt 0.1000000014901161 1 0
vt 6.136250141770263e-15 1 0
vt 0 7.700390076016e-15 0
vt 0.1000000014901161 5.775290015913159e-15 0
vt 11.81099987030029 6.821209721195876e-13 0
vt 0 9.094949186133627e-13 0
vt 7.247539699460626e-13 118.1100006103516 0
vt 11.81099987030029 118.1100006103516 0
vt -8.667369658579034e-29 0.1466670036315918 0
vt -8.667369658579034e-29 -6.011280250896048e-30 0
vt 0.1000000014901161 -5.387129614112255e-30 0
vt 0.1000000014901161 0.06333330273628235 0
vt 0.1000000014901161 0.1466670036315918 0
vt -0.1000000014901161 1 0
vt -0.8999999761581421 1 0
vt -1 1 0
vt -0.5 3.850189955810317e-15 0
vt -0.1000000014901161 5.775290015913159e-15 0
vt -6.136250141770263e-15 1 0
vt -106.2990036010742 118.1100006103516 0
vt -11.81099987030029 118.1100006103516 0
vt -7.247539699460626e-13 118.1100006103516 0
vt -11.81099987030029 6.821209721195876e-13 0
vt -59.05509948730469 4.547469985207581e-13 0
vt -118.1100006103516 118.1100006103516 0
vt -1.023700020399045e-26 -7.099929665886365e-28 0
vt -1.023700020399045e-26 17.32279968261719 0
vt 11.81099987030029 17.32279968261719 0
vt 11.81099987030029 7.480309963226318 0
vt 11.81099987030029 -6.362750127758012e-28 0
vt 6.394239860361452e-15 0.06333330273628235 0
vt 1 0.06333330273628235 0
vt 1 0.1466670036315918 0
vt 6.394239860361452e-15 0.1466670036315918 0
vt 0.8999999761581421 0.08333329856395721 0
vt 0.8999999761581421 1 0
vt 0.5 0 0
vt 0.5 0.08333329856395721 0
vt 106.2990036010742 118.1100006103516 0
vt 106.2990036010742 9.842519760131836 0
vt 59.05509948730469 9.842519760131836 0
vt 59.05509948730469 0 0
vt -0.8999999761581421 0.1466670036315918 0
vt -0.8999999761581421 0.06333330273628235 0
vt -0.5 0.06333330273628235 0
vt -0.5 0.1466670036315918 0
vt -1 0.06333330273628235 0
vt -0.08333329856395721 0.06333330273628235 0
vt -0.08333329856395721 0.1466670036315918 0
vt -9.842519760131836 17.32279968261719 0
vt -9.842519760131836 7.480309963226318 0
vt -118.1100006103516 7.480309963226318 0
vt 1 0 0
vt 1 1 0
vt 118.1100006103516 0 0
vt 118.1100006103516 118.1100006103516 0
vt 0.5 0.1466670036315918 0
vt 0.5 0.06333330273628235 0
vt 0.5 -5.349180142569404e-29 0
vt 1 -2.993649857374721e-29 0
vt 59.05509948730469 17.32279968261719 0
vt 118.1100006103516 17.32279968261719 0
vt 118.1100006103516 -3.53581016266866e-27 0
vt 59.05509948730469 -6.317930367574719e-27 0
vt 59.05509948730469 7.480309963226318 0
vt 6.189489974153459e-15 0.1466670036315918 0
vt 6.189489974153459e-15 0 0
vt 7.31042993067782e-13 0 0
vt 7.31042993067782e-13 17.32279968261719 0
vt -1 5.854839962187493e-16 0
vt -0.8999999761581421 5.854839962187493e-16 0
vt -118.1100006103516 6.91517020512053e-14 0
vt -106.2990036010742 17.32279968261719 0
vt -106.2990036010742 7.480309963226318 0
vt -106.2990036010742 6.91517020512053e-14 0
vt -0.8999999761581421 2.84964986279983e-15 0
vt -0.1000000014901161 2.84964986279983e-15 0
vt -11.81099987030029 3.365730003729306e-13 0
vt -106.2990036010742 3.365730003729306e-13 0
vt 0.1000000014901161 -2.048050032524671e-28 0
vt 0.5 -2.633209901611463e-28 0
vt 59.05509948730469 -3.11008997366087e-26 0
vt 11.81099987030029 -2.4189599982818e-26 0
vt -2.887650090154263e-15 0.1466670036315918 0
vt -2.887650090154263e-15 0.06333330273628235 0
vt -3.410610010558257e-13 7.480309963226318 0
vt -3.410610010558257e-13 17.32279968261719 0
vt -59.05509948730469 17.32279968261719 0
vt -59.05509948730469 7.480309963226318 0
vt 7.5522498411279e-13 17.32279968261719 0
vt 118.1100006103516 7.480309963226318 0
vt 7.5522498411279e-13 7.480309963226318 0

# 22 vertex normals
vn 2.98844997549284e-15 -5.854839962187493e-16 -1
vn -2.98844997549284e-15 5.854839962187493e-16 1
vn -1 0 -6.189489974153459e-15
vn 1 0 6.189489974153459e-15
vn 0 1 0
vn 0 -1 0
vn -1.125579901365466e-14 -7.806459988594157e-16 1
vn 1.125579901365466e-14 7.806459988594157e-16 -1
vn 5.775290015913159e-15 0 -1
vn -1 0 -6.300320000136948e-15
vn 1 0 6.300320000136948e-15
vn -2.991970032663392e-15 -1.000560040636395e-14 1
vn 2.991970032663392e-15 1.000560040636395e-14 -1
vn 9.043409941798634e-15 -5.854839962187493e-16 -1
vn -9.043409941798634e-15 5.854839962187493e-16 1
vn 6.015930382162211e-15 -2.84964986279983e-15 -1
vn -6.015930382162211e-15 2.84964986279983e-15 1
vn -9.625490136118842e-15 -3.039629908451608e-14 1
vn 9.625490136118842e-15 3.039629908451608e-14 -1
vn -1 0 -5.775290015913159e-15
vn 1 0 5.775290015913159e-15
vn -5.775290015913159e-15 0 1

# Mesh 'Mesh1 Wall_right Model' with 3 faces
g Mesh1 Wall_right Model
usemtl Red
f  1/1/1 2/2/1 3/3/1
f  1/1/1 3/3/1 4/4/1
f  4/4/1 5/5/1 1/1/1

# Mesh 'BackColor' with 3 faces
g BackColor
usemtl BackColor
f  2/6/2 1/7/2 5/8/2
f  2/6/2 5/8/2 4/9/2
f  4/9/2 3/10/2 2/6/2

# Mesh 'Red' with 2 faces
g Red
usemtl Red
f  6/11/3 7/12/3 1/13/3
f  6/11/3 1/13/3 5/14/3

# Mesh 'BackColor' with 2 faces
g BackColor
usemtl BackColor
f  5/15/4 1/16/4 7/17/4
f  5/15/4 7/17/4 6/18/4

# Mesh 'Red' with 2 faces
g Red
usemtl Red
f  2/19/5 1/20/5 7/21/5
f  2/19/5 7/21/5 8/22/5

# Mesh 'BackColor' with 2 faces
g BackColor
usemtl BackColor
f  8/23/6 7/24/6 1/25/6
f  8/23/6 1/25/6 2/26/6

# Mesh 'Red' with 9 faces
g Red
usemtl Red
f  7/27/7 6/28/7 9/29/7
f  7/27/7 9/29/7 10/30/7
f  10/30/7 8/31/7 7/27/7
f  4/32/6 11/33/6 12/34/6
f  4/32/6 12/34/6 13/14/6
f  4/32/6 13/14/6 14/35/6
f  4/32/6 14/35/6 9/36/6
f  4/32/6 9/36/6 6/21/6
f  6/21/6 5/37/6 4/32/6

# Mesh 'BackColor' with 9 faces
g BackColor
usemtl BackColor
f  11/38/5 4/39/5 5/40/5
f  11/38/5 5/40/5 6/24/5
f  11/38/5 6/24/5 9/41/5
f  11/38/5 9/41/5 14/42/5
f  11/38/5 14/42/5 13/15/5
f  13/15/5 12/43/5 11/38/5
f  6/44/8 7/45/8 8/46/8
f  6/44/8 8/46/8 10/47/8
f  10/47/8 9/48/8 6/44/8

# Mesh 'Red' with 2 faces
g Red
usemtl Red
f  10/49/4 3/50/4 2/51/4
f  10/49/4 2/51/4 8/52/4

# Mesh 'Green' with 4 faces
g Green
usemtl Green
f  15/53/5 16/54/5 3/19/5
f  3/19/5 10/22/5 17/55/5
f  3/19/5 17/55/5 18/56/5
f  3/19/5 18/56/5 15/53/5

# Mesh 'BackColor' with 4 faces
g BackColor
usemtl BackColor
f  16/57/6 15/58/6 18/59/6
f  18/59/6 17/60/6 10/23/6
f  18/59/6 10/23/6 3/26/6
f  18/59/6 3/26/6 16/57/6

# Mesh 'Red' with 4 faces
g Red
usemtl Red
f  19/61/9 15/62/9 18/63/9
f  19/61/9 18/63/9 20/64/9
f  16/65/10 15/66/10 19/67/10
f  16/65/10 19/67/10 21/13/10

# Mesh 'BackColor' with 2 faces
g BackColor
usemtl BackColor
f  21/16/11 19/68/11 15/69/11
f  21/16/11 15/69/11 16/70/11

# Mesh 'Red' with 4 faces
g Red
usemtl Red
f  22/71/5 23/72/5 21/54/5
f  22/71/5 21/54/5 19/53/5
f  22/71/5 19/53/5 20/56/5
f  20/56/5 24/55/5 22/71/5

# Mesh 'BackColor' with 4 faces
g BackColor
usemtl BackColor
f  22/73/6 24/60/6 20/59/6
f  22/73/6 20/59/6 19/58/6
f  22/73/6 19/58/6 21/57/6
f  22/73/6 21/57/6 23/74/6

# Mesh 'Red' with 3 faces
g Red
usemtl Red
f  22/51/12 24/75/12 17/76/12
f  22/51/12 17/76/12 14/77/12
f  14/77/12 13/78/12 22/51/12

# Mesh 'BackColor' with 3 faces
g BackColor
usemtl BackColor
f  24/79/13 22/80/13 13/81/13
f  24/79/13 13/81/13 14/82/13
f  14/82/13 17/83/13 24/79/13

# Mesh 'Red' with 2 faces
g Red
usemtl Red
f  23/51/4 22/84/4 13/85/4
f  23/51/4 13/85/4 12/71/4

# Mesh 'BackColor' with 2 faces
g BackColor
usemtl BackColor
f  12/73/3 13/86/3 22/87/3
f  12/73/3 22/87/3 23/80/3

# Mesh 'Red' with 3 faces
g Red
usemtl Red
f  23/13/14 12/88/14 11/89/14
f  23/13/14 11/89/14 16/62/14
f  16/62/14 21/61/14 23/13/14

# Mesh 'BackColor' with 3 faces
g BackColor
usemtl BackColor
f  12/90/15 23/16/15 21/91/15
f  12/90/15 21/91/15 16/92/15
f  16/92/15 11/93/15 12/90/15

# Mesh 'Green' with 2 faces
g Green
usemtl Green
f  11/94/16 4/95/16 3/3/16
f  11/94/16 3/3/16 16/62/16

# Mesh 'BackColor' with 2 faces
g BackColor
usemtl BackColor
f  16/92/17 3/10/17 4/96/17
f  16/92/17 4/96/17 11/97/17

# Mesh 'Green' with 2 faces
g Green
usemtl Green
f  9/98/18 14/99/18 17/76/18
f  9/98/18 17/76/18 10/30/18

# Mesh 'BackColor' with 2 faces
g BackColor
usemtl BackColor
f  10/47/19 17/83/19 14/100/19
f  10/47/19 14/100/19 9/101/19

# Mesh 'Red' with 2 faces
g Red
usemtl Red
f  24/102/20 20/67/20 18/66/20
f  24/102/20 18/66/20 17/103/20

# Mesh 'BackColor' with 6 faces
g BackColor
usemtl BackColor
f  17/104/21 18/69/21 20/68/21
f  17/104/21 20/68/21 24/105/21
f  20/106/22 18/107/22 15/92/22
f  20/106/22 15/92/22 19/91/22
f  8/108/3 2/80/3 3/109/3
f  8/108/3 3/109/3 10/110/3

