# Blender v2.78 (sub 0) OBJ File: ''
# www.blender.org
mtllib Walls_to_open_01.mtl
o Mesh1_Walls_to_open_Model
v 0.000000 0.000000 -3.000000
v 3.000000 0.000000 -3.000000
v 3.000000 0.000000 -0.300000
v 3.000000 0.000000 0.000000
v 2.700000 0.000000 0.000000
v 0.300000 0.000000 -0.000000
v 0.000000 0.000000 -0.000000
v 0.000000 0.000000 -0.300000
v 0.000000 0.440000 -0.300000
v 0.000000 0.190000 -0.300000
v 0.000000 0.440000 0.000000
v 0.300000 0.190000 0.000000
v 0.300000 0.440000 0.000000
v 0.297433 0.440000 -0.039158
v 0.289778 0.440000 -0.077646
v 0.277164 0.440000 -0.114805
v 0.259808 0.440000 -0.150000
v 0.238006 0.440000 -0.182628
v 0.212132 0.440000 -0.212132
v 0.182628 0.440000 -0.238006
v 0.150000 0.440000 -0.259808
v 0.114805 0.440000 -0.277164
v 0.077646 0.440000 -0.289778
v 0.039158 0.440000 -0.297433
v 0.039158 0.190000 -0.297433
v 2.700000 0.190000 0.000000
v 2.702570 0.190000 -0.039158
v 2.710220 0.190000 -0.077646
v 2.722840 0.190000 -0.114805
v 2.740190 0.190000 -0.150000
v 2.761990 0.190000 -0.182628
v 2.787870 0.190000 -0.212132
v 2.817370 0.190000 -0.238006
v 2.850000 0.190000 -0.259808
v 2.885190 0.190000 -0.277164
v 2.922350 0.190000 -0.289778
v 2.960840 0.190000 -0.297433
v 3.000000 0.190000 -0.300000
v 3.000000 0.190000 -3.000000
v 0.000000 0.190000 -3.000000
v 0.077646 0.190000 -0.289778
v 0.114805 0.190000 -0.277164
v 0.150000 0.190000 -0.259808
v 0.182628 0.190000 -0.238006
v 0.212132 0.190000 -0.212132
v 0.238006 0.190000 -0.182628
v 0.259808 0.190000 -0.150000
v 0.277164 0.190000 -0.114805
v 0.289778 0.190000 -0.077646
v 0.297433 0.190000 -0.039158
v 3.000000 0.440000 -0.300000
v 3.000000 0.440000 0.000000
v 2.960840 0.440000 -0.297433
v 2.922350 0.440000 -0.289778
v 2.885190 0.440000 -0.277164
v 2.850000 0.440000 -0.259808
v 2.817370 0.440000 -0.238006
v 2.787870 0.440000 -0.212132
v 2.761990 0.440000 -0.182628
v 2.740190 0.440000 -0.150000
v 2.722840 0.440000 -0.114805
v 2.710220 0.440000 -0.077646
v 2.702570 0.440000 -0.039158
v 2.700000 0.440000 0.000000
vt -1.0000 0.1000
vt -0.1000 0.0000
vt 0.0000 0.1000
vt 0.1000 0.0000
vt 0.1000 0.0633
vt -0.0000 0.0000
vt 0.0793 0.0609
vt 0.0707 0.0707
vt 0.0000 0.0000
vt 0.1000 0.0000
vt 0.1000 0.0633
vt 0.0000 0.0000
vt 0.9391 0.0793
vt 0.9293 0.0707
vt 1.0000 0.0000
vt 0.0065 0.0633
vt 0.0065 0.1467
vt -0.0065 0.1467
vt -0.0065 0.0633
vt -1.0000 0.0000
vt -0.9000 0.0000
vt 0.1000 0.1467
vt -0.0000 0.1467
vt -0.1000 0.0633
vt -0.1000 0.0000
vt 0.1000 0.1467
vt 0.0000 0.1467
vt 0.0000 0.1000
vt 0.0131 0.0991
vt 0.1000 0.0000
vt 0.0991 0.0131
vt 0.0966 0.0259
vt 0.0924 0.0383
vt 0.0866 0.0500
vt 0.0609 0.0793
vt 0.0500 0.0866
vt 0.0383 0.0924
vt 0.0259 0.0966
vt -0.1000 0.1467
vt 0.0065 0.0633
vt 0.0065 0.1467
vt -0.0065 0.1467
vt -0.0065 0.0633
vt 0.0065 0.0633
vt 0.0065 0.1467
vt -0.0065 0.1467
vt -0.0065 0.0633
vt 0.0065 0.0633
vt 0.0065 0.1467
vt -0.0065 0.1467
vt -0.0065 0.0633
vt 0.0065 0.0633
vt 0.0065 0.1467
vt -0.0065 0.1467
vt -0.0065 0.0633
vt 0.0065 0.0633
vt 0.0065 0.1467
vt -0.0065 0.1467
vt -0.0065 0.0633
vt 0.0065 0.0633
vt 0.0065 0.1467
vt -0.0065 0.1467
vt -0.0065 0.0633
vt 0.0065 0.0633
vt 0.0065 0.1467
vt -0.0065 0.1467
vt -0.0065 0.0633
vt 0.0065 0.0633
vt 0.0065 0.1467
vt -0.0065 0.1467
vt -0.0065 0.0633
vt 0.0065 0.0633
vt 0.0065 0.1467
vt -0.0065 0.1467
vt -0.0065 0.0633
vt 0.0065 0.0633
vt 0.0065 0.1467
vt -0.0065 0.1467
vt -0.0065 0.0633
vt 0.0065 0.0633
vt 0.0065 0.1467
vt -0.0065 0.1467
vt -0.0065 0.0633
vt -0.0589 0.0633
vt -0.0589 0.1467
vt -0.0719 0.1467
vt -0.0719 0.0633
vt 0.9000 0.0633
vt 1.0000 0.0000
vt 1.0000 0.1467
vt 0.9000 0.1467
vt 0.9000 0.0000
vt 0.9009 0.0131
vt 1.0000 0.1000
vt 0.9869 0.0991
vt 0.9741 0.0966
vt 0.9617 0.0924
vt 0.9500 0.0866
vt 0.9207 0.0609
vt 0.9134 0.0500
vt 0.9076 0.0383
vt 0.9034 0.0259
vt -0.1885 0.0633
vt -0.1885 0.1467
vt -0.2016 0.1467
vt -0.2016 0.0633
vt -0.3149 0.0633
vt -0.3149 0.1467
vt -0.3280 0.1467
vt -0.3280 0.0633
vt -0.4357 0.0633
vt -0.4357 0.1467
vt -0.4488 0.1467
vt -0.4488 0.0633
vt -0.5490 0.0633
vt -0.5490 0.1467
vt -0.5621 0.1467
vt -0.5621 0.0633
vt -0.6528 0.0633
vt -0.6528 0.1467
vt -0.6659 0.1467
vt -0.6659 0.0633
vt -0.7453 0.0633
vt -0.7453 0.1467
vt -0.7584 0.1467
vt -0.7584 0.0633
vt -0.8903 0.0633
vt -0.8903 0.1467
vt -0.9034 0.1467
vt -0.9034 0.0633
vt -0.9404 0.0633
vt -0.9404 0.1467
vt -0.9535 0.1467
vt -0.9535 0.0633
vt -0.9742 0.0633
vt -0.9742 0.1467
vt -0.9873 0.1467
vt -0.9873 0.0633
vt -0.9913 0.0633
vt -0.9913 0.1467
vt -1.0044 0.1467
vt -1.0044 0.0633
vt -0.8249 0.0633
vt -0.8249 0.1467
vt -0.8380 0.1467
vt -0.8380 0.0633
vt 0.9000 0.0000
vt -1.0000 1.0000
vt -0.0000 1.0000
vt 0.9869 0.0991
vt 1.0000 1.0000
vt 0.9741 0.0966
vt 0.0000 1.0000
vt 0.0609 0.0793
vt 0.9391 0.0793
vt 0.0924 0.0383
vt 0.9076 0.0383
vt 0.9134 0.0500
vt 0.0866 0.0500
vt 0.9207 0.0609
vt 0.0793 0.0609
vt 0.0707 0.0707
vt 0.9293 0.0707
vt 0.0500 0.0866
vt 0.0991 0.0131
vt 0.9009 0.0131
vt 0.9034 0.0259
vt 0.0966 0.0259
vt 0.0383 0.0924
vt 0.9500 0.0866
vt 0.0259 0.0966
vt 0.9617 0.0924
vt 0.0000 0.1000
vt 0.0131 0.0991
vt 1.0000 0.1000
vt -1.0000 0.0633
vt -1.0000 0.0000
vt -1.0000 0.0633
vt -1.0000 0.0000
vt 0.0000 0.0000
vt 0.0000 0.0633
vt 1.0000 0.0000
vt 1.0000 0.0633
vt 0.9000 -0.0000
vt 0.1000 0.0000
vn 0.0000 -1.0000 -0.0000
vn -0.0000 -0.0000 1.0000
vn 0.0000 1.0000 -0.0000
vn 1.0000 0.0000 0.0000
vn 0.0654 0.0000 -0.9979
vn 0.1305 0.0000 -0.9914
vn -1.0000 0.0000 -0.0000
vn 0.9659 0.0000 -0.2588
vn 0.9914 -0.0000 -0.1305
vn 0.9979 -0.0000 -0.0654
vn 0.9239 0.0000 -0.3827
vn 0.8660 0.0000 -0.5000
vn 0.7934 0.0000 -0.6088
vn 0.7071 0.0000 -0.7071
vn 0.6088 0.0000 -0.7934
vn 0.5000 0.0000 -0.8660
vn 0.3827 0.0000 -0.9239
vn 0.2588 0.0000 -0.9659
vn -0.9979 0.0000 -0.0655
vn -0.9914 0.0000 -0.1305
vn -0.9659 0.0000 -0.2588
vn -0.9239 0.0000 -0.3827
vn -0.8661 0.0000 -0.4999
vn -0.7933 0.0000 -0.6088
vn -0.7071 0.0000 -0.7071
vn -0.6088 -0.0000 -0.7933
vn -0.5000 -0.0000 -0.8660
vn -0.3827 0.0000 -0.9239
vn -0.2588 0.0000 -0.9659
vn -0.1305 0.0000 -0.9914
vn -0.0654 0.0000 -0.9979
vn 0.0000 0.0000 -1.0000
usemtl Red.021
s 1
f 3/1/1 6/2/1 8/3/1
f 6/4/2 12/5/2 7/6/2
f 18/7/3 19/8/3 11/9/3
f 3/10/4 38/11/4 4/12/4
f 57/13/3 58/14/3 52/15/3
f 10/16/5 9/17/5 24/18/6 25/19/6
f 3/1/1 4/20/1 5/21/1
f 6/2/1 7/6/1 8/3/1
f 3/1/1 5/21/1 6/2/1
f 12/5/2 13/22/2 11/23/2 7/6/2
f 10/24/7 8/25/7 7/6/7
f 38/11/4 51/26/4 52/27/4 4/12/4
f 9/28/3 11/9/3 24/29/3
f 13/30/3 14/31/3 11/9/3
f 15/32/3 16/33/3 11/9/3
f 17/34/3 18/7/3 11/9/3
f 19/8/3 20/35/3 11/9/3
f 21/36/3 22/37/3 11/9/3
f 23/38/3 24/29/3 11/9/3
f 11/9/3 14/31/3 15/32/3
f 16/33/3 17/34/3 11/9/3
f 20/35/3 21/36/3 11/9/3
f 23/38/3 11/9/3 22/37/3
f 10/24/7 7/6/7 11/23/7 9/39/7
f 49/40/8 15/41/8 14/42/9 50/43/9
f 50/44/9 14/45/9 13/46/10 12/47/10
f 48/48/11 16/49/11 15/50/8 49/51/8
f 47/52/12 17/53/12 16/54/11 48/55/11
f 46/56/13 18/57/13 17/58/12 47/59/12
f 45/60/14 19/61/14 18/62/13 46/63/13
f 44/64/15 20/65/15 19/66/14 45/67/14
f 43/68/16 21/69/16 20/70/15 44/71/15
f 42/72/17 22/73/17 21/74/16 43/75/16
f 41/76/18 23/77/18 22/78/17 42/79/17
f 25/80/6 24/81/6 23/82/18 41/83/18
f 26/84/19 64/85/19 63/86/20 27/87/20
f 26/88/2 4/89/2 52/90/2 64/91/2
f 64/92/3 52/15/3 63/93/3
f 51/94/3 53/95/3 52/15/3
f 54/96/3 55/97/3 52/15/3
f 56/98/3 57/13/3 52/15/3
f 58/14/3 59/99/3 52/15/3
f 60/100/3 61/101/3 52/15/3
f 62/102/3 63/93/3 52/15/3
f 52/15/3 53/95/3 54/96/3
f 55/97/3 56/98/3 52/15/3
f 59/99/3 60/100/3 52/15/3
f 62/102/3 52/15/3 61/101/3
f 27/103/20 63/104/20 62/105/21 28/106/21
f 28/107/21 62/108/21 61/109/22 29/110/22
f 29/111/22 61/112/22 60/113/23 30/114/23
f 30/115/23 60/116/23 59/117/24 31/118/24
f 31/119/24 59/120/24 58/121/25 32/122/25
f 32/123/25 58/124/25 57/125/26 33/126/26
f 34/127/27 56/128/27 55/129/28 35/130/28
f 35/131/28 55/132/28 54/133/29 36/134/29
f 36/135/29 54/136/29 53/137/30 37/138/30
f 37/139/30 53/140/30 51/141/31 38/142/31
f 33/143/26 57/144/26 56/145/27 34/146/27
f 26/88/2 5/147/2 4/89/2
f 2/148/1 3/1/1 8/3/1 1/149/1
usemtl Green.022
f 37/150/3 39/151/3 36/152/3
f 12/5/2 6/4/2 5/147/2 26/88/2
f 39/151/3 40/153/3 44/154/3 33/155/3
f 48/156/3 29/157/3 30/158/3 47/159/3
f 47/159/3 30/158/3 31/160/3 46/161/3
f 45/162/3 46/161/3 31/160/3
f 45/162/3 31/160/3 32/163/3
f 44/154/3 45/162/3 33/155/3
f 45/162/3 32/163/3 33/155/3
f 43/164/3 44/154/3 40/153/3
f 50/165/3 27/166/3 28/167/3 49/168/3
f 42/169/3 43/164/3 40/153/3
f 33/155/3 34/170/3 39/151/3
f 41/171/3 42/169/3 40/153/3
f 34/170/3 35/172/3 39/151/3
f 40/153/3 10/173/3 25/174/3
f 25/174/3 41/171/3 40/153/3
f 37/150/3 38/175/3 39/151/3
f 35/172/3 36/152/3 39/151/3
f 40/176/7 1/177/7 8/25/7 10/24/7
f 39/178/32 2/179/32 1/180/32 40/181/32
f 2/182/4 39/183/4 38/11/4 3/10/4
f 26/184/3 27/166/3 50/165/3 12/185/3
f 28/167/3 29/157/3 48/156/3 49/168/3
