# Blender v2.78 (sub 0) OBJ File: ''
# www.blender.org
mtllib Windmill_01.mtl
o Mesh1_Windmill_Model
v 0.300000 0.440000 -3.000000
v 0.300000 0.190000 -3.000000
v 0.300000 0.000000 -3.000000
v 0.000000 0.000000 -3.000000
v 0.000000 0.440000 -3.000000
v 0.000000 0.000000 -0.000000
v 0.000000 0.440000 0.000000
v 0.300000 0.440000 0.000000
v 0.300000 0.440000 -0.300000
v 0.300000 0.440000 -2.700000
v 0.300000 0.190000 -2.700000
v 0.300000 0.190000 -0.300000
v 0.300000 0.890000 -0.300000
v 0.300000 0.890000 -2.700000
v 2.700000 0.890000 -0.300000
v 2.700000 0.890000 -2.700000
v 2.700000 0.190000 -2.700000
v 2.100000 0.190000 -2.700000
v 2.058740 0.324773 -2.700000
v 1.987640 0.446477 -2.700000
v 1.890510 0.548615 -2.700000
v 1.772530 0.625734 -2.700000
v 1.640000 0.673716 -2.700000
v 1.500000 0.690000 -2.700000
v 1.360000 0.673716 -2.700000
v 1.227470 0.625734 -2.700000
v 1.109490 0.548615 -2.700000
v 1.012360 0.446477 -2.700000
v 0.941264 0.324773 -2.700000
v 0.900000 0.190000 -2.700000
v 2.700000 0.440000 -2.700000
v 2.100000 0.190000 -0.300000
v 2.700000 0.190000 -0.300000
v 0.900000 0.190000 -0.300000
v 0.941264 0.324773 -0.300000
v 1.012360 0.446477 -0.300000
v 1.109490 0.548615 -0.300000
v 1.227470 0.625734 -0.300000
v 1.360000 0.673716 -0.300000
v 1.500000 0.690000 -0.300000
v 1.640000 0.673716 -0.300000
v 1.772530 0.625734 -0.300000
v 1.890510 0.548615 -0.300000
v 1.987640 0.446477 -0.300000
v 2.058740 0.324773 -0.300000
v 2.700000 0.440000 -0.300000
v 2.100000 2.990000 -0.300000
v 1.500000 3.390000 -0.300000
v 0.900000 2.990000 -0.300000
v 2.100000 2.990000 -2.700000
v 3.000000 0.440000 -3.000000
v 2.700000 0.440000 -3.000000
v 2.700000 0.440000 0.000000
v 3.000000 0.440000 0.000000
v 2.700000 0.190000 0.000000
v 2.700000 0.000000 -0.000000
v 3.000000 0.000000 0.000000
v 3.000000 0.000000 -3.000000
v 2.700000 0.000000 -3.000000
v 0.300000 0.000000 -0.000000
v 0.300000 0.190000 0.000000
v 2.700000 0.190000 -3.000000
v 0.900000 2.990000 -2.700000
v 1.500000 3.390000 -2.700000
vt -0.1000 0.1467
vt -0.1000 0.0633
vt -0.1000 0.0000
vt -0.0000 0.0000
vt -0.0000 0.1467
vt -0.0000 0.0000
vt -0.0000 0.1467
vt -1.0000 0.1467
vt -1.0000 0.0000
vt 0.1000 1.0000
vt 0.0000 1.0000
vt 0.0000 0.0000
vt 0.1000 0.0000
vt 0.1000 0.1000
vt 0.1000 0.9000
vt -0.9000 0.0633
vt -0.1000 0.0633
vt -0.1000 0.1467
vt -0.9000 0.1467
vt 0.9000 0.9000
vt 0.7000 0.9000
vt 0.7000 0.1000
vt 0.9000 0.1000
vt 1.0000 1.0000
vt 0.9000 1.0000
vt 0.9000 0.9000
vt 0.9000 0.1000
vt 0.9000 0.0000
vt 1.0000 0.0000
vt 0.9000 0.1467
vt 0.9000 0.0633
vt 0.9000 0.0000
vt 1.0000 0.0000
vt 1.0000 0.1467
vt 1.0000 0.1467
vt 0.0000 0.1467
vt 0.0000 0.0000
vt 1.0000 0.0000
vt -0.9000 1.0000
vt -1.0000 1.0000
vt -1.0000 0.0000
vt -0.9000 0.0000
vt -0.1000 0.0000
vt -0.0000 1.0000
vt -0.1000 1.0000
vt 0.1000 0.0000
vt 0.1000 0.0633
vt 0.1000 0.1467
vt 0.0000 0.1467
vt 0.0000 0.0633
vt 0.1000 0.0633
vt 0.1000 0.1467
vt 0.9000 -0.0296
vt 0.9000 0.2108
vt 0.1000 0.2108
vt 0.1000 -0.0296
vt -0.1000 0.8025
vt -0.1000 1.0428
vt -0.9000 1.0428
vt -0.9000 0.8025
vt 1.0000 0.0633
vt 1.0000 0.1467
vt 0.9000 0.1467
vt 0.9000 0.0633
vt -1.0000 0.0000
vt -0.9000 0.0000
vt -0.9000 0.0633
vt -0.9000 0.1467
vt -1.0000 0.1467
vt -1.0000 0.1467
vt -1.0000 0.0633
vt -0.9000 0.0633
vt -0.9000 0.1467
vt 0.9000 0.1467
vt 0.1000 0.1467
vt 0.1000 0.0633
vt 0.9000 0.0633
vt -0.0000 0.0633
vt -0.0000 0.1467
vt -0.1000 0.1467
vt -0.1000 0.0633
vt 0.3000 0.1000
vt 0.3000 0.9000
vt 0.1000 0.9000
vt 0.1000 0.1000
vt 0.1000 0.0000
vt 0.9000 0.0000
vt 0.9000 1.0000
vt 0.1000 1.0000
vt -0.1000 0.2967
vt -0.9000 0.2967
vt 0.9000 0.1000
vt 0.9000 0.9000
vt 0.1000 0.9000
vt 0.1000 0.1000
vt -0.7000 0.0633
vt -0.6862 0.1083
vt -0.6625 0.1488
vt -0.6302 0.1829
vt -0.5908 0.2086
vt -0.5467 0.2246
vt -0.5000 0.2300
vt -0.4533 0.2246
vt -0.4092 0.2086
vt -0.3698 0.1829
vt -0.3375 0.1488
vt -0.3138 0.1083
vt -0.3000 0.0633
vt -0.1000 0.0633
vt -0.1000 0.1467
vt -0.1000 0.2967
vt -0.9000 0.2967
vt 0.3000 0.0633
vt 0.3138 0.1083
vt 0.3375 0.1488
vt 0.3698 0.1829
vt 0.4092 0.2086
vt 0.4533 0.2246
vt 0.5000 0.2300
vt 0.5467 0.2246
vt 0.5908 0.2086
vt 0.6302 0.1829
vt 0.6625 0.1488
vt 0.6862 0.1083
vt 0.7000 0.0633
vt 0.9000 0.0633
vt 0.9000 0.1467
vt 0.9000 0.2967
vt 0.1000 0.2967
vt 0.7000 0.9967
vt 0.5000 1.1300
vt 0.3000 0.9967
vt 0.1000 0.0380
vt 0.9000 0.0380
vt 0.9000 0.7660
vt 0.1000 0.7660
vt 0.9000 0.2967
vt 0.1000 0.2967
vt -0.3000 0.9967
vt -0.5000 1.1300
vt -0.7000 0.9967
vt -0.1000 1.0407
vt -0.9000 1.0407
vt -0.9000 0.3127
vt -0.1000 0.3127
vt -0.1000 -0.1444
vt -0.1000 -0.0974
vt -0.9000 -0.0974
vt -0.9000 -0.1444
vt -0.1000 -0.2527
vt -0.1000 -0.2057
vt -0.9000 -0.2057
vt -0.9000 -0.2527
vt -0.1000 -0.3487
vt -0.1000 -0.3017
vt -0.9000 -0.3017
vt -0.9000 -0.3487
vt -0.1000 -0.4274
vt -0.1000 -0.3804
vt -0.9000 -0.3804
vt -0.9000 -0.4274
vt -0.1000 -0.4845
vt -0.1000 -0.4376
vt -0.9000 -0.4376
vt -0.9000 -0.4845
vt -0.1000 -0.5171
vt -0.1000 -0.4701
vt -0.9000 -0.4701
vt -0.9000 -0.5171
vt 0.1000 0.5232
vt 0.1000 0.4762
vt 0.9000 0.4762
vt 0.9000 0.5232
vt 0.1000 0.5027
vt 0.1000 0.4557
vt 0.9000 0.4557
vt 0.9000 0.5027
vt 0.1000 0.4566
vt 0.1000 0.4096
vt 0.9000 0.4096
vt 0.9000 0.4566
vt 0.1000 0.3874
vt 0.1000 0.3404
vt 0.9000 0.3404
vt 0.9000 0.3874
vt 0.1000 0.2987
vt 0.1000 0.2517
vt 0.9000 0.2517
vt 0.9000 0.2987
vt 0.1000 0.1954
vt 0.1000 0.1484
vt 0.9000 0.1484
vt 0.9000 0.1954
vn 0.0000 0.0000 -1.0000
vn -1.0000 0.0000 -0.0000
vn 0.0000 1.0000 0.0000
vn -0.0000 -0.0000 1.0000
vn 1.0000 0.0000 0.0000
vn 0.0000 -1.0000 -0.0000
vn 0.5547 0.8321 0.0000
vn -0.5547 0.8321 0.0000
vn 0.9615 0.2747 0.0000
vn -0.9615 0.2747 0.0000
vn -0.9562 -0.2927 -0.0000
vn -0.9160 -0.4013 -0.0000
vn -0.7994 -0.6008 -0.0000
vn -0.6402 -0.7682 -0.0000
vn -0.4468 -0.8946 -0.0000
vn -0.2295 -0.9733 -0.0000
vn 0.2295 -0.9733 -0.0000
vn 0.4468 -0.8946 -0.0000
vn 0.6402 -0.7682 -0.0000
vn 0.7994 -0.6008 -0.0000
vn 0.9160 -0.4013 -0.0000
vn 0.9562 -0.2928 -0.0000
usemtl Red.047
s 1
f 1/1/1 2/2/1 3/3/1 4/4/1 5/5/1
f 6/6/2 7/7/2 5/8/2 4/9/2
f 1/10/3 5/11/3 7/12/3 8/13/3 9/14/3 10/15/3
f 11/16/2 12/17/2 9/18/2 10/19/2
f 17/20/3 18/21/3 32/22/3 33/23/3
f 51/24/3 52/25/3 31/26/3 46/27/3 53/28/3 54/29/3
f 53/30/4 55/31/4 56/32/4 57/33/4 54/34/4
f 51/35/5 54/36/5 57/37/5 58/38/5
f 59/39/6 58/40/6 57/41/6 56/42/6 60/43/6 6/6/6 4/44/6 3/45/6
f 6/6/4 60/46/4 61/47/4 8/48/4 7/7/4
f 8/49/5 61/50/5 12/51/5 9/52/5
f 50/53/7 64/54/7 48/55/7 47/56/7
f 49/57/8 48/58/8 64/59/8 63/60/8
f 2/61/5 1/62/5 10/63/5 11/64/5
f 58/65/1 59/66/1 62/67/1 52/68/1 51/69/1
f 52/70/2 62/71/2 17/72/2 31/73/2
f 31/74/5 46/75/5 33/76/5 17/77/5
f 55/78/2 53/79/2 46/80/2 33/81/2
f 34/82/3 30/83/3 11/84/3 12/85/3
usemtl Green.046
f 11/84/3 30/83/3 34/82/3 12/85/3 61/86/3 55/87/3 33/23/3 32/22/3 18/21/3 17/20/3 62/88/3 2/89/3
f 59/66/1 3/3/1 2/2/1 62/67/1
f 60/46/4 56/32/4 55/31/4 61/47/4
usemtl Brown.005
f 13/90/2 14/91/2 10/19/2 9/18/2
f 15/92/3 16/93/3 14/94/3 13/95/3
f 17/72/1 18/96/1 19/97/1 20/98/1 21/99/1 22/100/1 23/101/1 24/102/1 25/103/1 26/104/1 27/105/1 28/106/1 29/107/1 30/108/1 11/109/1 10/110/1 14/111/1 16/112/1 31/73/1
f 12/51/4 34/113/4 35/114/4 36/115/4 37/116/4 38/117/4 39/118/4 40/119/4 41/120/4 42/121/4 43/122/4 44/123/4 45/124/4 32/125/4 33/126/4 46/127/4 15/128/4 13/129/4 9/52/4
f 15/128/4 47/130/4 48/131/4 49/132/4 13/129/4
f 15/133/9 16/134/9 50/135/9 47/136/9
f 16/137/5 15/138/5 46/75/5 31/74/5
f 14/111/1 63/139/1 64/140/1 50/141/1 16/112/1
f 49/142/10 63/143/10 14/144/10 13/145/10
f 32/146/11 45/147/12 19/148/12 18/149/11
f 45/150/12 44/151/13 20/152/13 19/153/12
f 44/154/13 43/155/14 21/156/14 20/157/13
f 43/158/14 42/159/15 22/160/15 21/161/14
f 42/162/15 41/163/16 23/164/16 22/165/15
f 41/166/16 40/167/6 24/168/6 23/169/16
f 40/170/6 39/171/17 25/172/17 24/173/6
f 39/174/17 38/175/18 26/176/18 25/177/17
f 38/178/18 37/179/19 27/180/19 26/181/18
f 37/182/19 36/183/20 28/184/20 27/185/19
f 36/186/20 35/187/21 29/188/21 28/189/20
f 35/190/21 34/191/22 30/192/22 29/193/21
