# Blender v2.78 (sub 0) OBJ File: ''
# www.blender.org
mtllib Windmill_blades_01.mtl
o Mesh1_Windmill_blades_Model
v 2.071730 2.291460 0.000000
v 2.401330 2.181600 0.000000
v 2.291460 2.071730 0.000000
v 2.401330 2.291460 0.000000
v 2.730940 2.291460 0.000000
v 2.511200 2.071730 0.000000
v 4.261210 0.980929 0.000000
v 3.821740 0.541455 0.000000
v 2.511200 1.851990 0.000000
v 2.950680 2.291460 0.000000
v 4.261210 0.980929 0.200000
v 3.821740 0.541455 0.200000
v 2.730940 2.291460 0.200000
v 2.511200 2.071730 0.200000
v 2.511200 1.851990 0.200000
v 2.950680 2.291460 0.200000
v 2.730940 2.291460 0.100000
v 2.511200 2.071730 0.100000
v 2.401330 2.181600 0.100000
v 2.401330 2.291460 0.100000
v 2.429770 2.295210 0.100000
v 2.456270 2.306180 0.100000
v 2.621070 2.401330 0.100000
v 2.621070 2.401330 0.000000
v 2.456270 2.306180 0.000000
v 2.429770 2.295210 0.000000
v 2.291460 2.071730 0.100000
v 2.071730 2.291460 0.100000
v 2.071730 2.291460 0.200000
v 2.291460 2.071730 0.200000
v 1.851990 2.291460 0.200000
v 0.541455 0.980929 0.200000
v 0.980929 0.541455 0.200000
v 2.291460 1.851990 0.200000
v 0.980929 0.541455 0.000000
v 2.291460 1.851990 0.000000
v 0.541455 0.980929 0.000000
v 1.851990 2.291460 0.000000
v 2.181600 2.401330 0.000000
v 2.181600 2.401330 0.100000
v 2.346400 2.306180 0.000000
v 2.372900 2.295210 0.000000
v 2.429770 2.507460 0.000000
v 2.456270 2.496480 0.000000
v 2.479020 2.479020 0.000000
v 2.496480 2.456270 0.000000
v 2.507460 2.429770 0.000000
v 2.511200 2.401330 0.000000
v 2.507460 2.372900 0.000000
v 2.496480 2.346400 0.000000
v 2.479020 2.323640 0.000000
v 2.323640 2.323640 0.000000
v 2.306180 2.346400 0.000000
v 2.295210 2.372900 0.000000
v 2.291460 2.401330 0.000000
v 2.295210 2.429770 0.000000
v 2.306180 2.456270 0.000000
v 2.323640 2.479020 0.000000
v 2.346400 2.496480 0.000000
v 2.372900 2.507460 0.000000
v 2.401330 2.511200 0.000000
v 2.730940 2.511200 0.000000
v 2.071730 2.511200 0.000000
v 2.346400 2.306180 0.100000
v 2.372900 2.295210 0.100000
v 2.401330 2.291460 0.200000
v 2.372900 2.295210 0.200000
v 2.429770 2.295210 0.200000
v 2.346400 2.306180 0.200000
v 2.323640 2.323640 0.200000
v 2.323640 2.323640 0.100000
v 2.306180 2.346400 0.200000
v 2.306180 2.346400 0.100000
v 2.295210 2.372900 0.200000
v 2.295210 2.372900 0.100000
v 2.291460 2.401330 0.200000
v 2.291460 2.401330 0.100000
v 2.295210 2.429770 0.200000
v 2.295210 2.429770 0.100000
v 2.306180 2.456270 0.200000
v 2.306180 2.456270 0.100000
v 2.323640 2.479020 0.200000
v 2.323640 2.479020 0.100000
v 2.346400 2.496480 0.200000
v 2.346400 2.496480 0.100000
v 2.372900 2.507460 0.200000
v 2.372900 2.507460 0.100000
v 2.401330 2.511200 0.200000
v 2.401330 2.511200 0.100000
v 2.429770 2.507460 0.200000
v 2.429770 2.507460 0.100000
v 2.456270 2.496480 0.200000
v 2.456270 2.496480 0.100000
v 2.479020 2.479020 0.200000
v 2.479020 2.479020 0.100000
v 2.496480 2.456270 0.200000
v 2.496480 2.456270 0.100000
v 2.507460 2.429770 0.200000
v 2.507460 2.429770 0.100000
v 2.511200 2.401330 0.200000
v 2.511200 2.401330 0.100000
v 2.507460 2.372900 0.200000
v 2.507460 2.372900 0.100000
v 2.496480 2.346400 0.200000
v 2.496480 2.346400 0.100000
v 2.479020 2.323640 0.200000
v 2.479020 2.323640 0.100000
v 2.456270 2.306180 0.200000
v 2.730940 2.511200 0.100000
v 2.401330 2.621070 0.100000
v 2.291460 2.730940 0.100000
v 2.071730 2.511200 0.100000
v 2.291460 2.730940 0.000000
v 0.541455 3.821740 0.000000
v 0.980929 4.261210 0.000000
v 2.291460 2.950680 0.000000
v 1.851990 2.511200 0.000000
v 0.541455 3.821740 0.200000
v 0.980929 4.261210 0.200000
v 2.071730 2.511200 0.200000
v 2.291460 2.730940 0.200000
v 2.291460 2.950680 0.200000
v 1.851990 2.511200 0.200000
v 2.401330 2.621070 0.000000
v 2.511200 2.730940 0.100000
v 2.511200 2.730940 0.000000
v 3.821740 4.261210 0.000000
v 4.261210 3.821740 0.000000
v 2.950680 2.511200 0.000000
v 2.511200 2.950680 0.000000
v 3.821740 4.261210 0.200000
v 4.261210 3.821740 0.200000
v 2.511200 2.730940 0.200000
v 2.730940 2.511200 0.200000
v 2.950680 2.511200 0.200000
v 2.511200 2.950680 0.200000
vt -0.6906 0.7638
vt -0.8004 0.7272
vt -0.7638 0.6906
vt -0.8004 0.7638
vt -0.9103 0.7638
vt -0.8371 0.6906
vt -0.8371 0.6173
vt -0.9836 0.7638
vt 0.9103 0.0000
vt 0.9103 -0.0333
vt 0.9836 0.0000
vt 0.0667 0.6173
vt 0.0667 0.6906
vt 0.0333 0.6906
vt -0.8188 0.7687
vt -0.8737 0.8004
vt -0.8099 0.7651
vt 0.0000 0.6906
vt -0.0333 0.6906
vt 0.0000 0.6173
vt -0.6173 0.7638
vt -0.7638 0.6173
vt 0.6173 -0.0667
vt 0.6906 -0.0667
vt 0.6906 -0.0333
vt -0.7821 0.7687
vt -0.7272 0.8004
vt -0.7910 0.7651
vt -0.9103 0.8371
vt -0.8188 0.8322
vt -0.8099 0.8358
vt -0.8263 0.8263
vt -0.8322 0.8188
vt -0.8358 0.8099
vt -0.8371 0.8004
vt -0.8358 0.7910
vt -0.8322 0.7821
vt -0.8263 0.7745
vt -0.7910 0.8358
vt -0.6906 0.8371
vt -0.8004 0.8371
vt -0.7821 0.8322
vt -0.7745 0.8263
vt -0.7687 0.8188
vt -0.7651 0.8099
vt -0.7638 0.8004
vt -0.7651 0.7910
vt -0.7687 0.7821
vt -0.7745 0.7745
vt -0.7638 0.9103
vt -0.7638 0.9836
vt -0.6173 0.8371
vt -0.6906 0.0000
vt -0.6906 -0.0333
vt -0.6173 0.0000
vt -0.0667 0.9836
vt -0.0667 0.9103
vt -0.0333 0.9103
vt -0.8004 0.8737
vt -0.8371 0.9103
vt -0.9836 0.8371
vt -0.8371 0.9836
vt -0.0000 0.9103
vt 0.0333 0.9103
vt -0.0000 0.9836
vt -0.9836 -0.0667
vt -0.9103 -0.0667
vt -0.9103 -0.0333
vt -0.3270 1.4204
vt -0.1805 1.2739
vt -0.0667 -0.7732
vt -0.0000 -0.7732
vt 0.0000 -0.1554
vt -0.0667 -0.1554
vt 0.9836 0.7638
vt 0.9103 0.7638
vt 0.8371 0.6906
vt 0.8371 0.6173
vt 0.9103 -0.0667
vt 0.9836 -0.0667
vt 0.0667 1.1838
vt 0.0333 1.1838
vt 0.0333 1.0802
vt 0.0667 1.0802
vt -0.0000 0.6173
vt -0.0000 0.6906
vt 0.0667 -0.1554
vt -0.0000 -0.1554
vt 0.0000 -0.7732
vt 0.0667 -0.7732
vt -0.0667 0.6906
vt -0.0667 0.6173
vt -0.0667 -0.0518
vt -0.0333 -0.0518
vt -0.0333 0.0518
vt -0.0667 0.0518
vt -0.0667 0.3588
vt 0.0000 0.3588
vt 0.0000 0.9766
vt -0.0667 0.9766
vt 0.7638 0.6173
vt 0.7638 0.6906
vt 0.6906 0.7638
vt 0.6173 0.7638
vt -1.4204 1.2739
vt -1.2739 1.4204
vt 0.0667 0.1036
vt -0.0000 0.1036
vt -0.0000 -0.1036
vt 0.0667 -0.1036
vt 0.6173 0.0000
vt 0.6906 0.0000
vt 0.1805 0.3270
vt 0.3270 0.1805
vt 0.0667 0.9766
vt -0.0000 0.9766
vt -0.0000 0.3588
vt 0.0667 0.3588
vt -0.6906 -0.0667
vt -0.6173 -0.0667
vt -0.0333 0.8933
vt -0.0333 0.9029
vt -0.0667 0.9029
vt -0.0667 0.8933
vt 0.7821 0.8322
vt 0.7651 0.7910
vt 0.8322 0.7821
vt 0.8263 0.8263
vt 0.0333 -0.6843
vt 0.0333 -0.6939
vt 0.0667 -0.6939
vt 0.0667 -0.6843
vt 0.0333 0.6939
vt 0.0333 0.6843
vt 0.0667 0.6843
vt 0.0667 0.6939
vt 0.0333 -0.4284
vt 0.0333 -0.4380
vt 0.0667 -0.4380
vt 0.0667 -0.4284
vt 0.0333 -0.1430
vt 0.0333 -0.1525
vt 0.0667 -0.1525
vt 0.0667 -0.1430
vt 0.0333 0.1525
vt 0.0333 0.1430
vt 0.0667 0.1430
vt 0.0667 0.1525
vt 0.0333 0.4380
vt 0.0333 0.4284
vt 0.0667 0.4284
vt 0.0667 0.4380
vt 0.0333 0.9029
vt 0.0333 0.8933
vt 0.0667 0.8933
vt 0.0667 0.9029
vt -0.0000 0.6939
vt -0.0000 0.6843
vt 0.0333 1.0506
vt 0.0333 1.0410
vt 0.0667 1.0410
vt 0.0667 1.0506
vt 0.0333 1.1271
vt 0.0333 1.1175
vt 0.0667 1.1175
vt 0.0667 1.1271
vt 0.0333 1.1271
vt 0.0333 1.1175
vt 0.0667 1.1175
vt 0.0667 1.1271
vt 0.0333 1.0506
vt 0.0333 1.0410
vt 0.0667 1.0410
vt 0.0667 1.0506
vt 0.0333 0.9029
vt 0.0333 0.8933
vt 0.0667 0.8933
vt 0.0667 0.9029
vt -0.0333 -0.6939
vt -0.0333 -0.6843
vt -0.0667 -0.6843
vt -0.0667 -0.6939
vt -0.0333 -0.4380
vt -0.0333 -0.4284
vt -0.0667 -0.4284
vt -0.0667 -0.4380
vt -0.0333 -0.1525
vt -0.0333 -0.1430
vt -0.0667 -0.1430
vt -0.0667 -0.1525
vt -0.0333 0.1430
vt -0.0333 0.1525
vt -0.0667 0.1525
vt -0.0667 0.1430
vt -0.0333 0.4284
vt -0.0333 0.4380
vt -0.0667 0.4380
vt -0.0667 0.4284
vt -0.0333 0.6843
vt -0.0333 0.6939
vt -0.0667 0.6939
vt -0.0667 0.6843
vt -0.0333 0.8933
vt -0.0333 0.9029
vt -0.0667 0.9029
vt -0.0667 0.8933
vt -0.0333 1.0410
vt -0.0333 1.0506
vt -0.0667 1.0506
vt -0.0667 1.0410
vt -0.0333 1.1175
vt -0.0333 1.1271
vt -0.0667 1.1271
vt -0.0667 1.1175
vt -0.0333 1.1175
vt -0.0333 1.1271
vt -0.0667 1.1271
vt -0.0667 1.1175
vt -0.0333 1.0410
vt -0.0333 1.0506
vt -0.0667 1.0506
vt -0.0667 1.0410
vt 0.0000 1.0410
vt 0.0000 1.0506
vt 0.8263 0.7745
vt 0.7910 0.7651
vt 0.8358 0.7910
vt 0.8371 0.8004
vt 0.8358 0.8099
vt 0.8322 0.8188
vt 0.8188 0.8322
vt 0.8099 0.8358
vt 0.8004 0.8371
vt 0.7910 0.8358
vt 0.7745 0.8263
vt 0.7687 0.8188
vt 0.7651 0.8099
vt 0.7638 0.8004
vt 0.7687 0.7821
vt 0.7745 0.7745
vt 0.7821 0.7687
vt 0.8004 0.7638
vt 0.8099 0.7651
vt 0.8188 0.7687
vt 0.0000 1.1175
vt 0.0000 1.1271
vt 0.0000 0.4284
vt 0.0000 0.4380
vt -0.0000 -0.1430
vt -0.0000 -0.1525
vt -0.0000 1.0506
vt -0.0000 1.0410
vt 0.0667 1.2356
vt -0.0000 1.2356
vt -0.0000 1.0284
vt 0.0667 1.0284
vt 0.7638 0.9836
vt 0.3270 1.4204
vt 0.1805 1.2739
vt 0.6173 0.8371
vt 0.0667 0.7732
vt -0.0000 0.7732
vt -0.0000 0.1554
vt 0.0667 0.1554
vt 0.6906 0.8371
vt 0.7638 0.9103
vt 1.2739 0.1805
vt 1.4204 0.3270
vt -0.0667 1.0802
vt -0.0333 1.0802
vt -0.0333 1.1838
vt -0.0667 1.1838
vt 0.0000 0.9836
vt 0.0000 0.9103
vt -0.0667 0.1554
vt 0.0000 0.1554
vt 0.0000 0.7732
vt -0.0667 0.7732
vt 0.0667 0.9103
vt 0.0667 0.9836
vt 0.0000 -0.4380
vt 0.0000 -0.4284
vt 0.0000 -0.6939
vt 0.0000 -0.6843
vt -0.0000 0.9029
vt -0.0000 0.8933
vt -0.0000 1.0506
vt -0.0000 1.0410
vt -0.0000 1.1271
vt -0.0000 1.1175
vt -0.0000 1.1271
vt -0.0000 1.1175
vt -0.0000 0.9029
vt -0.0000 0.8933
vt -0.0000 0.4380
vt -0.0000 0.4284
vt -0.1805 0.3270
vt -0.3270 0.1805
vt -0.0000 0.1525
vt -0.0000 0.1430
vt -0.0000 -0.4284
vt -0.0000 -0.4380
vt 0.0000 -0.1525
vt 0.0000 -0.1430
vt 0.0000 0.1430
vt 0.0000 0.1525
vt -0.0667 -0.1036
vt 0.0000 -0.1036
vt 0.0000 0.1036
vt -0.0667 0.1036
vt 0.9836 0.8371
vt 1.4204 1.2739
vt 1.2739 1.4204
vt 0.8371 0.9836
vt 0.0667 1.9052
vt -0.0000 1.9052
vt -0.0000 1.2874
vt 0.0667 1.2874
vt 0.8371 0.9103
vt 0.9103 0.8371
vt -1.2739 0.1805
vt -1.4204 0.3270
vt 0.0667 0.0518
vt 0.0333 0.0518
vt 0.0333 -0.0518
vt 0.0667 -0.0518
vt -0.9836 0.0000
vt -0.9103 0.0000
vt -0.0667 1.2874
vt 0.0000 1.2874
vt 0.0000 1.9052
vt -0.0667 1.9052
vt 0.0000 0.6843
vt 0.0000 0.6939
vt 0.0000 0.8933
vt 0.0000 0.9029
vt 0.0000 1.0410
vt 0.0000 1.0506
vt 0.0000 1.1175
vt 0.0000 1.1271
vt 0.0000 0.8933
vt 0.0000 0.9029
vt -0.0000 -0.6843
vt -0.0000 -0.6939
vt -0.0667 1.0284
vt 0.0000 1.0284
vt 0.0000 1.2356
vt -0.0667 1.2356
vt 0.9103 0.7638
vt 0.8004 0.7272
vt 0.8371 0.6906
vt 0.8004 0.7638
vt 0.8099 0.7651
vt 0.8188 0.7687
vt 0.8737 0.8004
vt 0.6906 0.7638
vt 0.7638 0.6906
vt 0.7821 0.7687
vt 0.7272 0.8004
vt 0.7910 0.7651
vt 0.8263 0.7745
vt 0.8322 0.7821
vt 0.8358 0.7910
vt 0.8371 0.8004
vt 0.8358 0.8099
vt 0.9103 0.8371
vt 0.8322 0.8188
vt 0.8263 0.8263
vt 0.8188 0.8322
vt 0.8099 0.8358
vt 0.8004 0.8371
vt 0.8004 0.8737
vt 0.7638 0.9103
vt 0.6906 0.8371
vt 0.7910 0.8358
vt 0.7821 0.8322
vt 0.7745 0.8263
vt 0.7687 0.8188
vt 0.7651 0.8099
vt 0.7638 0.8004
vt 0.7651 0.7910
vt 0.7687 0.7821
vt 0.7745 0.7745
vt 0.8371 0.9103
vt 0.0333 -0.0518
vt -0.0000 -0.0518
vt -0.0000 -0.1036
vt 0.0333 -0.1036
vt -0.0333 -0.1036
vt 0.0000 -0.1036
vt 0.0000 -0.0518
vt -0.0333 -0.0518
vt -0.0333 1.0284
vt 0.0000 1.0284
vt 0.0000 1.0802
vt -0.0333 1.0802
vt 0.0333 1.0802
vt -0.0000 1.0802
vt -0.0000 1.0284
vt 0.0333 1.0284
vt -0.0333 1.1838
vt 0.0000 1.1838
vt 0.0000 1.2356
vt -0.0333 1.2356
vt 0.0333 0.1036
vt -0.0000 0.1036
vt -0.0000 0.0518
vt 0.0333 0.0518
vt -0.0333 0.0518
vt 0.0000 0.0518
vt 0.0000 0.1036
vt -0.0333 0.1036
vt 0.0333 1.2356
vt -0.0000 1.2356
vt -0.0000 1.1838
vt 0.0333 1.1838
vn -0.0000 0.0000 -1.0000
vn 0.0000 1.0000 0.0000
vn -1.0000 -0.0000 0.0000
vn 1.0000 0.0000 0.0000
vn 0.0000 -1.0000 0.0000
vn 0.7071 0.7071 0.0000
vn -0.0000 -0.0000 1.0000
vn -0.7071 0.7071 0.0000
vn -0.7071 -0.7071 0.0000
vn 0.7071 -0.7071 0.0000
vn 0.2588 -0.9659 0.0000
vn -0.2588 -0.9659 0.0000
vn -0.9659 -0.2588 0.0000
vn -0.4999 -0.8661 0.0000
vn -0.8661 -0.4999 0.0000
vn -0.9659 0.2588 0.0000
vn -0.8661 0.4999 0.0000
vn -0.7070 0.7072 0.0000
vn -0.5000 0.8660 0.0000
vn -0.2588 0.9659 0.0000
vn 0.2588 0.9659 0.0000
vn 0.5001 0.8660 0.0000
vn 0.8660 0.5001 0.0000
vn 0.9659 0.2588 0.0000
vn 0.9659 -0.2588 0.0000
vn 0.8660 -0.5000 0.0000
vn 0.7072 -0.7070 0.0000
vn 0.4999 -0.8661 0.0000
usemtl Red.029
s 1
f 1/1/1 2/2/1 3/3/1
f 4/4/1 2/2/1 1/1/1
f 5/5/1 2/2/1 4/4/1
f 2/2/1 5/5/1 6/6/1
f 9/7/1 6/6/1 10/8/1
f 5/9/2 17/10/2 10/11/2
f 15/12/3 14/13/3 18/14/3
f 5/5/1 25/15/1 24/16/1
f 5/5/1 26/17/1 25/15/1
f 5/5/1 4/4/1 26/17/1
f 3/18/4 27/19/4 36/20/4
f 38/21/1 1/1/1 36/22/1
f 31/23/2 29/24/2 28/25/2
f 41/26/1 1/1/1 39/27/1
f 42/28/1 1/1/1 41/26/1
f 1/1/1 42/28/1 4/4/1
f 62/29/1 44/30/1 43/31/1
f 62/29/1 45/32/1 44/30/1
f 62/29/1 46/33/1 45/32/1
f 62/29/1 47/34/1 46/33/1
f 24/16/1 47/34/1 62/29/1
f 24/16/1 48/35/1 47/34/1
f 24/16/1 49/36/1 48/35/1
f 24/16/1 50/37/1 49/36/1
f 24/16/1 51/38/1 50/37/1
f 24/16/1 25/15/1 51/38/1
f 60/39/1 63/40/1 61/41/1
f 59/42/1 63/40/1 60/39/1
f 58/43/1 63/40/1 59/42/1
f 57/44/1 63/40/1 58/43/1
f 56/45/1 63/40/1 57/44/1
f 55/46/1 63/40/1 56/45/1
f 55/46/1 39/27/1 63/40/1
f 54/47/1 39/27/1 55/46/1
f 53/48/1 39/27/1 54/47/1
f 52/49/1 39/27/1 53/48/1
f 41/26/1 39/27/1 52/49/1
f 61/41/1 63/40/1 113/50/1
f 116/51/1 113/50/1 117/52/1
f 63/53/5 112/54/5 117/55/5
f 122/56/4 121/57/4 111/58/4
f 61/41/1 113/50/1 124/59/1
f 126/60/1 62/29/1 124/59/1
f 61/41/1 124/59/1 62/29/1
f 62/29/1 43/31/1 61/41/1
f 129/61/1 62/29/1 130/62/1
f 126/63/3 125/64/3 130/65/3
f 135/66/5 134/67/5 109/68/5
f 115/69/1 116/51/1 117/52/1 114/70/1
f 6/6/1 5/5/1 10/8/1
f 11/71/6 7/72/6 10/73/6 16/74/6
f 16/75/7 13/76/7 14/77/7
f 14/77/7 15/78/7 16/75/7
f 17/10/2 13/79/2 16/80/2 10/11/2
f 13/81/8 17/82/8 18/83/8 14/84/8
f 9/85/3 15/12/3 18/14/3 6/86/3
f 15/87/9 9/88/9 8/89/9 12/90/9
f 27/19/4 30/91/4 34/92/4 36/20/4
f 30/93/6 27/94/6 28/95/6 29/96/6
f 33/97/10 35/98/10 36/99/10 34/100/10
f 34/101/7 30/102/7 29/103/7
f 29/103/7 31/104/7 34/101/7
f 128/105/1 129/61/1 130/62/1 127/106/1
f 32/107/9 37/108/9 35/109/9 33/110/9
f 38/111/2 31/23/2 28/25/2 1/112/2
f 31/104/7 32/113/7 33/114/7 34/101/7
f 1/1/1 3/3/1 36/22/1
f 31/115/8 38/116/8 37/117/8 32/118/8
f 112/54/5 120/119/5 123/120/5 117/55/5
f 20/121/5 21/122/11 68/123/11 66/124/5
f 61/41/1 43/31/1 44/30/1
f 44/30/1 45/32/1 61/41/1
f 46/33/1 47/34/1 48/35/1
f 48/35/1 49/36/1 50/37/1
f 50/37/1 51/38/1 25/15/1
f 25/15/1 26/17/1 50/37/1
f 4/4/1 42/28/1 26/17/1
f 41/26/1 52/49/1 53/48/1
f 53/48/1 54/47/1 42/28/1
f 55/46/1 56/45/1 54/47/1
f 57/44/1 58/43/1 59/42/1
f 59/42/1 60/39/1 61/41/1
f 61/41/1 45/32/1 46/33/1
f 46/33/1 48/35/1 61/41/1
f 50/37/1 26/17/1 42/28/1
f 42/28/1 41/26/1 53/48/1
f 54/47/1 56/45/1 61/41/1
f 57/44/1 59/42/1 56/45/1
f 61/41/1 48/35/1 50/37/1
f 84/125/7 74/126/7 104/127/7 94/128/7
f 56/45/1 59/42/1 61/41/1
f 65/129/12 20/130/5 66/131/5 67/132/12
f 77/133/3 75/134/13 74/135/13 76/136/3
f 64/137/14 65/138/12 67/139/12 69/140/14
f 71/141/9 64/142/14 69/143/14 70/144/9
f 73/145/15 71/146/9 70/147/9 72/148/15
f 75/149/13 73/150/15 72/151/15 74/152/13
f 79/153/16 77/154/3 76/155/3 78/156/16
f 77/133/3 55/157/3 54/158/13 75/134/13
f 81/159/17 79/160/16 78/161/16 80/162/17
f 83/163/18 81/164/17 80/165/17 82/166/18
f 85/167/19 83/168/18 82/169/18 84/170/19
f 87/171/20 85/172/19 84/173/19 86/174/20
f 89/175/2 87/176/20 86/177/20 88/178/2
f 91/179/21 89/180/2 88/181/2 90/182/21
f 93/183/22 91/184/21 90/185/21 92/186/22
f 95/187/6 93/188/22 92/189/22 94/190/6
f 97/191/23 95/192/6 94/193/6 96/194/23
f 99/195/24 97/196/23 96/197/23 98/198/24
f 101/199/4 99/200/24 98/201/24 100/202/4
f 103/203/25 101/204/4 100/205/4 102/206/25
f 105/207/26 103/208/25 102/209/25 104/210/26
f 107/211/27 105/212/26 104/213/26 106/214/27
f 22/215/28 107/216/27 106/217/27 108/218/28
f 21/219/11 22/220/28 108/221/28 68/222/11
f 21/219/11 26/223/11 25/224/28 22/220/28
f 106/225/7 104/127/7 67/226/7
f 102/227/7 100/228/7 104/127/7
f 98/229/7 96/230/7 94/128/7
f 94/128/7 92/231/7 90/232/7
f 90/232/7 88/233/7 94/128/7
f 86/234/7 84/125/7 88/233/7
f 82/235/7 80/236/7 78/237/7
f 78/237/7 76/238/7 74/126/7
f 74/126/7 72/239/7 67/226/7
f 70/240/7 69/241/7 67/226/7
f 67/226/7 66/242/7 68/243/7
f 68/243/7 108/244/7 106/225/7
f 104/127/7 100/228/7 94/128/7
f 98/229/7 94/128/7 100/228/7
f 88/233/7 84/125/7 94/128/7
f 82/235/7 78/237/7 74/126/7
f 72/239/7 70/240/7 67/226/7
f 67/226/7 68/243/7 106/225/7
f 84/125/7 82/235/7 74/126/7
f 74/126/7 67/226/7 104/127/7
f 22/215/28 25/245/28 51/246/27 107/216/27
f 99/195/24 47/247/24 46/248/23 97/196/23
f 71/141/9 52/249/9 41/250/14 64/142/14
f 81/159/17 57/251/17 56/252/16 79/160/16
f 119/253/8 115/254/8 114/255/8 118/256/8
f 122/257/7 119/258/7 118/259/7 123/260/7
f 113/50/1 63/40/1 117/52/1
f 118/261/9 114/262/9 117/263/9 123/264/9
f 123/260/7 120/265/7 121/266/7
f 121/266/7 122/257/7 123/260/7
f 15/78/7 12/267/7 11/268/7 16/75/7
f 120/269/10 112/270/10 111/271/10 121/272/10
f 116/273/4 122/56/4 111/58/4 113/274/4
f 122/275/6 116/276/6 115/277/6 119/278/6
f 125/64/3 133/279/3 136/280/3 130/65/3
f 93/183/22 44/281/22 43/282/21 91/184/21
f 91/179/21 43/283/21 61/284/2 89/180/2
f 89/175/2 61/285/2 60/286/20 87/176/20
f 87/171/20 60/287/20 59/288/19 85/172/19
f 85/167/19 59/289/19 58/290/18 83/168/18
f 83/163/18 58/291/18 57/292/17 81/164/17
f 79/153/16 56/293/16 55/294/3 77/154/3
f 75/149/13 54/295/13 53/296/15 73/150/15
f 37/297/1 38/21/1 36/22/1 35/298/1
f 73/145/15 53/299/15 52/300/9 71/146/9
f 64/137/14 41/301/14 42/302/12 65/138/12
f 95/187/6 45/303/6 44/304/22 93/188/22
f 97/191/23 46/305/23 45/306/6 95/192/6
f 132/307/6 128/308/6 127/309/6 131/310/6
f 135/311/7 132/312/7 131/313/7 136/314/7
f 62/29/1 126/60/1 130/62/1
f 131/315/8 127/316/8 130/317/8 136/318/8
f 136/314/7 133/319/7 134/320/7
f 134/320/7 135/311/7 136/314/7
f 8/321/1 9/7/1 10/8/1 7/322/1
f 133/323/9 125/324/9 109/325/9 134/326/9
f 129/327/5 135/66/5 109/68/5 62/328/5
f 135/329/10 129/330/10 128/331/10 132/332/10
f 54/47/1 61/41/1 50/37/1 42/28/1
f 101/199/4 48/333/4 47/334/24 99/200/24
f 103/203/25 49/335/25 48/336/4 101/204/4
f 105/207/26 50/337/26 49/338/25 103/208/25
f 107/211/27 51/339/27 50/340/26 105/212/26
f 20/121/5 4/341/5 26/342/11 21/122/11
f 65/129/12 42/343/12 4/344/5 20/130/5
f 12/345/10 8/346/10 7/347/10 11/348/10
usemtl Brown.002
f 17/349/7 19/350/7 18/351/7
f 19/350/7 17/349/7 20/352/7
f 20/352/7 17/349/7 21/353/7
f 21/353/7 17/349/7 22/354/7
f 22/354/7 17/349/7 23/355/7
f 19/350/7 28/356/7 27/357/7
f 28/356/7 19/350/7 20/352/7
f 28/356/7 64/358/7 40/359/7
f 28/356/7 65/360/7 64/358/7
f 28/356/7 20/352/7 65/360/7
f 22/354/7 23/355/7 107/361/7
f 107/361/7 23/355/7 105/362/7
f 105/362/7 23/355/7 103/363/7
f 103/363/7 23/355/7 101/364/7
f 101/364/7 23/355/7 99/365/7
f 99/365/7 23/355/7 109/366/7
f 99/365/7 109/366/7 97/367/7
f 97/367/7 109/366/7 95/368/7
f 95/368/7 109/366/7 93/369/7
f 93/369/7 109/366/7 91/370/7
f 91/370/7 109/366/7 89/371/7
f 110/372/7 89/371/7 109/366/7
f 111/373/7 89/371/7 110/372/7
f 112/374/7 89/371/7 111/373/7
f 112/374/7 87/375/7 89/371/7
f 112/374/7 85/376/7 87/375/7
f 112/374/7 83/377/7 85/376/7
f 112/374/7 81/378/7 83/377/7
f 112/374/7 79/379/7 81/378/7
f 40/359/7 79/379/7 112/374/7
f 40/359/7 77/380/7 79/379/7
f 40/359/7 75/381/7 77/380/7
f 40/359/7 73/382/7 75/381/7
f 40/359/7 71/383/7 73/382/7
f 40/359/7 64/358/7 71/383/7
f 125/384/7 110/372/7 109/366/7
f 19/385/9 2/386/9 6/387/9 18/388/9
f 17/389/6 5/390/6 24/391/6 23/392/6
f 27/393/10 3/394/10 2/395/10 19/396/10
f 40/397/8 39/398/8 1/399/8 28/400/8
f 23/401/10 24/402/10 62/403/10 109/404/10
f 112/405/9 63/406/9 39/407/9 40/408/9
f 110/409/6 124/410/6 113/411/6 111/412/6
f 125/413/8 126/414/8 124/415/8 110/416/8
